<svg viewBox="0 0 1920 1080" xmlns="http://www.w3.org/2000/svg">
  <!-- Background and patterns -->
  <defs>
    <linearGradient id="bgGrad" x1="0%" y1="0%" x2="100%" y2="100%">
      <stop offset="0%" style="stop-color:#0a0e27;stop-opacity:1" />
      <stop offset="100%" style="stop-color:#1a1f3a;stop-opacity:1" />
    </linearGradient>
    
    <filter id="glow">
      <feGaussianBlur stdDeviation="3" result="coloredBlur"/>
      <feMerge>
        <feMergeNode in="coloredBlur"/>
        <feMergeNode in="SourceGraphic"/>
      </feMerge>
    </filter>
    
    <pattern id="dots" x="0" y="0" width="30" height="30" patternUnits="userSpaceOnUse">
      <circle cx="15" cy="15" r="1" fill="#1e3a5f" opacity="0.3"/>
    </pattern>
  </defs>
  
  <!-- Background -->
  <rect width="1920" height="1080" fill="url(#bgGrad)"/>
  <rect width="1920" height="1080" fill="url(#dots)"/>
  
  <!-- Title -->
  <text x="960" y="80" text-anchor="middle" font-family="Arial, sans-serif" font-size="42" font-weight="bold" fill="#fff">
    建築フェーズ：6日間で完成させる設計図
  </text>
  <text x="960" y="120" text-anchor="middle" font-family="Arial, sans-serif" font-size="20" fill="#64b5f6">
    Building Phases: 6-Day Architecture Blueprint
  </text>
  
  <!-- Timeline -->
  <line x1="200" y1="200" x2="1720" y2="200" stroke="#4fc3f7" stroke-width="2" opacity="0.5"/>
  
  <!-- Day markers -->
  <g>
    <circle cx="320" cy="200" r="8" fill="#4fc3f7"/>
    <circle cx="570" cy="200" r="8" fill="#4fc3f7"/>
    <circle cx="820" cy="200" r="8" fill="#4fc3f7"/>
    <circle cx="1070" cy="200" r="8" fill="#4fc3f7"/>
    <circle cx="1320" cy="200" r="8" fill="#4fc3f7"/>
    <circle cx="1570" cy="200" r="8" fill="#4fc3f7"/>
  </g>
  
  <!-- Day 1: Foundation -->
  <g transform="translate(320, 250)">
    <rect x="-100" y="0" width="200" height="400" fill="#0a0e27" stroke="#4fc3f7" stroke-width="2" opacity="0.9" rx="10"/>
    
    <text x="0" y="-20" text-anchor="middle" font-size="24" font-weight="bold" fill="#4fc3f7">Day 1</text>
    <text x="0" y="30" text-anchor="middle" font-size="20" font-weight="bold" fill="#fff">基礎工事</text>
    <text x="0" y="55" text-anchor="middle" font-size="14" fill="#64b5f6">Foundation</text>
    
    <!-- Building visual -->
    <rect x="-60" y="80" width="120" height="40" fill="#37474f" stroke="#64b5f6" stroke-width="1"/>
    <line x1="-80" y1="120" x2="80" y2="120" stroke="#ffeb3b" stroke-width="3"/>
    
    <!-- Tasks -->
    <text x="0" y="160" text-anchor="middle" font-size="16" fill="#4caf50">Deep Research</text>
    <text x="-80" y="190" font-size="14" fill="#fff">• 調査範囲定義</text>
    <text x="-80" y="215" font-size="14" fill="#fff">• データ収集</text>
    <text x="-80" y="240" font-size="14" fill="#fff">• 基礎知識整理</text>
    
    <text x="0" y="280" text-anchor="middle" font-size="16" fill="#f44336">成果物</text>
    <rect x="-70" y="300" width="140" height="30" fill="#1565c0" stroke="#4fc3f7" stroke-width="1" rx="5"/>
    <text x="0" y="320" text-anchor="middle" font-size="14" fill="#fff">リサーチノート</text>
    
    <text x="0" y="365" text-anchor="middle" font-size="12" fill="#ffeb3b">～20本の記事</text>
  </g>
  
  <!-- Day 2: Framework -->
  <g transform="translate(570, 250)">
    <rect x="-100" y="0" width="200" height="400" fill="#0a0e27" stroke="#4fc3f7" stroke-width="2" opacity="0.9" rx="10"/>
    
    <text x="0" y="-20" text-anchor="middle" font-size="24" font-weight="bold" fill="#4fc3f7">Day 2</text>
    <text x="0" y="30" text-anchor="middle" font-size="20" font-weight="bold" fill="#fff">骨組み構築</text>
    <text x="0" y="55" text-anchor="middle" font-size="14" fill="#64b5f6">Framework</text>
    
    <!-- Building visual -->
    <rect x="-60" y="80" width="120" height="40" fill="#37474f" stroke="#64b5f6" stroke-width="1"/>
    <line x1="-40" y1="80" x2="-40" y2="40" stroke="#64b5f6" stroke-width="2"/>
    <line x1="0" y1="80" x2="0" y2="40" stroke="#64b5f6" stroke-width="2"/>
    <line x1="40" y1="80" x2="40" y2="40" stroke="#64b5f6" stroke-width="2"/>
    
    <!-- Tasks -->
    <text x="0" y="160" text-anchor="middle" font-size="16" fill="#4caf50">構造化</text>
    <text x="-80" y="190" font-size="14" fill="#fff">• 情報整理</text>
    <text x="-80" y="215" font-size="14" fill="#fff">• RAG最適化</text>
    <text x="-80" y="240" font-size="14" fill="#fff">• 知識体系化</text>
    
    <text x="0" y="280" text-anchor="middle" font-size="16" fill="#f44336">成果物</text>
    <rect x="-70" y="300" width="140" height="30" fill="#1976d2" stroke="#4fc3f7" stroke-width="1" rx="5"/>
    <text x="0" y="320" text-anchor="middle" font-size="14" fill="#fff">構造化文書</text>
    
    <text x="0" y="365" text-anchor="middle" font-size="12" fill="#ffeb3b">10万字RAG</text>
  </g>
  
  <!-- Day 3: System Prompt -->
  <g transform="translate(820, 250)">
    <rect x="-100" y="0" width="200" height="400" fill="#0a0e27" stroke="#4fc3f7" stroke-width="2" opacity="0.9" rx="10"/>
    
    <text x="0" y="-20" text-anchor="middle" font-size="24" font-weight="bold" fill="#4fc3f7">Day 3</text>
    <text x="0" y="30" text-anchor="middle" font-size="20" font-weight="bold" fill="#fff">制御装置</text>
    <text x="0" y="55" text-anchor="middle" font-size="14" fill="#64b5f6">Control System</text>
    
    <!-- Building visual -->
    <rect x="-60" y="80" width="120" height="40" fill="#37474f" stroke="#64b5f6" stroke-width="1"/>
    <rect x="-40" y="40" width="80" height="40" fill="#1e88e5" stroke="#ffeb3b" stroke-width="2" filter="url(#glow)"/>
    <circle cx="0" cy="60" r="10" fill="#ffeb3b" filter="url(#glow)"/>
    
    <!-- Tasks -->
    <text x="0" y="160" text-anchor="middle" font-size="16" fill="#4caf50">プロンプト設計</text>
    <text x="-80" y="190" font-size="14" fill="#fff">• 役割定義</text>
    <text x="-80" y="215" font-size="14" fill="#fff">• 指示最適化</text>
    <text x="-80" y="240" font-size="14" fill="#fff">• 制約設定</text>
    
    <text x="0" y="280" text-anchor="middle" font-size="16" fill="#f44336">成果物</text>
    <rect x="-70" y="300" width="140" height="30" fill="#1e88e5" stroke="#4fc3f7" stroke-width="1" rx="5"/>
    <text x="0" y="320" text-anchor="middle" font-size="14" fill="#fff">システムプロンプト</text>
    
    <text x="0" y="365" text-anchor="middle" font-size="12" fill="#ffeb3b">制御の中枢</text>
  </g>
  
  <!-- Day 4: Implementation -->
  <g transform="translate(1070, 250)">
    <rect x="-100" y="0" width="200" height="400" fill="#0a0e27" stroke="#4fc3f7" stroke-width="2" opacity="0.9" rx="10"/>
    
    <text x="0" y="-20" text-anchor="middle" font-size="24" font-weight="bold" fill="#4fc3f7">Day 4</text>
    <text x="0" y="30" text-anchor="middle" font-size="20" font-weight="bold" fill="#fff">実装工事</text>
    <text x="0" y="55" text-anchor="middle" font-size="14" fill="#64b5f6">Implementation</text>
    
    <!-- Building visual -->
    <rect x="-60" y="80" width="120" height="40" fill="#37474f" stroke="#64b5f6" stroke-width="1"/>
    <rect x="-40" y="40" width="80" height="40" fill="#1e88e5" stroke="#64b5f6" stroke-width="1"/>
    <rect x="-50" y="20" width="100" height="20" fill="#2196f3" stroke="#64b5f6" stroke-width="1"/>
    
    <!-- Tasks -->
    <text x="0" y="160" text-anchor="middle" font-size="16" fill="#4caf50">技術実装</text>
    <text x="-80" y="190" font-size="14" fill="#fff">• GPTs作成</text>
    <text x="-80" y="215" font-size="14" fill="#fff">• API連携</text>
    <text x="-80" y="240" font-size="14" fill="#fff">• 機能実装</text>
    
    <text x="0" y="280" text-anchor="middle" font-size="16" fill="#f44336">成果物</text>
    <rect x="-70" y="300" width="140" height="30" fill="#2196f3" stroke="#4fc3f7" stroke-width="1" rx="5"/>
    <text x="0" y="320" text-anchor="middle" font-size="14" fill="#fff">動作するGPTs</text>
    
    <text x="0" y="365" text-anchor="middle" font-size="12" fill="#ffeb3b">実行可能AI</text>
  </g>
  
  <!-- Day 5: Testing -->
  <g transform="translate(1320, 250)">
    <rect x="-100" y="0" width="200" height="400" fill="#0a0e27" stroke="#4fc3f7" stroke-width="2" opacity="0.9" rx="10"/>
    
    <text x="0" y="-20" text-anchor="middle" font-size="24" font-weight="bold" fill="#4fc3f7">Day 5</text>
    <text x="0" y="30" text-anchor="middle" font-size="20" font-weight="bold" fill="#fff">仕上げ工事</text>
    <text x="0" y="55" text-anchor="middle" font-size="14" fill="#64b5f6">Finishing</text>
    
    <!-- Building visual -->
    <rect x="-60" y="80" width="120" height="40" fill="#37474f" stroke="#64b5f6" stroke-width="1"/>
    <rect x="-40" y="40" width="80" height="40" fill="#1e88e5" stroke="#64b5f6" stroke-width="1"/>
    <rect x="-50" y="20" width="100" height="20" fill="#2196f3" stroke="#64b5f6" stroke-width="1"/>
    <polygon points="-60,20 0,0 60,20" fill="#42a5f5" stroke="#64b5f6" stroke-width="1"/>
    
    <!-- Tasks -->
    <text x="0" y="160" text-anchor="middle" font-size="16" fill="#4caf50">品質保証</text>
    <text x="-80" y="190" font-size="14" fill="#fff">• テスト実行</text>
    <text x="-80" y="215" font-size="14" fill="#fff">• バグ修正</text>
    <text x="-80" y="240" font-size="14" fill="#fff">• 最適化</text>
    
    <text x="0" y="280" text-anchor="middle" font-size="16" fill="#f44336">成果物</text>
    <rect x="-70" y="300" width="140" height="30" fill="#42a5f5" stroke="#4fc3f7" stroke-width="1" rx="5"/>
    <text x="0" y="320" text-anchor="middle" font-size="14" fill="#fff">完成版AI</text>
    
    <text x="0" y="365" text-anchor="middle" font-size="12" fill="#ffeb3b">品質保証済</text>
  </g>
  
  <!-- Day 6: Launch -->
  <g transform="translate(1570, 250)">
    <rect x="-100" y="0" width="200" height="400" fill="#0a0e27" stroke="#4fc3f7" stroke-width="2" opacity="0.9" rx="10"/>
    
    <text x="0" y="-20" text-anchor="middle" font-size="24" font-weight="bold" fill="#4fc3f7">Day 6</text>
    <text x="0" y="30" text-anchor="middle" font-size="20" font-weight="bold" fill="#fff">引き渡し</text>
    <text x="0" y="55" text-anchor="middle" font-size="14" fill="#64b5f6">Delivery</text>
    
    <!-- Building visual - complete with glow -->
    <g filter="url(#glow)">
      <rect x="-60" y="80" width="120" height="40" fill="#37474f" stroke="#ffeb3b" stroke-width="2"/>
      <rect x="-40" y="40" width="80" height="40" fill="#1e88e5" stroke="#ffeb3b" stroke-width="2"/>
      <rect x="-50" y="20" width="100" height="20" fill="#2196f3" stroke="#ffeb3b" stroke-width="2"/>
      <polygon points="-60,20 0,0 60,20" fill="#42a5f5" stroke="#ffeb3b" stroke-width="2"/>
      <circle cx="0" cy="-10" r="15" fill="#ffeb3b"/>
    </g>
    
    <!-- Tasks -->
    <text x="0" y="160" text-anchor="middle" font-size="16" fill="#4caf50">運用開始</text>
    <text x="-80" y="190" font-size="14" fill="#fff">• 公開設定</text>
    <text x="-80" y="215" font-size="14" fill="#fff">• 運用手順</text>
    <text x="-80" y="240" font-size="14" fill="#fff">• 保守計画</text>
    
    <text x="0" y="280" text-anchor="middle" font-size="16" fill="#f44336">成果物</text>
    <rect x="-70" y="300" width="140" height="30" fill="#4caf50" stroke="#4fc3f7" stroke-width="1" rx="5"/>
    <text x="0" y="320" text-anchor="middle" font-size="14" fill="#fff">稼働中AI</text>
    
    <text x="0" y="365" text-anchor="middle" font-size="12" fill="#ffeb3b">24/7稼働</text>
  </g>
  
  <!-- Bottom summary -->
  <g transform="translate(960, 750)">
    <rect x="-600" y="0" width="1200" height="250" fill="#0a0e27" stroke="#4fc3f7" stroke-width="2" opacity="0.8" rx="15"/>
    
    <text x="0" y="40" text-anchor="middle" font-size="28" font-weight="bold" fill="#4fc3f7">
      建築プロセスの特徴
    </text>
    
    <g transform="translate(-500, 80)">
      <circle cx="15" cy="15" r="10" fill="#4caf50" opacity="0.8"/>
      <text x="40" y="20" font-size="18" fill="#fff">段階的構築：基礎から完成まで着実に</text>
    </g>
    
    <g transform="translate(-500, 130)">
      <circle cx="15" cy="15" r="10" fill="#2196f3" opacity="0.8"/>
      <text x="40" y="20" font-size="18" fill="#fff">知識の積み上げ：前日の成果が翌日の土台に</text>
    </g>
    
    <g transform="translate(-500, 180)">
      <circle cx="15" cy="15" r="10" fill="#ff9800" opacity="0.8"/>
      <text x="40" y="20" font-size="18" fill="#fff">品質重視：各段階での検証と最適化</text>
    </g>
  </g>
  
  <!-- Footer -->
  <text x="960" y="1050" text-anchor="middle" font-size="14" fill="#64b5f6" opacity="0.7">
    6-Day Journey: From Foundation to Full Operation
  </text>
</svg>