<?xml version="1.0" encoding="UTF-8"?>
<svg width="1280" height="720" viewBox="0 0 1280 720" xmlns="http://www.w3.org/2000/svg">
  <defs>
    <style type="text/css">
      @import url('https://fonts.googleapis.com/css2?family=Noto+Sans+JP:wght@900&amp;display=swap');
      .mainText { 
        font-family: 'Noto Sans JP', 'Arial Black', sans-serif; 
        font-weight: 900; 
        font-size: 72px; 
        fill: #000000; 
        text-anchor: middle;
      }
      .waveform {
        fill: none;
        stroke: #005bac;
        stroke-width: 4;
        opacity: 0.8;
      }
    </style>
  </defs>
  
  <rect width="100%" height="100%" fill="#ffffff"/>
  
  <!-- 音声波形のビジュアル表現 -->
  <g transform="translate(0,360)">
    <path d="M 100 0 Q 150 -50 200 0 T 300 0 Q 350 -80 400 0 T 500 0 Q 550 -60 600 0 T 700 0 Q 750 -90 800 0 T 900 0 Q 950 -40 1000 0 T 1100 0 Q 1150 -70 1200 0" class="waveform"/>
    <path d="M 100 0 Q 150 50 200 0 T 300 0 Q 350 80 400 0 T 500 0 Q 550 60 600 0 T 700 0 Q 750 90 800 0 T 900 0 Q 950 40 1000 0 T 1100 0 Q 1150 70 1200 0" class="waveform"/>
  </g>
  
  <text x="640" y="200" class="mainText">音声データの山</text>
  <text x="640" y="550" class="mainText" fill="#666666">活用できていない現実</text>
</svg>