<svg xmlns="http://www.w3.org/2000/svg" width="1920" height="1080" fill="none" viewBox="0 0 1920 1080">
  <g clip-path="url(#a)">
    <path fill="#fff" d="M1920 0H0v1080h1920V0Z"/>
    <path fill="#000" d="M885.838 331.4c0 10.667-1.134 20.4-3.4 29.2-2.134 8.8-5.467 16.467-10 23-4.534 6.4-10.4 11.4-17.6 15l32.4 38.4h-40.8l-23.6-32h-1.6c-11.067 0-20.667-1.733-28.8-5.2-8.134-3.6-14.867-8.6-20.2-15-5.2-6.533-9.134-14.333-11.8-23.4-2.534-9.067-3.8-19.133-3.8-30.2 0-14.8 2.266-27.667 6.8-38.6 4.666-10.933 11.8-19.4 21.4-25.4 9.599-6.133 21.8-9.2 36.6-9.2 14.933 0 27.133 3.067 36.6 9.2 9.466 6 16.466 14.533 21 25.6 4.533 10.933 6.8 23.8 6.8 38.6Zm-95.2 0c0 10 1 18.6 3 25.8 2.133 7.2 5.466 12.733 10 16.6 4.533 3.867 10.4 5.8 17.6 5.8 7.333 0 13.2-1.933 17.6-5.8 4.533-3.867 7.8-9.4 9.8-16.6 2.133-7.2 3.2-15.8 3.2-25.8 0-15.067-2.4-26.867-7.2-35.4-4.667-8.533-12.4-12.8-23.2-12.8-7.334 0-13.267 1.933-17.8 5.8-4.534 3.867-7.867 9.4-10 16.6-2 7.2-3 15.8-3 25.8Zm165.609-73.2c7.867 0 14.733 1.2 20.6 3.6 5.867 2.4 10.4 5.933 13.6 10.6 3.333 4.533 5 10.133 5 16.8 0 9.2-2.4 16.933-7.2 23.2-4.8 6.267-10.933 11.733-18.4 16.4l22.2 27c2.4-4.533 4.467-9.267 6.2-14.2a129.843 129.843 0 0 0 4.203-15.2h33.2c-1.87 7.467-4.74 15.467-8.6 24-3.87 8.533-8.34 16.533-13.4 24l28.4 28.6h-40.4l-9.803-11c-2.667 2-5.4 3.8-8.2 5.4-2.667 1.6-5.6 3-8.8 4.2-3.067 1.067-6.533 1.867-10.4 2.4-3.733.667-8 1-12.8 1-10.267 0-19.067-1.667-26.4-5-7.2-3.467-12.733-8.267-16.6-14.4-3.733-6.133-5.6-13.2-5.6-21.2 0-6.8.933-12.6 2.8-17.4 2-4.933 4.8-9.2 8.4-12.8 3.733-3.733 8.267-7.133 13.6-10.2-2.8-4-5.133-7.733-7-11.2-1.867-3.6-3.267-7.133-4.2-10.6-.933-3.467-1.4-7.133-1.4-11 0-6.8 1.6-12.667 4.8-17.6 3.333-4.933 8.067-8.733 14.2-11.4 6.133-2.667 13.467-4 22-4Zm-10.4 83.6c-2 1.867-3.733 3.8-5.2 5.8s-2.6 4.133-3.4 6.4c-.667 2.267-1 4.8-1 7.6 0 5.733 1.667 10.267 5 13.6 3.467 3.2 7.867 4.8 13.2 4.8 3.733 0 7.133-.533 10.2-1.6 3.067-1.067 5.667-2.533 7.8-4.4l-26.6-32.2Zm10-60.6c-2.933 0-5.6.867-8 2.6-2.267 1.6-3.4 4.733-3.4 9.4 0 3.333.8 6.533 2.4 9.6 1.6 3.067 3.6 6.2 6 9.4 4.267-3.067 7.533-6.133 9.8-9.2 2.4-3.067 3.6-6.6 3.6-10.6s-1.067-6.867-3.2-8.6c-2.133-1.733-4.533-2.6-7.2-2.6ZM1139.55 403l-8.2-34h-46.2l-8.4 34h-35.2l45.6-143.4h41.6l45.8 143.4h-35Zm-24.6-92.6c-.8-2.8-1.6-5.733-2.4-8.8-.8-3.067-1.6-6.267-2.4-9.6a2254.8 2254.8 0 0 1-2-10.2c-.53 3.467-1.2 6.933-2 10.4-.8 3.333-1.6 6.533-2.4 9.6a111.83 111.83 0 0 1-2.2 8.6l-9.2 33.2h32l-9.4-33.2Z"/>
    <path fill="#666" d="m864.24 493.06 4.38 4.26c-1.68.48-3.56.92-5.64 1.32-2.04.4-4.12.72-6.24.96s-4.16.42-6.12.54c-.12-.6-.34-1.32-.66-2.16-.28-.88-.6-1.6-.96-2.16 1.84-.2 3.68-.42 5.52-.66 1.88-.28 3.66-.6 5.34-.96 1.72-.36 3.18-.74 4.38-1.14Zm25.98.06 4.38 4.2c-1.8.56-3.8 1.04-6 1.44-2.2.36-4.46.66-6.78.9-2.28.24-4.48.44-6.6.6-.12-.64-.34-1.38-.66-2.22-.32-.88-.62-1.62-.9-2.22 1.96-.16 3.96-.38 6-.66s3.98-.6 5.82-.96c1.88-.36 3.46-.72 4.74-1.08Zm-43.2 1.26 7.74 1.92c-.04.48-.52.8-1.44.96v2.94c0 1.56-.18 3.36-.54 5.4-.36 2-1.02 4.02-1.98 6.06-.92 2-2.3 3.86-4.14 5.58-.32-.48-.76-1-1.32-1.56-.56-.6-1.14-1.16-1.74-1.68-.6-.56-1.16-.98-1.68-1.26 1.52-1.32 2.62-2.72 3.3-4.2.72-1.48 1.2-2.96 1.44-4.44.24-1.52.36-2.94.36-4.26v-5.46Zm24.9.06 7.68 1.74c-.04.56-.52.9-1.44 1.02v3.06c0 1.4-.2 3-.6 4.8-.4 1.76-1.16 3.52-2.28 5.28-1.12 1.72-2.74 3.26-4.86 4.62-.24-.48-.62-1.02-1.14-1.62-.52-.64-1.06-1.24-1.62-1.8-.56-.6-1.1-1.04-1.62-1.32 1.68-1.04 2.92-2.14 3.72-3.3.84-1.16 1.4-2.34 1.68-3.54.32-1.2.48-2.36.48-3.48v-5.46ZM849.84 502h19.98v5.22h-19.98V502Zm24.72 0H897v5.22h-22.44V502Zm-16.8 1.74h6.36v9.72h-6.36v-9.72Zm25.2 0h6.42v9.78h-6.42v-9.78Zm-25.8 21.84v2.64h26.16v-2.64h-26.16Zm0 6.72v2.64h26.16v-2.64h-26.16Zm0-13.38v2.58h26.16v-2.58h-26.16Zm-6.96-4.32h40.38v24.6H850.2v-24.6Zm23.16 27.78 6-3.42c2.16.76 4.34 1.58 6.54 2.46 2.24.84 4.36 1.7 6.36 2.58 2.04.84 3.76 1.6 5.16 2.28l-8.4 3.24c-1.12-.64-2.52-1.38-4.2-2.22-1.68-.84-3.5-1.7-5.46-2.58-1.92-.84-3.92-1.62-6-2.34Zm-13.26-3.66 6.54 3c-1.6 1.04-3.48 2.06-5.64 3.06-2.16 1-4.38 1.9-6.66 2.7a80.34 80.34 0 0 1-6.48 2.1c-.44-.48-.98-1.06-1.62-1.74-.6-.64-1.24-1.3-1.92-1.98-.68-.64-1.28-1.16-1.8-1.56 2.12-.4 4.26-.88 6.42-1.44 2.2-.56 4.26-1.2 6.18-1.92 1.96-.72 3.62-1.46 4.98-2.22Zm44.82-45.12h6.42v12.48c0 .88.16 1.44.48 1.68.32.2 1.06.3 2.22.3h6.78c.6 0 1.06-.1 1.38-.3.32-.24.54-.7.66-1.38.16-.72.28-1.78.36-3.18.68.48 1.58.94 2.7 1.38 1.16.44 2.2.76 3.12.96-.24 2.2-.64 3.92-1.2 5.16-.56 1.2-1.34 2.04-2.34 2.52-1 .44-2.36.66-4.08.66h-8.22c-2.24 0-3.96-.22-5.16-.66-1.2-.48-2.02-1.28-2.46-2.4-.44-1.12-.66-2.66-.66-4.62v-12.6Zm17.58 1.14 4.56 4.74c-1.76.72-3.7 1.4-5.82 2.04-2.08.6-4.2 1.16-6.36 1.68-2.12.48-4.16.9-6.12 1.26-.16-.64-.42-1.42-.78-2.34-.36-.92-.72-1.7-1.08-2.34 1.84-.44 3.72-.92 5.64-1.44 1.92-.56 3.74-1.14 5.46-1.74 1.76-.64 3.26-1.26 4.5-1.86Zm-15.3 18.6 6.12 1.32c-.68 2.6-1.62 5.12-2.82 7.56-1.16 2.4-2.48 4.42-3.96 6.06-.36-.36-.86-.78-1.5-1.26-.6-.48-1.22-.94-1.86-1.38-.64-.48-1.22-.86-1.74-1.14 1.36-1.4 2.52-3.08 3.48-5.04 1-2 1.76-4.04 2.28-6.12Zm1.62 4.2h17.7v5.7H906l2.82-5.7Zm-6.18 10.08h25.26v5.88h-25.26v-5.88Zm10.38-7.8h6.42v7.68c0 1.68-.16 3.48-.48 5.4-.28 1.88-.86 3.8-1.74 5.76s-2.2 3.86-3.96 5.7c-1.76 1.88-4.08 3.6-6.96 5.16-.44-.68-1.12-1.48-2.04-2.4-.88-.88-1.72-1.6-2.52-2.16 2.56-1.2 4.58-2.56 6.06-4.08 1.52-1.56 2.64-3.14 3.36-4.74.76-1.6 1.26-3.16 1.5-4.68.24-1.52.36-2.88.36-4.08v-7.56Zm.9 17.34 4.2-4.14c.96.76 1.96 1.62 3 2.58 1.08.92 2.1 1.84 3.06 2.76 1 .92 1.8 1.74 2.4 2.46l-4.44 4.68c-.52-.76-1.26-1.62-2.22-2.58-.96-1-1.98-2-3.06-3a58.27 58.27 0 0 0-2.94-2.76Zm15.66-42.36h22.8v5.58h-22.8v-5.58Zm20.52 0h1.44l1.26-.36 4.26 2.76c-1.08 1.68-2.36 3.36-3.84 5.04-1.44 1.64-3 3.18-4.68 4.62a38.35 38.35 0 0 1-5.1 3.72c-.44-.68-1.06-1.44-1.86-2.28-.8-.88-1.52-1.6-2.16-2.16 1.48-.84 2.92-1.84 4.32-3 1.4-1.16 2.66-2.36 3.78-3.6 1.12-1.28 1.98-2.46 2.58-3.54v-1.2Zm-18.84 11.88 4.2-4.32c1.76.68 3.66 1.52 5.7 2.52 2.08.96 4.06 1.96 5.94 3 1.88 1.04 3.42 2 4.62 2.88l-4.44 4.86c-1.12-.92-2.6-1.9-4.44-2.94-1.8-1.08-3.72-2.14-5.76-3.18a84.54 84.54 0 0 0-5.82-2.82Zm-2.76 7.56h25.44v5.88H928.5v-5.88Zm23.28 0h.9l.96-.24 4.44 1.02c-.52 2-1.12 4.04-1.8 6.12-.68 2.08-1.36 3.84-2.04 5.28l-5.16-1.44c.52-1.28 1.02-2.84 1.5-4.68.52-1.84.92-3.58 1.2-5.22v-.84Zm-12.24 1.74h6.36v29.4l-6.36-3.06v-26.34Zm2.58 12.18h13.56v5.88h-13.56v-5.88Zm-6.84 2.76c.76 2.56 1.68 4.64 2.76 6.24 1.08 1.56 2.3 2.76 3.66 3.6 1.36.8 2.8 1.36 4.32 1.68 1.52.32 3.1.48 4.74.48h5.22c1.08-.04 1.92-.06 2.52-.06-.4.68-.78 1.6-1.14 2.76-.32 1.2-.54 2.22-.66 3.06h-6.36c-2.2 0-4.26-.22-6.18-.66a14.42 14.42 0 0 1-5.34-2.46c-1.64-1.16-3.12-2.8-4.44-4.92-1.28-2.12-2.4-4.84-3.36-8.16l4.26-1.56Zm-4.98-7.86 6.3.18c-.2 5.84-.82 10.96-1.86 15.36-1.04 4.36-2.86 8.04-5.46 11.04-.32-.36-.82-.8-1.5-1.32-.64-.48-1.32-.98-2.04-1.5-.68-.48-1.28-.84-1.8-1.08 1.68-1.64 2.96-3.58 3.84-5.82.92-2.28 1.56-4.84 1.92-7.68.36-2.84.56-5.9.6-9.18Zm55.38-4.62h7.14v20.88c0 1.12.12 1.82.36 2.1.28.28.82.42 1.62.42h4.86c.6 0 1.06-.22 1.38-.66.32-.48.54-1.42.66-2.82.16-1.4.28-3.48.36-6.24.52.4 1.14.8 1.86 1.2.76.4 1.54.74 2.34 1.02.8.28 1.5.52 2.1.72-.2 3.4-.58 6.06-1.14 7.98-.52 1.92-1.32 3.26-2.4 4.02-1.08.8-2.58 1.2-4.5 1.2h-6.66c-2.12 0-3.76-.28-4.92-.84-1.12-.52-1.92-1.44-2.4-2.76-.44-1.32-.66-3.08-.66-5.28v-20.94Zm-8.52 4.62 6.48 1.38c-.2 2.28-.48 4.64-.84 7.08-.36 2.44-.84 4.76-1.44 6.96-.56 2.16-1.3 4.06-2.22 5.7l-6.36-2.88c.84-1.56 1.54-3.32 2.1-5.28a47 47 0 0 0 1.44-6.3c.36-2.24.64-4.46.84-6.66Zm8.94-11.34 4.86-4.74c1.6.76 3.32 1.64 5.16 2.64 1.84 1 3.6 2.04 5.28 3.12 1.68 1.08 3.06 2.08 4.14 3l-5.16 5.4c-.96-.96-2.26-2-3.9-3.12-1.6-1.16-3.32-2.28-5.16-3.36-1.8-1.12-3.54-2.1-5.22-2.94Zm18.36 12.18 6.42-2.46c1.2 2.04 2.36 4.26 3.48 6.66 1.12 2.36 2.08 4.68 2.88 6.96.84 2.24 1.4 4.28 1.68 6.12l-7.08 2.94c-.2-1.8-.68-3.86-1.44-6.18-.72-2.36-1.6-4.74-2.64-7.14a85.14 85.14 0 0 0-3.3-6.9ZM988.14 493h7.5v10.98h-7.5V493Zm-18.12 7.08h47.4v6.84h-47.4v-6.84Zm-3.36 0h7.2v15.12c0 2.44-.1 5.14-.3 8.1-.16 2.92-.46 5.94-.9 9.06-.44 3.08-1.08 6.08-1.92 9-.8 2.92-1.88 5.56-3.24 7.92-.44-.4-1.06-.88-1.86-1.44-.76-.52-1.54-1.04-2.34-1.56-.8-.48-1.48-.84-2.04-1.08 1.24-2.16 2.22-4.52 2.94-7.08.72-2.56 1.24-5.18 1.56-7.86.36-2.68.6-5.3.72-7.86.12-2.6.18-5 .18-7.2v-15.12Zm71.28 19.8h24.24v5.88h-24.24v-5.88Zm-1.86 21.72h27.96v6.18h-27.96v-6.18Zm13.68-28.62c-1.72 2.04-3.88 4.08-6.48 6.12-2.6 2.04-5.44 3.96-8.52 5.76-3.08 1.8-6.24 3.38-9.48 4.74-.4-.8-.98-1.74-1.74-2.82-.76-1.12-1.48-2.04-2.16-2.76a62.71 62.71 0 0 0 9.78-4.68c3.16-1.88 6.02-3.88 8.58-6 2.6-2.16 4.7-4.28 6.3-6.36h6.84a55.13 55.13 0 0 0 7.56 7.02c2.8 2.12 5.76 4 8.88 5.64 3.16 1.6 6.32 2.88 9.48 3.84-.8.84-1.58 1.82-2.34 2.94-.72 1.08-1.36 2.1-1.92 3.06-2.92-1.2-5.96-2.68-9.12-4.44-3.12-1.8-6.06-3.74-8.82-5.82-2.72-2.08-5-4.16-6.84-6.24Zm-17.7 16.8H1068v19.44h-7.14V535.9h-21.9v13.5h-6.9v-19.62Zm-1.8-31.98h18.72v6h-18.72v-6Zm23.7 0h23.28v6h-23.28v-6Zm-23.4-5.46 6.9 1.8c-.8 2.12-1.76 4.24-2.88 6.36a53.252 53.252 0 0 1-3.54 5.88c-1.24 1.84-2.5 3.44-3.78 4.8-.44-.36-1.04-.78-1.8-1.26-.72-.52-1.46-1.02-2.22-1.5-.76-.48-1.42-.86-1.98-1.14 1.92-1.8 3.7-4.04 5.34-6.72 1.68-2.72 3-5.46 3.96-8.22Zm24.36 0 7.02 1.68c-1 2.92-2.36 5.74-4.08 8.46-1.72 2.68-3.5 4.9-5.34 6.66-.48-.4-1.1-.84-1.86-1.32-.72-.52-1.46-1.04-2.22-1.56-.76-.52-1.44-.92-2.04-1.2 1.84-1.52 3.52-3.42 5.04-5.7 1.52-2.28 2.68-4.62 3.48-7.02Zm-22.5 10.02 5.94-1.86c.88 1.28 1.76 2.7 2.64 4.26.92 1.52 1.58 2.86 1.98 4.02l-6.36 2.16c-.32-1.16-.9-2.54-1.74-4.14-.8-1.64-1.62-3.12-2.46-4.44Zm26.1.12 6.24-2.16a57.3 57.3 0 0 1 3.18 4.2c1.08 1.52 1.88 2.86 2.4 4.02l-6.66 2.4c-.44-1.16-1.16-2.54-2.16-4.14-1-1.6-2-3.04-3-4.32Z"/>
    <path stroke="#E5E7EB" stroke-width="4" d="M560 620h800"/>
    <path fill="#374151" d="M709.891 695.36c1.44.16 3.053.28 4.84.36 1.813.08 3.72.12 5.72.12 1.28 0 2.56-.027 3.84-.08 1.307-.053 2.547-.12 3.72-.2 1.2-.08 2.28-.173 3.24-.28v3.28a150.155 150.155 0 0 1-6.96.44 184 184 0 0 1-3.8.04 122.842 122.842 0 0 1-10.6-.44v-3.24Zm1.6 16.12a14.777 14.777 0 0 0-.6 2.32c-.133.747-.2 1.48-.2 2.2 0 1.547.773 2.8 2.32 3.76 1.573.933 3.96 1.4 7.16 1.4 1.867 0 3.64-.053 5.32-.16a52.379 52.379 0 0 0 4.68-.56c1.44-.24 2.667-.52 3.68-.84l.04 3.44c-.96.24-2.147.467-3.56.68-1.387.24-2.933.413-4.64.52-1.707.133-3.52.2-5.44.2-2.693 0-5-.293-6.92-.88s-3.387-1.453-4.4-2.6c-1.013-1.147-1.52-2.56-1.52-4.24 0-1.04.093-2.027.28-2.96.187-.933.373-1.8.56-2.6l3.24.32Zm20.88-20.6c.347.48.72 1.053 1.12 1.72.4.64.787 1.307 1.16 2a27.5 27.5 0 0 1 1 1.8l-2.16 1c-.4-.827-.907-1.773-1.52-2.84a31.396 31.396 0 0 0-1.76-2.76l2.16-.92Zm4.4-1.6a33.13 33.13 0 0 1 1.2 1.76c.427.667.84 1.333 1.24 2 .4.64.72 1.213.96 1.72l-2.2.96a35.292 35.292 0 0 0-1.56-2.84c-.587-1.04-1.173-1.933-1.76-2.68l2.12-.92Zm21.2.2 2 1.88c-1.067.32-2.293.6-3.68.84s-2.813.453-4.28.64c-1.44.16-2.84.293-4.2.4-.027-.267-.12-.587-.28-.96-.133-.4-.28-.733-.44-1 1.28-.133 2.6-.28 3.96-.44 1.36-.187 2.64-.4 3.84-.64 1.227-.24 2.253-.48 3.08-.72Zm17.16.08 2 1.88c-1.147.293-2.453.56-3.92.8s-2.987.44-4.56.6c-1.547.16-3.04.293-4.48.4a5.4 5.4 0 0 0-.28-.96 6.986 6.986 0 0 0-.44-1c1.387-.107 2.8-.253 4.24-.44 1.467-.187 2.853-.387 4.16-.6 1.307-.213 2.4-.44 3.28-.68Zm-28.84.92 3.48.96c-.053.267-.32.44-.8.52v2.6c0 .987-.107 2.08-.32 3.28-.187 1.2-.573 2.4-1.16 3.6-.56 1.173-1.4 2.28-2.52 3.32a2.732 2.732 0 0 0-.52-.68 9.1 9.1 0 0 0-.76-.68 5.372 5.372 0 0 0-.72-.56c.96-.88 1.667-1.8 2.12-2.76.48-.96.8-1.92.96-2.88.16-.987.24-1.907.24-2.76v-3.96Zm16.36.08 3.44.88c-.027.267-.28.427-.76.48v2.32c0 .88-.12 1.853-.36 2.92-.24 1.04-.693 2.08-1.36 3.12-.667 1.013-1.64 1.96-2.92 2.84a4.06 4.06 0 0 0-.52-.72 9.1 9.1 0 0 0-.68-.76 3.943 3.943 0 0 0-.68-.56c1.093-.693 1.907-1.427 2.44-2.2.56-.8.933-1.6 1.12-2.4.187-.8.28-1.573.28-2.32v-3.6Zm-15.16 4.64h13.56v2.32h-13.56v-2.32Zm16.36 0h15.28v2.32h-15.28v-2.32Zm-10.2.84h2.68v6.52h-2.68v-6.52Zm16.8 0h2.72v6.6h-2.72v-6.6Zm-19.2 14.08v2.8h20.28v-2.8h-20.28Zm0 4.76v2.84h20.28v-2.84h-20.28Zm0-9.48v2.76h20.28v-2.76h-20.28Zm-2.92-2.04h26.2v16.4h-26.2v-16.4Zm16.24 18.48 2.44-1.52c1.467.453 2.947.933 4.44 1.44a125.18 125.18 0 0 1 4.24 1.52 62.894 62.894 0 0 1 3.44 1.48l-3.36 1.52a44.496 44.496 0 0 0-3.04-1.4c-1.2-.507-2.493-1.027-3.88-1.56-1.387-.507-2.813-1-4.28-1.48Zm-9.44-1.64 2.76 1.24a35.166 35.166 0 0 1-3.76 1.88 52.215 52.215 0 0 1-4.32 1.68 81.703 81.703 0 0 1-4.24 1.32c-.16-.213-.373-.467-.64-.76l-.84-.84a5.094 5.094 0 0 0-.76-.64c1.387-.293 2.8-.64 4.24-1.04 1.467-.4 2.853-.84 4.16-1.32 1.307-.48 2.44-.987 3.4-1.52Zm39.72-11.4h13.72v11.76h-13.72V718h10.88v-6.64h-10.88v-2.56Zm-1.32 0h2.8v14.16h-2.8V708.8Zm-7.24-11.88h11.12v2.2h-11.12v-2.2Zm18.44 0h11.36v2.2h-11.36v-2.2Zm10-5.8h3.04v31.04c0 1.013-.133 1.773-.4 2.28-.267.533-.733.933-1.4 1.2-.667.267-1.6.427-2.8.48-1.173.053-2.64.08-4.4.08a4.17 4.17 0 0 0-.24-1 9.454 9.454 0 0 0-.4-1.12 5.403 5.403 0 0 0-.44-.96 86.2 86.2 0 0 0 2.56.04h3.48c.373-.027.627-.107.76-.24.16-.16.24-.413.24-.76v-31.04Zm-28.2 0h12.8v14.08h-12.8v-2.4h10v-9.28h-10v-2.4Zm29.8 0v2.4h-10.52v9.32h10.52v2.4h-13.36v-14.12h13.36Zm-31.44 0h2.96v35.12h-2.96v-35.12Zm54.72.24c-.16.8-.373 1.747-.64 2.84-.24 1.067-.64 2.28-1.2 3.64a31.42 31.42 0 0 1-1.8 3.72 25.99 25.99 0 0 1-2.24 3.48 7.856 7.856 0 0 1 1.72-.8c.64-.24 1.293-.413 1.96-.52.693-.107 1.32-.16 1.88-.16 1.547 0 2.853.44 3.92 1.32 1.067.853 1.6 2.107 1.6 3.76v4.44l.08 2.52c.027.827.04 1.547.04 2.16h-3.08c.027-.533.053-1.16.08-1.88.027-.72.04-1.48.04-2.28.027-.8.027-1.56 0-2.28v-1.84c0-1.173-.36-2.027-1.08-2.56-.693-.56-1.573-.84-2.64-.84-1.253 0-2.493.28-3.72.84a11.215 11.215 0 0 0-3.16 2.08c-.587.56-1.173 1.2-1.76 1.92-.56.693-1.187 1.44-1.88 2.24l-2.72-2c1.92-1.867 3.52-3.613 4.8-5.24 1.28-1.627 2.32-3.133 3.12-4.52.8-1.413 1.427-2.68 1.88-3.8.427-1.12.773-2.24 1.04-3.36.267-1.147.427-2.2.48-3.16l3.28.28Zm-13.68 4.32c1.067.133 2.227.24 3.48.32 1.253.08 2.347.12 3.28.12 1.787 0 3.707-.04 5.76-.12a165.35 165.35 0 0 0 6.2-.44 65.353 65.353 0 0 0 6-.8l-.04 2.96c-1.387.24-2.867.44-4.44.6-1.573.133-3.173.253-4.8.36-1.627.08-3.2.147-4.72.2-1.493.027-2.88.04-4.16.04h-1.96c-.72-.027-1.48-.053-2.28-.08-.8-.053-1.573-.107-2.32-.16v-3Zm30.56 9.68c-.347.08-.733.2-1.16.36-.4.133-.813.28-1.24.44-.4.16-.787.32-1.16.48-1.387.533-3 1.187-4.84 1.96a71.246 71.246 0 0 0-5.64 2.68c-1.333.667-2.507 1.373-3.52 2.12-1.013.72-1.813 1.48-2.4 2.28-.587.773-.88 1.627-.88 2.56 0 .773.173 1.4.52 1.88.373.48.893.853 1.56 1.12.667.24 1.427.4 2.28.48.88.08 1.84.12 2.88.12 1.547 0 3.307-.08 5.28-.24 2-.187 3.88-.427 5.64-.72l-.08 3.2c-1.013.133-2.16.253-3.44.36a86.173 86.173 0 0 1-3.84.24c-1.28.08-2.507.12-3.68.12-1.893 0-3.627-.173-5.2-.52-1.547-.347-2.787-.96-3.72-1.84-.933-.88-1.4-2.133-1.4-3.76 0-1.2.28-2.293.84-3.28a10.425 10.425 0 0 1 2.24-2.76 23.244 23.244 0 0 1 3.16-2.28 38.134 38.134 0 0 1 3.52-1.96 56.873 56.873 0 0 1 3.6-1.8c1.147-.507 2.227-.973 3.24-1.4a59.15 59.15 0 0 0 2.84-1.28c.587-.267 1.147-.52 1.68-.76.533-.24 1.067-.507 1.6-.8l1.32 3Zm21.16-14.32c-.053.24-.093.52-.12.84-.027.293-.053.613-.08.96-.027.347-.053.667-.08.96-.027.613-.067 1.413-.12 2.4-.027.987-.053 2.08-.08 3.28l-.08 3.6c-.027 1.2-.04 2.32-.04 3.36v3.44l.08 3.68c.053 1.2.08 2.32.08 3.36a95.65 95.65 0 0 1 .04 2.44c0 1.227-.147 2.2-.44 2.92-.293.72-.707 1.227-1.24 1.52-.507.32-1.12.48-1.84.48-.773 0-1.64-.187-2.6-.56a11.89 11.89 0 0 1-2.76-1.44 8.888 8.888 0 0 1-2.12-2.12c-.56-.8-.84-1.64-.84-2.52 0-1.2.453-2.373 1.36-3.52.933-1.147 2.133-2.213 3.6-3.2a23.102 23.102 0 0 1 4.72-2.4 29.39 29.39 0 0 1 5.56-1.6c1.893-.373 3.627-.56 5.2-.56 1.947 0 3.667.333 5.16 1 1.52.667 2.707 1.6 3.56 2.8.88 1.173 1.32 2.56 1.32 4.16s-.333 3.013-1 4.24c-.64 1.227-1.6 2.253-2.88 3.08-1.253.827-2.8 1.467-4.64 1.92-.88.187-1.76.307-2.64.36-.853.08-1.627.147-2.32.2l-1.12-3.24c.747.027 1.52.027 2.32 0 .827-.027 1.613-.12 2.36-.28a12.13 12.13 0 0 0 3.28-1.08c1.04-.533 1.867-1.227 2.48-2.08.64-.853.96-1.88.96-3.08 0-1.147-.307-2.107-.92-2.88-.613-.773-1.44-1.36-2.48-1.76-1.04-.4-2.2-.6-3.48-.6-1.76 0-3.48.187-5.16.56-1.68.373-3.387.907-5.12 1.6-1.28.48-2.453 1.08-3.52 1.8-1.067.693-1.92 1.427-2.56 2.2-.613.773-.92 1.507-.92 2.2 0 .453.147.893.44 1.32.32.4.707.76 1.16 1.08.453.32.933.573 1.44.76.507.16.947.24 1.32.24.453 0 .8-.16 1.04-.48.267-.32.4-.813.4-1.48 0-.773-.013-1.84-.04-3.2-.027-1.387-.053-2.88-.08-4.48-.027-1.627-.04-3.173-.04-4.64v-3.68a184 184 0 0 0 .04-3.8c.027-1.227.04-2.307.04-3.24.027-.933.04-1.6.04-2 0-.267-.013-.573-.04-.92 0-.373-.013-.733-.04-1.08a5.31 5.31 0 0 0-.12-.84h3.56Zm12.4 4.44c.96.507 2.027 1.12 3.2 1.84 1.173.693 2.293 1.4 3.36 2.12 1.093.72 1.96 1.347 2.6 1.88l-1.64 2.56c-.48-.48-1.093-.987-1.84-1.52a34.311 34.311 0 0 0-2.4-1.64 53.883 53.883 0 0 0-2.52-1.56 48.556 48.556 0 0 0-2.2-1.28l1.44-2.4Zm-24 2.76c1.093.133 2.027.227 2.8.28.8.027 1.573.04 2.32.04.987 0 2.093-.053 3.32-.16a109.75 109.75 0 0 0 3.8-.4 75.51 75.51 0 0 0 3.8-.64 44.44 44.44 0 0 0 3.36-.84l.08 3.12c-1.04.24-2.2.48-3.48.72-1.28.213-2.587.4-3.92.56-1.307.16-2.56.293-3.76.4-1.2.107-2.24.16-3.12.16-1.147 0-2.12-.013-2.92-.04a27.64 27.64 0 0 1-2.2-.16l-.08-3.04Zm50.6-3.64h20.96v2.72h-20.96v-2.72Zm-1.88 15.04h24.64v2.76h-24.64v-2.76Zm-.48-7.24h25.4v2.76h-25.4v-2.76Zm11.16-12.8h3v14.28h-3V689.6Zm5.64 14.96h2.96v18c0 .907-.12 1.587-.36 2.04-.213.453-.64.8-1.28 1.04s-1.48.373-2.52.4c-1.04.053-2.347.08-3.92.08-.053-.4-.187-.88-.4-1.44a12.514 12.514 0 0 0-.6-1.44c.827.027 1.587.04 2.28.04.72.027 1.347.027 1.88 0h1.12c.32 0 .533-.053.64-.16.133-.107.2-.293.2-.56v-18Zm-13.28 10.28 2.48-1.28c.64.667 1.267 1.413 1.88 2.24a46.194 46.194 0 0 1 1.72 2.48c.533.8.947 1.52 1.24 2.16l-2.56 1.52c-.267-.667-.667-1.413-1.2-2.24a41.442 41.442 0 0 0-1.68-2.52 29.189 29.189 0 0 0-1.88-2.36Zm-5.72-16.52 2.64 1.04c-.88 1.6-1.92 3.187-3.12 4.76a53.853 53.853 0 0 1-3.72 4.4 44.432 44.432 0 0 1-3.92 3.64 7.335 7.335 0 0 0-.4-.92 12.06 12.06 0 0 0-.64-1.12c-.213-.373-.4-.68-.56-.92 1.2-.88 2.4-1.907 3.6-3.08a37.104 37.104 0 0 0 3.4-3.72 27.103 27.103 0 0 0 2.72-4.08Zm-.68-8.84 2.8 1.12a28.843 28.843 0 0 1-2.76 3.52 40.059 40.059 0 0 1-3.4 3.32 35.326 35.326 0 0 1-3.52 2.76 6.214 6.214 0 0 0-.44-.8c-.187-.32-.387-.627-.6-.92a5.306 5.306 0 0 0-.52-.76 34.063 34.063 0 0 0 3.16-2.4 39.187 39.187 0 0 0 3.04-2.88c.933-1.013 1.68-2 2.24-2.96Zm-2.8 15.88 2.76-2.8.12.08v23.52h-2.88v-20.8Zm49.52-13.68c-.16.533-.293 1.093-.4 1.68a96.439 96.439 0 0 1-.32 1.68c-.133.64-.293 1.44-.48 2.4-.16.933-.373 1.96-.64 3.08-.24 1.093-.493 2.2-.76 3.32a69.718 69.718 0 0 1-.84 3.2 25.184 25.184 0 0 1-.84 2.6c1.76-1.227 3.547-2.093 5.36-2.6 1.84-.533 3.813-.8 5.92-.8 2.133 0 3.947.333 5.44 1 1.493.667 2.64 1.6 3.44 2.8.8 1.173 1.2 2.547 1.2 4.12 0 2.08-.507 3.84-1.52 5.28-1.013 1.44-2.44 2.573-4.28 3.4-1.84.827-4.027 1.347-6.56 1.56-2.507.24-5.293.2-8.36-.12l-.8-3.16c2.32.32 4.56.453 6.72.4 2.187-.08 4.133-.373 5.84-.88 1.733-.533 3.107-1.32 4.12-2.36 1.04-1.04 1.56-2.387 1.56-4.04 0-1.493-.613-2.747-1.84-3.76-1.2-1.04-2.973-1.56-5.32-1.56-2.373 0-4.6.413-6.68 1.24-2.08.8-3.787 2-5.12 3.6-.24.293-.467.587-.68.88a7.69 7.69 0 0 0-.56.96l-3-1.08c.773-1.493 1.48-3.16 2.12-5 .64-1.867 1.2-3.747 1.68-5.64.48-1.893.88-3.627 1.2-5.2.32-1.6.547-2.893.68-3.88.08-.64.133-1.213.16-1.72.027-.507.027-1.04 0-1.6l3.56.2Zm-12.44 5.08c1.067.187 2.293.347 3.68.48 1.413.133 2.72.2 3.92.2 1.28 0 2.707-.04 4.28-.12a115.834 115.834 0 0 0 10.04-.96 78.646 78.646 0 0 0 4.96-.92l.04 3.08c-1.413.24-2.96.467-4.64.68-1.653.213-3.347.4-5.08.56-1.733.16-3.427.293-5.08.4-1.627.08-3.12.12-4.48.12-1.36 0-2.68-.04-3.96-.12a134.37 134.37 0 0 1-3.64-.28l-.04-3.12Zm49.12-4.92a24.828 24.828 0 0 0-.24 2.04 51.564 51.564 0 0 0-.12 2c-.053 1.12-.107 2.507-.16 4.16-.053 1.653-.107 3.413-.16 5.28a390.928 390.928 0 0 0-.16 10.48c0 1.467.28 2.64.84 3.52a4.61 4.61 0 0 0 2.32 1.88c.987.373 2.12.56 3.399.56 1.81 0 3.45-.227 4.92-.68 1.47-.48 2.77-1.107 3.92-1.88 1.15-.8 2.16-1.693 3.04-2.68.91-.987 1.72-2 2.44-3.04l2.28 2.72c-.69.96-1.55 1.96-2.56 3-.99 1.013-2.16 1.96-3.52 2.84-1.36.88-2.93 1.6-4.72 2.16-1.76.56-3.73.84-5.92.84-1.892 0-3.572-.293-5.039-.88-1.467-.587-2.613-1.533-3.44-2.84s-1.24-3.04-1.24-5.2c0-1.2.013-2.52.04-3.96.027-1.467.067-2.973.12-4.52.053-1.547.093-3.053.12-4.52.027-1.493.053-2.867.08-4.12.027-1.253.04-2.293.04-3.12 0-.747-.027-1.467-.08-2.16a18.687 18.687 0 0 0-.24-1.92l4.04.04Zm28.589 4.6c.77-.027 1.47-.053 2.08-.08.61-.053 1.11-.093 1.48-.12.64-.08 1.56-.173 2.76-.28 1.23-.133 2.63-.267 4.2-.4 1.57-.16 3.27-.32 5.08-.48 1.81-.16 3.64-.32 5.48-.48 1.47-.133 2.85-.24 4.16-.32 1.31-.107 2.52-.187 3.64-.24 1.12-.08 2.12-.133 3-.16v3.2c-.75-.027-1.6-.027-2.56 0a33 33 0 0 0-2.84.2c-.93.08-1.75.227-2.44.44a11.748 11.748 0 0 0-3.84 2.08c-1.12.907-2.08 1.96-2.88 3.16a14.754 14.754 0 0 0-1.84 3.72c-.4 1.28-.6 2.507-.6 3.68 0 1.573.27 2.947.8 4.12a8.686 8.686 0 0 0 2.16 2.92c.93.8 1.99 1.453 3.16 1.96 1.2.507 2.45.88 3.76 1.12 1.31.24 2.61.387 3.92.44l-1.16 3.32a22.095 22.095 0 0 1-4.48-.64 19.993 19.993 0 0 1-4.28-1.52 14.876 14.876 0 0 1-3.64-2.6 11.456 11.456 0 0 1-2.52-3.64c-.61-1.387-.92-2.973-.92-4.76 0-2.08.36-4 1.08-5.76.75-1.787 1.69-3.347 2.84-4.68 1.15-1.333 2.33-2.36 3.56-3.08-.85.107-1.91.227-3.16.36-1.25.133-2.61.28-4.08.44-1.44.133-2.88.293-4.32.48-1.44.187-2.8.373-4.08.56-1.25.16-2.31.333-3.16.52l-.36-3.48Zm51.83-5.4c-.05.24-.09.52-.12.84-.03.293-.05.613-.08.96s-.05.667-.08.96l-.12 2.4c-.03.987-.05 2.08-.08 3.28-.03 1.173-.05 2.373-.08 3.6-.03 1.2-.04 2.32-.04 3.36v3.44c.03 1.227.05 2.453.08 3.68.05 1.2.08 2.32.08 3.36.03 1.013.04 1.827.04 2.44 0 1.227-.15 2.2-.44 2.92-.29.72-.71 1.227-1.24 1.52-.51.32-1.12.48-1.84.48-.77 0-1.64-.187-2.6-.56a11.89 11.89 0 0 1-2.76-1.44 8.944 8.944 0 0 1-2.12-2.12c-.56-.8-.84-1.64-.84-2.52 0-1.2.45-2.373 1.36-3.52.93-1.147 2.13-2.213 3.6-3.2a23.102 23.102 0 0 1 4.72-2.4 29.39 29.39 0 0 1 5.56-1.6c1.89-.373 3.63-.56 5.2-.56 1.95 0 3.67.333 5.16 1 1.52.667 2.71 1.6 3.56 2.8.88 1.173 1.32 2.56 1.32 4.16s-.33 3.013-1 4.24c-.64 1.227-1.6 2.253-2.88 3.08-1.25.827-2.8 1.467-4.64 1.92-.88.187-1.76.307-2.64.36-.85.08-1.63.147-2.32.2l-1.12-3.24c.75.027 1.52.027 2.32 0 .83-.027 1.61-.12 2.36-.28a12.13 12.13 0 0 0 3.28-1.08c1.04-.533 1.87-1.227 2.48-2.08.64-.853.96-1.88.96-3.08 0-1.147-.31-2.107-.92-2.88-.61-.773-1.44-1.36-2.48-1.76-1.04-.4-2.2-.6-3.48-.6-1.76 0-3.48.187-5.16.56-1.68.373-3.39.907-5.12 1.6a16.9 16.9 0 0 0-3.52 1.8c-1.07.693-1.92 1.427-2.56 2.2-.61.773-.92 1.507-.92 2.2 0 .453.15.893.44 1.32.32.4.71.76 1.16 1.08.45.32.93.573 1.44.76.51.16.95.24 1.32.24.45 0 .8-.16 1.04-.48.27-.32.4-.813.4-1.48 0-.773-.01-1.84-.04-3.2-.03-1.387-.05-2.88-.08-4.48-.03-1.627-.04-3.173-.04-4.64v-3.68c.03-1.307.04-2.573.04-3.8.03-1.227.04-2.307.04-3.24.03-.933.04-1.6.04-2 0-.267-.01-.573-.04-.92 0-.373-.01-.733-.04-1.08a6.12 6.12 0 0 0-.12-.84h3.56Zm12.4 4.44c.96.507 2.03 1.12 3.2 1.84 1.17.693 2.29 1.4 3.36 2.12 1.09.72 1.96 1.347 2.6 1.88l-1.64 2.56c-.48-.48-1.09-.987-1.84-1.52-.75-.56-1.55-1.107-2.4-1.64-.85-.56-1.69-1.08-2.52-1.56-.83-.507-1.56-.933-2.2-1.28l1.44-2.4Zm-24 2.76c1.09.133 2.03.227 2.8.28.8.027 1.57.04 2.32.04.99 0 2.09-.053 3.32-.16 1.23-.107 2.49-.24 3.8-.4 1.31-.187 2.57-.4 3.8-.64 1.25-.267 2.37-.547 3.36-.84l.08 3.12c-1.04.24-2.2.48-3.48.72-1.28.213-2.59.4-3.92.56a116 116 0 0 1-3.76.4c-1.2.107-2.24.16-3.12.16-1.15 0-2.12-.013-2.92-.04a27.64 27.64 0 0 1-2.2-.16l-.08-3.04Zm48.72-6.8c-.21.747-.43 1.613-.64 2.6-.19.96-.37 1.973-.56 3.04-.16 1.04-.31 2.04-.44 3-.11.96-.19 1.787-.24 2.48.43-1.013.99-2.053 1.68-3.12.69-1.067 1.52-2.04 2.48-2.92.96-.907 2-1.64 3.12-2.2 1.15-.56 2.35-.84 3.6-.84 1.79 0 3.36.56 4.72 1.68 1.39 1.12 2.47 2.707 3.24 4.76s1.16 4.48 1.16 7.28c0 2.773-.41 5.187-1.24 7.24-.83 2.027-1.99 3.747-3.48 5.16-1.49 1.413-3.28 2.56-5.36 3.44-2.05.88-4.32 1.533-6.8 1.96l-1.88-2.88c2.16-.32 4.17-.8 6.04-1.44 1.89-.667 3.55-1.56 4.96-2.68 1.41-1.147 2.51-2.6 3.28-4.36.8-1.76 1.2-3.893 1.2-6.4 0-2.107-.24-3.973-.72-5.6-.48-1.653-1.19-2.947-2.12-3.88-.93-.933-2.11-1.4-3.52-1.4-1.25 0-2.45.4-3.6 1.2-1.15.8-2.2 1.84-3.16 3.12a18.225 18.225 0 0 0-2.28 4.08c-.59 1.44-.95 2.813-1.08 4.12-.11.773-.16 1.533-.16 2.28.03.747.11 1.627.24 2.64l-3.08.24c-.11-.747-.21-1.667-.32-2.76a49.582 49.582 0 0 1-.12-3.6c0-.933.04-1.973.12-3.12.11-1.173.21-2.347.32-3.52.13-1.2.27-2.347.4-3.44.16-1.093.29-2.04.4-2.84.08-.613.15-1.2.2-1.76.05-.587.09-1.147.12-1.68l3.52.12Zm49.36-.2c-.05.347-.11.733-.16 1.16-.03.427-.05.933-.08 1.52 0 .4-.01 1-.04 1.8v8.52c0 1.333.03 2.733.08 4.2s.12 2.893.2 4.28c.08 1.387.15 2.653.2 3.8.05 1.147.08 2.053.08 2.72 0 .933-.23 1.827-.68 2.68-.43.853-1.16 1.547-2.2 2.08-1.01.56-2.4.84-4.16.84-2.88 0-5.08-.507-6.6-1.52-1.52-.987-2.28-2.44-2.28-4.36 0-1.227.36-2.293 1.08-3.2.75-.907 1.81-1.613 3.2-2.12 1.39-.533 3.04-.8 4.96-.8 2.11 0 4.08.253 5.92.76 1.87.48 3.57 1.093 5.12 1.84 1.55.747 2.92 1.533 4.12 2.36 1.2.8 2.19 1.52 2.96 2.16l-1.84 2.84a30.183 30.183 0 0 0-3.16-2.56 28.873 28.873 0 0 0-3.88-2.36 21.764 21.764 0 0 0-4.52-1.72c-1.6-.453-3.31-.68-5.12-.68-1.92 0-3.39.32-4.4.96-.99.64-1.48 1.427-1.48 2.36 0 .587.19 1.133.56 1.64.37.48.97.867 1.8 1.16.83.293 1.89.44 3.2.44.77 0 1.48-.093 2.12-.28.64-.213 1.15-.573 1.52-1.08.4-.507.6-1.213.6-2.12 0-.773-.03-1.773-.08-3-.03-1.253-.07-2.573-.12-3.96-.05-1.413-.11-2.773-.16-4.08a143.3 143.3 0 0 1-.04-3.28v-8.28c.03-.853.04-1.627.04-2.32 0-.32-.01-.733-.04-1.24a9.94 9.94 0 0 0-.12-1.16h3.4Zm-15.32 4.36c.67.107 1.44.213 2.32.32.88.107 1.8.213 2.76.32.99.08 1.92.147 2.8.2.91.027 1.69.04 2.36.04 2.53 0 5.12-.093 7.76-.28a84.76 84.76 0 0 0 7.88-.92l-.04 2.92c-1.47.16-3.07.32-4.8.48-1.73.16-3.52.293-5.36.4-1.81.107-3.61.16-5.4.16-.93 0-2.04-.04-3.32-.12-1.28-.08-2.55-.173-3.8-.28-1.23-.107-2.27-.2-3.12-.28l-.04-2.96Zm-.2 8.48c.72.107 1.52.213 2.4.32.88.107 1.79.187 2.72.24.93.053 1.83.107 2.68.16.85.027 1.61.04 2.28.04 1.95 0 3.83-.04 5.64-.12 1.84-.107 3.64-.24 5.4-.4 1.79-.187 3.55-.413 5.28-.68l-.04 3c-1.33.187-2.67.347-4 .48a185.35 185.35 0 0 1-8 .48c-1.36.027-2.8.04-4.32.04-.91 0-1.96-.027-3.16-.08-1.17-.053-2.37-.12-3.6-.2-1.2-.08-2.28-.173-3.24-.28l-.04-3Zm57.68-12.76c0 .133-.03.373-.08.72-.03.347-.05.693-.08 1.04 0 .32-.01.573-.04.76-.03.507-.04 1.2-.04 2.08v6.04c.03 1.067.04 2.067.04 3 .03.933.04 1.72.04 2.36l-3.08-1.52v-4.32c0-1.013-.01-2.013-.04-3 0-.987-.01-1.893-.04-2.72-.03-.827-.05-1.467-.08-1.92-.03-.533-.07-1.04-.12-1.52-.05-.507-.09-.84-.12-1h3.64Zm-21.24 5.56c1.09 0 2.33-.013 3.72-.04 1.39-.053 2.85-.107 4.4-.16 1.57-.053 3.16-.093 4.76-.12 1.6-.027 3.13-.053 4.6-.08 1.49-.027 2.87-.04 4.12-.04h6.96c1.07 0 2 .013 2.8.04h1.96l-.04 2.96c-1.12-.053-2.63-.093-4.52-.12-1.87-.053-4.27-.08-7.2-.08-1.73 0-3.55.027-5.44.08-1.87.027-3.75.067-5.64.12-1.89.053-3.73.133-5.52.24-1.76.08-3.39.173-4.88.28l-.08-3.08Zm21 11.64c0 1.76-.27 3.24-.8 4.44-.51 1.2-1.23 2.093-2.16 2.68-.91.587-1.97.88-3.2.88-.83 0-1.64-.133-2.44-.4a6.967 6.967 0 0 1-2.12-1.28 6.729 6.729 0 0 1-1.48-2.12c-.35-.853-.52-1.813-.52-2.88 0-1.333.32-2.52.96-3.56a7.083 7.083 0 0 1 6.08-3.4c1.57 0 2.87.36 3.88 1.08 1.04.693 1.83 1.653 2.36 2.88.53 1.2.8 2.573.8 4.12 0 1.333-.2 2.693-.6 4.08-.37 1.387-1.01 2.72-1.92 4-.88 1.28-2.09 2.453-3.64 3.52-1.52 1.04-3.45 1.907-5.8 2.6l-2.68-2.64c1.81-.427 3.44-.973 4.88-1.64 1.44-.667 2.65-1.48 3.64-2.44a9.53 9.53 0 0 0 2.24-3.36c.53-1.28.8-2.747.8-4.4 0-1.813-.39-3.12-1.16-3.92-.77-.8-1.71-1.2-2.8-1.2-.69 0-1.35.173-1.96.52-.61.32-1.12.8-1.52 1.44-.37.64-.56 1.4-.56 2.28 0 1.253.4 2.227 1.2 2.92.83.693 1.79 1.04 2.88 1.04.83 0 1.53-.227 2.12-.68.59-.48 1-1.187 1.24-2.12.27-.96.29-2.147.08-3.56l2.2 1.12Z"/>
    <path fill="#3B82F6" d="M660 890c22.091 0 40-17.909 40-40s-17.909-40-40-40-40 17.909-40 40 17.909 40 40 40Z"/>
    <path fill="#fff" d="M655.027 849.35c0-1.1.133-2.083.4-2.95.266-.867.7-1.683 1.3-2.45.633-.767 1.5-1.55 2.6-2.35 1-.733 1.766-1.383 2.3-1.95.533-.567.9-1.133 1.1-1.7.2-.567.3-1.2.3-1.9 0-1.067-.334-1.867-1-2.4-.667-.567-1.567-.85-2.7-.85-1.234 0-2.517.217-3.85.65-1.3.433-2.667 1.017-4.1 1.75l-2.85-5.35a27.239 27.239 0 0 1 5.25-2.2c1.866-.567 3.916-.85 6.15-.85 3.366 0 5.966.833 7.8 2.5 1.866 1.667 2.8 3.783 2.8 6.35 0 1.367-.2 2.55-.6 3.55-.4.967-1 1.883-1.8 2.75s-1.817 1.783-3.05 2.75c-.9.7-1.617 1.3-2.15 1.8-.5.5-.85.983-1.05 1.45-.2.467-.3 1.05-.3 1.75v1.45h-6.55v-1.8Zm-.9 10.15c0-1.533.433-2.6 1.3-3.2.866-.633 1.916-.95 3.15-.95 1.2 0 2.233.317 3.1.95.866.6 1.3 1.667 1.3 3.2 0 1.467-.434 2.533-1.3 3.2-.867.633-1.9.95-3.1.95-1.234 0-2.284-.317-3.15-.95-.867-.667-1.3-1.733-1.3-3.2Z"/>
    <path fill="#10B981" d="M860 890c22.091 0 40-17.909 40-40s-17.909-40-40-40-40 17.909-40 40 17.909 40 40 40Z"/>
    <path fill="#fff" d="M855.027 849.35c0-1.1.133-2.083.4-2.95.266-.867.7-1.683 1.3-2.45.633-.767 1.5-1.55 2.6-2.35 1-.733 1.766-1.383 2.3-1.95.533-.567.9-1.133 1.1-1.7.2-.567.3-1.2.3-1.9 0-1.067-.334-1.867-1-2.4-.667-.567-1.567-.85-2.7-.85-1.234 0-2.517.217-3.85.65-1.3.433-2.667 1.017-4.1 1.75l-2.85-5.35a27.239 27.239 0 0 1 5.25-2.2c1.866-.567 3.916-.85 6.15-.85 3.366 0 5.966.833 7.8 2.5 1.866 1.667 2.8 3.783 2.8 6.35 0 1.367-.2 2.55-.6 3.55-.4.967-1 1.883-1.8 2.75s-1.817 1.783-3.05 2.75c-.9.7-1.617 1.3-2.15 1.8-.5.5-.85.983-1.05 1.45-.2.467-.3 1.05-.3 1.75v1.45h-6.55v-1.8Zm-.9 10.15c0-1.533.433-2.6 1.3-3.2.866-.633 1.916-.95 3.15-.95 1.2 0 2.233.317 3.1.95.866.6 1.3 1.667 1.3 3.2 0 1.467-.434 2.533-1.3 3.2-.867.633-1.9.95-3.1.95-1.234 0-2.284-.317-3.15-.95-.867-.667-1.3-1.733-1.3-3.2Z"/>
    <path fill="#F59E0B" d="M1060 890c22.09 0 40-17.909 40-40s-17.91-40-40-40-40 17.909-40 40 17.91 40 40 40Z"/>
    <path fill="#fff" d="M1055.03 849.35c0-1.1.13-2.083.4-2.95.26-.867.7-1.683 1.3-2.45.63-.767 1.5-1.55 2.6-2.35 1-.733 1.76-1.383 2.3-1.95.53-.567.9-1.133 1.1-1.7.2-.567.3-1.2.3-1.9 0-1.067-.34-1.867-1-2.4-.67-.567-1.57-.85-2.7-.85-1.24 0-2.52.217-3.85.65-1.3.433-2.67 1.017-4.1 1.75l-2.85-5.35c1.63-.9 3.38-1.633 5.25-2.2 1.86-.567 3.91-.85 6.15-.85 3.36 0 5.96.833 7.8 2.5 1.86 1.667 2.8 3.783 2.8 6.35 0 1.367-.2 2.55-.6 3.55-.4.967-1 1.883-1.8 2.75s-1.82 1.783-3.05 2.75c-.9.7-1.62 1.3-2.15 1.8-.5.5-.85.983-1.05 1.45-.2.467-.3 1.05-.3 1.75v1.45h-6.55v-1.8Zm-.9 10.15c0-1.533.43-2.6 1.3-3.2.86-.633 1.91-.95 3.15-.95 1.2 0 2.23.317 3.1.95.86.6 1.3 1.667 1.3 3.2 0 1.467-.44 2.533-1.3 3.2-.87.633-1.9.95-3.1.95-1.24 0-2.29-.317-3.15-.95-.87-.667-1.3-1.733-1.3-3.2Z"/>
    <path fill="#EF4444" d="M1260 890c22.09 0 40-17.909 40-40s-17.91-40-40-40-40 17.909-40 40 17.91 40 40 40Z"/>
    <path fill="#fff" d="M1255.03 849.35c0-1.1.13-2.083.4-2.95.26-.867.7-1.683 1.3-2.45.63-.767 1.5-1.55 2.6-2.35 1-.733 1.76-1.383 2.3-1.95.53-.567.9-1.133 1.1-1.7.2-.567.3-1.2.3-1.9 0-1.067-.34-1.867-1-2.4-.67-.567-1.57-.85-2.7-.85-1.24 0-2.52.217-3.85.65-1.3.433-2.67 1.017-4.1 1.75l-2.85-5.35c1.63-.9 3.38-1.633 5.25-2.2 1.86-.567 3.91-.85 6.15-.85 3.36 0 5.96.833 7.8 2.5 1.86 1.667 2.8 3.783 2.8 6.35 0 1.367-.2 2.55-.6 3.55-.4.967-1 1.883-1.8 2.75s-1.82 1.783-3.05 2.75c-.9.7-1.62 1.3-2.15 1.8-.5.5-.85.983-1.05 1.45-.2.467-.3 1.05-.3 1.75v1.45h-6.55v-1.8Zm-.9 10.15c0-1.533.43-2.6 1.3-3.2.86-.633 1.91-.95 3.15-.95 1.2 0 2.23.317 3.1.95.86.6 1.3 1.667 1.3 3.2 0 1.467-.44 2.533-1.3 3.2-.87.633-1.9.95-3.1.95-1.24 0-2.29-.317-3.15-.95-.87-.667-1.3-1.733-1.3-3.2Z"/>
  </g>
  <defs>
    <clipPath id="a">
      <path fill="#fff" d="M0 0h1920v1080H0z"/>
    </clipPath>
  </defs>
</svg>
