<svg xmlns="http://www.w3.org/2000/svg" width="1920" height="1080" fill="none" viewBox="0 0 1920 1080">
  <g clip-path="url(#a)">
    <path fill="#fff" d="M1920 0H0v1080h1920V0Z"/>
    <path fill="#000" d="M887.76 102.28c-.107.8-.213 1.707-.32 2.72-.053.96-.107 1.947-.16 2.96a221.844 221.844 0 0 0-.24 10.16v12c0 2.24.053 4.747.16 7.52.107 2.72.24 5.493.4 8.32.213 2.773.373 5.387.48 7.84.16 2.4.24 4.4.24 6 0 2.24-.587 4.293-1.76 6.16-1.173 1.813-2.933 3.253-5.28 4.32-2.293 1.067-5.2 1.6-8.72 1.6-6.4 0-11.253-1.173-14.56-3.52-3.307-2.347-4.96-5.627-4.96-9.84 0-2.72.773-5.093 2.32-7.12 1.6-2.08 3.867-3.707 6.8-4.88 2.987-1.173 6.533-1.76 10.64-1.76 4.373 0 8.453.48 12.24 1.44 3.84.907 7.333 2.107 10.48 3.6 3.147 1.493 5.947 3.067 8.4 4.72 2.453 1.653 4.533 3.147 6.24 4.48l-5.76 8.96c-1.92-1.813-4.08-3.6-6.48-5.36-2.347-1.76-4.933-3.36-7.76-4.8a44.417 44.417 0 0 0-8.88-3.44c-3.093-.907-6.373-1.36-9.84-1.36-2.773 0-4.933.48-6.48 1.44-1.493.96-2.24 2.133-2.24 3.52 0 1.013.32 1.893.96 2.64.64.747 1.573 1.307 2.8 1.68 1.227.373 2.773.56 4.64.56 1.44 0 2.667-.16 3.68-.48 1.067-.32 1.893-.907 2.48-1.76s.88-2.053.88-3.6c0-1.173-.053-2.853-.16-5.04a434.04 434.04 0 0 0-.24-7.2c-.107-2.667-.213-5.28-.32-7.84-.107-2.56-.16-4.827-.16-6.8v-6c.053-2.133.08-4.24.08-6.32v-5.68c.053-1.76.08-3.2.08-4.32 0-.747-.053-1.653-.16-2.72-.053-1.12-.16-2.053-.32-2.8h10.8Zm-33.2 7.52c1.44.213 3.04.427 4.8.64 1.76.213 3.547.427 5.36.64 1.867.16 3.627.293 5.28.4 1.653.053 3.093.08 4.32.08 5.44 0 10.853-.16 16.24-.48 5.44-.373 11.067-1.04 16.88-2l-.08 9.2c-2.72.373-5.867.72-9.44 1.04-3.573.32-7.387.587-11.44.8-4 .16-8.027.24-12.08.24-1.653 0-3.707-.053-6.16-.16-2.4-.16-4.8-.347-7.2-.56-2.4-.267-4.48-.507-6.24-.72l-.24-9.12Zm-.4 17.28c1.28.213 2.8.427 4.56.64 1.76.213 3.547.373 5.36.48 1.867.107 3.627.213 5.28.32 1.653.053 3.013.08 4.08.08 4.96 0 9.44-.107 13.44-.32 4.053-.213 7.84-.48 11.36-.8 3.52-.32 6.907-.693 10.16-1.12l-.08 9.44c-2.773.32-5.467.587-8.08.8-2.56.213-5.2.4-7.92.56-2.667.16-5.547.267-8.64.32a612 612 0 0 1-10.4.08 257 257 0 0 1-5.76-.08c-2.293-.107-4.64-.24-7.04-.4-2.347-.16-4.427-.347-6.24-.56l-.08-9.44Zm132.48-6.72a49.543 49.543 0 0 1-3.76 2.16c-1.28.693-2.667 1.413-4.16 2.16a126.99 126.99 0 0 1-4.56 2.24 285.66 285.66 0 0 0-5.76 2.88 139.57 139.57 0 0 0-6.16 3.28 84.51 84.51 0 0 0-5.84 3.44c-3.307 2.187-6 4.453-8.08 6.8-2.027 2.347-3.04 4.933-3.04 7.76s1.387 5.013 4.16 6.56c2.773 1.493 6.933 2.24 12.48 2.24 2.773 0 5.707-.107 8.8-.32 3.147-.267 6.24-.613 9.28-1.04 3.04-.48 5.733-1.013 8.08-1.6l-.16 11.52c-2.24.373-4.693.72-7.36 1.04-2.613.32-5.467.56-8.56.72-3.04.16-6.293.24-9.76.24-4 0-7.707-.32-11.12-.96-3.36-.587-6.32-1.573-8.88-2.96-2.507-1.387-4.48-3.253-5.92-5.6-1.387-2.347-2.08-5.227-2.08-8.64 0-3.413.747-6.507 2.24-9.28 1.493-2.773 3.52-5.333 6.08-7.68a77.519 77.519 0 0 1 8.56-6.64 83.44 83.44 0 0 1 6.08-3.68 416.05 416.05 0 0 1 6.24-3.52c2.08-1.12 4-2.133 5.76-3.04 1.813-.96 3.307-1.787 4.48-2.48a131.55 131.55 0 0 0 4.08-2.48 38.461 38.461 0 0 0 3.36-2.4l5.52 9.28Zm-40.24-17.12a200.69 200.69 0 0 0 4.16 10.16 248.596 248.596 0 0 0 4.4 9.12 571.233 571.233 0 0 0 4.08 7.6l-9.04 5.36a157.04 157.04 0 0 1-4.48-8.24 272.054 272.054 0 0 1-4.64-9.6 352.63 352.63 0 0 1-4.48-10.32l10-4.08Zm109.52 1.04c-.16.693-.37 1.547-.64 2.56-.21 1.013-.43 2.027-.64 3.04-.21 1.013-.4 1.84-.56 2.48-.85 3.573-1.81 7.227-2.88 10.96-1.07 3.68-2.27 7.333-3.6 10.96a84.54 84.54 0 0 1-4.48 10.16c-1.6 3.147-3.39 5.947-5.36 8.4-2.4 3.093-4.67 5.627-6.8 7.6-2.08 1.973-4.16 3.44-6.24 4.4-2.08.907-4.35 1.36-6.8 1.36-2.19 0-4.27-.587-6.24-1.76-1.92-1.227-3.49-3.013-4.72-5.36-1.17-2.4-1.76-5.333-1.76-8.8 0-3.573.64-7.12 1.92-10.64a39.064 39.064 0 0 1 5.44-9.92c2.35-3.04 5.09-5.573 8.24-7.6 4.27-2.773 8.45-4.72 12.56-5.84 4.11-1.12 8.29-1.68 12.56-1.68 5.55 0 10.45 1.173 14.72 3.52 4.27 2.293 7.6 5.52 10 9.68 2.4 4.16 3.6 9.04 3.6 14.64 0 5.6-1.25 10.453-3.76 14.56-2.45 4.053-5.84 7.307-10.16 9.76-4.32 2.4-9.25 4.027-14.8 4.88l-6.16-9.28c4.43-.373 8.19-1.173 11.28-2.4 3.15-1.227 5.68-2.773 7.6-4.64 1.97-1.867 3.41-3.947 4.32-6.24a19.338 19.338 0 0 0 1.36-7.2c0-3.627-.8-6.8-2.4-9.52-1.55-2.773-3.73-4.933-6.56-6.48-2.83-1.6-6.16-2.4-10-2.4-4.21 0-7.97.693-11.28 2.08-3.31 1.333-6.35 3.013-9.12 5.04a22.523 22.523 0 0 0-5.36 5.44 25.482 25.482 0 0 0-3.44 6.64c-.8 2.347-1.2 4.613-1.2 6.8 0 1.92.4 3.467 1.2 4.64.85 1.173 1.97 1.76 3.36 1.76 1.01 0 2.05-.293 3.12-.88 1.07-.64 2.13-1.467 3.2-2.48 1.07-1.067 2.13-2.293 3.2-3.68 1.07-1.387 2.13-2.853 3.2-4.4 1.49-2.293 2.91-4.853 4.24-7.68a89.83 89.83 0 0 0 3.6-8.88c1.12-3.093 2.05-6.08 2.8-8.96.75-2.933 1.33-5.627 1.76-8.08.27-1.173.43-2.507.48-4 .11-1.493.16-2.693.16-3.6l11.04 1.04Zm-33.76 2.64c.27 1.333.53 2.64.8 3.92.32 1.28.64 2.533.96 3.76.59 2.187 1.28 4.56 2.08 7.12.8 2.507 1.65 5.013 2.56 7.52.96 2.507 1.92 4.827 2.88 6.96.96 2.08 1.92 3.867 2.88 5.36 1.39 2.133 2.96 4.373 4.72 6.72 1.76 2.293 3.57 4.347 5.44 6.16l-8.08 6.4c-1.6-1.76-3.04-3.44-4.32-5.04a114.462 114.462 0 0 1-3.84-5.52c-1.17-1.813-2.37-3.92-3.6-6.32-1.17-2.4-2.35-5.013-3.52-7.84a280.532 280.532 0 0 1-3.28-8.72c-1.01-2.987-2-5.947-2.96-8.88a49.9 49.9 0 0 0-1.44-4.16 44.817 44.817 0 0 0-1.76-4.16l10.48-3.28Z"/>
    <path fill="#EF4444" d="M360 580c99.411 0 180-80.589 180-180s-80.589-180-180-180-180 80.589-180 180 80.589 180 180 180Z"/>
    <path fill="#000" d="M374.303 347h-16.3v-45.5c.066-1.667.1-3.4.1-5.2.066-1.8.133-3.4.2-4.8-.534.4-1.234 1.133-2.1 2.2-.8 1.067-1.634 1.967-2.5 2.7l-7.5 6.6-8.2-9.1 22.3-18.3h14V347Z"/>
    <path fill="#fff" d="M277.102 399.152c2.752 0 4.778.64 6.08 1.92 1.322 1.259 1.984 2.997 1.984 5.216a9.906 9.906 0 0 1-.416 2.88 6.593 6.593 0 0 1-1.376 2.432c-.64.704-1.494 1.259-2.56 1.664-1.046.405-2.336.608-3.872.608h-1.792V422h-5.184v-22.848h7.136Zm-.16 3.968h-1.792v6.784h1.312c.682 0 1.29-.117 1.824-.352a2.654 2.654 0 0 0 1.248-1.12c.298-.512.448-1.173.448-1.984 0-1.131-.256-1.963-.768-2.496-.491-.555-1.248-.832-2.272-.832Zm16.76 1.408V422h-5.12v-17.472h5.12Zm-2.528-6.848c.747 0 1.387.171 1.92.512.534.32.8.928.8 1.824 0 .875-.266 1.483-.8 1.824-.533.341-1.173.512-1.92.512-.768 0-1.418-.171-1.952-.512-.533-.341-.8-.949-.8-1.824 0-.896.267-1.504.8-1.824.534-.341 1.184-.512 1.952-.512Zm16.733 6.528c1.749 0 3.157.512 4.224 1.536 1.088 1.003 1.632 2.624 1.632 4.864V422h-5.12v-10.208c0-1.259-.192-2.197-.576-2.816-.363-.64-.949-.96-1.76-.96-1.237 0-2.069.501-2.496 1.504-.427.981-.64 2.4-.64 4.256V422h-5.12v-17.472h3.872l.704 2.24h.224c.363-.597.789-1.077 1.28-1.44a5.001 5.001 0 0 1 1.728-.832 7.094 7.094 0 0 1 2.048-.288Zm14.401 10.208h-4.192l-.768-15.264h5.728l-.768 15.264Zm-4.96 5.344c0-.981.277-1.664.832-2.048.554-.405 1.226-.608 2.016-.608.768 0 1.418.203 1.952.608.554.384.832 1.067.832 2.048 0 .939-.278 1.621-.832 2.048-.534.405-1.184.608-1.952.608-.79 0-1.462-.203-2.016-.608-.555-.427-.832-1.109-.832-2.048Zm36.079-19.2-.192.672c-.086.277-.16.555-.224.832a14.63 14.63 0 0 1-.16.64 132.506 132.506 0 0 1-.704 3.712 29.193 29.193 0 0 1-1.12 4.128 16.895 16.895 0 0 1-1.984 4.032c-1.323 2.091-3.04 3.925-5.152 5.504-2.091 1.557-4.416 2.784-6.976 3.68l-3.584-3.648a24.631 24.631 0 0 0 4.384-1.568 21.8 21.8 0 0 0 4.192-2.592c1.301-1.045 2.368-2.229 3.2-3.552a15.103 15.103 0 0 0 1.408-2.88c.384-1.045.704-2.133.96-3.264.256-1.152.437-2.304.544-3.456h-15.36v6.464c.021.491.064.992.127 1.504h-4.703c.042-.512.074-.971.096-1.376.042-.405.064-.821.064-1.248v-6.752c0-.448-.022-.896-.064-1.344a26.37 26.37 0 0 0-.096-1.344 83.3 83.3 0 0 1 1.792.096c.682.021 1.397.032 2.144.032h15.296c.533 0 1.056-.021 1.568-.064a21.424 21.424 0 0 0 1.44-.16l3.104 1.952Zm6.08 6.624c.384.021.874.053 1.472.096.597.021 1.216.043 1.856.064a57.86 57.86 0 0 0 1.824.032h17.184c.746 0 1.45-.021 2.112-.064a35.931 35.931 0 0 1 1.632-.128v5.024l-1.632-.096a35.732 35.732 0 0 0-2.112-.064h-17.184c-.918 0-1.856.021-2.816.064-.96.021-1.739.053-2.336.096v-5.024Zm50.88-8.992a38.784 38.784 0 0 1 2.016 3.232c.341.576.64 1.109.896 1.6l-2.784 1.248a21.061 21.061 0 0 0-.896-1.824 27.231 27.231 0 0 0-.864-1.536 18.897 18.897 0 0 0-1.056-1.6l2.688-1.12Zm4.192-1.76c.32.427.661.917 1.024 1.472.384.555.746 1.12 1.088 1.696.362.555.661 1.077.896 1.568l-2.688 1.312a21.935 21.935 0 0 0-.992-1.792 20.226 20.226 0 0 0-.928-1.504 15.072 15.072 0 0 0-1.056-1.504l2.656-1.248Zm-16.96 22.976v-18.4c0-.576-.032-1.227-.096-1.952a15.095 15.095 0 0 0-.224-1.92h4.992a87.884 87.884 0 0 0-.192 1.856 21.603 21.603 0 0 0-.096 2.016v18.4c0 .277.01.693.032 1.248.042.533.085 1.088.128 1.664.064.576.117 1.088.16 1.536h-5.024a18.93 18.93 0 0 0 .224-2.208 31.4 31.4 0 0 0 .096-2.24Zm3.456-13.984c1.066.277 2.25.64 3.552 1.088 1.322.427 2.656.896 4 1.408 1.344.491 2.613.981 3.808 1.472 1.194.469 2.176.896 2.944 1.28l-1.792 4.448a39.732 39.732 0 0 0-3.008-1.44 121.932 121.932 0 0 0-3.328-1.376 64.963 64.963 0 0 0-3.264-1.28 80.566 80.566 0 0 0-2.912-.992v-4.608Zm21.696-5.376c.64-.021 1.248-.043 1.824-.064l1.312-.096c.661-.043 1.472-.107 2.432-.192.981-.107 2.069-.213 3.264-.32 1.216-.107 2.506-.213 3.872-.32 1.365-.107 2.784-.224 4.256-.352a88.333 88.333 0 0 1 3.296-.256 96.238 96.238 0 0 1 3.136-.192 74.969 74.969 0 0 1 2.624-.128l.032 4.096c-.576 0-1.238.011-1.984.032-.747.021-1.494.064-2.24.128-.726.043-1.376.139-1.952.288a7.87 7.87 0 0 0-2.688 1.312 9.854 9.854 0 0 0-2.176 2.144 10.203 10.203 0 0 0-1.408 2.656 8.264 8.264 0 0 0-.512 2.848c0 1.045.181 1.973.544 2.784a6.63 6.63 0 0 0 1.536 2.048 9.48 9.48 0 0 0 2.304 1.408c.874.363 1.813.64 2.816.832 1.024.192 2.08.32 3.168.384l-1.504 4.384a20.207 20.207 0 0 1-3.936-.64 16.648 16.648 0 0 1-3.552-1.408 11.925 11.925 0 0 1-2.912-2.176 10.716 10.716 0 0 1-1.952-2.976c-.47-1.131-.704-2.389-.704-3.776 0-1.536.245-2.944.736-4.224.49-1.301 1.098-2.432 1.824-3.392.746-.981 1.482-1.739 2.208-2.272-.598.085-1.323.171-2.176.256-.832.085-1.739.192-2.72.32-.96.107-1.942.224-2.944.352a55.234 55.234 0 0 0-2.912.448c-.918.149-1.75.299-2.496.448l-.416-4.384Zm21.472 5.312c.277.384.565.843.864 1.376.32.512.629 1.035.928 1.568.298.512.554.981.768 1.408l-2.432 1.088c-.406-.896-.8-1.685-1.184-2.368-.363-.683-.8-1.376-1.312-2.08l2.368-.992Zm3.584-1.472c.277.384.576.832.896 1.344.341.491.672 1.003.992 1.536.32.512.586.971.8 1.376l-2.4 1.152a30.55 30.55 0 0 0-1.248-2.272 20.346 20.346 0 0 0-1.376-2.048l2.336-1.088ZM286.24 453.776h3.488v6.624c0 .427.032.693.096.8.064.107.203.16.416.16h1.28a.415.415 0 0 0 .384-.224c.107-.171.181-.512.224-1.024.043-.512.075-1.291.096-2.336.235.192.533.373.896.544.363.171.736.331 1.12.48.405.149.757.267 1.056.352-.107 1.429-.288 2.539-.544 3.328-.256.811-.619 1.365-1.088 1.664-.448.299-1.035.448-1.76.448h-2.24c-.939 0-1.664-.128-2.176-.384-.491-.256-.821-.693-.992-1.312-.171-.619-.256-1.44-.256-2.464v-6.656Zm-3.84-9.376v2.144h7.04V444.4h-7.04Zm0 4.992v2.144h7.04v-2.144h-7.04Zm0-9.952v2.112h7.04v-2.112h-7.04Zm-3.488-3.04h14.208v18.208h-14.208V436.4Zm2.144 17.312h3.68c-.149 1.664-.437 3.2-.864 4.608a9.54 9.54 0 0 1-2.144 3.744c-1.003 1.109-2.443 2.048-4.32 2.816a8.162 8.162 0 0 0-.544-1.024 9.834 9.834 0 0 0-.8-1.12 6.02 6.02 0 0 0-.8-.832c1.557-.555 2.72-1.237 3.488-2.048.789-.811 1.333-1.728 1.632-2.752.32-1.024.544-2.155.672-3.392Zm-15.456-12.96h9.76v3.456h-9.76v-3.456Zm4.16 10.912 3.744-4.48v17.696h-3.744v-13.216Zm0-16.832h3.744v7.52h-3.744v-7.52Zm3.648 13.056c.256.192.629.512 1.12.96.491.427 1.013.896 1.568 1.408.555.512 1.056.992 1.504 1.44.469.427.811.747 1.024.96l-2.368 3.168a28.283 28.283 0 0 0-1.088-1.44 38.209 38.209 0 0 0-1.344-1.664 63.364 63.364 0 0 0-1.408-1.6 26.787 26.787 0 0 0-1.184-1.28l2.176-1.952Zm.672-7.136h.736l.64-.16 2.112 1.408a30.053 30.053 0 0 1-2.944 5.92 33.293 33.293 0 0 1-3.968 5.152c-1.451 1.515-2.944 2.773-4.48 3.776-.085-.341-.245-.747-.48-1.216a16.334 16.334 0 0 0-.672-1.376c-.235-.448-.437-.8-.608-1.056 1.365-.789 2.677-1.803 3.936-3.04a24.028 24.028 0 0 0 3.392-4.096c1.003-1.515 1.781-3.061 2.336-4.64v-.672Zm35.808-5.952h3.904v11.136h-3.904V434.8Zm-5.312 12.992v4.128h14.688v-4.128h-14.688Zm-3.68-3.552H323.2v11.232h-22.304V444.24Zm10.816-6.592h13.6v3.584h-13.6v-3.584Zm-5.504 20.256 3.648-.352c.171.704.32 1.472.448 2.304.128.811.235 1.589.32 2.336.085.747.128 1.408.128 1.984l-3.872.48c0-.555-.032-1.227-.096-2.016a33.517 33.517 0 0 0-.224-2.4 23.473 23.473 0 0 0-.352-2.336Zm6.592.032 3.52-.8c.32.683.64 1.419.96 2.208.341.768.64 1.515.896 2.24.256.725.448 1.376.576 1.952l-3.744.96a19.653 19.653 0 0 0-.512-1.984 26.833 26.833 0 0 0-.768-2.336 28.632 28.632 0 0 0-.928-2.24Zm6.528-.192 3.424-1.248a28.144 28.144 0 0 1 1.6 2.208 44.677 44.677 0 0 1 1.536 2.4c.469.768.832 1.472 1.088 2.112l-3.712 1.44a19.756 19.756 0 0 0-.992-2.144c-.427-.789-.907-1.6-1.44-2.432a40.795 40.795 0 0 0-1.504-2.336Zm-18.368-1.024 3.68.96a23.669 23.669 0 0 1-1.792 3.84c-.747 1.301-1.536 2.379-2.368 3.232l-3.552-1.728c.789-.704 1.547-1.632 2.272-2.784a19.382 19.382 0 0 0 1.76-3.52Zm42.592-20.384a35.574 35.574 0 0 1-.512 2.24 27.582 27.582 0 0 1-1.024 3.104 36.23 36.23 0 0 1-1.184 2.464 21.473 21.473 0 0 1-1.312 2.24 4.772 4.772 0 0 1 1.056-.32 8.876 8.876 0 0 1 1.312-.224 9.348 9.348 0 0 1 1.248-.096c1.344 0 2.453.384 3.328 1.152.896.768 1.344 1.909 1.344 3.424v1.568c.021.619.043 1.269.064 1.952l.064 1.952c.021.64.032 1.216.032 1.728h-3.84c.043-.363.064-.789.064-1.28.021-.512.032-1.045.032-1.6.021-.555.032-1.088.032-1.6a36.99 36.99 0 0 0 .032-1.44c0-1.024-.277-1.728-.832-2.112a2.89 2.89 0 0 0-1.792-.608c-.896 0-1.803.224-2.72.672-.896.427-1.653.939-2.272 1.536-.469.469-.949.992-1.44 1.568a83.535 83.535 0 0 0-1.536 1.952l-3.424-2.56c1.387-1.28 2.581-2.517 3.584-3.712a26.264 26.264 0 0 0 2.592-3.552 22.336 22.336 0 0 0 1.728-3.52c.32-.853.576-1.739.768-2.656.213-.939.341-1.813.384-2.624l4.224.352Zm-12.032 2.944a29.66 29.66 0 0 0 2.816.288 47.69 47.69 0 0 0 2.816.096c1.408 0 2.944-.032 4.608-.096a106.79 106.79 0 0 0 5.12-.32 77.402 77.402 0 0 0 4.928-.64l-.032 3.712a107.59 107.59 0 0 1-3.68.416 201.98 201.98 0 0 1-4 .288c-1.344.064-2.635.117-3.872.16a197.01 197.01 0 0 1-3.296.032h-1.6c-.619-.021-1.259-.043-1.92-.064-.661-.043-1.291-.085-1.888-.128v-3.744Zm25.344 9.088c-.341.107-.747.245-1.216.416-.448.149-.907.309-1.376.48-.448.149-.853.299-1.216.448-1.024.405-2.24.896-3.648 1.472a63.643 63.643 0 0 0-4.352 2.016c-.96.512-1.771 1.013-2.432 1.504-.661.491-1.163.992-1.504 1.504a2.798 2.798 0 0 0-.512 1.632c0 .448.096.821.288 1.12.192.277.48.501.864.672.384.171.864.288 1.44.352s1.259.096 2.048.096c1.365 0 2.869-.075 4.512-.224a51.254 51.254 0 0 0 4.576-.672l-.128 4.128a62.88 62.88 0 0 1-2.592.256 51.158 51.158 0 0 1-3.264.224 82.671 82.671 0 0 1-3.2.064c-1.664 0-3.157-.16-4.48-.48-1.323-.32-2.368-.864-3.136-1.632-.747-.789-1.12-1.867-1.12-3.232 0-1.109.245-2.112.736-3.008a9.42 9.42 0 0 1 2.016-2.432 18.007 18.007 0 0 1 2.72-1.952 52.551 52.551 0 0 1 2.944-1.632 60.035 60.035 0 0 1 2.656-1.312 52.709 52.709 0 0 1 2.208-.96 62.396 62.396 0 0 0 2.016-.896c.619-.277 1.216-.544 1.792-.8.576-.277 1.163-.565 1.76-.864l1.6 3.712Zm7.36-11.808h9.216v19.648h-9.216v-3.488h5.664v-12.672h-5.664v-3.488Zm.064 8h6.976v3.424h-6.976v-3.424Zm13.664-8.448h9.792v3.552h-9.792v-3.552Zm0 7.616h9.792v3.456h-9.792v-3.456Zm-.064 7.584h9.824v3.456h-9.824v-3.456Zm-15.68-14.752h3.552v22.432h-3.552V436.56Zm24.128-.448h3.808v24.352c0 1.003-.128 1.781-.384 2.336-.235.576-.672 1.024-1.312 1.344-.64.299-1.429.491-2.368.576-.939.085-2.08.128-3.424.128a9.838 9.838 0 0 0-.32-1.248 11.274 11.274 0 0 0-.48-1.344 7.864 7.864 0 0 0-.544-1.12l1.728.064h1.536c.469-.021.789-.032.96-.032.299 0 .501-.053.608-.16.128-.107.192-.299.192-.576v-24.32Zm-10.688 0h3.776v11.616c0 1.365-.085 2.837-.256 4.416a26.704 26.704 0 0 1-.96 4.736 17.533 17.533 0 0 1-2.016 4.48c-.896 1.408-2.08 2.656-3.552 3.744a7.31 7.31 0 0 0-.832-.896c-.341-.32-.704-.64-1.088-.96-.363-.32-.693-.555-.992-.704 1.365-1.003 2.443-2.101 3.232-3.296a14.427 14.427 0 0 0 1.76-3.776c.384-1.323.629-2.645.736-3.968.128-1.323.192-2.592.192-3.808v-11.584Zm33.92 14.24h11.968v2.816h-11.968v-2.816Zm0 5.056h11.968v2.816h-11.968v-2.816Zm-.064 5.088h13.536v3.136h-13.536v-3.136Zm-4.704-22.688h18.08v5.824h-3.424v-2.624h-11.424v2.624H404.8v-5.824Zm9.088 9.856h3.52V462h-3.52v-14.336Zm-3.136-2.624h11.488v3.168h-11.488v16.672h-3.616v-16.512l3.264-3.328h.352Zm1.664-10.272 3.648.704c-.853 3.456-2.08 6.539-3.68 9.248-1.6 2.709-3.573 4.928-5.92 6.656a13.024 13.024 0 0 0-.736-.896 15.93 15.93 0 0 0-.96-1.12 10.45 10.45 0 0 0-.896-.864c2.176-1.429 3.979-3.328 5.408-5.696 1.429-2.368 2.475-5.045 3.136-8.032Zm3.456 7.04 3.52.736a70.015 70.015 0 0 1-1.248 2.56 43.377 43.377 0 0 1-1.12 2.112l-2.88-.736c.299-.661.619-1.429.96-2.304a18.9 18.9 0 0 0 .768-2.368Zm-22.336-5.088h11.52v3.488h-11.52v-3.488Zm3.584 9.408h7.456v14.88h-7.456v-3.296h4.224v-8.288h-4.224v-3.296Zm-.288-7.552 3.584.544a70.52 70.52 0 0 1-1.216 6.784 41.443 41.443 0 0 1-1.952 6.208c-.768 1.92-1.685 3.605-2.752 5.056a8.576 8.576 0 0 0-.544-1.152 23.26 23.26 0 0 0-.768-1.408c-.256-.469-.501-.843-.736-1.12.832-1.173 1.525-2.549 2.08-4.128a34.423 34.423 0 0 0 1.408-5.12 59.13 59.13 0 0 0 .896-5.664Zm-1.216 7.552h3.104v17.376h-3.104v-17.376Zm42.72-6.496c.981.128 2.08.224 3.296.288 1.237.043 2.485.064 3.744.064a96.757 96.757 0 0 0 3.68-.128 114.83 114.83 0 0 0 3.04-.256v4.128c-.981.085-2.059.16-3.232.224a101.472 101.472 0 0 1-7.264 0 109.324 109.324 0 0 1-3.264-.224v-4.096Zm2.56 13.664a17.075 17.075 0 0 0-.288 1.44 7.985 7.985 0 0 0-.096 1.248c0 .341.085.661.256.96.171.277.427.523.768.736.363.192.821.341 1.376.448.576.085 1.269.128 2.08.128 1.429 0 2.773-.064 4.032-.192a53.15 53.15 0 0 0 4-.64l.064 4.32a34.233 34.233 0 0 1-3.552.448c-1.323.107-2.891.16-4.704.16-2.752 0-4.8-.459-6.144-1.376-1.344-.939-2.016-2.229-2.016-3.872 0-.619.043-1.259.128-1.92.107-.683.245-1.429.416-2.24l3.68.352Zm-7.488-15.808a9.242 9.242 0 0 0-.288.896c-.107.384-.213.757-.32 1.12-.085.363-.149.64-.192.832a30.852 30.852 0 0 1-.32 1.76c-.128.704-.267 1.504-.416 2.4-.128.875-.256 1.771-.384 2.688a68.071 68.071 0 0 0-.32 2.656c-.064.853-.096 1.6-.096 2.24v1.024c.021.384.064.736.128 1.056.149-.363.309-.725.48-1.088l.512-1.088c.171-.384.32-.747.448-1.088l1.984 1.568c-.299.875-.608 1.813-.928 2.816a260.148 260.148 0 0 0-.832 2.848c-.235.875-.416 1.6-.544 2.176-.043.235-.085.501-.128.8-.021.299-.032.533-.032.704v.608c.021.256.043.491.064.704l-3.712.256c-.32-1.109-.608-2.581-.864-4.416-.256-1.856-.384-3.872-.384-6.048 0-1.195.053-2.411.16-3.648.107-1.237.235-2.421.384-3.552.149-1.152.288-2.197.416-3.136.149-.939.277-1.717.384-2.336.043-.448.096-.949.16-1.504.085-.576.139-1.12.16-1.632l4.48.384Z"/>
    <path fill="#3B82F6" d="M960 580c99.41 0 180-80.589 180-180s-80.59-180-180-180c-99.411 0-180 80.589-180 180s80.589 180 180 180Z"/>
    <path fill="#000" d="M984.403 347h-47.8v-10.5l16.6-18.1c3.4-3.733 6.066-6.833 8-9.3 2-2.533 3.4-4.8 4.2-6.8.866-2.067 1.3-4.267 1.3-6.6 0-2.867-.7-5-2.1-6.4-1.334-1.4-3.067-2.1-5.2-2.1-2.334 0-4.667.633-7 1.9-2.267 1.267-4.767 3.067-7.5 5.4l-8.8-9.7c2-1.8 4.1-3.467 6.3-5s4.8-2.767 7.8-3.7c3-1 6.6-1.5 10.8-1.5 4.466 0 8.333.867 11.6 2.6 3.266 1.667 5.766 3.967 7.5 6.9 1.8 2.867 2.7 6.133 2.7 9.8 0 3-.434 5.733-1.3 8.2-.867 2.467-2.134 4.9-3.8 7.3-1.6 2.4-3.534 4.9-5.8 7.5-2.267 2.533-4.8 5.4-7.6 8.6l-7.2 8.1-.1.7h27.4V347Z"/>
    <path fill="#fff" d="m894.821 422-1.312-5.44h-7.392l-1.344 5.44h-5.632l7.296-22.944h6.656L900.421 422h-5.6Zm-3.936-14.816a62.725 62.725 0 0 1-.384-1.408 82 82 0 0 1-.384-1.536 176.79 176.79 0 0 1-.32-1.632 23.213 23.213 0 0 1-.32 1.664 82 82 0 0 1-.384 1.536c-.107.491-.224.949-.352 1.376l-1.472 5.312h5.12l-1.504-5.312ZM911.878 422h-10.464v-2.752l2.656-1.28v-14.784l-2.656-1.28v-2.752h10.464v2.752l-2.624 1.28v14.784l2.624 1.28V422Zm19.893-21.92a98.228 98.228 0 0 1-.832 5.184 50.318 50.318 0 0 1-1.376 5.568c-.618 2.155-1.344 4.011-2.176 5.568-.832 1.557-1.749 2.763-2.752 3.616-.981.832-2.058 1.248-3.232 1.248-1.173 0-2.261-.395-3.264-1.184-.981-.811-1.77-1.92-2.368-3.328-.576-1.408-.864-3.008-.864-4.8 0-1.856.374-3.605 1.12-5.248a13.912 13.912 0 0 1 3.104-4.352 14.89 14.89 0 0 1 4.672-3.008c1.792-.725 3.723-1.088 5.792-1.088 1.984 0 3.766.32 5.344.96 1.6.64 2.966 1.525 4.096 2.656a11.519 11.519 0 0 1 2.592 3.968c.598 1.515.896 3.147.896 4.896 0 2.24-.458 4.245-1.376 6.016-.917 1.771-2.282 3.232-4.096 4.384-1.792 1.152-4.032 1.941-6.72 2.368l-2.4-3.808a21.865 21.865 0 0 0 1.632-.224c.47-.085.918-.181 1.344-.288a12.314 12.314 0 0 0 2.848-1.088 9.316 9.316 0 0 0 2.336-1.792 7.778 7.778 0 0 0 1.536-2.528c.384-.96.576-2.016.576-3.168 0-1.259-.192-2.411-.576-3.456a7.619 7.619 0 0 0-1.696-2.72 7.204 7.204 0 0 0-2.72-1.792c-1.066-.427-2.293-.64-3.68-.64-1.706 0-3.21.309-4.512.928-1.301.597-2.4 1.376-3.296 2.336-.896.96-1.578 1.995-2.048 3.104-.448 1.109-.672 2.165-.672 3.168 0 1.067.128 1.963.384 2.688.256.704.566 1.237.928 1.6.384.341.79.512 1.216.512.448 0 .886-.224 1.312-.672.448-.469.886-1.173 1.312-2.112.427-.939.854-2.123 1.28-3.552a43.582 43.582 0 0 0 1.248-4.928c.342-1.749.587-3.456.736-5.12l4.352.128Zm27.232-2.432h15.424v3.488h-15.424v-3.488Zm-1.888 6.208h18.72v3.584h-18.72v-3.584Zm.672 6.464h17.76v3.52h-17.76v-3.52Zm6.944-15.552h3.808v11.072h-3.808v-11.072Zm3.776 12.256h3.808v13.568c0 .96-.117 1.717-.352 2.272-.213.555-.64.992-1.28 1.312-.661.277-1.45.448-2.368.512a34.72 34.72 0 0 1-3.168.128 14.828 14.828 0 0 0-.448-1.92 10.495 10.495 0 0 0-.736-1.888l2.336.064h1.536c.256-.021.427-.064.512-.128.107-.064.16-.203.16-.416v-13.504Zm-9.6 8.544 2.848-1.76c.491.469.982.992 1.472 1.568.491.576.95 1.152 1.376 1.728.448.555.79 1.067 1.024 1.536l-3.04 1.984a9.877 9.877 0 0 0-.928-1.568 24.316 24.316 0 0 0-1.344-1.792 23.428 23.428 0 0 0-1.408-1.696Zm-13.184-3.712c1.046-.235 2.23-.523 3.552-.864 1.344-.341 2.752-.715 4.224-1.12 1.494-.427 2.976-.853 4.448-1.28l.48 3.392c-2.005.619-4.053 1.248-6.144 1.888a805.582 805.582 0 0 1-5.632 1.664l-.928-3.68Zm5.728-17.024h3.52v30.048h-3.52v-30.048Zm-4.224 1.632 3.232.544a99.284 99.284 0 0 1-.544 4.256 49.125 49.125 0 0 1-.768 4c-.298 1.259-.64 2.368-1.024 3.328a5.983 5.983 0 0 0-.8-.576l-1.024-.64a7.68 7.68 0 0 0-.896-.544c.342-.853.63-1.845.864-2.976.256-1.131.459-2.325.608-3.584.171-1.28.288-2.549.352-3.808Zm.896 4.384h9.536v3.648h-10.272l.736-3.648Zm33.504-6.048h3.84v30.048h-3.84V394.8Zm-2.688 6.176 2.72.384c-.042.917-.128 1.92-.256 3.008a38.186 38.186 0 0 1-.512 3.2 24.972 24.972 0 0 1-.672 2.816l-2.848-1.024c.256-.704.48-1.547.672-2.528.214-.981.395-1.984.544-3.008.171-1.024.288-1.973.352-2.848Zm5.792.224 2.592-1.088c.448.811.875 1.707 1.28 2.688.406.981.694 1.813.864 2.496l-2.784 1.28a10.223 10.223 0 0 0-.448-1.6 53.78 53.78 0 0 0-.704-1.92 25.279 25.279 0 0 0-.8-1.856Zm6.048-4.928 3.744.576a50.354 50.354 0 0 1-.864 4.704 38.112 38.112 0 0 1-1.216 4.32c-.448 1.323-.949 2.485-1.504 3.488a9.599 9.599 0 0 0-.992-.608 14.718 14.718 0 0 0-1.312-.64c-.426-.213-.8-.384-1.12-.512.576-.896 1.078-1.952 1.504-3.168a28.8 28.8 0 0 0 1.056-3.904c.299-1.408.534-2.827.704-4.256Zm1.152 5.024h14.789v3.616h-15.909l1.12-3.616Zm4.384-6.304h3.845v27.296h-3.845v-27.296Zm-6.24 15.2h15.935v3.584h-15.935v-3.584Zm-2.4 9.984h20.035v3.68h-20.035v-3.68Zm36.735-23.84c-.11.576-.28 1.323-.51 2.24-.24.917-.58 1.952-1.02 3.104-.35.789-.74 1.611-1.19 2.464-.43.832-.86 1.579-1.31 2.24.28-.128.63-.235 1.06-.32.42-.107.86-.181 1.31-.224.47-.064.88-.096 1.25-.096 1.34 0 2.45.384 3.32 1.152.9.768 1.35 1.909 1.35 3.424v1.568l.06 1.952c.02.661.04 1.312.07 1.952.02.64.03 1.216.03 1.728h-3.84c.04-.363.06-.789.06-1.28.02-.512.03-1.045.03-1.6.02-.555.04-1.088.04-1.6.02-.533.03-1.013.03-1.44 0-1.024-.28-1.728-.83-2.112a2.93 2.93 0 0 0-1.8-.608c-.89 0-1.8.224-2.72.672-.89.427-1.65.939-2.27 1.536-.47.469-.95.992-1.44 1.568-.47.576-.98 1.227-1.53 1.952l-3.43-2.56a41.473 41.473 0 0 0 3.59-3.712 27.133 27.133 0 0 0 2.59-3.552c.7-1.173 1.28-2.347 1.73-3.52.32-.853.57-1.739.76-2.656.22-.939.34-1.813.39-2.624l4.22.352Zm-12.03 2.944c.81.128 1.75.224 2.82.288 1.06.064 2 .096 2.81.096 1.41 0 2.95-.032 4.61-.096 1.68-.064 3.39-.171 5.12-.32 1.73-.171 3.37-.384 4.93-.64l-.03 3.712c-1.14.149-2.36.288-3.68.416-1.31.107-2.64.203-4 .288-1.35.064-2.64.117-3.88.16-1.23.021-2.33.032-3.29.032h-1.6l-1.92-.064c-.66-.043-1.29-.085-1.89-.128v-3.744Zm25.34 9.088c-.34.107-.74.245-1.21.416-.45.149-.91.309-1.38.48-.45.149-.85.299-1.21.448-1.03.405-2.24.896-3.65 1.472a61.89 61.89 0 0 0-4.35 2.016c-.96.512-1.78 1.013-2.44 1.504-.66.491-1.16.992-1.5 1.504a2.803 2.803 0 0 0-.51 1.632c0 .448.09.821.29 1.12.19.277.48.501.86.672.38.171.86.288 1.44.352s1.26.096 2.05.096c1.36 0 2.87-.075 4.51-.224 1.64-.171 3.17-.395 4.58-.672l-.13 4.128c-.69.085-1.55.171-2.59.256-1.05.107-2.14.181-3.27.224-1.11.043-2.17.064-3.2.064-1.66 0-3.16-.16-4.48-.48-1.32-.32-2.37-.864-3.13-1.632-.75-.789-1.12-1.867-1.12-3.232 0-1.109.24-2.112.73-3.008.51-.896 1.19-1.707 2.02-2.432.83-.725 1.74-1.376 2.72-1.952 1-.597 1.98-1.141 2.94-1.632.98-.512 1.87-.949 2.66-1.312.79-.363 1.52-.683 2.21-.96.7-.299 1.37-.597 2.01-.896.62-.277 1.22-.544 1.79-.8.58-.277 1.17-.565 1.76-.864l1.6 3.712Zm-156.788 36.768v2.72h9.664v-2.72h-9.664Zm0-5.728v2.688h9.664v-2.688h-9.664Zm-3.488-3.232h16.832v14.944h-16.832v-14.944Zm-.192 17.696h17.344v3.456h-17.344v-3.456Zm-2.24 6.496h20.672v3.488h-20.672v-3.488Zm-9.376-23.712h10.624v3.552h-10.624v-3.552Zm.288 9.216h9.792v3.52h-9.792v-3.52Zm-.672 12.16c.939-.256 1.984-.544 3.136-.864 1.174-.341 2.411-.715 3.712-1.12a742.04 742.04 0 0 1 3.84-1.248l.672 3.648c-1.792.597-3.605 1.205-5.44 1.824-1.834.619-3.52 1.173-5.056 1.664l-.864-3.904Zm3.904-19.968h3.68v19.648l-3.68.608v-20.256Zm15.072-.512h3.232v12.032h.352V462h-3.936v-12.416h.352v-12.032Zm16.8 5.504h8.896v2.816h-8.896v-2.816Zm0 5.216h8.896v2.72h-8.896v-2.72Zm0 5.376h8.896v2.816h-8.896v-2.816ZM914.916 450h12.032v3.232h-12.032V450Zm-12.288-12.224h5.056v2.912h-5.056v-2.912Zm9.856-1.344h11.904v3.168h-11.904v-3.168Zm.032 19.712h15.072v3.296h-15.072v-3.296Zm5.952-9.024h3.648v17.632h-3.648V447.12Zm-13.952-2.592h2.528v10.176h-2.528v-10.176Zm18.848-8.096h3.392l-.032.48c0 .299-.01.555-.032.768a82.625 82.625 0 0 1-.192 4.192c-.085 1.109-.202 1.984-.352 2.624-.149.64-.341 1.099-.576 1.376-.256.32-.544.555-.864.704-.32.149-.682.267-1.088.352-.362.043-.832.075-1.408.096a58.79 58.79 0 0 1-1.856-.032 7.684 7.684 0 0 0-.256-1.6c-.149-.597-.352-1.099-.608-1.504.512.043.971.075 1.376.096.406.021.715.032.928.032.192 0 .352-.011.48-.032a.71.71 0 0 0 .384-.288c.128-.149.235-.459.32-.928.086-.491.16-1.205.224-2.144.064-.939.118-2.176.16-3.712v-.48Zm-9.12 10.912 3.136.64a26.755 26.755 0 0 1-1.184 4.256c-.49 1.387-1.045 2.549-1.664 3.488-.213-.149-.49-.32-.832-.512a16.369 16.369 0 0 0-1.056-.544 22.736 22.736 0 0 0-.928-.416c.619-.853 1.142-1.899 1.568-3.136.427-1.237.747-2.496.96-3.776Zm-12.384-12.576 3.424.768a43.78 43.78 0 0 1-1.44 4.288 31.813 31.813 0 0 1-1.856 3.936c-.661 1.216-1.376 2.283-2.144 3.2a10.584 10.584 0 0 0-.8-.704 34.273 34.273 0 0 0-1.024-.864 5.15 5.15 0 0 0-.928-.672c1.088-1.195 2.048-2.667 2.88-4.416a26.457 26.457 0 0 0 1.888-5.536Zm-2.24 8.288h3.072v8.48c0 1.024-.042 2.123-.128 3.296a35.317 35.317 0 0 1-.384 3.584 21.126 21.126 0 0 1-.8 3.488 12.817 12.817 0 0 1-1.44 3.04c-.17-.192-.426-.405-.768-.64-.32-.213-.661-.427-1.024-.64a8.743 8.743 0 0 0-.896-.448 12.096 12.096 0 0 0 1.6-3.68c.342-1.365.555-2.741.64-4.128.086-1.408.128-2.709.128-3.904v-8.448Zm9.248 0h3.168v18.112c0 .768-.085 1.397-.256 1.888-.17.491-.501.875-.992 1.152-.49.277-1.077.448-1.76.512-.682.085-1.525.128-2.528.128-.042-.469-.181-1.024-.416-1.664a9.724 9.724 0 0 0-.672-1.6c.64.021 1.238.043 1.792.064h1.152c.192 0 .32-.032.384-.096.086-.085.128-.235.128-.448v-18.048Zm7.488-5.568h3.424c-.128 1.557-.384 2.997-.768 4.32a9.257 9.257 0 0 1-1.824 3.488c-.853 1.024-2.069 1.888-3.648 2.592-.192-.405-.49-.875-.896-1.408-.384-.533-.757-.939-1.12-1.216 1.28-.533 2.24-1.184 2.88-1.952a6.468 6.468 0 0 0 1.376-2.624c.278-.981.47-2.048.576-3.2Zm-9.6.288h.736l.48-.128 2.208 1.344a32.614 32.614 0 0 1-1.376 3.264 37.714 37.714 0 0 1-1.568 2.912 14.23 14.23 0 0 0-1.184-.768 15.407 15.407 0 0 0-1.184-.672c.256-.512.502-1.077.736-1.696.256-.64.48-1.28.672-1.92a18.2 18.2 0 0 0 .48-1.728v-.608Zm33.6-1.152c-.085.661-.17 1.376-.256 2.144-.064.768-.117 1.472-.16 2.112-.021.875-.064 1.941-.128 3.2-.042 1.237-.085 2.539-.128 3.904a235.8 235.8 0 0 1-.096 4.032 222.052 222.052 0 0 0-.032 3.456c0 1.067.192 1.92.576 2.56a3.497 3.497 0 0 0 1.6 1.344c.662.256 1.408.384 2.24.384 1.323 0 2.528-.171 3.616-.512a12.433 12.433 0 0 0 2.976-1.44 12.464 12.464 0 0 0 2.4-2.08 19.588 19.588 0 0 0 1.952-2.496l2.912 3.52c-.512.768-1.184 1.579-2.016 2.432-.832.853-1.824 1.653-2.976 2.4-1.13.747-2.442 1.355-3.936 1.824-1.493.469-3.146.704-4.96.704-1.749 0-3.274-.277-4.576-.832-1.28-.533-2.282-1.365-3.008-2.496-.704-1.152-1.056-2.635-1.056-4.448 0-.875.011-1.867.032-2.976.022-1.131.054-2.304.096-3.52.043-1.216.075-2.4.096-3.552.022-1.173.043-2.229.064-3.168.022-.939.032-1.685.032-2.24 0-.768-.032-1.515-.096-2.24a14.58 14.58 0 0 0-.32-2.08l5.152.064Zm21.432 3.36c.64-.021 1.248-.043 1.824-.064a160.01 160.01 0 0 1 1.344-.096c.661-.064 1.472-.139 2.432-.224l3.232-.288c1.216-.107 2.506-.213 3.872-.32 1.365-.128 2.784-.256 4.256-.384 1.109-.085 2.218-.16 3.328-.224a96.238 96.238 0 0 1 3.136-.192 76.041 76.041 0 0 1 2.592-.128l.032 4.096c-.576 0-1.238.011-1.984.032-.747.021-1.494.064-2.24.128-.726.043-1.376.128-1.952.256a7.87 7.87 0 0 0-2.688 1.312 10.182 10.182 0 0 0-2.144 2.144 10.203 10.203 0 0 0-1.44 2.688 8.774 8.774 0 0 0-.48 2.848c0 1.045.181 1.973.544 2.784a6.212 6.212 0 0 0 1.504 2.048 9.48 9.48 0 0 0 2.304 1.408c.874.363 1.813.64 2.816.832 1.024.192 2.08.32 3.168.384l-1.504 4.384a20.207 20.207 0 0 1-3.936-.64 16.648 16.648 0 0 1-3.552-1.408 12.178 12.178 0 0 1-2.88-2.176 9.858 9.858 0 0 1-1.952-2.976c-.47-1.131-.704-2.389-.704-3.776 0-1.557.245-2.976.736-4.256.49-1.28 1.098-2.4 1.824-3.36.725-.981 1.45-1.739 2.176-2.272-.598.064-1.323.149-2.176.256-.832.085-1.739.192-2.72.32-.96.107-1.942.224-2.944.352a55.234 55.234 0 0 0-2.912.448c-.918.149-1.75.299-2.496.448l-.416-4.384Zm37.824 7.296v11.808h-3.584v-8.256H992.7v-3.552h6.912Zm0 10.304a5.6 5.6 0 0 0 2.658 2.4c1.17.512 2.58.8 4.22.864 1 .043 2.2.075 3.59.096a322.251 322.251 0 0 0 8.86-.128 77.81 77.81 0 0 0 3.9-.256c-.12.299-.27.661-.44 1.088-.15.405-.29.832-.42 1.28-.13.469-.22.885-.29 1.248-1.02.043-2.2.075-3.52.096-1.32.043-2.7.064-4.13.064a137.67 137.67 0 0 1-7.55-.096c-1.94-.085-3.59-.395-4.96-.928-1.34-.533-2.505-1.429-3.486-2.688-.598.64-1.227 1.28-1.888 1.92-.64.64-1.344 1.312-2.112 2.016l-1.824-3.648a48.787 48.787 0 0 0 2.08-1.568 43.632 43.632 0 0 0 2.08-1.76h3.232Zm-7.136-20.128 3.04-1.888a18.377 18.377 0 0 1 1.728 1.696 25.581 25.581 0 0 1 1.632 1.856c.49.619.874 1.195 1.154 1.728l-3.266 2.144c-.235-.512-.587-1.088-1.056-1.728a25.638 25.638 0 0 0-1.568-1.984 28.737 28.737 0 0 0-1.664-1.824Zm9.054 10.464h19.65v2.784h-19.65v-2.784Zm-.93 4.928h21.57v2.816h-21.57v-2.816Zm5.22-6.656h3.58v8.032h-3.58v-8.032Zm7.3 0h3.64v8.032h-3.64v-8.032Zm-10.69-6.656h4.67v-1.312h-6.11v-2.432h9.34V442h-7.9v-2.464Zm-.96 0h3.13v3.104c0 .341.07.565.2.672.12.085.38.128.76.128h2.47c.34 0 .56-.075.67-.224.11-.149.18-.48.22-.992.3.192.71.384 1.22.576.53.171 1.02.299 1.47.384-.17 1.088-.5 1.824-.99 2.208-.47.384-1.2.576-2.18.576h-3.32c-.96 0-1.71-.085-2.24-.256a1.814 1.814 0 0 1-1.09-1.024c-.22-.491-.32-1.163-.32-2.016v-3.136Zm11.45 0h4.71v-1.312h-6.21v-2.432h9.47V442h-7.97v-2.464Zm-.92 0h3.13v3.104c0 .341.07.565.19.672.13.085.4.128.8.128h2.6c.34 0 .55-.075.64-.224.1-.149.19-.501.25-1.056.3.213.71.416 1.22.608.53.171 1.02.299 1.47.384-.17 1.109-.5 1.856-.99 2.24-.47.384-1.2.576-2.18.576h-3.45c-.96 0-1.71-.085-2.24-.256-.54-.192-.91-.533-1.12-1.024-.22-.491-.32-1.163-.32-2.016v-3.136Zm.6 17.504 2.82-1.6c.77.341 1.57.736 2.4 1.184.83.427 1.62.864 2.37 1.312.74.427 1.38.821 1.92 1.184l-3.94 1.44c-.6-.512-1.42-1.088-2.46-1.728a35.543 35.543 0 0 0-3.11-1.792Zm-5.63-1.568 3.36 1.152c-.81.768-1.82 1.504-3.04 2.208-1.21.704-2.38 1.28-3.49 1.728a7.378 7.378 0 0 0-.83-.768c-.32-.299-.66-.587-1.02-.864-.37-.277-.67-.512-.93-.704 1.11-.341 2.21-.747 3.3-1.216 1.08-.491 1.97-1.003 2.65-1.536Zm30.88-18.88h3.84v10.912c0 1.323-.06 2.763-.19 4.32a30.925 30.925 0 0 1-.7 4.672 21.765 21.765 0 0 1-1.54 4.544 13.58 13.58 0 0 1-2.66 3.84 9.214 9.214 0 0 0-.83-.928c-.36-.341-.73-.672-1.12-.992a8.499 8.499 0 0 0-1.02-.704 11.576 11.576 0 0 0 2.3-3.328c.58-1.237 1-2.507 1.28-3.808.28-1.323.45-2.635.51-3.936.09-1.301.13-2.528.13-3.68v-10.912Zm9.86 12.64c.34 1.835.82 3.563 1.44 5.184.62 1.6 1.42 3.019 2.4 4.256a11.006 11.006 0 0 0 3.58 2.912c-.3.256-.62.576-.96.96-.34.405-.66.821-.96 1.248-.3.427-.54.811-.73 1.152a13.147 13.147 0 0 1-4.1-3.584c-1.09-1.472-1.98-3.179-2.69-5.12a43 43 0 0 1-1.66-6.432l3.68-.576Zm-8.45-12.64h14.27v13.856h-14.27v-3.584h10.4v-6.656h-10.4v-3.616Zm-14.46 4.384h11.77v3.552h-11.77v-3.552Zm4.22-6.176h3.68v25.888c0 .96-.11 1.696-.32 2.208-.21.512-.6.928-1.15 1.248-.58.277-1.28.459-2.11.544-.84.085-1.87.128-3.11.128-.04-.491-.18-1.077-.41-1.76-.22-.683-.44-1.269-.68-1.76.73.021 1.42.043 2.08.064h1.38c.23-.021.39-.075.48-.16.11-.107.16-.288.16-.544V434.8Zm-4.74 16.224c1.07-.171 2.28-.373 3.62-.608 1.34-.256 2.75-.533 4.22-.832 1.48-.299 2.94-.587 4.39-.864l.35 3.488c-2.01.448-4.04.896-6.11 1.344-2.07.427-3.95.811-5.63 1.152l-.84-3.68Z"/>
    <path fill="#10B981" d="M1560 580c99.41 0 180-80.589 180-180s-80.59-180-180-180-180 80.589-180 180 80.59 180 180 180Z"/>
    <path fill="#000" d="M1582 291.6c0 3.267-.66 6.1-2 8.5-1.33 2.4-3.1 4.367-5.3 5.9-2.2 1.533-4.66 2.667-7.4 3.4v.3c5.34.667 9.44 2.4 12.3 5.2 2.87 2.8 4.3 6.567 4.3 11.3 0 4.133-.96 7.867-2.9 11.2-1.93 3.267-4.93 5.867-9 7.8-4 1.867-9.2 2.8-15.6 2.8-4 0-7.56-.333-10.7-1a45.914 45.914 0 0 1-9-2.9v-12.8c2.94 1.533 5.94 2.7 9 3.5 3.14.8 6 1.2 8.6 1.2 4.74 0 8-.933 9.8-2.8 1.87-1.867 2.8-4.5 2.8-7.9 0-2-.43-3.667-1.3-5-.86-1.4-2.4-2.433-4.6-3.1-2.13-.733-5.23-1.1-9.3-1.1h-4.6v-11.6h4.7c3.8 0 6.74-.4 8.8-1.2 2.07-.867 3.5-2 4.3-3.4.87-1.467 1.3-3.133 1.3-5 0-2.533-.7-4.5-2.1-5.9-1.4-1.467-3.53-2.2-6.4-2.2-2.06 0-4 .3-5.8.9-1.8.533-3.4 1.2-4.8 2-1.33.8-2.43 1.567-3.3 2.3l-7-10.4a39.978 39.978 0 0 1 5.9-3.6c2.2-1.067 4.67-1.9 7.4-2.5 2.8-.6 5.97-.9 9.5-.9 6.94 0 12.4 1.5 16.4 4.5 4 2.933 6 7.1 6 12.5Z"/>
    <path fill="#fff" d="M1506.02 403.472v1.92h11.93v-1.92h-11.93Zm0 4.64v1.92h11.93v-1.92h-11.93Zm0-9.248v1.92h11.93v-1.92h-11.93Zm-3.78-2.88h19.71v16.96h-19.71v-16.96Zm-4.51 18.432h28.57v3.552h-28.57v-3.552Zm15.97 6.272 2.91-2.56c1.21.405 2.44.853 3.68 1.344 1.26.491 2.45.981 3.58 1.472 1.15.469 2.12.907 2.91 1.312l-3.9 2.624c-.7-.405-1.56-.853-2.56-1.344-.98-.491-2.05-.992-3.2-1.504a51.54 51.54 0 0 0-3.42-1.344Zm-6.66-2.784 3.33 2.624a38.1 38.1 0 0 1-3.2 1.6c-1.2.555-2.41 1.067-3.65 1.536a46.04 46.04 0 0 1-3.52 1.184c-.32-.405-.74-.896-1.25-1.472a15.46 15.46 0 0 0-1.41-1.472c1.11-.299 2.28-.672 3.49-1.12 1.22-.448 2.37-.928 3.46-1.44 1.11-.512 2.02-.992 2.75-1.44Zm28.03-22.976 3.65 1.12a53.736 53.736 0 0 1-2.24 5.44 48.542 48.542 0 0 1-2.82 5.184c-1 1.621-2.04 3.051-3.13 4.288-.13-.32-.32-.725-.58-1.216-.23-.512-.49-1.024-.77-1.536-.27-.512-.53-.928-.76-1.248.91-.981 1.78-2.112 2.59-3.392a35.085 35.085 0 0 0 2.27-4.16c.7-1.472 1.3-2.965 1.79-4.48Zm-2.59 8.864 3.65-3.648v24.672h-3.65v-21.024Zm13.63-8.832h3.75v29.664h-3.75V394.96Zm-8.13 5.568h20.74v3.648h-20.74v-3.648Zm3.91 15.52h12.29v3.424h-12.29v-3.424Zm9.34-13.472a40.51 40.51 0 0 0 2.15 5.44 39.566 39.566 0 0 0 2.91 5.088c1.06 1.557 2.17 2.88 3.33 3.968-.45.32-.96.768-1.54 1.344-.55.576-1 1.12-1.34 1.632-1.16-1.28-2.25-2.816-3.3-4.608-1.05-1.792-1.98-3.723-2.82-5.792a65.832 65.832 0 0 1-2.14-6.304l2.75-.768Zm-6.3-.32 2.78.768a54.13 54.13 0 0 1-2.21 6.528 42.957 42.957 0 0 1-2.94 5.92c-1.09 1.813-2.26 3.371-3.52 4.672-.21-.299-.48-.629-.8-.992-.32-.384-.66-.747-1.02-1.088a10.59 10.59 0 0 0-.93-.832c1.24-1.088 2.4-2.432 3.49-4.032a36.243 36.243 0 0 0 2.97-5.248c.9-1.899 1.62-3.797 2.18-5.696Zm19.65-2.24h9.82v21.536h-9.82v-3.36h6.36v-14.848h-6.36v-3.328Zm-2.24 0h3.48v23.904h-3.48v-23.904Zm2.11 8.544h8.16v3.328h-8.16v-3.328Zm2.46-13.76 4.16.608a53.427 53.427 0 0 1-1.12 3.232 47.499 47.499 0 0 1-1.05 2.72l-3.08-.704c.15-.555.29-1.173.42-1.856.15-.683.29-1.376.42-2.08.12-.704.21-1.344.25-1.92Zm11.71 4.96h9.38v3.52h-9.38v-3.52Zm8.04 0h3.55v1.088c0 .277-.01.491-.03.64-.09 3.605-.2 6.667-.32 9.184-.11 2.496-.25 4.565-.42 6.208-.15 1.621-.33 2.891-.54 3.808-.22.917-.49 1.589-.84 2.016-.42.619-.88 1.045-1.37 1.28-.49.235-1.06.405-1.7.512-.62.085-1.38.117-2.3.096-.9 0-1.82-.011-2.75-.032-.03-.533-.15-1.163-.39-1.888a8.143 8.143 0 0 0-.86-1.856c1.02.085 1.97.139 2.85.16.89.021 1.54.032 1.95.032.32 0 .57-.032.77-.096.21-.085.41-.235.6-.448.28-.277.51-.843.68-1.696.19-.875.35-2.101.48-3.68.12-1.579.24-3.573.35-5.984.1-2.411.2-5.28.29-8.608v-.736Zm-7.94-4.928 3.71.864c-.4 1.557-.9 3.115-1.5 4.672a43.484 43.484 0 0 1-1.92 4.416 27.762 27.762 0 0 1-2.11 3.584 7.534 7.534 0 0 0-.93-.736c-.39-.299-.78-.587-1.19-.864a7.294 7.294 0 0 0-1.02-.64c.7-.917 1.37-1.973 1.98-3.168a29.398 29.398 0 0 0 1.7-3.904 39.94 39.94 0 0 0 1.28-4.224Zm-1.57 14.176 3.01-1.696c.53.725 1.1 1.525 1.7 2.4.59.875 1.16 1.728 1.69 2.56.54.832.97 1.568 1.31 2.208l-3.26 1.984c-.3-.661-.7-1.419-1.22-2.272a57.803 57.803 0 0 0-1.6-2.624 50.876 50.876 0 0 0-1.63-2.56Zm17.51-7.968c.68.085 1.4.149 2.17.192.79.021 1.48.032 2.08.032 1.32 0 2.66-.075 4-.224 1.37-.149 2.68-.341 3.94-.576 1.26-.256 2.4-.544 3.42-.864l.13 3.712c-.92.235-2.02.48-3.3.736a62.46 62.46 0 0 1-4 .608c-1.4.149-2.79.224-4.16.224-.64 0-1.29-.011-1.95-.032-.66-.021-1.34-.053-2.05-.096l-.28-3.712Zm12.44-4.8c-.12.533-.29 1.227-.51 2.08-.21.853-.46 1.749-.73 2.688-.26.939-.54 1.867-.84 2.784a42.884 42.884 0 0 1-1.85 4.896 68.795 68.795 0 0 1-2.5 5.056 40.88 40.88 0 0 1-2.72 4.384l-3.87-1.984c.73-.896 1.44-1.888 2.14-2.976a46.21 46.21 0 0 0 1.99-3.36 58.784 58.784 0 0 0 1.66-3.328c.51-1.088.92-2.069 1.22-2.944.4-1.131.76-2.389 1.05-3.776.32-1.408.51-2.731.55-3.968l4.41.448Zm7.49 9.952c-.04.683-.06 1.365-.06 2.048l.06 2.048c.02.491.04 1.12.07 1.888.04.747.08 1.547.12 2.4.05.832.08 1.632.1 2.4.04.747.06 1.344.06 1.792 0 .981-.2 1.877-.6 2.688-.41.789-1.06 1.419-1.96 1.888-.87.469-2.08.704-3.61.704-1.32 0-2.52-.203-3.59-.608-1.06-.384-1.92-.96-2.56-1.728-.64-.789-.96-1.771-.96-2.944 0-1.045.28-1.984.84-2.816.55-.853 1.35-1.515 2.4-1.984 1.06-.491 2.34-.736 3.84-.736 1.87 0 3.6.267 5.18.8 1.58.512 3 1.173 4.26 1.984 1.25.811 2.33 1.621 3.23 2.432l-2.15 3.424c-.57-.512-1.23-1.088-1.98-1.728-.73-.64-1.55-1.237-2.46-1.792-.9-.555-1.88-1.013-2.95-1.376-1.04-.363-2.17-.544-3.39-.544-.92 0-1.65.181-2.21.544-.55.363-.83.832-.83 1.408 0 .597.23 1.077.7 1.44.49.363 1.18.544 2.05.544.73 0 1.3-.117 1.73-.352.43-.256.73-.608.9-1.056.17-.469.25-.992.25-1.568 0-.491-.02-1.184-.06-2.08-.04-.896-.1-1.888-.16-2.976-.04-1.088-.09-2.176-.13-3.264-.04-1.088-.09-2.048-.13-2.88h4Zm5.51 1.696c-.62-.512-1.39-1.056-2.31-1.632a39.82 39.82 0 0 0-2.85-1.632c-.96-.533-1.8-.96-2.52-1.28l2.04-3.168c.58.256 1.23.576 1.96.96.74.363 1.49.747 2.24 1.152.76.405 1.47.811 2.11 1.216.66.384 1.19.725 1.6 1.024l-2.27 3.36Zm-142.24 26.944h3.84v8.704c0 .597.12.971.38 1.12.28.149.87.224 1.79.224h5.6c.54 0 .93-.085 1.19-.256.27-.171.47-.523.57-1.056.13-.533.23-1.323.29-2.368.41.277.96.555 1.66.832.71.256 1.32.437 1.83.544-.15 1.515-.41 2.699-.77 3.552-.36.832-.9 1.408-1.6 1.728-.7.32-1.67.48-2.91.48h-6.21c-1.49 0-2.66-.139-3.49-.416-.81-.277-1.37-.768-1.69-1.472-.32-.704-.48-1.664-.48-2.88v-8.736Zm12.38 1.376 2.85 2.784c-1.18.469-2.47.917-3.87 1.344a86.22 86.22 0 0 1-4.32 1.12c-1.45.341-2.86.64-4.23.896-.08-.405-.24-.885-.48-1.44a23.06 23.06 0 0 0-.64-1.408c1.28-.277 2.57-.587 3.87-.928 1.33-.363 2.57-.747 3.75-1.152 1.19-.427 2.22-.832 3.07-1.216Zm-12.45 13.984h15.65v14.528h-3.81v-11.392h-8.19v11.52h-3.65v-14.656Zm1.92 5.12h11.2v2.976h-11.2v-2.976Zm-.13 5.088h11.33v3.072h-11.33V460.4Zm-14.91-9.248c1-.213 2.14-.469 3.39-.768 1.28-.299 2.62-.619 4-.96 1.41-.363 2.81-.725 4.2-1.088l.48 3.52c-1.92.533-3.87 1.056-5.83 1.568-1.94.512-3.71.981-5.31 1.408l-.93-3.68Zm.51-10.304h11.04v3.552h-11.04v-3.552Zm4-6.048h3.75v25.92c0 .939-.1 1.664-.29 2.176-.19.512-.57.928-1.12 1.248-.53.277-1.19.459-1.98.544-.79.085-1.75.128-2.88.128-.07-.491-.21-1.077-.42-1.76-.19-.683-.41-1.269-.64-1.76.62.021 1.22.043 1.79.064h1.19c.21-.021.36-.075.44-.16.11-.085.16-.235.16-.448V434.8Zm40.84 11.904h4.19v13.664c0 1.067-.14 1.899-.42 2.496-.28.597-.79 1.045-1.53 1.344-.75.299-1.66.48-2.72.544-1.07.085-2.3.128-3.68.128-.09-.597-.27-1.291-.55-2.08a13.26 13.26 0 0 0-.83-2.016l1.89.064c.66.021 1.25.032 1.76.032h1.09c.29 0 .5-.043.6-.128.13-.107.2-.267.2-.48v-13.568Zm-7.72 4.032 4.07 1.056a27.574 27.574 0 0 1-1.73 3.776 38.07 38.07 0 0 1-2.11 3.488 24.487 24.487 0 0 1-2.27 2.848c-.26-.213-.61-.469-1.06-.768-.43-.299-.86-.587-1.31-.864a14.36 14.36 0 0 0-1.19-.672c1.16-1.045 2.23-2.368 3.24-3.968 1-1.6 1.79-3.232 2.36-4.896Zm15.17 1.376 3.62-1.472c.7.981 1.41 2.048 2.11 3.2.7 1.131 1.34 2.261 1.92 3.392.58 1.109 1.01 2.123 1.31 3.04l-4 1.728c-.23-.875-.62-1.877-1.15-3.008a39.374 39.374 0 0 0-1.79-3.52 54.247 54.247 0 0 0-2.02-3.36Zm-16.83-15.232h22.69v3.808h-22.69v-3.808Zm-2.91 7.712h28.61v3.808h-28.61v-3.808Zm32.48-4.544c.64-.021 1.25-.043 1.82-.064l1.31-.096c.67-.043 1.48-.107 2.44-.192.98-.107 2.07-.213 3.26-.32 1.22-.107 2.51-.213 3.87-.32 1.37-.107 2.79-.224 4.26-.352 1.11-.107 2.21-.192 3.29-.256a96.97 96.97 0 0 1 3.14-.192c1-.064 1.88-.107 2.62-.128l.04 4.096a72 72 0 0 0-1.99.032c-.74.021-1.49.064-2.24.128-.72.043-1.37.139-1.95.288-.96.256-1.86.693-2.69 1.312a9.7 9.7 0 0 0-2.17 2.144 10.12 10.12 0 0 0-1.41 2.656 8.309 8.309 0 0 0-.51 2.848c0 1.045.18 1.973.54 2.784.38.789.9 1.472 1.54 2.048a9.53 9.53 0 0 0 2.3 1.408c.87.363 1.81.64 2.82.832 1.02.192 2.08.32 3.16.384l-1.5 4.384a20.296 20.296 0 0 1-3.94-.64 16.842 16.842 0 0 1-3.55-1.408 11.876 11.876 0 0 1-2.91-2.176 10.732 10.732 0 0 1-1.95-2.976c-.47-1.131-.71-2.389-.71-3.776 0-1.536.25-2.944.74-4.224.49-1.301 1.1-2.432 1.82-3.392.75-.981 1.49-1.739 2.21-2.272-.6.085-1.32.171-2.17.256-.84.085-1.74.192-2.72.32-.96.107-1.95.224-2.95.352-1 .128-1.97.277-2.91.448-.92.149-1.75.299-2.5.448l-.41-4.384Zm21.47 5.312c.28.384.57.843.86 1.376.32.512.63 1.035.93 1.568.3.512.56.981.77 1.408l-2.43 1.088c-.41-.896-.8-1.685-1.19-2.368a17.41 17.41 0 0 0-1.31-2.08l2.37-.992Zm3.58-1.472c.28.384.58.832.9 1.344.34.491.67 1.003.99 1.536.32.512.59.971.8 1.376l-2.4 1.152a26.7 26.7 0 0 0-1.25-2.272c-.38-.661-.84-1.344-1.37-2.048l2.33-1.088Zm10.56 2.976h7.4v3.488h-7.4v-3.488Zm5.92 0h3.72v1.408c-.05 2.261-.1 4.117-.16 5.568-.07 1.429-.17 2.549-.32 3.36-.13.789-.31 1.344-.55 1.664-.32.405-.66.693-1.02.864-.34.171-.75.299-1.22.384-.42.085-.97.139-1.63.16-.64 0-1.34-.011-2.11-.032-.02-.555-.13-1.173-.32-1.856s-.43-1.259-.71-1.728c.58.043 1.11.075 1.6.096.52.021.9.032 1.16.032.21 0 .39-.021.54-.064a.913.913 0 0 0 .42-.32c.15-.192.25-.587.32-1.184.08-.619.15-1.547.19-2.784.04-1.259.07-2.923.09-4.992v-.576Zm9.6-10.048 2.34-2.304c.6.299 1.23.651 1.89 1.056.66.405 1.29.811 1.89 1.216.61.405 1.12.8 1.5 1.184l-2.46 2.56c-.37-.363-.84-.768-1.41-1.216-.58-.448-1.2-.885-1.86-1.312a28.16 28.16 0 0 0-1.89-1.184Zm3.78 8.256 3.9.928c-1.34 4.16-3.17 7.84-5.5 11.04-2.33 3.179-5.08 5.749-8.26 7.712a8.882 8.882 0 0 0-.76-1.024c-.35-.384-.7-.779-1.06-1.184-.36-.384-.68-.704-.96-.96 3.07-1.664 5.67-3.904 7.81-6.72 2.13-2.837 3.74-6.101 4.83-9.792Zm-19.1-5.472h24.7v3.776h-24.7V439.6Zm-2.56 0h4.03v9.44c0 1.195-.04 2.507-.13 3.936a49.226 49.226 0 0 1-.48 4.352 24.83 24.83 0 0 1-1.06 4.256 14.617 14.617 0 0 1-1.76 3.68c-.21-.277-.53-.587-.96-.928-.4-.341-.82-.683-1.24-1.024-.41-.32-.76-.544-1.06-.672.81-1.28 1.4-2.709 1.76-4.288.38-1.6.63-3.211.74-4.832.1-1.621.16-3.125.16-4.512V439.6Zm12.99-4.768h4.03c-.04 2.624.03 5.195.22 7.712.2 2.517.47 4.875.84 7.072.38 2.176.83 4.107 1.34 5.792.51 1.664 1.08 2.965 1.7 3.904.61.939 1.24 1.408 1.88 1.408.37 0 .64-.437.84-1.312.21-.875.36-2.315.44-4.32.45.427.97.843 1.57 1.248.62.405 1.19.704 1.7.896-.19 1.984-.48 3.52-.87 4.608-.38 1.067-.89 1.803-1.53 2.208-.64.405-1.46.608-2.47.608-1.15 0-2.19-.395-3.13-1.184-.92-.789-1.74-1.888-2.47-3.296-.7-1.408-1.31-3.061-1.82-4.96a57.285 57.285 0 0 1-1.28-6.176 96.318 96.318 0 0 1-.74-6.912c-.15-2.411-.23-4.843-.25-7.296Zm17.28 16.832h28.64v3.488h-28.64v-3.488Zm12.32-14.08h4.06v27.296h-4.06v-27.296Zm-1.06 15.776 3.17 1.376c-1 1.323-2.2 2.581-3.58 3.776a30.092 30.092 0 0 1-4.42 3.2 29.073 29.073 0 0 1-4.8 2.304c-.19-.32-.45-.683-.77-1.088-.3-.384-.61-.757-.93-1.12-.32-.384-.63-.715-.92-.992 1.19-.363 2.37-.8 3.55-1.312a28.79 28.79 0 0 0 3.39-1.76 27.318 27.318 0 0 0 2.98-2.08c.91-.747 1.69-1.515 2.33-2.304Zm5.83-.224c.66.768 1.46 1.525 2.4 2.272.93.725 1.96 1.419 3.07 2.08 1.11.64 2.26 1.227 3.45 1.76 1.2.533 2.38.971 3.56 1.312-.28.256-.59.576-.93.96-.32.384-.63.779-.93 1.184-.3.405-.54.779-.74 1.12a30.172 30.172 0 0 1-3.58-1.696 35.82 35.82 0 0 1-3.49-2.208 32.776 32.776 0 0 1-3.17-2.592 25.255 25.255 0 0 1-2.62-2.848l2.98-1.344Zm-9.96-8.64v2.048h14.34v-2.048h-14.34Zm0-4.992v2.016h14.34v-2.016h-14.34Zm-4-3.2h22.53v13.44h-22.53v-13.44Zm42.69.032c-.1.576-.28 1.323-.51 2.24-.23.917-.58 1.952-1.02 3.104-.35.789-.74 1.611-1.19 2.464-.42.832-.86 1.579-1.31 2.24.28-.128.63-.235 1.06-.32.42-.107.86-.181 1.31-.224.47-.064.88-.096 1.25-.096 1.34 0 2.45.384 3.32 1.152.9.768 1.35 1.909 1.35 3.424v1.568l.06 1.952c.02.661.04 1.312.07 1.952.02.64.03 1.216.03 1.728h-3.84c.04-.363.06-.789.06-1.28.02-.512.03-1.045.03-1.6.03-.555.04-1.088.04-1.6.02-.533.03-1.013.03-1.44 0-1.024-.28-1.728-.83-2.112a2.909 2.909 0 0 0-1.8-.608c-.89 0-1.8.224-2.72.672-.89.427-1.65.939-2.27 1.536-.47.469-.95.992-1.44 1.568-.47.576-.98 1.227-1.53 1.952l-3.43-2.56a41.473 41.473 0 0 0 3.59-3.712 27.133 27.133 0 0 0 2.59-3.552c.7-1.173 1.28-2.347 1.73-3.52.32-.853.57-1.739.76-2.656.22-.939.35-1.813.39-2.624l4.22.352Zm-12.03 2.944c.81.128 1.75.224 2.82.288 1.06.064 2 .096 2.81.096 1.41 0 2.95-.032 4.61-.096 1.69-.064 3.39-.171 5.12-.32 1.73-.171 3.37-.384 4.93-.64l-.03 3.712c-1.13.149-2.36.288-3.68.416-1.31.107-2.64.203-4 .288-1.35.064-2.64.117-3.88.16-1.23.021-2.33.032-3.29.032h-1.6l-1.92-.064c-.66-.043-1.29-.085-1.89-.128v-3.744Zm25.34 9.088c-.34.107-.74.245-1.21.416-.45.149-.91.309-1.38.48-.45.149-.85.299-1.21.448-1.03.405-2.24.896-3.65 1.472a61.89 61.89 0 0 0-4.35 2.016c-.96.512-1.77 1.013-2.44 1.504-.66.491-1.16.992-1.5 1.504a2.803 2.803 0 0 0-.51 1.632c0 .448.09.821.29 1.12.19.277.48.501.86.672.38.171.86.288 1.44.352s1.26.096 2.05.096c1.36 0 2.87-.075 4.51-.224 1.64-.171 3.17-.395 4.58-.672l-.13 4.128c-.68.085-1.55.171-2.59.256-1.05.107-2.14.181-3.27.224-1.11.043-2.17.064-3.2.064-1.66 0-3.16-.16-4.48-.48-1.32-.32-2.37-.864-3.13-1.632-.75-.789-1.12-1.867-1.12-3.232 0-1.109.24-2.112.73-3.008.51-.896 1.19-1.707 2.02-2.432.83-.725 1.74-1.376 2.72-1.952 1-.597 1.98-1.141 2.94-1.632.98-.512 1.87-.949 2.66-1.312.79-.363 1.52-.683 2.21-.96.7-.299 1.37-.597 2.01-.896.62-.277 1.22-.544 1.79-.8.58-.277 1.17-.565 1.76-.864l1.6 3.712Z"/>
    <path fill="#1F2937" d="M1640 670H280c-11.046 0-20 8.954-20 20v120c0 11.046 8.954 20 20 20h1360c11.05 0 20-8.954 20-20V690c0-11.046-8.95-20-20-20Z"/>
    <path fill="#fff" d="m599.026 733-1.64-6.8h-9.24l-1.68 6.8h-7.04l9.12-28.68h8.32l9.16 28.68h-7Zm-4.92-18.52c-.16-.56-.32-1.147-.48-1.76a99.65 99.65 0 0 1-.48-1.92c-.134-.667-.267-1.347-.4-2.04-.107.693-.24 1.387-.4 2.08a99.65 99.65 0 0 1-.48 1.92c-.134.613-.28 1.187-.44 1.72l-1.84 6.64h6.4l-1.88-6.64ZM620.347 733h-13.08v-3.44l3.32-1.6v-18.48l-3.32-1.6v-3.44h13.08v3.44l-3.28 1.6v18.48l3.28 1.6V733Zm16.867-24.56a148 148 0 0 0 3.44.28c1.174.053 2.36.08 3.56.08 2.454 0 4.894-.107 7.32-.32 2.427-.213 4.667-.547 6.72-1v5c-2.08.293-4.333.533-6.76.72a110.6 110.6 0 0 1-7.28.24c-1.173 0-2.346-.013-3.52-.04-1.146-.053-2.306-.12-3.48-.2v-4.76Zm15.2-6.76a56.23 56.23 0 0 0-.16 1.24l-.08 1.36a68.086 68.086 0 0 0-.12 4.16v2.8c0 1.813.027 3.52.08 5.12.054 1.573.12 3.04.2 4.4.08 1.333.147 2.56.2 3.68.08 1.12.12 2.16.12 3.12 0 1.04-.146 2-.44 2.88a5.9 5.9 0 0 1-1.32 2.32c-.613.667-1.426 1.173-2.44 1.52-.986.373-2.2.56-3.64.56-2.773 0-4.96-.56-6.56-1.68-1.6-1.12-2.4-2.733-2.4-4.84 0-1.36.36-2.547 1.08-3.56.72-1.04 1.747-1.84 3.08-2.4 1.334-.587 2.907-.88 4.72-.88 1.894 0 3.614.2 5.16.6 1.547.4 2.96.933 4.24 1.6 1.28.667 2.414 1.4 3.4 2.2 1.014.773 1.92 1.52 2.72 2.24l-2.76 4.2c-1.52-1.44-3-2.68-4.44-3.72-1.44-1.04-2.88-1.84-4.32-2.4-1.413-.56-2.88-.84-4.4-.84-1.12 0-2.04.213-2.76.64-.693.427-1.04 1.027-1.04 1.8 0 .8.36 1.387 1.08 1.76.72.373 1.6.56 2.64.56.827 0 1.48-.133 1.96-.4a2.3 2.3 0 0 0 1-1.24c.214-.56.32-1.227.32-2 0-.693-.026-1.6-.08-2.72a368.74 368.74 0 0 0-.2-3.76c-.053-1.387-.106-2.827-.16-4.32-.053-1.52-.08-3-.08-4.44 0-1.52-.013-2.893-.04-4.12v-2.8c0-.293-.026-.707-.08-1.24-.053-.533-.12-1-.2-1.4h5.72Zm-19.52.44c-.08.267-.2.64-.36 1.12-.133.48-.253.947-.36 1.4-.08.453-.146.8-.2 1.04-.133.56-.28 1.32-.44 2.28-.16.933-.333 2-.52 3.2-.16 1.173-.32 2.387-.48 3.64-.16 1.227-.28 2.4-.36 3.52-.08 1.093-.12 2.04-.12 2.84v1.32c.027.453.08.88.16 1.28.187-.48.374-.947.56-1.4l.64-1.36c.214-.453.414-.907.6-1.36l2.44 2c-.373 1.093-.76 2.24-1.16 3.44-.373 1.2-.72 2.333-1.04 3.4a57.903 57.903 0 0 0-.68 2.68c-.053.267-.106.587-.16.96-.026.373-.04.68-.04.92v.76c.027.32.054.613.08.88l-4.52.36c-.426-1.413-.8-3.213-1.12-5.4-.32-2.213-.48-4.68-.48-7.4 0-1.493.067-3.053.2-4.68.134-1.653.28-3.24.44-4.76.187-1.52.374-2.907.56-4.16.187-1.28.334-2.307.44-3.08.08-.56.16-1.187.24-1.88.08-.72.134-1.4.16-2.04l5.52.48Zm47.6-.28c.267.48.587 1.187.96 2.12.4.907.8 1.907 1.2 3a120.07 120.07 0 0 1 1.2 3.12c.374.987.654 1.813.84 2.48l-5.04 1.76c-.16-.64-.426-1.44-.8-2.4-.346-.987-.72-2-1.12-3.04-.4-1.067-.8-2.08-1.2-3.04-.4-.96-.746-1.747-1.04-2.36l5-1.64Zm18.28 3.2c-.24.48-.453 1-.64 1.56-.16.56-.293 1.08-.4 1.56-.373 1.44-.88 3.053-1.52 4.84a45.7 45.7 0 0 1-2.24 5.36 28.252 28.252 0 0 1-2.96 4.84 33.442 33.442 0 0 1-4.68 5.04 37.177 37.177 0 0 1-5.36 3.92 34.739 34.739 0 0 1-5.68 2.76l-4.48-4.48c1.84-.533 3.707-1.28 5.6-2.24 1.92-.96 3.76-2.12 5.52-3.48a25.477 25.477 0 0 0 4.68-4.6c1.014-1.28 1.934-2.84 2.76-4.68.854-1.84 1.574-3.8 2.16-5.88a35.31 35.31 0 0 0 1.24-6.24l6 1.72Zm-29.4-.72c.294.613.654 1.413 1.08 2.4a89.2 89.2 0 0 1 1.36 3.12 83.142 83.142 0 0 1 1.24 3.16c.4.987.72 1.827.96 2.52l-5.16 1.88a29.654 29.654 0 0 0-.68-1.96 45.461 45.461 0 0 0-.96-2.52c-.346-.907-.706-1.8-1.08-2.68-.373-.88-.72-1.68-1.04-2.4-.32-.72-.6-1.307-.84-1.76l5.12-1.76Zm35.88 10.16c.48.027 1.094.067 1.84.12.747.027 1.52.053 2.32.08.827.027 1.587.04 2.28.04h21.48c.934 0 1.814-.027 2.64-.08a46.21 46.21 0 0 1 2.04-.16v6.28l-2.04-.12a45.239 45.239 0 0 0-2.64-.08h-21.48c-1.146 0-2.32.027-3.52.08-1.2.027-2.173.067-2.92.12v-6.28Zm56.44 17.64c.08-.4.147-.853.2-1.36.08-.533.12-1.067.12-1.6v-23.32c0-.907-.053-1.693-.16-2.36-.08-.667-.133-1.027-.16-1.08h5.96c-.026.053-.08.427-.16 1.12-.08.667-.12 1.453-.12 2.36v20.92c1.094-.48 2.227-1.133 3.4-1.96a28.149 28.149 0 0 0 3.44-2.88 24.144 24.144 0 0 0 3.04-3.6l3.08 4.4c-1.093 1.44-2.426 2.853-4 4.24a48.999 48.999 0 0 1-4.8 3.8c-1.653 1.147-3.24 2.107-4.76 2.88-.426.24-.773.453-1.04.64-.266.213-.493.4-.68.56l-3.36-2.76Zm-18.52-.6c1.76-1.227 3.2-2.707 4.32-4.44 1.12-1.733 1.947-3.44 2.48-5.12.294-.88.507-1.96.64-3.24.16-1.307.28-2.693.36-4.16.08-1.493.12-2.96.12-4.4.027-1.467.04-2.813.04-4.04 0-.8-.04-1.48-.12-2.04a14.083 14.083 0 0 0-.24-1.64h5.88c-.026.053-.066.28-.12.68-.026.373-.066.827-.12 1.36-.026.507-.04 1.04-.04 1.6 0 1.173-.013 2.547-.04 4.12-.026 1.547-.08 3.133-.16 4.76-.08 1.627-.2 3.173-.36 4.64-.16 1.44-.373 2.667-.64 3.68a23.08 23.08 0 0 1-2.76 6.32 23.69 23.69 0 0 1-4.36 5.16l-4.88-3.24Zm48.6 4.24a45.037 45.037 0 0 0-2.68-3.08 106.392 106.392 0 0 0-3-3.04 51.98 51.98 0 0 0-2.92-2.72l4.16-3.6a43.69 43.69 0 0 1 3.08 2.76 68.61 68.61 0 0 1 3.12 3.16 47.28 47.28 0 0 1 2.52 2.84l-4.28 3.68Zm37.08-21.68h9.24v4.36h-9.24v-4.36Zm7.4 0h4.64v1.76c-.053 2.827-.12 5.147-.2 6.96-.08 1.787-.213 3.187-.4 4.2-.16.987-.386 1.68-.68 2.08-.4.507-.826.867-1.28 1.08-.426.213-.933.373-1.52.48-.533.107-1.213.173-2.04.2-.8 0-1.68-.013-2.64-.04-.026-.693-.16-1.467-.4-2.32-.24-.853-.533-1.573-.88-2.16.72.053 1.387.093 2 .12.64.027 1.12.04 1.44.04.267 0 .494-.027.68-.08.214-.08.387-.213.52-.4.187-.24.32-.733.4-1.48.107-.773.187-1.933.24-3.48.054-1.573.094-3.653.12-6.24v-.72Zm12-12.56 2.92-2.88c.747.373 1.534.813 2.36 1.32a59.876 59.876 0 0 1 2.36 1.52c.774.507 1.4 1 1.88 1.48l-3.08 3.2c-.453-.453-1.04-.96-1.76-1.52a32.108 32.108 0 0 0-2.32-1.64 36.547 36.547 0 0 0-2.36-1.48Zm4.72 10.32 4.88 1.16c-1.68 5.2-3.973 9.8-6.88 13.8-2.906 3.973-6.346 7.187-10.32 9.64-.213-.347-.533-.773-.96-1.28-.426-.48-.866-.973-1.32-1.48-.453-.48-.853-.88-1.2-1.2 3.84-2.08 7.094-4.88 9.76-8.4 2.667-3.547 4.68-7.627 6.04-12.24Zm-23.88-6.84h30.88v4.72h-30.88V705Zm-3.2 0h5.04v11.8c0 1.493-.053 3.133-.16 4.92a57.026 57.026 0 0 1-.6 5.44 31.613 31.613 0 0 1-1.32 5.32c-.56 1.707-1.293 3.24-2.2 4.6-.266-.347-.666-.733-1.2-1.16a76.421 76.421 0 0 0-1.56-1.28c-.506-.4-.946-.68-1.32-.84 1.014-1.6 1.747-3.387 2.2-5.36.48-2 .787-4.013.92-6.04.134-2.027.2-3.907.2-5.64V705Zm16.24-5.96h5.04c-.053 3.28.04 6.493.28 9.64.24 3.147.587 6.093 1.04 8.84.48 2.72 1.04 5.133 1.68 7.24.64 2.08 1.347 3.707 2.12 4.88.774 1.173 1.56 1.76 2.36 1.76.454 0 .8-.547 1.04-1.64.267-1.093.454-2.893.56-5.4.56.533 1.214 1.053 1.96 1.56.774.507 1.48.88 2.12 1.12-.24 2.48-.6 4.4-1.08 5.76-.48 1.333-1.12 2.253-1.92 2.76-.8.507-1.826.76-3.08.76-1.44 0-2.746-.493-3.92-1.48-1.146-.987-2.173-2.36-3.08-4.12-.88-1.76-1.64-3.827-2.28-6.2-.64-2.373-1.173-4.947-1.6-7.72-.4-2.773-.706-5.653-.92-8.64a172.662 172.662 0 0 1-.32-9.12Zm21.04 4.28h15.12v4.56h-15.12v-4.56Zm15.68 4.2h17.96v4.6h-17.96v-4.6Zm-10.48-2.32h4.76v20.12h-4.76V705.2Zm26.2 2.32h4.72v1.36c0 .347-.013.627-.04.84a510.38 510.38 0 0 1-.36 10.36c-.133 2.853-.28 5.213-.44 7.08-.16 1.84-.373 3.293-.64 4.36-.24 1.067-.546 1.827-.92 2.28-.506.747-1.04 1.253-1.6 1.52-.533.293-1.173.507-1.92.64-.693.08-1.56.133-2.6.16a42.156 42.156 0 0 1-3.16-.04c-.026-.693-.186-1.493-.48-2.4-.266-.88-.613-1.653-1.04-2.32 1.067.08 2.054.133 2.96.16h2.04c.374 0 .68-.04.92-.12.24-.107.467-.293.68-.56.24-.293.454-.907.64-1.84.214-.96.387-2.32.52-4.08.16-1.76.294-3.987.4-6.68.107-2.693.214-5.933.32-9.72v-1Zm-31.96 17.24c1.36-.267 2.92-.613 4.68-1.04 1.76-.427 3.614-.893 5.56-1.4l5.84-1.52.6 4.56c-2.666.8-5.373 1.587-8.12 2.36-2.72.773-5.186 1.453-7.4 2.04l-1.16-5Zm21.88-25.12h4.88c-.026 3.333-.08 6.533-.16 9.6-.08 3.04-.32 5.907-.72 8.6-.373 2.693-.986 5.2-1.84 7.52a21.58 21.58 0 0 1-3.52 6.32c-1.493 1.867-3.453 3.52-5.88 4.96-.213-.4-.52-.853-.92-1.36-.373-.48-.773-.96-1.2-1.44a7.31 7.31 0 0 0-1.24-1.08c2.214-1.227 3.987-2.667 5.32-4.32a18.22 18.22 0 0 0 3.12-5.52c.747-2.053 1.267-4.28 1.56-6.68.294-2.427.454-5.013.48-7.76.054-2.773.094-5.72.12-8.84Zm40.72 5.96a122.797 122.797 0 0 1-1.04 6.48c-.426 2.293-1 4.613-1.72 6.96-.773 2.693-1.68 5.013-2.72 6.96-1.04 1.947-2.186 3.453-3.44 4.52-1.226 1.04-2.573 1.56-4.04 1.56-1.466 0-2.826-.493-4.08-1.48-1.226-1.013-2.213-2.4-2.96-4.16-.72-1.76-1.08-3.76-1.08-6 0-2.32.467-4.507 1.4-6.56a17.385 17.385 0 0 1 3.88-5.44c1.68-1.6 3.627-2.853 5.84-3.76 2.24-.907 4.654-1.36 7.24-1.36 2.48 0 4.707.4 6.68 1.2 2 .8 3.707 1.907 5.12 3.32a14.391 14.391 0 0 1 3.24 4.96c.747 1.893 1.12 3.933 1.12 6.12 0 2.8-.573 5.307-1.72 7.52-1.146 2.213-2.853 4.04-5.12 5.48-2.24 1.44-5.04 2.427-8.4 2.96l-3-4.76c.774-.08 1.454-.173 2.04-.28a26.78 26.78 0 0 0 1.68-.36c1.28-.32 2.467-.773 3.56-1.36a11.624 11.624 0 0 0 2.92-2.24 9.747 9.747 0 0 0 1.92-3.16c.48-1.2.72-2.52.72-3.96 0-1.573-.24-3.013-.72-4.32a9.513 9.513 0 0 0-2.12-3.4c-.933-.987-2.066-1.733-3.4-2.24-1.333-.533-2.866-.8-4.6-.8-2.133 0-4.013.387-5.64 1.16-1.626.747-3 1.72-4.12 2.92s-1.973 2.493-2.56 3.88c-.56 1.387-.84 2.707-.84 3.96 0 1.333.16 2.453.48 3.36.32.88.707 1.547 1.16 2 .48.427.987.64 1.52.64.56 0 1.107-.28 1.64-.84.56-.587 1.107-1.467 1.64-2.64.534-1.173 1.067-2.653 1.6-4.44a54.33 54.33 0 0 0 1.56-6.16c.427-2.187.734-4.32.92-6.4l5.44.16Zm31.72-3.76h5.24V706h-5.24v-4.16Zm7.64 5.52h12.6V711h-12.6v-3.64Zm12.52-.28h3.6v4.24h-3.6v-4.24Zm-11.24 11.08h13.36v3.76h-13.36v-3.76Zm-.84 5.68h14.92v3.96h-14.92v-3.96Zm4.72-24.6h3.88v31.8h-3.88v-31.8Zm-8.56 2.6h.48l.6-.2 2.76.6a294.59 294.59 0 0 1-1.48 5.08 165.822 165.822 0 0 1-1.72 5.64c-.586 1.893-1.16 3.68-1.72 5.36l-3.72-.72a95.153 95.153 0 0 0 1.36-3.96c.454-1.413.894-2.813 1.32-4.2.454-1.413.854-2.747 1.2-4 .374-1.253.68-2.32.92-3.2v-.4Zm5.04.36h12.8v14.08h-12.72v-3.56h9.36v-7.04h-9.44v-3.48Zm-6.32 17.2c.4 2.693.96 4.867 1.68 6.52.72 1.653 1.574 2.92 2.56 3.8a8.244 8.244 0 0 0 3.4 1.8c1.254.293 2.627.44 4.12.44h7.24c.88-.027 1.547-.053 2-.08-.293.507-.573 1.16-.84 1.96-.24.827-.4 1.52-.48 2.08h-8.12c-1.973 0-3.746-.2-5.32-.6a9.915 9.915 0 0 1-4.16-2.24c-1.2-1.093-2.24-2.68-3.12-4.76-.853-2.08-1.56-4.787-2.12-8.12l3.16-.8Zm-.36-5.96h3.88v3.84h-5.04l1.16-3.84Zm2.56 0h.76l.68-.08 2.28.44c-.293 4.107-.813 7.653-1.56 10.64-.746 2.96-1.733 5.44-2.96 7.44-1.226 2-2.693 3.587-4.4 4.76-.213-.24-.506-.533-.88-.88-.373-.32-.76-.653-1.16-1a6.008 6.008 0 0 0-1-.72c2.534-1.573 4.454-3.933 5.76-7.08 1.334-3.173 2.16-7.44 2.48-12.8v-.72Zm-19.2 18.12c1.76-.267 3.867-.613 6.32-1.04 2.454-.427 4.947-.867 7.48-1.32l.32 3.92c-2.266.453-4.56.907-6.88 1.36-2.293.453-4.373.867-6.24 1.24l-1-4.16Zm2.04-22.48h10.96v3.88h-10.96v-3.88Zm-1.4 6.76h12.8v3.96h-12.8v-3.96Zm.28 6.36 2.76-.68c.32 1.12.6 2.333.84 3.64.24 1.28.4 2.387.48 3.32l-2.96.76c-.026-.96-.16-2.093-.4-3.4a51.37 51.37 0 0 0-.72-3.64Zm9.76-1.04 2.96.68c-.266 1.12-.546 2.267-.84 3.44-.293 1.173-.56 2.187-.8 3.04l-2.64-.64c.187-.613.36-1.293.52-2.04.187-.773.347-1.56.48-2.36.16-.8.267-1.507.32-2.12Zm-5.32-10.52h3.88v20.88l-3.88.6v-21.48Zm.4-11.64h2.48v.88h1.32v1.24a74.688 74.688 0 0 1-1.8 3.36c-.693 1.2-1.52 2.44-2.48 3.72a29.274 29.274 0 0 1-3.4 3.76 5.286 5.286 0 0 0-.8-1.08c-.32-.4-.666-.773-1.04-1.12-.346-.373-.68-.653-1-.84a23.135 23.135 0 0 0 2.92-3.16 31.342 31.342 0 0 0 2.24-3.44 24.487 24.487 0 0 0 1.56-3.32Zm.32 0h3.16c.72.693 1.454 1.453 2.2 2.28.774.827 1.48 1.653 2.12 2.48.667.827 1.187 1.587 1.56 2.28l-2.96 3.48c-.346-.693-.826-1.493-1.44-2.4a41.886 41.886 0 0 0-1.92-2.72c-.693-.907-1.373-1.667-2.04-2.28h-.68V699Zm48.24 9.44c1.147.107 2.294.2 3.436.28 1.18.053 2.36.08 3.56.08 2.46 0 4.9-.107 7.32-.32 2.43-.213 4.67-.547 6.72-1v5c-2.08.293-4.33.533-6.76.72-2.42.16-4.85.24-7.28.24-1.17 0-2.34-.013-3.52-.04-1.142-.053-2.302-.12-3.476-.2v-4.76Zm15.196-6.76c-.05.373-.1.787-.16 1.24-.02.453-.05.907-.08 1.36-.02.427-.05 1-.08 1.72-.02.72-.04 1.533-.04 2.44v2.8c0 1.813.03 3.52.08 5.12.06 1.573.12 3.04.2 4.4.08 1.333.15 2.56.2 3.68.08 1.12.12 2.16.12 3.12 0 1.04-.14 2-.44 2.88-.26.88-.7 1.653-1.32 2.32-.61.667-1.42 1.173-2.44 1.52-.98.373-2.2.56-3.64.56-2.77 0-4.956-.56-6.556-1.68-1.6-1.12-2.4-2.733-2.4-4.84 0-1.36.36-2.547 1.08-3.56.72-1.04 1.747-1.84 3.076-2.4 1.34-.587 2.91-.88 4.72-.88 1.9 0 3.62.2 5.16.6 1.55.4 2.96.933 4.24 1.6 1.28.667 2.42 1.4 3.4 2.2 1.02.773 1.92 1.52 2.72 2.24l-2.76 4.2c-1.52-1.44-3-2.68-4.44-3.72-1.44-1.04-2.88-1.84-4.32-2.4-1.41-.56-2.88-.84-4.4-.84-1.12 0-2.04.213-2.76.64-.69.427-1.04 1.027-1.04 1.8 0 .8.36 1.387 1.08 1.76.72.373 1.6.56 2.64.56.83 0 1.48-.133 1.96-.4.48-.293.82-.707 1-1.24.22-.56.32-1.227.32-2 0-.693-.02-1.6-.08-2.72-.05-1.12-.12-2.373-.2-3.76-.05-1.387-.1-2.827-.16-4.32-.05-1.52-.08-3-.08-4.44 0-1.52-.01-2.893-.04-4.12v-2.8c0-.293-.02-.707-.08-1.24-.05-.533-.12-1-.2-1.4h5.72Zm-19.516.44c-.08.267-.2.64-.36 1.12-.133.48-.253.947-.36 1.4-.08.453-.146.8-.2 1.04-.133.56-.28 1.32-.44 2.28-.16.933-.333 2-.52 3.2-.16 1.173-.32 2.387-.48 3.64-.16 1.227-.28 2.4-.36 3.52-.08 1.093-.12 2.04-.12 2.84v1.32c.027.453.08.88.16 1.28.187-.48.374-.947.56-1.4l.64-1.36c.214-.453.414-.907.6-1.36l2.44 2c-.373 1.093-.76 2.24-1.16 3.44-.373 1.2-.72 2.333-1.04 3.4a57.903 57.903 0 0 0-.68 2.68c-.053.267-.106.587-.16.96-.026.373-.04.68-.04.92v.76c.027.32.054.613.08.88l-4.52.36c-.426-1.413-.8-3.213-1.12-5.4-.32-2.213-.48-4.68-.48-7.4 0-1.493.067-3.053.2-4.68.134-1.653.28-3.24.44-4.76.187-1.52.374-2.907.56-4.16.187-1.28.334-2.307.44-3.08.08-.56.16-1.187.24-1.88.08-.72.134-1.4.16-2.04l5.52.48Zm54.276-3.2h13.28v4.32h-8.52v21.24h-4.76v-25.56Zm27.68 4.04h25.48v4.32h-25.48v-4.32Zm5.2 11.04v3.96h14.6V714h-14.6Zm-4.36-3.88h23.6v11.76h-23.6v-11.76Zm3.76 12.2c1.23 1.893 2.86 3.533 4.88 4.92 2.03 1.36 4.44 2.453 7.24 3.28s5.94 1.4 9.4 1.72c-.34.347-.7.773-1.08 1.28-.34.507-.68 1.027-1 1.56-.29.533-.54 1.013-.76 1.44-3.6-.48-6.84-1.267-9.72-2.36-2.85-1.067-5.34-2.48-7.48-4.24-2.1-1.787-3.9-3.933-5.4-6.44l3.92-1.16Zm5.48-23.04h4.76v18.24c0 1.627-.1 3.227-.32 4.8-.21 1.547-.6 3.04-1.16 4.48a13.68 13.68 0 0 1-2.32 3.96c-1.01 1.227-2.32 2.333-3.92 3.32-1.6.987-3.54 1.813-5.84 2.48-.16-.347-.42-.773-.8-1.28-.34-.48-.7-.973-1.08-1.48-.37-.48-.73-.88-1.08-1.2 2.16-.48 3.95-1.093 5.36-1.84 1.44-.773 2.59-1.653 3.44-2.64.86-.987 1.5-2.04 1.92-3.16.43-1.147.71-2.347.84-3.6.14-1.253.2-2.547.2-3.88v-18.2Zm-13.12-.36 4.44 1.44a58.24 58.24 0 0 1-3.24 6.8 63.459 63.459 0 0 1-4 6.4c-1.41 2-2.88 3.76-4.4 5.28-.13-.4-.34-.907-.64-1.52-.29-.613-.61-1.24-.96-1.88-.34-.64-.65-1.147-.92-1.52 1.28-1.227 2.52-2.64 3.72-4.24 1.23-1.6 2.35-3.32 3.36-5.16 1.02-1.84 1.9-3.707 2.64-5.6Zm-3.92 11.12 4.56-4.56v31.2h-4.56v-26.64Zm44.08-5.64c-.1.48-.2 1.027-.28 1.64-.05.613-.1 1.213-.16 1.8-.02.587-.04 1.067-.04 1.44-.02.88-.04 1.787-.04 2.72.03.933.06 1.893.08 2.88.06.96.12 1.92.2 2.88.19 1.92.46 3.613.8 5.08.35 1.467.8 2.613 1.36 3.44.56.8 1.27 1.2 2.12 1.2.46 0 .9-.253 1.32-.76.46-.507.86-1.16 1.2-1.96.38-.827.7-1.693.96-2.6.3-.907.55-1.76.76-2.56l4 4.88c-.88 2.32-1.76 4.173-2.64 5.56-.85 1.36-1.74 2.347-2.68 2.96-.93.587-1.94.88-3.04.88-1.44 0-2.81-.48-4.12-1.44-1.28-.96-2.37-2.507-3.28-4.64-.9-2.16-1.54-5.027-1.92-8.6-.13-1.227-.24-2.52-.32-3.88-.05-1.36-.09-2.653-.12-3.88v-3.04c0-.56-.02-1.227-.08-2-.05-.773-.13-1.467-.24-2.08l6.16.08Zm20 .92c.75.907 1.47 2.013 2.16 3.32.7 1.307 1.34 2.707 1.92 4.2a49.717 49.717 0 0 1 1.56 4.6c.46 1.547.82 3.067 1.08 4.56.3 1.467.48 2.813.56 4.04l-5.28 2.04c-.13-1.627-.37-3.4-.72-5.32-.34-1.92-.81-3.853-1.4-5.8a37.635 37.635 0 0 0-2.12-5.52c-.8-1.733-1.74-3.227-2.84-4.48l5.08-1.64Zm11.48.12h36.28V710h-36.28v-4.56Zm13.36 9.8h15.32v4.52h-15.32v-4.52Zm13.52 0h4.96s-.01.133-.04.4v.84c0 .32-.02.6-.08.84-.24 3.653-.5 6.64-.8 8.96-.29 2.32-.62 4.133-1 5.44-.37 1.28-.82 2.213-1.36 2.8-.61.667-1.25 1.12-1.92 1.36-.66.24-1.46.413-2.4.52-.77.08-1.78.107-3.04.08-1.25 0-2.54-.027-3.88-.08-.02-.693-.2-1.493-.52-2.4a9.511 9.511 0 0 0-1.2-2.32c1.39.133 2.72.213 4 .24 1.28.027 2.2.04 2.76.04.46 0 .83-.027 1.12-.08.32-.08.6-.227.84-.44.43-.347.79-1.107 1.08-2.28.32-1.173.6-2.84.84-5s.46-4.893.64-8.2v-.72Zm-15.32-7.08h5.36c-.1 2.133-.28 4.293-.52 6.48-.21 2.16-.58 4.307-1.12 6.44-.53 2.107-1.3 4.12-2.32 6.04-1.01 1.92-2.34 3.707-4 5.36-1.65 1.653-3.74 3.12-6.28 4.4-.34-.667-.85-1.387-1.52-2.16-.64-.773-1.26-1.413-1.88-1.92 2.32-1.067 4.22-2.307 5.68-3.72 1.5-1.44 2.67-2.987 3.52-4.64.86-1.68 1.48-3.427 1.88-5.24.43-1.813.71-3.653.84-5.52.16-1.867.28-3.707.36-5.52Zm3.84-9.32h5v8.4h-5v-8.4Zm37.12 37.84h-13.28v-4.32h8.52v-21.24h4.76v25.56Zm43.52-31.64c1.23.16 2.6.28 4.12.36 1.55.053 3.11.08 4.68.08 1.6-.027 3.14-.08 4.6-.16 1.47-.107 2.74-.213 3.8-.32v5.16c-1.22.107-2.57.2-4.04.28a129.133 129.133 0 0 1-9.08 0c-1.46-.08-2.82-.173-4.08-.28v-5.12Zm3.2 17.08c-.16.667-.28 1.267-.36 1.8a9.995 9.995 0 0 0-.12 1.56c0 .427.11.827.32 1.2.22.347.54.653.96.92.46.24 1.03.427 1.72.56.72.107 1.59.16 2.6.16 1.79 0 3.47-.08 5.04-.24 1.58-.187 3.24-.453 5-.8l.08 5.4c-1.28.24-2.76.427-4.44.56-1.65.133-3.61.2-5.88.2-3.44 0-6-.573-7.68-1.72-1.68-1.173-2.52-2.787-2.52-4.84 0-.773.06-1.573.16-2.4.14-.853.31-1.787.52-2.8l4.6.44Zm-9.36-19.76c-.1.267-.22.64-.36 1.12-.13.48-.26.947-.4 1.4-.1.453-.18.8-.24 1.04-.08.56-.21 1.293-.4 2.2-.16.88-.33 1.88-.52 3-.16 1.093-.32 2.213-.48 3.36a92.993 92.993 0 0 0-.4 3.32c-.08 1.067-.12 2-.12 2.8v1.28c.03.48.08.92.16 1.32.19-.453.39-.907.6-1.36.22-.453.43-.907.64-1.36.22-.48.4-.933.56-1.36l2.48 1.96c-.37 1.093-.76 2.267-1.16 3.52-.37 1.253-.72 2.44-1.04 3.56-.29 1.093-.52 2-.68 2.72-.05.293-.1.627-.16 1-.02.373-.04.667-.04.88v.76c.03.32.06.613.08.88l-4.64.32c-.4-1.387-.76-3.227-1.08-5.52-.32-2.32-.48-4.84-.48-7.56 0-1.493.07-3.013.2-4.56.14-1.547.3-3.027.48-4.44.19-1.44.36-2.747.52-3.92.19-1.173.35-2.147.48-2.92.06-.56.12-1.187.2-1.88.11-.72.18-1.4.2-2.04l5.6.48Zm48.08-1.56c-.1.373-.21.747-.32 1.12-.08.347-.16.68-.24 1a81.515 81.515 0 0 0-.68 4.32c-.21 1.6-.38 3.28-.52 5.04a68.48 68.48 0 0 0-.2 5.12c0 2.08.11 4 .32 5.76.22 1.733.51 3.347.88 4.84.4 1.467.83 2.867 1.28 4.2l-4.6 1.4c-.4-1.2-.78-2.627-1.16-4.28a70.282 70.282 0 0 1-.88-5.32c-.24-1.92-.36-3.853-.36-5.8 0-1.333.04-2.667.12-4 .11-1.36.22-2.693.32-4 .11-1.333.23-2.6.36-3.8.16-1.227.3-2.333.4-3.32.03-.373.06-.773.08-1.2.03-.453.03-.853 0-1.2l5.2.12Zm-7.12 4.44c2.54 0 4.91-.053 7.12-.16 2.24-.107 4.39-.293 6.44-.56 2.08-.267 4.15-.653 6.2-1.16l.04 4.64c-1.38.24-2.92.467-4.6.68-1.65.187-3.38.347-5.2.48-1.78.133-3.54.24-5.28.32-1.73.053-3.36.08-4.88.08-.69 0-1.48-.013-2.36-.04l-2.56-.08c-.82-.053-1.54-.093-2.16-.12l-.12-4.64c.46.053 1.11.133 1.96.24.86.08 1.76.16 2.72.24.99.053 1.88.08 2.68.08Zm17.24 5.84c-.08.24-.2.573-.36 1-.16.427-.32.867-.48 1.32-.13.453-.24.813-.32 1.08-.77 2.4-1.72 4.6-2.84 6.6-1.09 1.973-2.28 3.707-3.56 5.2-1.28 1.467-2.54 2.667-3.8 3.6-1.3.987-2.8 1.853-4.48 2.6-1.68.72-3.37 1.08-5.08 1.08-.96 0-1.85-.2-2.68-.6-.82-.4-1.49-1.027-2-1.88-.48-.88-.72-1.987-.72-3.32 0-1.44.3-2.853.88-4.24.59-1.387 1.4-2.707 2.44-3.96a18.24 18.24 0 0 1 3.64-3.32c1.39-.987 2.88-1.76 4.48-2.32 1.31-.48 2.74-.867 4.28-1.16 1.58-.293 3.12-.44 4.64-.44 2.48 0 4.7.453 6.64 1.36 1.98.907 3.52 2.147 4.64 3.72 1.12 1.573 1.68 3.413 1.68 5.52 0 1.413-.22 2.8-.68 4.16-.45 1.333-1.2 2.573-2.24 3.72-1.01 1.147-2.36 2.133-4.04 2.96-1.68.827-3.74 1.427-6.2 1.8l-2.64-4.2c2.56-.293 4.64-.867 6.24-1.72 1.6-.88 2.76-1.933 3.48-3.16.75-1.227 1.12-2.493 1.12-3.8 0-1.173-.32-2.227-.96-3.16-.61-.933-1.54-1.68-2.8-2.24-1.22-.587-2.74-.88-4.56-.88-1.81 0-3.44.2-4.88.6-1.41.4-2.6.827-3.56 1.28-1.33.64-2.52 1.453-3.56 2.44-1.04.96-1.85 1.973-2.44 3.04-.58 1.067-.88 2.053-.88 2.96 0 .64.15 1.133.44 1.48.3.32.76.48 1.4.48.96 0 2.07-.307 3.32-.92 1.26-.64 2.5-1.533 3.72-2.68 1.44-1.333 2.8-2.933 4.08-4.8 1.28-1.867 2.34-4.187 3.16-6.96.08-.267.16-.613.24-1.04.08-.427.15-.853.2-1.28.08-.453.14-.813.16-1.08l4.88 1.16Zm24.48-10.2c-.13.48-.28 1.08-.44 1.8-.16.72-.32 1.48-.48 2.28-.16.773-.3 1.533-.44 2.28-.1.747-.18 1.4-.24 1.96.48-.8 1.06-1.573 1.72-2.32.67-.773 1.42-1.467 2.24-2.08.86-.64 1.78-1.147 2.76-1.52a9.217 9.217 0 0 1 3.2-.56c1.87 0 3.55.573 5.04 1.72 1.5 1.147 2.67 2.787 3.52 4.92.88 2.133 1.32 4.667 1.32 7.6 0 2.827-.41 5.307-1.24 7.44-.82 2.107-2.01 3.907-3.56 5.4-1.54 1.493-3.4 2.707-5.56 3.64-2.13.96-4.52 1.68-7.16 2.16l-3.04-4.64c2.22-.347 4.24-.813 6.08-1.4 1.87-.613 3.47-1.44 4.8-2.48 1.36-1.04 2.4-2.373 3.12-4 .75-1.653 1.12-3.68 1.12-6.08 0-2.053-.21-3.787-.64-5.2-.42-1.44-1.05-2.533-1.88-3.28-.8-.747-1.76-1.12-2.88-1.12-1.17 0-2.29.387-3.36 1.16-1.06.773-2.02 1.787-2.88 3.04a17.964 17.964 0 0 0-2 4c-.48 1.44-.74 2.827-.8 4.16-.02.56-.04 1.173-.04 1.84.03.667.11 1.467.24 2.4l-4.92.32c-.1-.773-.22-1.733-.36-2.88-.1-1.173-.16-2.44-.16-3.8 0-.933.03-1.933.08-3l.24-3.24c.11-1.12.23-2.24.36-3.36.16-1.12.31-2.187.44-3.2.11-.773.19-1.533.24-2.28.06-.747.08-1.387.08-1.92l5.48.24Z"/>
    <path fill="#E6FF00" d="M565.216 764.352c-.72 1.104-1.62 2.268-2.7 3.492a49.946 49.946 0 0 1-3.528 3.672 54.207 54.207 0 0 1-4.14 3.528 45.09 45.09 0 0 1-4.5 3.06 4.985 4.985 0 0 0-.468-.684 17.585 17.585 0 0 0-.612-.792 5.444 5.444 0 0 0-.612-.648 38.93 38.93 0 0 0 4.572-3.06 51.48 51.48 0 0 0 4.212-3.636 48.992 48.992 0 0 0 3.636-3.888c1.08-1.296 1.968-2.544 2.664-3.744h2.7a39.74 39.74 0 0 0 3.24 4.032 53.738 53.738 0 0 0 3.924 3.816 62.68 62.68 0 0 0 4.32 3.42 44.074 44.074 0 0 0 4.32 2.664 7.54 7.54 0 0 0-.972 1.116c-.312.408-.588.816-.828 1.224-1.392-.84-2.82-1.8-4.284-2.88a70.852 70.852 0 0 1-4.212-3.42 61.506 61.506 0 0 1-3.78-3.672c-1.152-1.248-2.136-2.448-2.952-3.6Zm-7.704 8.784h15.768v2.52h-15.768v-2.52Zm-4.644 7.056h21.852v2.592h-21.852v-2.592Zm21.312 0h.396l.504-.144 2.124.648a287.99 287.99 0 0 1-2.016 4.5 155.93 155.93 0 0 1-2.376 5.04 300.426 300.426 0 0 1-2.376 4.788l-2.808-.792c.576-1.104 1.176-2.28 1.8-3.528a530.174 530.174 0 0 0 1.836-3.78c.6-1.248 1.152-2.424 1.656-3.528s.924-2.052 1.26-2.844v-.36Zm15.552-15.984h23.616v30.096h-2.88v-27.396h-17.964v27.576h-2.772v-30.276Zm1.872 12.456h20.088v2.664h-20.088v-2.664Zm-.072 12.78h20.196v2.7h-20.196v-2.7Zm43.632-25.524c-.072.312-.144.66-.216 1.044l-.216 1.08c-.072.432-.18 1.02-.324 1.764-.12.744-.252 1.536-.396 2.376a30.763 30.763 0 0 1-.504 2.34 85.857 85.857 0 0 1-.9 3.492c-.36 1.272-.768 2.628-1.224 4.068a81.927 81.927 0 0 1-1.548 4.428 71.212 71.212 0 0 1-1.908 4.464 39.97 39.97 0 0 1-2.268 4.14l-2.952-1.152a24.313 24.313 0 0 0 2.304-3.708 49.061 49.061 0 0 0 1.98-4.248c.6-1.488 1.14-2.952 1.62-4.392a61.314 61.314 0 0 0 2.052-7.164c.336-1.44.612-2.928.828-4.464a32.35 32.35 0 0 0 .324-4.428l3.348.36Zm12.384 3.816c.576.744 1.176 1.668 1.8 2.772a48.385 48.385 0 0 1 1.872 3.528 77.788 77.788 0 0 1 1.692 3.6 58.106 58.106 0 0 1 1.224 2.988l-2.808 1.332a38.157 38.157 0 0 0-1.08-3.132 42.839 42.839 0 0 0-1.584-3.636 36.57 36.57 0 0 0-1.836-3.492c-.624-1.104-1.26-2.028-1.908-2.772l2.628-1.188Zm-25.344 4.068c.552.048 1.08.072 1.584.072.504-.024 1.044-.048 1.62-.072.552-.024 1.248-.06 2.088-.108.84-.072 1.752-.144 2.736-.216a833.58 833.58 0 0 0 2.952-.216 70.835 70.835 0 0 1 2.7-.216c.84-.072 1.5-.108 1.98-.108 1.08 0 2.052.168 2.916.504.888.336 1.596.948 2.124 1.836.528.888.792 2.136.792 3.744 0 1.416-.072 2.952-.216 4.608a35.47 35.47 0 0 1-.648 4.68c-.312 1.488-.72 2.724-1.224 3.708-.552 1.224-1.272 2.028-2.16 2.412-.888.408-1.92.612-3.096.612-.672 0-1.404-.06-2.196-.18a17.024 17.024 0 0 1-2.052-.36l-.468-2.988a38.17 38.17 0 0 0 1.584.396c.552.12 1.08.204 1.584.252.504.048.924.072 1.26.072.648 0 1.236-.108 1.764-.324.552-.24 1.008-.744 1.368-1.512.384-.816.696-1.836.936-3.06.264-1.248.456-2.568.576-3.96a38.88 38.88 0 0 0 .216-3.996c0-1.128-.156-1.956-.468-2.484-.312-.552-.756-.924-1.332-1.116-.576-.216-1.248-.324-2.016-.324-.624 0-1.452.048-2.484.144-1.032.072-2.136.168-3.312.288-1.152.12-2.232.24-3.24.36a72.407 72.407 0 0 0-3.924.468c-.624.072-1.176.144-1.656.216l-.288-3.132Zm45.252-8.028c.768.24 1.764.504 2.988.792 1.248.288 2.556.576 3.924.864 1.392.264 2.712.504 3.96.72 1.248.192 2.268.324 3.06.396l-.684 2.772c-.672-.096-1.5-.228-2.484-.396-.96-.168-1.992-.36-3.096-.576a798.205 798.205 0 0 1-3.276-.648c-1.08-.24-2.064-.456-2.952-.648a140.04 140.04 0 0 1-2.16-.54l.72-2.736Zm-.792 6.552c-.12.624-.252 1.392-.396 2.304-.12.888-.252 1.824-.396 2.808-.144.984-.276 1.92-.396 2.808a74.52 74.52 0 0 1-.324 2.196c1.752-1.512 3.6-2.616 5.544-3.312a17.88 17.88 0 0 1 6.192-1.08c1.848 0 3.456.336 4.824 1.008 1.368.648 2.436 1.548 3.204 2.7.768 1.128 1.152 2.4 1.152 3.816 0 1.608-.372 3.072-1.116 4.392-.72 1.296-1.86 2.388-3.42 3.276-1.536.888-3.504 1.512-5.904 1.872-2.4.384-5.28.432-8.64.144l-.864-2.952c3.816.456 6.972.444 9.468-.036 2.496-.504 4.356-1.344 5.58-2.52 1.248-1.2 1.872-2.616 1.872-4.248 0-.96-.276-1.812-.828-2.556-.552-.744-1.308-1.32-2.268-1.728-.936-.432-2.016-.648-3.24-.648-2.352 0-4.488.432-6.408 1.296-1.896.84-3.48 2.016-4.752 3.528a5.48 5.48 0 0 0-.648.936 7.25 7.25 0 0 0-.432.864l-2.664-.648a42.74 42.74 0 0 0 .432-2.412 155.635 155.635 0 0 0 .828-6.372 91.903 91.903 0 0 0 .576-5.832l3.024.396Zm43.74 20.484h12.6v2.484h-12.6v-2.484Zm-1.368-10.548h15.372v14.508h-2.7v-12.024h-10.08v12.168h-2.592v-14.652Zm-2.484-6.012c1.44-.096 3.096-.192 4.968-.288 1.896-.096 3.9-.204 6.012-.324l6.408-.432-.036 2.448c-2.04.144-4.08.3-6.12.468-2.04.168-3.996.312-5.868.432-1.848.12-3.528.24-5.04.36l-.324-2.664Zm11.952-5.832 2.16-1.08a35.352 35.352 0 0 1 2.376 3.24 48.485 48.485 0 0 1 2.088 3.42c.624 1.104 1.08 2.1 1.368 2.988l-2.34 1.296c-.288-.888-.732-1.908-1.332-3.06a48.09 48.09 0 0 0-2.016-3.492 44.618 44.618 0 0 0-2.304-3.312Zm-4.932-6.696 2.988.648a314.204 314.204 0 0 1-1.656 4.608 96.917 96.917 0 0 1-1.8 4.716 61.313 61.313 0 0 1-1.8 3.996l-2.268-.648c.408-.888.828-1.884 1.26-2.988a57.97 57.97 0 0 0 1.224-3.456c.408-1.224.792-2.412 1.152-3.564.36-1.176.66-2.28.9-3.312Zm-20.592 7.488h11.88v2.52h-11.88v-2.52Zm5.472-7.488 2.556.324c-.36 1.776-.768 3.696-1.224 5.76a322.82 322.82 0 0 1-1.44 6.156c-.48 2.064-.96 4.044-1.44 5.94-.48 1.872-.924 3.552-1.332 5.04l-2.268-1.188c.408-1.368.84-2.952 1.296-4.752.48-1.824.948-3.744 1.404-5.76.456-2.016.9-4.008 1.332-5.976.432-1.992.804-3.84 1.116-5.544Zm-3.672 20.916 1.476-1.872a54.047 54.047 0 0 1 4.14 2.556c1.44.96 2.76 1.944 3.96 2.952 1.2 1.008 2.16 1.968 2.88 2.88l-1.62 2.16c-.72-.888-1.68-1.848-2.88-2.88a47.143 47.143 0 0 0-3.852-3.096 41.433 41.433 0 0 0-4.104-2.7Zm9.036-13.428h.468l.468-.108 1.62.36c-.312 4.632-.96 8.616-1.944 11.952-.984 3.312-2.268 6.072-3.852 8.28-1.584 2.208-3.492 3.972-5.724 5.292-.192-.336-.456-.72-.792-1.152a6.896 6.896 0 0 0-.9-1.044c2.016-1.056 3.756-2.604 5.22-4.644 1.488-2.064 2.688-4.62 3.6-7.668.936-3.072 1.548-6.648 1.836-10.728v-.54Zm47.664-5.076c-.072.288-.144.612-.216.972l-.216 1.008a4.851 4.851 0 0 1-.18.828 67.808 67.808 0 0 1-1.224 4.68 69.454 69.454 0 0 1-1.548 4.788 44.656 44.656 0 0 1-1.872 4.428c-.648 1.368-1.332 2.556-2.052 3.564a37.378 37.378 0 0 1-2.772 3.384c-.912.984-1.848 1.752-2.808 2.304a6.108 6.108 0 0 1-3.096.828 4.442 4.442 0 0 1-2.484-.756c-.768-.504-1.38-1.236-1.836-2.196-.456-.96-.684-2.136-.684-3.528 0-1.512.276-3.024.828-4.536a16.229 16.229 0 0 1 2.34-4.176c1.008-1.272 2.136-2.328 3.384-3.168 1.776-1.224 3.564-2.088 5.364-2.592 1.8-.504 3.612-.756 5.436-.756 2.352 0 4.44.492 6.264 1.476 1.848.984 3.288 2.364 4.32 4.14 1.056 1.752 1.584 3.804 1.584 6.156 0 2.376-.54 4.452-1.62 6.228-1.056 1.752-2.556 3.168-4.5 4.248-1.92 1.056-4.164 1.764-6.732 2.124l-1.692-2.556c1.896-.168 3.564-.528 5.004-1.08 1.464-.552 2.688-1.272 3.672-2.16a8.81 8.81 0 0 0 2.232-3.096c.528-1.176.792-2.448.792-3.816 0-1.776-.396-3.348-1.188-4.716-.792-1.392-1.92-2.484-3.384-3.276-1.44-.792-3.12-1.188-5.04-1.188-1.752 0-3.42.288-5.004.864a17.436 17.436 0 0 0-4.464 2.376 11.09 11.09 0 0 0-2.628 2.664 14.702 14.702 0 0 0-1.764 3.312c-.408 1.128-.612 2.232-.612 3.312 0 1.2.24 2.148.72 2.844.504.672 1.164 1.008 1.98 1.008.576 0 1.164-.168 1.764-.504.6-.36 1.188-.828 1.764-1.404a18.532 18.532 0 0 0 1.656-1.908c.552-.72 1.044-1.44 1.476-2.16a28.53 28.53 0 0 0 1.764-3.24 45.978 45.978 0 0 0 1.62-3.924 48.459 48.459 0 0 0 1.368-4.248c.408-1.44.732-2.808.972-4.104.072-.36.12-.804.144-1.332.048-.528.072-.996.072-1.404l3.096.288Zm-14.724 1.62c.096.504.204 1.044.324 1.62.144.552.276 1.08.396 1.584.24.864.54 1.836.9 2.916.36 1.08.732 2.16 1.116 3.24.408 1.08.828 2.1 1.26 3.06.432.936.84 1.716 1.224 2.34a43.808 43.808 0 0 0 2.124 3.24 19.896 19.896 0 0 0 2.484 2.88l-2.268 1.872a37.848 37.848 0 0 1-2.088-2.592 32.327 32.327 0 0 1-2.016-3.132c-.456-.696-.912-1.536-1.368-2.52a117.861 117.861 0 0 1-1.404-3.24c-.456-1.152-.9-2.328-1.332-3.528a74.671 74.671 0 0 1-1.152-3.528c-.168-.576-.36-1.14-.576-1.692a13.885 13.885 0 0 0-.612-1.548l2.988-.972Zm29.7 2.34c.696-.024 1.32-.048 1.872-.072.552-.048.996-.084 1.332-.108a75.225 75.225 0 0 1 2.484-.252c1.104-.12 2.364-.24 3.78-.36 1.416-.144 2.94-.288 4.572-.432 1.632-.144 3.276-.288 4.932-.432 1.32-.12 2.568-.216 3.744-.288a97.379 97.379 0 0 1 3.276-.216 66.658 66.658 0 0 1 2.7-.144v2.88a36.73 36.73 0 0 0-2.304 0c-.864.024-1.716.084-2.556.18-.84.072-1.572.204-2.196.396a10.513 10.513 0 0 0-3.456 1.872 12.706 12.706 0 0 0-2.592 2.844 13.189 13.189 0 0 0-1.656 3.348c-.36 1.152-.54 2.256-.54 3.312 0 1.416.24 2.652.72 3.708a7.901 7.901 0 0 0 1.944 2.628c.84.72 1.788 1.308 2.844 1.764 1.08.456 2.208.792 3.384 1.008 1.176.216 2.352.348 3.528.396l-1.044 2.988a19.915 19.915 0 0 1-4.032-.576 17.936 17.936 0 0 1-3.852-1.368 13.34 13.34 0 0 1-3.276-2.34 10.41 10.41 0 0 1-2.268-3.276c-.552-1.248-.828-2.676-.828-4.284 0-1.872.324-3.6.972-5.184.672-1.608 1.524-3.012 2.556-4.212 1.032-1.2 2.1-2.124 3.204-2.772-.768.096-1.716.204-2.844.324-1.128.12-2.352.252-3.672.396-1.296.12-2.592.264-3.888.432-1.296.168-2.52.336-3.672.504-1.128.144-2.076.3-2.844.468l-.324-3.132Zm40.976 25.92a45.05 45.05 0 0 0-2.52-2.88 75.473 75.473 0 0 0-2.772-2.772c-.912-.888-1.8-1.68-2.664-2.376l2.34-2.052c.864.696 1.776 1.5 2.736 2.412a77.45 77.45 0 0 1 2.808 2.808c.936.96 1.776 1.884 2.52 2.772l-2.448 2.088Zm30.564-30.06h10.296v21.492h-10.296v-2.52h7.776V766.44h-7.776v-2.484Zm0 9.36h8.892v2.448h-8.892v-2.448Zm15.228-10.008h12.132v2.52h-12.132v-2.52Zm0 8.748h12.132v2.448h-12.132v-2.448Zm-.252 8.82h12.312v2.448h-12.312v-2.448Zm-16.488-16.92h2.556v24.876h-2.556v-24.876Zm27.864-.648h2.664v28.008c0 .84-.12 1.488-.36 1.944-.216.48-.612.828-1.188 1.044-.6.216-1.404.348-2.412.396-1.008.072-2.292.108-3.852.108a3.762 3.762 0 0 0-.216-.864 9.764 9.764 0 0 0-.36-.972 5.326 5.326 0 0 0-.396-.828 73.92 73.92 0 0 0 2.232.036c.72.024 1.344.024 1.872 0h1.116c.336 0 .564-.06.684-.18.144-.144.216-.372.216-.684v-28.008Zm-12.708 0h2.628v12.852c0 1.512-.084 3.12-.252 4.824a27.534 27.534 0 0 1-1.008 5.076c-.48 1.68-1.212 3.3-2.196 4.86-.984 1.56-2.292 2.964-3.924 4.212-.12-.192-.3-.408-.54-.648-.24-.24-.492-.48-.756-.72a6.894 6.894 0 0 0-.684-.504c1.536-1.152 2.748-2.424 3.636-3.816a18.07 18.07 0 0 0 2.016-4.392c.456-1.512.744-3.024.864-4.536.144-1.512.216-2.976.216-4.392v-12.816Zm24.3.9h23.616v30.096h-2.88v-27.396h-17.964v27.576h-2.772v-30.276Zm1.872 12.456H897.9v2.664h-20.088v-2.664Zm-.072 12.78h20.196v2.7H877.74v-2.7Zm48.168-22.032c-.24 1.872-.552 3.828-.936 5.868a52.26 52.26 0 0 1-1.404 5.94c-.72 2.472-1.524 4.536-2.412 6.192-.864 1.656-1.8 2.904-2.808 3.744-1.008.84-2.064 1.26-3.168 1.26-1.056 0-2.076-.384-3.06-1.152-.984-.768-1.788-1.872-2.412-3.312-.624-1.464-.936-3.18-.936-5.148 0-1.968.396-3.828 1.188-5.58a15.199 15.199 0 0 1 3.348-4.644c1.44-1.368 3.12-2.448 5.04-3.24 1.92-.792 3.972-1.188 6.156-1.188 2.112 0 4.008.348 5.688 1.044 1.704.696 3.156 1.656 4.356 2.88 1.2 1.2 2.124 2.604 2.772 4.212.648 1.584.972 3.288.972 5.112 0 2.52-.54 4.74-1.62 6.66-1.056 1.92-2.592 3.48-4.608 4.68-1.992 1.2-4.416 1.992-7.272 2.376l-1.692-2.664c.576-.072 1.128-.144 1.656-.216a17.695 17.695 0 0 0 1.44-.252 14.403 14.403 0 0 0 3.348-1.224 11.99 11.99 0 0 0 2.952-2.16 9.986 9.986 0 0 0 2.052-3.132c.528-1.224.792-2.616.792-4.176 0-1.464-.24-2.82-.72-4.068a9.593 9.593 0 0 0-2.124-3.348c-.936-.96-2.076-1.716-3.42-2.268-1.344-.552-2.88-.828-4.608-.828-1.968 0-3.756.36-5.364 1.08-1.584.72-2.94 1.668-4.068 2.844a12.833 12.833 0 0 0-2.556 3.816c-.6 1.368-.9 2.712-.9 4.032 0 1.512.192 2.76.576 3.744.408.96.888 1.668 1.44 2.124.576.456 1.14.684 1.692.684.576 0 1.164-.276 1.764-.828.6-.576 1.212-1.488 1.836-2.736.624-1.272 1.236-2.916 1.836-4.932a50.019 50.019 0 0 0 1.332-5.508c.384-1.944.66-3.852.828-5.724l3.024.036Zm24.048-5.58h2.484v3.996h-2.484v-3.996Zm-6.012 2.736h14.544v2.124h-14.544v-2.124Zm-.792 6.156h15.66v2.232h-15.66v-2.232Zm16.524 0h16.416v2.232h-16.416v-2.232Zm6.444-8.892h2.556v3.996h-2.556v-3.996Zm-5.94 2.736h15.264v2.124H960.18v-2.124Zm-12.996 12.42v4.464h7.776v-4.464h-7.776Zm-2.376-2.16h12.636v8.784h-12.636v-8.784Zm18.612 2.124v4.608h8.244v-4.608h-8.244Zm-2.484-2.124h13.32v8.892h-13.32v-8.892Zm-8.64 8.172h2.412v7.632l-2.412.936V783Zm-1.044 7.668c.96-.288 2.088-.66 3.384-1.116 1.32-.48 2.688-.972 4.104-1.476l.432 2.232c-1.248.504-2.484.984-3.708 1.44-1.224.456-2.388.9-3.492 1.332l-.72-2.412Zm-5.184-23.76 2.088-.432c.312.648.576 1.356.792 2.124.24.744.396 1.392.468 1.944l-2.196.468c-.048-.552-.18-1.212-.396-1.98a15.684 15.684 0 0 0-.756-2.124Zm8.1-.54 2.304.576c-.288.768-.564 1.512-.828 2.232-.24.72-.492 1.356-.756 1.908l-2.088-.54c.216-.576.456-1.26.72-2.052.288-.792.504-1.5.648-2.124Zm8.064.54 2.124-.504c.336.624.624 1.332.864 2.124.264.768.444 1.44.54 2.016l-2.268.54c-.072-.552-.228-1.224-.468-2.016a12.64 12.64 0 0 0-.792-2.16Zm8.496-.648 2.448.612c-.36.744-.708 1.5-1.044 2.268-.336.744-.66 1.392-.972 1.944l-2.088-.576c.288-.6.588-1.308.9-2.124.312-.816.564-1.524.756-2.124Zm-7.596 16.848h2.412c-.12 1.968-.408 3.708-.864 5.22-.432 1.512-1.164 2.808-2.196 3.888-1.008 1.08-2.448 1.98-4.32 2.7a7.09 7.09 0 0 0-.648-1.08c-.288-.408-.564-.72-.828-.936 1.68-.576 2.964-1.308 3.852-2.196a7.319 7.319 0 0 0 1.872-3.204c.384-1.272.624-2.736.72-4.392ZM947.22 783h2.376c-.096 1.896-.312 3.6-.648 5.112-.312 1.488-.84 2.796-1.584 3.924-.744 1.128-1.824 2.076-3.24 2.844a5.06 5.06 0 0 0-.432-.684c-.168-.24-.36-.48-.576-.72a3.957 3.957 0 0 0-.576-.54c1.248-.624 2.184-1.404 2.808-2.34.648-.936 1.104-2.028 1.368-3.276.264-1.272.432-2.712.504-4.32Zm20.988.036h2.448v8.136c0 .144.012.264.036.36a.47.47 0 0 0 .216.216c.216.12.48.18.792.18h1.224c.456 0 .792-.06 1.008-.18.072-.072.156-.168.252-.288a.915.915 0 0 0 .18-.468c.048-.312.084-.792.108-1.44.048-.672.06-1.416.036-2.232.24.216.564.444.972.684.432.24.828.408 1.188.504a41.923 41.923 0 0 1-.144 2.52c-.072.792-.156 1.344-.252 1.656-.216.648-.6 1.116-1.152 1.404-.216.12-.504.216-.864.288-.36.072-.72.108-1.08.108h-2.052a5.18 5.18 0 0 1-1.188-.144 2.784 2.784 0 0 1-1.008-.468 2.36 2.36 0 0 1-.576-.936c-.096-.36-.144-.948-.144-1.764v-8.136Zm25.776-10.548h2.772v19.08c0 .864-.132 1.5-.396 1.908-.24.432-.672.756-1.296.972-.648.216-1.488.348-2.52.396a89.416 89.416 0 0 1-3.996.072c-.072-.36-.216-.792-.432-1.296a8.214 8.214 0 0 0-.612-1.296c.864.024 1.68.036 2.448.036.768.024 1.428.024 1.98 0h1.152c.36-.024.6-.096.72-.216.12-.096.18-.3.18-.612v-19.044Zm-9.792-1.368h24.048v17.46h-2.7v-15.048h-21.348v-2.412Zm-5.04 6.408h33.048v2.448h-33.048v-2.448Zm3.564 6.66h24.124v2.484h-24.124v-2.484Zm7.02-22.5 2.952.576c-1.2 1.968-2.7 3.948-4.5 5.94-1.8 1.968-3.948 3.78-6.444 5.436a4.588 4.588 0 0 0-.576-.684 6.523 6.523 0 0 0-.72-.684 3.997 3.997 0 0 0-.72-.54 25.565 25.565 0 0 0 4.32-3.132 32.274 32.274 0 0 0 3.348-3.492c.96-1.2 1.74-2.34 2.34-3.42Zm-.18 3.06h10.368v2.376h-12.168l1.8-2.376Zm9.828 0h.646l.47-.144 1.94 1.368a26.18 26.18 0 0 1-1.83 2.448 53.68 53.68 0 0 1-2.162 2.448 33.31 33.31 0 0 1-2.16 2.052c-.24-.24-.552-.48-.936-.72a6.926 6.926 0 0 0-.972-.612 20.241 20.241 0 0 0 1.872-1.908c.648-.744 1.248-1.5 1.8-2.268.552-.792.996-1.5 1.332-2.124v-.54Zm17.206 4.86h27.94v2.772h-27.94v-2.772Zm26.89 0h2.78v.288c0 .192-.02.396-.04.612 0 .216-.01.396-.04.54-.19 3.72-.39 6.888-.61 9.504-.19 2.616-.42 4.776-.68 6.48-.24 1.68-.52 3.012-.83 3.996-.29.96-.64 1.656-1.04 2.088-.44.528-.89.888-1.37 1.08-.46.192-1.03.324-1.73.396-.6.048-1.44.06-2.52.036-1.06-.024-2.14-.06-3.24-.108-.02-.408-.12-.876-.29-1.404a3.909 3.909 0 0 0-.65-1.368c1.25.096 2.39.168 3.42.216 1.06.024 1.82.036 2.27.036.39 0 .7-.036.94-.108.26-.072.5-.228.72-.468.33-.312.63-.924.9-1.836.29-.936.54-2.232.75-3.888.24-1.68.46-3.792.65-6.336.22-2.544.42-5.604.61-9.18v-.576Zm-15.12-7.776h2.81v6.228c0 1.656-.07 3.408-.21 5.256a34.95 34.95 0 0 1-.94 5.616c-.48 1.896-1.21 3.792-2.2 5.688-.98 1.896-2.3 3.732-3.96 5.508-1.65 1.752-3.74 3.384-6.26 4.896a4.67 4.67 0 0 0-.58-.756 27.31 27.31 0 0 0-.75-.792c-.27-.24-.52-.432-.76-.576 2.4-1.44 4.38-2.976 5.94-4.608 1.59-1.632 2.83-3.312 3.75-5.04.93-1.752 1.62-3.504 2.05-5.256a32.2 32.2 0 0 0 .9-5.148c.14-1.68.21-3.276.21-4.788v-6.228Zm37.8 1.692c-.14.72-.33 1.572-.57 2.556-.22.96-.58 2.052-1.08 3.276-.43 1.08-.97 2.196-1.62 3.348a24.045 24.045 0 0 1-2.02 3.132c.46-.288.97-.528 1.55-.72a9.15 9.15 0 0 1 1.76-.468c.63-.096 1.19-.144 1.7-.144 1.39 0 2.56.396 3.52 1.188.96.768 1.44 1.896 1.44 3.384v3.996c.03.768.05 1.524.08 2.268.02.744.03 1.392.03 1.944h-2.77c.02-.48.05-1.044.07-1.692.03-.648.04-1.332.04-2.052.02-.72.02-1.404 0-2.052v-1.656c0-1.056-.33-1.824-.97-2.304-.63-.504-1.42-.756-2.38-.756-1.13 0-2.24.252-3.35.756a9.984 9.984 0 0 0-2.84 1.872c-.53.504-1.06 1.08-1.59 1.728-.5.624-1.06 1.296-1.69 2.016l-2.45-1.8c1.73-1.68 3.17-3.252 4.32-4.716 1.16-1.464 2.09-2.82 2.81-4.068.72-1.272 1.29-2.412 1.69-3.42.39-1.008.7-2.016.94-3.024.24-1.032.38-1.98.43-2.844l2.95.252Zm-12.31 3.888c.96.12 2.01.216 3.13.288 1.13.072 2.12.108 2.96.108 1.6 0 3.33-.036 5.18-.108 1.85-.096 3.71-.228 5.58-.396 1.9-.168 3.7-.408 5.4-.72l-.04 2.664c-1.24.216-2.58.396-3.99.54-1.42.12-2.86.228-4.32.324-1.47.072-2.88.132-4.25.18-1.34.024-2.59.036-3.74.036h-1.77c-.65-.024-1.33-.048-2.05-.072-.72-.048-1.42-.096-2.09-.144v-2.7Zm27.51 8.712c-.32.072-.66.18-1.05.324-.36.12-.73.252-1.11.396-.36.144-.71.288-1.05.432-1.25.48-2.7 1.068-4.35 1.764-1.66.696-3.35 1.5-5.08 2.412-1.2.6-2.26 1.236-3.17 1.908-.91.648-1.63 1.332-2.16 2.052a3.71 3.71 0 0 0-.79 2.304c0 .696.16 1.26.47 1.692.33.432.8.768 1.4 1.008.6.216 1.29.36 2.05.432.8.072 1.66.108 2.6.108 1.39 0 2.97-.072 4.75-.216a70.69 70.69 0 0 0 5.07-.648l-.07 2.88a65.6 65.6 0 0 1-3.09.324c-1.13.096-2.28.168-3.46.216a53.2 53.2 0 0 1-3.31.108c-1.71 0-3.27-.156-4.68-.468-1.39-.312-2.51-.864-3.35-1.656-.84-.792-1.26-1.92-1.26-3.384 0-1.08.25-2.064.76-2.952.5-.912 1.17-1.74 2.01-2.484.87-.744 1.81-1.428 2.85-2.052a33.827 33.827 0 0 1 3.16-1.764 55.473 55.473 0 0 1 3.24-1.62c1.04-.456 2.01-.876 2.92-1.26.91-.384 1.76-.768 2.56-1.152.52-.24 1.03-.468 1.51-.684.48-.216.96-.456 1.44-.72l1.19 2.7Zm32.97-14.328 1.98 2.196c-1.61.48-3.45.912-5.54 1.296-2.07.36-4.26.672-6.59.936-2.3.264-4.63.48-6.98.648-2.33.168-4.59.288-6.77.36a8.403 8.403 0 0 0-.29-1.188 8.38 8.38 0 0 0-.36-1.152c2.14-.12 4.36-.264 6.66-.432 2.3-.168 4.56-.372 6.77-.612 2.21-.264 4.26-.564 6.15-.9 1.92-.336 3.58-.72 4.97-1.152Zm-24.51 10.188h28.04v2.592h-28.04v-2.592Zm-2.42 8.424h32.51v2.664h-32.51v-2.664Zm14.87-14.76h2.77V791.1c0 .96-.15 1.668-.46 2.124-.29.48-.77.828-1.44 1.044-.7.216-1.66.348-2.88.396-1.2.072-2.75.096-4.65.072-.07-.264-.17-.564-.29-.9-.12-.312-.26-.636-.43-.972a5.89 5.89 0 0 0-.43-.792c1.01.024 1.97.036 2.88.036h3.82c.4-.024.69-.108.86-.252.17-.144.25-.396.25-.756v-25.452Zm35.75 2.052c.98.144 2.12.264 3.42.36 1.32.072 2.68.108 4.07.108 1.41-.024 2.76-.072 4.03-.144 1.3-.096 2.39-.216 3.28-.36v2.916c-.96.096-2.09.18-3.39.252-1.27.048-2.6.072-3.99.072-1.37 0-2.7-.024-4-.072-1.3-.072-2.44-.156-3.42-.252v-2.88Zm1.4 14.652c-.16.648-.3 1.236-.39 1.764a8.31 8.31 0 0 0-.15 1.548c0 .408.09.816.26 1.224.19.384.5.732.93 1.044.46.288 1.08.528 1.87.72.8.168 1.8.252 3.03.252 1.63 0 3.17-.072 4.61-.216 1.44-.168 2.88-.408 4.32-.72l.07 3.024c-1.13.24-2.45.432-3.96.576-1.49.12-3.17.18-5.04.18-3.03 0-5.25-.48-6.66-1.44-1.39-.96-2.09-2.28-2.09-3.96 0-.6.05-1.236.14-1.908.12-.696.28-1.476.47-2.34l2.59.252Zm-8.28-17.424c-.04.192-.12.444-.21.756-.07.288-.16.588-.25.9-.08.288-.14.54-.18.756-.12.672-.27 1.452-.44 2.34-.16.864-.33 1.8-.5 2.808-.14.984-.29 1.992-.43 3.024-.12 1.008-.23 1.992-.33 2.952a40.217 40.217 0 0 0-.03 5.184c.07.792.15 1.632.25 2.52.22-.552.44-1.14.68-1.764.24-.624.48-1.236.72-1.836.27-.624.5-1.176.69-1.656l1.51 1.152c-.31.864-.65 1.812-1.01 2.844a74.152 74.152 0 0 0-.97 2.988c-.26.936-.46 1.68-.58 2.232-.04.264-.09.552-.14.864-.05.312-.06.564-.04.756.03.192.04.396.04.612.02.24.05.456.07.648l-2.59.18c-.36-1.272-.67-2.904-.94-4.896-.26-2.016-.39-4.236-.39-6.66 0-1.32.06-2.664.18-4.032.12-1.392.27-2.736.47-4.032.19-1.32.37-2.52.54-3.6.19-1.104.33-2.028.43-2.772.07-.432.13-.864.18-1.296.05-.456.07-.876.07-1.26l3.2.288Zm34.67-.972H1176v2.736h-10.19v-2.736Zm8.82 0h2.74c0 1.056.05 2.304.14 3.744.1 1.44.3 2.988.61 4.644.32 1.632.8 3.336 1.44 5.112.65 1.776 1.53 3.552 2.63 5.328 1.11 1.752 2.49 3.456 4.14 5.112 1.68 1.656 3.71 3.18 6.09 4.572-.2.168-.45.384-.76.648-.29.288-.56.576-.83.864-.24.312-.44.576-.61.792-2.4-1.464-4.46-3.072-6.19-4.824-1.71-1.776-3.13-3.624-4.29-5.544-1.12-1.92-2.04-3.84-2.73-5.76-.67-1.944-1.19-3.816-1.55-5.616a47.723 47.723 0 0 1-.68-5.076c-.1-1.56-.15-2.892-.15-3.996Zm-1.04 7.056 3.06.54c-.87 3.648-1.99 6.936-3.39 9.864-1.36 2.928-3.03 5.508-5 7.74-1.94 2.208-4.25 4.092-6.91 5.652-.15-.192-.37-.42-.69-.684-.28-.264-.6-.54-.93-.828-.31-.264-.59-.48-.83-.648 4.01-2.112 7.19-4.968 9.54-8.568 2.35-3.624 4.07-7.98 5.15-13.068Zm55.08 18.252c-.96.96-1.99 1.704-3.1 2.232-1.1.504-2.28.756-3.53.756-1.17 0-2.13-.384-2.88-1.152-.74-.768-1.11-1.896-1.11-3.384 0-1.008.07-2.1.21-3.276.15-1.176.3-2.376.47-3.6.17-1.248.33-2.424.47-3.528.14-1.128.22-2.136.22-3.024 0-1.032-.26-1.776-.76-2.232-.5-.48-1.22-.72-2.16-.72-.84 0-1.78.252-2.81.756-1.03.48-2.09 1.14-3.17 1.98-1.08.816-2.13 1.74-3.16 2.772a46.527 46.527 0 0 0-2.85 3.024l.07-3.564c.46-.48 1.04-1.044 1.73-1.692.72-.648 1.51-1.32 2.38-2.016.89-.696 1.82-1.344 2.81-1.944.98-.6 1.95-1.08 2.91-1.44.99-.36 1.92-.54 2.81-.54 1.13 0 2.06.204 2.81.612.74.384 1.29.948 1.65 1.692.36.72.54 1.56.54 2.52 0 .888-.07 1.92-.21 3.096a77.08 77.08 0 0 1-.47 3.6c-.17 1.248-.32 2.46-.47 3.636-.12 1.176-.18 2.22-.18 3.132 0 .6.15 1.116.43 1.548.32.432.8.648 1.44.648.87 0 1.76-.252 2.67-.756.93-.528 1.86-1.272 2.77-2.232l.47 3.096Zm-24.19-17.208c-.29.024-.74.084-1.34.18l-1.98.252c-.74.096-1.5.204-2.26.324-.77.096-1.49.192-2.16.288l-.29-2.952c.38.024.75.036 1.11.036.39-.024.8-.048 1.23-.072.5-.024 1.11-.072 1.83-.144.75-.096 1.52-.192 2.31-.288.81-.12 1.57-.24 2.27-.36.72-.144 1.28-.288 1.69-.432l1.04 1.26c-.21.288-.45.648-.72 1.08-.26.408-.53.828-.79 1.26-.26.432-.49.816-.68 1.152l-1.12 4.896c-.41.648-.91 1.416-1.51 2.304-.6.888-1.24 1.824-1.91 2.808-.65.96-1.31 1.92-1.98 2.88-.67.936-1.28 1.8-1.84 2.592l-1.83-2.484c.45-.552.98-1.224 1.58-2.016.63-.816 1.27-1.692 1.95-2.628.69-.936 1.36-1.848 2.01-2.736a65.47 65.47 0 0 0 1.77-2.52c.52-.768.92-1.392 1.18-1.872l.15-1.836.29-.972Zm-.33-5.976c0-.408-.01-.84-.03-1.296 0-.456-.04-.912-.11-1.368l3.38.108c-.09.48-.21 1.236-.36 2.268a95.619 95.619 0 0 0-.43 3.6c-.12 1.392-.25 2.856-.4 4.392-.12 1.536-.21 3.06-.28 4.572a76.91 76.91 0 0 0-.11 4.14v3.024c0 .912.01 1.824.03 2.736.03.888.06 1.86.11 2.916.03.312.05.672.07 1.08.03.408.06.78.11 1.116H1203c.05-.336.07-.708.07-1.116.03-.384.04-.72.04-1.008.02-1.152.03-2.172.03-3.06v-2.736c.03-.96.05-2.1.08-3.42 0-.528.02-1.248.07-2.16.05-.936.11-1.956.18-3.06l.21-3.42c.08-1.152.15-2.232.22-3.24l.18-2.628c.05-.72.07-1.2.07-1.44Zm46.08-2.664c-.05.312-.09.66-.14 1.044-.03.384-.05.84-.07 1.368 0 .36-.02.9-.04 1.62v7.668c0 1.2.02 2.46.07 3.78.05 1.32.11 2.604.18 3.852.07 1.248.13 2.388.18 3.42.05 1.032.07 1.848.07 2.448 0 .84-.2 1.644-.61 2.412-.38.768-1.04 1.392-1.98 1.872-.91.504-2.16.756-3.74.756-2.59 0-4.57-.456-5.94-1.368-1.37-.888-2.05-2.196-2.05-3.924 0-1.104.32-2.064.97-2.88.67-.816 1.63-1.452 2.88-1.908 1.25-.48 2.73-.72 4.46-.72 1.9 0 3.67.228 5.33.684 1.68.432 3.22.984 4.61 1.656 1.39.672 2.63 1.38 3.71 2.124a33.27 33.27 0 0 1 2.66 1.944l-1.66 2.556a26.191 26.191 0 0 0-2.84-2.304 26.311 26.311 0 0 0-3.49-2.124 19.719 19.719 0 0 0-4.07-1.548c-1.44-.408-2.98-.612-4.61-.612-1.73 0-3.05.288-3.96.864-.89.576-1.33 1.284-1.33 2.124 0 .528.17 1.02.5 1.476.34.432.88.78 1.62 1.044.75.264 1.71.396 2.88.396.7 0 1.34-.084 1.91-.252a2.721 2.721 0 0 0 1.37-.972c.36-.456.54-1.092.54-1.908 0-.696-.02-1.596-.07-2.7-.03-1.128-.06-2.316-.11-3.564-.05-1.272-.1-2.496-.14-3.672-.03-1.176-.04-2.16-.04-2.952v-7.452c.02-.768.04-1.464.04-2.088 0-.288-.02-.66-.04-1.116a6.851 6.851 0 0 0-.11-1.044h3.06Zm-13.79 3.924c.6.096 1.3.192 2.09.288.79.096 1.62.192 2.49.288.88.072 1.72.132 2.52.18.81.024 1.52.036 2.12.036 2.28 0 4.61-.084 6.98-.252 2.4-.168 4.77-.444 7.1-.828l-.04 2.628c-1.32.144-2.76.288-4.32.432-1.56.144-3.17.264-4.82.36-1.64.096-3.26.144-4.86.144-.84 0-1.84-.036-2.99-.108-1.15-.072-2.29-.156-3.42-.252-1.11-.096-2.04-.18-2.81-.252l-.04-2.664Zm-.18 7.632c.65.096 1.37.192 2.16.288.8.096 1.61.168 2.45.216.84.048 1.65.096 2.41.144.77.024 1.46.036 2.06.036 1.75 0 3.44-.036 5.07-.108 1.66-.096 3.28-.216 4.86-.36 1.61-.168 3.19-.372 4.75-.612l-.03 2.7c-1.2.168-2.4.312-3.6.432a168.432 168.432 0 0 1-7.2.432c-1.23.024-2.52.036-3.89.036-.82 0-1.76-.024-2.84-.072-1.06-.048-2.14-.108-3.24-.18a66.659 66.659 0 0 1-2.92-.252l-.04-2.7Zm41.58-11.016c-.09.6-.16 1.212-.21 1.836-.05.6-.09 1.2-.11 1.8-.05 1.008-.1 2.256-.14 3.744-.05 1.488-.1 3.072-.15 4.752-.05 1.656-.08 3.312-.11 4.968-.02 1.656-.03 3.144-.03 4.464 0 1.32.25 2.376.75 3.168.51.792 1.2 1.356 2.09 1.692.89.336 1.91.504 3.06.504 1.63 0 3.11-.204 4.43-.612 1.32-.432 2.5-.996 3.53-1.692 1.03-.72 1.94-1.524 2.73-2.412.82-.888 1.55-1.8 2.2-2.736l2.05 2.448c-.62.864-1.39 1.764-2.3 2.7-.89.912-1.95 1.764-3.17 2.556s-2.64 1.44-4.25 1.944c-1.58.504-3.36.756-5.33.756-1.7 0-3.21-.264-4.53-.792-1.32-.528-2.35-1.38-3.1-2.556-.74-1.176-1.11-2.736-1.11-4.68 0-1.08.01-2.268.03-3.564.03-1.32.06-2.676.11-4.068.05-1.392.08-2.748.11-4.068.02-1.344.05-2.58.07-3.708.02-1.128.04-2.064.04-2.808 0-.672-.03-1.32-.08-1.944-.04-.624-.12-1.2-.21-1.728l3.63.036Zm43.1 5.688c-.05.264-.1.696-.15 1.296-.05.6-.07 1.152-.07 1.656v5.94c0 .768.01 1.668.04 2.7.04 1.032.09 2.1.14 3.204.07 1.08.13 2.1.18 3.06.05.96.07 1.752.07 2.376 0 .768-.18 1.488-.54 2.16-.36.672-.93 1.212-1.73 1.62-.76.432-1.82.648-3.16.648-1.4 0-2.64-.192-3.75-.576-1.1-.36-1.97-.9-2.59-1.62-.6-.696-.9-1.572-.9-2.628 0-1.488.66-2.676 1.98-3.564 1.32-.912 3.22-1.368 5.69-1.368 1.51 0 2.95.18 4.32.54 1.37.336 2.65.792 3.85 1.368 1.2.576 2.28 1.2 3.24 1.872.98.672 1.84 1.344 2.56 2.016l-1.52 2.52a22.333 22.333 0 0 0-2.48-2.196c-.94-.72-1.96-1.368-3.06-1.944-1.08-.6-2.23-1.068-3.46-1.404-1.2-.36-2.44-.54-3.74-.54-1.44 0-2.6.228-3.49.684-.89.432-1.33 1.068-1.33 1.908 0 .696.38 1.284 1.15 1.764.77.456 1.85.684 3.24.684.98 0 1.73-.252 2.23-.756.5-.528.76-1.212.76-2.052 0-.624-.03-1.368-.08-2.232-.02-.888-.06-1.824-.1-2.808l-.15-2.988c-.02-.984-.03-1.86-.03-2.628v-5.724c0-.552-.03-1.116-.08-1.692-.04-.6-.1-1.032-.18-1.296h3.14Zm-1.52 5.544c.48 0 1.13-.012 1.95-.036.84-.048 1.75-.096 2.73-.144.99-.048 1.97-.108 2.96-.18.98-.072 1.86-.156 2.62-.252l.04 2.52c-.74.096-1.61.18-2.59.252-.96.048-1.95.096-2.95.144-.99.048-1.9.084-2.74.108-.82.024-1.49.036-2.02.036v-2.448Zm44.1 4.824c0-1.008-.26-1.896-.79-2.664-.5-.792-1.22-1.404-2.16-1.836-.91-.456-1.98-.684-3.2-.684-1.39 0-2.7.108-3.93.324-1.22.216-2.34.468-3.34.756-.99.288-1.84.528-2.56.72-.55.168-1.09.348-1.62.54-.5.192-.97.384-1.4.576l-.94-3.348c.5-.048 1.04-.12 1.62-.216.6-.096 1.16-.204 1.69-.324.87-.192 1.86-.42 2.99-.684 1.15-.264 2.39-.504 3.71-.72 1.34-.216 2.7-.324 4.07-.324 1.7 0 3.22.312 4.57.936 1.34.624 2.4 1.536 3.17 2.736.79 1.176 1.18 2.616 1.18 4.32 0 1.968-.4 3.72-1.22 5.256-.82 1.512-1.97 2.832-3.46 3.96-1.46 1.104-3.19 2.028-5.18 2.772-1.99.744-4.15 1.284-6.48 1.62l-1.62-2.736c2.16-.264 4.15-.684 5.98-1.26 1.82-.6 3.39-1.344 4.71-2.232 1.35-.888 2.38-1.956 3.1-3.204.74-1.248 1.11-2.676 1.11-4.284Zm-15.12-16.2c.99.216 2.16.42 3.53.612 1.39.192 2.82.372 4.29.54 1.48.144 2.88.264 4.17.36 1.32.096 2.43.144 3.31.144l-.43 2.772-3.53-.252c-1.32-.12-2.7-.252-4.14-.396-1.41-.168-2.79-.336-4.14-.504-1.32-.192-2.49-.372-3.52-.54l.46-2.736Z"/>
  </g>
  <defs>
    <clipPath id="a">
      <path fill="#fff" d="M0 0h1920v1080H0z"/>
    </clipPath>
  </defs>
</svg>
