<svg xmlns="http://www.w3.org/2000/svg" width="1920" height="1080" fill="none" viewBox="0 0 1920 1080">
  <g clip-path="url(#a)">
    <path fill="#fff" d="M1920 0H0v1080h1920V0Z"/>
    <path fill="#000" d="M832.44 56.24h14.88v19.08h-14.88V56.24Zm-43.92 10.32h102.84v25.8h-14.88v-13.2H802.8v13.2h-14.28v-25.8Zm10.8 22.2h82.44v11.64h-82.44V88.76Zm-11.76 37.92h105.48v12.48H787.56v-12.48Zm13.68-19.08h78v11.52h-78V107.6Zm45.84 21.6c3.6 7.92 9.32 14.12 17.16 18.6 7.84 4.48 18 7.36 30.48 8.64-1.44 1.52-3 3.52-4.68 6-1.6 2.48-2.88 4.68-3.84 6.6-9.12-1.44-17-3.72-23.64-6.84-6.64-3.04-12.28-7.04-16.92-12-4.56-5.04-8.36-11.12-11.4-18.24l12.84-2.76Zm-15-47.28h14.52v33.36c0 4.16-.44 8.32-1.32 12.48-.8 4.16-2.32 8.2-4.56 12.12-2.16 3.84-5.24 7.52-9.24 11.04-3.92 3.52-8.92 6.76-15 9.72-6.08 3.04-13.48 5.76-22.2 8.16-.56-1.12-1.36-2.4-2.4-3.84a66.41 66.41 0 0 0-3.24-4.2c-1.12-1.44-2.24-2.64-3.36-3.6 8.32-1.92 15.28-4.08 20.88-6.48 5.68-2.4 10.2-5 13.56-7.8 3.44-2.8 6.04-5.72 7.8-8.76 1.76-3.12 2.96-6.24 3.6-9.36.64-3.2.96-6.44.96-9.72V81.92Zm89.28-9.24v15.6H936v-15.6h-14.64Zm-12.12-12h39.72v39.72h-39.72V60.68Zm15.48 34.8h12.6v55.2h-12.6v-55.2Zm-16.08 13.44h11.4v45.72h-11.4v-45.72Zm-5.4 41.64 13.8-2.76c5.28-1.12 10.8-2.32 16.56-3.6 5.84-1.36 11.64-2.72 17.4-4.08l1.32 12.48c-8 2.08-16.08 4.08-24.24 6-8.16 2-15.52 3.8-22.08 5.4l-2.76-13.44Zm27.24-36h20.04v12.36h-20.04v-12.36Zm21.24-37.44 59.16-5.52 1.2 12-59.04 5.88-1.32-12.36Zm3.48 18.48 53.04-5.16 1.32 11.64-53.04 5.52-1.32-12Zm-3.12 19.32 63-6.24 1.44 12-63.12 6.6-1.32-12.36Zm16.08-58.68h14.52c-.24 10.16-.08 20.04.48 29.64.56 9.6 1.4 18.56 2.52 26.88 1.2 8.32 2.64 15.64 4.32 21.96 1.76 6.32 3.72 11.24 5.88 14.76 2.24 3.52 4.64 5.28 7.2 5.28 1.28 0 2.24-1 2.88-3 .64-2 1.12-5.64 1.44-10.92 1.44 1.68 3.16 3.2 5.16 4.56 2 1.36 3.84 2.4 5.52 3.12-.72 5.36-1.76 9.52-3.12 12.48-1.28 2.96-2.96 5-5.04 6.12s-4.8 1.68-8.16 1.68c-4.4 0-8.32-1.48-11.76-4.44-3.36-2.88-6.28-6.92-8.76-12.12-2.4-5.2-4.44-11.36-6.12-18.48-1.68-7.12-3.04-14.84-4.08-23.16-1.04-8.4-1.8-17.2-2.28-26.4-.4-9.2-.6-18.52-.6-27.96Zm17.88 8.04 7.8-8.64c1.92.88 3.92 1.92 6 3.12 2.08 1.12 4.08 2.32 6 3.6 1.92 1.2 3.48 2.32 4.68 3.36l-8.16 9.6c-1.12-1.2-2.6-2.44-4.44-3.72a98.014 98.014 0 0 0-6-3.84 184.37 184.37 0 0 0-5.88-3.48Zm13.44 59.64 12.12 5.52c-4.24 6-9.32 11.44-15.24 16.32-5.92 4.8-12.4 9-19.44 12.6-7.04 3.68-14.4 6.76-22.08 9.24-.88-1.84-2.12-3.88-3.72-6.12s-3.24-4.16-4.92-5.76c7.2-2 14.16-4.48 20.88-7.44 6.8-3.04 12.96-6.56 18.48-10.56 5.6-4.08 10.24-8.68 13.92-13.8Zm95.04-4.08h8.76v48h-8.76v-48Zm13.8 0h8.88v48h-8.88v-48Zm-42-57.12h68.04v12.36h-68.04V62.72Zm18.12 74.28h44.16v10.2h-44.16V137Zm-13.68-56.64h12.6v25.08c0 4.56-.2 9.56-.6 15-.32 5.36-1 10.92-2.04 16.68a104.6 104.6 0 0 1-4.2 16.56c-1.84 5.28-4.2 10.12-7.08 14.52-.72-.8-1.76-1.72-3.12-2.76-1.28-.96-2.6-1.92-3.96-2.88-1.36-.96-2.52-1.64-3.48-2.04 2.72-4 4.88-8.36 6.48-13.08 1.6-4.72 2.76-9.52 3.48-14.4.8-4.96 1.32-9.8 1.56-14.52.24-4.72.36-9.12.36-13.2V80.36Zm5.28 0h55.44v30.6h-55.44v-11.4h41.64v-7.92h-41.64V80.36Zm3.72 35.76h50.16v10.8h-40.2v41.88h-9.96v-52.68Zm42.48 0H1134v40.44c0 2.32-.2 4.28-.6 5.88-.4 1.68-1.32 3.04-2.76 4.08-1.36.96-2.88 1.56-4.56 1.8-1.6.32-3.48.48-5.64.48-.24-1.68-.72-3.64-1.44-5.88-.64-2.16-1.36-4-2.16-5.52.96.08 1.84.12 2.64.12h1.8c.64 0 .96-.4.96-1.2v-40.2Zm-80.76-60 12.24 4.32c-1.6 3.12-3.28 6.32-5.04 9.6-1.68 3.2-3.36 6.28-5.04 9.24-1.6 2.96-3.16 5.6-4.68 7.92l-9.48-3.84c1.44-2.48 2.88-5.28 4.32-8.4 1.52-3.12 2.96-6.36 4.32-9.72 1.44-3.36 2.56-6.4 3.36-9.12Zm12.96 14.28 11.28 5.04c-2.8 4.56-5.84 9.32-9.12 14.28-3.2 4.96-6.44 9.72-9.72 14.28-3.2 4.48-6.24 8.48-9.12 12l-8.16-4.44c2.16-2.72 4.36-5.76 6.6-9.12 2.32-3.44 4.56-7 6.72-10.68 2.24-3.76 4.32-7.48 6.24-11.16 2-3.68 3.76-7.08 5.28-10.2ZM1023 83.72l6.96-9.36c2.08 1.84 4.16 3.92 6.24 6.24 2.16 2.24 4.12 4.48 5.88 6.72 1.84 2.24 3.24 4.28 4.2 6.12l-7.56 10.68c-.88-1.92-2.2-4.08-3.96-6.48-1.68-2.4-3.56-4.8-5.64-7.2-2.08-2.48-4.12-4.72-6.12-6.72Zm27.84 14.76 9.36-3.84c1.52 2.8 2.92 5.8 4.2 9 1.28 3.12 2.4 6.2 3.36 9.24 1.04 2.96 1.76 5.68 2.16 8.16l-10.2 4.32c-.24-2.4-.84-5.12-1.8-8.16-.88-3.12-1.96-6.32-3.24-9.6-1.2-3.28-2.48-6.32-3.84-9.12Zm-28.2 10.2c5.12-.24 11.12-.56 18-.96 6.96-.48 14.04-.92 21.24-1.32l.24 11.76c-6.64.56-13.32 1.08-20.04 1.56-6.64.48-12.64.96-18 1.44l-1.44-12.48Zm30.12 20.4 9.48-3c1.44 3.44 2.72 7.2 3.84 11.28 1.12 4 1.88 7.52 2.28 10.56l-10.08 3.24c-.32-3.04-1-6.6-2.04-10.68-.96-4.16-2.12-7.96-3.48-11.4Zm-24.96-2.52 11.04 1.92c-.56 5.76-1.48 11.4-2.76 16.92-1.2 5.52-2.68 10.2-4.44 14.04-.72-.48-1.72-1-3-1.56-1.2-.64-2.44-1.24-3.72-1.8-1.28-.64-2.4-1.12-3.36-1.44 1.76-3.6 3.12-7.92 4.08-12.96.96-5.04 1.68-10.08 2.16-15.12Zm12.24-11.4h12.12v53.64h-12.12v-53.64Z"/>
    <path fill="#666" d="M738.78 219.26v3.6h22.38v-3.6h-22.38Zm0 8.7v3.6h22.38v-3.6h-22.38Zm0-17.34v3.6h22.38v-3.6h-22.38Zm-7.08-5.4h36.96v31.8H731.7v-31.8Zm-8.46 34.56h53.58v6.66h-53.58v-6.66Zm29.94 11.76 5.46-4.8c2.28.76 4.58 1.6 6.9 2.52 2.36.92 4.6 1.84 6.72 2.76 2.16.88 3.98 1.7 5.46 2.46l-7.32 4.92c-1.32-.76-2.92-1.6-4.8-2.52-1.84-.92-3.84-1.86-6-2.82-2.12-.92-4.26-1.76-6.42-2.52Zm-12.48-5.22 6.24 4.92c-1.76 1-3.76 2-6 3-2.24 1.04-4.52 2-6.84 2.88a85.51 85.51 0 0 1-6.6 2.22c-.6-.76-1.38-1.68-2.34-2.76-.92-1.08-1.8-2-2.64-2.76a76.52 76.52 0 0 0 6.54-2.1 80.9 80.9 0 0 0 6.48-2.7c2.08-.96 3.8-1.86 5.16-2.7Zm52.56-43.08 6.84 2.1a98.164 98.164 0 0 1-4.2 10.2c-1.6 3.4-3.36 6.64-5.28 9.72-1.88 3.04-3.84 5.72-5.88 8.04-.24-.6-.6-1.36-1.08-2.28-.44-.96-.92-1.92-1.44-2.88-.52-.96-1-1.74-1.44-2.34 1.72-1.84 3.34-3.96 4.86-6.36 1.56-2.44 2.98-5.04 4.26-7.8 1.32-2.76 2.44-5.56 3.36-8.4Zm-4.86 16.62 6.84-6.84v46.26h-6.84v-39.42Zm25.56-16.56h7.02v55.62h-7.02V203.3Zm-15.24 10.44h38.88v6.84h-38.88v-6.84Zm7.32 29.1h23.04v6.42h-23.04v-6.42Zm17.52-25.26c1.04 3.36 2.38 6.76 4.02 10.2a75.93 75.93 0 0 0 5.46 9.54c2 2.92 4.08 5.4 6.24 7.44-.84.6-1.8 1.44-2.88 2.52-1.04 1.08-1.88 2.1-2.52 3.06-2.16-2.4-4.22-5.28-6.18-8.64-1.96-3.36-3.72-6.98-5.28-10.86-1.56-3.92-2.9-7.86-4.02-11.82l5.16-1.44Zm-11.82-.6 5.22 1.44c-1.12 4.16-2.5 8.24-4.14 12.24-1.64 4-3.48 7.7-5.52 11.1-2.04 3.4-4.24 6.32-6.6 8.76-.4-.56-.9-1.18-1.5-1.86-.6-.72-1.24-1.4-1.92-2.04-.64-.64-1.22-1.16-1.74-1.56 2.32-2.04 4.5-4.56 6.54-7.56 2.08-3.04 3.94-6.32 5.58-9.84 1.68-3.56 3.04-7.12 4.08-10.68Zm36.84-4.2H867v40.38h-18.42v-6.3h11.94v-27.84h-11.94v-6.24Zm-4.2 0h6.54v44.82h-6.54v-44.82Zm3.96 16.02h15.3v6.24h-15.3v-6.24Zm4.62-25.8 7.8 1.14c-.64 2.04-1.34 4.06-2.1 6.06-.72 2-1.38 3.7-1.98 5.1l-5.76-1.32c.28-1.04.54-2.2.78-3.48.28-1.28.54-2.58.78-3.9.24-1.32.4-2.52.48-3.6Zm21.96 9.3h17.58v6.6h-17.58v-6.6Zm15.06 0h6.66v2.04c0 .52-.02.92-.06 1.2-.16 6.76-.36 12.5-.6 17.22-.2 4.68-.46 8.56-.78 11.64-.28 3.04-.62 5.42-1.02 7.14-.4 1.72-.92 2.98-1.56 3.78-.8 1.16-1.66 1.96-2.58 2.4-.92.44-1.98.76-3.18.96-1.16.16-2.6.22-4.32.18-1.68 0-3.4-.02-5.16-.06-.04-1-.28-2.18-.72-3.54-.44-1.32-.98-2.48-1.62-3.48 1.92.16 3.7.26 5.34.3 1.68.04 2.9.06 3.66.06.6 0 1.08-.06 1.44-.18.4-.16.78-.44 1.14-.84.52-.52.94-1.58 1.26-3.18.36-1.64.66-3.94.9-6.9.24-2.96.46-6.7.66-11.22.2-4.52.38-9.9.54-16.14v-1.38Zm-14.88-9.24 6.96 1.62c-.76 2.92-1.7 5.84-2.82 8.76a78.197 78.197 0 0 1-3.6 8.28c-1.28 2.56-2.6 4.8-3.96 6.72-.4-.4-.98-.86-1.74-1.38-.72-.56-1.46-1.1-2.22-1.62-.72-.52-1.36-.92-1.92-1.2 1.32-1.72 2.56-3.7 3.72-5.94a55.3 55.3 0 0 0 3.18-7.32c.96-2.64 1.76-5.28 2.4-7.92Zm-2.94 26.58 5.64-3.18c1 1.36 2.06 2.86 3.18 4.5a197.8 197.8 0 0 1 3.18 4.8c1 1.56 1.82 2.94 2.46 4.14l-6.12 3.72c-.56-1.24-1.32-2.66-2.28-4.26-.92-1.6-1.92-3.24-3-4.92-1.04-1.72-2.06-3.32-3.06-4.8Zm32.82-14.94c1.28.16 2.64.28 4.08.36 1.48.04 2.78.06 3.9.06 2.48 0 4.98-.14 7.5-.42 2.56-.28 5.02-.64 7.38-1.08 2.36-.48 4.5-1.02 6.42-1.62l.24 6.96c-1.72.44-3.78.9-6.18 1.38-2.36.44-4.86.82-7.5 1.14-2.64.28-5.24.42-7.8.42-1.2 0-2.42-.02-3.66-.06-1.24-.04-2.52-.1-3.84-.18l-.54-6.96Zm23.34-9c-.24 1-.56 2.3-.96 3.9-.4 1.6-.86 3.28-1.38 5.04-.48 1.76-1 3.5-1.56 5.22-.88 2.88-2.04 5.94-3.48 9.18-1.44 3.24-3 6.4-4.68 9.48-1.68 3.08-3.38 5.82-5.1 8.22l-7.26-3.72c1.36-1.68 2.7-3.54 4.02-5.58 1.32-2.04 2.56-4.14 3.72-6.3 1.16-2.16 2.2-4.24 3.12-6.24.96-2.04 1.72-3.88 2.28-5.52.76-2.12 1.42-4.48 1.98-7.08.6-2.64.94-5.12 1.02-7.44l8.28.84Zm14.04 18.66c-.08 1.28-.12 2.56-.12 3.84.04 1.24.08 2.52.12 3.84.04.92.08 2.1.12 3.54.08 1.4.16 2.9.24 4.5.08 1.56.14 3.06.18 4.5.08 1.4.12 2.52.12 3.36 0 1.84-.38 3.52-1.14 5.04-.76 1.48-1.98 2.66-3.66 3.54-1.64.88-3.9 1.32-6.78 1.32-2.48 0-4.72-.38-6.72-1.14-2-.72-3.6-1.8-4.8-3.24-1.2-1.48-1.8-3.32-1.8-5.52 0-1.96.52-3.72 1.56-5.28 1.04-1.6 2.54-2.84 4.5-3.72 2-.92 4.4-1.38 7.2-1.38 3.52 0 6.76.5 9.72 1.5 2.96.96 5.62 2.2 7.98 3.72 2.36 1.52 4.38 3.04 6.06 4.56l-4.02 6.42c-1.08-.96-2.32-2.04-3.72-3.24-1.36-1.2-2.9-2.32-4.62-3.36-1.68-1.04-3.52-1.9-5.52-2.58-1.96-.68-4.08-1.02-6.36-1.02-1.72 0-3.1.34-4.14 1.02-1.04.68-1.56 1.56-1.56 2.64 0 1.12.44 2.02 1.32 2.7.92.68 2.2 1.02 3.84 1.02 1.36 0 2.44-.22 3.24-.66.8-.48 1.36-1.14 1.68-1.98.32-.88.48-1.86.48-2.94 0-.92-.04-2.22-.12-3.9-.08-1.68-.18-3.54-.3-5.58l-.24-6.12c-.08-2.04-.16-3.84-.24-5.4h7.5Zm10.32 3.18c-1.16-.96-2.6-1.98-4.32-3.06-1.72-1.08-3.5-2.1-5.34-3.06-1.8-1-3.38-1.8-4.74-2.4l3.84-5.94c1.08.48 2.3 1.08 3.66 1.8 1.4.68 2.8 1.4 4.2 2.16 1.44.76 2.76 1.52 3.96 2.28 1.24.72 2.24 1.36 3 1.92l-4.26 6.3Zm30.84 7.5h31.5v24h-6.9v-17.46h-18v17.76h-6.6v-24.3Zm26.7-32.04 5.52 5.64c-2.92 1.12-6.16 2.1-9.72 2.94-3.56.8-7.22 1.46-10.98 1.98-3.72.52-7.36.94-10.92 1.26-.12-.84-.4-1.86-.84-3.06-.4-1.24-.8-2.26-1.2-3.06 2.56-.28 5.14-.6 7.74-.96 2.64-.36 5.2-.78 7.68-1.26 2.48-.48 4.8-1 6.96-1.56 2.16-.6 4.08-1.24 5.76-1.92Zm-14.4 6.78h6.84v29.04h-6.84v-29.04Zm-16.02 10.74h38.22v6.84H979.8v-6.84Zm8.46 29.82H1011v6.54h-22.74v-6.54ZM964.98 209l4.08-5.22c1.12.56 2.38 1.2 3.78 1.92s2.76 1.44 4.08 2.16c1.36.72 2.46 1.36 3.3 1.92l-4.26 5.82c-.8-.6-1.84-1.28-3.12-2.04s-2.62-1.54-4.02-2.34c-1.4-.84-2.68-1.58-3.84-2.22Zm-2.88 16.62 3.9-5.34c1.12.48 2.4 1.08 3.84 1.8s2.84 1.44 4.2 2.16c1.36.68 2.46 1.3 3.3 1.86l-4.02 6c-.8-.6-1.86-1.28-3.18-2.04-1.28-.76-2.64-1.54-4.08-2.34-1.44-.8-2.76-1.5-3.96-2.1Zm.9 28.2c1.08-1.52 2.26-3.3 3.54-5.34 1.32-2.08 2.66-4.28 4.02-6.6 1.36-2.36 2.64-4.7 3.84-7.02l5.28 4.8c-1.04 2.08-2.16 4.22-3.36 6.42-1.16 2.2-2.36 4.36-3.6 6.48-1.2 2.12-2.42 4.16-3.66 6.12l-6.06-4.86Zm69.66-46.8h36.78v6.9h-36.78v-6.9Zm0 13.86h36.9v6.72h-36.9v-6.72Zm-.12 14.16h37.26v6.78h-37.26v-6.78Zm-4.02-28.02h7.08v21.6c0 2.36-.1 4.94-.3 7.74-.2 2.8-.6 5.62-1.2 8.46-.56 2.8-1.42 5.48-2.58 8.04a24.56 24.56 0 0 1-4.44 6.84c-.36-.48-.9-1.02-1.62-1.62-.72-.6-1.46-1.18-2.22-1.74-.72-.56-1.34-1-1.86-1.32 1.64-1.8 2.94-3.78 3.9-5.94.96-2.2 1.66-4.46 2.1-6.78.48-2.36.78-4.7.9-7.02.16-2.36.24-4.6.24-6.72v-21.54Zm38.4 0h7.2v43.86c0 1.92-.24 3.4-.72 4.44-.48 1.08-1.34 1.9-2.58 2.46-1.2.56-2.74.92-4.62 1.08-1.88.16-4.2.22-6.96.18-.12-.96-.42-2.12-.9-3.48-.48-1.36-.96-2.5-1.44-3.42l3.48.12h5.04c.56 0 .94-.1 1.14-.3.24-.2.36-.58.36-1.14v-43.8Zm-19.92 2.76h7.26v48.84H1047v-48.84Zm35.82 2.88h54.42v6.84h-54.42v-6.84Zm20.04 14.7h22.98v6.78h-22.98v-6.78Zm20.28 0h7.44l-.06.6v1.26c0 .48-.04.9-.12 1.26-.36 5.48-.76 9.96-1.2 13.44-.44 3.48-.94 6.2-1.5 8.16-.56 1.92-1.24 3.32-2.04 4.2-.92 1-1.88 1.68-2.88 2.04-1 .36-2.2.62-3.6.78-1.16.12-2.68.16-4.56.12-1.88 0-3.82-.04-5.82-.12-.04-1.04-.3-2.24-.78-3.6-.48-1.32-1.08-2.48-1.8-3.48 2.08.2 4.08.32 6 .36 1.92.04 3.3.06 4.14.06.68 0 1.24-.04 1.68-.12.48-.12.9-.34 1.26-.66.64-.52 1.18-1.66 1.62-3.42.48-1.76.9-4.26 1.26-7.5s.68-7.34.96-12.3v-1.08Zm-22.98-10.62h8.04c-.16 3.2-.42 6.44-.78 9.72-.32 3.24-.88 6.46-1.68 9.66-.8 3.16-1.96 6.18-3.48 9.06-1.52 2.88-3.52 5.56-6 8.04-2.48 2.48-5.62 4.68-9.42 6.6-.52-1-1.28-2.08-2.28-3.24-.96-1.16-1.9-2.12-2.82-2.88 3.48-1.6 6.32-3.46 8.52-5.58 2.24-2.16 4-4.48 5.28-6.96 1.28-2.52 2.22-5.14 2.82-7.86a52.39 52.39 0 0 0 1.26-8.28c.24-2.8.42-5.56.54-8.28Zm5.76-13.98h7.5v12.6h-7.5v-12.6Zm52.62 24.3h38.94v6.84h-38.94v-6.84Zm3-15.42h33.06v6.9h-33.06v-6.9Zm12.54-8.64h7.44v29.04h-7.44V203Zm-15.48 46.68c2.68-.12 5.78-.26 9.3-.42 3.56-.16 7.32-.36 11.28-.6 4-.24 7.98-.46 11.94-.66l-.06 6.54c-3.72.28-7.48.58-11.28.9-3.76.32-7.38.6-10.86.84-3.44.24-6.58.48-9.42.72l-.9-7.32Zm22.98-8.28 6.18-3.3c1.52 1.76 3 3.68 4.44 5.76 1.48 2.08 2.82 4.14 4.02 6.18 1.2 2.04 2.1 3.92 2.7 5.64l-6.84 3.72c-.52-1.64-1.34-3.5-2.46-5.58-1.12-2.08-2.38-4.2-3.78-6.36-1.4-2.2-2.82-4.22-4.26-6.06Zm-12.18-9.48 8.04 2.1c-.88 2.28-1.84 4.62-2.88 7.02-1 2.4-2.02 4.68-3.06 6.84-1 2.16-1.96 4.08-2.88 5.76l-6.42-2.1c.64-1.32 1.3-2.78 1.98-4.38.68-1.64 1.34-3.34 1.98-5.1.68-1.76 1.28-3.5 1.8-5.22.56-1.76 1.04-3.4 1.44-4.92Zm-24.24-23.34 3.96-5.34c1.32.48 2.7 1.06 4.14 1.74 1.44.68 2.82 1.4 4.14 2.16 1.32.76 2.4 1.5 3.24 2.22l-4.2 5.88c-.8-.72-1.84-1.48-3.12-2.28a42.69 42.69 0 0 0-4.02-2.4c-1.44-.8-2.82-1.46-4.14-1.98Zm-3.42 16.32 3.72-5.46c1.28.44 2.66.98 4.14 1.62 1.48.64 2.88 1.32 4.2 2.04 1.36.68 2.46 1.34 3.3 1.98l-3.96 6.06c-.8-.68-1.86-1.4-3.18-2.16-1.28-.76-2.64-1.5-4.08-2.22-1.44-.72-2.82-1.34-4.14-1.86Zm1.62 29.04c1.04-1.52 2.16-3.32 3.36-5.4 1.24-2.08 2.48-4.28 3.72-6.6 1.28-2.32 2.48-4.64 3.6-6.96l5.4 4.62c-.96 2.08-2 4.22-3.12 6.42-1.08 2.16-2.2 4.3-3.36 6.42-1.12 2.12-2.24 4.16-3.36 6.12l-6.24-4.62Z"/>
    <path fill="#3B82F6" d="M360 780c99.411 0 180-80.589 180-180s-80.589-180-180-180-180 80.589-180 180 80.589 180 180 180Z"/>
    <path fill="#000" d="M374.303 557h-16.3v-45.5c.066-1.667.1-3.4.1-5.2.066-1.8.133-3.4.2-4.8-.534.4-1.234 1.133-2.1 2.2-.8 1.067-1.634 1.967-2.5 2.7l-7.5 6.6-8.2-9.1 22.3-18.3h14V557Z"/>
    <path fill="#fff" d="M323.56 593.812c-.216.456-.432.96-.648 1.512-.216.552-.396 1.02-.54 1.404-.216.6-.48 1.272-.792 2.016-.288.744-.6 1.5-.936 2.268a23.51 23.51 0 0 1-.972 2.052 28.965 28.965 0 0 1-1.728 2.952 37.789 37.789 0 0 1-2.16 2.988 19.263 19.263 0 0 1-2.376 2.448l-4.5-2.736a11.54 11.54 0 0 0 1.836-1.62c.6-.624 1.164-1.272 1.692-1.944a33.507 33.507 0 0 0 1.512-1.98 32.78 32.78 0 0 0 1.188-1.872 16.66 16.66 0 0 0 1.224-2.556c.36-.888.648-1.668.864-2.34.216-.6.384-1.224.504-1.872.144-.672.228-1.284.252-1.836l5.58 1.116Zm-5.688 5.544h19.008c.48 0 1.08-.012 1.8-.036.72-.048 1.368-.12 1.944-.216v4.932a19.599 19.599 0 0 0-2.088-.108 50.691 50.691 0 0 0-1.656-.036h-19.404l.396-4.536Zm14.04 2.592c-.048 2.664-.324 5.112-.828 7.344-.504 2.208-1.224 4.212-2.16 6.012a21.71 21.71 0 0 1-3.384 4.896 22.785 22.785 0 0 1-4.608 3.78l-4.86-3.276a16.799 16.799 0 0 0 1.872-.9c.6-.36 1.116-.72 1.548-1.08a18.875 18.875 0 0 0 2.844-2.7c.888-1.032 1.668-2.22 2.34-3.564.696-1.368 1.236-2.916 1.62-4.644.408-1.728.624-3.684.648-5.868h4.968Zm14.796 3.384c.432.024.984.06 1.656.108l2.088.072c.744.024 1.428.036 2.052.036h19.332c.84 0 1.632-.024 2.376-.072.744-.072 1.356-.12 1.836-.144v5.652l-1.836-.108a40.484 40.484 0 0 0-2.376-.072h-19.332c-1.032 0-2.088.024-3.168.072a55.86 55.86 0 0 0-2.628.108v-5.652Zm60.92-7.74c-.144.216-.36.552-.648 1.008a8.532 8.532 0 0 0-.612 1.26 60.37 60.37 0 0 1-1.872 3.78 45.857 45.857 0 0 1-2.484 4.212 40.573 40.573 0 0 1-2.916 3.924 60.512 60.512 0 0 1-4.464 4.5 49.356 49.356 0 0 1-5.112 4.068 39.384 39.384 0 0 1-5.472 3.168l-3.708-3.888a33.49 33.49 0 0 0 5.652-2.808 42.215 42.215 0 0 0 5.076-3.672c1.56-1.32 2.904-2.604 4.032-3.852a30.16 30.16 0 0 0 2.232-2.916 33.387 33.387 0 0 0 1.908-3.06c.552-1.032.96-1.98 1.224-2.844H388.26c-.504 0-1.032.024-1.584.072-.552.024-1.08.06-1.584.108-.48.024-.852.048-1.116.072v-5.112c.36.024.804.06 1.332.108a35.096 35.096 0 0 0 2.952.144h12.708c.792 0 1.512-.048 2.16-.144.672-.096 1.188-.204 1.548-.324l2.952 2.196Zm-8.064 11.196a50.711 50.711 0 0 1 2.988 2.592 93.62 93.62 0 0 1 3.132 3.06 78.511 78.511 0 0 1 2.844 3.06c.888.96 1.632 1.8 2.232 2.52l-4.104 3.564a54.614 54.614 0 0 0-3.06-3.816 77.282 77.282 0 0 0-3.6-3.924 69.86 69.86 0 0 0-3.816-3.744l3.384-3.312Zm-80.274 28.804c-.144.216-.36.552-.648 1.008a8.532 8.532 0 0 0-.612 1.26 60.37 60.37 0 0 1-1.872 3.78 45.857 45.857 0 0 1-2.484 4.212 40.573 40.573 0 0 1-2.916 3.924 60.512 60.512 0 0 1-4.464 4.5 49.356 49.356 0 0 1-5.112 4.068 39.384 39.384 0 0 1-5.472 3.168l-3.708-3.888a33.49 33.49 0 0 0 5.652-2.808 42.215 42.215 0 0 0 5.076-3.672c1.56-1.32 2.904-2.604 4.032-3.852a30.16 30.16 0 0 0 2.232-2.916 33.387 33.387 0 0 0 1.908-3.06c.552-1.032.96-1.98 1.224-2.844h-12.204c-.504 0-1.032.024-1.584.072-.552.024-1.08.06-1.584.108-.48.024-.852.048-1.116.072v-5.112c.36.024.804.06 1.332.108a35.096 35.096 0 0 0 2.952.144h12.708c.792 0 1.512-.048 2.16-.144.672-.096 1.188-.204 1.548-.324l2.952 2.196Zm-8.064 11.196a50.711 50.711 0 0 1 2.988 2.592 93.62 93.62 0 0 1 3.132 3.06 78.511 78.511 0 0 1 2.844 3.06c.888.96 1.632 1.8 2.232 2.52l-4.104 3.564a54.614 54.614 0 0 0-3.06-3.816 77.282 77.282 0 0 0-3.6-3.924 69.86 69.86 0 0 0-3.816-3.744l3.384-3.312Zm29.484-3.636a58.041 58.041 0 0 1 3.6 2.232c1.32.84 2.652 1.716 3.996 2.628 1.344.912 2.604 1.8 3.78 2.664a59.82 59.82 0 0 1 3.024 2.304l-3.42 4.068a60.12 60.12 0 0 0-2.952-2.484 75.76 75.76 0 0 0-3.744-2.916 126.663 126.663 0 0 0-3.996-2.88 81.074 81.074 0 0 0-3.492-2.34l3.204-3.276Zm16.92-6.12c-.216.336-.432.732-.648 1.188-.216.456-.396.912-.54 1.368-.36 1.104-.852 2.34-1.476 3.708a40.5 40.5 0 0 1-2.16 4.14c-.84 1.392-1.8 2.76-2.88 4.104-1.704 2.112-3.756 4.116-6.156 6.012-2.376 1.896-5.292 3.504-8.748 4.824l-4.176-3.636c2.52-.768 4.704-1.68 6.552-2.736 1.848-1.056 3.444-2.184 4.788-3.384 1.368-1.2 2.556-2.4 3.564-3.6a24.569 24.569 0 0 0 2.304-3.132 29.663 29.663 0 0 0 1.908-3.492c.552-1.176.936-2.22 1.152-3.132h-12.168l1.656-4.104h10.224c.576 0 1.14-.036 1.692-.108a8.43 8.43 0 0 0 1.44-.288l3.672 2.268Zm-11.88-5.544a36.868 36.868 0 0 0-1.296 2.016l-.936 1.656c-.816 1.44-1.848 2.976-3.096 4.608a47.522 47.522 0 0 1-4.212 4.716 35.791 35.791 0 0 1-4.896 4.104l-3.888-2.988c2.112-1.32 3.9-2.7 5.364-4.14 1.488-1.464 2.724-2.868 3.708-4.212.984-1.368 1.776-2.58 2.376-3.636.288-.432.588-1.008.9-1.728a14.43 14.43 0 0 0 .756-2.016l5.22 1.62Zm22.284 1.332c.576.096 1.212.168 1.908.216a28.37 28.37 0 0 0 1.944.072h11.772c.624 0 1.272-.024 1.944-.072.672-.048 1.32-.12 1.944-.216v4.644a25.36 25.36 0 0 0-1.944-.072 54.52 54.52 0 0 0-1.944-.036h-11.772c-.624 0-1.284.012-1.98.036-.696 0-1.32.024-1.872.072v-4.644Zm-4.176 9.216c.528.072 1.092.132 1.692.18.624.024 1.212.036 1.764.036h23.58c.384 0 .9-.012 1.548-.036a22.846 22.846 0 0 0 1.728-.18v4.68a14.68 14.68 0 0 0-1.584-.072 44.403 44.403 0 0 0-1.692-.036h-23.58c-.528 0-1.116.012-1.764.036a30.25 30.25 0 0 0-1.692.108v-4.716Zm18.432 2.52c0 2.328-.204 4.428-.612 6.3-.408 1.848-.996 3.516-1.764 5.004-.408.816-.984 1.656-1.728 2.52-.72.864-1.548 1.68-2.484 2.448a15.451 15.451 0 0 1-3.024 1.944l-4.212-3.06c1.272-.48 2.496-1.188 3.672-2.124 1.176-.96 2.124-1.968 2.844-3.024a12.147 12.147 0 0 0 1.836-4.572c.312-1.68.468-3.492.468-5.436h5.004Zm7.416-14.22c.312.432.636.948.972 1.548.36.6.696 1.2 1.008 1.8.336.6.624 1.128.864 1.584l-2.88 1.26a78.112 78.112 0 0 0-1.368-2.52 24.291 24.291 0 0 0-1.476-2.484l2.88-1.188Zm4.248-1.62c.312.456.648.996 1.008 1.62.36.6.708 1.2 1.044 1.8.36.576.648 1.068.864 1.476l-2.88 1.26c-.36-.768-.816-1.62-1.368-2.556a27.037 27.037 0 0 0-1.512-2.412l2.844-1.188Zm4.632 21.024a37.53 37.53 0 0 0 4.752-1.368 54.666 54.666 0 0 0 4.572-1.908 63.41 63.41 0 0 0 3.564-1.872 35.858 35.858 0 0 0 3.456-2.412 46.533 46.533 0 0 0 3.168-2.736c.96-.912 1.74-1.764 2.34-2.556l3.564 3.492c-.696.792-1.62 1.668-2.772 2.628a72.899 72.899 0 0 1-3.672 2.844 52.476 52.476 0 0 1-3.96 2.556 36.052 36.052 0 0 1-2.808 1.548 91.043 91.043 0 0 1-3.348 1.512c-1.152.48-2.316.936-3.492 1.368a93.26 93.26 0 0 1-3.24 1.152l-2.124-4.248Zm12.456-2.34 4.896-.936v14.22c.024.528.06 1.008.108 1.44.048.456.096.804.144 1.044h-5.328c.048-.24.072-.588.072-1.044.024-.432.048-.912.072-1.44.024-.528.036-.996.036-1.404V649.4Z"/>
    <path fill="#000" d="M262.752 825.12h2.432v4.672h-2.432v-4.672Zm-12.288 3.168h27.04v6.176h-2.464v-4.032h-22.208v4.032h-2.368v-6.176Zm2.72 5.856h21.856v2.016h-21.856v-2.016Zm-3.2 9.92h28.192v2.144h-28.192v-2.144Zm3.712-5.024h20.928v2.016h-20.928v-2.016Zm11.936 5.536c1.003 2.219 2.603 3.989 4.8 5.312 2.197 1.301 4.907 2.176 8.128 2.624a8.849 8.849 0 0 0-.832.992c-.277.427-.491.8-.64 1.12-2.261-.405-4.277-1.013-6.048-1.824-1.749-.811-3.253-1.856-4.512-3.136-1.259-1.28-2.283-2.805-3.072-4.576l2.176-.512Zm-2.944-13.12h2.432v8c0 1.088-.096 2.187-.288 3.296a11.433 11.433 0 0 1-1.056 3.296c-.533 1.088-1.312 2.144-2.336 3.168-1.024 1.003-2.379 1.952-4.064 2.848-1.664.917-3.744 1.749-6.24 2.496a3.322 3.322 0 0 0-.352-.64 8.486 8.486 0 0 0-.576-.704 8.188 8.188 0 0 0-.544-.608c2.411-.661 4.405-1.387 5.984-2.176 1.6-.811 2.869-1.664 3.808-2.56.96-.896 1.664-1.813 2.112-2.752.469-.96.768-1.92.896-2.88.149-.96.224-1.899.224-2.816v-7.968Zm32.096 6.816H305.6v2.016h-10.816v-2.016Zm-2.88 4.736h16.832v2.048h-16.832v-2.048Zm1.568-15.232h5.376v1.728h-5.376v-1.728Zm-.896 3.52.896-1.12c.683.341 1.387.757 2.112 1.248.725.469 1.28.907 1.664 1.312l-.896 1.28c-.427-.405-1.003-.864-1.728-1.376a16.87 16.87 0 0 0-2.048-1.344Zm-1.888 2.464.992-1.056c.683.448 1.387.96 2.112 1.536.725.555 1.269 1.045 1.632 1.472l-.992 1.184c-.405-.448-.96-.971-1.664-1.568a21.269 21.269 0 0 0-2.08-1.568Zm13.44 13.696 1.824-.992a25.663 25.663 0 0 1 1.664 1.92 24.962 24.962 0 0 1 1.504 2.048c.469.683.832 1.291 1.088 1.824l-1.92 1.088a16.182 16.182 0 0 0-1.056-1.824 31.686 31.686 0 0 0-1.472-2.112 25.242 25.242 0 0 0-1.632-1.952Zm-5.984-19.68h.384l.384-.096 1.344.512c-.469 2.155-1.163 4.107-2.08 5.856-.917 1.749-1.973 3.264-3.168 4.544-1.195 1.28-2.475 2.325-3.84 3.136a9.684 9.684 0 0 0-.608-.832c-.256-.341-.501-.597-.736-.768 1.259-.704 2.443-1.643 3.552-2.816 1.109-1.173 2.08-2.539 2.912-4.096a19.86 19.86 0 0 0 1.856-5.056v-.384Zm5.248-.128h5.568v1.824h-5.568v-1.824Zm-9.312-2.464 1.952.416a24.144 24.144 0 0 1-2.464 5.312c-1.024 1.643-2.144 3.029-3.36 4.16a4.89 4.89 0 0 0-.448-.384 6.611 6.611 0 0 0-.608-.48 4.38 4.38 0 0 0-.544-.384c1.237-1.045 2.325-2.315 3.264-3.808a21.034 21.034 0 0 0 2.208-4.832Zm14.048 2.464h.48l.384-.128 1.376.8a29.389 29.389 0 0 1-1.952 4.384c-.789 1.451-1.611 2.667-2.464 3.648a6.685 6.685 0 0 0-.672-.704 4.56 4.56 0 0 0-.704-.64c.491-.597.96-1.291 1.408-2.08.469-.789.885-1.611 1.248-2.464.384-.853.683-1.643.896-2.368v-.448Zm-9.024 16.288h2.272v8.096c0 .597-.075 1.056-.224 1.376-.149.32-.437.576-.864.768-.427.171-.992.267-1.696.288-.683.043-1.547.053-2.592.032a6.85 6.85 0 0 0-.32-1.024 8.935 8.935 0 0 0-.448-.992c.789.021 1.493.032 2.112.032s1.035-.011 1.248-.032c.192 0 .32-.043.384-.128.085-.064.128-.171.128-.32v-8.096Zm-5.504 2.624 2.112.576a19.05 19.05 0 0 1-1.92 3.424c-.768 1.109-1.547 2.048-2.336 2.816a3.208 3.208 0 0 0-.544-.416 13.316 13.316 0 0 1-.704-.48 6.998 6.998 0 0 0-.608-.352 14.583 14.583 0 0 0 2.272-2.528 16.079 16.079 0 0 0 1.728-3.04Zm8.064-20.8a31.656 31.656 0 0 0 1.984 5.92c.832 1.835 1.856 3.445 3.072 4.832a13.49 13.49 0 0 0 4.32 3.2 8.34 8.34 0 0 0-.8.864 5.323 5.323 0 0 0-.64.96 15.41 15.41 0 0 1-4.512-3.616c-1.28-1.493-2.357-3.232-3.232-5.216-.875-2.005-1.579-4.192-2.112-6.56l1.92-.384Zm-19.136.736h6.4v2.176h-4.256v25.888h-2.144v-28.064Zm5.728 0h.352l.32-.096 1.504.864c-.256.896-.523 1.856-.8 2.88a215.895 215.895 0 0 1-.864 3.04 74.939 74.939 0 0 1-.896 2.816c.917 1.365 1.515 2.645 1.792 3.84.299 1.195.448 2.304.448 3.328 0 .853-.085 1.611-.256 2.272-.171.661-.437 1.141-.8 1.44a1.896 1.896 0 0 1-.672.384 4.046 4.046 0 0 1-.8.192c-.235.021-.501.043-.8.064h-.896c0-.299-.043-.64-.128-1.024a3.055 3.055 0 0 0-.352-1.024c.256.021.501.043.736.064.235 0 .448-.011.64-.032.32 0 .587-.096.8-.288.192-.171.32-.469.384-.896.085-.448.128-.917.128-1.408 0-.896-.139-1.909-.416-3.04-.277-1.131-.875-2.347-1.792-3.648a83.94 83.94 0 0 0 .704-2.368 59.45 59.45 0 0 0 .64-2.464c.213-.811.405-1.579.576-2.304.171-.747.32-1.387.448-1.92v-.672Zm41.792 3.648a90.316 90.316 0 0 1-.832 5.216 46.487 46.487 0 0 1-1.248 5.28c-.64 2.197-1.355 4.032-2.144 5.504-.768 1.472-1.6 2.581-2.496 3.328-.896.747-1.835 1.12-2.816 1.12-.939 0-1.845-.341-2.72-1.024-.875-.683-1.589-1.664-2.144-2.944-.555-1.301-.832-2.827-.832-4.576 0-1.749.352-3.403 1.056-4.96a13.507 13.507 0 0 1 2.976-4.128c1.28-1.216 2.773-2.176 4.48-2.88 1.707-.704 3.531-1.056 5.472-1.056 1.877 0 3.563.309 5.056.928 1.515.619 2.805 1.472 3.872 2.56a11.107 11.107 0 0 1 2.464 3.744c.576 1.408.864 2.923.864 4.544 0 2.24-.48 4.213-1.44 5.92-.939 1.707-2.304 3.093-4.096 4.16-1.771 1.067-3.925 1.771-6.464 2.112l-1.504-2.368c.512-.064 1.003-.128 1.472-.192a15.9 15.9 0 0 0 1.28-.224 12.803 12.803 0 0 0 2.976-1.088 10.664 10.664 0 0 0 2.624-1.92 8.869 8.869 0 0 0 1.824-2.784c.469-1.088.704-2.325.704-3.712 0-1.301-.213-2.507-.64-3.616a8.526 8.526 0 0 0-1.888-2.976c-.832-.853-1.845-1.525-3.04-2.016-1.195-.491-2.56-.736-4.096-.736-1.749 0-3.339.32-4.768.96-1.408.64-2.613 1.483-3.616 2.528a11.411 11.411 0 0 0-2.272 3.392c-.533 1.216-.8 2.411-.8 3.584 0 1.344.171 2.453.512 3.328.363.853.789 1.483 1.28 1.888.512.405 1.013.608 1.504.608.512 0 1.035-.245 1.568-.736.533-.512 1.077-1.323 1.632-2.432.555-1.131 1.099-2.592 1.632-4.384a44.537 44.537 0 0 0 1.184-4.896c.341-1.728.587-3.424.736-5.088l2.688.032Zm26.496 11.968h15.968v12.256h-2.304V844.32h-11.424v10.208h-2.24v-12.416Zm14.784-16.864 1.92 1.856c-1.472.512-3.157.96-5.056 1.344a90.073 90.073 0 0 1-5.856.992 169.34 169.34 0 0 1-5.888.704 8.846 8.846 0 0 0-.32-1.024 8.82 8.82 0 0 0-.384-1.024c1.365-.149 2.784-.32 4.256-.512a113.75 113.75 0 0 0 4.288-.64 87.607 87.607 0 0 0 3.872-.8 28.02 28.02 0 0 0 3.168-.896Zm-7.84 2.752h2.272v15.392h-2.272V828Zm-9.248 6.496h20.384v2.304H354.24v-2.304Zm3.84 16.48h13.184v2.176H358.08v-2.176Zm-11.168-23.744 1.344-1.696c.661.299 1.365.651 2.112 1.056.768.405 1.504.811 2.208 1.216.704.384 1.28.725 1.728 1.024l-1.408 1.984a16.405 16.405 0 0 0-1.728-1.12 63.34 63.34 0 0 0-2.144-1.28 38.058 38.058 0 0 0-2.112-1.184Zm-1.568 8.8 1.312-1.76c.64.299 1.333.651 2.08 1.056.747.405 1.461.8 2.144 1.184.704.384 1.28.725 1.728 1.024l-1.344 1.984a26.874 26.874 0 0 0-1.664-1.056 155.55 155.55 0 0 0-2.144-1.248 38.058 38.058 0 0 0-2.112-1.184Zm.736 16.48A58.237 58.237 0 0 0 348 849.6a91.699 91.699 0 0 0 2.176-3.648 139.842 139.842 0 0 0 2.016-3.744l1.76 1.568a71.704 71.704 0 0 1-1.856 3.52 148.964 148.964 0 0 1-3.968 6.848l-2.048-1.632Zm36.192-25.152h20.704v2.304h-20.704v-2.304Zm0 7.456h20.64v2.272h-20.64v-2.272Zm-.192 7.648h20.896v2.272H382.08v-2.272Zm-1.184-15.104h2.368v11.616c0 1.216-.053 2.517-.16 3.904a33.012 33.012 0 0 1-.608 4.224 18.081 18.081 0 0 1-1.312 4.064 13.377 13.377 0 0 1-2.304 3.552 2.897 2.897 0 0 0-.512-.576l-.704-.576a2.918 2.918 0 0 0-.64-.416 12.223 12.223 0 0 0 2.112-3.264 18.28 18.28 0 0 0 1.152-3.616c.256-1.259.416-2.507.48-3.744.085-1.237.128-2.421.128-3.552V827.36Zm21.12 0h2.368v23.936c0 .768-.117 1.355-.352 1.76-.213.405-.587.715-1.12.928-.533.192-1.28.309-2.24.352-.96.043-2.197.053-3.712.032a9.062 9.062 0 0 0-.352-1.152 7.447 7.447 0 0 0-.48-1.152c.747.021 1.461.032 2.144.032.704.021 1.312.021 1.824 0h1.056c.32-.021.544-.085.672-.192s.192-.309.192-.608V827.36Zm-11.072.864h2.432v26.048h-2.432v-26.048Zm31.744-3.104h2.432v26.752c0 .725-.117 1.259-.352 1.6-.213.363-.576.629-1.088.8-.491.171-1.173.277-2.048.32-.853.043-1.952.064-3.296.064a6.038 6.038 0 0 0-.352-1.056 6.522 6.522 0 0 0-.512-.96c.64.021 1.259.032 1.856.032.619 0 1.152-.011 1.6-.032h.96c.299-.021.501-.085.608-.192.128-.107.192-.299.192-.576V825.12Zm-12.544 2.56h27.776v1.984h-27.776v-1.984Zm5.664 5.568v2.272h16.48v-2.272h-16.48Zm-2.304-1.696h21.216v5.664h-21.216v-5.664Zm-.928 7.936h22.656v11.616H432.8v-9.856h-20.224v-1.76Zm-3.04 4h29.024v1.92h-29.024v-1.92Zm2.752 4.32h21.76v1.888h-21.76v-1.888Zm37.504-21.056h11.648v2.144h-11.648v-2.144Zm3.136 6.688h6.144v2.144h-6.816l.672-2.144Zm-1.856 7.264 1.024-1.792c.619.384 1.227.811 1.824 1.28.619.469 1.195.928 1.728 1.376.555.448.992.853 1.312 1.216l-1.024 2.08a15.13 15.13 0 0 0-1.312-1.344 30.795 30.795 0 0 0-1.728-1.472 30.45 30.45 0 0 0-1.824-1.344Zm10.528-11.968h2.176v18.496H461.6v-18.496Zm5.856-3.104h2.24v25.888c0 .768-.096 1.344-.288 1.728-.192.384-.523.672-.992.864-.469.192-1.12.32-1.952.384-.811.064-1.845.096-3.104.096a11.5 11.5 0 0 0-.32-1.184 8.966 8.966 0 0 0-.48-1.184c.981.021 1.856.032 2.624.032.768.021 1.291.021 1.568 0 .256-.021.437-.085.544-.192.107-.085.16-.256.16-.512v-25.92Zm-14.528 1.856 2.304.352a74.877 74.877 0 0 1-.8 4.32 46.06 46.06 0 0 1-1.184 4.384 28.34 28.34 0 0 1-1.696 4.128 16.653 16.653 0 0 1-2.272 3.488 12.945 12.945 0 0 0-.416-.544 7.488 7.488 0 0 0-.544-.608 9.443 9.443 0 0 0-.512-.48 15.212 15.212 0 0 0 2.048-3.2 24.988 24.988 0 0 0 1.44-3.84c.405-1.365.736-2.731.992-4.096.256-1.365.469-2.667.64-3.904Zm5.216 5.952h.448l.384-.096 1.408.48c-.619 5.205-1.781 9.536-3.488 12.992-1.685 3.435-3.755 6.037-6.208 7.808a4.502 4.502 0 0 0-.448-.64 9.03 9.03 0 0 0-.608-.672 3.904 3.904 0 0 0-.544-.512c2.368-1.621 4.331-4 5.888-7.136 1.579-3.136 2.635-7.04 3.168-11.712v-.512Zm-10.688-8.192 2.208.64a52.162 52.162 0 0 1-2.144 5.44 48.175 48.175 0 0 1-2.656 5.12c-.96 1.6-1.963 3.008-3.008 4.224a5.248 5.248 0 0 0-.352-.704c-.149-.32-.309-.64-.48-.96a9.52 9.52 0 0 0-.448-.768 26.829 26.829 0 0 0 2.688-3.68 40.327 40.327 0 0 0 2.336-4.48 43.313 43.313 0 0 0 1.856-4.832Zm-2.592 7.872 2.176-2.144.064.064v23.52h-2.24v-21.44Z"/>
    <path stroke="#D1D5DB" stroke-width="8" d="M560 600h200"/>
    <path fill="#10B981" d="M960 780c99.41 0 180-80.589 180-180s-80.59-180-180-180c-99.411 0-180 80.589-180 180s80.589 180 180 180Z"/>
    <path fill="#000" d="M984.403 557h-47.8v-10.5l16.6-18.1c3.4-3.733 6.066-6.833 8-9.3 2-2.533 3.4-4.8 4.2-6.8.866-2.067 1.3-4.267 1.3-6.6 0-2.867-.7-5-2.1-6.4-1.334-1.4-3.067-2.1-5.2-2.1-2.334 0-4.667.633-7 1.9-2.267 1.267-4.767 3.067-7.5 5.4l-8.8-9.7c2-1.8 4.1-3.467 6.3-5s4.8-2.767 7.8-3.7c3-1 6.6-1.5 10.8-1.5 4.466 0 8.333.867 11.6 2.6 3.266 1.667 5.766 3.967 7.5 6.9 1.8 2.867 2.7 6.133 2.7 9.8 0 3-.434 5.733-1.3 8.2-.867 2.467-2.134 4.9-3.8 7.3-1.6 2.4-3.534 4.9-5.8 7.5-2.267 2.533-4.8 5.4-7.6 8.6l-7.2 8.1-.1.7h27.4V557Z"/>
    <path fill="#fff" d="M911.472 600.184h9.54v3.78h-9.54v-3.78Zm-1.944-6.984h4.104v26.748l-4.104.684V593.2Zm-2.484 25.884c1.176-.24 2.508-.528 3.996-.864 1.512-.36 3.108-.744 4.788-1.152 1.68-.408 3.348-.816 5.004-1.224l.504 4.032a366.808 366.808 0 0 1-8.964 2.52c-1.44.408-2.784.78-4.032 1.116l-1.296-4.428Zm8.928-5.76 3.456-1.692a36.15 36.15 0 0 1 2.232 3.312 40.005 40.005 0 0 1 1.98 3.492c.6 1.152 1.044 2.196 1.332 3.132l-3.816 1.908c-.24-.912-.636-1.956-1.188-3.132a51.963 51.963 0 0 0-1.872-3.6 40.198 40.198 0 0 0-2.124-3.42Zm-4.536-20.124h12.132v17.712h-12.132v-3.996h8.136v-9.72h-8.136V593.2Zm23.652-.072h4.5v21.816c0 1.032-.12 1.908-.36 2.628-.216.696-.648 1.248-1.296 1.656-.648.384-1.416.636-2.304.756-.864.096-1.884.144-3.06.144a11.665 11.665 0 0 0-.288-1.512 13.17 13.17 0 0 0-.54-1.728 12.773 12.773 0 0 0-.648-1.476c.696.048 1.368.072 2.016.072.672 0 1.14-.012 1.404-.036.216 0 .36-.036.432-.108.096-.096.144-.264.144-.504v-21.708Zm-9.504 0h11.844v4.356h-7.452v27.684h-4.392v-32.04Zm32.148-1.656h4.464v5.724h-4.464v-5.724Zm-13.176 3.096h30.852v7.74h-4.464v-3.96H948.84v3.96h-4.284v-7.74Zm3.24 6.66h24.732v3.492h-24.732v-3.492Zm-3.528 11.376h31.644v3.744h-31.644v-3.744Zm4.104-5.724h23.4v3.456h-23.4v-3.456Zm13.752 6.48c1.08 2.376 2.796 4.236 5.148 5.58 2.352 1.344 5.4 2.208 9.144 2.592-.432.456-.9 1.056-1.404 1.8-.48.744-.864 1.404-1.152 1.98-2.736-.432-5.1-1.116-7.092-2.052-1.992-.912-3.684-2.112-5.076-3.6-1.368-1.512-2.508-3.336-3.42-5.472l3.852-.828Zm-4.5-14.184h4.356v10.008c0 1.248-.132 2.496-.396 3.744a11.785 11.785 0 0 1-1.368 3.636c-.648 1.152-1.572 2.256-2.772 3.312-1.176 1.056-2.676 2.028-4.5 2.916-1.824.912-4.044 1.728-6.66 2.448a8.584 8.584 0 0 0-.72-1.152 19.923 19.923 0 0 0-.972-1.26 7.402 7.402 0 0 0-1.008-1.08c2.496-.576 4.584-1.224 6.264-1.944 1.704-.72 3.06-1.5 4.068-2.34 1.032-.84 1.812-1.716 2.34-2.628.528-.936.888-1.872 1.08-2.808.192-.96.288-1.932.288-2.916v-9.936Zm26.784-2.772v4.68h4.392v-4.68h-4.392Zm-3.636-3.6h11.916v11.916h-11.916v-11.916Zm4.644 10.44h3.78v16.56h-3.78v-16.56Zm-4.824 4.032h3.42v13.716h-3.42v-13.716Zm-1.62 12.492 4.14-.828c1.584-.336 3.24-.696 4.968-1.08 1.752-.408 3.492-.816 5.22-1.224l.396 3.744c-2.4.624-4.824 1.224-7.272 1.8-2.448.6-4.656 1.14-6.624 1.62l-.828-4.032Zm8.172-10.8h6.012v3.708h-6.012v-3.708Zm6.372-11.232 17.744-1.656.36 3.6-17.708 1.764-.396-3.708Zm1.044 5.544 15.91-1.548.4 3.492-15.914 1.656-.396-3.6Zm-.936 5.796 18.896-1.872.44 3.6-18.94 1.98-.396-3.708Zm4.824-17.604h4.352c-.07 3.048-.02 6.012.15 8.892.17 2.88.42 5.568.75 8.064.36 2.496.8 4.692 1.3 6.588.53 1.896 1.12 3.372 1.76 4.428.68 1.056 1.4 1.584 2.16 1.584.39 0 .68-.3.87-.9.19-.6.33-1.692.43-3.276.43.504.95.96 1.55 1.368.6.408 1.15.72 1.65.936-.21 1.608-.52 2.856-.93 3.744-.39.888-.89 1.5-1.51 1.836-.63.336-1.44.504-2.45.504-1.32 0-2.5-.444-3.53-1.332-1.01-.864-1.88-2.076-2.63-3.636-.72-1.56-1.33-3.408-1.83-5.544-.51-2.136-.916-4.452-1.228-6.948-.312-2.52-.54-5.16-.684-7.92-.12-2.76-.18-5.556-.18-8.388Zm5.362 2.412 2.34-2.592c.58.264 1.18.576 1.8.936.63.336 1.23.696 1.8 1.08.58.36 1.05.696 1.41 1.008l-2.45 2.88a8.59 8.59 0 0 0-1.33-1.116 35.29 35.29 0 0 0-1.8-1.152c-.63-.384-1.22-.732-1.77-1.044Zm4.03 17.892 3.64 1.656c-1.27 1.8-2.8 3.432-4.57 4.896-1.78 1.44-3.72 2.7-5.83 3.78a42.592 42.592 0 0 1-6.628 2.772c-.264-.552-.636-1.164-1.116-1.836a12.047 12.047 0 0 0-1.476-1.728c2.16-.6 4.248-1.344 6.264-2.232 2.036-.912 3.886-1.968 5.546-3.168 1.68-1.224 3.07-2.604 4.17-4.14Zm-130.604 22.612c.6.096 1.248.168 1.944.216.696.024 1.332.036 1.908.036h14.472c.624 0 1.272-.012 1.944-.036.672-.048 1.32-.12 1.944-.216v4.644a47.448 47.448 0 0 0-1.944-.108 54.52 54.52 0 0 0-1.944-.036h-14.436c-.624 0-1.296.012-2.016.036-.696.024-1.32.06-1.872.108v-4.644Zm-4.176 9.216c.528.048 1.092.096 1.692.144.624.048 1.212.072 1.764.072h23.58c.384 0 .9-.012 1.548-.036a22.846 22.846 0 0 0 1.728-.18v4.68a14.68 14.68 0 0 0-1.584-.072 44.403 44.403 0 0 0-1.692-.036h-23.58c-.528 0-1.116.012-1.764.036a30.25 30.25 0 0 0-1.692.108v-4.716Zm18.432 2.484c0 2.352-.204 4.464-.612 6.336-.408 1.848-.996 3.516-1.764 5.004-.432.816-1.008 1.656-1.728 2.52-.72.864-1.548 1.68-2.484 2.448a15.451 15.451 0 0 1-3.024 1.944l-4.212-3.06c1.272-.504 2.496-1.224 3.672-2.16 1.176-.936 2.124-1.932 2.844-2.988a12.476 12.476 0 0 0 1.836-4.608c.312-1.68.468-3.48.468-5.4l5.004-.036Zm46.872-6.48c-.192.336-.396.744-.612 1.224-.216.456-.408.912-.576 1.368-.312 1.056-.756 2.268-1.332 3.636a35.97 35.97 0 0 1-2.088 4.212 31.303 31.303 0 0 1-2.844 4.176c-1.728 2.064-3.744 3.936-6.048 5.616-2.28 1.68-5.112 3.192-8.496 4.536l-4.248-3.816c2.448-.72 4.56-1.548 6.336-2.484 1.776-.936 3.324-1.932 4.644-2.988a28.122 28.122 0 0 0 3.528-3.42 19.894 19.894 0 0 0 2.304-3.168 33.113 33.113 0 0 0 1.8-3.564c.504-1.176.84-2.208 1.008-3.096h-12.132l1.656-4.068h10.296c.552 0 1.104-.036 1.656-.108a7.139 7.139 0 0 0 1.476-.324l3.672 2.268Zm-11.736-5.688a26.45 26.45 0 0 0-1.26 2.016l-.936 1.656c-.816 1.44-1.824 2.94-3.024 4.5a40.833 40.833 0 0 1-4.032 4.5 42.307 42.307 0 0 1-4.824 3.96l-4.068-2.988c1.584-.984 2.976-1.992 4.176-3.024 1.224-1.032 2.28-2.052 3.168-3.06a30.579 30.579 0 0 0 2.268-2.952c.648-.96 1.2-1.812 1.656-2.556.288-.456.588-1.044.9-1.764.312-.744.552-1.416.72-2.016l5.256 1.728Zm21.492 3.636c.648.072 1.356.132 2.124.18a69.94 69.94 0 0 0 2.088.036h14.904c.72 0 1.44-.024 2.16-.072.72-.048 1.332-.096 1.836-.144v5.22a120.76 120.76 0 0 0-1.908-.072 33.745 33.745 0 0 0-2.088-.072h-14.868c-.696 0-1.428.012-2.196.036-.768.024-1.452.06-2.052.108v-5.22Zm-3.024 17.604c.72.048 1.464.096 2.232.144a37.55 37.55 0 0 0 2.268.072h20.664c.624 0 1.284-.012 1.98-.036.72-.048 1.38-.108 1.98-.18v5.508a25.026 25.026 0 0 0-2.052-.144 30.302 30.302 0 0 0-1.908-.072h-20.664c-.72 0-1.488.024-2.304.072-.792.024-1.524.072-2.196.144v-5.508Zm51.084-14.544c.168.384.384.936.648 1.656.288.696.588 1.452.9 2.268.312.792.588 1.548.828 2.268.24.72.432 1.284.576 1.692l-4.32 1.512a15.023 15.023 0 0 0-.504-1.728 87.586 87.586 0 0 0-.792-2.196 76.574 76.574 0 0 0-.864-2.268c-.288-.72-.54-1.32-.756-1.8l4.284-1.404Zm13.28 2.628c-.19.576-.36 1.068-.5 1.476-.12.408-.24.792-.36 1.152a35.747 35.747 0 0 1-1.87 5.472c-.79 1.8-1.8 3.492-3.03 5.076-1.68 2.16-3.58 3.996-5.72 5.508-2.112 1.488-4.224 2.628-6.336 3.42l-3.78-3.852c1.32-.36 2.712-.888 4.176-1.584a27.954 27.954 0 0 0 4.248-2.592 18.801 18.801 0 0 0 3.528-3.348c.814-1.032 1.534-2.208 2.164-3.528a25.418 25.418 0 0 0 1.58-4.284c.43-1.536.72-3.048.86-4.536l5.04 1.62Zm-21.632-.72c.24.456.504 1.044.792 1.764.312.72.624 1.476.936 2.268.312.792.612 1.56.9 2.304.312.744.552 1.368.72 1.872l-4.392 1.656c-.144-.48-.36-1.104-.648-1.872a52.215 52.215 0 0 0-.9-2.412 67.877 67.877 0 0 0-.972-2.376c-.288-.72-.54-1.272-.756-1.656l4.32-1.548Zm58.532-2.916c-.19.336-.39.744-.61 1.224-.21.456-.41.912-.57 1.368a36.61 36.61 0 0 1-1.34 3.636 35.543 35.543 0 0 1-2.08 4.212 31.737 31.737 0 0 1-2.85 4.176 33.719 33.719 0 0 1-6.05 5.616c-2.28 1.68-5.11 3.192-8.49 4.536l-4.25-3.816c2.45-.72 4.56-1.548 6.34-2.484 1.77-.936 3.32-1.932 4.64-2.988 1.32-1.08 2.5-2.22 3.53-3.42.84-.936 1.61-1.992 2.3-3.168.7-1.2 1.3-2.388 1.8-3.564.51-1.176.84-2.208 1.01-3.096h-12.13l1.65-4.068h10.3c.55 0 1.1-.036 1.66-.108.57-.072 1.06-.18 1.47-.324l3.67 2.268Zm-11.73-5.688a27.77 27.77 0 0 0-1.26 2.016c-.41.72-.72 1.272-.94 1.656-.81 1.44-1.82 2.94-3.02 4.5a41.43 41.43 0 0 1-4.03 4.5 42.544 42.544 0 0 1-4.83 3.96l-4.07-2.988c1.59-.984 2.98-1.992 4.18-3.024 1.22-1.032 2.28-2.052 3.17-3.06a31.277 31.277 0 0 0 2.27-2.952c.64-.96 1.2-1.812 1.65-2.556.29-.456.59-1.044.9-1.764.31-.744.55-1.416.72-2.016l5.26 1.728Z"/>
    <path fill="#000" d="M864.324 827.424c-.64.981-1.44 2.016-2.4 3.104a44.258 44.258 0 0 1-3.136 3.264 48.13 48.13 0 0 1-3.68 3.136 39.966 39.966 0 0 1-4 2.72 4.324 4.324 0 0 0-.416-.608c-.17-.235-.352-.469-.544-.704a4.762 4.762 0 0 0-.544-.576 34.48 34.48 0 0 0 4.064-2.72 45.584 45.584 0 0 0 3.744-3.232 43.486 43.486 0 0 0 3.232-3.456c.96-1.152 1.75-2.261 2.368-3.328h2.4a35.324 35.324 0 0 0 2.88 3.584A47.904 47.904 0 0 0 871.78 832a55.978 55.978 0 0 0 3.84 3.04 39.256 39.256 0 0 0 3.84 2.368 6.764 6.764 0 0 0-.864.992c-.277.363-.522.725-.736 1.088a49.936 49.936 0 0 1-3.808-2.56 62.847 62.847 0 0 1-3.744-3.04 54.672 54.672 0 0 1-3.36-3.264 32.3 32.3 0 0 1-2.624-3.2Zm-6.848 7.808h14.016v2.24h-14.016v-2.24Zm-4.128 6.272h19.424v2.304h-19.424v-2.304Zm18.944 0h.352l.448-.128 1.888.576a252.903 252.903 0 0 1-1.792 4 137.53 137.53 0 0 1-2.112 4.48 262.856 262.856 0 0 1-2.112 4.256l-2.496-.704c.512-.981 1.046-2.027 1.6-3.136a456.985 456.985 0 0 0 1.632-3.36 170.323 170.323 0 0 0 1.472-3.136c.448-.981.822-1.824 1.12-2.528v-.32Zm13.824-14.208h20.992v26.752h-2.56v-24.352H888.58v24.512h-2.464v-26.912Zm1.664 11.072h17.856v2.368H887.78v-2.368Zm-.064 11.36h17.952v2.4h-17.952v-2.4ZM926.5 827.04c-.064.277-.128.587-.192.928l-.192.96c-.064.384-.16.907-.288 1.568a201.88 201.88 0 0 1-.352 2.112 27.185 27.185 0 0 1-.448 2.08 75.91 75.91 0 0 1-.8 3.104c-.32 1.131-.682 2.336-1.088 3.616a72.537 72.537 0 0 1-1.376 3.936 63.103 63.103 0 0 1-1.696 3.968 35.314 35.314 0 0 1-2.016 3.68l-2.624-1.024c.747-.981 1.43-2.08 2.048-3.296a43.557 43.557 0 0 0 1.76-3.776 66.768 66.768 0 0 0 1.44-3.904c.448-1.28.822-2.464 1.12-3.552.299-1.088.534-2.027.704-2.816.299-1.28.544-2.603.736-3.968.192-1.387.288-2.699.288-3.936l2.976.32Zm11.008 3.392c.512.661 1.046 1.483 1.6 2.464a42.88 42.88 0 0 1 1.664 3.136 68.64 68.64 0 0 1 1.504 3.2 51.228 51.228 0 0 1 1.088 2.656l-2.496 1.184a33.337 33.337 0 0 0-.96-2.784 37.716 37.716 0 0 0-1.408-3.232 32.546 32.546 0 0 0-1.632-3.104c-.554-.981-1.12-1.803-1.696-2.464l2.336-1.056Zm-22.528 3.616c.491.043.96.064 1.408.064.448-.021.928-.043 1.44-.064.491-.021 1.11-.053 1.856-.096a198.18 198.18 0 0 1 2.432-.192c.896-.064 1.771-.128 2.624-.192a64.474 64.474 0 0 1 2.4-.192 21.894 21.894 0 0 1 1.76-.096c.96 0 1.824.149 2.592.448.79.299 1.419.843 1.888 1.632.47.789.704 1.899.704 3.328a47.49 47.49 0 0 1-.192 4.096 31.308 31.308 0 0 1-.576 4.16c-.277 1.323-.64 2.421-1.088 3.296-.49 1.088-1.13 1.803-1.92 2.144-.789.363-1.706.544-2.752.544-.597 0-1.248-.053-1.952-.16a15.067 15.067 0 0 1-1.824-.32l-.416-2.656c.47.128.939.245 1.408.352.491.107.96.181 1.408.224.448.043.822.064 1.12.064.576 0 1.099-.096 1.568-.288.491-.213.896-.661 1.216-1.344.342-.725.619-1.632.832-2.72.235-1.109.406-2.283.512-3.52a34.55 34.55 0 0 0 .192-3.552c0-1.003-.138-1.739-.416-2.208a2.081 2.081 0 0 0-1.184-.992c-.512-.192-1.109-.288-1.792-.288-.554 0-1.29.043-2.208.128-.917.064-1.898.149-2.944.256a197.8 197.8 0 0 0-2.88.32 63.518 63.518 0 0 0-3.488.416 44.54 44.54 0 0 0-1.472.192l-.256-2.784Zm40.224-7.136c.683.213 1.568.448 2.656.704 1.11.256 2.272.512 3.488.768a221.7 221.7 0 0 0 3.52.64c1.11.171 2.016.288 2.72.352l-.608 2.464a84.96 84.96 0 0 1-2.208-.352c-.853-.149-1.77-.32-2.752-.512-.981-.192-1.952-.384-2.912-.576-.96-.213-1.834-.405-2.624-.576-.789-.192-1.429-.352-1.92-.48l.64-2.432Zm-.704 5.824a65.824 65.824 0 0 0-.352 2.048c-.106.789-.224 1.621-.352 2.496a240.93 240.93 0 0 0-.352 2.496c-.106.789-.202 1.44-.288 1.952 1.558-1.344 3.2-2.325 4.928-2.944 1.75-.64 3.584-.96 5.504-.96 1.643 0 3.072.299 4.288.896 1.216.576 2.166 1.376 2.848 2.4.683 1.003 1.024 2.133 1.024 3.392 0 1.429-.33 2.731-.992 3.904-.64 1.152-1.653 2.123-3.04 2.912-1.365.789-3.114 1.344-5.248 1.664-2.133.341-4.693.384-7.68.128l-.768-2.624c3.392.405 6.198.395 8.416-.032 2.219-.448 3.872-1.195 4.96-2.24 1.11-1.067 1.664-2.325 1.664-3.776 0-.853-.245-1.611-.736-2.272-.49-.661-1.162-1.173-2.016-1.536-.832-.384-1.792-.576-2.88-.576-2.09 0-3.989.384-5.696 1.152-1.685.747-3.093 1.792-4.224 3.136a4.949 4.949 0 0 0-.576.832 6.547 6.547 0 0 0-.384.768l-2.368-.576c.128-.597.256-1.312.384-2.144a134.15 134.15 0 0 0 .736-5.664 80.782 80.782 0 0 0 .512-5.184l2.688.352Zm32.256-4.064h20.514v2.208h-20.514v-2.208Zm3.168 7.36v4.8h13.986v-4.8h-13.986Zm-2.24-2.016h18.526v8.864h-18.526v-8.864Zm2.016 9.504c1.003 1.685 2.368 3.136 4.096 4.352 1.75 1.216 3.787 2.208 6.112 2.976 2.352.768 4.912 1.301 7.682 1.6-.17.171-.35.384-.55.64-.19.256-.36.512-.51.768-.15.277-.27.533-.38.768-2.84-.427-5.44-1.088-7.81-1.984-2.368-.875-4.448-2.005-6.24-3.392a17.891 17.891 0 0 1-4.416-5.056l2.016-.672Zm5.952-18.272h2.336v14.144c0 1.237-.064 2.464-.192 3.68a15.035 15.035 0 0 1-.8 3.52 10.943 10.943 0 0 1-1.824 3.2c-.81 1.003-1.877 1.92-3.2 2.752-1.301.832-2.944 1.536-4.928 2.112a23.499 23.499 0 0 0-.416-.64c-.17-.235-.341-.48-.512-.736a2.536 2.536 0 0 0-.544-.608c1.92-.491 3.499-1.088 4.736-1.792 1.238-.704 2.208-1.493 2.912-2.368.726-.896 1.259-1.835 1.6-2.816.342-1.003.566-2.037.672-3.104a32.04 32.04 0 0 0 .16-3.2v-14.144Zm-10.272-.192 2.24.704a46.37 46.37 0 0 1-2.56 5.312 44.02 44.02 0 0 1-3.136 4.928 35.39 35.39 0 0 1-3.424 4.096 8.465 8.465 0 0 0-.384-.736 17.762 17.762 0 0 0-.48-.896 6.135 6.135 0 0 0-.48-.736 30.68 30.68 0 0 0 3.136-3.552 41.183 41.183 0 0 0 2.848-4.352 35.65 35.65 0 0 0 2.24-4.768Zm-3.36 8.352 2.24-2.272.064.032v23.52h-2.304v-21.28Zm36.45-6.656c.87.192 1.88.384 3.01.576 1.13.171 2.29.341 3.48.512 1.2.149 2.33.277 3.4.384 1.08.085 2 .16 2.75.224l-.35 2.368c-.79-.064-1.72-.16-2.79-.288-1.04-.128-2.14-.267-3.29-.416-1.16-.149-2.31-.309-3.46-.48-1.13-.192-2.19-.373-3.17-.544l.42-2.336Zm13.28 9.152c-.3.213-.62.459-.96.736-.34.277-.61.512-.8.704-.32.277-.76.672-1.31 1.184-.54.491-1.11 1.035-1.73 1.632-.6.576-1.17 1.12-1.73 1.632-.53.512-.95.928-1.25 1.248.17-.021.38-.021.61 0 .26 0 .47.021.64.064.62.064 1.12.299 1.5.704.41.405.72.939.93 1.6.11.299.22.661.32 1.088.13.427.26.864.39 1.312.12.427.24.821.35 1.184.21.597.52 1.035.93 1.312.4.277 1.02.416 1.85.416.73 0 1.45-.021 2.18-.064.75-.064 1.45-.149 2.11-.256.68-.107 1.27-.213 1.76-.32l-.16 2.688c-.45.064-1.03.128-1.76.192-.72.085-1.47.149-2.24.192-.75.064-1.42.096-2.02.096-1.28 0-2.32-.192-3.13-.576-.79-.384-1.36-1.099-1.7-2.144-.1-.32-.23-.715-.38-1.184-.13-.491-.26-.971-.39-1.44-.1-.469-.21-.853-.32-1.152-.19-.555-.45-.971-.8-1.248a1.62 1.62 0 0 0-1.15-.448c-.45 0-.86.107-1.25.32-.38.192-.75.469-1.12.832-.23.235-.55.555-.96.96-.4.384-.85.843-1.34 1.376-.47.512-.96 1.056-1.47 1.632-.51.555-1 1.109-1.47 1.664-.47.533-.89 1.035-1.25 1.504l-2.43-1.696c.19-.171.42-.373.7-.608.28-.256.58-.533.9-.832.21-.213.6-.608 1.18-1.184.58-.597 1.27-1.301 2.08-2.112.83-.811 1.71-1.675 2.62-2.592.92-.939 1.84-1.856 2.76-2.752.91-.917 1.76-1.771 2.52-2.56.79-.789 1.46-1.451 1.99-1.984-.49.021-1.09.064-1.79.128-.71.043-1.44.096-2.21.16s-1.53.128-2.27.192c-.75.064-1.44.117-2.08.16a38.9 38.9 0 0 0-1.51.128c-.53.043-1.01.096-1.44.16-.4.043-.79.096-1.15.16l-.22-2.816c.36.021.78.043 1.24.064.47.021.96.021 1.48 0 .36 0 .91-.021 1.66-.064.75-.043 1.59-.096 2.53-.16l2.88-.192c.96-.085 1.84-.16 2.65-.224.84-.064 1.49-.128 1.96-.192.27-.043.56-.096.86-.16.3-.064.52-.128.67-.192l1.54 1.728Zm15.38-7.488c.36.043.75.075 1.15.096.43.021.8.032 1.12.032.32 0 .85-.011 1.57-.032.75-.021 1.58-.043 2.5-.064.94-.043 1.86-.075 2.78-.096.94-.043 1.77-.085 2.5-.128l1.63-.096c.47-.043.83-.085 1.09-.128.25-.043.47-.085.64-.128l1.47 1.856c-.28.192-.58.395-.9.608-.3.213-.59.448-.89.704-.41.299-.95.736-1.63 1.312-.69.555-1.44 1.184-2.28 1.888-.81.683-1.61 1.355-2.4 2.016-.79.661-1.5 1.259-2.14 1.792.75-.256 1.49-.427 2.24-.512.77-.107 1.5-.16 2.21-.16 1.77 0 3.34.331 4.7.992 1.39.64 2.47 1.525 3.23 2.656.79 1.131 1.19 2.421 1.19 3.872 0 1.707-.45 3.2-1.35 4.48-.89 1.28-2.16 2.261-3.8 2.944-1.65.704-3.6 1.056-5.86 1.056-1.45 0-2.7-.192-3.74-.576-1.05-.384-1.86-.917-2.44-1.6a3.67 3.67 0 0 1-.83-2.368c0-.725.2-1.408.61-2.048.4-.64.98-1.152 1.73-1.536.74-.384 1.61-.576 2.59-.576 1.43 0 2.61.299 3.55.896a5.928 5.928 0 0 1 2.18 2.304c.51.939.8 1.952.86 3.04l-2.3.384c-.09-1.365-.51-2.485-1.28-3.36-.75-.896-1.76-1.344-3.04-1.344-.73 0-1.34.203-1.83.608-.49.405-.73.885-.73 1.44 0 .768.39 1.376 1.18 1.824.79.448 1.81.672 3.07.672 1.82 0 3.38-.245 4.71-.736 1.34-.491 2.37-1.205 3.07-2.144.72-.939 1.09-2.069 1.09-3.392 0-1.045-.31-1.984-.93-2.816-.62-.832-1.47-1.483-2.56-1.952-1.07-.491-2.29-.736-3.68-.736-1.34 0-2.55.149-3.62.448-1.06.277-2.07.683-3 1.216-.92.533-1.84 1.205-2.76 2.016-.89.789-1.85 1.696-2.88 2.72l-1.82-1.888c.66-.533 1.39-1.131 2.18-1.792.81-.683 1.62-1.355 2.43-2.016.81-.683 1.55-1.312 2.24-1.888.7-.597 1.29-1.088 1.76-1.472.45-.363 1-.821 1.66-1.376.68-.576 1.39-1.173 2.11-1.792.73-.619 1.41-1.205 2.05-1.76.66-.555 1.2-1.003 1.6-1.344-.34 0-.84.021-1.5.064-.66.021-1.4.053-2.21.096-.81.021-1.62.053-2.43.096-.79.043-1.52.085-2.18.128-.64.021-1.13.043-1.47.064-.34.021-.69.043-1.06.064-.36.021-.71.064-1.05.128l-.1-2.656Z"/>
    <path stroke="#D1D5DB" stroke-width="8" d="M1160 600h200"/>
    <path fill="#EF4444" d="M1560 780c99.41 0 180-80.589 180-180s-80.59-180-180-180-180 80.589-180 180 80.59 180 180 180Z"/>
    <path fill="#000" d="M1582 501.6c0 3.267-.66 6.1-2 8.5-1.33 2.4-3.1 4.367-5.3 5.9-2.2 1.533-4.66 2.667-7.4 3.4v.3c5.34.667 9.44 2.4 12.3 5.2 2.87 2.8 4.3 6.567 4.3 11.3 0 4.133-.96 7.867-2.9 11.2-1.93 3.267-4.93 5.867-9 7.8-4 1.867-9.2 2.8-15.6 2.8-4 0-7.56-.333-10.7-1a45.914 45.914 0 0 1-9-2.9v-12.8c2.94 1.533 5.94 2.7 9 3.5 3.14.8 6 1.2 8.6 1.2 4.74 0 8-.933 9.8-2.8 1.87-1.867 2.8-4.5 2.8-7.9 0-2-.43-3.667-1.3-5-.86-1.4-2.4-2.433-4.6-3.1-2.13-.733-5.23-1.1-9.3-1.1h-4.6v-11.6h4.7c3.8 0 6.74-.4 8.8-1.2 2.07-.867 3.5-2 4.3-3.4.87-1.467 1.3-3.133 1.3-5 0-2.533-.7-4.5-2.1-5.9-1.4-1.467-3.53-2.2-6.4-2.2-2.06 0-4 .3-5.8.9-1.8.533-3.4 1.2-4.8 2-1.33.8-2.43 1.567-3.3 2.3l-7-10.4a39.978 39.978 0 0 1 5.9-3.6c2.2-1.067 4.67-1.9 7.4-2.5 2.8-.6 5.97-.9 9.5-.9 6.94 0 12.4 1.5 16.4 4.5 4 2.933 6 7.1 6 12.5Z"/>
    <path fill="#fff" d="M1530.55 604.972h8.32v3.924h-8.32v-3.924Zm6.66 0h4.18v1.584c-.05 2.544-.11 4.632-.18 6.264-.07 1.608-.19 2.868-.36 3.78-.15.888-.35 1.512-.61 1.872-.36.456-.75.78-1.16.972a5.08 5.08 0 0 1-1.36.432c-.48.096-1.1.156-1.84.18-.72 0-1.51-.012-2.38-.036-.02-.624-.14-1.32-.36-2.088-.21-.768-.48-1.416-.79-1.944.65.048 1.25.084 1.8.108.58.024 1.01.036 1.3.036.24 0 .44-.024.61-.072.19-.072.35-.192.47-.36.17-.216.29-.66.36-1.332.09-.696.17-1.74.21-3.132.05-1.416.09-3.288.11-5.616v-.648Zm10.8-11.304 2.63-2.592c.67.336 1.38.732 2.12 1.188.75.456 1.46.912 2.13 1.368.69.456 1.26.9 1.69 1.332l-2.77 2.88c-.41-.408-.94-.864-1.59-1.368-.64-.504-1.34-.996-2.08-1.476-.75-.504-1.46-.948-2.13-1.332Zm4.25 9.288 4.39 1.044c-1.51 4.68-3.57 8.82-6.19 12.42-2.62 3.576-5.71 6.468-9.29 8.676-.19-.312-.48-.696-.86-1.152-.39-.432-.78-.876-1.19-1.332a24.82 24.82 0 0 0-1.08-1.08c3.46-1.872 6.38-4.392 8.78-7.56 2.4-3.192 4.22-6.864 5.44-11.016Zm-21.49-6.156h27.79v4.248h-27.79V596.8Zm-2.88 0h4.53v10.62c0 1.344-.04 2.82-.14 4.428-.1 1.584-.28 3.216-.54 4.896a27.938 27.938 0 0 1-1.19 4.788c-.5 1.536-1.16 2.916-1.98 4.14-.24-.312-.6-.66-1.08-1.044a57.48 57.48 0 0 0-1.4-1.152c-.46-.36-.85-.612-1.19-.756.91-1.44 1.57-3.048 1.98-4.824.43-1.8.71-3.612.83-5.436.12-1.824.18-3.516.18-5.076V596.8Zm14.61-5.364h4.54c-.05 2.952.04 5.844.25 8.676.22 2.832.53 5.484.94 7.956.43 2.448.93 4.62 1.51 6.516.58 1.872 1.21 3.336 1.91 4.392.69 1.056 1.4 1.584 2.12 1.584.41 0 .72-.492.94-1.476.24-.984.41-2.604.5-4.86.51.48 1.09.948 1.77 1.404.69.456 1.33.792 1.9 1.008-.21 2.232-.54 3.96-.97 5.184-.43 1.2-1.01 2.028-1.73 2.484-.72.456-1.64.684-2.77.684-1.29 0-2.47-.444-3.53-1.332-1.03-.888-1.95-2.124-2.77-3.708-.79-1.584-1.47-3.444-2.05-5.58-.58-2.136-1.06-4.452-1.44-6.948-.36-2.496-.64-5.088-.83-7.776-.17-2.712-.26-5.448-.29-8.208Zm19.44 18.936h32.22v3.924h-32.22v-3.924Zm13.86-15.84h4.58v30.708h-4.58v-30.708Zm-1.18 17.748 3.56 1.548c-1.13 1.488-2.47 2.904-4.03 4.248a33.633 33.633 0 0 1-4.97 3.6 32.96 32.96 0 0 1-5.4 2.592c-.22-.36-.5-.768-.86-1.224-.34-.432-.69-.852-1.05-1.26-.36-.432-.71-.804-1.04-1.116 1.34-.408 2.67-.9 3.99-1.476 1.32-.576 2.6-1.236 3.82-1.98a31.062 31.062 0 0 0 3.35-2.34c1.03-.84 1.91-1.704 2.63-2.592Zm6.55-.252c.74.864 1.64 1.716 2.7 2.556 1.05.816 2.21 1.596 3.45 2.34 1.25.72 2.55 1.38 3.89 1.98 1.35.6 2.68 1.092 4 1.476-.31.288-.66.648-1.05 1.08-.36.432-.7.876-1.04 1.332-.34.456-.61.876-.83 1.26a33.974 33.974 0 0 1-4.03-1.908 40.054 40.054 0 0 1-3.92-2.484 35.363 35.363 0 0 1-3.57-2.916c-1.1-1.032-2.09-2.1-2.95-3.204l3.35-1.512Zm-11.2-9.72v2.304h16.13v-2.304h-16.13Zm0-5.616v2.268h16.13v-2.268h-16.13Zm-4.5-3.6h25.35v15.12h-25.35v-15.12Zm-26.78 49.972v3.06h3.53v-3.06h-3.53Zm0 6.516v3.096h3.53v-3.096h-3.53Zm0-12.996v3.024h3.53v-3.024h-3.53Zm-3.64-3.744H1546v23.58h-10.95v-23.58Zm6.09 25.416 3.27-1.836c.46.552.93 1.164 1.41 1.836.5.672.96 1.332 1.36 1.98.44.648.78 1.224 1.05 1.728l-3.46 2.052c-.21-.504-.53-1.092-.93-1.764-.41-.672-.86-1.356-1.34-2.052-.45-.72-.91-1.368-1.36-1.944Zm-5.12-1.512 3.93 1.08a26.49 26.49 0 0 1-2.2 4.104c-.89 1.368-1.76 2.508-2.63 3.42-.26-.216-.61-.468-1.04-.756-.41-.288-.83-.564-1.26-.828-.43-.264-.8-.48-1.12-.648.87-.792 1.68-1.764 2.45-2.916.79-1.152 1.42-2.304 1.87-3.456Zm17.72-25.344h3.92v28.98c0 1.08-.12 1.932-.36 2.556-.22.624-.65 1.104-1.3 1.44-.62.336-1.42.552-2.41.648-.96.12-2.15.18-3.56.18-.07-.576-.23-1.272-.47-2.088-.24-.792-.49-1.476-.76-2.052.92.024 1.77.048 2.56.072h1.62c.29-.024.48-.084.58-.18.12-.12.18-.312.18-.576V631.4Zm-5.94 3.708h3.7v20.88h-3.7v-20.88Zm-21.42-.252 2.44-3.132c.65.264 1.34.588 2.06.972.74.384 1.44.792 2.08 1.224.68.408 1.22.804 1.62 1.188l-2.59 3.456c-.36-.408-.86-.828-1.51-1.26-.62-.456-1.3-.9-2.02-1.332-.72-.432-1.41-.804-2.08-1.116Zm-1.37 9.648 2.37-3.204c.68.264 1.37.576 2.09.936.75.336 1.44.708 2.09 1.116.67.384 1.21.756 1.62 1.116l-2.52 3.492c-.38-.36-.9-.756-1.55-1.188-.62-.432-1.29-.84-2.01-1.224-.72-.408-1.42-.756-2.09-1.044Zm.61 18.108c.46-.936.95-2.04 1.48-3.312.55-1.272 1.1-2.616 1.65-4.032a70.8 70.8 0 0 0 1.55-4.248l3.49 2.232a72.082 72.082 0 0 1-1.29 3.96c-.48 1.32-.98 2.628-1.48 3.924-.5 1.272-1.01 2.508-1.51 3.708l-3.89-2.232Zm42.41-20.34h19.91v4.14h-19.91v-4.14Zm9.97 8.64h12.13v4.068H1578v-4.068Zm-2.27-6.228h4.5v17.388l-4.5-.54v-16.848Zm-8.6 3.708 4.5.468c-.48 3.672-1.3 6.912-2.45 9.72-1.15 2.808-2.76 5.1-4.82 6.876a14.27 14.27 0 0 0-1.01-.972c-.43-.384-.89-.756-1.37-1.116-.46-.36-.85-.648-1.19-.864 1.95-1.44 3.41-3.372 4.39-5.796.99-2.448 1.64-5.22 1.95-8.316Zm3.49 4.536c.55 1.632 1.27 2.964 2.16 3.996a9.412 9.412 0 0 0 3.13 2.304c1.2.504 2.51.852 3.93 1.044 1.41.192 2.91.288 4.5.288h6.22c.84-.024 1.62-.036 2.34-.036.72-.024 1.32-.048 1.8-.072-.21.36-.43.804-.64 1.332-.2.504-.38 1.032-.54 1.584a10.71 10.71 0 0 0-.36 1.512h-9.04c-2.09 0-4.01-.144-5.76-.432-1.75-.288-3.34-.816-4.75-1.584-1.39-.744-2.64-1.824-3.75-3.24-1.08-1.416-2-3.264-2.77-5.544l3.53-1.152Zm5.04-21.456h4.61v6.552h-4.61v-6.552Zm-13.1 3.636h30.92v9.036h-4.43v-4.968h-22.25v4.968h-4.24v-9.036Z"/>
    <path fill="#000" d="M1465.5 829.536h15.62v2.176h-15.62v-2.176Zm6.79-4.352h2.37v5.184h-2.37v-5.184Zm-3.01 7.648 2.3.576a24.647 24.647 0 0 1-2.17 4.032c-.86 1.323-1.73 2.453-2.63 3.392a5.31 5.31 0 0 0-.57-.48 16 16 0 0 0-.71-.544 5.194 5.194 0 0 0-.64-.416c.92-.832 1.76-1.824 2.53-2.976a18.103 18.103 0 0 0 1.89-3.584Zm6.21 5.408 2.37.512c-1.05 3.541-2.52 6.635-4.42 9.28-1.88 2.624-4.16 4.779-6.85 6.464a7.01 7.01 0 0 0-.48-.608c-.19-.235-.4-.469-.64-.704-.21-.235-.4-.427-.57-.576a20.445 20.445 0 0 0 6.59-5.856c1.77-2.453 3.1-5.291 4-8.512Zm-.07-4.64 1.86-.96c.53.619 1.07 1.291 1.6 2.016.53.704 1 1.408 1.41 2.112.42.704.76 1.344.99 1.92l-2.02 1.12c-.21-.576-.52-1.227-.92-1.952-.41-.725-.87-1.451-1.38-2.176-.51-.747-1.02-1.44-1.54-2.08Zm-7.16 7.68 1.4-1.632c1.2.875 2.43 1.845 3.68 2.912a62.296 62.296 0 0 1 3.52 3.2c1.09 1.045 1.96 1.995 2.6 2.848l-1.51 1.952c-.64-.875-1.5-1.856-2.59-2.944a57.472 57.472 0 0 0-3.46-3.296 61.577 61.577 0 0 0-3.64-3.04Zm12.44-8.768h11.88v2.272h-11.88v-2.272Zm10.95 0h2.24v1.184c-.09 3.392-.17 6.251-.26 8.576-.06 2.325-.16 4.235-.29 5.728-.12 1.472-.27 2.603-.44 3.392-.17.789-.39 1.365-.64 1.728-.3.405-.62.693-.96.864-.32.171-.74.277-1.25.32-.47.064-1.08.085-1.83.064-.72 0-1.48-.011-2.27-.032a5.017 5.017 0 0 0-.22-1.184c-.11-.427-.27-.8-.48-1.12.85.064 1.62.107 2.3.128.71.021 1.22.032 1.54.032.25 0 .47-.032.64-.096.19-.064.36-.192.51-.384.19-.256.36-.757.51-1.504.15-.768.28-1.867.39-3.296.1-1.451.19-3.307.25-5.568.09-2.261.17-5.024.26-8.288v-.544Zm-6.88-7.072h2.3c-.02 2.411-.06 4.779-.13 7.104a75.315 75.315 0 0 1-.41 6.688c-.22 2.133-.58 4.16-1.09 6.08-.49 1.899-1.18 3.637-2.08 5.216-.87 1.557-2.02 2.944-3.42 4.16-.2-.277-.47-.587-.84-.928-.36-.32-.69-.576-.99-.768a13.425 13.425 0 0 0 3.27-3.84c.85-1.493 1.51-3.136 1.98-4.928.47-1.792.8-3.691.99-5.696.19-2.027.31-4.139.35-6.336.05-2.219.07-4.469.07-6.752Zm13.21 16.672h28.07v2.208h-28.07v-2.208Zm12.77-14.656h2.53v27.104h-2.53v-27.104Zm-.86 15.584 2.01.896c-1 1.344-2.21 2.635-3.64 3.872a32.668 32.668 0 0 1-4.61 3.328c-1.62.96-3.23 1.749-4.83 2.368-.13-.192-.29-.416-.48-.672-.2-.256-.4-.501-.61-.736a7.474 7.474 0 0 0-.58-.576c1.2-.384 2.4-.875 3.62-1.472a32.31 32.31 0 0 0 3.52-2.016 23.82 23.82 0 0 0 3.13-2.4c.96-.853 1.79-1.717 2.47-2.592Zm4.09-.096c.71.875 1.55 1.728 2.53 2.56 1 .832 2.08 1.621 3.23 2.368 1.16.725 2.34 1.387 3.56 1.984 1.23.597 2.43 1.088 3.58 1.472-.17.149-.36.352-.58.608-.21.235-.41.48-.6.736-.17.256-.32.48-.45.672a35.898 35.898 0 0 1-3.62-1.696 40.726 40.726 0 0 1-3.58-2.272 37.303 37.303 0 0 1-3.27-2.656 25.416 25.416 0 0 1-2.68-2.912l1.88-.864Zm-10.43-8.96v3.328h16.99v-3.328h-16.99Zm0-5.248V832h16.99v-3.264h-16.99Zm-2.46-2.08h22.05v12.736h-22.05v-12.736Zm44.96 3.488a97.746 97.746 0 0 1-.83 5.216 46.922 46.922 0 0 1-1.25 5.28c-.64 2.197-1.36 4.032-2.15 5.504-.76 1.472-1.6 2.581-2.49 3.328-.9.747-1.84 1.12-2.82 1.12-.94 0-1.84-.341-2.72-1.024-.87-.683-1.59-1.664-2.14-2.944-.56-1.301-.83-2.827-.83-4.576 0-1.749.35-3.403 1.05-4.96a13.587 13.587 0 0 1 2.98-4.128 14.379 14.379 0 0 1 4.48-2.88c1.7-.704 3.53-1.056 5.47-1.056 1.88 0 3.56.309 5.06.928 1.51.619 2.8 1.472 3.87 2.56a11.111 11.111 0 0 1 2.46 3.744c.58 1.408.87 2.923.87 4.544 0 2.24-.48 4.213-1.44 5.92-.94 1.707-2.31 3.093-4.1 4.16-1.77 1.067-3.93 1.771-6.46 2.112l-1.51-2.368c.51-.064 1-.128 1.47-.192s.9-.139 1.28-.224c1.03-.235 2.02-.597 2.98-1.088.98-.512 1.86-1.152 2.62-1.92a8.884 8.884 0 0 0 1.83-2.784c.47-1.088.7-2.325.7-3.712 0-1.301-.21-2.507-.64-3.616a8.321 8.321 0 0 0-1.89-2.976c-.83-.853-1.84-1.525-3.04-2.016-1.19-.491-2.56-.736-4.09-.736-1.75 0-3.34.32-4.77.96-1.41.64-2.61 1.483-3.62 2.528a11.559 11.559 0 0 0-2.27 3.392c-.53 1.216-.8 2.411-.8 3.584 0 1.344.17 2.453.51 3.328.37.853.79 1.483 1.28 1.888.52.405 1.02.608 1.51.608.51 0 1.03-.245 1.57-.736.53-.512 1.07-1.323 1.63-2.432.55-1.131 1.1-2.592 1.63-4.384.47-1.536.86-3.168 1.18-4.896.35-1.728.59-3.424.74-5.088l2.69.032Zm37.85-2.048h2.5v23.008c0 .853-.13 1.504-.38 1.952-.24.469-.68.811-1.32 1.024-.61.213-1.49.331-2.62.352-1.11.043-2.46.064-4.06.064a4.935 4.935 0 0 0-.26-.832c-.11-.299-.22-.608-.35-.928-.13-.32-.26-.597-.39-.832.86.043 1.69.075 2.5.096h3.46c.34-.043.57-.117.7-.224.15-.128.22-.363.22-.704v-22.976Zm-18.84 6.4h2.33v14.528h-2.33v-14.528Zm.99 0h12.13v11.968h-12.13v-2.304h9.76v-7.36h-9.76v-2.304Zm-4.26-7.104h28.55v2.4h-28.55v-2.4Zm52.77 16.704h2.21v7.296c0 .384.05.629.16.736.1.107.34.16.7.16h2.43c.26 0 .44-.085.55-.256.13-.171.21-.533.25-1.088.07-.555.11-1.387.13-2.496.15.107.34.224.58.352.23.107.48.203.73.288.26.085.48.16.68.224-.07 1.344-.2 2.379-.39 3.104-.17.725-.44 1.227-.8 1.504-.36.277-.85.416-1.47.416h-2.98c-.74 0-1.32-.096-1.72-.288a1.447 1.447 0 0 1-.84-.896c-.15-.427-.22-1.013-.22-1.76v-7.296Zm-5.22-10.112v3.392h8.93v-3.392h-8.93Zm0 5.312v3.392h8.93v-3.392h-8.93Zm0-10.56v3.36h8.93v-3.36h-8.93Zm-2.24-1.984h13.48v17.92h-13.48v-17.92Zm2.66 17.248h2.3c-.17 1.664-.49 3.168-.96 4.512a9.232 9.232 0 0 1-2.2 3.52c-.99 1.024-2.37 1.867-4.16 2.528a5.258 5.258 0 0 0-.39-.608 7.78 7.78 0 0 0-.51-.704 2.902 2.902 0 0 0-.51-.512c1.6-.555 2.84-1.248 3.71-2.08a7.362 7.362 0 0 0 1.89-2.912c.4-1.131.68-2.379.83-3.744Zm-15.97-12.864h9.99v2.176h-9.99v-2.176Zm4.67 9.536 2.34-2.784v16.672h-2.34v-13.888Zm0-15.552h2.34v7.104h-2.34v-7.104Zm2.34 13.088c.26.192.63.512 1.12.96.51.448 1.05.949 1.6 1.504.58.533 1.1 1.024 1.57 1.472.49.448.84.779 1.05.992l-1.47 1.984c-.28-.363-.65-.8-1.12-1.312-.45-.512-.94-1.045-1.47-1.6a48.27 48.27 0 0 0-1.54-1.536c-.47-.491-.86-.885-1.18-1.184l1.44-1.28Zm2.14-7.072h.48l.45-.096 1.35.864a28.792 28.792 0 0 1-2.98 5.6 33.886 33.886 0 0 1-4.03 4.896c-1.45 1.451-2.9 2.677-4.35 3.68a6.556 6.556 0 0 0-.36-.768c-.15-.277-.29-.544-.44-.8-.15-.256-.3-.459-.45-.608 1.38-.853 2.75-1.931 4.09-3.232a27.589 27.589 0 0 0 3.68-4.288c1.09-1.557 1.95-3.147 2.56-4.768v-.48Zm36.61-5.248h2.43v23.776c0 .597.06 1.056.16 1.376.11.299.31.512.61.64.32.107.78.16 1.38.16h6.27c.6 0 1.03-.16 1.31-.48.3-.341.51-.939.64-1.792.15-.853.26-2.048.32-3.584.3.213.66.427 1.09.64.45.192.84.32 1.18.384-.1 1.749-.29 3.147-.57 4.192-.26 1.024-.68 1.76-1.28 2.208-.58.448-1.43.672-2.56.672h-6.59c-1.11 0-1.99-.128-2.63-.384-.64-.256-1.1-.715-1.37-1.376-.26-.64-.39-1.547-.39-2.72v-23.712Zm12.03 5.312 1.73 2.048a36.605 36.605 0 0 1-3.61 2.656 82.77 82.77 0 0 1-4.23 2.496c-1.45.811-2.88 1.579-4.29 2.304-.08-.277-.23-.587-.44-.928-.2-.363-.38-.683-.55-.96a83.513 83.513 0 0 0 4.16-2.368 64.528 64.528 0 0 0 4-2.624c1.26-.917 2.34-1.792 3.23-2.624Zm-17.56-5.6 2.33.8a45.707 45.707 0 0 1-2.85 5.472 47.003 47.003 0 0 1-3.52 5.056 31.89 31.89 0 0 1-3.87 4.128c-.06-.213-.19-.469-.38-.768-.17-.299-.35-.597-.55-.896-.19-.32-.36-.576-.51-.768 1.24-1.024 2.43-2.219 3.59-3.584a36.534 36.534 0 0 0 3.23-4.48 38.38 38.38 0 0 0 2.53-4.96Zm-3.68 8.384 2.36-2.368.04.064v22.816h-2.4v-20.512Z"/>
  </g>
  <defs>
    <clipPath id="a">
      <path fill="#fff" d="M0 0h1920v1080H0z"/>
    </clipPath>
  </defs>
</svg>
