<svg xmlns="http://www.w3.org/2000/svg" width="1920" height="1080" fill="none" viewBox="0 0 1920 1080">
  <g clip-path="url(#a)">
    <path fill="#fff" d="M1920 0H0v1080h1920V0Z"/>
    <path fill="#000" d="M608.092 41.84c-.106.747-.213 1.68-.32 2.8a63.587 63.587 0 0 0-.24 3.36c-.053 1.12-.106 2.187-.16 3.2-.053 1.92-.08 4-.08 6.24.054 2.24.08 4.507.08 6.8 0 2.24.054 4.88.16 7.92.16 2.987.347 6.08.56 9.28.214 3.2.374 6.187.48 8.96.16 2.72.24 4.933.24 6.64 0 1.76-.266 3.467-.8 5.12-.533 1.653-1.44 3.12-2.72 4.4-1.28 1.333-3.013 2.373-5.2 3.12-2.186.8-4.96 1.2-8.32 1.2-3.786 0-7.28-.48-10.48-1.44-3.146-.907-5.653-2.427-7.52-4.56-1.866-2.133-2.8-5.013-2.8-8.64 0-2.773.8-5.28 2.4-7.52 1.6-2.293 4-4.107 7.2-5.44 3.254-1.333 7.334-2 12.24-2 4.16 0 8.187.48 12.08 1.44 3.947.96 7.627 2.213 11.04 3.76 3.467 1.493 6.587 3.2 9.36 5.12 2.827 1.867 5.254 3.76 7.28 5.68l-6.16 9.52c-1.973-1.973-4.24-3.947-6.8-5.92-2.506-1.973-5.253-3.76-8.24-5.36-2.986-1.6-6.186-2.88-9.6-3.84-3.36-1.013-6.853-1.52-10.48-1.52-3.093 0-5.546.507-7.36 1.52-1.76.96-2.64 2.32-2.64 4.08 0 1.973.907 3.36 2.72 4.16 1.814.8 4.134 1.2 6.96 1.2 2.507 0 4.294-.587 5.36-1.76 1.067-1.227 1.6-3.173 1.6-5.84 0-1.387-.053-3.307-.16-5.76-.106-2.507-.213-5.2-.32-8.08-.106-2.933-.213-5.76-.32-8.48-.106-2.72-.16-5.04-.16-6.96v-9.2c0-1.44-.026-2.72-.08-3.84a73.779 73.779 0 0 0-.24-3.76 49.072 49.072 0 0 0-.24-3.2c-.053-.96-.186-1.76-.4-2.4h12.08Zm-6.16 15.28h5.04a434.04 434.04 0 0 0 7.2-.24c2.667-.107 5.334-.24 8-.4 2.72-.213 5.227-.427 7.52-.64l.32 9.52c-2.24.213-4.72.4-7.44.56-2.72.16-5.413.293-8.08.4-2.666.053-5.12.107-7.36.16-2.186.053-3.893.08-5.12.08l-.08-9.44Zm99.28-8.8a64.009 64.009 0 0 0-3.76 2.88 71.81 71.81 0 0 0-3.2 2.64 253.166 253.166 0 0 0-4.8 3.76 2434.89 2434.89 0 0 1-5.76 4.56 751.802 751.802 0 0 0-5.76 4.56 136.62 136.62 0 0 0-4.8 4c-1.386 1.227-2.32 2.24-2.8 3.04-.48.747-.48 1.493 0 2.24.534.747 1.52 1.76 2.96 3.04a261.636 261.636 0 0 0 4.48 3.76 261.42 261.42 0 0 1 6 4.96c2.187 1.76 4.4 3.6 6.64 5.52a178.467 178.467 0 0 1 6.56 5.6 118.717 118.717 0 0 1 5.68 5.12l-9.36 8.56a225.077 225.077 0 0 0-6.96-7.44c-1.226-1.227-2.826-2.72-4.8-4.48a183.545 183.545 0 0 0-6.32-5.68c-2.24-1.973-4.48-3.92-6.72-5.84a503.744 503.744 0 0 0-6.08-5.28c-2.666-2.24-4.4-4.293-5.2-6.16-.746-1.867-.64-3.707.32-5.52 1.014-1.867 2.854-3.893 5.52-6.08a233.23 233.23 0 0 0 5.44-4.32 817.073 817.073 0 0 1 6.24-5.2c2.134-1.813 4.16-3.547 6.08-5.2 1.92-1.707 3.547-3.2 4.88-4.48a222.092 222.092 0 0 0 3.52-3.6c1.174-1.227 2.054-2.293 2.64-3.2l9.36 8.24Zm60.96-6.72-.64 2.24c-.16.693-.32 1.36-.48 2-.48 2.507-.933 5.387-1.36 8.64-.426 3.2-.773 6.56-1.04 10.08-.266 3.467-.4 6.88-.4 10.24 0 4.16.214 8 .64 11.52.427 3.467 1.014 6.693 1.76 9.68a143.63 143.63 0 0 0 2.56 8.4l-9.2 2.8c-.8-2.4-1.573-5.253-2.32-8.56a134.32 134.32 0 0 1-1.76-10.64c-.48-3.84-.72-7.707-.72-11.6 0-2.667.08-5.333.24-8 .214-2.72.427-5.387.64-8 .214-2.667.454-5.2.72-7.6.32-2.453.587-4.667.8-6.64.054-.747.107-1.547.16-2.4a17.72 17.72 0 0 0 0-2.4l10.4.24Zm-14.24 8.88c5.067 0 9.814-.107 14.24-.32a158.65 158.65 0 0 0 12.88-1.12c4.16-.533 8.294-1.307 12.4-2.32l.08 9.28c-2.773.48-5.84.933-9.2 1.36-3.306.373-6.773.693-10.4.96-3.573.267-7.093.48-10.56.64-3.466.107-6.72.16-9.76.16-1.386 0-2.96-.027-4.72-.08l-5.12-.16a209.036 209.036 0 0 0-4.32-.24l-.24-9.28c.907.107 2.214.267 3.92.48 1.707.16 3.52.32 5.44.48a99.8 99.8 0 0 0 5.36.16Zm34.48 11.68c-.16.48-.4 1.147-.72 2-.32.853-.64 1.733-.96 2.64-.266.907-.48 1.627-.64 2.16-1.546 4.8-3.44 9.2-5.68 13.2-2.186 3.947-4.56 7.413-7.12 10.4-2.56 2.933-5.093 5.333-7.6 7.2-2.613 1.973-5.6 3.707-8.96 5.2-3.36 1.44-6.746 2.16-10.16 2.16-1.92 0-3.706-.4-5.36-1.2-1.653-.8-2.986-2.053-4-3.76-.96-1.76-1.44-3.973-1.44-6.64 0-2.88.587-5.707 1.76-8.48 1.174-2.773 2.8-5.413 4.88-7.92 2.08-2.507 4.507-4.72 7.28-6.64a35.766 35.766 0 0 1 8.96-4.64c2.614-.96 5.467-1.733 8.56-2.32 3.147-.587 6.24-.88 9.28-.88 4.96 0 9.387.907 13.28 2.72 3.947 1.813 7.04 4.293 9.28 7.44 2.24 3.147 3.36 6.827 3.36 11.04 0 2.827-.453 5.6-1.36 8.32-.906 2.667-2.4 5.147-4.48 7.44-2.026 2.293-4.72 4.267-8.08 5.92-3.36 1.653-7.493 2.853-12.4 3.6l-5.28-8.4c5.12-.587 9.28-1.733 12.48-3.44 3.2-1.76 5.52-3.867 6.96-6.32 1.494-2.453 2.24-4.987 2.24-7.6 0-2.347-.64-4.453-1.92-6.32-1.226-1.867-3.093-3.36-5.6-4.48-2.453-1.173-5.493-1.76-9.12-1.76-3.626 0-6.88.4-9.76 1.2-2.826.8-5.2 1.653-7.12 2.56a27.667 27.667 0 0 0-7.12 4.88c-2.08 1.92-3.706 3.947-4.88 6.08-1.173 2.133-1.76 4.107-1.76 5.92 0 1.28.294 2.267.88 2.96.587.64 1.52.96 2.8.96 1.92 0 4.134-.613 6.64-1.84 2.507-1.28 4.987-3.067 7.44-5.36 2.88-2.667 5.6-5.867 8.16-9.6 2.56-3.733 4.667-8.373 6.32-13.92.16-.533.32-1.227.48-2.08.16-.853.294-1.707.4-2.56.16-.907.267-1.627.32-2.16l9.76 2.32Zm37.68-17.12c1.12.16 2.32.267 3.6.32 1.28.053 2.507.08 3.68.08h3.84a932.79 932.79 0 0 1 5.76-.16l6.48-.16c2.134-.053 4.054-.107 5.76-.16 1.76-.107 3.12-.187 4.08-.24 1.654-.16 2.96-.293 3.92-.4.96-.16 1.68-.32 2.16-.48l5.2 7.12a126.86 126.86 0 0 1-2.8 1.76 32.613 32.613 0 0 0-2.8 1.92c-1.066.747-2.346 1.733-3.84 2.96a2060.044 2060.044 0 0 1-4.8 3.76c-1.653 1.333-3.28 2.64-4.88 3.92a250.797 250.797 0 0 1-4.24 3.44 26.24 26.24 0 0 1 3.84-.64c1.227-.16 2.48-.24 3.76-.24 4.534 0 8.587.88 12.16 2.64 3.627 1.76 6.48 4.16 8.56 7.2 2.134 2.987 3.2 6.427 3.2 10.32 0 4.213-1.066 8.027-3.2 11.44-2.133 3.413-5.36 6.133-9.68 8.16-4.266 2.027-9.626 3.04-16.08 3.04-3.68 0-7.013-.533-10-1.6-2.933-1.067-5.253-2.587-6.96-4.56-1.706-1.973-2.56-4.293-2.56-6.96 0-2.187.587-4.213 1.76-6.08 1.227-1.92 2.907-3.467 5.04-4.64 2.187-1.173 4.694-1.76 7.52-1.76 3.68 0 6.774.747 9.28 2.24 2.56 1.44 4.507 3.387 5.84 5.84 1.387 2.453 2.107 5.147 2.16 8.08l-9.36 1.28c-.053-2.933-.8-5.28-2.24-7.04-1.386-1.813-3.253-2.72-5.6-2.72-1.493 0-2.693.4-3.6 1.2-.906.747-1.36 1.627-1.36 2.64 0 1.493.747 2.693 2.24 3.6 1.494.907 3.44 1.36 5.84 1.36 4.534 0 8.32-.533 11.36-1.6 3.04-1.12 5.307-2.693 6.8-4.72 1.547-2.08 2.32-4.533 2.32-7.36 0-2.4-.746-4.507-2.24-6.32-1.44-1.813-3.413-3.227-5.92-4.24-2.506-1.013-5.333-1.52-8.48-1.52-3.093 0-5.92.4-8.48 1.2a28.805 28.805 0 0 0-7.28 3.28c-2.24 1.387-4.453 3.093-6.64 5.12-2.133 1.973-4.266 4.187-6.4 6.64l-7.28-7.52a507.3 507.3 0 0 1 4.88-3.92 359.443 359.443 0 0 0 5.52-4.64c1.92-1.6 3.707-3.093 5.36-4.48 1.707-1.44 3.147-2.64 4.32-3.6 1.12-.907 2.427-1.973 3.92-3.2 1.494-1.227 3.04-2.48 4.64-3.76 1.6-1.333 3.12-2.587 4.56-3.76 1.44-1.227 2.64-2.267 3.6-3.12-.8 0-1.84.027-3.12.08-1.28.053-2.693.107-4.24.16-1.493.053-3.013.107-4.56.16a96.435 96.435 0 0 0-4.24.24c-1.28.053-2.346.107-3.2.16a82.96 82.96 0 0 0-3.36.24c-1.173.107-2.24.24-3.2.4l-.32-10.4Zm66.24 28.08h72.32v9.76h-72.32v-9.76Zm12.48-34.16 10.16 2.16a93.06 93.06 0 0 1-3.76 11.28 100.683 100.683 0 0 1-4.72 10.24c-1.706 3.147-3.52 5.92-5.44 8.32-.693-.533-1.626-1.12-2.8-1.76a43.35 43.35 0 0 0-3.44-1.92c-1.173-.64-2.186-1.12-3.04-1.44 1.974-2.08 3.787-4.56 5.44-7.44 1.654-2.88 3.12-5.973 4.4-9.28a72.088 72.088 0 0 0 3.2-10.16Zm2.32 11.76h50.64v9.76h-55.44l4.8-9.76Zm26.32 24.4c2.4 7.573 6.32 13.813 11.76 18.72 5.44 4.907 12.747 8.32 21.92 10.24-.746.693-1.546 1.573-2.4 2.64a72.842 72.842 0 0 0-2.32 3.28 52.765 52.765 0 0 0-1.76 3.2c-6.613-1.707-12.24-4.187-16.88-7.44a44.66 44.66 0 0 1-11.68-12c-3.093-4.747-5.68-10.267-7.76-16.56l9.12-2.08ZM917.052 38h10.08v25.52c0 3.733-.24 7.52-.72 11.36a46.366 46.366 0 0 1-2.72 11.28c-1.386 3.68-3.413 7.2-6.08 10.56-2.666 3.307-6.186 6.373-10.56 9.2-4.32 2.773-9.68 5.147-16.08 7.12-.373-.8-.933-1.733-1.68-2.8a58.028 58.028 0 0 0-2.24-3.2c-.8-1.013-1.546-1.84-2.24-2.48 5.76-1.653 10.587-3.653 14.48-6 3.894-2.347 7.014-4.907 9.36-7.68 2.4-2.773 4.187-5.68 5.36-8.72 1.227-3.093 2.027-6.213 2.4-9.36.427-3.147.64-6.267.64-9.36V38Zm90.078 14.32h32.96v9.04h-32.96v-9.04Zm2-14.4 10 1.68a123.366 123.366 0 0 1-3.76 15.04c-1.54 4.8-3.33 9.227-5.36 13.28-2.02 4.053-4.32 7.6-6.88 10.64-.53-.587-1.3-1.307-2.32-2.16a46.53 46.53 0 0 0-3.038-2.48 47.232 47.232 0 0 0-2.72-1.92c2.454-2.56 4.587-5.6 6.398-9.12 1.82-3.573 3.34-7.467 4.56-11.68a114.86 114.86 0 0 0 3.12-13.28Zm15.6 20 10 1.04c-1.28 8.96-3.22 16.907-5.84 23.84-2.56 6.88-6.02 12.853-10.4 17.92-4.32 5.067-9.81 9.28-16.48 12.64-.32-.8-.82-1.76-1.52-2.88a78.858 78.858 0 0 0-2.078-3.28c-.693-1.12-1.36-2.027-2-2.72 6.028-2.72 10.938-6.213 14.718-10.48 3.84-4.32 6.83-9.467 8.96-15.44 2.14-6.027 3.68-12.907 4.64-20.64Zm-12 1.12c1.23 6.933 2.99 13.387 5.28 19.36 2.35 5.973 5.42 11.2 9.2 15.68 3.79 4.48 8.46 7.947 14 10.4-.74.64-1.54 1.467-2.4 2.48a72.804 72.804 0 0 0-2.48 3.12c-.74 1.067-1.36 2.08-1.84 3.04-6.02-3.147-11.04-7.253-15.04-12.32-3.94-5.067-7.14-10.987-9.6-17.76-2.45-6.773-4.45-14.24-6-22.4l8.88-1.6ZM974.172 93.2l9.12 2.32c-1.28 3.413-2.96 6.72-5.04 9.92s-4.24 5.84-6.48 7.92c-.533-.533-1.28-1.147-2.24-1.84a66.52 66.52 0 0 0-2.88-2.08c-.96-.64-1.813-1.147-2.56-1.52 2.187-1.813 4.16-4.027 5.92-6.64 1.76-2.667 3.147-5.36 4.16-8.08Zm10.88 3.28 7.68-3.44a56.81 56.81 0 0 1 5.04 6.4c1.6 2.347 2.828 4.427 3.678 6.24l-8.078 4.08c-.746-1.813-1.92-3.973-3.52-6.48-1.6-2.507-3.2-4.773-4.8-6.8Zm-6.72-33.36v7.36h11.44v-7.36h-11.44Zm0 14.48v7.36h11.44V77.6h-11.44Zm0-28.8V56h11.44v-7.2h-11.44Zm-8.96-7.68h29.84v51.52h-29.84V41.12Zm137.198 7.36c0 1.28.46 2.373 1.36 3.28.91.853 2 1.28 3.28 1.28 1.28 0 2.38-.427 3.28-1.28.91-.907 1.36-2 1.36-3.28 0-1.28-.45-2.373-1.36-3.28-.9-.907-2-1.36-3.28-1.36-1.28 0-2.37.453-3.28 1.36-.9.907-1.36 2-1.36 3.28Zm-4.96 0c0-1.76.43-3.36 1.28-4.8.91-1.493 2.08-2.667 3.52-3.52 1.44-.853 3.04-1.28 4.8-1.28 1.76 0 3.36.427 4.8 1.28a9.452 9.452 0 0 1 3.44 3.52c.91 1.44 1.36 3.04 1.36 4.8a8.66 8.66 0 0 1-1.36 4.72c-.85 1.44-2 2.613-3.44 3.52-1.44.853-3.04 1.28-4.8 1.28-1.76 0-3.36-.427-4.8-1.28a11.127 11.127 0 0 1-3.52-3.52 9.123 9.123 0 0 1-1.28-4.72Zm-43.76 32.64c.91-2.24 1.76-4.587 2.56-7.04.86-2.507 1.6-5.067 2.24-7.68.64-2.667 1.2-5.307 1.68-7.92.54-2.613.91-5.2 1.12-7.76l11.68 2.4c-.21.747-.45 1.627-.72 2.64-.26 1.013-.5 2-.72 2.96-.21.96-.37 1.76-.48 2.4-.26 1.387-.64 3.067-1.12 5.04-.48 1.973-1.04 4.08-1.68 6.32-.64 2.187-1.3 4.4-2 6.64a86.917 86.917 0 0 1-2 6.08 95.37 95.37 0 0 1-3.44 8 92.36 92.36 0 0 1-4.16 8c-1.44 2.56-2.85 4.853-4.24 6.88l-11.2-4.72c2.56-3.307 4.94-6.96 7.12-10.96 2.24-4 4.03-7.76 5.36-11.28Zm39.52-1.68c-.8-2.133-1.68-4.4-2.64-6.8-.96-2.4-1.97-4.8-3.04-7.2-1.06-2.4-2.1-4.667-3.12-6.8-1.01-2.133-1.94-3.973-2.8-5.52l10.64-3.44c.8 1.547 1.74 3.413 2.8 5.6 1.07 2.187 2.14 4.507 3.2 6.96 1.07 2.4 2.11 4.8 3.12 7.2 1.02 2.4 1.92 4.56 2.72 6.48.7 1.76 1.44 3.84 2.24 6.24.86 2.4 1.71 4.907 2.56 7.52.91 2.56 1.74 5.067 2.48 7.52.8 2.453 1.47 4.667 2 6.64l-11.84 3.84c-.69-3.147-1.49-6.347-2.4-9.6-.9-3.253-1.86-6.453-2.88-9.6-.96-3.147-1.97-6.16-3.04-9.04Zm59.44-10.88c2.46 1.387 5.12 3.04 8 4.96 2.94 1.867 5.9 3.813 8.88 5.84 2.99 2.027 5.79 4 8.4 5.92 2.67 1.92 4.91 3.627 6.72 5.12l-7.6 9.04c-1.76-1.6-3.94-3.44-6.56-5.52a166.843 166.843 0 0 0-8.32-6.48c-2.98-2.24-5.94-4.373-8.88-6.4-2.88-2.027-5.46-3.76-7.76-5.2l7.12-7.28Zm37.6-13.6a23.61 23.61 0 0 0-1.44 2.64 23.948 23.948 0 0 0-1.2 3.04c-.8 2.453-1.89 5.2-3.28 8.24-1.33 2.987-2.93 6.053-4.8 9.2-1.86 3.093-4 6.133-6.4 9.12-3.78 4.693-8.34 9.147-13.68 13.36-5.28 4.213-11.76 7.787-19.44 10.72l-9.28-8.08c5.6-1.707 10.46-3.733 14.56-6.08 4.11-2.347 7.66-4.853 10.64-7.52 3.04-2.667 5.68-5.333 7.92-8 1.82-2.08 3.52-4.4 5.12-6.96 1.66-2.613 3.07-5.2 4.24-7.76 1.23-2.613 2.08-4.933 2.56-6.96h-27.04l3.68-9.12h22.72c1.28 0 2.54-.08 3.76-.24 1.28-.16 2.35-.373 3.2-.64l8.16 5.04Zm-26.4-12.32a81.941 81.941 0 0 0-2.88 4.48c-.9 1.6-1.6 2.827-2.08 3.68-1.81 3.2-4.1 6.613-6.88 10.24-2.77 3.573-5.89 7.067-9.36 10.48a79.342 79.342 0 0 1-10.88 9.12l-8.64-6.64c4.7-2.933 8.67-6 11.92-9.2 3.31-3.253 6.06-6.373 8.24-9.36 2.19-3.04 3.95-5.733 5.28-8.08.64-.96 1.31-2.24 2-3.84.75-1.653 1.31-3.147 1.68-4.48l11.6 3.6Zm41.84 26.32c.96.053 2.19.133 3.68.24 1.5.053 3.04.107 4.64.16 1.66.053 3.18.08 4.56.08h42.96c1.87 0 3.63-.053 5.28-.16 1.66-.16 3.02-.267 4.08-.32v12.56l-4.08-.24c-1.81-.107-3.57-.16-5.28-.16h-42.96c-2.29 0-4.64.053-7.04.16-2.4.053-4.34.133-5.84.24V68.96Zm87.94-23.76c1.38.96 3.01 2.133 4.88 3.52 1.86 1.387 3.78 2.907 5.76 4.56 2.02 1.6 3.92 3.173 5.68 4.72 1.76 1.547 3.2 2.933 4.32 4.16l-8.16 8.32c-1.02-1.12-2.35-2.453-4-4a183.381 183.381 0 0 0-5.36-4.8 214.584 214.584 0 0 0-5.68-4.72c-1.87-1.493-3.52-2.747-4.96-3.76l7.52-8Zm-10 53.28c4.16-.587 8.08-1.413 11.76-2.48 3.68-1.067 7.09-2.293 10.24-3.68 3.14-1.387 6.02-2.827 8.64-4.32a77.657 77.657 0 0 0 12.48-9.28c3.78-3.467 7.09-7.067 9.92-10.8 2.82-3.787 5.06-7.467 6.72-11.04l6.24 11.28c-2.03 3.573-4.54 7.147-7.52 10.72-2.94 3.573-6.27 6.987-10 10.24-3.74 3.2-7.76 6.08-12.08 8.64a97.918 97.918 0 0 1-8.8 4.72 88.726 88.726 0 0 1-10 3.84 70.887 70.887 0 0 1-10.88 2.72l-6.72-10.56Z"/>
    <path fill="#7F1D1D" d="M525.933 213.727H104.067c-8.321 0-15.067 7.937-15.067 17.727v141.819c0 9.79 6.746 17.727 15.067 17.727h421.866c8.321 0 15.067-7.937 15.067-17.727V231.454c0-9.79-6.746-17.727-15.067-17.727Z"/>
    <path fill="#fff" d="M321.995 295h-8.15v-22.75c.033-.833.05-1.7.05-2.6.033-.9.066-1.7.1-2.4-.267.2-.617.567-1.05 1.1-.4.533-.817.983-1.25 1.35l-3.75 3.3-4.1-4.55 11.15-9.15h7V295Zm-73.955 30.992h13.872v1.728H248.04v-1.728Zm0 5.688h13.872v1.728H248.04v-1.728Zm0 5.712h13.872v1.752H248.04v-1.752Zm-1.248-17.064h16.296v20.448h-1.872v-18.672h-12.624v18.672h-1.8v-20.448Zm23.352 2.376h7.296V338.4h-7.296v-1.632h5.64v-12.456h-5.64v-1.608Zm-1.056 0h1.656v17.592h-1.656v-17.592Zm.936 6.672h6.624v1.584h-6.624v-1.584Zm2.736-10.584 1.944.336c-.24.752-.504 1.512-.792 2.28a28.65 28.65 0 0 1-.768 1.968l-1.464-.36c.144-.4.28-.848.408-1.344.144-.496.272-1 .384-1.512.128-.512.224-.968.288-1.368Zm8.112 3.84h7.368v1.656h-7.368v-1.656Zm6.72 0h1.704v.576c0 .144-.008.256-.024.336-.096 2.752-.192 5.08-.288 6.984-.08 1.904-.184 3.464-.312 4.68-.128 1.2-.28 2.136-.456 2.808-.16.672-.36 1.152-.6 1.44-.272.352-.56.592-.864.72-.288.144-.648.24-1.08.288-.4.032-.928.04-1.584.024-.64 0-1.304-.024-1.992-.072a3.568 3.568 0 0 0-.192-.888 2.42 2.42 0 0 0-.408-.84c.8.064 1.52.104 2.16.12.656.016 1.128.024 1.416.024.24 0 .432-.024.576-.072.16-.064.312-.176.456-.336.192-.208.36-.632.504-1.272.16-.656.296-1.584.408-2.784.112-1.2.216-2.728.312-4.584a330.6 330.6 0 0 0 .264-6.768v-.384Zm-6.24-3.888 1.728.384a33.17 33.17 0 0 1-1.056 3.528 29.377 29.377 0 0 1-1.344 3.216 17.978 17.978 0 0 1-1.536 2.664 4.874 4.874 0 0 0-.456-.336 4.263 4.263 0 0 0-.552-.384 7.483 7.483 0 0 0-.504-.312c.56-.72 1.072-1.544 1.536-2.472.464-.944.88-1.952 1.248-3.024s.68-2.16.936-3.264Zm-1.104 10.104 1.416-.792c.448.56.912 1.176 1.392 1.848.496.672.952 1.32 1.368 1.944a17.23 17.23 0 0 1 1.032 1.656l-1.536.96a15.962 15.962 0 0 0-.984-1.704c-.4-.656-.84-1.32-1.32-1.992a43.386 43.386 0 0 0-1.368-1.92Zm20.928-8.496a16.86 16.86 0 0 1-.12.72l-.144.72c-.064.272-.136.656-.216 1.152-.08.496-.176 1.024-.288 1.584a39.7 39.7 0 0 1-.312 1.584c-.176.672-.384 1.44-.624 2.304a48.97 48.97 0 0 1-.816 2.736c-.304.96-.648 1.944-1.032 2.952a43.173 43.173 0 0 1-1.272 2.952 28.83 28.83 0 0 1-1.512 2.784l-1.944-.792a17.826 17.826 0 0 0 1.536-2.448c.48-.912.92-1.856 1.32-2.832a52.057 52.057 0 0 0 1.896-5.592c.24-.832.424-1.544.552-2.136a31.76 31.76 0 0 0 .552-2.976 21.41 21.41 0 0 0 .216-2.928l2.208.216Zm8.256 2.784c.384.48.784 1.088 1.2 1.824.432.736.848 1.512 1.248 2.328.416.816.792 1.608 1.128 2.376.352.768.624 1.432.816 1.992l-1.848.888a20.146 20.146 0 0 0-.744-2.112 27.752 27.752 0 0 0-1.056-2.376 25.96 25.96 0 0 0-1.224-2.304c-.416-.736-.84-1.344-1.272-1.824l1.752-.792Zm-16.896 2.496c.384.016.744.024 1.08.024.336 0 .696-.008 1.08-.024.352-.016.808-.04 1.368-.072.576-.048 1.192-.096 1.848-.144.656-.064 1.312-.12 1.968-.168a47.224 47.224 0 0 1 1.8-.144c.544-.048.976-.072 1.296-.072.72 0 1.368.12 1.944.36.592.224 1.064.632 1.416 1.224.368.576.552 1.408.552 2.496 0 .944-.048 1.968-.144 3.072a26.59 26.59 0 0 1-.456 3.12c-.192.976-.456 1.8-.792 2.472-.368.8-.848 1.328-1.44 1.584-.592.272-1.28.408-2.064.408-.464 0-.96-.04-1.488-.12-.512-.064-.96-.136-1.344-.216l-.312-2.016c.336.112.688.208 1.056.288.368.064.72.12 1.056.168.336.032.608.048.816.048.448 0 .848-.072 1.2-.216.352-.16.656-.504.912-1.032.256-.544.464-1.224.624-2.04.176-.816.304-1.688.384-2.616.08-.928.12-1.824.12-2.688 0-.736-.104-1.288-.312-1.656a1.562 1.562 0 0 0-.888-.744c-.384-.128-.832-.192-1.344-.192-.4 0-.944.032-1.632.096-.688.048-1.424.112-2.208.192-.784.064-1.512.136-2.184.216-.656.08-1.168.136-1.536.168-.288.032-.648.08-1.08.144a26.58 26.58 0 0 0-1.08.144l-.216-2.064Zm17.184-5.976c.208.272.424.608.648 1.008.24.384.48.784.72 1.2.24.4.44.76.6 1.08l-1.32.576c-.144-.32-.328-.68-.552-1.08-.224-.4-.456-.8-.696-1.2-.24-.4-.472-.752-.696-1.056l1.296-.528Zm2.64-.984a48.868 48.868 0 0 1 1.44 2.256c.24.384.432.728.576 1.032l-1.296.576a21.085 21.085 0 0 0-.936-1.704c-.368-.624-.72-1.16-1.056-1.608l1.272-.552Zm4.296 1.848h20.688v1.848h-20.688v-1.848Zm11.76 7.008 1.344-1.152c.704.464 1.448.968 2.232 1.512.784.528 1.552 1.08 2.304 1.656a52.835 52.835 0 0 1 2.088 1.68 20.566 20.566 0 0 1 1.656 1.512l-1.464 1.392a22.094 22.094 0 0 0-1.608-1.536 39.606 39.606 0 0 0-2.04-1.752 50.07 50.07 0 0 0-2.28-1.728 49.412 49.412 0 0 0-2.232-1.584Zm-.432-6.36 1.944.696a31.22 31.22 0 0 1-3.264 4.824 32.396 32.396 0 0 1-4.296 4.344 28.095 28.095 0 0 1-5.088 3.432c-.08-.16-.2-.336-.36-.528a14.342 14.342 0 0 0-.456-.576 4.504 4.504 0 0 0-.408-.48 26.273 26.273 0 0 0 3.744-2.28c1.2-.88 2.312-1.832 3.336-2.856a30.036 30.036 0 0 0 2.76-3.216 22.606 22.606 0 0 0 2.088-3.36Zm-1.968 4.776 1.944-1.92v16.848h-1.944v-14.928Zm15.912-5.64h6.864v14.328h-6.864v-1.68h5.184V321.96h-5.184v-1.656Zm0 6.24h5.928v1.632h-5.928v-1.632Zm10.152-6.672h8.088v1.68h-8.088v-1.68Zm0 5.832h8.088v1.632h-8.088v-1.632Zm-.168 5.88h8.208v1.632h-8.208v-1.632Zm-10.992-11.28h1.704v16.584h-1.704v-16.584Zm18.576-.432h1.776v18.672c0 .56-.08.992-.24 1.296-.144.32-.408.552-.792.696-.4.144-.936.232-1.608.264-.672.048-1.528.072-2.568.072a2.508 2.508 0 0 0-.144-.576 6.51 6.51 0 0 0-.24-.648 3.55 3.55 0 0 0-.264-.552 49.28 49.28 0 0 0 1.488.024c.48.016.896.016 1.248 0h.744c.224 0 .376-.04.456-.12.096-.096.144-.248.144-.456v-18.672Zm-8.472 0h1.752v8.568c0 1.008-.056 2.08-.168 3.216a18.356 18.356 0 0 1-.672 3.384c-.32 1.12-.808 2.2-1.464 3.24-.656 1.04-1.528 1.976-2.616 2.808-.08-.128-.2-.272-.36-.432-.16-.16-.328-.32-.504-.48a4.596 4.596 0 0 0-.456-.336c1.024-.768 1.832-1.616 2.424-2.544.592-.944 1.04-1.92 1.344-2.928.304-1.008.496-2.016.576-3.024.096-1.008.144-1.984.144-2.928v-8.544Zm24.504 10.584h9.384v1.392h-9.384v-1.392Zm0 3.936h9.384v1.416h-9.384v-1.416Zm.024 3.936h10.488v1.536h-10.488v-1.536Zm-2.76-17.04h13.128v4.128h-1.632v-2.568h-9.912v2.568h-1.584v-4.128Zm6.624 6.288h1.68v11.568h-1.68v-11.568Zm-3.264-1.128h9.168v1.56h-9.168v12.912h-1.704v-12.864l1.56-1.608h.144Zm2.28-7.632 1.704.336c-.672 2.432-1.6 4.624-2.784 6.576-1.168 1.952-2.568 3.568-4.2 4.848-.08-.112-.2-.248-.36-.408a4.726 4.726 0 0 0-.48-.504 4.164 4.164 0 0 0-.432-.384c1.584-1.168 2.92-2.648 4.008-4.44 1.104-1.808 1.952-3.816 2.544-6.024Zm2.496 4.776 1.68.408c-.288.624-.584 1.256-.888 1.896-.288.624-.568 1.16-.84 1.608l-1.368-.384c.256-.48.52-1.056.792-1.728.272-.688.48-1.288.624-1.8Zm-16.656-3.144h8.472v1.68h-8.472v-1.68Zm2.424 7.008h5.4v10.512h-5.4v-1.584h3.84v-7.32h-3.84v-1.608Zm.384-6.216 1.728.264a51.963 51.963 0 0 1-.936 4.896 30.708 30.708 0 0 1-1.368 4.392c-.528 1.36-1.16 2.568-1.896 3.624a6.957 6.957 0 0 0-.288-.504c-.128-.224-.256-.44-.384-.648a3.304 3.304 0 0 0-.36-.528c.64-.912 1.184-1.968 1.632-3.168a27.041 27.041 0 0 0 1.152-3.936c.304-1.424.544-2.888.72-4.392Zm-1.128 6.216h1.512v12.408h-1.512v-12.408Z"/>
    <path fill="#7F1D1D" d="M1160.7 213.727H760.3c-7.898 0-14.3 7.937-14.3 17.727v141.819c0 9.79 6.402 17.727 14.3 17.727h400.4c7.9 0 14.3-7.937 14.3-17.727V231.454c0-9.79-6.4-17.727-14.3-17.727Z"/>
    <path fill="#fff" d="M972.545 295h-23.9v-5.25l8.3-9.05c1.7-1.867 3.033-3.417 4-4.65 1-1.267 1.7-2.4 2.1-3.4a8.45 8.45 0 0 0 .65-3.3c0-1.433-.35-2.5-1.05-3.2-.667-.7-1.534-1.05-2.6-1.05-1.167 0-2.334.317-3.5.95-1.134.633-2.384 1.533-3.75 2.7l-4.4-4.85c1-.9 2.05-1.733 3.15-2.5 1.1-.767 2.4-1.383 3.9-1.85 1.5-.5 3.3-.75 5.4-.75 2.233 0 4.166.433 5.8 1.3 1.633.833 2.883 1.983 3.75 3.45.9 1.433 1.35 3.067 1.35 4.9 0 1.5-.217 2.867-.65 4.1-.434 1.233-1.067 2.45-1.9 3.65-.8 1.2-1.767 2.45-2.9 3.75-1.134 1.267-2.4 2.7-3.8 4.3l-3.6 4.05-.05.35h13.7V295Zm-94.989 33.656h21.984v1.968h-21.984v-1.968Zm28.344-3.096h17.088v1.488H905.9v-1.488Zm.336 7.008h13.752v1.488h-13.752v-1.488Zm3.528-9.096h1.728v6.12h5.832v-6.12h1.776v7.56h-9.336v-7.56Zm9.744 9.096h.36l.312-.072 1.128.6a11.009 11.009 0 0 1-2.568 3.24 15.227 15.227 0 0 1-3.6 2.256 24.05 24.05 0 0 1-4.32 1.464c-1.536.384-3.12.672-4.752.864a3.352 3.352 0 0 0-.312-.768 3.511 3.511 0 0 0-.456-.744c1.52-.16 3.008-.392 4.464-.696a23.845 23.845 0 0 0 4.08-1.272c1.28-.528 2.408-1.168 3.384-1.92a8.125 8.125 0 0 0 2.28-2.688v-.264Zm-9 1.248c.768 1.072 1.8 1.992 3.096 2.76 1.312.768 2.816 1.384 4.512 1.848 1.696.464 3.512.792 5.448.984-.112.128-.24.288-.384.48-.128.192-.256.376-.384.552a9.417 9.417 0 0 0-.288.528 30.873 30.873 0 0 1-5.544-1.224c-1.728-.544-3.28-1.256-4.656-2.136-1.36-.896-2.472-1.96-3.336-3.192l1.536-.6Zm1.776-14.976h1.848v3.288h-1.848v-3.288Zm-7.992 2.376h18.84v1.632h-18.84v-1.632Zm-.888 0h1.728v6.936c0 .928-.032 1.944-.096 3.048a31.451 31.451 0 0 1-.336 3.384c-.16 1.152-.4 2.272-.72 3.36a12.872 12.872 0 0 1-1.248 3 4.21 4.21 0 0 0-.432-.36c-.176-.128-.36-.256-.552-.384a2.044 2.044 0 0 0-.504-.24c.496-.864.888-1.792 1.176-2.784.288-1.008.504-2.04.648-3.096.144-1.056.232-2.088.264-3.096a60.81 60.81 0 0 0 .072-2.832v-6.936Zm32.04 1.584c.656.096 1.416.176 2.28.24.88.048 1.784.072 2.712.072a68.07 68.07 0 0 0 2.688-.096 25.951 25.951 0 0 0 2.184-.24v1.944c-.64.064-1.392.12-2.256.168-.848.032-1.736.048-2.664.048-.912 0-1.8-.016-2.664-.048a55.516 55.516 0 0 1-2.28-.168v-1.92Zm.936 9.768c-.112.432-.2.824-.264 1.176a5.763 5.763 0 0 0-.096 1.032c0 .272.056.544.168.816.128.256.336.488.624.696.304.192.72.352 1.248.48.528.112 1.2.168 2.016.168 1.088 0 2.112-.048 3.072-.144.96-.112 1.92-.272 2.88-.48l.048 2.016c-.752.16-1.632.288-2.64.384-.992.08-2.112.12-3.36.12-2.016 0-3.496-.32-4.44-.96-.928-.64-1.392-1.52-1.392-2.64 0-.4.032-.824.096-1.272.08-.464.184-.984.312-1.56l1.728.168Zm-5.52-11.616c-.032.128-.08.296-.144.504a11.66 11.66 0 0 1-.168.6c-.048.192-.088.36-.12.504-.08.448-.176.968-.288 1.56a71 71 0 0 0-.336 1.872 305.43 305.43 0 0 0-.288 2.016c-.08.672-.152 1.328-.216 1.968-.048.64-.072 1.232-.072 1.776 0 .592.016 1.152.048 1.68.048.528.104 1.088.168 1.68.144-.368.296-.76.456-1.176.16-.416.32-.824.48-1.224.176-.416.328-.784.456-1.104l1.008.768a185.59 185.59 0 0 0-.672 1.896c-.24.688-.456 1.352-.648 1.992-.176.624-.304 1.12-.384 1.488-.032.176-.064.368-.096.576-.032.208-.04.376-.024.504s.024.264.024.408c.016.16.032.304.048.432l-1.728.12c-.24-.848-.448-1.936-.624-3.264a34.345 34.345 0 0 1-.264-4.44c0-.88.04-1.776.12-2.688.08-.928.184-1.824.312-2.688.128-.88.248-1.68.36-2.4.128-.736.224-1.352.288-1.848.048-.288.088-.576.12-.864.032-.304.048-.584.048-.84l2.136.192Zm29.544-.36c-.48.72-1.08 1.48-1.8 2.28a32.597 32.597 0 0 1-2.352 2.352 35.19 35.19 0 0 1-2.76 2.256 31.54 31.54 0 0 1-2.952 1.968 6.668 6.668 0 0 0-.528-.72 3.892 3.892 0 0 0-.624-.696 27.153 27.153 0 0 0 4.008-2.712 31.268 31.268 0 0 0 3.504-3.264c1.04-1.136 1.872-2.224 2.496-3.264h1.824a22.989 22.989 0 0 0 2.16 2.64 31.994 31.994 0 0 0 2.616 2.472 34.913 34.913 0 0 0 2.832 2.16 25.928 25.928 0 0 0 2.856 1.68c-.224.224-.44.48-.648.768a8.141 8.141 0 0 0-.552.816 44.497 44.497 0 0 1-2.832-1.848 40.758 40.758 0 0 1-2.784-2.184 39.653 39.653 0 0 1-2.496-2.376 22.095 22.095 0 0 1-1.968-2.328Zm-8.112 12.456h16.368v1.608h-16.368v-1.608Zm1.08-5.352h14.376v1.608h-14.376v-1.608Zm-3.048 10.92h20.472v1.632h-20.472v-1.632Zm9.168-10.248h1.872v11.16h-1.872v-11.16Zm27.408-8.112h7.2v1.704h-5.448v18.96H986.9v-20.664Zm-12.792 1.248h11.472v1.608h-11.472v-1.608Zm-.6 6.648h12.408v1.632h-12.408v-1.632Zm5.424-9.216h1.752v3.528h-1.752v-3.528Zm-3.312 4.992 1.512-.312c.256.592.488 1.256.696 1.992.208.72.344 1.336.408 1.848l-1.608.408a11.379 11.379 0 0 0-.36-1.896 19.167 19.167 0 0 0-.648-2.04Zm6.864-.48 1.728.408a137.47 137.47 0 0 1-.816 2.184 21.416 21.416 0 0 1-.792 1.896l-1.464-.408c.16-.368.32-.792.48-1.272.176-.48.336-.968.48-1.464.16-.496.288-.944.384-1.344Zm-6.744 14.472h7.896v1.608h-7.896v-1.608Zm-.624-6.024h9.456v8.928h-1.752v-7.344h-6.024v7.464h-1.68v-9.048Zm18.528-11.64h.336l.312-.072 1.296.84a139.425 139.425 0 0 1-1.608 3.648 97.894 97.894 0 0 1-1.728 3.6c.816.752 1.44 1.472 1.872 2.16.432.672.736 1.312.912 1.92.176.608.264 1.2.264 1.776 0 .752-.096 1.4-.288 1.944-.192.528-.496.936-.912 1.224-.416.272-.936.448-1.56.528-.32.032-.664.048-1.032.048-.352 0-.712-.008-1.08-.024a5.336 5.336 0 0 0-.144-.888c-.08-.336-.2-.632-.36-.888.368.032.712.056 1.032.072.32 0 .6-.008.84-.024.208-.016.4-.04.576-.072.176-.048.336-.112.48-.192.256-.16.432-.408.528-.744.112-.336.168-.728.168-1.176-.016-.752-.24-1.576-.672-2.472-.432-.912-1.264-1.896-2.496-2.952.32-.608.632-1.256.936-1.944.304-.704.6-1.4.888-2.088.288-.704.552-1.368.792-1.992.24-.624.456-1.176.648-1.656v-.576Zm3.96 14.352h21.816v1.44h-21.816v-1.44Zm6.026-13.584h15.65v1.32h-15.65v-1.32Zm8.78 11.928h1.73V339c0 .464-.06.824-.19 1.08-.13.256-.39.448-.77.576-.38.128-.9.2-1.54.216-.62.032-1.43.048-2.42.048-.03-.24-.11-.504-.24-.792a7.57 7.57 0 0 0-.36-.768c.51.016.99.024 1.44.024.45.016.83.016 1.15 0h.7c.21-.016.34-.056.41-.12.06-.048.09-.144.09-.288v-6.024Zm-10.68 4.152 1.23-1.056c.43.256.87.544 1.32.864.46.32.89.648 1.29.984.42.336.75.648.99.936l-1.32 1.152a6.845 6.845 0 0 0-.94-.984c-.38-.336-.8-.672-1.25-1.008-.45-.336-.89-.632-1.32-.888Zm-3.31-16.8 1.224-.984c.396.272.806.584 1.226.936.43.336.83.688 1.2 1.056.37.352.65.68.86.984l-1.27 1.128c-.21-.32-.49-.664-.84-1.032s-.74-.736-1.152-1.104a13.406 13.406 0 0 0-1.248-.984Zm8.16-1.104 1.46-.36c.29.336.57.72.84 1.152.28.432.47.816.58 1.152l-1.56.432c-.11-.32-.3-.704-.55-1.152-.24-.448-.5-.856-.77-1.224Zm.65 7.344v1.056h8.3v-1.056h-8.3Zm0 2.04v1.08h8.3v-1.08h-8.3Zm0-4.056v1.056h8.3v-1.056h-8.3Zm-1.68-.984h11.73v7.104h-11.73v-7.104Zm-3 1.56v5.16h-1.66v-3.72h-3.166v-1.44h4.826Zm7.85-3.6 1.8.168c-.16.448-.32.888-.48 1.32-.15.416-.28.776-.41 1.08l-1.44-.216c.11-.352.21-.752.31-1.2.1-.448.17-.832.22-1.152Zm4.41-2.712 1.71.384c-.29.432-.59.848-.89 1.248-.29.4-.57.752-.84 1.056l-1.42-.36c.24-.336.5-.72.77-1.152.29-.448.51-.84.67-1.176Zm-12.26 10.872c.48.688 1.14 1.2 1.99 1.536.86.336 1.85.52 2.95.552.56.016 1.23.032 2.02.048h2.54l2.74-.048c.93-.016 1.8-.04 2.61-.072.84-.032 1.56-.064 2.19-.096-.08.176-.18.408-.29.696-.1.288-.16.544-.19.768-.74.032-1.62.056-2.64.072l-3.22.048h-3.17c-1-.016-1.86-.032-2.56-.048-1.27-.048-2.36-.24-3.27-.576a5.626 5.626 0 0 1-2.33-1.608c-.57.4-1.16.8-1.77 1.2-.61.4-1.234.808-1.874 1.224l-.696-1.512c.56-.288 1.168-.624 1.824-1.008a51.89 51.89 0 0 0 1.916-1.176h1.23Zm23.42-9.36h6.79v1.824h-6.79v-1.824Zm5.88 0h1.83c0 .704.03 1.536.09 2.496.07.96.2 1.992.41 3.096.21 1.088.53 2.224.96 3.408.43 1.184 1.02 2.368 1.75 3.552.74 1.168 1.66 2.304 2.76 3.408 1.12 1.104 2.47 2.12 4.06 3.048-.13.112-.3.256-.51.432-.19.192-.37.384-.55.576-.16.208-.29.384-.41.528-1.6-.976-2.97-2.048-4.12-3.216a20.773 20.773 0 0 1-2.86-3.696c-.75-1.28-1.36-2.56-1.82-3.84-.45-1.296-.8-2.544-1.04-3.744a33.572 33.572 0 0 1-.45-3.384c-.07-1.04-.1-1.928-.1-2.664Zm-.69 4.704 2.04.36c-.58 2.432-1.33 4.624-2.26 6.576-.91 1.952-2.02 3.672-3.34 5.16-1.29 1.472-2.83 2.728-4.6 3.768a3.18 3.18 0 0 0-.46-.456c-.19-.176-.4-.36-.62-.552-.21-.176-.4-.32-.56-.432 2.68-1.408 4.8-3.312 6.36-5.712 1.57-2.416 2.72-5.32 3.44-8.712Z"/>
    <path fill="#7F1D1D" d="M1749.27 213.727h-356.54c-7.03 0-12.73 7.937-12.73 17.727v141.819c0 9.79 5.7 17.727 12.73 17.727h356.54c7.03 0 12.73-7.937 12.73-17.727V231.454c0-9.79-5.7-17.727-12.73-17.727Z"/>
    <path fill="#fff" d="M1581.84 267.3c0 1.633-.33 3.05-1 4.25a8.615 8.615 0 0 1-2.65 2.95c-1.1.767-2.33 1.333-3.7 1.7v.15c2.67.333 4.72 1.2 6.15 2.6 1.44 1.4 2.15 3.283 2.15 5.65 0 2.067-.48 3.933-1.45 5.6-.96 1.633-2.46 2.933-4.5 3.9-2 .933-4.6 1.4-7.8 1.4-2 0-3.78-.167-5.35-.5a23.175 23.175 0 0 1-4.5-1.45v-6.4c1.47.767 2.97 1.35 4.5 1.75 1.57.4 3 .6 4.3.6 2.37 0 4-.467 4.9-1.4.94-.933 1.4-2.25 1.4-3.95 0-1-.21-1.833-.65-2.5-.43-.7-1.2-1.217-2.3-1.55-1.06-.367-2.61-.55-4.65-.55h-2.3v-5.8h2.35c1.9 0 3.37-.2 4.4-.6 1.04-.433 1.75-1 2.15-1.7.44-.733.65-1.567.65-2.5 0-1.267-.35-2.25-1.05-2.95-.7-.733-1.76-1.1-3.2-1.1-1.03 0-2 .15-2.9.45-.9.267-1.7.6-2.4 1-.66.4-1.21.783-1.65 1.15l-3.5-5.2c.9-.667 1.89-1.267 2.95-1.8 1.1-.533 2.34-.95 3.7-1.25 1.4-.3 2.99-.45 4.75-.45 3.47 0 6.2.75 8.2 2.25 2 1.467 3 3.55 3 6.25Zm-78.74 60.54h5.96v1.68h-5.96v-1.68Zm5.26 0h1.75v.144c0 .08-.01.184-.02.312v.312a99.68 99.68 0 0 1-.15 4.368c-.04 1.104-.12 1.944-.21 2.52-.08.576-.21.976-.39 1.2-.19.224-.4.384-.62.48-.21.096-.48.168-.82.216-.32.032-.73.048-1.24.048-.52-.016-1.07-.04-1.66-.072a3.556 3.556 0 0 0-.17-.84 3.2 3.2 0 0 0-.33-.84c.54.064 1.05.104 1.53.12h1.01c.18 0 .32-.016.43-.048a.662.662 0 0 0 .34-.216c.11-.144.2-.464.26-.96.08-.512.14-1.28.17-2.304.05-1.04.09-2.424.12-4.152v-.288Zm6.74-7.8 1.08-1.104c.52.24 1.04.528 1.59.864.56.32 1.08.648 1.56.984.48.32.88.616 1.2.888l-1.13 1.248c-.3-.288-.7-.6-1.18-.936-.48-.352-.99-.696-1.53-1.032-.55-.336-1.07-.64-1.59-.912Zm3.46 6.504 1.8.456c-1.02 3.136-2.42 5.856-4.2 8.16-1.78 2.304-3.89 4.184-6.34 5.64a8.136 8.136 0 0 0-.38-.48c-.16-.176-.33-.36-.5-.552-.16-.176-.31-.328-.44-.456 2.44-1.28 4.49-3 6.17-5.16 1.68-2.176 2.98-4.712 3.89-7.608Zm-15.31-3.624h18.57v1.752h-18.57v-1.752Zm-1.18 0h1.87v6.768c0 .848-.03 1.768-.09 2.76-.07.992-.19 2-.36 3.024a19.19 19.19 0 0 1-.77 3c-.34.96-.78 1.832-1.34 2.616-.1-.128-.24-.272-.44-.432-.17-.16-.36-.312-.57-.456a2.502 2.502 0 0 0-.51-.312 10.34 10.34 0 0 0 1.47-3.264c.32-1.184.52-2.376.6-3.576.09-1.216.14-2.344.14-3.384v-6.744Zm9.99-4.056h1.87a64.32 64.32 0 0 0 .24 6.336c.17 2 .42 3.84.74 5.52.32 1.664.71 3.112 1.15 4.344.47 1.216.97 2.16 1.52 2.832.56.672 1.14 1.008 1.75 1.008.35 0 .61-.336.77-1.008.17-.688.29-1.832.36-3.432.2.192.45.384.74.576.3.192.58.328.82.408-.12 1.376-.28 2.448-.48 3.216-.2.768-.48 1.304-.87 1.608-.37.32-.86.48-1.49.48-.8 0-1.53-.272-2.2-.816-.68-.544-1.28-1.312-1.8-2.304-.52-.992-.96-2.16-1.35-3.504-.38-1.36-.71-2.856-.98-4.488a60.376 60.376 0 0 1-.58-5.16c-.13-1.824-.2-3.696-.21-5.616Zm12.43 12.72h21.05v1.656h-21.05v-1.656Zm9.57-10.992h1.9v20.328h-1.9v-20.328Zm-.64 11.688 1.51.672c-.75 1.008-1.67 1.976-2.74 2.904-1.07.928-2.22 1.76-3.45 2.496-1.22.72-2.43 1.312-3.63 1.776a6.066 6.066 0 0 0-.36-.504 6.606 6.606 0 0 0-.45-.552 5.55 5.55 0 0 0-.44-.432c.9-.288 1.8-.656 2.72-1.104.91-.448 1.79-.952 2.64-1.512.86-.56 1.64-1.16 2.35-1.8.72-.64 1.33-1.288 1.85-1.944Zm3.07-.072a14.68 14.68 0 0 0 1.89 1.92 25.92 25.92 0 0 0 2.43 1.776c.86.544 1.75 1.04 2.66 1.488.93.448 1.83.816 2.69 1.104-.13.112-.27.264-.43.456-.16.176-.31.36-.46.552-.13.192-.24.36-.33.504-.88-.352-1.79-.776-2.72-1.272-.91-.512-1.8-1.08-2.68-1.704a26.577 26.577 0 0 1-2.45-1.992c-.77-.72-1.44-1.448-2.02-2.184l1.42-.648Zm-7.83-6.72v2.496h12.75v-2.496h-12.75Zm0-3.936V324h12.75v-2.448h-12.75Zm-1.84-1.56h16.53v9.552h-16.53v-9.552Zm29.23 5.976v2.976h3.84v-2.976h-3.84Zm0 4.488v3h3.84v-3h-3.84Zm0-8.952v2.952h3.84v-2.952h-3.84Zm-1.54-1.584h6.99v15.12h-6.99v-15.12Zm4.25 16.296 1.34-.744c.34.368.68.776 1.04 1.224.36.448.7.888 1 1.32.31.432.55.816.72 1.152l-1.44.912a8.642 8.642 0 0 0-.69-1.2c-.31-.448-.63-.904-.99-1.368a28.72 28.72 0 0 0-.98-1.296Zm-3.26-.672 1.68.456c-.42.928-.94 1.84-1.56 2.736-.63.896-1.27 1.648-1.92 2.256-.1-.096-.24-.208-.44-.336-.17-.128-.35-.256-.52-.384-.18-.112-.33-.208-.46-.288.64-.56 1.25-1.232 1.82-2.016.58-.784 1.04-1.592 1.4-2.424Zm12-16.704h1.65v19.824c0 .56-.07.976-.21 1.248-.15.288-.4.504-.75.648-.33.144-.81.24-1.41.288-.6.048-1.39.072-2.38.072-.03-.224-.1-.504-.22-.84-.09-.336-.2-.632-.33-.888.72.016 1.37.024 1.94.024h1.15c.2-.016.33-.064.41-.144.1-.064.15-.2.15-.408V318.84Zm-4.18 2.472h1.58v13.752h-1.58v-13.752Zm-14.38-.936 1.04-1.272c.46.192.93.432 1.41.72.48.272.94.56 1.37.864.43.288.78.568 1.06.84l-1.08 1.44c-.26-.272-.6-.56-1.04-.864-.41-.32-.87-.632-1.36-.936-.48-.304-.95-.568-1.4-.792Zm-1.03 6.48.99-1.32c.48.176.97.392 1.48.648.52.256.99.52 1.42.792.45.272.81.536 1.08.792l-1.03 1.464a7.316 7.316 0 0 0-1.08-.816c-.43-.288-.91-.568-1.42-.84a17.89 17.89 0 0 0-1.44-.72Zm.48 12.792c.34-.624.7-1.36 1.08-2.208.4-.848.79-1.744 1.18-2.688.4-.96.76-1.88 1.08-2.76l1.44.936c-.29.832-.62 1.704-.99 2.616-.35.896-.71 1.784-1.08 2.664-.36.864-.72 1.664-1.08 2.4l-1.63-.96Zm27.67-13.464h14.02v1.728h-14.02v-1.728Zm6.92 5.736h8.08v1.68h-8.08v-1.68Zm-.94-4.872h1.87v12.168l-1.87-.264v-11.904Zm-5.71 2.904 1.87.216c-.34 2.416-.9 4.536-1.68 6.36-.78 1.824-1.85 3.328-3.19 4.512-.1-.112-.24-.248-.43-.408-.18-.144-.36-.296-.56-.456-.19-.144-.36-.264-.5-.36 1.33-1.04 2.34-2.4 3.05-4.08.72-1.68 1.2-3.608 1.44-5.784Zm1.15 3.096c.42 1.232.96 2.224 1.63 2.976a6.954 6.954 0 0 0 2.33 1.728c.88.4 1.85.672 2.9.816 1.08.144 2.23.216 3.46.216h5.21c.43 0 .76-.008.98-.024-.08.144-.17.328-.26.552-.1.224-.19.448-.27.672-.06.224-.11.424-.14.6h-5.62c-1.42 0-2.74-.096-3.96-.288-1.2-.176-2.28-.512-3.26-1.008-.96-.496-1.82-1.2-2.57-2.112-.75-.912-1.38-2.096-1.89-3.552l1.46-.576Zm4.54-14.208h1.89v3.888h-1.89v-3.888Zm-9.05 2.76h20.06v5.232h-1.85v-3.504h-16.44v3.504h-1.77V321.6Zm24.36 2.256c.45.064.92.112 1.41.144.5.016 1 .024 1.52.024.88 0 1.78-.04 2.71-.12.94-.08 1.89-.208 2.85-.384a24.8 24.8 0 0 0 2.84-.744l.04 1.8c-.78.208-1.64.4-2.59.576-.93.176-1.89.32-2.9.432-.99.096-1.98.144-2.95.144h-1.4c-.48-.016-.95-.04-1.41-.072l-.12-1.8Zm8.49-3.912c-.09.384-.21.872-.36 1.464-.14.592-.3 1.216-.48 1.872-.16.64-.33 1.248-.52 1.824a37.43 37.43 0 0 1-1.47 3.648 57.25 57.25 0 0 1-1.89 3.696c-.68 1.2-1.34 2.248-2 3.144l-1.84-.96c.52-.624 1.05-1.336 1.58-2.136.54-.8 1.05-1.64 1.51-2.52a42.4 42.4 0 0 0 1.3-2.592c.38-.848.7-1.624.96-2.328.25-.768.49-1.632.72-2.592.22-.976.35-1.88.38-2.712l2.11.192Zm5.67 7.416c-.02.496-.03.944-.05 1.344 0 .384.01.8.02 1.248.02.384.04.88.05 1.488.03.592.07 1.224.1 1.896.03.656.05 1.288.07 1.896.03.608.05 1.112.05 1.512 0 .64-.15 1.224-.43 1.752-.29.528-.75.944-1.37 1.248-.61.32-1.41.48-2.4.48-.88 0-1.68-.128-2.4-.384-.72-.24-1.31-.616-1.75-1.128-.44-.512-.65-1.16-.65-1.944 0-.752.21-1.392.62-1.92.43-.544 1.01-.96 1.73-1.248.74-.288 1.55-.432 2.45-.432 1.34 0 2.57.192 3.69.576 1.14.368 2.16.84 3.05 1.416.91.576 1.7 1.144 2.35 1.704l-1.03 1.632c-.46-.416-.98-.848-1.56-1.296-.56-.448-1.18-.856-1.87-1.224a11.22 11.22 0 0 0-2.21-.936c-.78-.24-1.61-.36-2.49-.36-.88 0-1.6.184-2.14.552-.54.368-.82.824-.82 1.368 0 .56.24 1.016.7 1.368.46.352 1.16.528 2.09.528.67 0 1.2-.104 1.58-.312.39-.224.66-.512.82-.864.17-.368.26-.768.26-1.2 0-.448-.01-1.032-.05-1.752-.01-.72-.04-1.488-.09-2.304-.03-.832-.07-1.656-.12-2.472-.03-.832-.06-1.576-.07-2.232h1.87Zm4.8.648c-.43-.384-.98-.784-1.63-1.2-.66-.416-1.34-.808-2.04-1.176a25.31 25.31 0 0 0-1.83-.936l.99-1.464c.43.192.91.424 1.44.696.52.272 1.05.56 1.58.864.53.304 1.02.6 1.46.888.47.272.84.52 1.11.744l-1.08 1.584Zm10.87-7.704c-.06.4-.11.808-.14 1.224-.04.4-.06.8-.08 1.2-.03.672-.06 1.504-.09 2.496s-.07 2.048-.1 3.168c-.03 1.104-.05 2.208-.07 3.312-.02 1.104-.02 2.096-.02 2.976 0 .88.16 1.584.5 2.112.34.528.8.904 1.39 1.128.59.224 1.27.336 2.04.336 1.09 0 2.07-.136 2.95-.408a9.512 9.512 0 0 0 2.36-1.128c.68-.48 1.29-1.016 1.82-1.608.54-.592 1.03-1.2 1.46-1.824l1.37 1.632c-.41.576-.93 1.176-1.53 1.8-.6.608-1.3 1.176-2.12 1.704-.81.528-1.76.96-2.83 1.296-1.05.336-2.24.504-3.55.504-1.14 0-2.14-.176-3.02-.528a4.275 4.275 0 0 1-2.07-1.704c-.49-.784-.74-1.824-.74-3.12 0-.72.01-1.512.02-2.376.02-.88.04-1.784.07-2.712.04-.928.06-1.832.08-2.712.01-.896.03-1.72.04-2.472.02-.752.03-1.376.03-1.872 0-.448-.02-.88-.05-1.296-.03-.416-.08-.8-.14-1.152l2.42.024Z"/>
    <path fill="#7F1D1D" d="M525.933 432.727H104.067c-8.321 0-15.067 7.489-15.067 16.727v133.819C89 592.511 95.746 600 104.067 600h421.866c8.321 0 15.067-7.489 15.067-16.727V449.454c0-9.238-6.746-16.727-15.067-16.727Z"/>
    <path fill="#fff" d="M327.945 504.6h-3.85v7.4h-7.95v-7.4h-13.85v-5.25l14.35-23.05h7.45v22.45h3.85v5.85Zm-11.8-11.9v-2c.033-.8.066-1.583.1-2.35.033-.8.066-1.5.1-2.1.033-.633.05-1.067.05-1.3h-.2c-.3.667-.6 1.317-.9 1.95-.267.6-.584 1.25-.95 1.95l-5.05 9.9h6.85v-6.05Zm-89.057 57.588V536.32c0-.336-.016-.744-.048-1.224s-.08-.904-.144-1.272h2.352c-.032.352-.072.768-.12 1.248-.032.48-.048.896-.048 1.248v7.968c.016.96.024 1.864.024 2.712v4.176c.016.336.04.68.072 1.032.032.336.056.64.072.912h-2.328c.064-.384.104-.84.12-1.368.032-.528.048-1.016.048-1.464Zm1.584-10.176c.784.24 1.648.528 2.592.864.96.32 1.936.664 2.928 1.032s1.928.744 2.808 1.128c.896.368 1.672.72 2.328 1.056l-.816 2.04a24.444 24.444 0 0 0-2.328-1.128 83.4 83.4 0 0 0-2.664-1.128 44.905 44.905 0 0 0-2.616-.984 36.325 36.325 0 0 0-2.232-.744v-2.136Zm19.656 11.52c.096-.192.16-.376.192-.552.032-.176.048-.384.048-.624v-13.728c0-.208-.016-.456-.048-.744-.016-.288-.04-.56-.072-.816a2.85 2.85 0 0 0-.096-.624h2.376c-.048.288-.088.64-.12 1.056-.032.4-.048.776-.048 1.128v13.608a22.855 22.855 0 0 0 3.552-1.224 29.412 29.412 0 0 0 3.6-1.848 27.955 27.955 0 0 0 3.312-2.352 16.587 16.587 0 0 0 2.664-2.76l1.08 1.68c-1.552 1.936-3.536 3.632-5.952 5.088-2.4 1.456-5.096 2.616-8.088 3.48-.128.032-.28.08-.456.144-.176.08-.36.176-.552.288l-1.392-1.2Zm21.12-9.624c.24.016.536.04.888.072.352.016.736.032 1.152.048h14.448c.608 0 1.128-.016 1.56-.048a94.53 94.53 0 0 1 1.032-.072v2.352l-1.08-.072c-.464-.032-.96-.048-1.488-.048h-13.176c-.656 0-1.28.016-1.872.048-.592.016-1.08.04-1.464.072v-2.352Zm25.824-5.232a30.021 30.021 0 0 0 2.376.096h10.272c.432 0 .848-.008 1.248-.024.416-.016.792-.04 1.128-.072v2.16a12.28 12.28 0 0 0-1.152-.048 31.854 31.854 0 0 0-1.224-.024h-10.272c-.416 0-.824.008-1.224.024l-1.152.048v-2.16Zm-2.064 11.88c.416.016.832.04 1.248.072.416.032.84.048 1.272.048h14.376c.368 0 .736-.008 1.104-.024l1.08-.096v2.304a22.366 22.366 0 0 0-1.128-.072 12.795 12.795 0 0 0-1.056-.048h-14.376c-.432 0-.864.016-1.296.048-.416.016-.824.04-1.224.072v-2.304Zm27.24-13.848c.432.288.928.648 1.488 1.08.56.416 1.128.864 1.704 1.344.592.464 1.144.92 1.656 1.368.512.448.936.84 1.272 1.176l-1.512 1.512c-.304-.304-.696-.68-1.176-1.128a37.65 37.65 0 0 0-1.584-1.392 40.909 40.909 0 0 0-1.704-1.392 18.404 18.404 0 0 0-1.512-1.104l1.368-1.464Zm-2.064 16.08a24.324 24.324 0 0 0 3.84-.864 23.711 23.711 0 0 0 3.192-1.248c.96-.464 1.816-.928 2.568-1.392a21.078 21.078 0 0 0 3.408-2.64 24.492 24.492 0 0 0 2.736-3.12c.784-1.072 1.408-2.096 1.872-3.072l1.152 2.04c-.544.992-1.216 2-2.016 3.024a25.872 25.872 0 0 1-2.712 2.952 22.23 22.23 0 0 1-3.336 2.568c-.8.496-1.68.984-2.64 1.464-.944.48-1.984.92-3.12 1.32a25.08 25.08 0 0 1-3.672.936l-1.272-1.968ZM357.36 533.2c.208.272.432.608.672 1.008.24.384.472.776.696 1.176.224.4.424.768.6 1.104l-1.296.576c-.24-.48-.544-1.04-.912-1.68a19.935 19.935 0 0 0-1.032-1.632l1.272-.552Zm2.64-.96c.208.288.432.632.672 1.032.256.4.504.8.744 1.2.24.384.44.728.6 1.032l-1.296.576a21.085 21.085 0 0 0-.936-1.704 19.388 19.388 0 0 0-1.056-1.584l1.272-.552Zm-1.056 5.736c-.096.16-.192.368-.288.624-.096.24-.184.456-.264.648-.208.8-.512 1.68-.912 2.64a23.883 23.883 0 0 1-1.416 2.88c-.56.96-1.2 1.88-1.92 2.76-1.088 1.328-2.392 2.536-3.912 3.624s-3.4 2.056-5.64 2.904l-1.752-1.584c1.472-.432 2.792-.952 3.96-1.56a19.783 19.783 0 0 0 3.144-2.064 17.84 17.84 0 0 0 2.496-2.4 16.806 16.806 0 0 0 1.704-2.424c.512-.88.952-1.76 1.32-2.64.384-.896.648-1.704.792-2.424h-8.88l.768-1.728h7.656c.32 0 .608-.016.864-.048.272-.032.504-.088.696-.168l1.584.96Zm-8.04-3.624c-.192.32-.384.656-.576 1.008-.192.352-.352.64-.48.864a26.612 26.612 0 0 1-1.776 2.856 24.193 24.193 0 0 1-2.592 3.024 21.911 21.911 0 0 1-3.408 2.76l-1.68-1.224a20.01 20.01 0 0 0 2.784-1.992 18.454 18.454 0 0 0 2.16-2.184 20.143 20.143 0 0 0 1.584-2.112c.432-.688.776-1.296 1.032-1.824.128-.208.264-.496.408-.864.16-.384.272-.736.336-1.056l2.208.744Zm13.752-.432h20.688v1.848h-20.688v-1.848Zm11.76 7.008 1.344-1.152c.704.464 1.448.968 2.232 1.512.784.528 1.552 1.08 2.304 1.656a52.835 52.835 0 0 1 2.088 1.68 20.566 20.566 0 0 1 1.656 1.512l-1.464 1.392a22.094 22.094 0 0 0-1.608-1.536 39.606 39.606 0 0 0-2.04-1.752 50.07 50.07 0 0 0-2.28-1.728 49.412 49.412 0 0 0-2.232-1.584Zm-.432-6.36 1.944.696a31.22 31.22 0 0 1-3.264 4.824 32.396 32.396 0 0 1-4.296 4.344 28.095 28.095 0 0 1-5.088 3.432c-.08-.16-.2-.336-.36-.528a14.342 14.342 0 0 0-.456-.576 4.504 4.504 0 0 0-.408-.48A26.273 26.273 0 0 0 367.8 544c1.2-.88 2.312-1.832 3.336-2.856a30.036 30.036 0 0 0 2.76-3.216 22.606 22.606 0 0 0 2.088-3.36Zm-1.968 4.776 1.944-1.92v16.848h-1.944v-14.928ZM399 545.32h9.168v1.704H399v-1.704Zm-5.376 1.032c.432 1.232.992 2.24 1.68 3.024a7.601 7.601 0 0 0 2.376 1.8c.912.416 1.92.704 3.024.864 1.104.144 2.28.216 3.528.216h4.968c.416 0 .728-.008.936-.024a3.92 3.92 0 0 0-.288.528c-.08.224-.16.44-.24.648a6.349 6.349 0 0 0-.144.6h-5.304c-1.456 0-2.8-.104-4.032-.312-1.232-.192-2.352-.544-3.36-1.056-.992-.496-1.88-1.2-2.664-2.112-.768-.928-1.424-2.12-1.968-3.576l1.488-.6Zm4.584-5.28h1.848v11.952l-1.848-.6v-11.352Zm-5.376-5.928v4.728h12.792v-4.728h-12.792Zm-1.776-1.728h16.44v8.16h-16.44v-8.16Zm1.368 9.96 1.896.24a27.004 27.004 0 0 1-.864 3.984 16.75 16.75 0 0 1-1.584 3.768 9.63 9.63 0 0 1-2.544 2.952 7.552 7.552 0 0 0-.384-.408 6.4 6.4 0 0 0-.888-.816 8.382 8.382 0 0 0 2.328-2.688 15.406 15.406 0 0 0 1.368-3.456c.336-1.232.56-2.424.672-3.576Z"/>
    <path fill="#7F1D1D" d="M1160.7 432.727H760.3c-7.898 0-14.3 7.489-14.3 16.727v133.819c0 9.238 6.402 16.727 14.3 16.727h400.4c7.9 0 14.3-7.489 14.3-16.727V449.454c0-9.238-6.4-16.727-14.3-16.727Z"/>
    <path fill="#fff" d="M961.695 489.2c1.966 0 3.716.417 5.25 1.25 1.566.833 2.8 2.05 3.7 3.65.933 1.6 1.4 3.583 1.4 5.95 0 2.567-.5 4.783-1.5 6.65s-2.5 3.3-4.5 4.3-4.5 1.5-7.5 1.5c-1.834 0-3.55-.167-5.15-.5-1.567-.333-2.95-.817-4.15-1.45v-6.5c1.166.633 2.566 1.183 4.2 1.65 1.666.433 3.2.65 4.6.65 1.266 0 2.333-.2 3.2-.6a4.053 4.053 0 0 0 1.95-1.85c.466-.833.7-1.9.7-3.2 0-1.767-.5-3.1-1.5-4-1-.933-2.534-1.4-4.6-1.4-.867 0-1.734.1-2.6.3-.867.167-1.617.333-2.25.5l-3.1-1.6 1.3-18.2h18.65v6.4h-11.7l-.55 7 1.6-.3c.566-.133 1.416-.2 2.55-.2Zm-72.019 44.264h8.256v1.68h-8.256v-1.68Zm.288 6.816h7.752v1.656h-7.752v-1.656Zm-.72 8.544c.736-.192 1.584-.416 2.544-.672.96-.256 1.976-.536 3.048-.84 1.088-.304 2.168-.608 3.24-.912l.24 1.608c-1.504.448-3.024.896-4.56 1.344-1.52.448-2.872.848-4.056 1.2l-.456-1.728Zm11.496-10.152v2.424h7.848v-2.424h-7.848Zm0 3.864v2.448h7.848v-2.448h-7.848Zm0-7.728v2.4h7.848v-2.4h-7.848Zm-1.68-1.512h11.28v13.224h-11.28v-13.224Zm6.288 12.48h1.728v6.12c0 .288.04.472.12.552.08.096.264.144.552.144h1.896a.48.48 0 0 0 .408-.192c.096-.128.16-.392.192-.792.048-.416.08-1.032.096-1.848.128.08.28.168.456.264.192.096.384.176.576.24.192.064.368.12.528.168-.048.976-.144 1.736-.288 2.28-.144.544-.36.92-.648 1.128-.272.208-.648.312-1.128.312h-2.352c-.576 0-1.024-.064-1.344-.192-.304-.128-.512-.36-.624-.696-.112-.336-.168-.792-.168-1.368v-6.12Zm-4.104.36h1.776a17.837 17.837 0 0 1-.528 2.832 7.62 7.62 0 0 1-1.08 2.304c-.48.688-1.12 1.296-1.92 1.824-.784.544-1.784 1-3 1.368a5.294 5.294 0 0 0-.264-.504 8.79 8.79 0 0 0-.384-.552 1.907 1.907 0 0 0-.384-.408c1.104-.304 2.008-.672 2.712-1.104.72-.448 1.288-.96 1.704-1.536.416-.576.72-1.216.912-1.92.208-.704.36-1.472.456-2.304Zm-8.232-12h1.752v14.136l-1.752.312v-14.448Zm27.432 7.968h15.12v1.56h-15.12v-1.56Zm2.712 3.24h10.44v1.488h-10.44v-1.488Zm1.152-2.664 1.584.408a15.085 15.085 0 0 1-2.472 3.696c-1.008 1.12-2.064 2.056-3.168 2.808-.08-.096-.2-.216-.36-.36a11.952 11.952 0 0 0-.456-.432 2.04 2.04 0 0 0-.432-.312 14.631 14.631 0 0 0 3.072-2.52c.96-1.008 1.704-2.104 2.232-3.288Zm8.952 2.664h1.704l-.024.288c0 .176-.008.32-.024.432-.128 1.664-.264 3.008-.408 4.032-.128 1.024-.272 1.808-.432 2.352-.16.544-.352.936-.576 1.176-.192.224-.4.376-.624.456-.224.08-.48.128-.768.144-.256.032-.6.048-1.032.048-.416 0-.864-.016-1.344-.048 0-.224-.04-.48-.12-.768a3.75 3.75 0 0 0-.288-.72 20.798 20.798 0 0 0 2.04.12c.16 0 .296-.016.408-.048a.533.533 0 0 0 .312-.216c.176-.16.328-.488.456-.984.144-.496.272-1.224.384-2.184.128-.976.24-2.24.336-3.792v-.288Zm-8.832-7.848v1.896h7.728v-1.896h-7.728Zm0-3.192v1.896h7.728v-1.896h-7.728Zm-1.632-1.344h11.04v7.8h-11.04v-7.8Zm-9.024 4.464h7.104v1.728h-7.104v-1.728Zm2.808-4.992h1.704v14.76h-1.704v-14.76Zm-3.264 15.696c.608-.256 1.312-.56 2.112-.912s1.656-.736 2.568-1.152c.912-.416 1.824-.824 2.736-1.224l.384 1.584a797.56 797.56 0 0 0-3.72 1.848c-1.248.608-2.376 1.16-3.384 1.656l-.696-1.8Zm16.896-2.496 1.248.672a17.294 17.294 0 0 1-1.224 3.072c-.528 1.04-1.12 2-1.776 2.88-.656.88-1.344 1.6-2.064 2.16a4.467 4.467 0 0 0-.624-.552 4.693 4.693 0 0 0-.72-.48c.752-.512 1.464-1.184 2.136-2.016a14.903 14.903 0 0 0 1.8-2.76c.528-1.008.936-2 1.224-2.976Zm-3.768.048 1.248.72a16.925 16.925 0 0 1-1.608 2.64c-.64.88-1.352 1.696-2.136 2.448a16.294 16.294 0 0 1-2.352 1.896 4.604 4.604 0 0 0-.552-.6 3.908 3.908 0 0 0-.648-.528c.784-.432 1.568-1 2.352-1.704a16.392 16.392 0 0 0 2.136-2.328 12.83 12.83 0 0 0 1.56-2.544Zm23.592-9.672a67.771 67.771 0 0 1-.624 3.912 34.84 34.84 0 0 1-.936 3.96c-.48 1.648-1.016 3.024-1.608 4.128-.576 1.104-1.2 1.936-1.872 2.496-.672.56-1.376.84-2.112.84-.704 0-1.384-.256-2.04-.768-.656-.512-1.192-1.248-1.608-2.208-.416-.976-.624-2.12-.624-3.432 0-1.312.264-2.552.792-3.72a10.133 10.133 0 0 1 2.232-3.096c.96-.912 2.08-1.632 3.36-2.16a10.655 10.655 0 0 1 4.104-.792c1.408 0 2.672.232 3.792.696 1.136.464 2.104 1.104 2.904 1.92.8.8 1.416 1.736 1.848 2.808a8.913 8.913 0 0 1 .648 3.408c0 1.68-.36 3.16-1.08 4.44-.704 1.28-1.728 2.32-3.072 3.12-1.328.8-2.944 1.328-4.848 1.584l-1.128-1.776c.384-.048.752-.096 1.104-.144.352-.048.672-.104.96-.168a9.602 9.602 0 0 0 2.232-.816 7.993 7.993 0 0 0 1.968-1.44 6.657 6.657 0 0 0 1.368-2.088c.352-.816.528-1.744.528-2.784 0-.976-.16-1.88-.48-2.712a6.395 6.395 0 0 0-1.416-2.232 6.685 6.685 0 0 0-2.28-1.512c-.896-.368-1.92-.552-3.072-.552-1.312 0-2.504.24-3.576.72a8.699 8.699 0 0 0-2.712 1.896 8.555 8.555 0 0 0-1.704 2.544c-.4.912-.6 1.808-.6 2.688 0 1.008.128 1.84.384 2.496.272.64.592 1.112.96 1.416.384.304.76.456 1.128.456.384 0 .776-.184 1.176-.552.4-.384.808-.992 1.224-1.824.416-.848.824-1.944 1.224-3.288.352-1.152.648-2.376.888-3.672.256-1.296.44-2.568.552-3.816l2.016.024Zm12.144-1.776h20.64v1.584h-20.64v-1.584Zm1.464 3.936h18.12v1.56h-18.12v-1.56Zm1.56 8.664h14.952v1.56h-14.952v-1.56Zm.024-5.208h16.056v7.992h-1.8v-6.48h-14.256v-1.512Zm-1.056 0h1.776v3.168c0 .72-.048 1.504-.144 2.352-.08.832-.248 1.68-.504 2.544-.24.864-.576 1.704-1.008 2.52a9.3 9.3 0 0 1-1.704 2.232 3.227 3.227 0 0 0-.408-.432c-.16-.16-.328-.32-.504-.48a2.192 2.192 0 0 0-.48-.312c.88-.848 1.528-1.76 1.944-2.736.416-.992.688-1.976.816-2.952.144-.992.216-1.912.216-2.76v-3.144Zm7.368-9.432h1.824v6.84h-1.824v-6.84Zm.048 9.936h1.752v5.64h-1.752v-5.64Zm19.056-9.888 1.752.504a20.167 20.167 0 0 1-1.536 2.64 23.288 23.288 0 0 1-1.896 2.376 18.84 18.84 0 0 1-1.992 1.944 2.76 2.76 0 0 0-.432-.384 7.59 7.59 0 0 0-.552-.456 3.342 3.342 0 0 0-.48-.336c1.024-.768 1.992-1.704 2.904-2.808a16.657 16.657 0 0 0 2.232-3.48Zm-.84 2.76h16.536v1.632h-17.136l.6-1.632Zm-4.008 5.664h21.434v1.656h-21.434v-1.656Zm.36 5.736h20.764v1.656h-20.764V546.4Zm7.272-10.848h1.584v11.64h-1.584v-11.64Zm-4.272 0h1.608v11.712h-1.608v-11.712Zm8.616 0h1.56v11.712h-1.56v-11.712Zm4.388 0h1.68v11.712h-1.68v-11.712Zm-9.38 14.136 1.656-.168c.16.704.296 1.464.408 2.28.112.816.176 1.504.192 2.064l-1.752.24c0-.384-.024-.832-.072-1.344a19.266 19.266 0 0 0-.168-1.56 12.86 12.86 0 0 0-.264-1.512Zm4.896 0 1.68-.312c.224.464.44.968.644 1.512.21.528.4 1.04.56 1.536.16.496.28.936.36 1.32l-1.78.384c-.112-.576-.304-1.28-.576-2.112a24.412 24.412 0 0 0-.888-2.328Zm4.894-.168 1.71-.552c.4.464.8.984 1.22 1.56.42.576.8 1.144 1.15 1.704.37.544.66 1.04.87 1.488l-1.78.648a10.98 10.98 0 0 0-.82-1.488c-.33-.56-.71-1.136-1.12-1.728a33.27 33.27 0 0 0-1.23-1.632Zm-13.99-.456 1.728.432c-.32.896-.736 1.784-1.248 2.664-.512.88-1.096 1.608-1.752 2.184l-1.68-.696c.624-.512 1.2-1.184 1.728-2.016a11.41 11.41 0 0 0 1.224-2.568Zm36.84-2.592h1.66v5.472c0 .288.04.472.12.552.08.08.25.12.52.12h1.83c.19 0 .33-.064.41-.192.09-.128.16-.4.19-.816.05-.416.08-1.04.09-1.872.12.08.26.168.44.264.17.08.36.152.55.216l.5.168c-.05 1.008-.14 1.784-.29 2.328-.12.544-.32.92-.6 1.128-.27.208-.64.312-1.1.312h-2.23c-.56 0-.99-.072-1.3-.216-.3-.128-.51-.352-.62-.672-.11-.32-.17-.76-.17-1.32v-5.472Zm-3.91-7.584v2.544h6.69v-2.544h-6.69Zm0 3.984v2.544h6.69v-2.544h-6.69Zm0-7.92v2.52h6.69v-2.52h-6.69Zm-1.68-1.488h10.1v13.44h-10.1v-13.44Zm1.99 12.936h1.73c-.13 1.248-.37 2.376-.72 3.384a6.915 6.915 0 0 1-1.66 2.64c-.73.768-1.77 1.4-3.12 1.896-.06-.128-.16-.28-.29-.456a5.795 5.795 0 0 0-.38-.528 2.56 2.56 0 0 0-.38-.384c1.2-.416 2.12-.936 2.78-1.56a5.42 5.42 0 0 0 1.42-2.184c.3-.848.51-1.784.62-2.808Zm-11.98-9.648h7.49v1.632h-7.49v-1.632Zm3.51 7.152 1.75-2.088v12.504h-1.75v-10.416Zm0-11.664h1.75v5.328h-1.75v-5.328Zm1.75 9.816c.19.144.47.384.84.72.38.336.78.712 1.2 1.128.43.4.82.768 1.18 1.104.36.336.63.584.79.744l-1.11 1.488c-.2-.272-.48-.6-.84-.984-.33-.384-.7-.784-1.1-1.2-.4-.416-.78-.8-1.15-1.152-.35-.368-.65-.664-.89-.888l1.08-.96Zm1.61-5.304h.36l.33-.072 1.01.648a21.428 21.428 0 0 1-2.23 4.2 25.237 25.237 0 0 1-3.02 3.672c-1.09 1.088-2.18 2.008-3.27 2.76a4.1 4.1 0 0 0-.26-.576c-.11-.208-.23-.408-.34-.6a2.244 2.244 0 0 0-.33-.456c1.04-.64 2.06-1.448 3.07-2.424a21.68 21.68 0 0 0 2.76-3.216c.81-1.168 1.45-2.36 1.92-3.576v-.36Z"/>
    <path fill="#7F1D1D" d="M1749.27 432.727h-356.54c-7.03 0-12.73 7.489-12.73 16.727v133.819c0 9.238 5.7 16.727 12.73 16.727h356.54c7.03 0 12.73-7.489 12.73-16.727V449.454c0-9.238-5.7-16.727-12.73-16.727Z"/>
    <path fill="#fff" d="M1559.09 496.85c0-2.067.14-4.1.4-6.1.3-2 .8-3.883 1.5-5.65.74-1.8 1.74-3.383 3-4.75 1.3-1.4 2.95-2.483 4.95-3.25 2.04-.8 4.49-1.2 7.35-1.2.67 0 1.45.033 2.35.1.94.033 1.7.117 2.3.25v6.05c-.63-.167-1.31-.283-2.05-.35-.73-.1-1.56-.15-2.5-.15-1.83 0-3.38.267-4.65.8-1.26.533-2.28 1.3-3.05 2.3-.73 1-1.28 2.183-1.65 3.55-.33 1.333-.53 2.833-.6 4.5h.25c.44-.8.95-1.5 1.55-2.1a6.955 6.955 0 0 1 2.3-1.5c.9-.367 1.95-.55 3.15-.55 1.97 0 3.65.45 5.05 1.35 1.44.867 2.54 2.15 3.3 3.85.77 1.667 1.15 3.7 1.15 6.1 0 2.567-.48 4.783-1.45 6.65-.93 1.867-2.26 3.3-4 4.3-1.73.967-3.8 1.45-6.2 1.45-1.73 0-3.36-.317-4.9-.95-1.5-.633-2.81-1.583-3.95-2.85-1.13-1.3-2.01-2.933-2.65-4.9-.63-1.967-.95-4.283-.95-6.95Zm12.3 9.6c1.17 0 2.12-.5 2.85-1.5.74-1.033 1.1-2.617 1.1-4.75 0-1.733-.31-3.1-.95-4.1-.63-1-1.6-1.5-2.9-1.5-.9 0-1.68.25-2.35.75-.63.467-1.13 1.083-1.5 1.85-.33.767-.5 1.55-.5 2.35 0 .833.09 1.667.25 2.5.17.8.42 1.533.75 2.2.37.667.82 1.2 1.35 1.6.54.4 1.17.6 1.9.6Zm-39.32 29.558h13.23v1.68h-13.23v-1.68Zm.48 5.304h10.59v1.656h-10.59v-1.656Zm5.19-9.072h1.77v10.008h-1.77V532.24Zm-2.86 10.272c.91 2.528 2.32 4.688 4.22 6.48 1.91 1.792 4.26 3.056 7.06 3.792-.13.128-.27.28-.43.456-.15.192-.28.384-.41.576-.13.192-.24.368-.34.528-2.88-.864-5.29-2.264-7.24-4.2-1.94-1.936-3.43-4.32-4.47-7.152l1.61-.48Zm8.11-1.2h.34l.33-.072 1.16.504c-.52 1.712-1.21 3.248-2.09 4.608-.88 1.36-1.91 2.56-3.07 3.6a19.362 19.362 0 0 1-3.77 2.616c-1.35.72-2.75 1.296-4.23 1.728-.06-.16-.15-.344-.26-.552a8.7 8.7 0 0 0-.34-.6 1.996 1.996 0 0 0-.38-.456c1.38-.368 2.7-.872 3.98-1.512 1.3-.64 2.49-1.416 3.58-2.328 1.1-.928 2.06-1.992 2.88-3.192.82-1.216 1.44-2.56 1.87-4.032v-.312Zm-19.1 3.624c.67-.16 1.43-.352 2.28-.576.85-.24 1.74-.488 2.69-.744.96-.272 1.91-.544 2.85-.816l.24 1.656c-1.31.4-2.63.792-3.96 1.176-1.31.384-2.5.736-3.57 1.056l-.53-1.752Zm.29-7.848h7.53v1.704h-7.53v-1.704Zm3.09-4.848h1.78v19.896c0 .512-.07.904-.19 1.176-.13.272-.36.48-.68.624-.32.144-.74.232-1.27.264-.51.048-1.18.064-2.01.048a5.543 5.543 0 0 0-.22-.816c-.11-.304-.22-.584-.34-.84.56.016 1.08.024 1.54.024h.94c.3 0 .45-.16.45-.48V532.24Zm27.63 9.888 1.53.216c-.08 1.12-.2 2.224-.36 3.312a30.251 30.251 0 0 1-.6 3.048c-.22.928-.51 1.76-.86 2.496a3.6 3.6 0 0 0-.39-.264c-.14-.112-.3-.216-.48-.312-.16-.112-.31-.2-.45-.264.35-.672.63-1.448.84-2.328.21-.88.37-1.824.48-2.832.13-1.008.22-2.032.29-3.072Zm-.63-4.608h9v1.68h-9v-1.68Zm3.63-4.944h1.7v21.384h-1.7v-21.384Zm2.85 9.864 1.42-.264c.19.752.37 1.56.55 2.424.19.848.35 1.68.48 2.496.14.816.24 1.552.29 2.208l-1.47.288c-.04-.656-.13-1.392-.26-2.208-.13-.832-.28-1.672-.46-2.52-.16-.864-.34-1.672-.55-2.424Zm3.22-8.784h5.73v1.608h-5.73v-1.608Zm-.58 6.624h6.65v1.632h-6.65v-1.632Zm-3.12-6.864 1.23-.576c.41.496.81 1.056 1.2 1.68.4.608.68 1.136.86 1.584l-1.27.648c-.18-.448-.46-.984-.84-1.608-.39-.64-.78-1.216-1.18-1.728Zm5.88 7.344h1.73v11.424c0 .496-.06.88-.19 1.152-.11.288-.35.512-.7.672-.33.128-.78.208-1.34.24-.56.048-1.27.072-2.11.072-.02-.24-.08-.528-.2-.864-.09-.336-.2-.632-.31-.888.61.016 1.16.024 1.66.024.51.016.85.016 1.03 0 .18-.016.29-.056.34-.12.06-.048.09-.144.09-.288V540.76Zm-14.13-8.52 1.65.6a17.6 17.6 0 0 1-1.39 2.016c-.54.672-1.12 1.312-1.73 1.92-.59.608-1.2 1.152-1.82 1.632a3.915 3.915 0 0 0-.29-.408 5.005 5.005 0 0 0-.36-.504c-.13-.176-.24-.32-.34-.432.55-.416 1.09-.888 1.64-1.416.56-.544 1.07-1.112 1.53-1.704.47-.592.83-1.16 1.11-1.704Zm-1.42 9.576 1.44-1.464.22.072v13.92h-1.66v-12.528Zm2.14-4.752 1.6.552a23.14 23.14 0 0 1-1.65 2.952c-.64.96-1.32 1.864-2.04 2.712-.72.848-1.45 1.6-2.19 2.256-.06-.128-.16-.288-.28-.48-.13-.208-.27-.408-.41-.6a3.386 3.386 0 0 0-.39-.48c1.04-.848 2.04-1.88 3-3.096a18.882 18.882 0 0 0 2.36-3.816Zm25.89-3.48h15.36v1.512h-15.36v-1.512Zm1.9 3.168h12.5v5.424h-12.5v-1.44h10.75v-2.568h-10.75v-1.416Zm-.84 0h1.68v4.272c0 .896-.04 1.88-.12 2.952a25.96 25.96 0 0 1-.46 3.264c-.21 1.12-.52 2.216-.93 3.288-.4 1.072-.93 2.056-1.59 2.952a2.32 2.32 0 0 0-.38-.384c-.16-.144-.33-.288-.51-.432a2.921 2.921 0 0 0-.45-.288c.62-.848 1.12-1.76 1.49-2.736.36-.976.64-1.968.81-2.976.19-1.008.31-1.992.36-2.952.07-.976.1-1.88.1-2.712v-4.248Zm1.29 7.2h11.48v1.416h-9.96v9h-1.52v-10.416Zm10.9 0h1.61v8.592c0 .384-.04.696-.12.936-.08.24-.24.432-.48.576-.26.128-.57.208-.94.24s-.83.048-1.39.048a3.198 3.198 0 0 0-.19-.792 4.41 4.41 0 0 0-.34-.768c.39.016.71.024.99.024h.57c.19 0 .29-.096.29-.288v-8.568Zm-10.2 4.176h10.82v1.44h-10.82v-1.44Zm3-3.72h1.34v9.792h-1.34v-9.792Zm3.58 0h1.36v9.792h-1.36v-9.792Zm-11.67-12.048 1.66.456a38.524 38.524 0 0 1-1.61 4.128 38.484 38.484 0 0 1-1.99 3.864c-.72 1.2-1.48 2.264-2.28 3.192a5.15 5.15 0 0 0-.24-.552c-.11-.24-.23-.472-.36-.696a6.42 6.42 0 0 0-.34-.576 20.97 20.97 0 0 0 2.02-2.784 29.55 29.55 0 0 0 1.75-3.384 31.6 31.6 0 0 0 1.39-3.648Zm-1.94 5.88 1.68-1.656.05.048v17.688h-1.73v-16.08Zm21.6 13.848h21.53v1.464h-21.53v-1.464Zm.14-15.6h21.27v1.488h-21.27v-1.488Zm1.66 12.072h18.21V550h-18.21v-1.44Zm7.97-14.496h1.8v18.72h-1.8v-18.72Zm8.35-1.68.96 1.392c-1.07.192-2.29.368-3.65.528-1.34.144-2.76.272-4.25.384-1.49.096-2.98.184-4.49.264-1.5.064-2.96.104-4.36.12 0-.208-.05-.448-.15-.72-.08-.288-.16-.52-.24-.696 1.39-.048 2.83-.104 4.32-.168 1.51-.08 2.98-.168 4.42-.264 1.45-.112 2.81-.24 4.08-.384 1.28-.144 2.4-.296 3.36-.456Zm-13.8 11.376v1.824h12.96v-1.824h-12.96Zm0-3.024v1.8h12.96v-1.8h-12.96Zm-1.75-1.296h16.53v7.464h-16.53v-7.464Z"/>
    <path fill="#7F1D1D" d="M821.8 690.818H396.2c-8.395 0-15.2 7.082-15.2 15.819v126.545c0 8.736 6.805 15.818 15.2 15.818h425.6c8.395 0 15.2-7.082 15.2-15.818V706.637c0-8.737-6.805-15.819-15.2-15.819Z"/>
    <path fill="#fff" d="m600.731 751 12.05-29.35h-15.55v-6.35h24.15v4.75L609.131 751h-8.4Zm-53.771 35.176h1.68v21.12h-1.68v-21.12Zm6.6-.456h1.608v18.336h-1.608V785.72Zm4.176 1.536 1.608.528c-.24.576-.496 1.184-.768 1.824a65.679 65.679 0 0 1-.816 1.8 23.393 23.393 0 0 1-.744 1.536l-1.272-.48c.24-.48.48-1.024.72-1.632.256-.608.496-1.224.72-1.848.224-.64.408-1.216.552-1.728Zm-8.232.696 1.344-.48c.4.736.76 1.544 1.08 2.424.32.88.544 1.64.672 2.28l-1.464.528c-.112-.656-.32-1.424-.624-2.304a19.451 19.451 0 0 0-1.008-2.448Zm-.216 5.376h10.344v1.656h-10.344v-1.656Zm-1.344 11.16h12.168v1.656h-12.168v-1.656Zm5.28-10.272 1.224.504c-.32.976-.736 1.984-1.248 3.024a23.527 23.527 0 0 1-1.656 2.928c-.592.912-1.2 1.664-1.824 2.256-.08-.24-.208-.52-.384-.84a5.963 5.963 0 0 0-.456-.816c.56-.512 1.12-1.16 1.68-1.944a20.722 20.722 0 0 0 1.536-2.52c.48-.896.856-1.76 1.128-2.592Zm1.776 1.368c.176.144.424.368.744.672.32.304.664.656 1.032 1.056l1.152 1.2c.384.384.728.736 1.032 1.056.304.304.52.536.648.696l-1.08 1.416c-.208-.32-.504-.72-.888-1.2s-.8-.984-1.248-1.512a47.568 47.568 0 0 0-1.296-1.512c-.4-.464-.728-.824-.984-1.08l.888-.792Zm-13.296-10.344 1.56.6a67.655 67.655 0 0 1-1.944 3.696c-.32.592-.632 1.112-.936 1.56l-1.224-.528c.288-.464.592-1.008.912-1.632a35.331 35.331 0 0 0 1.632-3.696Zm2.544 2.736 1.488.672c-.528.896-1.112 1.848-1.752 2.856a64.29 64.29 0 0 1-1.92 2.88c-.64.912-1.256 1.72-1.848 2.424l-1.08-.6c.432-.528.88-1.128 1.344-1.8.464-.688.928-1.4 1.392-2.136.464-.752.896-1.496 1.296-2.232.416-.736.776-1.424 1.08-2.064Zm-6.36 2.232.936-1.128c.432.384.864.808 1.296 1.272.448.464.856.92 1.224 1.368.368.448.648.856.84 1.224l-.984 1.32a10.073 10.073 0 0 0-.864-1.296c-.352-.48-.744-.96-1.176-1.44-.432-.48-.856-.92-1.272-1.32Zm5.472 3.216 1.272-.504c.304.528.592 1.104.864 1.728.272.608.512 1.2.72 1.776.224.576.376 1.096.456 1.56l-1.368.576c-.08-.448-.224-.968-.432-1.56-.192-.592-.424-1.2-.696-1.824a16.315 16.315 0 0 0-.816-1.752Zm-5.688 2.424c.992-.032 2.168-.088 3.528-.168 1.36-.08 2.76-.16 4.2-.24v1.536c-1.328.08-2.656.168-3.984.264l-3.528.216-.216-1.608Zm6.12 3.408 1.296-.384c.288.688.544 1.44.768 2.256.224.816.368 1.52.432 2.112l-1.368.432c-.048-.608-.176-1.32-.384-2.136a15.885 15.885 0 0 0-.744-2.28Zm-4.656-.288 1.464.24a32.344 32.344 0 0 1-.648 3.336c-.272 1.088-.6 2.016-.984 2.784a1.913 1.913 0 0 0-.384-.216c-.16-.08-.328-.16-.504-.24a7.457 7.457 0 0 0-.456-.192c.4-.736.72-1.608.96-2.616.24-1.024.424-2.056.552-3.096Zm2.4-2.4h1.56v10.752h-1.56v-10.752Zm34.872-11.352h1.776v6.744h-1.776v-6.744Zm-5.52 2.28h12.888v1.512h-12.888v-1.512Zm.864 3.696h11.208v1.536h-11.208v-1.536Zm-.744 3.168h12.816v4.32h-1.584v-2.856h-9.696v2.856h-1.536v-4.32Zm7.488 3.216h1.632v7.344c0 .304.032.496.096.576.08.08.24.12.48.12h1.512c.16 0 .28-.072.36-.216.096-.128.16-.4.192-.816.032-.432.056-1.072.072-1.92.176.128.408.256.696.384.304.128.568.224.792.288-.032 1.008-.12 1.784-.264 2.328-.128.56-.328.944-.6 1.152-.256.224-.608.336-1.056.336h-1.944c-.528 0-.936-.072-1.224-.216a1.092 1.092 0 0 1-.6-.672c-.096-.32-.144-.768-.144-1.344v-7.344Zm-4.416.024h1.632v1.512c0 .592-.056 1.248-.168 1.968-.096.704-.32 1.432-.672 2.184-.336.736-.848 1.456-1.536 2.16-.672.704-1.584 1.344-2.736 1.92a6.795 6.795 0 0 0-.6-.624c-.24-.24-.472-.44-.696-.6 1.072-.512 1.928-1.072 2.568-1.68.64-.624 1.112-1.256 1.416-1.896.32-.64.528-1.256.624-1.848a8.725 8.725 0 0 0 .168-1.608V797.6Zm-8.376-12.36 1.584.6a41.678 41.678 0 0 1-.96 1.848c-.336.64-.68 1.264-1.032 1.872a23.129 23.129 0 0 1-.96 1.56l-1.248-.552c.304-.464.616-1.008.936-1.632.336-.624.648-1.264.936-1.92.304-.656.552-1.248.744-1.776Zm2.688 2.736 1.512.72a98.605 98.605 0 0 1-1.824 2.832 82.96 82.96 0 0 1-2.04 2.88 32.166 32.166 0 0 1-1.92 2.424l-1.104-.624c.448-.528.92-1.128 1.416-1.8.496-.688.984-1.4 1.464-2.136a70.15 70.15 0 0 0 1.368-2.232c.432-.736.808-1.424 1.128-2.064Zm-6.504 2.28.936-1.152c.432.384.864.808 1.296 1.272.448.464.856.92 1.224 1.368.368.448.656.856.864 1.224l-1.008 1.344a10.073 10.073 0 0 0-.864-1.296c-.352-.48-.744-.96-1.176-1.44-.432-.48-.856-.92-1.272-1.32Zm5.568 3.216 1.32-.528c.336.512.656 1.072.96 1.68.304.608.576 1.2.816 1.776.256.56.44 1.056.552 1.488l-1.44.672a8.71 8.71 0 0 0-.504-1.56 24.28 24.28 0 0 0-.768-1.8c-.288-.624-.6-1.2-.936-1.728Zm-5.784 2.376 3.696-.168c1.44-.08 2.912-.16 4.416-.24v1.512l-4.2.288-3.696.216-.216-1.608Zm6.432 3.432 1.32-.384c.304.688.576 1.44.816 2.256.24.8.4 1.496.48 2.088l-1.416.456c-.048-.608-.192-1.32-.432-2.136a18.093 18.093 0 0 0-.768-2.28Zm-4.968-.312 1.512.24a29.721 29.721 0 0 1-.672 3.36c-.272 1.088-.592 2.016-.96 2.784a3.005 3.005 0 0 0-.408-.216 8.119 8.119 0 0 0-.984-.456c.4-.736.72-1.608.96-2.616.24-1.024.424-2.056.552-3.096Zm2.544-2.4h1.584v10.752h-1.584v-10.752Zm23.448-11.328h1.8v22.056h-1.8V785.24Zm-2.208 4.56 1.368.192a31.764 31.764 0 0 1-.24 2.16 21.65 21.65 0 0 1-.408 2.304 16.42 16.42 0 0 1-.552 2.016l-1.416-.48c.224-.544.416-1.168.576-1.872.16-.72.296-1.456.408-2.208.128-.768.216-1.472.264-2.112Zm4.176-.144 1.272-.552c.368.64.712 1.344 1.032 2.112.336.752.568 1.384.696 1.896l-1.344.696a8.916 8.916 0 0 0-.384-1.248c-.176-.48-.376-.976-.6-1.488a12.957 12.957 0 0 0-.672-1.416Zm4.92-3.312 1.752.288a34.504 34.504 0 0 1-.792 3.432 30.188 30.188 0 0 1-1.032 3.144c-.368.976-.776 1.84-1.224 2.592a4.679 4.679 0 0 0-.48-.288 7.069 7.069 0 0 0-.6-.312 41.978 41.978 0 0 0-.528-.24c.464-.704.88-1.512 1.248-2.424.368-.928.688-1.92.96-2.976.288-1.072.52-2.144.696-3.216Zm0 3.984H607.2v1.728h-11.736l.552-1.728Zm3.888-4.992h1.824v20.376h-1.824v-20.376Zm-5.088 11.712h11.856v1.68h-11.856v-1.68Zm-1.8 7.704h14.76v1.704h-14.76v-1.704Zm29.52-15.744a67.771 67.771 0 0 1-.624 3.912 34.84 34.84 0 0 1-.936 3.96c-.48 1.648-1.016 3.024-1.608 4.128-.576 1.104-1.2 1.936-1.872 2.496-.672.56-1.376.84-2.112.84-.704 0-1.384-.256-2.04-.768-.656-.512-1.192-1.248-1.608-2.208-.416-.976-.624-2.12-.624-3.432 0-1.312.264-2.552.792-3.72a10.133 10.133 0 0 1 2.232-3.096c.96-.912 2.08-1.632 3.36-2.16a10.655 10.655 0 0 1 4.104-.792c1.408 0 2.672.232 3.792.696 1.136.464 2.104 1.104 2.904 1.92.8.8 1.416 1.736 1.848 2.808a8.913 8.913 0 0 1 .648 3.408c0 1.68-.36 3.16-1.08 4.44-.704 1.28-1.728 2.32-3.072 3.12-1.328.8-2.944 1.328-4.848 1.584l-1.128-1.776c.384-.048.752-.096 1.104-.144.352-.048.672-.104.96-.168a9.602 9.602 0 0 0 2.232-.816 7.993 7.993 0 0 0 1.968-1.44 6.657 6.657 0 0 0 1.368-2.088c.352-.816.528-1.744.528-2.784 0-.976-.16-1.88-.48-2.712a6.395 6.395 0 0 0-1.416-2.232 6.685 6.685 0 0 0-2.28-1.512c-.896-.368-1.92-.552-3.072-.552-1.312 0-2.504.24-3.576.72a8.699 8.699 0 0 0-2.712 1.896 8.555 8.555 0 0 0-1.704 2.544c-.4.912-.6 1.808-.6 2.688 0 1.008.128 1.84.384 2.496.272.64.592 1.112.96 1.416.384.304.76.456 1.128.456.384 0 .776-.184 1.176-.552.4-.384.808-.992 1.224-1.824.416-.848.824-1.944 1.224-3.288.352-1.152.648-2.376.888-3.672.256-1.296.44-2.568.552-3.816l2.016.024Zm16.992-3.984 1.992.408a34.951 34.951 0 0 1-1.536 4.464 32.967 32.967 0 0 1-1.968 3.984 21.25 21.25 0 0 1-2.304 3.216 5.76 5.76 0 0 0-.504-.384 9.866 9.866 0 0 0-1.248-.816c.848-.832 1.624-1.816 2.328-2.952a25.543 25.543 0 0 0 1.872-3.744c.544-1.36 1-2.752 1.368-4.176Zm13.92 4.344h.36l.336-.096 1.44.504a43.726 43.726 0 0 1-.984 2.736 33.566 33.566 0 0 1-1.128 2.64 17.558 17.558 0 0 1-1.2 2.208l-1.608-.72c.352-.576.704-1.248 1.056-2.016.352-.768.68-1.576.984-2.424.304-.848.552-1.656.744-2.424v-.408Zm-14.112 0h14.784v1.776h-15.672l.888-1.776Zm5.664 1.584h1.008v3.288c0 .4.048.896.144 1.488.096.592.272 1.24.528 1.944.272.688.64 1.408 1.104 2.16.48.736 1.08 1.464 1.8 2.184.736.704 1.616 1.368 2.64 1.992 1.04.608 2.256 1.136 3.648 1.584a5.25 5.25 0 0 0-.432.504c-.144.208-.296.416-.456.624-.144.224-.264.416-.36.576-1.344-.48-2.528-1.056-3.552-1.728a16.105 16.105 0 0 1-2.616-2.088 16.117 16.117 0 0 1-1.824-2.256 13.804 13.804 0 0 1-1.128-2.112c-.256-.656-.432-1.216-.528-1.68-.096.464-.28 1.024-.552 1.68-.256.64-.624 1.328-1.104 2.064-.48.736-1.088 1.48-1.824 2.232-.72.736-1.592 1.44-2.616 2.112-1.024.688-2.216 1.28-3.576 1.776a4.437 4.437 0 0 0-.312-.504 7.624 7.624 0 0 0-.48-.576 4.486 4.486 0 0 0-.456-.48c1.392-.464 2.6-1.008 3.624-1.632 1.024-.624 1.896-1.288 2.616-1.992a13.073 13.073 0 0 0 1.824-2.184c.48-.752.848-1.48 1.104-2.184.256-.704.44-1.352.552-1.944.112-.608.168-1.12.168-1.536v-3.312H645Zm25.752 12.24h7.488v1.704h-7.488v-1.704Zm-.984-15.36h9.408v18.504h-1.8v-16.8h-5.88v17.184h-1.728v-18.888Zm-11.712 2.304h8.904v1.752h-8.904v-1.752Zm4.056-4.92 1.776.216c-.272 1.2-.576 2.48-.912 3.84a256.16 256.16 0 0 1-1.008 4.128 127.62 127.62 0 0 1-1.032 3.96 180.003 180.003 0 0 1-.936 3.36l-1.536-.744c.288-.912.592-1.976.912-3.192.336-1.216.664-2.496.984-3.84.336-1.344.656-2.68.96-4.008.304-1.328.568-2.568.792-3.72Zm-2.832 13.848.984-1.296c.784.4 1.584.848 2.4 1.344a36.368 36.368 0 0 1 2.4 1.56 27.54 27.54 0 0 1 2.136 1.632c.656.544 1.192 1.064 1.608 1.56l-1.08 1.512a13.363 13.363 0 0 0-1.584-1.56c-.624-.56-1.32-1.12-2.088-1.68a34.665 34.665 0 0 0-2.376-1.632 39.646 39.646 0 0 0-2.4-1.44Zm7.176-8.928h.312l.312-.024 1.128.216c-.256 3.216-.752 5.936-1.488 8.16s-1.712 4.048-2.928 5.472a13.76 13.76 0 0 1-4.32 3.384 5.723 5.723 0 0 0-.48-.768 5.938 5.938 0 0 0-.6-.72c1.52-.672 2.84-1.664 3.96-2.976 1.136-1.312 2.048-2.984 2.736-5.016.688-2.048 1.144-4.496 1.368-7.344v-.384Z"/>
    <path fill="#7F1D1D" d="M1524.7 690.818h-428.4c-8.45 0-15.3 7.082-15.3 15.819v126.545c0 8.736 6.85 15.818 15.3 15.818h428.4c8.45 0 15.3-7.082 15.3-15.818V706.637c0-8.737-6.85-15.819-15.3-15.819Z"/>
    <path fill="#fff" d="M1310.47 713.85c2.07 0 3.92.317 5.55.95 1.67.633 2.98 1.583 3.95 2.85.97 1.267 1.45 2.867 1.45 4.8 0 1.433-.27 2.7-.8 3.8-.5 1.067-1.2 2-2.1 2.8-.87.8-1.87 1.5-3 2.1 1.13.667 2.22 1.45 3.25 2.35 1.07.867 1.93 1.9 2.6 3.1.7 1.167 1.05 2.55 1.05 4.15 0 1.967-.47 3.683-1.4 5.15-.93 1.467-2.3 2.6-4.1 3.4-1.77.8-3.93 1.2-6.5 1.2-2.67 0-4.9-.383-6.7-1.15-1.77-.767-3.1-1.867-4-3.3-.87-1.433-1.3-3.133-1.3-5.1 0-1.633.27-3.05.8-4.25a9.655 9.655 0 0 1 2.3-3.1c.97-.9 2.03-1.65 3.2-2.25a19.002 19.002 0 0 1-2.7-2.25c-.8-.867-1.43-1.833-1.9-2.9-.47-1.1-.7-2.367-.7-3.8 0-1.9.48-3.483 1.45-4.75 1-1.267 2.33-2.217 4-2.85 1.7-.633 3.57-.95 5.6-.95Zm-4.6 26.65c0 1.3.38 2.367 1.15 3.2.77.833 1.87 1.25 3.3 1.25 1.07 0 1.93-.183 2.6-.55.7-.367 1.22-.883 1.55-1.55.33-.667.5-1.433.5-2.3 0-.9-.22-1.7-.65-2.4-.43-.7-.97-1.317-1.6-1.85-.63-.567-1.27-1.05-1.9-1.45l-.6-.4c-.83.467-1.58 1-2.25 1.6-.63.6-1.15 1.267-1.55 2-.37.7-.55 1.517-.55 2.45Zm4.55-21.15c-.93 0-1.73.317-2.4.95-.67.633-1 1.533-1 2.7 0 .8.15 1.517.45 2.15.33.6.75 1.133 1.25 1.6.53.433 1.1.85 1.7 1.25.57-.367 1.1-.767 1.6-1.2.53-.433.97-.95 1.3-1.55.33-.633.5-1.383.5-2.25 0-1.167-.33-2.067-1-2.7-.63-.633-1.43-.95-2.4-.95Zm-36.69 76.162h1.85v9.552c0 .56-.08.976-.24 1.248-.16.288-.46.496-.91.624-.42.144-.99.232-1.71.264-.7.032-1.59.048-2.66.048a4.016 4.016 0 0 0-.29-.912c-.13-.32-.25-.6-.38-.84.54.016 1.07.024 1.58.024.53.016.99.016 1.37 0h.82c.22-.016.37-.056.45-.12.08-.064.12-.184.12-.36v-9.528Zm-7.7-8.976h15.17v1.68h-15.17v-1.68Zm14.49 0h.46l.41-.096 1.29.984c-.65.672-1.4 1.352-2.25 2.04a34.103 34.103 0 0 1-5.16 3.528 2.154 2.154 0 0 0-.34-.408 8.151 8.151 0 0 0-.41-.432c-.14-.16-.27-.28-.38-.36.75-.4 1.53-.88 2.33-1.44.81-.56 1.58-1.136 2.3-1.728.72-.608 1.31-1.168 1.75-1.68v-.408Zm-16.75 7.656h20.09v1.728h-20.09v-1.728Zm5.55-3.192.96-1.344c.68.288 1.43.608 2.23.96.81.336 1.62.68 2.42 1.032.8.352 1.55.696 2.26 1.032.72.336 1.33.64 1.85.912l-.99 1.536c-.48-.272-1.07-.584-1.77-.936-.71-.352-1.46-.712-2.26-1.08-.8-.384-1.61-.752-2.42-1.104a79.04 79.04 0 0 0-2.28-1.008Zm13.92 3.192h.36l.33-.12 1.44.648a47.85 47.85 0 0 1-2.06 3.192c-.75 1.072-1.5 1.968-2.23 2.688l-1.49-.888c.4-.432.82-.936 1.27-1.512.45-.576.87-1.176 1.27-1.8.42-.64.79-1.256 1.11-1.848v-.36Zm4.6 7.56h21.41v1.488h-21.41v-1.488Zm4.71-7.32v1.416h12.29v-1.416h-12.29Zm0 2.568v1.44h12.29V797h-12.29Zm0-5.088v1.368h12.29v-1.368h-12.29Zm-1.8-1.224h15.96v8.976h-15.96v-8.976Zm11.16 8.664h1.85v7.92h-1.85v-7.92Zm-11.47-12.336h7.75v1.488h-7.75v-1.488Zm9.24 0h9.38v1.488h-9.38v-1.488Zm-8.79-1.896 1.68.456a17.466 17.466 0 0 1-1.7 3.048c-.67.976-1.36 1.8-2.07 2.472a2.687 2.687 0 0 0-.43-.336 5.922 5.922 0 0 0-.55-.36 5.89 5.89 0 0 0-.48-.312c.72-.624 1.39-1.368 2.02-2.232.64-.88 1.15-1.792 1.53-2.736Zm9.43 0 1.73.408c-.38 1.04-.89 2.016-1.53 2.928-.63.912-1.28 1.68-1.97 2.304-.11-.096-.27-.2-.48-.312a6.512 6.512 0 0 0-.6-.312c-.19-.112-.36-.2-.51-.264.72-.576 1.38-1.28 1.97-2.112.59-.848 1.06-1.728 1.39-2.64Zm-8.35 3.072 1.51-.504c.29.368.58.792.87 1.272.29.464.49.872.62 1.224l-1.56.576a9.84 9.84 0 0 0-.6-1.224c-.27-.496-.55-.944-.84-1.344Zm10.08-.072 1.47-.624c.38.368.77.8 1.17 1.296.42.48.72.912.91 1.296l-1.51.696c-.17-.368-.46-.8-.86-1.296-.39-.512-.78-.968-1.18-1.368Zm-8.09 11.208h1.83v1.944c0 .512-.08 1.04-.24 1.584-.15.544-.44 1.088-.89 1.632-.45.528-1.1 1.032-1.94 1.512-.85.496-1.97.944-3.36 1.344-.13-.192-.31-.424-.53-.696a4.216 4.216 0 0 0-.6-.648c1.29-.32 2.32-.672 3.07-1.056.77-.4 1.34-.816 1.73-1.248.38-.432.63-.856.74-1.272.13-.432.19-.832.19-1.2v-1.896Zm18.2-12.408h20.68v1.848h-20.68v-1.848Zm11.76 7.008 1.34-1.152c.7.464 1.45.968 2.23 1.512a47.68 47.68 0 0 1 4.39 3.336c.66.544 1.21 1.048 1.66 1.512l-1.46 1.392c-.44-.464-.97-.976-1.61-1.536a45.45 45.45 0 0 0-2.04-1.752 54.94 54.94 0 0 0-2.28-1.728 50.551 50.551 0 0 0-2.23-1.584Zm-.44-6.36 1.95.696a31.554 31.554 0 0 1-3.27 4.824 32.588 32.588 0 0 1-4.29 4.344 28.32 28.32 0 0 1-5.09 3.432c-.08-.16-.2-.336-.36-.528-.14-.192-.3-.384-.46-.576a5.059 5.059 0 0 0-.4-.48 26.12 26.12 0 0 0 3.74-2.28c1.2-.88 2.31-1.832 3.34-2.856a30.977 30.977 0 0 0 2.76-3.216 22.7 22.7 0 0 0 2.08-3.36Zm-1.96 4.776 1.94-1.92v16.848h-1.94v-14.928Zm24.98 5.976h9.17v1.704h-9.17v-1.704Zm-5.38 1.032c.44 1.232 1 2.24 1.68 3.024a7.594 7.594 0 0 0 2.38 1.8c.91.416 1.92.704 3.02.864 1.11.144 2.28.216 3.53.216h4.97c.42 0 .73-.008.94-.024-.1.144-.2.32-.29.528-.08.224-.16.44-.24.648-.07.224-.11.424-.15.6h-5.3c-1.46 0-2.8-.104-4.03-.312-1.23-.192-2.35-.544-3.36-1.056-.99-.496-1.88-1.2-2.67-2.112-.76-.928-1.42-2.12-1.96-3.576l1.48-.6Zm4.59-5.28h1.85v11.952l-1.85-.6v-11.352Zm-5.38-5.928v4.728h12.79v-4.728h-12.79Zm-1.77-1.728H1355v8.16h-16.44v-8.16Zm1.36 9.96 1.9.24a27.501 27.501 0 0 1-.86 3.984 17.14 17.14 0 0 1-1.59 3.768 9.538 9.538 0 0 1-2.54 2.952 10.3 10.3 0 0 0-.39-.408c-.14-.16-.29-.312-.45-.456a9.36 9.36 0 0 0-.43-.36 8.334 8.334 0 0 0 2.32-2.688c.6-1.088 1.05-2.24 1.37-3.456.34-1.232.56-2.424.67-3.576Z"/>
    <path fill="#FF0" d="M960 793c44.18 0 80-35.817 80-80s-35.82-80-80-80c-44.183 0-80 35.817-80 80s35.817 80 80 80Z" opacity=".2"/>
    <path fill="#FF0" d="m960 653 60 120H900l60-120Z"/>
    <path fill="#000" d="M965.262 720.04h-10.48l-1.92-38.16h14.32l-1.92 38.16Zm-12.4 13.36c0-2.453.693-4.16 2.08-5.12 1.386-1.013 3.066-1.52 5.04-1.52 1.92 0 3.546.507 4.88 1.52 1.386.96 2.08 2.667 2.08 5.12 0 2.347-.694 4.053-2.08 5.12-1.334 1.013-2.96 1.52-4.88 1.52-1.974 0-3.654-.507-5.04-1.52-1.387-1.067-2.08-2.773-2.08-5.12Z"/>
    <path fill="#EF4444" d="M550.216 923.92c1.467.16 3.12.28 4.96.36 1.84.08 3.813.12 5.92.12 1.307 0 2.653-.027 4.04-.08 1.413-.053 2.773-.12 4.08-.2a80.162 80.162 0 0 0 3.48-.28v5.32c-.933.08-2.067.16-3.4.24-1.307.08-2.68.147-4.12.2-1.413.027-2.76.04-4.04.04a130.209 130.209 0 0 1-10.92-.44v-5.28Zm3.36 16.96a31.413 31.413 0 0 0-.48 2.04 10.2 10.2 0 0 0-.2 2c0 1.28.64 2.333 1.92 3.16 1.307.827 3.4 1.24 6.28 1.24 1.813 0 3.56-.067 5.24-.2 1.68-.133 3.267-.32 4.76-.56 1.52-.24 2.867-.52 4.04-.84l.04 5.64c-1.173.267-2.48.493-3.92.68-1.44.213-3 .373-4.68.48-1.653.133-3.413.2-5.28.2-3.04 0-5.587-.333-7.64-1s-3.587-1.627-4.6-2.88c-1.013-1.28-1.52-2.84-1.52-4.68 0-1.173.093-2.24.28-3.2.187-.96.36-1.813.52-2.56l5.24.48Zm66.92 10.04a12.377 12.377 0 0 1-3.24 2.12c-1.227.56-2.653.84-4.28.84-1.493 0-2.707-.52-3.64-1.56-.907-1.04-1.36-2.533-1.36-4.48 0-1.067.067-2.213.2-3.44.16-1.253.333-2.507.52-3.76.187-1.253.347-2.44.48-3.56.16-1.147.24-2.173.24-3.08 0-.987-.24-1.72-.72-2.2-.48-.507-1.147-.76-2-.76-.933 0-1.973.333-3.12 1-1.147.64-2.32 1.467-3.52 2.48a43.586 43.586 0 0 0-3.44 3.24c-1.067 1.147-2 2.24-2.8 3.28l-.04-6.16c.48-.533 1.107-1.16 1.88-1.88.8-.72 1.693-1.467 2.68-2.24a36.84 36.84 0 0 1 3.16-2.16 19.805 19.805 0 0 1 3.36-1.68c1.147-.427 2.253-.64 3.32-.64 1.44 0 2.613.267 3.52.8.933.507 1.627 1.213 2.08 2.12.453.88.68 1.88.68 3 0 1.04-.067 2.173-.2 3.4a98.32 98.32 0 0 1-.48 3.68 93.37 93.37 0 0 0-.48 3.72 38.93 38.93 0 0 0-.16 3.36c0 .533.133.973.4 1.32.267.32.64.48 1.12.48.747 0 1.573-.24 2.48-.72.907-.507 1.813-1.227 2.72-2.16l.64 5.64Zm-27.64-19.08c-.427.053-.973.12-1.64.2-.667.08-1.387.173-2.16.28-.747.107-1.507.213-2.28.32-.773.107-1.493.2-2.16.28l-.52-5.12c.587.027 1.133.04 1.64.04.533-.027 1.147-.053 1.84-.08.64-.053 1.4-.12 2.28-.2a97.36 97.36 0 0 0 2.72-.36c.933-.133 1.8-.28 2.6-.44.8-.16 1.427-.32 1.88-.48l1.6 2.04c-.24.32-.52.72-.84 1.2-.293.48-.6.973-.92 1.48-.32.48-.6.907-.84 1.28l-2.36 7.52c-.427.613-.96 1.387-1.6 2.32a550.31 550.31 0 0 1-1.96 2.96c-.693 1.04-1.373 2.04-2.04 3s-1.267 1.8-1.8 2.52l-3.16-4.36c.507-.64 1.08-1.373 1.72-2.2.667-.853 1.36-1.747 2.08-2.68.72-.96 1.427-1.907 2.12-2.84a415.26 415.26 0 0 0 1.92-2.68 60.919 60.919 0 0 0 1.52-2.2l.08-1.04.28-.76Zm-.48-7.68v-1.76c0-.613-.053-1.227-.16-1.84l5.84.2c-.16.613-.333 1.507-.52 2.68-.16 1.147-.333 2.467-.52 3.96-.16 1.493-.32 3.067-.48 4.72a307.813 307.813 0 0 0-.36 4.88 93.194 93.194 0 0 0-.12 4.56v3.32l.08 3.44c.027 1.173.08 2.387.16 3.64.027.347.067.827.12 1.44.053.64.107 1.187.16 1.64h-5.52c.053-.48.08-1.013.08-1.6.027-.587.04-1.04.04-1.36.027-1.307.053-2.52.08-3.64.027-1.12.04-2.307.04-3.56.027-1.253.067-2.707.12-4.36.027-.613.067-1.387.12-2.32.053-.96.107-2 .16-3.12l.24-3.48c.08-1.173.147-2.267.2-3.28.08-1.04.133-1.92.16-2.64.053-.747.08-1.253.08-1.52Zm42.48-3.36c.96.293 2.16.6 3.6.92 1.44.32 2.947.64 4.52.96 1.573.293 3.053.547 4.44.76 1.413.213 2.56.373 3.44.48l-1.2 4.88c-.8-.107-1.773-.253-2.92-.44-1.12-.213-2.32-.44-3.6-.68a968.61 968.61 0 0 1-3.72-.72 189.065 189.065 0 0 1-5.84-1.36l1.28-4.8Zm.24 8.04c-.133.533-.28 1.227-.44 2.08-.133.827-.267 1.693-.4 2.6s-.267 1.773-.4 2.6c-.107.827-.2 1.52-.28 2.08 1.813-1.307 3.707-2.267 5.68-2.88 2-.613 4.04-.92 6.12-.92 2.347 0 4.347.427 6 1.28 1.653.853 2.907 1.973 3.76 3.36a8.275 8.275 0 0 1 1.32 4.52c0 1.813-.387 3.493-1.16 5.04-.773 1.547-2.04 2.867-3.8 3.96-1.76 1.093-4.067 1.867-6.92 2.32-2.853.453-6.36.507-10.52.16l-1.52-5.24c4 .533 7.36.613 10.08.24 2.72-.4 4.773-1.173 6.16-2.32 1.413-1.173 2.12-2.6 2.12-4.28 0-.88-.253-1.653-.76-2.32-.507-.693-1.213-1.227-2.12-1.6-.907-.4-1.933-.6-3.08-.6-2.24 0-4.347.413-6.32 1.24-1.947.8-3.547 1.96-4.8 3.48-.347.427-.64.827-.88 1.2-.213.347-.413.72-.6 1.12l-4.6-1.16c.16-.773.32-1.68.48-2.72a170.793 170.793 0 0 0 .92-7.08c.133-1.227.253-2.44.36-3.64.107-1.2.187-2.293.24-3.28l5.36.76Zm50.04-3.24a123.843 123.843 0 0 1-1.04 6.48 63.15 63.15 0 0 1-1.72 6.96c-.773 2.693-1.68 5.013-2.72 6.96-1.04 1.947-2.187 3.453-3.44 4.52-1.227 1.04-2.573 1.56-4.04 1.56s-2.827-.493-4.08-1.48c-1.227-1.013-2.213-2.4-2.96-4.16-.72-1.76-1.08-3.76-1.08-6 0-2.32.467-4.507 1.4-6.56a17.37 17.37 0 0 1 3.88-5.44c1.68-1.6 3.627-2.853 5.84-3.76 2.24-.907 4.653-1.36 7.24-1.36 2.48 0 4.707.4 6.68 1.2 2 .8 3.707 1.907 5.12 3.32a14.42 14.42 0 0 1 3.24 4.96c.747 1.893 1.12 3.933 1.12 6.12 0 2.8-.573 5.307-1.72 7.52-1.147 2.213-2.853 4.04-5.12 5.48-2.24 1.44-5.04 2.427-8.4 2.96l-3-4.76a27.05 27.05 0 0 0 2.04-.28 26.78 26.78 0 0 0 1.68-.36c1.28-.32 2.467-.773 3.56-1.36a11.641 11.641 0 0 0 2.92-2.24 9.747 9.747 0 0 0 1.92-3.16c.48-1.2.72-2.52.72-3.96 0-1.573-.24-3.013-.72-4.32a9.527 9.527 0 0 0-2.12-3.4c-.933-.987-2.067-1.733-3.4-2.24-1.333-.533-2.867-.8-4.6-.8-2.133 0-4.013.387-5.64 1.16-1.627.747-3 1.72-4.12 2.92s-1.973 2.493-2.56 3.88c-.56 1.387-.84 2.707-.84 3.96 0 1.333.16 2.453.48 3.36.32.88.707 1.547 1.16 2 .48.427.987.64 1.52.64.56 0 1.107-.28 1.64-.84.56-.587 1.107-1.467 1.64-2.64.533-1.173 1.067-2.653 1.6-4.44a54.758 54.758 0 0 0 1.56-6.16c.427-2.187.733-4.32.92-6.4l5.44.16Zm48.4-1.36c0 .64.227 1.187.68 1.64.453.427 1 .64 1.64.64.64 0 1.187-.213 1.64-.64.453-.453.68-1 .68-1.64 0-.64-.227-1.187-.68-1.64-.453-.453-1-.68-1.64-.68-.64 0-1.187.227-1.64.68-.453.453-.68 1-.68 1.64Zm-2.48 0c0-.88.213-1.68.64-2.4a5.052 5.052 0 0 1 1.76-1.76c.72-.427 1.52-.64 2.4-.64.88 0 1.68.213 2.4.64a4.74 4.74 0 0 1 1.72 1.76c.453.72.68 1.52.68 2.4 0 .853-.227 1.64-.68 2.36a5.17 5.17 0 0 1-1.72 1.76c-.72.427-1.52.64-2.4.64-.88 0-1.68-.213-2.4-.64a5.54 5.54 0 0 1-1.76-1.76 4.543 4.543 0 0 1-.64-2.36Zm-21.88 16.32a54.14 54.14 0 0 0 1.28-3.52 45.28 45.28 0 0 0 1.12-3.84c.32-1.333.6-2.653.84-3.96.267-1.307.453-2.6.56-3.88l5.84 1.2c-.107.373-.227.813-.36 1.32-.133.507-.253 1-.36 1.48a22.9 22.9 0 0 0-.24 1.2c-.133.693-.32 1.533-.56 2.52-.24.987-.52 2.04-.84 3.16-.32 1.093-.653 2.2-1 3.32a45.094 45.094 0 0 1-1 3.04 48.772 48.772 0 0 1-1.72 4 46.98 46.98 0 0 1-2.08 4 46.41 46.41 0 0 1-2.12 3.44l-5.6-2.36a41.204 41.204 0 0 0 3.56-5.48c1.12-2 2.013-3.88 2.68-5.64Zm19.76-.84c-.4-1.067-.84-2.2-1.32-3.4-.48-1.2-.987-2.4-1.52-3.6-.533-1.2-1.053-2.333-1.56-3.4a51.524 51.524 0 0 0-1.4-2.76l5.32-1.72c.4.773.867 1.707 1.4 2.8a87.322 87.322 0 0 1 1.6 3.48c.533 1.2 1.053 2.4 1.56 3.6.507 1.2.96 2.28 1.36 3.24.347.88.72 1.92 1.12 3.12.427 1.2.853 2.453 1.28 3.76.453 1.28.867 2.533 1.24 3.76.4 1.227.733 2.333 1 3.32l-5.92 1.92a90.935 90.935 0 0 0-1.2-4.8 124.507 124.507 0 0 0-1.44-4.8 81.828 81.828 0 0 0-1.52-4.52Zm29.72-5.44c1.227.693 2.56 1.52 4 2.48 1.467.933 2.947 1.907 4.44 2.92 1.493 1.013 2.893 2 4.2 2.96a66.573 66.573 0 0 1 3.36 2.56l-3.8 4.52c-.88-.8-1.973-1.72-3.28-2.76a83.934 83.934 0 0 0-4.16-3.24 139.439 139.439 0 0 0-4.44-3.2 90.185 90.185 0 0 0-3.88-2.6l3.56-3.64Zm18.8-6.8c-.24.373-.48.813-.72 1.32-.24.507-.44 1.013-.6 1.52-.4 1.227-.947 2.6-1.64 4.12a45.133 45.133 0 0 1-2.4 4.6c-.933 1.547-2 3.067-3.2 4.56-1.893 2.347-4.173 4.573-6.84 6.68-2.64 2.107-5.88 3.893-9.72 5.36l-4.64-4.04c2.8-.853 5.227-1.867 7.28-3.04s3.827-2.427 5.32-3.76c1.52-1.333 2.84-2.667 3.96-4 .907-1.04 1.76-2.2 2.56-3.48a32.985 32.985 0 0 0 2.12-3.88c.613-1.307 1.04-2.467 1.28-3.48h-13.52l1.84-4.56h11.36c.64 0 1.267-.04 1.88-.12a9.406 9.406 0 0 0 1.6-.32l4.08 2.52Zm-13.2-6.16c-.48.693-.96 1.44-1.44 2.24-.453.8-.8 1.413-1.04 1.84-.907 1.6-2.053 3.307-3.44 5.12a52.886 52.886 0 0 1-4.68 5.24 39.74 39.74 0 0 1-5.44 4.56l-4.32-3.32c2.347-1.467 4.333-3 5.96-4.6 1.653-1.627 3.027-3.187 4.12-4.68 1.093-1.52 1.973-2.867 2.64-4.04.32-.48.653-1.12 1-1.92a16.12 16.12 0 0 0 .84-2.24l5.8 1.8Zm20.92 13.16c.48.027 1.093.067 1.84.12.747.027 1.52.053 2.32.08.827.027 1.587.04 2.28.04h21.48c.933 0 1.813-.027 2.64-.08a46.21 46.21 0 0 1 2.04-.16v6.28l-2.04-.12a45.291 45.291 0 0 0-2.64-.08h-21.48a79.8 79.8 0 0 0-3.52.08c-1.2.027-2.173.067-2.92.12v-6.28Zm43.968-11.88c.693.48 1.507 1.067 2.44 1.76a62.837 62.837 0 0 1 2.88 2.28c1.013.8 1.96 1.587 2.84 2.36.88.773 1.6 1.467 2.16 2.08l-4.08 4.16a34.908 34.908 0 0 0-2-2 88.89 88.89 0 0 0-2.68-2.4c-.96-.827-1.907-1.613-2.84-2.36a51.3 51.3 0 0 0-2.48-1.88l3.76-4Zm-5 26.64c2.08-.293 4.04-.707 5.88-1.24a40.977 40.977 0 0 0 5.12-1.84 46.471 46.471 0 0 0 4.32-2.16 38.672 38.672 0 0 0 6.24-4.64c1.893-1.733 3.547-3.533 4.96-5.4 1.413-1.893 2.533-3.733 3.36-5.52l3.12 5.64c-1.013 1.787-2.267 3.573-3.76 5.36a42.959 42.959 0 0 1-5 5.12 42.754 42.754 0 0 1-6.04 4.32 48.553 48.553 0 0 1-4.4 2.36c-1.573.72-3.24 1.36-5 1.92a35.242 35.242 0 0 1-5.44 1.36l-3.36-5.28Zm54.8-28.32c-.133.72-.347 1.653-.64 2.8-.293 1.147-.72 2.44-1.28 3.88-.427.987-.92 2.013-1.48 3.08a26.787 26.787 0 0 1-1.64 2.8c.347-.16.787-.293 1.32-.4.533-.133 1.08-.227 1.64-.28.587-.08 1.107-.12 1.56-.12 1.68 0 3.067.48 4.16 1.44 1.12.96 1.68 2.387 1.68 4.28v1.96c.027.773.053 1.587.08 2.44l.08 2.44c.027.8.04 1.52.04 2.16h-4.8c.053-.453.08-.987.08-1.6.027-.64.04-1.307.04-2 .027-.693.04-1.36.04-2 .027-.667.04-1.267.04-1.8 0-1.28-.347-2.16-1.04-2.64a3.609 3.609 0 0 0-2.24-.76c-1.12 0-2.253.28-3.4.84-1.12.533-2.067 1.173-2.84 1.92a33.313 33.313 0 0 0-1.8 1.96 99.115 99.115 0 0 0-1.92 2.44l-4.28-3.2c1.733-1.6 3.227-3.147 4.48-4.64 1.28-1.493 2.36-2.973 3.24-4.44a27.92 27.92 0 0 0 2.16-4.4c.4-1.067.72-2.173.96-3.32.267-1.173.427-2.267.48-3.28l5.28.44Zm-15.04 3.68c1.013.16 2.187.28 3.52.36 1.333.08 2.507.12 3.52.12 1.76 0 3.68-.04 5.76-.12 2.107-.08 4.24-.213 6.4-.4 2.16-.213 4.213-.48 6.16-.8l-.04 4.64c-1.413.187-2.947.36-4.6.52-1.627.133-3.293.253-5 .36-1.68.08-3.293.147-4.84.2-1.547.027-2.92.04-4.12.04h-2c-.773-.027-1.573-.053-2.4-.08-.827-.053-1.613-.107-2.36-.16v-4.68Zm31.68 11.36c-.427.133-.933.307-1.52.52a70.64 70.64 0 0 0-1.72.6c-.56.187-1.067.373-1.52.56-1.28.507-2.8 1.12-4.56 1.84a79.554 79.554 0 0 0-5.44 2.52c-1.2.64-2.213 1.267-3.04 1.88s-1.453 1.24-1.88 1.88a3.489 3.489 0 0 0-.64 2.04c0 .56.12 1.027.36 1.4.24.347.6.627 1.08.84.48.213 1.08.36 1.8.44.72.08 1.573.12 2.56.12a62.56 62.56 0 0 0 5.64-.28 63.565 63.565 0 0 0 5.72-.84l-.16 5.16c-.853.107-1.933.213-3.24.32a64.023 64.023 0 0 1-4.08.28c-1.387.053-2.72.08-4 .08-2.08 0-3.947-.2-5.6-.6-1.653-.4-2.96-1.08-3.92-2.04-.933-.987-1.4-2.333-1.4-4.04 0-1.387.307-2.64.92-3.76.64-1.12 1.48-2.133 2.52-3.04a22.419 22.419 0 0 1 3.4-2.44 64.487 64.487 0 0 1 3.68-2.04 68.854 68.854 0 0 1 6.08-2.84c.88-.373 1.72-.747 2.52-1.12.773-.347 1.52-.68 2.24-1 .72-.347 1.453-.707 2.2-1.08l2 4.64Zm13.4-1.36v14.68h-4.36v-10.32h-3.72v-4.36h8.08Zm0 13.12c.8 1.333 1.933 2.32 3.4 2.96 1.493.64 3.28 1.013 5.36 1.12 1.253.027 2.773.053 4.56.08h5.6c1.973-.027 3.893-.08 5.76-.16s3.52-.173 4.96-.28c-.16.32-.347.747-.56 1.28-.187.533-.36 1.067-.52 1.6a9.95 9.95 0 0 0-.32 1.48c-1.307.053-2.813.093-4.52.12-1.68.053-3.44.08-5.28.08-1.813.027-3.56.027-5.24 0-1.68-.027-3.16-.053-4.44-.08-2.453-.107-4.533-.507-6.24-1.2-1.707-.667-3.173-1.773-4.4-3.32-.667.8-1.387 1.587-2.16 2.36-.747.8-1.547 1.653-2.4 2.56l-2.24-4.48a64.175 64.175 0 0 0 2.4-1.92 62.665 62.665 0 0 0 2.4-2.2h3.88Zm-8.32-25.48 3.88-2.24c.667.693 1.333 1.44 2 2.24.667.8 1.28 1.6 1.84 2.4.56.8.987 1.533 1.28 2.2l-4.16 2.48c-.267-.667-.667-1.4-1.2-2.2a32.595 32.595 0 0 0-1.72-2.52 24.538 24.538 0 0 0-1.92-2.36Zm10.88-1.68h4v6.88c0 1.413-.067 2.96-.2 4.64-.107 1.68-.333 3.4-.68 5.16-.347 1.76-.84 3.48-1.48 5.16-.613 1.68-1.44 3.2-2.48 4.56-.187-.293-.48-.64-.88-1.04-.373-.4-.76-.773-1.16-1.12-.4-.373-.733-.64-1-.8a17.036 17.036 0 0 0 2.56-5.4c.56-1.947.92-3.893 1.08-5.84.16-1.947.24-3.733.24-5.36v-6.84Zm2.48 0h8.72v11.92h-8.72v-3.64h4.68v-4.64h-4.68v-3.64Zm.68 15.08h8.56v12.32h-8.56v-3.6h4.56v-5.08h-4.56v-3.64Zm-1.96 0h3.84v14.2h-3.84v-14.2Zm11.2-12.28h13.52v3.8h-13.52v-3.8Zm.04 16.52h13.44v3.8h-13.44v-3.8Zm-.36-6.92h14.16v3.84h-14.16v-3.84Zm4.96-13.96h4.32v6.32h-4.32V919Zm0 15.36h4.32v15.96h-4.32v-15.96Zm-3.36-6.68 3.32-.72c.32.827.587 1.747.8 2.76.24 1.013.373 1.893.4 2.64l-3.52.8c0-.747-.093-1.627-.28-2.64a21.138 21.138 0 0 0-.72-2.84Zm7.64-.88 3.84.84a141.61 141.61 0 0 0-1.08 3.04c-.347.987-.667 1.84-.96 2.56l-3.12-.8c.16-.533.32-1.133.48-1.8.187-.667.347-1.333.48-2 .16-.693.28-1.307.36-1.84Zm37.76-5.6c-.053.427-.093.88-.12 1.36l-.08 1.36c-.027.373-.04.947-.04 1.72.027.747.04 1.6.04 2.56v5.56c.027.827.04 1.467.04 1.92 0 2.373-.093 4.533-.28 6.48-.16 1.92-.533 3.693-1.12 5.32-.56 1.627-1.427 3.133-2.6 4.52-1.147 1.387-2.72 2.72-4.72 4l-4.6-3.64c.747-.32 1.573-.773 2.48-1.36.907-.613 1.627-1.227 2.16-1.84a11.7 11.7 0 0 0 1.88-2.52c.48-.88.853-1.853 1.12-2.92.293-1.067.48-2.253.56-3.56.107-1.307.16-2.813.16-4.52v-2.72c0-1.093-.013-2.227-.04-3.4a761.208 761.208 0 0 0-.08-3.24 34.606 34.606 0 0 0-.12-2.32 9.892 9.892 0 0 0-.2-1.52c-.08-.507-.16-.92-.24-1.24h5.8Zm-15.76 7.8c.64.08 1.293.16 1.96.24l2 .16c.693.027 1.387.04 2.08.04 1.733 0 3.547-.04 5.44-.12 1.893-.08 3.72-.2 5.48-.36 1.76-.187 3.293-.4 4.6-.64l-.04 5.2c-1.253.133-2.733.267-4.44.4-1.707.107-3.507.2-5.4.28-1.867.053-3.707.08-5.52.08-.56 0-1.2-.013-1.92-.04l-2.16-.08c-.72-.027-1.413-.053-2.08-.08V929Zm-4.12-7.12c-.16.48-.333 1.04-.52 1.68a32.761 32.761 0 0 0-.44 1.56 91.142 91.142 0 0 0-.76 3.96 78.626 78.626 0 0 0-.68 4.76 43.395 43.395 0 0 0-.28 4.88c0 1.573.133 2.973.4 4.2.267-.613.573-1.347.92-2.2.347-.88.68-1.693 1-2.44l2.48 1.6a193.336 193.336 0 0 0-1.12 3.56 85.099 85.099 0 0 0-.92 3.44 364.295 364.295 0 0 0-.68 2.76 7.97 7.97 0 0 0-.2 1.04c-.027.373-.04.68-.04.92v.76c.027.32.053.613.08.88l-4.44.44c-.293-.8-.627-1.893-1-3.28a57.135 57.135 0 0 1-.92-4.64 36.171 36.171 0 0 1-.36-5.04c0-2.187.067-4.293.2-6.32.16-2.027.347-3.867.56-5.52.213-1.68.387-3.053.52-4.12.107-.56.173-1.147.2-1.76.027-.64.053-1.213.08-1.72l5.92.6Zm37.56.64c.56.08 1.16.133 1.8.16.64.027 1.253.04 1.84.04h1.92c.853-.027 1.813-.053 2.88-.08l3.24-.08c1.066-.027 2.026-.053 2.876-.08.88-.053 1.56-.093 2.04-.12.83-.08 1.48-.147 1.96-.2.48-.08.84-.16 1.08-.24l2.6 3.56c-.45.293-.92.587-1.4.88-.48.293-.94.613-1.4.96-.53.373-1.17.867-1.92 1.48-.74.587-1.54 1.213-2.4 1.88-.82.667-1.64 1.32-2.44 1.96-.77.64-1.476 1.213-2.116 1.72a13.09 13.09 0 0 1 1.916-.32c.62-.08 1.24-.12 1.88-.12 2.27 0 4.3.44 6.08 1.32 1.82.88 3.24 2.08 4.28 3.6 1.07 1.493 1.6 3.213 1.6 5.16 0 2.107-.53 4.013-1.6 5.72-1.06 1.707-2.68 3.067-4.84 4.08-2.13 1.013-4.81 1.52-8.04 1.52-1.836 0-3.503-.267-4.996-.8-1.467-.533-2.627-1.293-3.48-2.28-.853-.987-1.28-2.147-1.28-3.48 0-1.093.293-2.107.88-3.04.613-.96 1.453-1.733 2.52-2.32 1.093-.587 2.347-.88 3.76-.88 1.84 0 3.386.373 4.636 1.12 1.28.72 2.26 1.693 2.92 2.92.7 1.227 1.06 2.573 1.08 4.04l-4.68.64c-.02-1.467-.4-2.64-1.12-3.52-.689-.907-1.623-1.36-2.796-1.36-.747 0-1.347.2-1.8.6-.453.373-.68.813-.68 1.32 0 .747.373 1.347 1.12 1.8.747.453 1.72.68 2.92.68 2.266 0 4.156-.267 5.676-.8 1.52-.56 2.66-1.347 3.4-2.36.78-1.04 1.16-2.267 1.16-3.68 0-1.2-.37-2.253-1.12-3.16-.72-.907-1.7-1.613-2.96-2.12-1.25-.507-2.66-.76-4.24-.76-1.543 0-2.956.2-4.236.6a14.39 14.39 0 0 0-3.64 1.64 21.737 21.737 0 0 0-3.32 2.56 42.551 42.551 0 0 0-3.2 3.32l-3.64-3.76c.72-.587 1.533-1.24 2.44-1.96.907-.747 1.827-1.52 2.76-2.32.96-.8 1.853-1.547 2.68-2.24.853-.72 1.573-1.32 2.16-1.8.56-.453 1.213-.987 1.96-1.6.747-.613 1.52-1.24 2.32-1.88a268.6 268.6 0 0 1 2.28-1.88 130.41 130.41 0 0 0 1.796-1.56c-.4 0-.92.013-1.556.04-.64.027-1.347.053-2.12.08l-2.28.08c-.747.027-1.453.067-2.12.12a79.63 79.63 0 0 0-1.6.08c-.533.027-1.093.067-1.68.12-.587.053-1.12.12-1.6.2l-.16-5.2Zm39.916 1.4c1.47.16 3.12.28 4.96.36 1.84.08 3.82.12 5.92.12 1.31 0 2.66-.027 4.04-.08 1.42-.053 2.78-.12 4.08-.2 1.31-.08 2.47-.173 3.48-.28v5.32c-.93.08-2.06.16-3.4.24-1.3.08-2.68.147-4.12.2-1.41.027-2.76.04-4.04.04a130.306 130.306 0 0 1-10.92-.44v-5.28Zm3.36 16.96c-.18.693-.34 1.373-.48 2.04-.13.667-.2 1.333-.2 2 0 1.28.64 2.333 1.92 3.16 1.31.827 3.4 1.24 6.28 1.24 1.82 0 3.56-.067 5.24-.2 1.68-.133 3.27-.32 4.76-.56 1.52-.24 2.87-.52 4.04-.84l.04 5.64c-1.17.267-2.48.493-3.92.68-1.44.213-3 .373-4.68.48-1.65.133-3.41.2-5.28.2-3.04 0-5.58-.333-7.64-1-2.05-.667-3.58-1.627-4.6-2.88-1.01-1.28-1.52-2.84-1.52-4.68 0-1.173.1-2.24.28-3.2.19-.96.36-1.813.52-2.56l5.24.48Zm61.24-11.2c-.58.373-1.21.733-1.88 1.08-.64.347-1.33.707-2.08 1.08-.61.32-1.37.693-2.28 1.12-.88.427-1.84.907-2.88 1.44a71.814 71.814 0 0 0-3.08 1.64c-1.04.56-2.01 1.133-2.92 1.72-1.65 1.093-3 2.227-4.04 3.4-1.01 1.173-1.52 2.467-1.52 3.88 0 1.413.7 2.507 2.08 3.28 1.39.747 3.47 1.12 6.24 1.12 1.39 0 2.86-.053 4.4-.16 1.58-.133 3.12-.307 4.64-.52 1.52-.24 2.87-.507 4.04-.8l-.08 5.76c-1.12.187-2.34.36-3.68.52-1.3.16-2.73.28-4.28.36-1.52.08-3.14.12-4.88.12-2 0-3.85-.16-5.56-.48-1.68-.293-3.16-.787-4.44-1.48-1.25-.693-2.24-1.627-2.96-2.8-.69-1.173-1.04-2.613-1.04-4.32 0-1.707.38-3.253 1.12-4.64.75-1.387 1.76-2.667 3.04-3.84a39.786 39.786 0 0 1 4.28-3.32 43.35 43.35 0 0 1 3.04-1.84c1.07-.613 2.11-1.2 3.12-1.76 1.04-.56 2-1.067 2.88-1.52.91-.48 1.66-.893 2.24-1.24a53.25 53.25 0 0 0 2.04-1.24 18.04 18.04 0 0 0 1.68-1.2l2.76 4.64Zm-20.12-8.56c.67 1.76 1.36 3.453 2.08 5.08.75 1.627 1.48 3.147 2.2 4.56.75 1.413 1.43 2.68 2.04 3.8l-4.52 2.68c-.72-1.227-1.46-2.6-2.24-4.12-.77-1.52-1.54-3.12-2.32-4.8-.77-1.707-1.52-3.427-2.24-5.16l5-2.04Zm45 .56c-.1.507-.22 1.067-.36 1.68-.13.587-.25 1.133-.36 1.64-.1.587-.24 1.253-.4 2-.16.72-.32 1.453-.48 2.2-.13.72-.28 1.427-.44 2.12-.26 1.147-.6 2.48-1 4s-.86 3.16-1.4 4.92a82.78 82.78 0 0 1-1.8 5.24c-.66 1.76-1.37 3.48-2.12 5.16a33.528 33.528 0 0 1-2.4 4.48l-5.2-2.08c.94-1.253 1.8-2.653 2.6-4.2a52.906 52.906 0 0 0 2.24-4.8c.67-1.653 1.26-3.28 1.76-4.88.54-1.627.99-3.133 1.36-4.52.4-1.387.71-2.573.92-3.56.38-1.813.67-3.56.88-5.24.22-1.68.3-3.267.24-4.76l5.96.6Zm13.76 4.04c.64.88 1.3 1.96 1.96 3.24.7 1.253 1.38 2.587 2.04 4a77.673 77.673 0 0 1 1.8 4.08c.54 1.307.95 2.44 1.24 3.4l-5.08 2.32c-.24-1.12-.6-2.36-1.08-3.72a43.81 43.81 0 0 0-1.6-4.12 43.751 43.751 0 0 0-1.96-4c-.66-1.253-1.36-2.307-2.08-3.16l4.76-2.04Zm-30 4.16c.72.053 1.43.08 2.12.08l2.16-.08c.67-.027 1.47-.067 2.4-.12.94-.08 1.92-.16 2.96-.24l3.2-.24c1.07-.107 2.06-.187 2.96-.24.91-.053 1.66-.08 2.24-.08 1.44 0 2.7.24 3.76.72 1.07.453 1.91 1.24 2.52 2.36.64 1.12.96 2.64.96 4.56 0 1.573-.06 3.28-.2 5.12-.13 1.84-.37 3.6-.72 5.28-.32 1.68-.77 3.107-1.36 4.28-.64 1.387-1.52 2.347-2.64 2.88-1.09.533-2.4.8-3.92.8-.74 0-1.56-.067-2.44-.2a35.85 35.85 0 0 1-2.36-.36l-.84-5.28c.51.133 1.07.267 1.68.4.64.133 1.24.24 1.8.32.59.08 1.06.12 1.4.12.67 0 1.26-.12 1.76-.36.51-.267.92-.72 1.24-1.36.38-.773.68-1.773.92-3s.42-2.547.52-3.96c.14-1.44.2-2.813.2-4.12 0-1.067-.16-1.853-.48-2.36-.29-.507-.73-.84-1.32-1-.56-.187-1.25-.28-2.08-.28-.61 0-1.44.053-2.48.16-1.04.08-2.16.187-3.36.32-1.17.107-2.26.227-3.28.36-1.01.133-1.8.227-2.36.28-.58.107-1.33.227-2.24.36-.88.107-1.62.213-2.24.32l-.48-5.44Zm29.28-9.72c.35.48.71 1.053 1.08 1.72.4.667.79 1.333 1.16 2 .38.667.7 1.253.96 1.76l-3.24 1.4a43.11 43.11 0 0 0-.92-1.84c-.34-.667-.7-1.333-1.08-2a12.7 12.7 0 0 0-1.12-1.72l3.16-1.32Zm4.76-1.8c.35.507.72 1.093 1.12 1.76.4.667.79 1.333 1.16 2 .4.667.71 1.227.92 1.68l-3.16 1.36c-.42-.827-.93-1.76-1.52-2.8a22.332 22.332 0 0 0-1.72-2.72l3.2-1.28Zm11.28 15.72h9.24v4.36h-9.24v-4.36Zm7.4 0h4.64v1.76a270.14 270.14 0 0 1-.2 6.96c-.08 1.787-.21 3.187-.4 4.2-.16.987-.38 1.68-.68 2.08-.4.507-.82.867-1.28 1.08-.42.213-.93.373-1.52.48-.53.107-1.21.173-2.04.2-.8 0-1.68-.013-2.64-.04-.02-.693-.16-1.467-.4-2.32-.24-.853-.53-1.573-.88-2.16.72.053 1.39.093 2 .12.64.027 1.12.04 1.44.04.27 0 .5-.027.68-.08.22-.08.39-.213.52-.4.19-.24.32-.733.4-1.48.11-.773.19-1.933.24-3.48.06-1.573.1-3.653.12-6.24v-.72Zm12-12.56 2.92-2.88c.75.373 1.54.813 2.36 1.32.83.507 1.62 1.013 2.36 1.52.78.507 1.4 1 1.88 1.48l-3.08 3.2c-.45-.453-1.04-.96-1.76-1.52s-1.49-1.107-2.32-1.64c-.82-.56-1.61-1.053-2.36-1.48Zm4.72 10.32 4.88 1.16c-1.68 5.2-3.97 9.8-6.88 13.8-2.9 3.973-6.34 7.187-10.32 9.64-.21-.347-.53-.773-.96-1.28-.42-.48-.86-.973-1.32-1.48-.45-.48-.85-.88-1.2-1.2 3.84-2.08 7.1-4.88 9.76-8.4 2.67-3.547 4.68-7.627 6.04-12.24Zm-23.88-6.84h30.88v4.72h-30.88V925Zm-3.2 0h5.04v11.8c0 1.493-.05 3.133-.16 4.92-.1 1.76-.3 3.573-.6 5.44-.29 1.84-.73 3.613-1.32 5.32-.56 1.707-1.29 3.24-2.2 4.6-.26-.347-.66-.733-1.2-1.16-.5-.427-1.02-.853-1.56-1.28-.5-.4-.94-.68-1.32-.84 1.02-1.6 1.75-3.387 2.2-5.36.48-2 .79-4.013.92-6.04.14-2.027.2-3.907.2-5.64V925Zm16.24-5.96h5.04a105.59 105.59 0 0 0 1.32 18.48c.48 2.72 1.04 5.133 1.68 7.24.64 2.08 1.35 3.707 2.12 4.88.78 1.173 1.56 1.76 2.36 1.76.46 0 .8-.547 1.04-1.64.27-1.093.46-2.893.56-5.4.56.533 1.22 1.053 1.96 1.56.78.507 1.48.88 2.12 1.12-.24 2.48-.6 4.4-1.08 5.76-.48 1.333-1.12 2.253-1.92 2.76-.8.507-1.82.76-3.08.76-1.44 0-2.74-.493-3.92-1.48-1.14-.987-2.17-2.36-3.08-4.12-.88-1.76-1.64-3.827-2.28-6.2-.64-2.373-1.17-4.947-1.6-7.72-.4-2.773-.7-5.653-.92-8.64a182.89 182.89 0 0 1-.32-9.12Zm21.04 4.28h15.12v4.56h-15.12v-4.56Zm15.68 4.2h17.96v4.6h-17.96v-4.6Zm-10.48-2.32h4.76v20.12h-4.76V925.2Zm26.2 2.32h4.72v1.36c0 .347-.01.627-.04.84-.1 4.053-.22 7.507-.36 10.36a182.15 182.15 0 0 1-.44 7.08c-.16 1.84-.37 3.293-.64 4.36-.24 1.067-.54 1.827-.92 2.28-.5.747-1.04 1.253-1.6 1.52-.53.293-1.17.507-1.92.64-.69.08-1.56.133-2.6.16-1.01.027-2.06.013-3.16-.04-.02-.693-.18-1.493-.48-2.4a8.928 8.928 0 0 0-1.04-2.32c1.07.08 2.06.133 2.96.16h2.04c.38 0 .68-.04.92-.12.24-.107.47-.293.68-.56.24-.293.46-.907.64-1.84.22-.96.39-2.32.52-4.08.16-1.76.3-3.987.4-6.68.11-2.693.22-5.933.32-9.72v-1Zm-31.96 17.24c1.36-.267 2.92-.613 4.68-1.04 1.76-.427 3.62-.893 5.56-1.4 1.95-.507 3.9-1.013 5.84-1.52l.6 4.56c-2.66.8-5.37 1.587-8.12 2.36a421.88 421.88 0 0 1-7.4 2.04l-1.16-5Zm21.88-25.12h4.88c-.02 3.333-.08 6.533-.16 9.6-.08 3.04-.32 5.907-.72 8.6-.37 2.693-.98 5.2-1.84 7.52-.82 2.32-2 4.427-3.52 6.32-1.49 1.867-3.45 3.52-5.88 4.96-.21-.4-.52-.853-.92-1.36-.37-.48-.77-.96-1.2-1.44a7.086 7.086 0 0 0-1.24-1.08c2.22-1.227 3.99-2.667 5.32-4.32a18.22 18.22 0 0 0 3.12-5.52c.75-2.053 1.27-4.28 1.56-6.68.3-2.427.46-5.013.48-7.76.06-2.773.1-5.72.12-8.84Zm40.72 5.96c-.26 2.027-.61 4.187-1.04 6.48a61.61 61.61 0 0 1-1.72 6.96c-.77 2.693-1.68 5.013-2.72 6.96-1.04 1.947-2.18 3.453-3.44 4.52-1.22 1.04-2.57 1.56-4.04 1.56-1.46 0-2.82-.493-4.08-1.48-1.22-1.013-2.21-2.4-2.96-4.16-.72-1.76-1.08-3.76-1.08-6 0-2.32.47-4.507 1.4-6.56a17.531 17.531 0 0 1 3.88-5.44c1.68-1.6 3.63-2.853 5.84-3.76 2.24-.907 4.66-1.36 7.24-1.36 2.48 0 4.71.4 6.68 1.2 2 .8 3.71 1.907 5.12 3.32a14.221 14.221 0 0 1 3.24 4.96c.75 1.893 1.12 3.933 1.12 6.12 0 2.8-.57 5.307-1.72 7.52-1.14 2.213-2.85 4.04-5.12 5.48-2.24 1.44-5.04 2.427-8.4 2.96l-3-4.76c.78-.08 1.46-.173 2.04-.28.59-.107 1.15-.227 1.68-.36 1.28-.32 2.47-.773 3.56-1.36 1.12-.613 2.1-1.36 2.92-2.24a9.645 9.645 0 0 0 1.92-3.16c.48-1.2.72-2.52.72-3.96 0-1.573-.24-3.013-.72-4.32-.48-1.307-1.18-2.44-2.12-3.4-.93-.987-2.06-1.733-3.4-2.24-1.33-.533-2.86-.8-4.6-.8-2.13 0-4.01.387-5.64 1.16-1.62.747-3 1.72-4.12 2.92s-1.97 2.493-2.56 3.88c-.56 1.387-.84 2.707-.84 3.96 0 1.333.16 2.453.48 3.36.32.88.71 1.547 1.16 2 .48.427.99.64 1.52.64.56 0 1.11-.28 1.64-.84.56-.587 1.11-1.467 1.64-2.64.54-1.173 1.07-2.653 1.6-4.44a51.9 51.9 0 0 0 1.56-6.16c.43-2.187.74-4.32.92-6.4l5.44.16Zm25.72 10.8h20.72v-2.48h-24.84V930h29.6v10.32h-25.48v-3.92Zm-2.68 0h4.84c-.26 1.253-.56 2.56-.88 3.92a100.7 100.7 0 0 1-.92 3.92 52.036 52.036 0 0 1-.88 3.36l-4.8-.56c.32-.96.64-2.04.96-3.24.32-1.227.63-2.48.92-3.76.32-1.28.58-2.493.76-3.64Zm1.72 6.24h25.16v4h-26.36l1.2-4Zm23.92 0h4.84s-.01.213-.04.64c0 .427-.02.787-.08 1.08-.21 2.667-.45 4.707-.72 6.12-.26 1.413-.66 2.387-1.2 2.92-.42.48-.89.813-1.4 1-.48.213-1.04.347-1.68.4-.56.053-1.29.093-2.2.12-.9.027-1.86.013-2.88-.04-.02-.693-.17-1.44-.44-2.24-.24-.827-.54-1.533-.92-2.12.86.08 1.66.133 2.4.16.78.027 1.35.027 1.72 0 .32 0 .59-.013.8-.04.22-.053.4-.16.56-.32.3-.267.54-.933.72-2 .19-1.093.36-2.787.52-5.08v-.6Zm-14.76-11.72h4.68v25.68h-4.68v-25.68Zm-.96 13.16 3.72 1.64c-.9 1.12-1.94 2.2-3.12 3.24a34.642 34.642 0 0 1-3.8 2.92c-1.36.907-2.76 1.72-4.2 2.44-1.44.72-2.89 1.333-4.36 1.84-.21-.373-.49-.8-.84-1.28-.34-.453-.72-.907-1.12-1.36-.37-.453-.72-.827-1.04-1.12 1.42-.4 2.83-.893 4.24-1.48a39.77 39.77 0 0 0 4.08-1.96c1.31-.72 2.51-1.493 3.6-2.32 1.12-.827 2.07-1.68 2.84-2.56Zm-9.8-21.96h12.6v3.68h-12.6v-3.68Zm15.92 0h15.52v3.68h-15.52v-3.68Zm-15.72-3.44 4.48 1.24a28.665 28.665 0 0 1-1.96 3.92 36.574 36.574 0 0 1-2.4 3.64 24.758 24.758 0 0 1-2.52 2.96c-.26-.267-.64-.56-1.12-.88-.48-.32-.97-.627-1.48-.92-.48-.32-.9-.587-1.28-.8 1.31-1.093 2.51-2.453 3.6-4.08 1.12-1.653 2.02-3.347 2.68-5.08Zm16.32 0 4.52 1.16c-.74 2-1.73 3.907-2.96 5.72-1.22 1.813-2.49 3.333-3.8 4.56-.26-.267-.65-.573-1.16-.92-.48-.347-.97-.68-1.48-1-.48-.32-.9-.573-1.28-.76 1.31-1.04 2.5-2.333 3.56-3.88a21.267 21.267 0 0 0 2.6-4.88Zm-15 6.32 3.8-1.6c.54.773 1.07 1.653 1.6 2.64.54.96.92 1.787 1.16 2.48l-4.08 1.84c-.18-.72-.53-1.587-1.04-2.6a37.503 37.503 0 0 0-1.44-2.76Zm17.36 0 3.92-1.44c.64.747 1.3 1.587 1.96 2.52.67.933 1.16 1.76 1.48 2.48l-4.16 1.6c-.26-.72-.7-1.56-1.32-2.52-.61-.96-1.24-1.84-1.88-2.64Zm15.84 9.8h37.04v5.24h-37.04v-5.24Zm56.2.08h4.8v7.92c0 1.093-.13 1.96-.4 2.6-.26.64-.81 1.12-1.64 1.44-.82.32-1.78.52-2.88.6-1.06.053-2.32.08-3.76.08-.08-.667-.26-1.4-.56-2.2-.29-.827-.58-1.533-.88-2.12l1.84.08h1.68c.48-.027.83-.04 1.04-.04.3 0 .5-.04.6-.12.11-.08.16-.227.16-.44v-7.8Zm-8.36.96 5 1.52a29.78 29.78 0 0 1-2.44 3.52c-.9 1.173-1.85 2.28-2.84 3.32a29.367 29.367 0 0 1-2.88 2.68c-.32-.32-.74-.667-1.28-1.04-.53-.4-1.08-.787-1.64-1.16-.53-.373-1-.667-1.4-.88 1.47-.96 2.87-2.147 4.2-3.56 1.34-1.44 2.43-2.907 3.28-4.4Zm17.2 2.28 3.88-2.44c.96.8 1.95 1.707 2.96 2.72 1.04.987 2 1.987 2.88 3 .88 1.013 1.58 1.947 2.08 2.8l-4.2 2.76c-.48-.853-1.13-1.8-1.96-2.84-.82-1.04-1.74-2.08-2.76-3.12a44.917 44.917 0 0 0-2.88-2.88Zm.52 3.36 4.96 1.44c-.96 2.293-2.18 4.253-3.68 5.88-1.49 1.6-3.26 2.933-5.32 4-2.02 1.067-4.34 1.92-6.96 2.56-2.61.64-5.52 1.16-8.72 1.56-.18-.773-.5-1.6-.96-2.48-.42-.853-.86-1.587-1.32-2.2 3.84-.267 7.2-.76 10.08-1.48 2.91-.747 5.35-1.853 7.32-3.32 1.98-1.467 3.51-3.453 4.6-5.96Zm-25.08-10.64h36.08v4.52h-36.08v-4.52Zm18.6-8.04h13.56v4.36h-13.56v-4.36Zm-2.92-3.8h4.92v14.32h-4.92V919Zm-10.28 2.76h4.88v10.8h-4.88v-10.8Z"/>
  </g>
  <defs>
    <clipPath id="a">
      <path fill="#fff" d="M0 0h1920v1080H0z"/>
    </clipPath>
  </defs>
</svg>
