<svg xmlns="http://www.w3.org/2000/svg" width="1920" height="1080" fill="none" viewBox="0 0 1920 1080">
  <g clip-path="url(#a)">
    <path fill="#fff" d="M1920 0H0v1080h1920V0Z"/>
    <path fill="#000" d="M645.952 53.12h64.56v9.44h-64.56v-9.44Zm4.24 23.36h56.56v9.28h-56.56v-9.28Zm-7.68 24.72h72v9.44h-72v-9.44Zm30.56-39.92h10.56v44.96h-10.56V61.28Zm-7.12-17.84 8-5.52a78.503 78.503 0 0 1 5.44 3.76c1.973 1.44 3.84 2.88 5.6 4.32 1.813 1.44 3.28 2.8 4.4 4.08l-8.56 6.16c-.96-1.227-2.294-2.587-4-4.08a77.504 77.504 0 0 0-5.36-4.56 99.906 99.906 0 0 0-5.52-4.16Zm55.68 38h73.52v7.76h-73.52v-7.76Zm1.52-40.56h70v8.32h-70v-8.32Zm25.2 32.8 9.44 2.48a287.795 287.795 0 0 1-5.6 8.72 317.114 317.114 0 0 1-5.92 8.8c-1.92 2.827-3.707 5.307-5.36 7.44l-9.2-2.88c1.653-2.133 3.466-4.613 5.44-7.44a415.829 415.829 0 0 0 5.92-8.72 202.295 202.295 0 0 0 5.28-8.4Zm23.2 10.64 9.28 2.32c-2.027 4.747-4.587 8.693-7.68 11.84-3.094 3.147-6.854 5.707-11.28 7.68-4.374 1.973-9.467 3.493-15.28 4.56-5.814 1.12-12.427 1.973-19.84 2.56-.32-1.387-.827-2.853-1.52-4.4-.64-1.547-1.334-2.827-2.08-3.84 8.96-.373 16.64-1.2 23.04-2.48 6.453-1.28 11.76-3.36 15.92-6.24 4.16-2.88 7.306-6.88 9.44-12Zm-34.32 14.56 4.8-6.8a332.252 332.252 0 0 1 18.56 4.24 370.61 370.61 0 0 1 17.6 4.8c5.493 1.6 10.24 3.12 14.24 4.56l-5.76 7.84c-3.894-1.6-8.48-3.28-13.76-5.04-5.227-1.707-10.907-3.387-17.04-5.04a381.728 381.728 0 0 0-18.64-4.56Zm7.04-54.8h9.04v27.36h-9.04V44.08Zm18.08 0h9.12v27.36h-9.12V44.08Zm-26.48 17.2v7.44h45.2v-7.44h-45.2Zm-9.04-7.6h63.76v22.56h-63.76V53.68ZM837.552 106l-3.28-13.6h-18.48l-3.36 13.6h-14.08l18.24-57.36h16.64l18.32 57.36h-14Zm-9.84-37.04c-.32-1.12-.64-2.293-.96-3.52a201.92 201.92 0 0 1-.96-3.84 511.862 511.862 0 0 1-.8-4.08 57.486 57.486 0 0 1-.8 4.16 201.92 201.92 0 0 1-.96 3.84 46.159 46.159 0 0 1-.88 3.44l-3.68 13.28h12.8l-3.76-13.28ZM880.195 106h-26.16v-6.88l6.64-3.2V58.96l-6.64-3.2v-6.88h26.16v6.88l-6.56 3.2v36.96l6.56 3.2V106Zm49.733-54.8a246.87 246.87 0 0 1-2.08 12.96c-.853 4.587-2 9.227-3.44 13.92-1.546 5.387-3.36 10.027-5.44 13.92-2.08 3.893-4.373 6.907-6.88 9.04-2.453 2.08-5.146 3.12-8.08 3.12-2.933 0-5.653-.987-8.16-2.96-2.453-2.027-4.426-4.8-5.92-8.32-1.44-3.52-2.16-7.52-2.16-12 0-4.64.934-9.013 2.8-13.12 1.867-4.107 4.454-7.733 7.76-10.88 3.36-3.2 7.254-5.707 11.68-7.52 4.48-1.813 9.307-2.72 14.48-2.72 4.96 0 9.414.8 13.36 2.4 4 1.6 7.414 3.813 10.24 6.64 2.827 2.827 4.987 6.133 6.48 9.92 1.494 3.787 2.24 7.867 2.24 12.24 0 5.6-1.146 10.613-3.44 15.04-2.293 4.427-5.706 8.08-10.24 10.96-4.48 2.88-10.08 4.853-16.8 5.92l-6-9.52a54.317 54.317 0 0 0 4.08-.56 52.581 52.581 0 0 0 3.36-.72c2.56-.64 4.934-1.547 7.12-2.72 2.24-1.227 4.187-2.72 5.84-4.48 1.654-1.813 2.934-3.92 3.84-6.32.96-2.4 1.44-5.04 1.44-7.92 0-3.147-.48-6.027-1.44-8.64-.96-2.613-2.373-4.88-4.24-6.8-1.866-1.973-4.133-3.467-6.8-4.48-2.666-1.067-5.733-1.6-9.2-1.6-4.266 0-8.026.773-11.28 2.32-3.253 1.493-6 3.44-8.24 5.84s-3.946 4.987-5.12 7.76c-1.12 2.773-1.68 5.413-1.68 7.92 0 2.667.32 4.907.96 6.72.64 1.76 1.414 3.093 2.32 4 .96.853 1.974 1.28 3.04 1.28 1.12 0 2.214-.56 3.28-1.68 1.12-1.173 2.214-2.933 3.28-5.28 1.067-2.347 2.134-5.307 3.2-8.88 1.227-3.84 2.267-7.947 3.12-12.32a125.1 125.1 0 0 0 1.84-12.8l10.88.32Zm68.08-6.08h38.562v8.72h-38.562v-8.72Zm-4.72 15.52h46.802v8.96h-46.802v-8.96Zm1.68 16.16h44.402v8.8h-44.402v-8.8Zm17.362-38.88h9.52V65.6h-9.52V37.92Zm9.44 30.64h9.52v33.92c0 2.4-.29 4.293-.88 5.68-.53 1.387-1.6 2.48-3.2 3.28-1.65.693-3.63 1.12-5.92 1.28-2.29.213-4.93.32-7.92.32-.21-1.387-.59-2.987-1.12-4.8-.53-1.813-1.15-3.387-1.84-4.72l5.84.16h3.84c.64-.053 1.07-.16 1.28-.32.27-.16.4-.507.4-1.04V68.56Zm-24.002 21.36 7.122-4.4a52.786 52.786 0 0 1 3.68 3.92c1.23 1.44 2.37 2.88 3.44 4.32 1.12 1.387 1.97 2.667 2.56 3.84l-7.6 4.96c-.53-1.173-1.31-2.48-2.32-3.92a59.408 59.408 0 0 0-3.36-4.48 58.362 58.362 0 0 0-3.522-4.24Zm-32.96-9.28a290.501 290.501 0 0 0 8.88-2.16c3.36-.853 6.88-1.787 10.56-2.8 3.734-1.067 7.44-2.133 11.12-3.2l1.2 8.48a7225.431 7225.431 0 0 1-15.36 4.72 2038.287 2038.287 0 0 1-14.08 4.16l-2.32-9.2Zm14.32-42.56h8.8v75.12h-8.8V38.08Zm-10.56 4.08 8.08 1.36a250.79 250.79 0 0 1-1.36 10.64 123.176 123.176 0 0 1-1.92 10c-.746 3.147-1.6 5.92-2.56 8.32-.48-.427-1.146-.907-2-1.44l-2.56-1.6c-.853-.587-1.6-1.04-2.24-1.36.854-2.133 1.574-4.613 2.16-7.44a86.93 86.93 0 0 0 1.52-8.96c.427-3.2.72-6.373.88-9.52Zm2.24 10.96h23.84v9.12h-25.68l1.84-9.12ZM1054.57 38h9.6v75.12h-9.6V38Zm-6.72 15.44 6.8.96c-.11 2.293-.32 4.8-.64 7.52-.32 2.72-.75 5.387-1.28 8-.48 2.613-1.04 4.96-1.68 7.04l-7.12-2.56c.64-1.76 1.2-3.867 1.68-6.32.53-2.453.99-4.96 1.36-7.52.43-2.56.72-4.933.88-7.12Zm14.48.56 6.48-2.72a65.292 65.292 0 0 1 3.2 6.72c1.01 2.453 1.73 4.533 2.16 6.24l-6.96 3.2c-.21-1.173-.59-2.507-1.12-4a130.82 130.82 0 0 0-1.76-4.8c-.64-1.653-1.31-3.2-2-4.64Zm15.12-12.32 9.36 1.44c-.53 3.947-1.25 7.867-2.16 11.76-.85 3.84-1.87 7.44-3.04 10.8-1.12 3.307-2.37 6.213-3.76 8.72-.59-.427-1.41-.933-2.48-1.52a37.702 37.702 0 0 0-3.28-1.6c-1.07-.533-2-.96-2.8-1.28 1.44-2.24 2.69-4.88 3.76-7.92 1.07-3.04 1.95-6.293 2.64-9.76.75-3.52 1.33-7.067 1.76-10.64Zm2.88 12.56h36.96v9.04h-39.76l2.8-9.04Zm10.96-15.76h9.6v68.24h-9.6V38.48Zm-15.6 38h39.84v8.96h-39.84v-8.96Zm-6 24.96h50.08v9.2h-50.08v-9.2Zm71.52-39.6h20.16v9.36h-20.16v-9.36Zm-5.84-22.88h10v64.88l-10 2.32v-67.2Zm-10.08 62.56c3.2-.533 6.83-1.173 10.88-1.92 4.05-.8 8.32-1.653 12.8-2.56 4.48-.96 8.91-1.893 13.28-2.8l.88 9.36c-4 .907-8.08 1.84-12.24 2.8a516.4 516.4 0 0 1-12.08 2.64c-3.89.853-7.49 1.653-10.8 2.4l-2.72-9.92Zm67.2-46 6.64 8.4c-2.72 1.44-5.6 2.853-8.64 4.24a239.219 239.219 0 0 1-9.28 3.84 336.576 336.576 0 0 1-9.04 3.44c-.27-1.12-.72-2.4-1.36-3.84-.64-1.493-1.28-2.747-1.92-3.76 2.77-1.12 5.57-2.347 8.4-3.68 2.88-1.387 5.63-2.827 8.24-4.32 2.61-1.493 4.93-2.933 6.96-4.32Zm-26.56-16.56h9.92v58.4c0 2.347.19 3.813.56 4.4.43.587 1.39.88 2.88.88h8.72c1.07 0 1.84-.373 2.32-1.12.53-.8.91-2.187 1.12-4.16.27-1.973.48-4.773.64-8.4 1.17.8 2.61 1.6 4.32 2.4 1.76.8 3.31 1.387 4.64 1.76-.32 4.533-.88 8.187-1.68 10.96-.8 2.773-2.03 4.773-3.68 6-1.6 1.28-3.87 1.92-6.8 1.92h-11.04c-3.09 0-5.52-.427-7.28-1.28-1.71-.853-2.91-2.373-3.6-4.56-.69-2.133-1.04-5.093-1.04-8.88V38.96Zm89.2-1.04h9.52v13.36h-9.52V37.92Zm7.76 21.2 7.52-3.68a80.142 80.142 0 0 1 4 5.44c1.33 1.973 2.56 3.92 3.68 5.84 1.17 1.867 2.08 3.573 2.72 5.12l-8.08 4.16c-.53-1.547-1.33-3.28-2.4-5.2a104.668 104.668 0 0 0-3.52-6 82.416 82.416 0 0 0-3.92-5.68Zm-15.28-2.96 8.88 2.24a56.56 56.56 0 0 1-5.36 10.4c-2.13 3.307-4.37 6.08-6.72 8.32-.53-.533-1.25-1.147-2.16-1.84a54.5 54.5 0 0 0-2.8-2c-.96-.693-1.79-1.227-2.48-1.6 2.29-1.92 4.35-4.24 6.16-6.96 1.87-2.773 3.36-5.627 4.48-8.56Zm-7.76-8.96h39.84v8.72h-39.84V47.2Zm14.08 24.56c1.39 5.067 3.33 9.813 5.84 14.24 2.51 4.373 5.55 8.24 9.12 11.6 3.57 3.36 7.71 6.027 12.4 8-.69.533-1.44 1.253-2.24 2.16-.8.96-1.55 1.92-2.24 2.88-.69.96-1.28 1.84-1.76 2.64-5.07-2.4-9.47-5.52-13.2-9.36-3.73-3.893-6.93-8.373-9.6-13.44s-4.88-10.667-6.64-16.8l8.32-1.92Zm10.88-.16 8.88 2c-2.29 9.707-6 17.84-11.12 24.4-5.07 6.56-11.92 11.707-20.56 15.44a51.11 51.11 0 0 0-3.92-5.36c-.75-.907-1.41-1.627-2-2.16 7.84-3.04 14.13-7.44 18.88-13.2 4.75-5.813 8.03-12.853 9.84-21.12Zm-58.96-25.84h32.72V54h-32.72v-8.24Zm-.88 46.32h35.28v8.4h-35.28v-8.4Zm13.12-54h8.64v23.36h-8.64V38.08Zm1.04 23.44h6.48v22.24h1.12v29.36h-8.64V83.76h1.04V61.52Zm-4.88 14.4v4.72h16.4v-4.72h-16.4Zm0-10.96v4.64h16.4v-4.64h-16.4Zm-6.96-6.72h30.56v29.12h-30.56V58.24Z"/>
    <path stroke="#666" stroke-width="2" d="M960 580V280m0 300 260-150M960 580l260 150M960 580v300m0-300L700 730m260-150L700 430"/>
    <path stroke="#E5E7EB" d="M960 680c55.23 0 100-44.772 100-100s-44.77-100-100-100c-55.228 0-100 44.772-100 100s44.772 100 100 100Z"/>
    <path stroke="#E5E7EB" d="M960 780c110.46 0 200-89.543 200-200s-89.54-200-200-200c-110.457 0-200 89.543-200 200s89.543 200 200 200Z"/>
    <path stroke="#E5E7EB" d="M960 880c165.69 0 300-134.315 300-300s-134.31-300-300-300c-165.685 0-300 134.315-300 300s134.315 300 300 300Z"/>
    <path fill="#000" d="M936.864 237.28v11.808h-3.744v-8.256h-3.712v-3.552h7.456Zm0 10.144c.661 1.045 1.589 1.813 2.784 2.304 1.195.491 2.624.768 4.288.832.939.043 2.048.075 3.328.096 1.301 0 2.667-.011 4.096-.032a130.476 130.476 0 0 0 7.872-.352 27.602 27.602 0 0 0-.928 2.592 15.14 15.14 0 0 0-.288 1.312 67.26 67.26 0 0 1-3.296.128c-1.237.043-2.507.064-3.808.064a120.009 120.009 0 0 1-7.04-.096c-1.963-.085-3.637-.395-5.024-.928-1.387-.512-2.613-1.387-3.68-2.624-.704.597-1.429 1.216-2.176 1.856a51.722 51.722 0 0 1-2.4 1.984l-1.888-4a67.198 67.198 0 0 0 2.336-1.472 38.012 38.012 0 0 0 2.336-1.664h3.488Zm-7.424-19.552 2.848-2.304c.661.427 1.333.928 2.016 1.504a25.075 25.075 0 0 1 1.92 1.728c.597.576 1.077 1.109 1.44 1.6l-3.04 2.56c-.32-.512-.768-1.067-1.344-1.664a24.953 24.953 0 0 0-1.856-1.792 24.832 24.832 0 0 0-1.984-1.632Zm13.376 7.616v2.752h10.688v-2.752h-10.688Zm-3.52-2.944h17.92v8.608h-17.92v-8.608Zm-1.024-4.96h20.032v3.2h-20.032v-3.2Zm7.936-2.752h3.712v24.896h-3.712v-24.896Zm-1.024 15.36 2.784.992a19.954 19.954 0 0 1-2.176 3.168 23.079 23.079 0 0 1-2.816 2.784 17.116 17.116 0 0 1-3.136 2.048 7.292 7.292 0 0 0-.704-.992 13.605 13.605 0 0 0-.896-1.056 11.229 11.229 0 0 0-.832-.864 16.842 16.842 0 0 0 3.008-1.568 20.571 20.571 0 0 0 2.72-2.112c.832-.789 1.515-1.589 2.048-2.4Zm5.184-.032c.619.768 1.387 1.536 2.304 2.304.917.747 1.909 1.44 2.976 2.08a21.474 21.474 0 0 0 3.136 1.568c-.277.235-.587.533-.928.896-.32.341-.629.704-.928 1.088a8.562 8.562 0 0 0-.736 1.024 22.802 22.802 0 0 1-3.136-2.08 29.957 29.957 0 0 1-2.944-2.752 26.998 26.998 0 0 1-2.4-3.008l2.656-1.12Zm17.664-6.336h22.208v3.008h-22.208v-3.008Zm.224 9.312h17.568v3.008h-17.568v-3.008Zm4.096-11.424h3.616v7.264h5.888v-7.264h3.744v10.144h-13.248v-10.144Zm12.512 11.424h.736l.672-.128 2.4 1.216a14.48 14.48 0 0 1-3.36 4.448c-1.365 1.216-2.933 2.24-4.704 3.072-1.749.832-3.648 1.493-5.696 1.984a58.337 58.337 0 0 1-6.432 1.216 11.092 11.092 0 0 0-.704-1.696c-.299-.619-.597-1.131-.896-1.536a50.302 50.302 0 0 0 5.856-.832c1.899-.384 3.637-.896 5.216-1.536 1.579-.64 2.955-1.429 4.128-2.368 1.195-.96 2.123-2.069 2.784-3.328v-.512Zm-10.016 2.368c.96 1.195 2.24 2.219 3.84 3.072 1.6.832 3.445 1.504 5.536 2.016 2.091.512 4.373.875 6.848 1.088a8.007 8.007 0 0 0-.864.96c-.277.405-.544.811-.8 1.216-.235.405-.437.779-.608 1.12-2.581-.341-4.949-.853-7.104-1.536-2.155-.683-4.085-1.579-5.792-2.688a17.586 17.586 0 0 1-4.352-4.064l3.296-1.184Zm.16-20.704h4v4.832h-4V224.8Zm-9.6 2.912h25.024v3.424h-25.024v-3.424Zm-1.856 0h3.68v8.992c0 1.323-.043 2.763-.128 4.32a55.144 55.144 0 0 1-.48 4.8 32.642 32.642 0 0 1-1.056 4.8c-.448 1.536-1.035 2.923-1.76 4.16a9.962 9.962 0 0 0-.896-.768 23.348 23.348 0 0 0-1.184-.8 5.562 5.562 0 0 0-1.056-.544 15.936 15.936 0 0 0 1.568-3.744c.384-1.365.672-2.752.864-4.16.192-1.429.309-2.837.352-4.224.064-1.387.096-2.667.096-3.84v-8.992ZM1247.5 391.88h27.26v3.744h-27.26v-3.744Zm14.3 10.816h11.33v3.744h-11.33v-3.744Zm-15.39 12.224h29.25v3.744h-29.25v-3.744Zm13.53-21.536h4.07v23.36h-4.07v-23.36Zm-9.56 7.232h4v16.288h-4v-16.288Zm44.19 4.736h11.97v2.816h-11.97v-2.816Zm0 5.056h11.97v2.816h-11.97v-2.816Zm-.07 5.088h13.54v3.136h-13.54v-3.136Zm-4.7-22.688h18.08v5.824h-3.42v-2.624h-11.43v2.624h-3.23v-5.824Zm9.09 9.856h3.52V417h-3.52v-14.336Zm-3.14-2.624h11.49v3.168h-11.49v16.672h-3.61v-16.512l3.26-3.328h.35Zm1.67-10.272 3.64.704c-.85 3.456-2.08 6.539-3.68 9.248-1.6 2.709-3.57 4.928-5.92 6.656a12.37 12.37 0 0 0-.73-.896c-.3-.384-.62-.757-.96-1.12a9.743 9.743 0 0 0-.9-.864c2.18-1.429 3.98-3.328 5.41-5.696 1.43-2.368 2.47-5.045 3.14-8.032Zm3.45 7.04 3.52.736c-.4.875-.82 1.728-1.25 2.56-.4.811-.77 1.515-1.12 2.112l-2.88-.736c.3-.661.62-1.429.96-2.304.35-.875.6-1.664.77-2.368Zm-22.33-5.088h11.52v3.488h-11.52v-3.488Zm3.58 9.408h7.46v14.88h-7.46v-3.296h4.22v-8.288h-4.22v-3.296Zm-.29-7.552 3.59.544c-.3 2.304-.71 4.565-1.22 6.784a41.097 41.097 0 0 1-1.95 6.208c-.77 1.92-1.69 3.605-2.75 5.056a8.613 8.613 0 0 0-.55-1.152c-.23-.469-.49-.939-.77-1.408-.25-.469-.5-.843-.73-1.12.83-1.173 1.52-2.549 2.08-4.128a36.07 36.07 0 0 0 1.41-5.12c.38-1.835.68-3.723.89-5.664Zm-1.21 7.552h3.1v17.376h-3.1v-17.376Zm33.15-11.328h3.84v30.048h-3.84V389.8Zm-2.69 6.176 2.72.384c-.04.917-.13 1.92-.26 3.008a33.187 33.187 0 0 1-.51 3.2 23.753 23.753 0 0 1-.67 2.816l-2.85-1.024c.26-.704.48-1.547.67-2.528.22-.981.4-1.984.55-3.008.17-1.024.29-1.973.35-2.848Zm5.79.224 2.59-1.088c.45.811.88 1.707 1.28 2.688.41.981.7 1.813.87 2.496l-2.79 1.28c-.08-.469-.23-1.003-.44-1.6-.22-.619-.45-1.259-.71-1.92-.25-.661-.52-1.28-.8-1.856Zm6.05-4.928 3.74.576c-.21 1.579-.5 3.147-.86 4.704a37.897 37.897 0 0 1-1.22 4.32 21.116 21.116 0 0 1-1.5 3.488 9.87 9.87 0 0 0-.99-.608c-.43-.235-.87-.448-1.31-.64-.43-.213-.8-.384-1.12-.512.57-.896 1.07-1.952 1.5-3.168.43-1.216.78-2.517 1.06-3.904.29-1.408.53-2.827.7-4.256Zm1.15 5.024h14.79v3.616h-15.91l1.12-3.616Zm4.39-6.304h3.84v27.296h-3.84v-27.296Zm-6.24 15.2h15.93v3.584h-15.93v-3.584Zm-2.4 9.984h20.03v3.68h-20.03v-3.68Zm-67.59 310.864h7.46v2.56h-7.46v-2.56Zm-.09 20.032h9.53v2.752h-9.53v-2.752Zm-1.64-12.48h10.21v2.304h-10.21v-2.304Zm-1.56-3.84h3.29v4.704c0 1.067-.05 2.24-.16 3.52-.1 1.259-.3 2.56-.57 3.904a21.175 21.175 0 0 1-1.22 3.904c-.51 1.259-1.17 2.4-1.98 3.424-.15-.213-.39-.48-.71-.8-.32-.299-.65-.597-.99-.896-.32-.277-.61-.48-.86-.608a11.83 11.83 0 0 0 2.11-4.064c.45-1.472.73-2.933.86-4.384.15-1.472.23-2.827.23-4.064v-4.64Zm1.85 0h11.43v10.016h-11.52v-2.656h8.09v-4.672h-8v-2.688Zm-.03 11.296h12v8.672h-3.36v-5.92h-5.41v6.016h-3.23v-8.768Zm13.38-17.344h3.64v18.112h-3.64v-18.112Zm7-3.232h3.75v24.8c0 1.088-.13 1.92-.39 2.496-.23.576-.66 1.013-1.28 1.312-.64.32-1.45.523-2.43.608-.98.107-2.17.16-3.58.16a6.56 6.56 0 0 0-.29-1.248c-.13-.469-.28-.949-.45-1.44-.17-.469-.34-.875-.51-1.216.96.021 1.86.043 2.69.064h1.73c.27 0 .47-.053.57-.16.13-.128.19-.331.19-.608v-24.768Zm-17.44-.256h2.12v.768h1.21v1.088c-.96 1.301-2.17 2.731-3.65 4.288-1.45 1.536-3.27 3.008-5.47 4.416a5.319 5.319 0 0 0-.61-.96 9.316 9.316 0 0 0-.89-1.024c-.3-.32-.57-.576-.8-.768a21.716 21.716 0 0 0 3.45-2.4 24.447 24.447 0 0 0 2.69-2.72c.79-.917 1.44-1.813 1.95-2.688Zm.8 0h2.63c.74.555 1.53 1.184 2.37 1.888.83.683 1.63 1.365 2.4 2.048.76.661 1.4 1.269 1.92 1.824l-2.44 2.848a29.854 29.854 0 0 0-1.76-1.888c-.7-.725-1.45-1.451-2.24-2.176-.76-.725-1.5-1.333-2.2-1.824h-.68v-2.72Zm36.61 3.232h15.17v3.232h-15.17v-3.232Zm-4.19 5.92h20.7v3.232h-20.7v-3.232Zm3.71-9.248 3.59.832a25.444 25.444 0 0 1-2.18 4.704c-.87 1.493-1.78 2.752-2.72 3.776-.26-.192-.59-.405-.99-.64a21.48 21.48 0 0 0-1.19-.672c-.4-.213-.75-.384-1.05-.512 1-.896 1.9-2.016 2.69-3.36.79-1.344 1.4-2.72 1.85-4.128Zm4.83-.32h3.81v11.744h-3.81V719.8Zm-9.6 12.48v11.808h-3.74v-8.256h-3.71v-3.552h7.45Zm0 10.144c.67 1.045 1.59 1.813 2.79 2.304 1.19.491 2.62.768 4.29.832.93.043 2.04.075 3.32.096 1.31 0 2.67-.011 4.1-.032 1.43-.021 2.83-.064 4.19-.128 1.39-.064 2.62-.139 3.68-.224-.13.299-.28.683-.45 1.152-.17.469-.33.949-.48 1.44-.12.491-.22.928-.28 1.312-.96.064-2.06.107-3.3.128-1.24.043-2.51.064-3.81.064a120.017 120.017 0 0 1-7.04-.096c-1.96-.085-3.64-.395-5.02-.928-1.39-.512-2.62-1.387-3.68-2.624-.71.597-1.43 1.216-2.18 1.856-.72.64-1.52 1.301-2.4 1.984l-1.89-4a63.65 63.65 0 0 0 2.34-1.472c.81-.533 1.59-1.088 2.34-1.664h3.48Zm-7.42-19.552 2.85-2.304c.66.427 1.33.928 2.01 1.504.69.555 1.33 1.131 1.92 1.728.6.576 1.08 1.109 1.44 1.6l-3.04 2.56c-.32-.512-.76-1.067-1.34-1.664a22.89 22.89 0 0 0-1.86-1.792 24.285 24.285 0 0 0-1.98-1.632Zm14.78 14.528v3.264h8.45V737.4h-8.45Zm-3.74-3.072h16.19v9.376h-16.19v-9.376Zm24.29-14.528h3.84v30.048h-3.84V719.8Zm-2.69 6.176 2.72.384c-.04.917-.13 1.92-.26 3.008a33.187 33.187 0 0 1-.51 3.2 23.753 23.753 0 0 1-.67 2.816l-2.85-1.024c.26-.704.48-1.547.67-2.528.22-.981.4-1.984.55-3.008.17-1.024.29-1.973.35-2.848Zm5.79.224 2.59-1.088c.45.811.88 1.707 1.28 2.688.41.981.7 1.813.87 2.496l-2.79 1.28c-.08-.469-.23-1.003-.44-1.6-.22-.619-.45-1.259-.71-1.92-.25-.661-.52-1.28-.8-1.856Zm6.05-4.928 3.74.576c-.21 1.579-.5 3.147-.86 4.704a37.897 37.897 0 0 1-1.22 4.32 21.116 21.116 0 0 1-1.5 3.488 9.87 9.87 0 0 0-.99-.608c-.43-.235-.87-.448-1.31-.64-.43-.213-.8-.384-1.12-.512.57-.896 1.07-1.952 1.5-3.168.43-1.216.78-2.517 1.06-3.904.29-1.408.53-2.827.7-4.256Zm1.15 5.024h14.79v3.616h-15.91l1.12-3.616Zm4.39-6.304h3.84v27.296h-3.84v-27.296Zm-6.24 15.2h15.93v3.584h-15.93v-3.584Zm-2.4 9.984h20.03v3.68h-20.03v-3.68ZM913.44 924.192h29.152v3.232H913.44v-3.232Zm.768-17.248h27.584v3.168h-27.584v-3.168Zm17.664 15.232h3.776v8.992c0 .917-.128 1.621-.384 2.112-.235.491-.683.864-1.344 1.12-.661.235-1.472.373-2.432.416-.96.064-2.091.096-3.392.096a8.823 8.823 0 0 0-.48-1.728 10.639 10.639 0 0 0-.704-1.632c.576 0 1.152.011 1.728.032.597.021 1.12.032 1.568.032h.96c.277-.021.459-.064.544-.128.107-.085.16-.235.16-.448v-8.864Zm-5.888-17.344h3.776v16.288h-3.776v-16.288Zm-7.968 24.192 2.88-2.016c.576.384 1.163.832 1.76 1.344a31.182 31.182 0 0 1 1.728 1.536c.555.491.992.96 1.312 1.408l-3.104 2.272c-.277-.448-.672-.939-1.184-1.472a30.15 30.15 0 0 0-1.664-1.6 17.632 17.632 0 0 0-1.728-1.472Zm2.112-10.784v1.632h15.744v-1.632h-15.744Zm0-4.096v1.632h15.744v-1.632h-15.744Zm-3.616-2.592h23.136v10.944h-23.136v-10.944Zm31.936-.672h8v2.72h-8v-2.72Zm14.784 0h8.064v2.72h-8.064v-2.72Zm6.528-4.8h3.904v24.128c0 1.109-.139 1.963-.416 2.56-.277.619-.757 1.077-1.44 1.376-.704.32-1.6.512-2.688.576-1.088.085-2.411.128-3.968.128a7.578 7.578 0 0 0-.288-1.28 23.49 23.49 0 0 0-.512-1.44 6.505 6.505 0 0 0-.576-1.216c.683.043 1.376.075 2.08.096h3.008c.341 0 .576-.064.704-.192s.192-.341.192-.64V906.08Zm-21.024 0h10.08v12.448h-10.08v-3.104h6.496v-6.24h-6.496v-3.104Zm23.104 0v3.104h-7.168v6.336h7.168v3.072h-10.816V906.08h10.816Zm-25.28 0h3.808v28.8h-3.808v-28.8Zm34.208-1.28h3.84v30.048h-3.84V904.8Zm-2.688 6.176 2.72.384c-.043.917-.128 1.92-.256 3.008a38.6 38.6 0 0 1-.512 3.2 24.972 24.972 0 0 1-.672 2.816l-2.848-1.024c.256-.704.48-1.547.672-2.528.213-.981.395-1.984.544-3.008.171-1.024.288-1.973.352-2.848Zm5.792.224 2.592-1.088c.448.811.875 1.707 1.28 2.688.405.981.693 1.813.864 2.496l-2.784 1.28a10.333 10.333 0 0 0-.448-1.6 53.78 53.78 0 0 0-.704-1.92 25.717 25.717 0 0 0-.8-1.856Zm6.048-4.928 3.744.576a50.354 50.354 0 0 1-.864 4.704 38.321 38.321 0 0 1-1.216 4.32c-.448 1.323-.949 2.485-1.504 3.488a9.71 9.71 0 0 0-.992-.608 14.852 14.852 0 0 0-1.312-.64c-.427-.213-.8-.384-1.12-.512.576-.896 1.077-1.952 1.504-3.168a28.8 28.8 0 0 0 1.056-3.904c.299-1.408.533-2.827.704-4.256Zm1.152 5.024h14.788v3.616h-15.908l1.12-3.616Zm4.384-6.304h3.84v27.296h-3.84v-27.296Zm-6.24 15.2h15.934v3.584h-15.934v-3.584Zm-2.4 9.984h20.034v3.68h-20.034v-3.68Zm-404.84-185.032a830.24 830.24 0 0 1 6.592-.192c2.517-.085 5.152-.181 7.904-.288 2.773-.107 5.504-.213 8.192-.32l-.128 3.52a456.84 456.84 0 0 1-7.936.384c-2.667.128-5.205.245-7.616.352-2.411.128-4.587.235-6.528.32l-.48-3.776Zm-.16-9.504h26.592v3.584h-26.592v-3.584Zm5.696-6.176h15.008v3.52h-15.008v-3.52Zm2.112 8.512 4.384 1.184a104.583 104.583 0 0 1-1.568 3.072 92.184 92.184 0 0 1-1.6 2.944 38.955 38.955 0 0 1-1.472 2.496l-3.36-1.12c.427-.789.875-1.675 1.344-2.656a41.948 41.948 0 0 0 1.28-3.04c.405-1.045.736-2.005.992-2.88Zm7.968 3.296 3.36-1.792c.96.832 1.909 1.728 2.848 2.688.939.96 1.803 1.931 2.592 2.912.789.96 1.429 1.845 1.92 2.656l-3.584 2.176c-.427-.811-1.035-1.728-1.824-2.752a51.002 51.002 0 0 0-2.56-3.072 34.712 34.712 0 0 0-2.752-2.816Zm-2.624-17.728c-.853 1.216-1.952 2.464-3.296 3.744a38.303 38.303 0 0 1-4.48 3.584 38.427 38.427 0 0 1-5.12 2.976 5.078 5.078 0 0 0-.608-1.056 11.333 11.333 0 0 0-.832-1.152 8.121 8.121 0 0 0-.832-.992 30.25 30.25 0 0 0 5.28-3.008 35.276 35.276 0 0 0 4.512-3.84c1.344-1.365 2.411-2.677 3.2-3.936h4.032a27.958 27.958 0 0 0 2.848 3.328 30.451 30.451 0 0 0 3.328 2.88 34.505 34.505 0 0 0 3.616 2.304 31.523 31.523 0 0 0 3.808 1.696 10.895 10.895 0 0 0-1.344 1.664c-.427.64-.811 1.248-1.152 1.824a37.796 37.796 0 0 1-4.864-2.752 42.215 42.215 0 0 1-4.608-3.52c-1.408-1.259-2.571-2.507-3.488-3.744Zm31.136 13.408h14.752v12.8h-3.808v-9.376h-7.296v9.504h-3.648v-12.928Zm12.512-16.8 2.688 3.168a47.7 47.7 0 0 1-4.768 1.12c-1.728.32-3.499.587-5.312.8-1.792.192-3.531.352-5.216.48-.064-.469-.203-1.013-.416-1.632a12.435 12.435 0 0 0-.64-1.6c1.216-.107 2.443-.235 3.68-.384a89.505 89.505 0 0 0 3.68-.512 80.645 80.645 0 0 0 3.424-.672 53.572 53.572 0 0 0 2.88-.768Zm-7.296 3.008h3.968v15.52h-3.968v-15.52Zm-6.88 5.92h17.76v3.648h-17.76v-3.648Zm4.128 15.808h10.304v3.424h-10.304v-3.424Zm-15.072-15.04h9.664v2.912h-9.664v-2.912Zm.192-9.024h9.472v2.88h-9.472v-2.88Zm-.192 13.504h9.664v2.912h-9.664v-2.912Zm-1.536-9.088h12.224v3.04H611.96v-3.04Zm3.456 13.632h7.904v9.728h-7.904v-3.04h4.608v-3.648h-4.608v-3.04Zm-2.016 0h3.232v10.976H613.4v-10.976Zm32-12.384h24.544v3.936H645.4v-3.936Zm22.944 0h4v.352c0 .235-.011.501-.032.8 0 .277-.011.501-.032.672-.171 3.2-.341 5.941-.512 8.224-.171 2.261-.363 4.139-.576 5.632-.192 1.493-.427 2.677-.704 3.552-.256.875-.565 1.525-.928 1.952-.491.619-.992 1.045-1.504 1.28-.491.235-1.088.395-1.792.48-.576.085-1.333.128-2.272.128-.939 0-1.899-.011-2.88-.032-.021-.576-.16-1.248-.416-2.016-.235-.768-.533-1.419-.896-1.952 1.024.085 1.963.139 2.816.16h1.952c.32 0 .597-.032.832-.096s.448-.203.64-.416c.277-.277.533-.811.768-1.6.235-.811.437-1.931.608-3.36.192-1.429.363-3.211.512-5.344.149-2.155.288-4.704.416-7.648v-.768Zm-13.12-6.624h4.096v6.624c0 1.451-.075 2.997-.224 4.64a30.426 30.426 0 0 1-.832 5.024 22.845 22.845 0 0 1-1.952 5.024c-.875 1.664-2.037 3.253-3.488 4.768-1.429 1.515-3.232 2.88-5.408 4.096a9.897 9.897 0 0 0-.864-1.088 11.462 11.462 0 0 0-1.12-1.152 11.33 11.33 0 0 0-1.056-.896c2.005-1.067 3.659-2.261 4.96-3.584 1.323-1.323 2.379-2.699 3.168-4.128a19.453 19.453 0 0 0 1.76-4.384c.405-1.493.661-2.944.768-4.352.128-1.429.192-2.752.192-3.968v-6.624Zm-71.2-325.584c.597.064 1.269.117 2.016.16.747.021 1.387.032 1.92.032h17.664a35.55 35.55 0 0 0 1.28-.064 67.59 67.59 0 0 0-.064 1.408 40.9 40.9 0 0 0-.032 1.536v16.576c0 .555.011 1.205.032 1.952.043.747.075 1.355.096 1.824h-4.64c.021-.469.032-.981.032-1.536.021-.576.032-1.152.032-1.728V398.6h-14.368c-.683 0-1.408.011-2.176.032-.747.021-1.344.053-1.792.096v-4.448Zm-.416 17.376c.555.043 1.173.085 1.856.128.704.043 1.419.064 2.144.064h17.28v4.192h-17.152c-.619 0-1.333.021-2.144.064a79.2 79.2 0 0 0-1.984.128v-4.576Zm54.08-16.352c-.128.192-.32.491-.576.896a7.55 7.55 0 0 0-.544 1.12 53.664 53.664 0 0 1-1.664 3.36 40.851 40.851 0 0 1-2.208 3.744 36.216 36.216 0 0 1-2.592 3.488 53.852 53.852 0 0 1-3.968 4 43.837 43.837 0 0 1-4.544 3.616 34.994 34.994 0 0 1-4.864 2.816l-3.296-3.456a29.707 29.707 0 0 0 5.024-2.496 37.651 37.651 0 0 0 4.512-3.264c1.387-1.173 2.581-2.315 3.584-3.424a26.944 26.944 0 0 0 1.984-2.592 29.705 29.705 0 0 0 1.696-2.72c.491-.917.853-1.76 1.088-2.528h-10.848c-.448 0-.917.021-1.408.064-.491.021-.96.053-1.408.096-.427.021-.757.043-.992.064v-4.544c.32.021.715.053 1.184.096a30.251 30.251 0 0 0 2.624.128h11.296c.704 0 1.344-.043 1.92-.128.597-.085 1.056-.181 1.376-.288l2.624 1.952Zm-7.168 9.952a44.936 44.936 0 0 1 2.656 2.304 82.584 82.584 0 0 1 2.784 2.72c.917.939 1.76 1.845 2.528 2.72.789.853 1.451 1.6 1.984 2.24l-3.648 3.168a48.371 48.371 0 0 0-2.72-3.392 68.837 68.837 0 0 0-3.2-3.488 61.978 61.978 0 0 0-3.392-3.328l3.008-2.944Zm22.528 8.672v-18.4c0-.555-.032-1.195-.096-1.92a14.915 14.915 0 0 0-.224-1.92h4.992a87.884 87.884 0 0 0-.192 1.856 20.585 20.585 0 0 0-.096 1.984v18.4c0 .299.011.725.032 1.28.021.533.064 1.088.128 1.664.064.576.107 1.088.128 1.536h-4.992c.085-.64.16-1.387.224-2.24.064-.853.096-1.6.096-2.24Zm3.424-13.952c1.067.277 2.261.64 3.584 1.088 1.323.427 2.656.885 4 1.376 1.344.491 2.603.981 3.776 1.472 1.195.469 2.187.907 2.976 1.312l-1.824 4.416a43.948 43.948 0 0 0-2.976-1.408 77.244 77.244 0 0 0-3.328-1.408 78.993 78.993 0 0 0-3.296-1.248 192.073 192.073 0 0 0-2.912-1.024v-4.576Z"/>
    <path fill="#10A37F" stroke="#10A37F" stroke-width="3" d="m960 330 200 135-20 219-180 96-210-79 30-225 180-146Z" opacity=".8"/>
    <path fill="#D97757" stroke="#D97757" stroke-width="3" d="m960 360 260 70-60 265-200 35-180-46 30-191 150-133Z" opacity=".8"/>
    <path fill="#4285F4" stroke="#4285F4" stroke-width="3" d="m960 300 180 176 40 231-220 53-160-88-40-207 200-165Z" opacity=".8"/>
    <path fill="#F3F4F6" stroke="#D1D5DB" stroke-width="2" d="M511 430H81c-5.523 0-10 4.477-10 10v180c0 5.523 4.477 10 10 10h430c5.523 0 10-4.477 10-10V440c0-5.523-4.477-10-10-10Z"/>
    <path fill="#10A37F" d="M131 460h-30v30h30v-30Z"/>
    <path fill="#000" d="M161.36 465.256c-.672 0-1.279.159-1.82.476-.523.317-.971.775-1.344 1.372-.373.579-.653 1.288-.84 2.128-.187.84-.28 1.783-.28 2.828 0 1.419.159 2.632.476 3.64.317.989.803 1.745 1.456 2.268.653.523 1.484.784 2.492.784.803 0 1.587-.093 2.352-.28a17.517 17.517 0 0 0 2.436-.784v3.556c-.821.355-1.652.616-2.492.784-.84.168-1.755.252-2.744.252-1.997 0-3.631-.42-4.9-1.26-1.269-.859-2.212-2.053-2.828-3.584-.597-1.549-.896-3.351-.896-5.404 0-1.512.196-2.893.588-4.144.392-1.269.971-2.361 1.736-3.276a7.87 7.87 0 0 1 2.8-2.128c1.12-.504 2.399-.756 3.836-.756.933 0 1.913.131 2.94.392 1.045.243 1.951.579 2.716 1.008l-1.428 3.444a18.825 18.825 0 0 0-2.1-.924 6.05 6.05 0 0 0-2.156-.392Zm12.922-.196c0 .747-.028 1.465-.084 2.156a20.897 20.897 0 0 1-.112 1.456h.224c.318-.523.672-.943 1.064-1.26a3.89 3.89 0 0 1 1.372-.728 5.107 5.107 0 0 1 1.624-.252c1.008 0 1.895.196 2.66.588.784.392 1.4.999 1.848 1.82.448.821.672 1.885.672 3.192V482h-4.508v-8.932c0-1.101-.168-1.923-.504-2.464-.317-.56-.821-.84-1.512-.84-.69 0-1.241.196-1.652.588-.41.392-.7.961-.868 1.708-.149.747-.224 1.661-.224 2.744V482h-4.48v-21.28h4.48v4.34Zm19.489 1.344c1.885 0 3.341.448 4.368 1.344 1.045.877 1.568 2.231 1.568 4.06V482h-3.108l-.868-2.072h-.112a8.067 8.067 0 0 1-1.26 1.344 3.85 3.85 0 0 1-1.484.756c-.56.168-1.241.252-2.044.252-.84 0-1.596-.168-2.268-.504-.653-.355-1.176-.887-1.568-1.596-.392-.728-.588-1.643-.588-2.744 0-1.624.532-2.819 1.596-3.584 1.083-.784 2.669-1.213 4.76-1.288l2.464-.084v-.672c0-.803-.177-1.391-.532-1.764-.355-.373-.84-.56-1.456-.56-.635 0-1.297.112-1.988.336-.691.205-1.381.467-2.072.784l-1.372-2.828a12.052 12.052 0 0 1 2.716-1.008 13.834 13.834 0 0 1 3.248-.364Zm.168 8.568c-1.101.037-1.876.28-2.324.728-.429.448-.644 1.036-.644 1.764 0 .635.149 1.092.448 1.372.317.261.728.392 1.232.392.709 0 1.316-.261 1.82-.784.523-.541.784-1.297.784-2.268v-1.26l-1.316.056Zm16.076 3.976c.448 0 .859-.047 1.232-.14.392-.093.794-.205 1.204-.336v3.108a9.772 9.772 0 0 1-1.652.476c-.616.149-1.344.224-2.184.224-.896 0-1.698-.149-2.408-.448-.69-.299-1.232-.812-1.624-1.54-.392-.747-.588-1.773-.588-3.08v-7.364h-1.82v-1.764l2.184-1.4 1.232-3.22h2.884v3.248h3.808v3.136h-3.808v7.364c0 .579.14 1.017.42 1.316.28.28.654.42 1.12.42Zm12.822-8.176h7.756v10.36c-.971.355-2.035.635-3.192.84a21.7 21.7 0 0 1-3.78.308c-1.829 0-3.416-.392-4.76-1.176-1.325-.784-2.352-1.941-3.08-3.472-.709-1.531-1.064-3.416-1.064-5.656 0-2.091.373-3.901 1.12-5.432.765-1.531 1.876-2.716 3.332-3.556 1.475-.84 3.276-1.26 5.404-1.26 1.083 0 2.128.112 3.136.336 1.008.224 1.904.523 2.688.896l-1.456 3.388a11.61 11.61 0 0 0-2.044-.784 8.54 8.54 0 0 0-2.324-.308c-1.139 0-2.1.28-2.884.84-.765.56-1.344 1.353-1.736 2.38-.373 1.008-.56 2.203-.56 3.584 0 1.307.168 2.464.504 3.472.336 1.008.84 1.801 1.512 2.38.672.56 1.521.84 2.548.84.299 0 .588-.009.868-.028.28-.037.541-.075.784-.112.261-.056.485-.103.672-.14V474.3h-3.444v-3.528Zm18.185-8.764c2.408 0 4.182.56 5.32 1.68 1.158 1.101 1.736 2.623 1.736 4.564 0 .877-.121 1.717-.364 2.52a5.756 5.756 0 0 1-1.204 2.128c-.56.616-1.306 1.101-2.24 1.456-.914.355-2.044.532-3.388.532h-1.568V482h-4.536v-19.992h6.244Zm-.14 3.472h-1.568v5.936h1.148c.598 0 1.13-.103 1.596-.308a2.313 2.313 0 0 0 1.092-.98c.262-.448.392-1.027.392-1.736 0-.989-.224-1.717-.672-2.184-.429-.485-1.092-.728-1.988-.728Zm18.25 16.52h-4.536v-16.464h-4.844v-3.528h14.224v3.528h-4.844V482Z"/>
    <path fill="#D97757" d="M131 510h-30v30h30v-30Z"/>
    <path fill="#000" d="M161.36 515.256c-.672 0-1.279.159-1.82.476-.523.317-.971.775-1.344 1.372-.373.579-.653 1.288-.84 2.128-.187.84-.28 1.783-.28 2.828 0 1.419.159 2.632.476 3.64.317.989.803 1.745 1.456 2.268.653.523 1.484.784 2.492.784.803 0 1.587-.093 2.352-.28a17.517 17.517 0 0 0 2.436-.784v3.556c-.821.355-1.652.616-2.492.784-.84.168-1.755.252-2.744.252-1.997 0-3.631-.42-4.9-1.26-1.269-.859-2.212-2.053-2.828-3.584-.597-1.549-.896-3.351-.896-5.404 0-1.512.196-2.893.588-4.144.392-1.269.971-2.361 1.736-3.276a7.87 7.87 0 0 1 2.8-2.128c1.12-.504 2.399-.756 3.836-.756.933 0 1.913.131 2.94.392 1.045.243 1.951.579 2.716 1.008l-1.428 3.444a18.825 18.825 0 0 0-2.1-.924 6.05 6.05 0 0 0-2.156-.392ZM174.282 532h-4.48v-21.28h4.48V532Zm10.302-15.596c1.885 0 3.341.448 4.368 1.344 1.045.877 1.568 2.231 1.568 4.06V532h-3.108l-.868-2.072h-.112a8.067 8.067 0 0 1-1.26 1.344c-.43.355-.924.607-1.484.756-.56.168-1.242.252-2.044.252-.84 0-1.596-.168-2.268-.504-.654-.355-1.176-.887-1.568-1.596-.392-.728-.588-1.643-.588-2.744 0-1.624.532-2.819 1.596-3.584 1.082-.784 2.669-1.213 4.76-1.288l2.464-.084v-.672c0-.803-.178-1.391-.532-1.764-.355-.373-.84-.56-1.456-.56-.635 0-1.298.112-1.988.336-.691.205-1.382.467-2.072.784l-1.372-2.828a12.034 12.034 0 0 1 2.716-1.008 13.828 13.828 0 0 1 3.248-.364Zm.168 8.568c-1.102.037-1.876.28-2.324.728-.43.448-.644 1.036-.644 1.764 0 .635.149 1.092.448 1.372.317.261.728.392 1.232.392.709 0 1.316-.261 1.82-.784.522-.541.784-1.297.784-2.268v-1.26l-1.316.056Zm23.16-8.26V532h-3.388l-.588-1.96h-.252a4.03 4.03 0 0 1-1.148 1.288 4.675 4.675 0 0 1-1.512.7 6.01 6.01 0 0 1-1.736.252c-.99 0-1.867-.196-2.632-.588-.766-.392-1.372-.999-1.82-1.82-.43-.821-.644-1.885-.644-3.192v-9.968h4.48v8.932c0 1.083.158 1.904.476 2.464.317.56.83.84 1.54.84.728 0 1.288-.196 1.68-.588.392-.392.662-.961.812-1.708.168-.747.252-1.661.252-2.744v-7.196h4.48Zm8.344 15.568c-1.549 0-2.818-.663-3.808-1.988-.989-1.344-1.484-3.313-1.484-5.908 0-2.613.504-4.592 1.512-5.936 1.008-1.344 2.315-2.016 3.92-2.016.672 0 1.251.103 1.736.308.504.187.934.448 1.288.784.374.336.691.719.952 1.148h.112a16.294 16.294 0 0 1-.168-1.288 18.315 18.315 0 0 1-.084-1.764v-4.9h4.48V532h-3.388l-.924-1.988h-.168a5.745 5.745 0 0 1-.896 1.148 4.083 4.083 0 0 1-1.288.812c-.504.205-1.101.308-1.792.308Zm1.708-3.332c.934 0 1.596-.336 1.988-1.008.411-.691.616-1.717.616-3.08v-.448c0-1.493-.186-2.632-.56-3.416-.373-.784-1.073-1.176-2.1-1.176-.728 0-1.316.401-1.764 1.204-.429.784-.644 1.923-.644 3.416 0 1.493.215 2.623.644 3.388.448.747 1.055 1.12 1.82 1.12Zm16.789-12.516c1.363 0 2.539.271 3.528.812a5.573 5.573 0 0 1 2.296 2.352c.542 1.027.812 2.287.812 3.78v2.016h-9.1c.038 1.176.336 2.1.896 2.772.579.672 1.4 1.008 2.464 1.008.934 0 1.774-.093 2.52-.28.766-.205 1.55-.513 2.352-.924v3.22a8.187 8.187 0 0 1-2.268.812c-.802.187-1.801.28-2.996.28-1.456 0-2.753-.28-3.892-.84-1.12-.579-2.006-1.447-2.66-2.604-.634-1.157-.952-2.613-.952-4.368 0-1.792.29-3.276.868-4.452.598-1.195 1.419-2.091 2.464-2.688 1.064-.597 2.287-.896 3.668-.896Zm.084 2.968c-.672 0-1.232.261-1.68.784-.448.523-.709 1.335-.784 2.436h4.9c0-.616-.093-1.167-.28-1.652-.186-.485-.457-.868-.812-1.148-.354-.28-.802-.42-1.344-.42Z"/>
    <path fill="#4285F4" d="M131 560h-30v30h30v-30Z"/>
    <path fill="#000" d="M160.548 570.772h7.756v10.36c-.971.355-2.035.635-3.192.84a21.7 21.7 0 0 1-3.78.308c-1.829 0-3.416-.392-4.76-1.176-1.325-.784-2.352-1.941-3.08-3.472-.709-1.531-1.064-3.416-1.064-5.656 0-2.091.373-3.901 1.12-5.432.765-1.531 1.876-2.716 3.332-3.556 1.475-.84 3.276-1.26 5.404-1.26 1.083 0 2.128.112 3.136.336 1.008.224 1.904.523 2.688.896l-1.456 3.388a11.61 11.61 0 0 0-2.044-.784 8.54 8.54 0 0 0-2.324-.308c-1.139 0-2.1.28-2.884.84-.765.56-1.344 1.353-1.736 2.38-.373 1.008-.56 2.203-.56 3.584 0 1.307.168 2.464.504 3.472.336 1.008.84 1.801 1.512 2.38.672.56 1.521.84 2.548.84.299 0 .588-.009.868-.028.28-.037.541-.075.784-.112.261-.056.485-.103.672-.14V574.3h-3.444v-3.528Zm17.877-4.34c1.363 0 2.539.271 3.528.812a5.573 5.573 0 0 1 2.296 2.352c.542 1.027.812 2.287.812 3.78v2.016h-9.1c.038 1.176.336 2.1.896 2.772.579.672 1.4 1.008 2.464 1.008.934 0 1.774-.093 2.52-.28.766-.205 1.55-.513 2.352-.924v3.22a8.187 8.187 0 0 1-2.268.812c-.802.187-1.801.28-2.996.28-1.456 0-2.753-.28-3.892-.84-1.12-.579-2.006-1.447-2.66-2.604-.634-1.157-.952-2.613-.952-4.368 0-1.792.29-3.276.868-4.452.598-1.195 1.419-2.091 2.464-2.688 1.064-.597 2.287-.896 3.668-.896Zm.084 2.968c-.672 0-1.232.261-1.68.784-.448.523-.709 1.335-.784 2.436h4.9c0-.616-.093-1.167-.28-1.652-.186-.485-.457-.868-.812-1.148-.354-.28-.802-.42-1.344-.42Zm26.89-2.968c1.662 0 2.912.448 3.752 1.344.859.877 1.288 2.296 1.288 4.256V582h-4.452v-8.932c0-1.101-.168-1.923-.504-2.464-.317-.56-.802-.84-1.456-.84-.933 0-1.586.392-1.96 1.176-.373.784-.56 1.913-.56 3.388V582h-4.48v-8.932c0-.728-.074-1.335-.224-1.82-.13-.485-.336-.849-.616-1.092-.28-.261-.653-.392-1.12-.392-.634 0-1.138.196-1.512.588-.354.392-.606.961-.756 1.708-.149.747-.224 1.661-.224 2.744V582h-4.48v-15.288h3.388l.644 1.96h.168c.28-.523.626-.943 1.036-1.26.43-.336.915-.579 1.456-.728a6.21 6.21 0 0 1 1.792-.252c1.046 0 1.923.187 2.632.56.728.355 1.298.915 1.708 1.68h.252c.448-.784 1.046-1.353 1.792-1.708a5.724 5.724 0 0 1 2.436-.532Zm13.235.28V582h-4.48v-15.288h4.48Zm-2.212-5.992c.653 0 1.213.149 1.68.448.467.28.7.812.7 1.596 0 .765-.233 1.297-.7 1.596-.467.299-1.027.448-1.68.448-.672 0-1.241-.149-1.708-.448-.467-.299-.7-.831-.7-1.596 0-.784.233-1.316.7-1.596.467-.299 1.036-.448 1.708-.448Zm14.641 5.712c1.531 0 2.763.448 3.696 1.344.952.877 1.428 2.296 1.428 4.256V582h-4.48v-8.932c0-1.101-.168-1.923-.504-2.464-.317-.56-.831-.84-1.54-.84-1.083 0-1.811.439-2.184 1.316-.373.859-.56 2.1-.56 3.724V582h-4.48v-15.288h3.388l.616 1.96h.196a4.331 4.331 0 0 1 1.12-1.26 4.365 4.365 0 0 1 1.512-.728 6.204 6.204 0 0 1 1.792-.252Zm13.329.28V582h-4.48v-15.288h4.48Zm-2.212-5.992c.653 0 1.213.149 1.68.448.466.28.7.812.7 1.596 0 .765-.234 1.297-.7 1.596-.467.299-1.027.448-1.68.448-.672 0-1.242-.149-1.708-.448-.467-.299-.7-.831-.7-1.596 0-.784.233-1.316.7-1.596.466-.299 1.036-.448 1.708-.448Z"/>
    <path fill="#F3F4F6" stroke="#D1D5DB" stroke-width="2" d="M1868 417h-480c-5.52 0-10 4.477-10 10v280c0 5.523 4.48 10 10 10h480c5.52 0 10-4.477 10-10V427c0-5.523-4.48-10-10-10Z"/>
    <path fill="#000" d="M1497.6 434.648h15.42v3.488h-15.42v-3.488Zm-1.89 6.208h18.72v3.584h-18.72v-3.584Zm.67 6.464h17.76v3.52h-17.76v-3.52Zm6.95-15.552h3.8v11.072h-3.8v-11.072Zm3.77 12.256h3.81v13.568c0 .96-.12 1.717-.35 2.272-.22.555-.64.992-1.28 1.312-.66.277-1.45.448-2.37.512-.92.085-1.97.128-3.17.128-.08-.555-.23-1.195-.45-1.92-.21-.725-.46-1.355-.73-1.888l2.33.064h1.54c.26-.021.43-.064.51-.128.11-.064.16-.203.16-.416v-13.504Zm-9.6 8.544 2.85-1.76c.49.469.98.992 1.47 1.568.49.576.95 1.152 1.38 1.728.45.555.79 1.067 1.02 1.536l-3.04 1.984c-.21-.469-.52-.992-.93-1.568-.4-.597-.85-1.195-1.34-1.792-.47-.619-.94-1.184-1.41-1.696Zm-13.18-3.712c1.04-.235 2.23-.523 3.55-.864 1.34-.341 2.75-.715 4.22-1.12 1.5-.427 2.98-.853 4.45-1.28l.48 3.392c-2 .619-4.05 1.248-6.14 1.888a938.36 938.36 0 0 1-5.63 1.664l-.93-3.68Zm5.73-17.024h3.52v30.048h-3.52v-30.048Zm-4.23 1.632 3.23.544c-.15 1.408-.33 2.827-.54 4.256a47.454 47.454 0 0 1-.77 4c-.3 1.259-.64 2.368-1.02 3.328a5.983 5.983 0 0 0-.8-.576c-.34-.213-.69-.427-1.03-.64a8.11 8.11 0 0 0-.89-.544c.34-.853.63-1.845.86-2.976.26-1.131.46-2.325.61-3.584.17-1.28.29-2.549.35-3.808Zm.9 4.384h9.53v3.648h-10.27l.74-3.648Zm33.5-6.048h3.84v30.048h-3.84V431.8Zm-2.69 6.176 2.72.384c-.04.917-.12 1.92-.25 3.008s-.3 2.155-.51 3.2c-.2 1.045-.42 1.984-.68 2.816l-2.84-1.024c.25-.704.48-1.547.67-2.528.21-.981.39-1.984.54-3.008.17-1.024.29-1.973.35-2.848Zm5.8.224 2.59-1.088c.45.811.87 1.707 1.28 2.688.4.981.69 1.813.86 2.496l-2.78 1.28c-.09-.469-.24-1.003-.45-1.6-.21-.619-.45-1.259-.7-1.92-.26-.661-.53-1.28-.8-1.856Zm6.04-4.928 3.75.576a50.38 50.38 0 0 1-.87 4.704 37.92 37.92 0 0 1-1.21 4.32c-.45 1.323-.95 2.485-1.51 3.488a8.83 8.83 0 0 0-.99-.608c-.43-.235-.86-.448-1.31-.64-.43-.213-.8-.384-1.12-.512.58-.896 1.08-1.952 1.5-3.168.43-1.216.78-2.517 1.06-3.904.3-1.408.53-2.827.7-4.256Zm1.16 5.024h14.78v3.616h-15.9l1.12-3.616Zm4.38-6.304h3.84v27.296h-3.84v-27.296Zm-6.24 15.2h15.94v3.584h-15.94v-3.584Zm-2.4 9.984h20.03v3.68h-20.03v-3.68Zm47.87-19.872c-.13.192-.32.491-.57.896-.24.405-.42.779-.55 1.12-.45 1.003-1 2.123-1.66 3.36a41.344 41.344 0 0 1-2.21 3.744 37.23 37.23 0 0 1-2.59 3.488 55.084 55.084 0 0 1-3.97 4 43.895 43.895 0 0 1-4.54 3.616 34.766 34.766 0 0 1-4.87 2.816l-3.29-3.456c1.72-.661 3.4-1.493 5.02-2.496a37.95 37.95 0 0 0 4.51-3.264 37.941 37.941 0 0 0 3.59-3.424c.7-.811 1.36-1.675 1.98-2.592a31.88 31.88 0 0 0 1.7-2.72c.49-.917.85-1.76 1.08-2.528h-10.84c-.45 0-.92.021-1.41.064-.49.021-.96.053-1.41.096-.43.021-.76.043-.99.064v-4.544c.32.021.71.053 1.18.096a30.337 30.337 0 0 0 2.63.128h11.29c.71 0 1.35-.043 1.92-.128.6-.085 1.06-.181 1.38-.288l2.62 1.952Zm-7.17 9.952a42.8 42.8 0 0 1 2.66 2.304c.94.875 1.87 1.781 2.78 2.72.92.939 1.76 1.845 2.53 2.72.79.853 1.45 1.6 1.99 2.24l-3.65 3.168a49.866 49.866 0 0 0-2.72-3.392 72.79 72.79 0 0 0-3.2-3.488 63.039 63.039 0 0 0-3.39-3.328l3-2.944Zm17.51-10.976c.59.064 1.27.117 2.01.16a70.4 70.4 0 0 0 1.92.032h17.67c.57-.021 1-.043 1.28-.064-.02.363-.05.832-.07 1.408-.02.555-.03 1.067-.03 1.536v16.576c0 .555.01 1.205.03 1.952.05.747.08 1.355.1 1.824h-4.64c.02-.469.03-.981.03-1.536.02-.576.03-1.152.03-1.728V440.6h-14.36c-.69 0-1.41.011-2.18.032-.75.021-1.34.053-1.79.096v-4.448Zm-.42 17.376c.56.043 1.17.085 1.86.128.7.043 1.42.064 2.14.064h17.28v4.192h-17.15c-.62 0-1.33.021-2.14.064-.79.043-1.46.085-1.99.128v-4.576Zm57.95-16.32c-.17.213-.38.491-.64.832-.25.32-.46.597-.6.832-.5.832-1.15 1.792-1.96 2.88a44.567 44.567 0 0 1-2.68 3.2c-.99 1.045-2 1.941-3.04 2.688l-3.33-2.656c.64-.384 1.27-.832 1.89-1.344.61-.512 1.18-1.045 1.69-1.6.53-.576.99-1.12 1.38-1.632.4-.512.71-.971.93-1.376h-16.68c-.66 0-1.29.021-1.88.064-.6.043-1.27.096-2.02.16v-4.448c.62.085 1.26.16 1.92.224.66.064 1.32.096 1.98.096h17.25c.3 0 .66-.011 1.09-.032.43-.021.84-.053 1.25-.096.42-.043.73-.096.93-.16l2.52 2.368Zm-13.05 4.32c0 1.579-.03 3.104-.1 4.576a24.43 24.43 0 0 1-.54 4.256 14.598 14.598 0 0 1-1.38 3.84c-.62 1.216-1.48 2.368-2.59 3.456-1.11 1.088-2.53 2.091-4.26 3.008l-3.74-3.04c.51-.171 1.06-.395 1.63-.672.58-.299 1.15-.661 1.73-1.088 1.02-.704 1.84-1.451 2.46-2.24a9.308 9.308 0 0 0 1.48-2.56c.34-.939.57-1.952.7-3.04.13-1.109.19-2.315.19-3.616 0-.491-.01-.96-.03-1.408-.02-.469-.09-.96-.19-1.472h4.64Zm35.71 5.184c0-2.283.29-4.373.86-6.272.58-1.899 1.35-3.605 2.31-5.12.96-1.515 2-2.837 3.13-3.968l3.04 1.344a24.653 24.653 0 0 0-2.91 3.808c-.85 1.387-1.53 2.923-2.05 4.608-.51 1.685-.76 3.552-.76 5.6 0 2.027.25 3.893.76 5.6.52 1.685 1.2 3.221 2.05 4.608a26.847 26.847 0 0 0 2.91 3.808l-3.04 1.344c-1.13-1.131-2.17-2.453-3.13-3.968-.96-1.515-1.73-3.221-2.31-5.12-.57-1.899-.86-3.989-.86-6.272Zm23.55-10.688-8 22.848h-4.57l8-22.848h4.57ZM1701.45 459h-5.22v-14.56c.02-.533.03-1.088.03-1.664.03-.576.05-1.088.07-1.536-.17.128-.4.363-.67.704-.26.341-.53.629-.8.864l-2.4 2.112-2.63-2.912 7.14-5.856h4.48V459Zm20.6-11.424c0 1.835-.13 3.477-.41 4.928-.26 1.451-.69 2.688-1.31 3.712-.62 1.003-1.41 1.771-2.37 2.304-.96.533-2.15.8-3.55.8-1.75 0-3.19-.469-4.32-1.408-1.13-.939-1.97-2.283-2.5-4.032s-.8-3.851-.8-6.304c0-2.475.25-4.587.74-6.336.49-1.749 1.29-3.093 2.4-4.032 1.13-.939 2.62-1.408 4.48-1.408 1.75 0 3.19.469 4.32 1.408 1.13.917 1.96 2.261 2.49 4.032.56 1.749.83 3.861.83 6.336Zm-10.11 0c0 1.728.07 3.179.19 4.352.15 1.152.41 2.027.77 2.624.37.576.87.864 1.51.864s1.13-.288 1.47-.864c.36-.576.62-1.44.77-2.592.17-1.173.25-2.635.25-4.384 0-1.749-.08-3.2-.25-4.352-.15-1.173-.41-2.048-.77-2.624-.34-.597-.83-.896-1.47-.896s-1.14.299-1.51.896c-.36.576-.62 1.451-.77 2.624-.12 1.152-.19 2.603-.19 4.352Zm27.52 0c0 1.835-.14 3.477-.42 4.928-.25 1.451-.69 2.688-1.31 3.712-.62 1.003-1.41 1.771-2.37 2.304-.96.533-2.14.8-3.55.8-1.75 0-3.19-.469-4.32-1.408-1.13-.939-1.96-2.283-2.49-4.032-.54-1.749-.8-3.851-.8-6.304 0-2.475.24-4.587.73-6.336.49-1.749 1.29-3.093 2.4-4.032 1.13-.939 2.63-1.408 4.48-1.408 1.75 0 3.19.469 4.32 1.408 1.13.917 1.97 2.261 2.5 4.032.55 1.749.83 3.861.83 6.336Zm-10.11 0c0 1.728.06 3.179.19 4.352.15 1.152.41 2.027.77 2.624.36.576.86.864 1.5.864s1.13-.288 1.47-.864c.37-.576.62-1.44.77-2.592.17-1.173.26-2.635.26-4.384 0-1.749-.09-3.2-.26-4.352-.15-1.173-.4-2.048-.77-2.624-.34-.597-.83-.896-1.47-.896s-1.14.299-1.5.896c-.36.576-.62 1.451-.77 2.624-.13 1.152-.19 2.603-.19 4.352Zm21.98-.736c0 2.283-.29 4.373-.86 6.272-.58 1.899-1.35 3.605-2.31 5.12-.94 1.515-1.98 2.837-3.13 3.968l-3.04-1.344a25.275 25.275 0 0 0 2.88-3.808c.87-1.387 1.56-2.923 2.08-4.608.51-1.707.76-3.573.76-5.6 0-2.048-.25-3.915-.76-5.6-.52-1.685-1.21-3.221-2.08-4.608a23.32 23.32 0 0 0-2.88-3.808l3.04-1.344c1.15 1.131 2.19 2.453 3.13 3.968.96 1.515 1.73 3.221 2.31 5.12.57 1.899.86 3.989.86 6.272Z"/>
    <path stroke="#666" stroke-width="2" d="M1398 487h460"/>
    <path fill="#666" d="m1479.35 519-2.06-5.304h-6.8l-2.04 5.304h-2.18l6.7-17.208h1.94l6.67 17.208h-2.23Zm-4.63-12.408c-.05-.128-.13-.36-.24-.696-.11-.336-.23-.68-.34-1.032a8.545 8.545 0 0 0-.24-.84c-.08.32-.17.648-.26.984-.08.32-.17.616-.27.888-.08.272-.15.504-.21.696l-1.95 5.184h5.43l-1.92-5.184ZM1488.75 519h-6.19v-1.248l2.01-.456v-13.704l-2.01-.48v-1.248h6.19v1.248l-2.02.48v13.704l2.02.456V519Zm88.11-16.176 1.82.48c-.29.688-.6 1.408-.94 2.16-.32.736-.64 1.448-.98 2.136-.32.688-.63 1.288-.94 1.8l-1.36-.456c.28-.544.58-1.168.88-1.872.31-.72.59-1.456.84-2.208.28-.752.5-1.432.68-2.04Zm2.66 3.096 1.37-.696c.45.512.89 1.08 1.32 1.704.45.608.86 1.208 1.25 1.8.38.576.68 1.096.88 1.56l-1.44.816c-.2-.464-.49-.992-.86-1.584-.37-.592-.78-1.2-1.22-1.824-.44-.64-.87-1.232-1.3-1.776Zm1.58 8.544 1.4-.696c.43.56.84 1.168 1.22 1.824.4.656.74 1.296 1.01 1.92.29.624.49 1.2.6 1.728l-1.49.768c-.11-.512-.31-1.088-.6-1.728-.27-.64-.59-1.296-.96-1.968-.37-.672-.76-1.288-1.18-1.848Zm-8.64-6.072c.82-.032 1.76-.08 2.84-.144 1.08-.064 2.24-.128 3.48-.192l3.69-.24v1.44c-1.73.16-3.45.312-5.16.456-1.71.128-3.22.24-4.53.336l-.32-1.656Zm2.64-9.264 1.71.408a16.59 16.59 0 0 1-1.75 3.48c-.71 1.072-1.47 1.984-2.28 2.736a2.89 2.89 0 0 0-.41-.36c-.18-.144-.36-.28-.55-.408a2.397 2.397 0 0 0-.48-.312c.81-.672 1.55-1.488 2.2-2.448a11.98 11.98 0 0 0 1.56-3.096Zm5.86-.072c.34.608.75 1.232 1.25 1.872.49.624 1.01 1.208 1.56 1.752.56.544 1.09 1 1.58 1.368-.13.096-.27.224-.43.384-.16.144-.31.304-.46.48-.14.16-.26.304-.36.432-.51-.416-1.05-.936-1.63-1.56-.57-.64-1.13-1.312-1.65-2.016-.52-.72-.96-1.416-1.35-2.088l1.49-.624Zm-5.47 12.336 1.13-1.008c.52.24 1.04.528 1.56.864.51.32.98.664 1.41 1.032.45.352.8.696 1.06 1.032l-1.18 1.104c-.25-.352-.61-.712-1.05-1.08-.44-.368-.91-.72-1.42-1.056-.51-.352-1.02-.648-1.51-.888Zm-.12 2.112h1.65v5.208c0 .288.04.464.12.528.1.08.3.12.6.12h2.02c.19 0 .34-.056.43-.168.1-.112.16-.344.19-.696.05-.368.08-.92.1-1.656.13.08.28.168.46.264.17.08.35.152.52.216.2.064.37.12.53.168-.05.912-.14 1.616-.29 2.112-.14.496-.35.832-.62 1.008-.27.192-.64.288-1.1.288h-2.48c-.57 0-1.02-.064-1.34-.192-.3-.128-.51-.352-.62-.672-.12-.32-.17-.76-.17-1.32v-5.208Zm-2.38.624 1.49.264c-.16.96-.41 1.952-.74 2.976-.32 1.008-.75 1.856-1.28 2.544l-1.41-.672c.48-.592.89-1.36 1.22-2.304.34-.944.58-1.88.72-2.808Zm-6.24-15.312 1.56.648a60.76 60.76 0 0 1-.96 1.824c-.33.64-.68 1.256-1.03 1.848-.34.592-.66 1.12-.96 1.584l-1.25-.552c.31-.48.62-1.032.94-1.656.33-.624.65-1.256.93-1.896.31-.656.56-1.256.77-1.8Zm2.64 2.784 1.51.696c-.54.88-1.15 1.824-1.82 2.832-.67.992-1.35 1.952-2.04 2.88-.67.928-1.31 1.744-1.92 2.448l-1.1-.624c.44-.544.92-1.152 1.41-1.824.5-.688.99-1.4 1.47-2.136.49-.752.95-1.496 1.36-2.232.44-.736.81-1.416 1.13-2.04Zm-6.48 2.232.94-1.152c.43.384.86.808 1.29 1.272.45.464.86.92 1.23 1.368.37.448.65.856.86 1.224l-1.01 1.344c-.2-.384-.49-.808-.86-1.272a16.6 16.6 0 0 0-1.18-1.44 19.42 19.42 0 0 0-1.27-1.344Zm5.62 3.24 1.29-.552c.37.496.73 1.048 1.08 1.656.36.592.67 1.176.94 1.752.29.56.5 1.064.62 1.512l-1.39.672c-.13-.448-.33-.96-.6-1.536a26.455 26.455 0 0 0-1.94-3.504Zm-5.81 2.424c1.06-.048 2.31-.12 3.77-.216 1.45-.096 2.95-.192 4.49-.288l.02 1.416c-1.44.144-2.86.272-4.27.384-1.39.112-2.64.216-3.75.312l-.26-1.608Zm6.5 3.408 1.35-.408c.32.688.61 1.448.89 2.28.28.816.48 1.52.6 2.112l-1.44.504c-.08-.624-.26-1.352-.53-2.184-.27-.832-.56-1.6-.87-2.304Zm-5.08-.36 1.51.264a31.97 31.97 0 0 1-.67 3.336c-.28 1.088-.6 2.016-.96 2.784a6.576 6.576 0 0 0-.44-.216 4.54 4.54 0 0 0-.5-.264c-.18-.08-.33-.144-.46-.192.4-.736.72-1.608.94-2.616.24-1.024.43-2.056.58-3.096Zm2.64-2.4h1.58v10.752h-1.58v-10.752Zm25.17-3.456h12.12v1.608h-12.12v-1.608Zm-.43 11.64h12.86v1.608h-12.86v-1.608Zm-.82-7.008h14.69v9.624h-1.82v-7.992h-11.09v7.992h-1.78v-9.624Zm7.25-10.656c-.65.976-1.51 1.984-2.57 3.024a32.41 32.41 0 0 1-3.48 3c-1.26.96-2.58 1.808-3.96 2.544-.08-.128-.18-.28-.31-.456s-.26-.352-.41-.528c-.14-.176-.28-.32-.4-.432 1.4-.72 2.76-1.576 4.05-2.568 1.31-.992 2.49-2.04 3.53-3.144 1.06-1.104 1.9-2.176 2.52-3.216h1.85c.64.896 1.37 1.768 2.18 2.616.83.848 1.71 1.648 2.64 2.4.95.752 1.91 1.44 2.88 2.064.99.608 1.96 1.12 2.91 1.536a8.1 8.1 0 0 0-.63.768c-.21.288-.4.568-.57.84-.95-.512-1.9-1.088-2.86-1.728a37.9 37.9 0 0 1-2.81-2.064c-.91-.752-1.76-1.52-2.54-2.304-.79-.8-1.46-1.584-2.02-2.352Zm14.04 3.408h18.63v1.848h-18.63v-1.848Zm17.93 0h1.85v.192c0 .128-.01.264-.03.408 0 .144 0 .264-.02.36-.13 2.48-.26 4.592-.41 6.336-.13 1.744-.28 3.184-.45 4.32-.16 1.12-.35 2.008-.56 2.664-.19.64-.42 1.104-.69 1.392-.29.352-.59.592-.91.72-.31.128-.69.216-1.16.264-.4.032-.96.04-1.68.024-.7-.016-1.42-.04-2.16-.072-.01-.272-.08-.584-.19-.936a2.601 2.601 0 0 0-.43-.912c.83.064 1.59.112 2.28.144.7.016 1.21.024 1.51.024.26 0 .47-.024.63-.072.17-.048.33-.152.48-.312.22-.208.42-.616.6-1.224.19-.624.36-1.488.5-2.592.16-1.12.3-2.528.43-4.224.15-1.696.28-3.736.41-6.12v-.384Zm-10.08-5.184h1.87v4.152c0 1.104-.05 2.272-.14 3.504-.1 1.216-.31 2.464-.63 3.744-.32 1.264-.8 2.528-1.46 3.792-.66 1.264-1.54 2.488-2.64 3.672-1.1 1.168-2.5 2.256-4.18 3.264-.09-.16-.22-.328-.38-.504s-.33-.352-.5-.528c-.18-.16-.35-.288-.51-.384 1.6-.96 2.92-1.984 3.96-3.072 1.06-1.088 1.89-2.208 2.5-3.36.62-1.168 1.08-2.336 1.37-3.504.3-1.168.5-2.312.6-3.432.09-1.12.14-2.184.14-3.192v-4.152Zm60.7 2.544h11.35v1.68h-11.35v-1.68Zm-1.42 4.704h13.87v1.704h-13.87v-1.704Zm.41 4.56h13.34v1.704h-13.34v-1.704Zm5.73-11.88h1.78v8.232h-1.78v-8.232Zm3 8.76h1.78v11.112c0 .544-.07.96-.22 1.248-.12.288-.39.512-.79.672-.37.128-.88.208-1.53.24-.64.048-1.43.072-2.36.072a5.05 5.05 0 0 0-.21-.936c-.1-.336-.22-.624-.36-.864a92 92 0 0 0 1.99.024c.61 0 1.01-.008 1.2-.024.19 0 .32-.032.38-.096.08-.064.12-.176.12-.336v-11.112Zm-7.48 6.336 1.36-.816c.42.368.82.776 1.2 1.224.4.448.77.904 1.11 1.368.33.448.6.856.79 1.224l-1.46.936a9.967 9.967 0 0 0-.75-1.248c-.32-.464-.68-.928-1.08-1.392-.38-.48-.77-.912-1.17-1.296Zm-9.94-2.016c.77-.208 1.63-.448 2.59-.72.98-.272 2.01-.568 3.1-.888 1.1-.336 2.19-.664 3.26-.984l.24 1.584c-1.5.48-3.02.968-4.56 1.464-1.53.48-2.92.904-4.15 1.272l-.48-1.728Zm4.49-13.032h1.68v22.056h-1.68v-22.056Zm-2.98 1.272 1.56.264a46.943 46.943 0 0 1-.43 3.144c-.18 1.04-.38 2.024-.62 2.952-.23.928-.49 1.752-.8 2.472-.09-.08-.23-.168-.4-.264a4.95 4.95 0 0 0-.51-.312 2.607 2.607 0 0 0-.45-.24c.3-.688.56-1.464.76-2.328.21-.864.39-1.784.53-2.76.16-.976.28-1.952.36-2.928Zm.17 3.576h6.96v1.728h-7.25l.29-1.728Zm33.14-4.296h1.83v17.832c0 .448.04.792.12 1.032.08.224.23.384.45.48.24.08.59.12 1.04.12h4.7c.45 0 .78-.12.98-.36.23-.256.39-.704.48-1.344.12-.64.2-1.536.24-2.688.23.16.5.32.82.48.34.144.63.24.89.288-.08 1.312-.23 2.36-.43 3.144-.2.768-.52 1.32-.96 1.656-.44.336-1.08.504-1.92.504h-4.95c-.83 0-1.49-.096-1.97-.288-.48-.192-.82-.536-1.03-1.032-.19-.48-.29-1.16-.29-2.04v-17.784Zm9.03 3.984 1.29 1.536c-.8.672-1.7 1.336-2.71 1.992-1.01.64-2.06 1.264-3.17 1.872-1.08.608-2.16 1.184-3.21 1.728-.07-.208-.18-.44-.34-.696a9.932 9.932 0 0 0-.41-.72 58.426 58.426 0 0 0 3.12-1.776c1.06-.64 2.06-1.296 3-1.968.95-.688 1.76-1.344 2.43-1.968Zm-13.18-4.2 1.75.6c-.6 1.392-1.32 2.76-2.13 4.104a37.505 37.505 0 0 1-2.64 3.792c-.93 1.168-1.9 2.2-2.91 3.096-.04-.16-.14-.352-.28-.576-.13-.224-.27-.448-.41-.672a5.51 5.51 0 0 0-.39-.576c.93-.768 1.83-1.664 2.69-2.688.88-1.04 1.69-2.16 2.43-3.36a29.046 29.046 0 0 0 1.89-3.72Zm-2.76 6.288 1.78-1.776.02.048v17.112h-1.8v-15.384Zm20.69 3.384h8.04v1.608h-8.04v-1.608Zm1.85-3.864h5.95v1.536h-5.95v-1.536Zm.72 4.68h1.63v11.184h-1.63v-11.184Zm4.65-.816h1.61v7.104c0 .4-.05.728-.14.984-.1.24-.29.432-.58.576-.27.128-.63.208-1.08.24-.45.032-.99.048-1.63.048-.02-.24-.07-.504-.17-.792a3.747 3.747 0 0 0-.29-.768c.48.016.9.024 1.25.024s.59-.008.72-.024c.13 0 .21-.024.24-.072.05-.048.07-.128.07-.24v-7.08Zm2.04-8.904h12.12v1.56h-12.12v-1.56Zm2.62 8.904v2.352h7.03v-2.352h-7.03Zm0 3.696v2.376h7.03v-2.376h-7.03Zm0-7.344v2.304h7.03v-2.304h-7.03Zm-1.68-1.416h10.44v12.528h-10.44v-12.528Zm4.22-3.096 2.04.264c-.19.688-.39 1.384-.6 2.088-.2.704-.4 1.312-.6 1.824l-1.6-.312c.09-.368.19-.776.28-1.224.12-.464.21-.928.29-1.392.08-.464.15-.88.19-1.248Zm-1.82 16.056 1.56.936c-.43.416-.95.832-1.56 1.248-.61.416-1.26.8-1.94 1.152-.68.352-1.33.648-1.97.888-.15-.16-.34-.36-.58-.6-.24-.24-.45-.44-.65-.6.64-.24 1.29-.52 1.95-.84.65-.336 1.26-.688 1.82-1.056.56-.384 1.02-.76 1.37-1.128Zm3.72 1.056 1.34-.936c.5.272 1.01.592 1.54.96.54.368 1.06.736 1.54 1.104.49.368.9.704 1.22 1.008l-1.44 1.032c-.29-.304-.67-.64-1.15-1.008-.47-.368-.97-.744-1.51-1.128-.55-.384-1.06-.728-1.54-1.032Zm-12.53-18.984h.99v.408h.52v.48c-.32.672-.72 1.416-1.2 2.232-.48.816-1.05 1.648-1.72 2.496-.66.848-1.42 1.672-2.28 2.472a2.314 2.314 0 0 0-.29-.456 7.884 7.884 0 0 0-.41-.504 1.42 1.42 0 0 0-.36-.336c.77-.688 1.46-1.416 2.06-2.184.61-.784 1.14-1.576 1.59-2.376.45-.8.81-1.544 1.1-2.232Zm.22 0h1.37a36.5 36.5 0 0 1 1.65 1.56c.59.56 1.14 1.12 1.63 1.68.52.56.93 1.064 1.25 1.512l-1.2 1.536c-.29-.464-.68-.992-1.17-1.584-.48-.608-1-1.208-1.56-1.8a18.707 18.707 0 0 0-1.61-1.56h-.36v-1.344Zm19.58 5.856h6.41v1.704h-6.41v-1.704Zm2.55-5.568h1.68v16.08h-1.68v-16.08Zm-2.72 16.776c.85-.352 1.86-.8 3.03-1.344 1.18-.56 2.38-1.144 3.6-1.752l.5 1.608c-1.1.576-2.22 1.152-3.36 1.728-1.12.56-2.15 1.072-3.09 1.536l-.68-1.776Zm6.99-13.512h14.93v1.656h-14.93v-1.656Zm-.79 14.136c.72-.16 1.53-.352 2.44-.576.93-.24 1.92-.496 2.96-.768l3.12-.816.16 1.512-4.32 1.248c-1.44.416-2.74.792-3.91 1.128l-.45-1.728Zm8.83-17.664h1.73c0 1.888.03 3.704.09 5.448.07 1.728.16 3.352.29 4.872.13 1.504.29 2.872.48 4.104.21 1.216.44 2.272.7 3.168.25.88.53 1.56.84 2.04.3.464.62.696.96.696.24 0 .41-.264.52-.792.13-.528.22-1.416.27-2.664.17.192.38.376.62.552.26.16.48.288.67.384-.08 1.072-.2 1.912-.38 2.52-.16.608-.39 1.04-.7 1.296-.3.272-.71.408-1.22.408-.62 0-1.18-.272-1.66-.816-.48-.528-.9-1.288-1.27-2.28-.35-.992-.65-2.16-.91-3.504-.24-1.36-.43-2.864-.58-4.512-.14-1.648-.25-3.392-.33-5.232-.07-1.856-.11-3.752-.12-5.688Zm2.69.936 1.03-.912c.53.352 1.07.768 1.63 1.248.58.464 1.02.872 1.32 1.224l-1.1 1.056c-.31-.384-.73-.816-1.28-1.296-.54-.496-1.08-.936-1.6-1.32Zm2.11 6.504 1.63.336c-.83 3.12-1.98 5.864-3.46 8.232-1.47 2.368-3.28 4.312-5.44 5.832a6.2 6.2 0 0 0-.36-.384c-.16-.16-.33-.312-.51-.456a2.667 2.667 0 0 0-.45-.336c2.17-1.376 3.96-3.184 5.37-5.424 1.41-2.256 2.48-4.856 3.22-7.8Zm-10.73 1.464v4.056h3.14v-4.056h-3.14Zm-1.39-1.464h6v6.984h-6v-6.984Z"/>
    <path fill="#10A37F" d="M1464.03 549.198h6.42v9.1c-1 .329-2.02.572-3.04.728-1.02.156-2.18.234-3.48.234-1.93 0-3.55-.381-4.87-1.144-1.31-.78-2.32-1.881-3.01-3.302-.68-1.439-1.02-3.137-1.02-5.096 0-1.941.38-3.623 1.15-5.044a7.997 7.997 0 0 1 3.27-3.302c1.44-.797 3.18-1.196 5.2-1.196 1.04 0 2.02.095 2.94.286.94.191 1.8.459 2.6.806l-.88 2.028c-.66-.295-1.41-.546-2.24-.754-.81-.208-1.66-.312-2.55-.312-1.47 0-2.74.303-3.79.91a5.916 5.916 0 0 0-2.42 2.6c-.56 1.109-.83 2.435-.83 3.978 0 1.473.23 2.782.7 3.926a5.709 5.709 0 0 0 2.26 2.652c1.02.624 2.37.936 4.03.936.56 0 1.04-.017 1.46-.052.43-.052.82-.113 1.17-.182.36-.069.7-.139 1.01-.208v-5.512h-4.08v-2.08Zm15.77-8.762c2.43 0 4.19.477 5.3 1.43 1.11.953 1.67 2.297 1.67 4.03 0 .763-.13 1.499-.39 2.21a4.908 4.908 0 0 1-1.22 1.872c-.58.555-1.34.997-2.29 1.326-.96.312-2.13.468-3.51.468h-2.13V559h-2.34v-18.564h4.91Zm-.21 2.002h-2.36v7.332h1.87c1.18 0 2.16-.121 2.94-.364.78-.26 1.36-.667 1.74-1.222.38-.555.57-1.283.57-2.184 0-1.196-.38-2.089-1.14-2.678-.77-.589-1.97-.884-3.62-.884ZM1496.5 559h-2.34v-16.51h-5.79v-2.054h13.91v2.054h-5.78V559Z"/>
    <path fill="#000" d="M1591.46 540.202c1.07 0 2.03.165 2.88.494.87.329 1.55.823 2.06 1.482.5.659.75 1.491.75 2.496 0 .745-.14 1.404-.42 1.976-.26.555-.62 1.04-1.09 1.456-.45.416-.97.78-1.56 1.092.59.347 1.15.754 1.69 1.222a5.32 5.32 0 0 1 1.35 1.612c.37.607.55 1.326.55 2.158 0 1.023-.24 1.915-.73 2.678-.48.763-1.19 1.352-2.13 1.768-.92.416-2.05.624-3.38.624-1.39 0-2.55-.199-3.48-.598-.92-.399-1.62-.971-2.08-1.716-.46-.745-.68-1.629-.68-2.652 0-.849.14-1.586.42-2.21.29-.624.69-1.161 1.19-1.612.5-.468 1.06-.858 1.67-1.17a9.564 9.564 0 0 1-1.41-1.17 5.72 5.72 0 0 1-.99-1.508c-.24-.572-.36-1.231-.36-1.976 0-.988.25-1.811.75-2.47.52-.659 1.22-1.153 2.08-1.482.89-.329 1.86-.494 2.92-.494Zm-2.4 13.858c0 .676.2 1.231.6 1.664.4.433.97.65 1.72.65.55 0 1-.095 1.35-.286.36-.191.63-.459.81-.806.17-.347.26-.745.26-1.196 0-.468-.12-.884-.34-1.248a4.33 4.33 0 0 0-.83-.962 7.464 7.464 0 0 0-.99-.754l-.31-.208c-.44.243-.83.52-1.17.832-.33.312-.6.659-.81 1.04-.19.364-.29.789-.29 1.274Zm2.37-10.998c-.49 0-.9.165-1.25.494-.35.329-.52.797-.52 1.404 0 .416.08.789.24 1.118.17.312.39.589.65.832.27.225.57.442.88.65.29-.191.57-.399.83-.624.28-.225.5-.494.68-.806.17-.329.26-.719.26-1.17 0-.607-.18-1.075-.52-1.404-.33-.329-.75-.494-1.25-.494Zm14.71 4.082c1.03 0 1.94.217 2.73.65a4.708 4.708 0 0 1 1.93 1.898c.48.832.73 1.863.73 3.094 0 1.335-.26 2.487-.78 3.458-.52.971-1.3 1.716-2.34 2.236-1.04.52-2.34.78-3.9.78-.96 0-1.85-.087-2.68-.26-.82-.173-1.54-.425-2.16-.754v-3.38c.61.329 1.33.615 2.18.858.87.225 1.67.338 2.4.338.65 0 1.21-.104 1.66-.312.45-.208.79-.529 1.01-.962.25-.433.37-.988.37-1.664 0-.919-.26-1.612-.78-2.08-.52-.485-1.32-.728-2.39-.728-.45 0-.91.052-1.36.156a18.3 18.3 0 0 0-1.17.26l-1.61-.832.68-9.464h9.7v3.328h-6.09l-.28 3.64c.27-.052.55-.104.83-.156.29-.069.73-.104 1.32-.104Z"/>
    <path fill="#666" d="M1665.13 558.362c1.29-.044 2.79-.088 4.49-.132 1.72-.059 3.54-.125 5.46-.198 1.92-.073 3.83-.154 5.74-.242l-.04 1.518-5.59.264c-1.88.088-3.66.161-5.35.22-1.68.073-3.18.139-4.49.198l-.22-1.628Zm-.17-6.798h18.24v1.562h-18.24v-1.562Zm3.76-4.224h10.49v1.54h-10.49v-1.54Zm2.27 5.214 1.84.528c-.33.689-.7 1.423-1.1 2.2-.38.763-.77 1.503-1.16 2.222a25.34 25.34 0 0 1-1.12 1.914l-1.46-.506c.36-.572.72-1.232 1.08-1.98.38-.748.74-1.503 1.08-2.266.34-.777.62-1.481.84-2.112Zm5.21 2.332 1.41-.77c.69.572 1.36 1.203 2.02 1.892a31.85 31.85 0 0 1 1.85 2.046c.56.675 1 1.291 1.34 1.848l-1.47.924c-.34-.557-.79-1.181-1.34-1.87a39.821 39.821 0 0 0-1.83-2.134 21.474 21.474 0 0 0-1.98-1.936Zm-2.29-12.738c-.58.88-1.36 1.789-2.33 2.728-.95.924-2.02 1.804-3.19 2.64a26.89 26.89 0 0 1-3.61 2.2 3.607 3.607 0 0 0-.28-.462c-.11-.161-.22-.323-.36-.484a2.761 2.761 0 0 0-.35-.418c1.28-.601 2.5-1.327 3.68-2.178a26.938 26.938 0 0 0 3.21-2.75c.97-.983 1.73-1.943 2.29-2.882h1.71c.59.821 1.26 1.613 2 2.376a26.338 26.338 0 0 0 5 3.894c.89.513 1.78.946 2.66 1.298a6.21 6.21 0 0 0-.57.726l-.51.748a28.062 28.062 0 0 1-3.47-2.002 29.194 29.194 0 0 1-3.3-2.618c-1.03-.939-1.89-1.877-2.58-2.816Zm21.58 10.076h9.71v8.426h-1.65v-6.93h-6.49v7.04h-1.57v-8.536Zm8.74-11.352 1.21 1.364c-.9.264-1.92.499-3.08.704a81.28 81.28 0 0 1-3.59.55c-1.23.147-2.42.264-3.56.352-.03-.191-.1-.418-.2-.682a3.706 3.706 0 0 0-.29-.704c.84-.088 1.7-.183 2.58-.286.88-.103 1.74-.22 2.59-.352.85-.147 1.65-.293 2.38-.44.75-.161 1.4-.33 1.96-.506Zm-4.86 1.672h1.67v10.45h-1.67v-10.45Zm-5.17 4.4h12.03v1.562h-12.03v-1.562Zm2.31 11.198h7.87v1.518h-7.87v-1.518Zm-9.62-10.846h6.45v1.32h-6.45v-1.32Zm.13-6.006h6.27v1.32h-6.27v-1.32Zm-.13 9.02h6.45v1.298h-6.45v-1.298Zm-1.05-6.072h8.2v1.364h-8.2v-1.364Zm1.87 9.086h5.69v6.402h-5.69v-1.342h4.22v-3.696h-4.22v-1.364Zm-.86 0h1.45v7.414h-1.45v-7.414Zm31.15-5.016c.44 0 .84.103 1.19.308.35.205.63.484.83.836.21.352.31.748.31 1.188 0 .425-.1.821-.31 1.188-.2.352-.48.631-.83.836a2.32 2.32 0 0 1-1.19.308 2.4 2.4 0 0 1-1.19-.308 2.242 2.242 0 0 1-.83-.836 2.347 2.347 0 0 1-.31-1.188c0-.44.1-.836.31-1.188.2-.352.48-.631.83-.836a2.4 2.4 0 0 1 1.19-.308Zm21.63.44 1.21-.968c.52.396 1.05.836 1.58 1.32.54.484 1.03.975 1.47 1.474.46.499.81.961 1.06 1.386l-1.32 1.078c-.23-.425-.56-.887-.99-1.386-.43-.513-.9-1.019-1.43-1.518-.53-.513-1.06-.975-1.58-1.386Zm5.67-7.04h1.61v15.774c0 .719.05 1.115.15 1.188.09.088.23.132.42.132h.73c.25 0 .42-.044.52-.132.06-.044.11-.125.16-.242.04-.132.07-.323.09-.572.01-.264.03-.667.04-1.21.01-.543.03-1.181.04-1.914.18.161.39.308.64.44s.49.235.71.308c0 .411-.01.836-.03 1.276-.01.44-.03.843-.06 1.21s-.06.645-.09.836c-.13.587-.36.983-.68 1.188-.16.117-.35.198-.55.242-.21.044-.43.066-.66.066h-1.23c-.22 0-.45-.029-.69-.088a1.378 1.378 0 0 1-.61-.33 1.429 1.429 0 0 1-.31-.396c-.07-.161-.12-.403-.15-.726a16.82 16.82 0 0 1-.05-1.43v-15.62Zm-7.3 0h1.6v7.084c0 .924-.05 1.914-.15 2.97a19.458 19.458 0 0 1-.55 3.19 13.224 13.224 0 0 1-1.21 3.146c-.54.997-1.25 1.899-2.13 2.706a1.777 1.777 0 0 0-.33-.374 7.014 7.014 0 0 0-.91-.682c.84-.763 1.5-1.599 1.98-2.508.5-.924.87-1.87 1.1-2.838.25-.968.41-1.929.49-2.882.07-.968.11-1.885.11-2.75v-7.062Zm.86 0h7.48v1.584h-7.48v-1.584Zm-7.81.176.92-1.21c.48.176.99.403 1.52.682.54.264 1.05.535 1.52.814.48.279.87.55 1.16.814l-.97 1.386a6.965 6.965 0 0 0-1.14-.858c-.45-.308-.95-.601-1.47-.88-.53-.293-1.05-.543-1.54-.748Zm-1.19 6.006.86-1.254c.49.161 1.02.359 1.56.594s1.05.484 1.54.748c.5.249.9.491 1.21.726l-.9 1.408c-.31-.249-.7-.506-1.17-.77-.47-.279-.98-.543-1.52-.792-.54-.264-1.07-.484-1.58-.66Zm.61 11.484c.39-.557.81-1.232 1.28-2.024.48-.792.97-1.628 1.45-2.508.5-.88.96-1.738 1.37-2.574l1.23 1.056a122.7 122.7 0 0 1-1.23 2.442c-.44.836-.9 1.657-1.37 2.464-.45.807-.89 1.555-1.32 2.244l-1.41-1.1Zm24.84-17.314h14.24v1.584h-14.24v-1.584Zm0 5.126h14.19v1.562h-14.19v-1.562Zm-.13 5.258h14.37v1.562h-14.37v-1.562Zm-.81-10.384h1.62v7.986c0 .836-.03 1.731-.11 2.684-.07.953-.21 1.921-.41 2.904-.19.968-.5 1.899-.91 2.794a9.02 9.02 0 0 1-1.58 2.442 1.94 1.94 0 0 0-.35-.396c-.16-.132-.32-.264-.49-.396-.16-.132-.3-.227-.44-.286a8.515 8.515 0 0 0 1.46-2.244c.35-.807.61-1.635.79-2.486.17-.865.28-1.723.33-2.574.06-.851.09-1.665.09-2.442v-7.986Zm14.52 0h1.62v16.456c0 .528-.08.931-.24 1.21-.14.279-.4.491-.77.638-.36.132-.88.213-1.54.242-.66.029-1.51.037-2.55.022a5.318 5.318 0 0 0-.24-.792c-.1-.308-.21-.572-.33-.792.51.015 1 .022 1.47.022.49.015.9.015 1.26 0h.72c.22-.015.38-.059.46-.132.09-.073.14-.213.14-.418V542.06Zm-7.62.594h1.68v17.908h-1.68v-17.908Z"/>
    <path fill="#D97757" d="M1446.75 592.23c-.98 0-1.88.173-2.67.52-.8.329-1.48.823-2.03 1.482-.56.641-.98 1.43-1.28 2.366-.29.919-.44 1.959-.44 3.12 0 1.525.24 2.851.7 3.978.49 1.127 1.2 1.993 2.14 2.6.95.607 2.14.91 3.56.91.81 0 1.58-.069 2.31-.208.73-.139 1.44-.312 2.13-.52v2.028c-.69.26-1.41.451-2.15.572-.73.121-1.61.182-2.63.182-1.89 0-3.47-.39-4.73-1.17-1.27-.78-2.22-1.889-2.86-3.328-.63-1.439-.94-3.129-.94-5.07 0-1.404.19-2.687.57-3.848.4-1.161.97-2.167 1.72-3.016.76-.849 1.7-1.499 2.81-1.95 1.11-.468 2.38-.702 3.82-.702.95 0 1.87.095 2.76.286.88.191 1.67.459 2.36.806l-.93 1.976c-.58-.26-1.22-.494-1.93-.702-.69-.208-1.45-.312-2.29-.312ZM1457.2 609h-2.29v-19.76h2.29V609Zm9.69-14.17c1.7 0 2.96.373 3.77 1.118.82.745 1.23 1.933 1.23 3.562V609h-1.67l-.44-1.976h-.1c-.4.503-.82.927-1.25 1.274-.42.329-.9.572-1.46.728-.54.156-1.19.234-1.97.234-.84 0-1.59-.147-2.27-.442a3.574 3.574 0 0 1-1.56-1.352c-.38-.624-.57-1.404-.57-2.34 0-1.387.55-2.453 1.64-3.198 1.09-.763 2.77-1.179 5.04-1.248l2.37-.078v-.832c0-1.161-.25-1.967-.75-2.418-.51-.451-1.22-.676-2.14-.676-.72 0-1.42.113-2.08.338-.65.208-1.27.451-1.84.728l-.7-1.716c.6-.329 1.32-.607 2.15-.832.84-.243 1.7-.364 2.6-.364Zm.68 7.436c-1.73.069-2.94.347-3.61.832-.66.485-.99 1.17-.99 2.054 0 .78.23 1.352.7 1.716.49.364 1.1.546 1.85.546 1.17 0 2.15-.321 2.93-.962.78-.659 1.17-1.664 1.17-3.016v-1.248l-2.05.078Zm20.27-7.202V609h-1.87l-.34-1.846h-.11c-.29.485-.67.884-1.14 1.196a4.93 4.93 0 0 1-1.53.676c-.56.156-1.14.234-1.75.234-1.1 0-2.04-.173-2.8-.52a3.63 3.63 0 0 1-1.69-1.664c-.38-.745-.58-1.707-.58-2.886v-9.126h2.32v8.97c0 1.109.25 1.941.75 2.496.51.555 1.29.832 2.34.832 1.04 0 1.86-.191 2.45-.572.6-.399 1.03-.971 1.27-1.716.26-.763.39-1.681.39-2.756v-7.254h2.29Zm9.36 14.196c-1.73 0-3.12-.598-4.16-1.794-1.04-1.213-1.56-3.016-1.56-5.408 0-2.392.52-4.195 1.56-5.408 1.06-1.231 2.46-1.846 4.19-1.846.73 0 1.36.095 1.9.286.53.173 1 .416 1.4.728.4.312.74.659 1.01 1.04h.16a36 36 0 0 0-.1-.988c-.04-.451-.06-.806-.06-1.066v-5.564h2.29V609h-1.84l-.34-1.872h-.11c-.27.399-.61.763-1.01 1.092-.4.312-.87.563-1.43.754-.54.191-1.17.286-1.9.286Zm.37-1.898c1.47 0 2.5-.399 3.09-1.196.61-.815.91-2.037.91-3.666v-.416c0-1.733-.29-3.059-.86-3.978-.57-.936-1.63-1.404-3.17-1.404-1.23 0-2.16.494-2.78 1.482-.61.971-.91 2.279-.91 3.926 0 1.664.3 2.955.91 3.874.62.919 1.56 1.378 2.81 1.378Zm16.07-12.558c1.2 0 2.22.26 3.07.78.87.52 1.52 1.257 1.97 2.21.47.936.71 2.037.71 3.302v1.378h-9.55c.04 1.577.44 2.782 1.2 3.614.78.815 1.86 1.222 3.25 1.222.88 0 1.66-.078 2.34-.234.69-.173 1.4-.416 2.13-.728v2.002c-.71.312-1.41.537-2.1.676-.7.156-1.52.234-2.47.234-1.32 0-2.49-.269-3.51-.806-1.01-.537-1.8-1.335-2.37-2.392-.55-1.075-.83-2.383-.83-3.926 0-1.525.25-2.834.75-3.926.52-1.092 1.24-1.933 2.16-2.522.94-.589 2.02-.884 3.25-.884Zm-.03 1.872c-1.09 0-1.95.355-2.6 1.066-.62.693-.99 1.664-1.11 2.912h7.09c0-.797-.12-1.491-.36-2.08a2.884 2.884 0 0 0-1.12-1.378c-.48-.347-1.12-.52-1.9-.52Z"/>
    <path fill="#000" d="M1591.46 590.202c1.07 0 2.03.165 2.88.494.87.329 1.55.823 2.06 1.482.5.659.75 1.491.75 2.496 0 .745-.14 1.404-.42 1.976-.26.555-.62 1.04-1.09 1.456-.45.416-.97.78-1.56 1.092.59.347 1.15.754 1.69 1.222a5.32 5.32 0 0 1 1.35 1.612c.37.607.55 1.326.55 2.158 0 1.023-.24 1.915-.73 2.678-.48.763-1.19 1.352-2.13 1.768-.92.416-2.05.624-3.38.624-1.39 0-2.55-.199-3.48-.598-.92-.399-1.62-.971-2.08-1.716-.46-.745-.68-1.629-.68-2.652 0-.849.14-1.586.42-2.21.29-.624.69-1.161 1.19-1.612.5-.468 1.06-.858 1.67-1.17a9.564 9.564 0 0 1-1.41-1.17 5.72 5.72 0 0 1-.99-1.508c-.24-.572-.36-1.231-.36-1.976 0-.988.25-1.811.75-2.47.52-.659 1.22-1.153 2.08-1.482.89-.329 1.86-.494 2.92-.494Zm-2.4 13.858c0 .676.2 1.231.6 1.664.4.433.97.65 1.72.65.55 0 1-.095 1.35-.286.36-.191.63-.459.81-.806.17-.347.26-.745.26-1.196 0-.468-.12-.884-.34-1.248a4.33 4.33 0 0 0-.83-.962 7.464 7.464 0 0 0-.99-.754l-.31-.208c-.44.243-.83.52-1.17.832-.33.312-.6.659-.81 1.04-.19.364-.29.789-.29 1.274Zm2.37-10.998c-.49 0-.9.165-1.25.494-.35.329-.52.797-.52 1.404 0 .416.08.789.24 1.118.17.312.39.589.65.832.27.225.57.442.88.65.29-.191.57-.399.83-.624.28-.225.5-.494.68-.806.17-.329.26-.719.26-1.17 0-.607-.18-1.075-.52-1.404-.33-.329-.75-.494-1.25-.494Zm14.17-2.86c1.07 0 2.03.165 2.88.494.87.329 1.56.823 2.06 1.482s.75 1.491.75 2.496c0 .745-.14 1.404-.41 1.976-.26.555-.63 1.04-1.1 1.456-.45.416-.97.78-1.56 1.092.59.347 1.16.754 1.69 1.222a5.5 5.5 0 0 1 1.36 1.612c.36.607.54 1.326.54 2.158 0 1.023-.24 1.915-.73 2.678-.48.763-1.19 1.352-2.13 1.768-.92.416-2.04.624-3.38.624-1.38 0-2.55-.199-3.48-.598-.92-.399-1.61-.971-2.08-1.716-.45-.745-.68-1.629-.68-2.652 0-.849.14-1.586.42-2.21.29-.624.69-1.161 1.19-1.612a7.52 7.52 0 0 1 1.67-1.17c-.5-.347-.97-.737-1.41-1.17a5.45 5.45 0 0 1-.98-1.508c-.25-.572-.37-1.231-.37-1.976 0-.988.25-1.811.76-2.47.52-.659 1.21-1.153 2.08-1.482.88-.329 1.85-.494 2.91-.494Zm-2.39 13.858c0 .676.2 1.231.59 1.664.4.433.97.65 1.72.65.55 0 1.01-.095 1.35-.286.37-.191.63-.459.81-.806.17-.347.26-.745.26-1.196 0-.468-.11-.884-.34-1.248-.23-.364-.5-.685-.83-.962a7.464 7.464 0 0 0-.99-.754l-.31-.208c-.44.243-.83.52-1.17.832-.33.312-.6.659-.81 1.04-.19.364-.28.789-.28 1.274Zm2.36-10.998c-.48 0-.9.165-1.25.494-.34.329-.52.797-.52 1.404 0 .416.08.789.24 1.118.17.312.39.589.65.832.28.225.57.442.88.65.3-.191.57-.399.83-.624.28-.225.51-.494.68-.806.17-.329.26-.719.26-1.17 0-.607-.17-1.075-.52-1.404-.33-.329-.75-.494-1.25-.494Z"/>
    <path fill="#666" d="M1667.11 598.836h12.61v1.606h-12.61v-1.606Zm12.04 0h1.71v.506c0 .117 0 .213-.02.286-.09 1.716-.17 3.175-.26 4.378-.08 1.188-.17 2.178-.29 2.97-.1.792-.22 1.415-.35 1.87-.13.455-.3.785-.51.99-.22.279-.46.469-.72.572-.27.117-.59.191-.97.22-.37.029-.87.037-1.52.022-.63 0-1.29-.022-1.98-.066a3.174 3.174 0 0 0-.17-.836 2.867 2.867 0 0 0-.38-.814c.72.059 1.39.095 2 .11.62.029 1.06.044 1.32.044.22 0 .41-.022.55-.066a.858.858 0 0 0 .38-.22c.22-.205.39-.645.53-1.32.14-.689.27-1.701.37-3.036.12-1.349.22-3.109.31-5.28v-.33Zm-9.02-7.876 1.76.506a24.099 24.099 0 0 1-1.92 3.542 21.7 21.7 0 0 1-2.37 3.102c-.85.939-1.74 1.76-2.66 2.464a10.42 10.42 0 0 0-.42-.418c-.18-.161-.36-.323-.55-.484-.18-.161-.33-.293-.46-.396.93-.616 1.82-1.357 2.66-2.222a19.12 19.12 0 0 0 3.96-6.094Zm7.68-.044c.35.733.78 1.489 1.29 2.266.52.763 1.07 1.503 1.68 2.222.6.704 1.21 1.364 1.84 1.98.65.601 1.27 1.115 1.87 1.54-.14.117-.31.264-.5.44-.18.161-.35.33-.51.506-.14.176-.27.345-.37.506a19.548 19.548 0 0 1-1.87-1.738 33.66 33.66 0 0 1-1.87-2.178 35.38 35.38 0 0 1-1.72-2.42c-.53-.836-1-1.665-1.43-2.486l1.59-.638Zm-6.05 8.382h1.78a28.736 28.736 0 0 1-.57 3.52 13.341 13.341 0 0 1-1.21 3.234c-.55 1.012-1.3 1.929-2.27 2.75-.95.821-2.2 1.511-3.74 2.068a5.242 5.242 0 0 0-.68-1.034 3.667 3.667 0 0 0-.4-.418c1.44-.469 2.6-1.063 3.48-1.782.89-.733 1.58-1.547 2.07-2.442.48-.895.83-1.841 1.05-2.838.22-.997.38-2.017.49-3.058Zm24.77-1.232h9.63v1.562h-9.63v-1.562Zm-.86-5.742 2.05.616c-.02.147-.17.242-.44.286v5.302c0 .865-.04 1.819-.11 2.86-.06 1.041-.2 2.105-.42 3.19a18.793 18.793 0 0 1-.93 3.19 12.85 12.85 0 0 1-1.62 2.926 1.732 1.732 0 0 0-.36-.418c-.14-.132-.3-.264-.46-.396a2.037 2.037 0 0 0-.44-.286c.62-.821 1.11-1.701 1.48-2.64.36-.939.63-1.899.81-2.882a24.7 24.7 0 0 0 .35-2.882c.06-.953.09-1.848.09-2.684v-6.182Zm8.1-1.562 1.4 1.276c-.76.323-1.63.623-2.61.902-.97.279-1.97.535-3 .77-1.02.22-2.03.411-3.01.572a2.69 2.69 0 0 0-.22-.682 5.14 5.14 0 0 0-.33-.66c.94-.191 1.88-.396 2.84-.616.97-.235 1.88-.484 2.73-.748.86-.264 1.59-.535 2.2-.814Zm-2.51 7.81h1.63v12.188h-1.63v-12.188Zm-15.12-3.344h8.01v1.584h-8.01v-1.584Zm3.41-4.708h1.61v20.218h-1.61V590.52Zm-.08 5.698 1.07.352c-.19.88-.43 1.797-.72 2.75-.28.953-.6 1.885-.97 2.794-.35.909-.73 1.753-1.14 2.53-.4.777-.81 1.445-1.24 2.002-.08-.22-.22-.469-.39-.748-.18-.293-.33-.543-.46-.748.39-.499.78-1.093 1.16-1.782.4-.689.76-1.437 1.1-2.244.35-.807.66-1.628.93-2.464.27-.836.49-1.65.66-2.442Zm1.54 2.42c.14.147.36.403.66.77.3.367.63.763.96 1.188.36.425.68.821.97 1.188.3.352.5.609.62.77l-1.04 1.32a9.83 9.83 0 0 0-.59-1.034c-.26-.411-.56-.836-.88-1.276-.31-.44-.6-.851-.88-1.232-.26-.381-.48-.689-.66-.924l.84-.77Zm26.99-.33c.44 0 .84.103 1.19.308.35.205.63.484.83.836.21.352.31.748.31 1.188 0 .425-.1.821-.31 1.188-.2.352-.48.631-.83.836a2.32 2.32 0 0 1-1.19.308 2.4 2.4 0 0 1-1.19-.308 2.242 2.242 0 0 1-.83-.836 2.347 2.347 0 0 1-.31-1.188c0-.44.1-.836.31-1.188.2-.352.48-.631.83-.836a2.4 2.4 0 0 1 1.19-.308Zm25.54-6.204c-.39.66-.9 1.357-1.52 2.09-.61.733-1.29 1.445-2.04 2.134-.74.675-1.51 1.269-2.31 1.782a5.073 5.073 0 0 0-.4-.682 3.937 3.937 0 0 0-.46-.638c.81-.499 1.58-1.093 2.33-1.782.76-.704 1.45-1.437 2.07-2.2.62-.777 1.11-1.525 1.5-2.244h1.54c.49.777 1.08 1.54 1.76 2.288.69.748 1.4 1.437 2.15 2.068a15 15 0 0 0 2.25 1.584c-.17.191-.33.418-.51.682-.16.264-.31.513-.44.748a23.515 23.515 0 0 1-2.2-1.694 25.957 25.957 0 0 1-2.07-2.046c-.64-.733-1.19-1.43-1.65-2.09Zm-5.32 7.766h10.47v1.386h-9.04v9.438h-1.43V599.87Zm9.46 0h1.47v9.284c0 .352-.04.631-.13.836-.07.205-.22.367-.44.484-.22.103-.5.169-.84.198-.33.029-.74.044-1.21.044a4.238 4.238 0 0 0-.17-.66 7.698 7.698 0 0 0-.27-.66c.33.015.61.022.84.022h.51c.16 0 .24-.095.24-.286v-9.262Zm-6.21.396h1.19v10.186h-1.19v-10.186Zm3.06 0h1.21v10.186h-1.21v-10.186Zm-4.68-3.696h7.59v1.408h-7.59v-1.408Zm-.97 7.81h9.66v1.364h-9.66v-1.364Zm-8.1-7.194h5.94v1.298h-5.94v-1.298Zm.13-5.896h5.75v1.32h-5.75v-1.32Zm-.13 8.822h5.94v1.32h-5.94v-1.32Zm-.94-5.94h7.54v1.386h-7.54v-1.386Zm1.71 8.91h5.19v6.402h-5.19v-1.364h3.79v-3.674h-3.79v-1.364Zm-.79 0h1.41v7.436h-1.41v-7.436Zm30.71-5.962v2.838h8.16v-2.838h-8.16Zm0-4.136v2.794h8.16v-2.794h-8.16Zm-1.52-1.452h11.27v9.856h-11.27v-9.856Zm-.26 12.452h11.84v1.496h-11.84v-1.496Zm-1.69 4.532h14.27v1.518H1758v-1.518Zm-5.99-16.522h6.87v1.562h-6.87v-1.562Zm.22 6.38h6.32v1.54h-6.32v-1.54Zm-.46 8.426c.6-.176 1.28-.374 2.02-.594.77-.235 1.57-.491 2.4-.77.85-.293 1.7-.579 2.55-.858l.29 1.606c-1.19.396-2.38.799-3.59 1.21-1.2.396-2.28.755-3.25 1.078l-.42-1.672Zm2.97-14.19h1.58v13.64l-1.58.308V592.61Zm10.1-.396h1.43v8.47h.13v8.514h-1.69v-8.514h.13v-8.47Z"/>
    <path fill="#4285F4" d="M1444.9 649.198h6.42v9.1c-1.01.329-2.02.572-3.04.728-1.03.156-2.19.234-3.49.234-1.92 0-3.54-.381-4.86-1.144-1.32-.78-2.32-1.881-3.01-3.302-.68-1.439-1.02-3.137-1.02-5.096 0-1.941.38-3.623 1.15-5.044a7.997 7.997 0 0 1 3.27-3.302c1.44-.797 3.17-1.196 5.2-1.196 1.04 0 2.02.095 2.94.286.94.191 1.8.459 2.6.806l-.88 2.028c-.66-.295-1.41-.546-2.24-.754-.82-.208-1.66-.312-2.55-.312-1.47 0-2.74.303-3.79.91a5.916 5.916 0 0 0-2.42 2.6c-.56 1.109-.83 2.435-.83 3.978 0 1.473.23 2.782.7 3.926a5.709 5.709 0 0 0 2.26 2.652c1.02.624 2.37.936 4.03.936.55 0 1.04-.017 1.46-.052.43-.052.82-.113 1.17-.182.36-.069.7-.139 1.01-.208v-5.512h-4.08v-2.08Zm15.92-4.394c1.2 0 2.22.26 3.07.78.87.52 1.53 1.257 1.98 2.21.47.936.7 2.037.7 3.302v1.378h-9.54c.03 1.577.43 2.782 1.19 3.614.78.815 1.87 1.222 3.25 1.222.89 0 1.67-.078 2.34-.234.7-.173 1.41-.416 2.14-.728v2.002c-.72.312-1.42.537-2.11.676-.69.156-1.52.234-2.47.234-1.32 0-2.49-.269-3.51-.806-1.01-.537-1.79-1.335-2.37-2.392-.55-1.075-.83-2.383-.83-3.926 0-1.525.25-2.834.76-3.926.52-1.092 1.23-1.933 2.15-2.522.94-.589 2.02-.884 3.25-.884Zm-.02 1.872c-1.09 0-1.96.355-2.6 1.066-.63.693-1 1.664-1.12 2.912h7.1c0-.797-.12-1.491-.37-2.08a2.923 2.923 0 0 0-1.11-1.378c-.49-.347-1.12-.52-1.9-.52Zm24.61-1.872c1.57 0 2.75.407 3.53 1.222.78.797 1.17 2.097 1.17 3.9V659h-2.26v-8.97c0-1.092-.23-1.915-.7-2.47-.45-.555-1.16-.832-2.13-.832-1.36 0-2.33.39-2.92 1.17-.57.78-.85 1.915-.85 3.406V659h-2.27v-8.97c0-.728-.1-1.335-.31-1.82-.21-.503-.52-.875-.93-1.118-.42-.243-.96-.364-1.62-.364-.93 0-1.67.199-2.21.598-.53.381-.92.945-1.17 1.69-.22.745-.33 1.664-.33 2.756V659h-2.29v-13.936h1.84l.34 1.898h.13c.3-.485.65-.884 1.07-1.196.43-.329.91-.572 1.43-.728a5.54 5.54 0 0 1 1.61-.234c1.07 0 1.97.191 2.68.572.73.381 1.25.971 1.58 1.768h.13c.47-.797 1.1-1.387 1.9-1.768a6.02 6.02 0 0 1 2.58-.572Zm11.29.26V659h-2.28v-13.936h2.28Zm-1.11-5.226c.34 0 .65.121.91.364.27.225.41.589.41 1.092 0 .485-.14.849-.41 1.092-.26.243-.57.364-.91.364-.39 0-.71-.121-.97-.364s-.39-.607-.39-1.092c0-.503.13-.867.39-1.092.26-.243.58-.364.97-.364Zm12.24 4.966c1.66 0 2.92.407 3.77 1.222.85.797 1.27 2.097 1.27 3.9V659h-2.26v-8.918c0-1.127-.25-1.967-.75-2.522-.51-.555-1.3-.832-2.37-.832-1.54 0-2.61.433-3.2 1.3-.59.867-.88 2.115-.88 3.744V659h-2.29v-13.936h1.85l.33 1.898h.13c.32-.485.7-.884 1.15-1.196.47-.329.98-.572 1.53-.728a6.362 6.362 0 0 1 1.72-.234Zm11.65.26V659h-2.29v-13.936h2.29Zm-1.12-5.226c.35 0 .65.121.91.364.28.225.42.589.42 1.092 0 .485-.14.849-.42 1.092-.26.243-.56.364-.91.364-.38 0-.7-.121-.96-.364s-.39-.607-.39-1.092c0-.503.13-.867.39-1.092.26-.243.58-.364.96-.364Z"/>
    <path fill="#000" d="M1591.46 640.202c1.07 0 2.03.165 2.88.494.87.329 1.55.823 2.06 1.482.5.659.75 1.491.75 2.496 0 .745-.14 1.404-.42 1.976-.26.555-.62 1.04-1.09 1.456-.45.416-.97.78-1.56 1.092.59.347 1.15.754 1.69 1.222a5.32 5.32 0 0 1 1.35 1.612c.37.607.55 1.326.55 2.158 0 1.023-.24 1.915-.73 2.678-.48.763-1.19 1.352-2.13 1.768-.92.416-2.05.624-3.38.624-1.39 0-2.55-.199-3.48-.598-.92-.399-1.62-.971-2.08-1.716-.46-.745-.68-1.629-.68-2.652 0-.849.14-1.586.42-2.21.29-.624.69-1.161 1.19-1.612.5-.468 1.06-.858 1.67-1.17a9.564 9.564 0 0 1-1.41-1.17 5.72 5.72 0 0 1-.99-1.508c-.24-.572-.36-1.231-.36-1.976 0-.988.25-1.811.75-2.47.52-.659 1.22-1.153 2.08-1.482.89-.329 1.86-.494 2.92-.494Zm-2.4 13.858c0 .676.2 1.231.6 1.664.4.433.97.65 1.72.65.55 0 1-.095 1.35-.286.36-.191.63-.459.81-.806.17-.347.26-.745.26-1.196 0-.468-.12-.884-.34-1.248a4.33 4.33 0 0 0-.83-.962 7.464 7.464 0 0 0-.99-.754l-.31-.208c-.44.243-.83.52-1.17.832-.33.312-.6.659-.81 1.04-.19.364-.29.789-.29 1.274Zm2.37-10.998c-.49 0-.9.165-1.25.494-.35.329-.52.797-.52 1.404 0 .416.08.789.24 1.118.17.312.39.589.65.832.27.225.57.442.88.65.29-.191.57-.399.83-.624.28-.225.5-.494.68-.806.17-.329.26-.719.26-1.17 0-.607-.18-1.075-.52-1.404-.33-.329-.75-.494-1.25-.494ZM1611.79 659h-12.43v-2.73l4.31-4.706a41.57 41.57 0 0 0 2.08-2.418c.52-.659.89-1.248 1.1-1.768.22-.537.33-1.109.33-1.716 0-.745-.18-1.3-.54-1.664-.35-.364-.8-.546-1.35-.546-.61 0-1.22.165-1.82.494-.59.329-1.24.797-1.95 1.404l-2.29-2.522a16 16 0 0 1 1.64-1.3c.57-.399 1.24-.719 2.02-.962.78-.26 1.72-.39 2.81-.39 1.16 0 2.17.225 3.02.676.85.433 1.5 1.031 1.95 1.794.47.745.7 1.595.7 2.548 0 .78-.11 1.491-.34 2.132a7.559 7.559 0 0 1-.99 1.898c-.41.624-.91 1.274-1.5 1.95-.59.659-1.25 1.404-1.98 2.236l-1.87 2.106-.03.182h7.13V659Z"/>
    <path fill="#666" d="M1668.76 649.21v7.788h-1.6v-6.248h-3.08v-1.54h4.68Zm0 7.062c.53.807 1.27 1.408 2.2 1.804.94.396 2.05.616 3.33.66.6.029 1.32.051 2.17.066a169.584 169.584 0 0 0 5.46-.088c.88-.029 1.65-.066 2.31-.11-.07.117-.15.279-.22.484-.07.205-.14.411-.2.616-.06.22-.1.411-.13.572-.6.029-1.31.051-2.13.066-.83.015-1.68.022-2.56.022-.88.015-1.73.015-2.57 0-.82 0-1.53-.007-2.13-.022-1.44-.059-2.67-.293-3.7-.704a6.255 6.255 0 0 1-2.57-1.936c-.53.469-1.07.939-1.63 1.408-.56.484-1.14.975-1.74 1.474l-.86-1.694c.53-.352 1.09-.755 1.7-1.21.61-.469 1.21-.939 1.78-1.408h1.49Zm-4.44-14.234 1.21-.99c.48.308.98.667 1.47 1.078.5.396.96.799 1.37 1.21.42.411.77.792 1.03 1.144l-1.32 1.1c-.22-.352-.54-.741-.97-1.166-.41-.425-.86-.843-1.36-1.254-.48-.425-.96-.799-1.43-1.122Zm8.14 5.346v2.816h8.71v-2.816h-8.71Zm-1.54-1.342h11.86v5.478h-11.86v-5.478Zm-.92-3.234h13.79v1.43H1670v-1.43Zm5.91-2.266h1.61v17.38h-1.61v-17.38Zm-.55 10.472 1.24.462c-.44.777-.99 1.54-1.63 2.288-.63.733-1.32 1.408-2.07 2.024a13.46 13.46 0 0 1-2.24 1.474 2.886 2.886 0 0 0-.31-.418 4.905 4.905 0 0 0-.38-.462 3.864 3.864 0 0 0-.37-.374c.73-.323 1.46-.741 2.18-1.254a15.75 15.75 0 0 0 2.04-1.76c.63-.66 1.15-1.32 1.54-1.98Zm2.53 0c.44.645.99 1.283 1.65 1.914.66.631 1.38 1.21 2.14 1.738.76.513 1.5.931 2.22 1.254-.12.103-.25.235-.4.396-.14.147-.28.301-.41.462-.12.147-.22.286-.31.418-.72-.381-1.46-.88-2.22-1.496a23.288 23.288 0 0 1-2.14-2.002 15.98 15.98 0 0 1-1.69-2.178l1.16-.506Zm12.06-4.334h15.66v1.364h-15.66v-1.364Zm.31 6.424h12.6v1.364h-12.6v-1.364Zm3.23-8.338h1.59v5.61h5.34v-5.61h1.63v6.93h-8.56v-6.93Zm8.93 8.338h.33l.29-.066 1.03.55a10.025 10.025 0 0 1-2.35 2.97 14.04 14.04 0 0 1-3.3 2.068 21.94 21.94 0 0 1-3.96 1.342 34.62 34.62 0 0 1-4.36.792c-.04-.191-.14-.425-.28-.704a3.008 3.008 0 0 0-.42-.682c1.39-.147 2.76-.359 4.09-.638 1.34-.293 2.58-.682 3.74-1.166 1.18-.484 2.21-1.071 3.1-1.76.9-.689 1.6-1.511 2.09-2.464v-.242Zm-8.25 1.144c.71.983 1.65 1.826 2.84 2.53 1.2.704 2.58 1.269 4.14 1.694 1.55.425 3.22.726 4.99.902-.1.117-.22.264-.35.44-.12.176-.23.345-.35.506-.1.176-.19.337-.27.484a28.53 28.53 0 0 1-5.08-1.122c-1.58-.499-3-1.151-4.27-1.958-1.24-.821-2.26-1.797-3.05-2.926l1.4-.55Zm1.63-13.728h1.7v3.014h-1.7v-3.014Zm-7.32 2.178h17.27v1.496h-17.27v-1.496Zm-.82 0h1.59v6.358c0 .851-.03 1.782-.09 2.794a30.843 30.843 0 0 1-.31 3.102 22.186 22.186 0 0 1-.66 3.08 12.03 12.03 0 0 1-1.14 2.75 3.77 3.77 0 0 0-.4-.33c-.16-.117-.33-.235-.51-.352a1.777 1.777 0 0 0-.46-.22c.46-.792.82-1.643 1.08-2.552.26-.924.46-1.87.59-2.838.14-.968.22-1.914.25-2.838.04-.939.06-1.804.06-2.596v-6.358Zm30.34 5.61c.44 0 .84.103 1.19.308.35.205.63.484.83.836.21.352.31.748.31 1.188 0 .425-.1.821-.31 1.188-.2.352-.48.631-.83.836a2.32 2.32 0 0 1-1.19.308 2.4 2.4 0 0 1-1.19-.308 2.242 2.242 0 0 1-.83-.836 2.347 2.347 0 0 1-.31-1.188c0-.44.1-.836.31-1.188.2-.352.48-.631.83-.836a2.4 2.4 0 0 1 1.19-.308Zm24.77-7.788h1.67v3.564h-1.67v-3.564Zm-1.25 3.894 1.74.484c-.24.572-.5 1.166-.77 1.782-.27.616-.53 1.203-.8 1.76-.26.557-.51 1.049-.74 1.474l-1.41-.462c.25-.44.49-.953.72-1.54.25-.601.49-1.21.71-1.826.23-.616.42-1.173.55-1.672Zm3.76 2.046 1.28-.704c.45.513.91 1.078 1.38 1.694.47.601.9 1.195 1.28 1.782.39.587.7 1.122.92 1.606l-1.41.792c-.2-.469-.49-1.005-.85-1.606-.37-.601-.78-1.21-1.24-1.826-.45-.631-.91-1.21-1.36-1.738Zm-7.52-3.036h12.03v1.496h-12.03v-1.496Zm.08 5.654c.85-.044 1.84-.095 2.95-.154 1.13-.059 2.32-.132 3.57-.22 1.26-.088 2.52-.169 3.78-.242v1.43l-3.67.264c-1.22.088-2.39.176-3.5.264l-2.99.198-.14-1.54Zm6.93 2.31h1.57v7.106c0 .279.03.455.08.528.06.073.22.11.47.11h1.49c.16 0 .28-.066.35-.198.08-.132.13-.396.16-.792.04-.396.07-.99.09-1.782.11.088.25.176.41.264.17.088.33.161.51.22.19.059.36.11.51.154-.05.953-.14 1.694-.27 2.222-.12.528-.31.895-.57 1.1-.25.205-.59.308-1.03.308h-1.9c-.49 0-.88-.066-1.16-.198-.27-.117-.45-.337-.55-.66-.1-.308-.16-.733-.16-1.276v-7.106Zm-11.48-10.868 1.45.594c-.28.513-.57 1.063-.88 1.65-.31.587-.62 1.151-.94 1.694-.31.543-.61 1.012-.91 1.408l-1.12-.506c.28-.425.57-.917.86-1.474.29-.572.58-1.151.86-1.738.28-.601.5-1.144.68-1.628Zm2.49 2.508 1.38.638a70.08 70.08 0 0 1-1.67 2.662 61.31 61.31 0 0 1-1.83 2.706c-.61.865-1.2 1.628-1.76 2.288l-1.01-.572c.41-.499.84-1.063 1.28-1.694a46.85 46.85 0 0 0 2.55-4.092 71.2 71.2 0 0 0 1.06-1.936Zm-5.94 2.134.83-1.1c.41.337.82.719 1.23 1.144.43.411.82.821 1.17 1.232.35.396.62.755.81 1.078l-.9 1.254a8.166 8.166 0 0 0-.81-1.144c-.34-.44-.71-.873-1.12-1.298-.41-.425-.82-.814-1.21-1.166Zm5.14 2.992 1.17-.484c.31.469.6.983.88 1.54.28.543.52 1.078.73 1.606.22.513.38.975.48 1.386l-1.25.55a8.48 8.48 0 0 0-.47-1.408 23.97 23.97 0 0 0-.7-1.628c-.26-.572-.54-1.093-.84-1.562Zm-5.23 2.222c.97-.029 2.1-.073 3.41-.132 1.3-.059 2.65-.117 4.05-.176l-.03 1.342-3.87.264c-1.27.073-2.41.147-3.41.22l-.15-1.518Zm5.81 2.948 1.21-.374c.29.616.57 1.305.83 2.068.28.748.47 1.393.57 1.936l-1.25.44c-.1-.557-.29-1.21-.55-1.958a21.42 21.42 0 0 0-.81-2.112Zm-4.56-.22 1.41.242a26.695 26.695 0 0 1-.62 3.08c-.26.997-.57 1.848-.92 2.552-.1-.073-.23-.147-.4-.22-.14-.073-.3-.147-.48-.22a2.781 2.781 0 0 0-.44-.198c.38-.675.68-1.474.9-2.398.24-.939.42-1.885.55-2.838Zm2.36-2.112h1.47v9.812h-1.47v-9.812Zm7.32.418h1.59c-.05 1.203-.14 2.295-.29 3.278-.15.983-.4 1.863-.75 2.64a6.26 6.26 0 0 1-1.43 2.024c-.6.587-1.39 1.085-2.37 1.496a3.806 3.806 0 0 0-.42-.66 4.491 4.491 0 0 0-.55-.572c.88-.352 1.59-.777 2.13-1.276a4.88 4.88 0 0 0 1.23-1.738c.3-.675.5-1.437.62-2.288.13-.865.21-1.833.24-2.904Zm15.78-3.696h11.11v1.474h-11.11v-1.474Zm-.4 10.67h11.79v1.474h-11.79v-1.474Zm-.75-6.424h13.47v8.822h-1.68v-7.326h-10.16v7.326h-1.63v-8.822Zm6.65-9.768c-.61.895-1.39 1.819-2.36 2.772-.95.953-2.01 1.87-3.19 2.75-1.16.88-2.37 1.657-3.63 2.332-.07-.117-.17-.257-.28-.418-.12-.161-.25-.323-.38-.484a3.024 3.024 0 0 0-.37-.396c1.29-.66 2.53-1.445 3.72-2.354 1.2-.909 2.28-1.87 3.23-2.882.97-1.012 1.74-1.995 2.31-2.948h1.69c.59.821 1.26 1.621 2.01 2.398.76.777 1.57 1.511 2.42 2.2.86.689 1.74 1.32 2.64 1.892.91.557 1.79 1.027 2.66 1.408-.19.205-.38.44-.57.704-.19.264-.37.521-.53.77-.87-.469-1.74-.997-2.62-1.584a33.795 33.795 0 0 1-2.57-1.892 32.269 32.269 0 0 1-2.34-2.112 20.082 20.082 0 0 1-1.84-2.156Z"/>
  </g>
  <defs>
    <clipPath id="a">
      <path fill="#fff" d="M0 0h1920v1080H0z"/>
    </clipPath>
  </defs>
</svg>
