<svg xmlns="http://www.w3.org/2000/svg" width="1920" height="1080" fill="none" viewBox="0 0 1920 1080">
  <g clip-path="url(#a)">
    <path fill="#fff" d="M1920 0H0v1080h1920V0Z"/>
    <path fill="#000" d="M754.88 91.04c-.053.427-.133 1.093-.24 2a366.78 366.78 0 0 0-.32 2.64c-.053.853-.107 1.627-.16 2.32a438.102 438.102 0 0 0-.32 5.12 2387.85 2387.85 0 0 0-.16 5.68c-.053 1.92-.107 3.867-.16 5.84v5.76c0 2.187.027 4.613.08 7.28l.16 7.84c.107 2.56.16 4.907.16 7.04.053 2.133.08 3.787.08 4.96 0 3.307-.373 5.867-1.12 7.68-.693 1.813-1.707 3.067-3.04 3.76-1.333.747-2.88 1.12-4.64 1.12-1.92 0-3.973-.4-6.16-1.2a23.372 23.372 0 0 1-6.16-3.2c-1.867-1.387-3.413-2.987-4.64-4.8-1.173-1.867-1.76-3.867-1.76-6 0-2.56.96-5.093 2.88-7.6 1.973-2.56 4.56-4.907 7.76-7.04a46.592 46.592 0 0 1 10.48-5.12 56.073 56.073 0 0 1 11.04-2.88c3.787-.64 7.2-.96 10.24-.96 4.107 0 7.813.693 11.12 2.08 3.307 1.333 5.947 3.307 7.92 5.92 1.973 2.613 2.96 5.76 2.96 9.44 0 3.093-.587 5.947-1.76 8.56-1.173 2.613-3.067 4.88-5.68 6.8-2.56 1.867-5.973 3.333-10.24 4.4-1.813.373-3.627.64-5.44.8a94.52 94.52 0 0 1-5.04.48l-3.68-10.32c1.813 0 3.547-.027 5.2-.08a52.32 52.32 0 0 0 4.64-.48c2.187-.427 4.16-1.067 5.92-1.92 1.76-.853 3.147-1.973 4.16-3.36 1.013-1.387 1.52-3.04 1.52-4.96 0-1.813-.507-3.36-1.52-4.64-.96-1.28-2.32-2.267-4.08-2.96-1.76-.693-3.813-1.04-6.16-1.04-3.36 0-6.773.347-10.24 1.04a59.778 59.778 0 0 0-9.84 2.88c-2.347.907-4.453 1.973-6.32 3.2-1.867 1.173-3.333 2.4-4.4 3.68-1.067 1.28-1.6 2.507-1.6 3.68 0 .64.187 1.253.56 1.84.427.533.96 1.013 1.6 1.44.64.427 1.28.773 1.92 1.04.693.213 1.28.32 1.76.32.747 0 1.36-.213 1.84-.64.48-.48.72-1.387.72-2.72 0-1.44-.053-3.493-.16-6.16-.053-2.72-.133-5.733-.24-9.04-.053-3.307-.08-6.587-.08-9.84v-6.8c.053-2.293.08-4.48.08-6.56v-5.52c.053-1.6.08-2.853.08-3.76 0-.587-.027-1.333-.08-2.24a46.214 46.214 0 0 0-.24-2.72c-.053-.96-.133-1.653-.24-2.08h11.04Zm22.8 8.64c2.027.96 4.293 2.133 6.8 3.52a176.855 176.855 0 0 1 7.28 4.16c2.347 1.333 4.213 2.533 5.6 3.6l-4.8 8.16c-1.013-.853-2.347-1.813-4-2.88-1.6-1.067-3.36-2.16-5.28-3.28a153.17 153.17 0 0 0-5.44-3.12c-1.76-1.013-3.28-1.813-4.56-2.4l4.4-7.76Zm-49.04 4.4c2.347.267 4.4.453 6.16.56 1.813.053 3.44.08 4.88.08 2.08 0 4.373-.08 6.88-.24 2.507-.213 5.067-.48 7.68-.8 2.613-.373 5.147-.8 7.6-1.28 2.507-.48 4.773-1.013 6.8-1.6l.24 9.92c-2.24.533-4.667 1.013-7.28 1.44-2.613.373-5.253.72-7.92 1.04-2.613.32-5.12.56-7.52.72-2.347.16-4.4.24-6.16.24-2.667 0-4.853-.027-6.56-.08a55.882 55.882 0 0 1-4.64-.32l-.16-9.68Zm99.68 22.48h27.04v25.28h-27.04V144h18v-9.52h-18v-7.92Zm-4.16 0h8.88v29.84h-8.88v-29.84Zm-13.04-23.84h20v6.48h-20v-6.48Zm37.12 0h20.16v6.48h-20.16v-6.48Zm16.16-11.6h9.76v60.56c0 2.667-.32 4.747-.96 6.24-.64 1.493-1.787 2.64-3.44 3.44-1.707.8-3.84 1.307-6.4 1.52-2.56.213-5.707.32-9.44.32-.053-.96-.267-2.027-.64-3.2a140.526 140.526 0 0 0-1.2-3.6c-.427-1.173-.907-2.187-1.44-3.04 1.6.107 3.2.187 4.8.24h4.24c1.28-.053 2.187-.08 2.72-.08.747 0 1.253-.133 1.52-.4.32-.32.48-.853.48-1.6v-60.4Zm-52.56 0h25.36v29.92h-25.36v-7.28h16.32V98.4h-16.32v-7.28Zm57.76 0v7.28h-17.92v15.52h17.92v7.2h-27.04v-30h27.04Zm-63.2 0h9.52v72.08h-9.52V91.12Zm94.4 7.68c-.213.96-.4 2.053-.56 3.28a910.575 910.575 0 0 1-.32 3.6 66.415 66.415 0 0 0-.08 2.88c-.053 1.76-.08 3.573-.08 5.44.053 1.867.107 3.787.16 5.76.107 1.92.24 3.84.4 5.76.373 3.84.907 7.227 1.6 10.16.693 2.933 1.6 5.227 2.72 6.88 1.12 1.6 2.533 2.4 4.24 2.4.907 0 1.787-.507 2.64-1.52.907-1.013 1.707-2.32 2.4-3.92a40.025 40.025 0 0 0 1.92-5.2 102.39 102.39 0 0 0 1.52-5.12l8 9.76c-1.76 4.64-3.52 8.347-5.28 11.12-1.707 2.72-3.493 4.693-5.36 5.92-1.867 1.173-3.893 1.76-6.08 1.76-2.88 0-5.627-.96-8.24-2.88-2.56-1.92-4.747-5.013-6.56-9.28-1.813-4.32-3.093-10.053-3.84-17.2-.267-2.453-.48-5.04-.64-7.76a439.16 439.16 0 0 1-.24-7.76v-6.08c0-1.12-.053-2.453-.16-4a41.063 41.063 0 0 0-.48-4.16l12.32.16Zm40 1.84c1.493 1.813 2.933 4.027 4.32 6.64a81.247 81.247 0 0 1 3.84 8.4 103.776 103.776 0 0 1 3.12 9.2 86.288 86.288 0 0 1 2.16 9.12c.587 2.933.96 5.627 1.12 8.08l-10.56 4.08c-.267-3.253-.747-6.8-1.44-10.64a104.589 104.589 0 0 0-2.8-11.6 77.69 77.69 0 0 0-4.24-11.04c-1.6-3.467-3.493-6.453-5.68-8.96l10.16-3.28Zm39.28 13.2h40.08v8.48h-40.08v-8.48Zm-1.04 38h41.36v8.48h-41.36v-8.48Zm-4.24-21.52h51.04v32.96h-9.92v-24.56h-31.68v24.56h-9.44v-32.96Zm24.96-32.8c-2.187 3.147-4.96 6.347-8.32 9.6-3.307 3.253-7.013 6.373-11.12 9.36a112.607 112.607 0 0 1-12.64 8.08A29.45 29.45 0 0 0 966 122c-.64-.96-1.36-1.893-2.16-2.8-.747-.96-1.493-1.76-2.24-2.4a81.944 81.944 0 0 0 13.28-8.24c4.267-3.2 8.08-6.587 11.44-10.16 3.36-3.573 6.027-6.987 8-10.24h10a72.819 72.819 0 0 0 7.2 8.72 96.82 96.82 0 0 0 8.4 7.76c2.99 2.4 6.08 4.533 9.28 6.4 3.2 1.867 6.37 3.44 9.52 4.72a34.21 34.21 0 0 0-3.36 4.16 51.112 51.112 0 0 0-2.88 4.48c-3.09-1.6-6.21-3.44-9.36-5.52a141.335 141.335 0 0 1-9.12-6.72c-2.88-2.4-5.55-4.827-8-7.28-2.45-2.507-4.53-4.96-6.24-7.36Zm81.12 50.96c3.52-.533 6.75-1.307 9.68-2.32 2.93-1.013 5.47-2.32 7.6-3.92 2.19-1.6 3.87-3.547 5.04-5.84 1.17-2.347 1.76-5.093 1.76-8.24 0-1.547-.29-3.04-.88-4.48-.59-1.44-1.47-2.72-2.64-3.84-1.12-1.173-2.48-2.08-4.08-2.72-1.6-.64-3.41-.96-5.44-.96-5.07 0-9.79 1.333-14.16 4-4.37 2.613-8.51 6-12.4 10.16v-11.36c4.8-4.48 9.63-7.627 14.48-9.44 4.91-1.813 9.49-2.72 13.76-2.72 4.11 0 7.81.907 11.12 2.72 3.36 1.813 6.03 4.347 8 7.6 1.97 3.253 2.96 7.013 2.96 11.28 0 4.053-.64 7.707-1.92 10.96a24.252 24.252 0 0 1-5.68 8.56c-2.51 2.453-5.63 4.533-9.36 6.24-3.73 1.653-8.08 2.987-13.04 4l-4.8-9.68Zm-18.16-34.72c-.85.053-1.95.187-3.28.4-1.33.16-2.77.347-4.32.56-1.49.16-3.01.347-4.56.56-1.55.213-2.99.4-4.32.56l-1.04-10.24c1.17.053 2.27.08 3.28.08 1.07-.053 2.29-.107 3.68-.16 1.28-.107 2.8-.24 4.56-.4 1.81-.213 3.63-.453 5.44-.72 1.87-.267 3.6-.56 5.2-.88 1.6-.32 2.85-.64 3.76-.96l3.2 4.08c-.48.64-1.04 1.44-1.68 2.4-.59.96-1.2 1.947-1.84 2.96-.64.96-1.2 1.813-1.68 2.56l-4.72 15.04c-.85 1.227-1.92 2.773-3.2 4.64-1.23 1.867-2.53 3.84-3.92 5.92a434.75 434.75 0 0 1-4.08 6c-1.33 1.92-2.53 3.6-3.6 5.04l-6.32-8.72c1.01-1.28 2.19-2.747 3.52-4.4 1.33-1.707 2.69-3.493 4.08-5.36 1.44-1.92 2.85-3.813 4.24-5.68a619.84 619.84 0 0 0 3.84-5.36c1.23-1.707 2.24-3.173 3.04-4.4l.16-2.08.56-1.44Zm-.96-15.44V94.8c0-1.227-.11-2.453-.32-3.68l11.68.4c-.27 1.227-.59 3.013-.96 5.36-.37 2.293-.75 4.933-1.12 7.92-.32 2.987-.64 6.133-.96 9.44-.27 3.253-.51 6.507-.72 9.76-.16 3.253-.24 6.293-.24 9.12v6.64c.05 2.24.11 4.533.16 6.88.05 2.347.16 4.773.32 7.28.05.693.13 1.653.24 2.88.11 1.28.21 2.373.32 3.28h-11.04c.11-.907.16-1.973.16-3.2.05-1.173.08-2.08.08-2.72.05-2.613.11-5.04.16-7.28s.08-4.613.08-7.12c.05-2.507.13-5.413.24-8.72.05-1.227.13-2.773.24-4.64.11-1.92.21-4 .32-6.24.16-2.293.32-4.613.48-6.96.16-2.347.29-4.533.4-6.56.16-2.08.27-3.84.32-5.28.11-1.493.16-2.507.16-3.04Zm119.44-5.12c-.05.427-.11 1.067-.16 1.92-.05.8-.11 1.653-.16 2.56s-.11 1.733-.16 2.48c0 1.76-.03 3.467-.08 5.12 0 1.653-.03 3.227-.08 4.72 0 1.44-.03 2.853-.08 4.24-.05 2.347-.13 4.8-.24 7.36-.11 2.56-.24 4.933-.4 7.12-.16 2.187-.37 3.973-.64 5.36-.43 2.08-1.17 3.493-2.24 4.24-1.07.693-2.64 1.04-4.72 1.04-.91 0-2.16-.053-3.76-.16-1.55-.16-3.09-.347-4.64-.56-1.49-.213-2.72-.373-3.68-.48l.24-8.88c1.23.267 2.56.507 4 .72 1.49.213 2.61.32 3.36.32.8 0 1.39-.107 1.76-.32.43-.267.67-.773.72-1.52.16-1.013.27-2.293.32-3.84.11-1.547.19-3.227.24-5.04.11-1.867.19-3.68.24-5.44v-13.6c0-.693-.05-1.493-.16-2.4-.05-.96-.11-1.893-.16-2.8-.05-.907-.13-1.627-.24-2.16h10.72Zm-31.44 2.4c-.21 1.333-.35 2.64-.4 3.92a109.22 109.22 0 0 0-.08 4.4c0 1.44-.03 3.36-.08 5.76 0 2.4-.03 5.013-.08 7.84 0 2.773-.03 5.573-.08 8.4v7.6c0 2.293.03 4.107.08 5.44.05 1.973.19 3.6.4 4.88.27 1.227.8 2.187 1.6 2.88.8.693 2.05 1.173 3.76 1.44 1.76.267 4.13.4 7.12.4 2.61 0 5.39-.08 8.32-.24 2.93-.213 5.76-.48 8.48-.8 2.72-.32 5.09-.64 7.12-.96l-.4 10.88c-1.76.213-3.95.4-6.56.56-2.61.213-5.33.373-8.16.48-2.83.16-5.52.24-8.08.24-5.17 0-9.31-.293-12.4-.88s-5.44-1.573-7.04-2.96c-1.6-1.387-2.67-3.253-3.2-5.6-.53-2.347-.85-5.253-.96-8.72 0-1.173-.03-2.747-.08-4.72v-21.36c.05-2.347.08-4.4.08-6.16v-3.84c0-1.653-.05-3.2-.16-4.64a57.64 57.64 0 0 0-.48-4.24h11.28Zm-26.8 18.08c1.17 0 2.64-.053 4.4-.16 1.76-.107 3.65-.24 5.68-.4 1.6-.16 3.97-.373 7.12-.64 3.15-.32 6.72-.667 10.72-1.04 4-.373 8.16-.747 12.48-1.12 4.37-.427 8.56-.8 12.56-1.12 4-.32 7.55-.587 10.64-.8 1.12-.107 2.37-.187 3.76-.24 1.44-.107 2.75-.213 3.92-.32v9.84c-.43-.053-1.12-.08-2.08-.08s-1.97.027-3.04.08c-1.01 0-1.87.027-2.56.08-2.08.053-4.61.187-7.6.4-2.99.16-6.19.4-9.6.72-3.41.267-6.91.587-10.48.96-3.52.32-6.91.667-10.16 1.04s-6.19.693-8.8.96c-2.61.267-4.69.48-6.24.64-.85.107-1.89.267-3.12.48-1.23.16-2.45.347-3.68.56-1.17.16-2.11.293-2.8.4l-1.12-10.24Z"/>
    <path fill="#F3F4F6" stroke="#D1D5DB" stroke-width="2" d="M645 350H275c-8.284 0-15 6.716-15 15v170c0 8.284 6.716 15 15 15h370c8.284 0 15-6.716 15-15V365c0-8.284-6.716-15-15-15Z"/>
    <path fill="#3B82F6" d="M460 450c22.091 0 40-17.909 40-40s-17.909-40-40-40-40 17.909-40 40 17.909 40 40 40Z"/>
    <path fill="#fff" d="M472.239 411.29c0 .92-.11 1.82-.33 2.7-.2.88-.52 1.68-.96 2.4-.44.7-.98 1.27-1.62 1.71-.64.42-1.4.63-2.28.63-.92 0-1.65-.26-2.19-.78-.52-.54-.84-1.15-.96-1.83h-.15c-.36.74-.89 1.36-1.59 1.86-.7.5-1.58.75-2.64.75-1.52 0-2.7-.51-3.54-1.53-.82-1.02-1.23-2.37-1.23-4.05 0-1.32.26-2.48.78-3.48a5.912 5.912 0 0 1 2.19-2.4c.96-.58 2.09-.87 3.39-.87.88 0 1.74.08 2.58.24.86.14 1.53.3 2.01.48l-.3 6.09c-.02.36-.03.62-.03.78v.3c0 1.04.18 1.73.54 2.07.38.34.82.51 1.32.51.62 0 1.14-.25 1.56-.75.44-.52.77-1.2.99-2.04.24-.86.36-1.8.36-2.82 0-1.86-.38-3.43-1.14-4.71a7.372 7.372 0 0 0-3.09-2.97c-1.3-.68-2.78-1.02-4.44-1.02-1.7 0-3.21.27-4.53.81-1.32.54-2.43 1.3-3.33 2.28-.88.98-1.55 2.14-2.01 3.48-.46 1.32-.69 2.78-.69 4.38 0 1.96.35 3.63 1.05 5.01.7 1.36 1.72 2.4 3.06 3.12 1.36.7 3.02 1.05 4.98 1.05 1.22 0 2.38-.14 3.48-.42 1.12-.26 2.11-.55 2.97-.87v2.04c-.86.36-1.83.65-2.91.87-1.06.24-2.24.36-3.54.36-2.36 0-4.38-.44-6.06-1.32-1.68-.88-2.97-2.14-3.87-3.78-.88-1.66-1.32-3.65-1.32-5.97 0-1.86.29-3.58.87-5.16.58-1.6 1.42-2.98 2.52-4.14 1.1-1.18 2.43-2.09 3.99-2.73 1.58-.66 3.36-.99 5.34-.99 1.56 0 2.99.25 4.29.75 1.32.48 2.46 1.19 3.42 2.13.98.92 1.73 2.04 2.25 3.36.54 1.32.81 2.81.81 4.47Zm-15.15 1.92c0 1.28.25 2.21.75 2.79.52.58 1.21.87 2.07.87 1.12 0 1.92-.42 2.4-1.26.5-.84.79-1.93.87-3.27l.18-3.75c-.26-.08-.59-.15-.99-.21s-.81-.09-1.23-.09c-.98 0-1.77.24-2.37.72-.6.48-1.03 1.1-1.29 1.86-.26.74-.39 1.52-.39 2.34Z"/>
    <path fill="#000" d="M441.604 461.42c-.187.317-.392.737-.616 1.26l-.56 1.26a39.776 39.776 0 0 1-1.26 3.052 42.2 42.2 0 0 1-1.708 3.276 30.122 30.122 0 0 1-2.1 3.164 39.653 39.653 0 0 1-2.94 3.444 34.87 34.87 0 0 1-3.724 3.36c-1.4 1.101-3.005 2.156-4.816 3.164l-3.136-2.828c2.557-1.232 4.76-2.623 6.608-4.172a32.303 32.303 0 0 0 4.956-5.264c1.139-1.437 2.044-2.875 2.716-4.312a38.19 38.19 0 0 0 1.736-4.284c.149-.373.28-.803.392-1.288a13.8 13.8 0 0 0 .28-1.288l4.172 1.456Zm-15.4 2.716a44.82 44.82 0 0 1 2.24 1.456 91.67 91.67 0 0 1 2.408 1.624c.821.56 1.596 1.111 2.324 1.652.747.541 1.419 1.036 2.016 1.484a91.3 91.3 0 0 1 4.368 3.668 61.486 61.486 0 0 1 3.836 3.724l-2.884 3.192a54.056 54.056 0 0 0-3.752-3.92 82.442 82.442 0 0 0-4.116-3.668 47.026 47.026 0 0 0-1.736-1.4 105.169 105.169 0 0 0-2.128-1.596c-.747-.56-1.54-1.12-2.38-1.68a60.59 60.59 0 0 0-2.576-1.68l2.38-2.856Zm22.372 4.9c.336.019.765.047 1.288.084l1.624.056c.579.019 1.111.028 1.596.028h15.036c.653 0 1.269-.019 1.848-.056a32.526 32.526 0 0 1 1.428-.112v4.396l-1.428-.084a31.797 31.797 0 0 0-1.848-.056h-15.036c-.803 0-1.624.019-2.464.056a44.4 44.4 0 0 0-2.044.084v-4.396Zm39.508 12.348c.056-.28.103-.597.14-.952a7.54 7.54 0 0 0 .084-1.12v-16.324c0-.635-.037-1.185-.112-1.652-.056-.467-.093-.719-.112-.756h4.172c-.019.037-.056.299-.112.784a14.082 14.082 0 0 0-.084 1.652v14.644a13.785 13.785 0 0 0 2.38-1.372 19.783 19.783 0 0 0 2.408-2.016 16.895 16.895 0 0 0 2.128-2.52l2.156 3.08c-.765 1.008-1.699 1.997-2.8 2.968a34.49 34.49 0 0 1-3.36 2.66 28.705 28.705 0 0 1-3.332 2.016 8.873 8.873 0 0 0-.728.448c-.187.149-.345.28-.476.392l-2.352-1.932Zm-12.964-.42a11.142 11.142 0 0 0 3.024-3.108c.784-1.213 1.363-2.408 1.736-3.584.205-.616.355-1.372.448-2.268.112-.915.196-1.885.252-2.912.056-1.045.084-2.072.084-3.08.019-1.027.028-1.969.028-2.828 0-.56-.028-1.036-.084-1.428a9.815 9.815 0 0 0-.168-1.148h4.116c-.019.037-.047.196-.084.476-.019.261-.047.579-.084.952-.019.355-.028.728-.028 1.12 0 .821-.009 1.783-.028 2.884a105.549 105.549 0 0 1-.112 3.332 54.83 54.83 0 0 1-.252 3.248c-.112 1.008-.261 1.867-.448 2.576a16.15 16.15 0 0 1-1.932 4.424 16.58 16.58 0 0 1-3.052 3.612l-3.416-2.268Z"/>
    <path fill="#666" d="M364.557 518.448c0 .832-.208 1.528-.624 2.088-.416.56-1.008.984-1.776 1.272-.768.288-1.68.432-2.736.432-.896 0-1.672-.072-2.328-.216a7.106 7.106 0 0 1-1.704-.6v-1.92a12.41 12.41 0 0 0 1.848.72 8.17 8.17 0 0 0 2.232.312c1.072 0 1.848-.168 2.328-.504.48-.352.72-.816.72-1.392 0-.32-.088-.608-.264-.864-.176-.256-.496-.512-.96-.768-.448-.256-1.096-.544-1.944-.864-.832-.32-1.544-.64-2.136-.96-.592-.32-1.048-.704-1.368-1.152-.32-.448-.48-1.024-.48-1.728 0-1.088.44-1.928 1.32-2.52.896-.592 2.064-.888 3.504-.888.784 0 1.512.08 2.184.24a8.998 8.998 0 0 1 1.92.624l-.72 1.68a7.812 7.812 0 0 0-1.128-.408 7.42 7.42 0 0 0-1.176-.288c-.4-.08-.808-.12-1.224-.12-.864 0-1.528.144-1.992.432-.448.272-.672.648-.672 1.128 0 .352.104.656.312.912.208.24.552.48 1.032.72.496.224 1.152.496 1.968.816.816.304 1.512.616 2.088.936.576.32 1.016.712 1.32 1.176.304.448.456 1.016.456 1.704Zm13.86-9.312V522h-1.728l-.312-1.704h-.096a3.481 3.481 0 0 1-1.056 1.104 4.5 4.5 0 0 1-1.416.624 5.912 5.912 0 0 1-1.608.216c-1.024 0-1.888-.16-2.592-.48a3.375 3.375 0 0 1-1.56-1.536c-.352-.688-.528-1.576-.528-2.664v-8.424h2.136v8.28c0 1.024.232 1.792.696 2.304.464.512 1.184.768 2.16.768.96 0 1.712-.176 2.256-.528.56-.368.952-.896 1.176-1.584.24-.704.36-1.552.36-2.544v-6.696h2.112Zm10.204-.24c1.584 0 2.856.552 3.816 1.656.976 1.104 1.464 2.768 1.464 4.992 0 1.456-.224 2.688-.672 3.696-.432.992-1.048 1.744-1.848 2.256-.784.496-1.712.744-2.784.744-.656 0-1.24-.088-1.752-.264a4.866 4.866 0 0 1-1.32-.672 5.584 5.584 0 0 1-.912-.936h-.144c.032.272.064.616.096 1.032.032.416.048.776.048 1.08v5.28h-2.112v-18.624h1.728l.288 1.752h.096c.256-.368.56-.704.912-1.008a4.24 4.24 0 0 1 1.296-.72c.512-.176 1.112-.264 1.8-.264Zm-.384 1.776c-.864 0-1.56.168-2.088.504-.528.32-.912.808-1.152 1.464-.24.656-.368 1.488-.384 2.496v.408c0 1.056.112 1.952.336 2.688.224.736.6 1.296 1.128 1.68.544.384 1.28.576 2.208.576.784 0 1.424-.216 1.92-.648.512-.432.888-1.016 1.128-1.752.256-.752.384-1.608.384-2.568 0-1.472-.288-2.648-.864-3.528-.56-.88-1.432-1.32-2.616-1.32Zm15.15-1.776c1.584 0 2.856.552 3.816 1.656.976 1.104 1.464 2.768 1.464 4.992 0 1.456-.224 2.688-.672 3.696-.432.992-1.048 1.744-1.848 2.256-.784.496-1.712.744-2.784.744-.656 0-1.24-.088-1.752-.264a4.866 4.866 0 0 1-1.32-.672 5.584 5.584 0 0 1-.912-.936h-.144c.032.272.064.616.096 1.032.032.416.048.776.048 1.08v5.28h-2.112v-18.624h1.728l.288 1.752h.096c.256-.368.56-.704.912-1.008a4.24 4.24 0 0 1 1.296-.72c.512-.176 1.112-.264 1.8-.264Zm-.384 1.776c-.864 0-1.56.168-2.088.504-.528.32-.912.808-1.152 1.464-.24.656-.368 1.488-.384 2.496v.408c0 1.056.112 1.952.336 2.688.224.736.6 1.296 1.128 1.68.544.384 1.28.576 2.208.576.784 0 1.424-.216 1.92-.648.512-.432.888-1.016 1.128-1.752.256-.752.384-1.608.384-2.568 0-1.472-.288-2.648-.864-3.528-.56-.88-1.432-1.32-2.616-1.32Zm20.213 4.872c0 1.072-.144 2.024-.432 2.856-.272.816-.672 1.512-1.2 2.088a5.004 5.004 0 0 1-1.896 1.32c-.736.288-1.56.432-2.472.432a6.276 6.276 0 0 1-2.352-.432 5.315 5.315 0 0 1-1.872-1.32c-.528-.576-.944-1.272-1.248-2.088-.288-.832-.432-1.784-.432-2.856 0-1.424.24-2.624.72-3.6.48-.992 1.168-1.744 2.064-2.256.896-.528 1.96-.792 3.192-.792 1.168 0 2.192.264 3.072.792.896.512 1.592 1.264 2.088 2.256.512.976.768 2.176.768 3.6Zm-9.72 0c0 1.008.128 1.888.384 2.64.272.736.688 1.304 1.248 1.704.56.4 1.272.6 2.136.6.864 0 1.576-.2 2.136-.6.56-.4.968-.968 1.224-1.704.272-.752.408-1.632.408-2.64 0-1.024-.136-1.896-.408-2.616-.272-.72-.688-1.272-1.248-1.656-.544-.4-1.256-.6-2.136-.6-1.312 0-2.264.432-2.856 1.296-.592.864-.888 2.056-.888 3.576Zm19.067-6.648c.24 0 .496.016.768.048.288.016.536.048.744.096l-.264 1.944a6.94 6.94 0 0 0-.696-.12 5.267 5.267 0 0 0-.696-.048c-.496 0-.968.104-1.416.312a3.777 3.777 0 0 0-1.2.888 4.082 4.082 0 0 0-.84 1.344 5.17 5.17 0 0 0-.288 1.776V522h-2.112v-12.864h1.728l.24 2.352h.096c.272-.48.6-.912.984-1.296.384-.4.824-.712 1.32-.936.496-.24 1.04-.36 1.632-.36Zm8.21 11.616c.321 0 .649-.024.985-.072.336-.064.608-.128.816-.192v1.608c-.224.112-.544.2-.96.264-.416.08-.816.12-1.2.12a5.12 5.12 0 0 1-1.872-.336c-.56-.24-1.016-.648-1.368-1.224-.352-.576-.528-1.384-.528-2.424v-7.488h-1.824v-1.008l1.848-.84.84-2.736h1.248v2.952h3.72v1.632h-3.72v7.44c0 .784.184 1.368.552 1.752.384.368.872.552 1.463.552Zm22.52-7.08c0 .736-.088 1.456-.264 2.16a6.353 6.353 0 0 1-.768 1.92 4.614 4.614 0 0 1-1.296 1.368c-.512.336-1.12.504-1.824.504-.736 0-1.32-.208-1.752-.624-.416-.432-.672-.92-.768-1.464h-.12a3.915 3.915 0 0 1-1.272 1.488c-.56.4-1.264.6-2.112.6-1.216 0-2.16-.408-2.832-1.224-.656-.816-.984-1.896-.984-3.24 0-1.056.208-1.984.624-2.784a4.73 4.73 0 0 1 1.752-1.92c.768-.464 1.672-.696 2.712-.696.704 0 1.392.064 2.064.192.688.112 1.224.24 1.608.384l-.24 4.872c-.016.288-.024.496-.024.624v.24c0 .832.144 1.384.432 1.656.304.272.656.408 1.056.408.496 0 .912-.2 1.248-.6.352-.416.616-.96.792-1.632.192-.688.288-1.44.288-2.256 0-1.488-.304-2.744-.912-3.768a5.897 5.897 0 0 0-2.472-2.376c-1.04-.544-2.224-.816-3.552-.816-1.36 0-2.568.216-3.624.648-1.056.432-1.944 1.04-2.664 1.824-.704.784-1.24 1.712-1.608 2.784-.368 1.056-.552 2.224-.552 3.504 0 1.568.28 2.904.84 4.008a5.763 5.763 0 0 0 2.448 2.496c1.088.56 2.416.84 3.984.84.976 0 1.904-.112 2.784-.336.896-.208 1.688-.44 2.376-.696v1.632c-.688.288-1.464.52-2.328.696-.848.192-1.792.288-2.832.288-1.888 0-3.504-.352-4.848-1.056a7.331 7.331 0 0 1-3.096-3.024c-.704-1.328-1.056-2.92-1.056-4.776 0-1.488.232-2.864.696-4.128.464-1.28 1.136-2.384 2.016-3.312a8.94 8.94 0 0 1 3.192-2.184c1.264-.528 2.688-.792 4.272-.792 1.248 0 2.392.2 3.432.6a7.54 7.54 0 0 1 2.736 1.704 7.3 7.3 0 0 1 1.8 2.688c.432 1.056.648 2.248.648 3.576Zm-12.12 1.536c0 1.024.2 1.768.6 2.232.416.464.968.696 1.656.696.896 0 1.536-.336 1.92-1.008.4-.672.632-1.544.696-2.616l.144-3a6.625 6.625 0 0 0-1.776-.24c-.784 0-1.416.192-1.896.576-.48.384-.824.88-1.032 1.488a5.606 5.606 0 0 0-.312 1.872Zm19.858 5.544c.32 0 .648-.024.984-.072.336-.064.608-.128.816-.192v1.608c-.224.112-.544.2-.96.264-.416.08-.816.12-1.2.12a5.12 5.12 0 0 1-1.872-.336c-.56-.24-1.016-.648-1.368-1.224-.352-.576-.528-1.384-.528-2.424v-7.488h-1.824v-1.008l1.848-.84.84-2.736h1.248v2.952h3.72v1.632h-3.72v7.44c0 .784.184 1.368.552 1.752.384.368.872.552 1.464.552Zm9.248-11.592c1.568 0 2.728.344 3.48 1.032.752.688 1.128 1.784 1.128 3.288V522h-1.536l-.408-1.824h-.096a7.32 7.32 0 0 1-1.152 1.176 3.792 3.792 0 0 1-1.344.672c-.496.144-1.104.216-1.824.216-.768 0-1.464-.136-2.088-.408a3.214 3.214 0 0 1-1.44-1.248c-.352-.576-.528-1.296-.528-2.16 0-1.28.504-2.264 1.512-2.952 1.008-.704 2.56-1.088 4.656-1.152l2.184-.072v-.768c0-1.072-.232-1.816-.696-2.232-.464-.416-1.12-.624-1.968-.624a5.89 5.89 0 0 0-1.92.312c-.608.192-1.176.416-1.704.672l-.648-1.584c.56-.304 1.224-.56 1.992-.768a8.528 8.528 0 0 1 2.4-.336Zm.624 6.864c-1.6.064-2.712.32-3.336.768-.608.448-.912 1.08-.912 1.896 0 .72.216 1.248.648 1.584.448.336 1.016.504 1.704.504 1.088 0 1.992-.296 2.712-.888.72-.608 1.08-1.536 1.08-2.784v-1.152l-1.896.072Zm14.149-6.888c1.536 0 2.696.376 3.48 1.128.784.736 1.176 1.936 1.176 3.6V522h-2.088v-8.232c0-1.04-.232-1.816-.696-2.328-.464-.512-1.192-.768-2.184-.768-1.424 0-2.408.4-2.952 1.2-.544.8-.816 1.952-.816 3.456V522h-2.112v-12.864h1.704l.312 1.752h.12c.288-.448.64-.816 1.056-1.104a4.612 4.612 0 0 1 1.416-.672 5.823 5.823 0 0 1 1.584-.216Zm14.644 0c.24 0 .496.016.768.048.288.016.536.048.744.096l-.264 1.944a6.94 6.94 0 0 0-.696-.12 5.267 5.267 0 0 0-.696-.048c-.496 0-.968.104-1.416.312a3.777 3.777 0 0 0-1.2.888 4.082 4.082 0 0 0-.84 1.344 5.17 5.17 0 0 0-.288 1.776V522h-2.112v-12.864h1.728l.24 2.352h.096c.272-.48.6-.912.984-1.296.384-.4.824-.712 1.32-.936.496-.24 1.04-.36 1.632-.36Zm8.414 0c1.104 0 2.048.24 2.832.72.8.48 1.408 1.16 1.824 2.04.432.864.648 1.88.648 3.048v1.272h-8.808c.032 1.456.4 2.568 1.104 3.336.72.752 1.72 1.128 3 1.128.816 0 1.536-.072 2.16-.216.64-.16 1.296-.384 1.968-.672v1.848a9.446 9.446 0 0 1-1.944.624c-.64.144-1.4.216-2.28.216-1.216 0-2.296-.248-3.24-.744-.928-.496-1.656-1.232-2.184-2.208-.512-.992-.768-2.2-.768-3.624 0-1.408.232-2.616.696-3.624.48-1.008 1.144-1.784 1.992-2.328.864-.544 1.864-.816 3-.816Zm-.024 1.728c-1.008 0-1.808.328-2.4.984-.576.64-.92 1.536-1.032 2.688h6.552c0-.736-.112-1.376-.336-1.92a2.712 2.712 0 0 0-1.032-1.272c-.448-.32-1.032-.48-1.752-.48Zm14.794-1.728c1.536 0 2.696.376 3.48 1.128.784.736 1.176 1.936 1.176 3.6V522h-2.088v-8.232c0-1.04-.232-1.816-.696-2.328-.464-.512-1.192-.768-2.184-.768-1.424 0-2.408.4-2.952 1.2-.544.8-.816 1.952-.816 3.456V522h-2.112v-12.864h1.704l.312 1.752h.12c.288-.448.64-.816 1.056-1.104a4.612 4.612 0 0 1 1.416-.672 5.823 5.823 0 0 1 1.584-.216Zm8.332 11.808c0-.592.144-1.008.432-1.248a1.56 1.56 0 0 1 1.032-.36c.416 0 .768.12 1.056.36.304.24.456.656.456 1.248 0 .576-.152.992-.456 1.248-.288.256-.64.384-1.056.384a1.5 1.5 0 0 1-1.032-.384c-.288-.256-.432-.672-.432-1.248Zm5.222 7.056c-.4 0-.752-.032-1.056-.096a4.423 4.423 0 0 1-.792-.192v-1.704c.24.064.488.12.744.168.256.048.536.072.84.072.512 0 .936-.144 1.272-.432.336-.272.504-.8.504-1.584v-14.856h2.112v14.784c0 .8-.128 1.488-.384 2.064a2.785 2.785 0 0 1-1.176 1.32c-.528.304-1.216.456-2.064.456Zm1.344-22.104c0-.464.12-.8.36-1.008.24-.224.536-.336.888-.336.32 0 .6.112.84.336.256.208.384.544.384 1.008 0 .448-.128.784-.384 1.008-.24.224-.52.336-.84.336-.352 0-.648-.112-.888-.336-.24-.224-.36-.56-.36-1.008Zm12.476 3.24c1.584 0 2.856.552 3.816 1.656.976 1.104 1.464 2.768 1.464 4.992 0 1.456-.224 2.688-.672 3.696-.432.992-1.048 1.744-1.848 2.256-.784.496-1.712.744-2.784.744-.656 0-1.24-.088-1.752-.264a4.866 4.866 0 0 1-1.32-.672 5.584 5.584 0 0 1-.912-.936h-.144c.032.272.064.616.096 1.032.032.416.048.776.048 1.08v5.28h-2.112v-18.624h1.728l.288 1.752h.096c.256-.368.56-.704.912-1.008a4.24 4.24 0 0 1 1.296-.72c.512-.176 1.112-.264 1.8-.264Zm-.384 1.776c-.864 0-1.56.168-2.088.504-.528.32-.912.808-1.152 1.464-.24.656-.368 1.488-.384 2.496v.408c0 1.056.112 1.952.336 2.688.224.736.6 1.296 1.128 1.68.544.384 1.28.576 2.208.576.784 0 1.424-.216 1.92-.648.512-.432.888-1.016 1.128-1.752.256-.752.384-1.608.384-2.568 0-1.472-.288-2.648-.864-3.528-.56-.88-1.432-1.32-2.616-1.32Z"/>
    <path fill="#F3F4F6" stroke="#D1D5DB" stroke-width="2" d="M1145 350H775c-8.284 0-15 6.716-15 15v170c0 8.284 6.716 15 15 15h370c8.28 0 15-6.716 15-15V365c0-8.284-6.72-15-15-15Z"/>
    <path fill="#10B981" d="M960 450c22.091 0 40-17.909 40-40s-17.909-40-40-40-40 17.909-40 40 17.909 40 40 40Z"/>
    <path fill="#fff" d="M940 424.8h40v-40h-40v40Z"/>
    <path fill="#000" d="M937.908 475.084h15.876v2.016h-15.876v-2.016Zm0-3.5h17.836v8.988h-17.836v-2.24h14.504v-4.48h-14.504v-2.268Zm6.188 1.26h3.22v7.812c0 .523.121.859.364 1.008.261.131.812.196 1.652.196h5.348c.467 0 .821-.065 1.064-.196.243-.131.42-.401.532-.812.112-.411.196-1.008.252-1.792.336.224.775.439 1.316.644a8.83 8.83 0 0 0 1.484.42c-.131 1.12-.345 1.988-.644 2.604-.299.635-.747 1.073-1.344 1.316-.579.261-1.381.392-2.408.392h-5.908c-1.269 0-2.268-.112-2.996-.336-.709-.224-1.213-.607-1.512-1.148-.28-.541-.42-1.297-.42-2.268v-7.84Zm-7.868-1.26h3.22v10.248h-3.22v-10.248Zm-.644-12.376h20.776v2.492h-20.776v-2.492Zm2.156 6.72h5.544v1.82h-5.544v-1.82Zm-.532 2.772h6.076v1.848h-6.076V468.7Zm11.396 0h6.16v1.848h-6.16V468.7Zm0-2.772h5.488v1.82h-5.488v-1.82Zm-4.34-5.712h3.304v10.612h-3.304v-10.612Zm-10.612 2.52h24.724v5.74h-3.108v-3.5h-18.62v3.5h-2.996v-5.74Zm39.564 10.472h12.908v11.2h-3.332v-8.204h-6.384v8.316h-3.192v-11.312Zm10.948-14.7 2.352 2.772c-1.269.373-2.66.7-4.172.98-1.512.28-3.061.513-4.648.7a148.19 148.19 0 0 1-4.564.42 7.602 7.602 0 0 0-.364-1.428 10.844 10.844 0 0 0-.56-1.4 97.533 97.533 0 0 0 3.22-.336 79.41 79.41 0 0 0 3.22-.448 72.383 72.383 0 0 0 2.996-.588 47.192 47.192 0 0 0 2.52-.672Zm-6.384 2.632h3.472v13.58h-3.472v-13.58Zm-6.02 5.18h15.54v3.192h-15.54v-3.192Zm3.612 13.832h9.016v2.996h-9.016v-2.996Zm-13.188-13.16h8.456v2.548h-8.456v-2.548Zm.168-7.896h8.288v2.52h-8.288v-2.52Zm-.168 11.816h8.456v2.548h-8.456v-2.548Zm-1.344-7.952h10.696v2.66H960.84v-2.66Zm3.024 11.928h6.916v8.512h-6.916v-2.66h4.032v-3.192h-4.032v-2.66Zm-1.764 0h2.828v9.604H962.1v-9.604Z"/>
    <path fill="#666" d="M889.779 513.408c0 1.392-.104 2.632-.312 3.72-.208 1.088-.544 2.016-1.008 2.784a4.601 4.601 0 0 1-1.776 1.728c-.72.4-1.592.6-2.616.6-1.28 0-2.344-.352-3.192-1.056-.832-.704-1.456-1.712-1.872-3.024-.4-1.328-.6-2.912-.6-4.752 0-1.856.184-3.44.552-4.752.384-1.312.992-2.312 1.824-3 .832-.704 1.928-1.056 3.288-1.056 1.28 0 2.344.352 3.192 1.056.848.688 1.48 1.688 1.896 3 .416 1.312.624 2.896.624 4.752Zm-9.264 0c0 1.568.112 2.872.336 3.912.24 1.04.616 1.824 1.128 2.352.528.512 1.224.768 2.088.768.864 0 1.552-.256 2.064-.768.528-.512.912-1.288 1.152-2.328.24-1.056.36-2.368.36-3.936s-.12-2.864-.36-3.888c-.24-1.04-.624-1.816-1.152-2.328-.512-.528-1.2-.792-2.064-.792-.864 0-1.56.264-2.088.792-.512.512-.888 1.288-1.128 2.328-.224 1.024-.336 2.32-.336 3.888Zm17.046-1.92c1.168 0 2.184.2 3.048.6.864.4 1.528.976 1.992 1.728.48.736.72 1.64.72 2.712 0 1.184-.256 2.208-.768 3.072-.512.848-1.248 1.504-2.208 1.968-.944.448-2.088.672-3.432.672-.88 0-1.712-.08-2.496-.24-.768-.16-1.416-.392-1.944-.696v-1.992c.576.352 1.272.632 2.088.84.832.192 1.624.288 2.376.288.848 0 1.584-.128 2.208-.384.64-.272 1.136-.68 1.488-1.224.352-.56.528-1.256.528-2.088 0-1.12-.344-1.976-1.032-2.568-.688-.608-1.776-.912-3.264-.912-.448 0-.96.04-1.536.12-.576.08-1.04.16-1.392.24l-1.056-.672.648-8.088h8.592v1.92h-6.792l-.408 4.968c.272-.048.64-.104 1.104-.168.464-.064.976-.096 1.536-.096Zm19.686 1.92c0 1.392-.104 2.632-.312 3.72-.208 1.088-.544 2.016-1.008 2.784a4.601 4.601 0 0 1-1.776 1.728c-.72.4-1.592.6-2.616.6-1.28 0-2.344-.352-3.192-1.056-.832-.704-1.456-1.712-1.872-3.024-.4-1.328-.6-2.912-.6-4.752 0-1.856.184-3.44.552-4.752.384-1.312.992-2.312 1.824-3 .832-.704 1.928-1.056 3.288-1.056 1.28 0 2.344.352 3.192 1.056.848.688 1.48 1.688 1.896 3 .416 1.312.624 2.896.624 4.752Zm-9.264 0c0 1.568.112 2.872.336 3.912.24 1.04.616 1.824 1.128 2.352.528.512 1.224.768 2.088.768.864 0 1.552-.256 2.064-.768.528-.512.912-1.288 1.152-2.328.24-1.056.36-2.368.36-3.936s-.12-2.864-.36-3.888c-.24-1.04-.624-1.816-1.152-2.328-.512-.528-1.2-.792-2.064-.792-.864 0-1.56.264-2.088.792-.512.512-.888 1.288-1.128 2.328-.224 1.024-.336 2.32-.336 3.888Zm11.407 3.096v-1.872h5.808v1.872h-5.808Zm18.606-7.632c0 .768-.144 1.432-.432 1.992a3.532 3.532 0 0 1-1.248 1.368c-.528.352-1.152.6-1.872.744v.096c1.376.16 2.4.592 3.072 1.296.672.704 1.008 1.624 1.008 2.76 0 .992-.232 1.88-.696 2.664-.464.768-1.184 1.368-2.16 1.8-.96.432-2.2.648-3.72.648-.896 0-1.728-.072-2.496-.216a7.766 7.766 0 0 1-2.208-.72v-1.968a11.8 11.8 0 0 0 2.328.84 10.67 10.67 0 0 0 2.4.288c1.536 0 2.64-.296 3.312-.888.688-.608 1.032-1.44 1.032-2.496 0-.72-.192-1.296-.576-1.728-.368-.448-.912-.776-1.632-.984-.72-.208-1.584-.312-2.592-.312h-1.656v-1.8h1.68c.944 0 1.728-.136 2.352-.408.64-.272 1.12-.648 1.44-1.128a2.966 2.966 0 0 0 .504-1.704c0-.832-.28-1.472-.84-1.92-.56-.464-1.32-.696-2.28-.696-.608 0-1.16.064-1.656.192-.496.112-.96.28-1.392.504-.416.208-.84.456-1.272.744l-1.056-1.44c.416-.32.888-.616 1.416-.888a8.533 8.533 0 0 1 1.8-.648 9.002 9.002 0 0 1 2.136-.24c1.792 0 3.12.4 3.984 1.2.88.8 1.32 1.816 1.32 3.048ZM948.418 522h-2.064v-13.152c.016-.32.032-.616.048-.888l.048-.888a11.61 11.61 0 0 1-.696.648l-.792.672-1.824 1.488-1.104-1.416 4.632-3.6h1.752V522Zm12.055-17.376c1.008 0 1.896.16 2.664.48.768.304 1.368.76 1.8 1.368.448.608.672 1.36.672 2.256 0 .688-.152 1.288-.456 1.8-.288.512-.68.968-1.176 1.368a10.47 10.47 0 0 1-1.632 1.032c.704.336 1.344.72 1.92 1.152a4.939 4.939 0 0 1 1.368 1.464c.352.56.528 1.232.528 2.016 0 .96-.232 1.792-.696 2.496-.464.688-1.12 1.224-1.968 1.608-.832.384-1.816.576-2.952.576-1.232 0-2.28-.184-3.144-.552-.848-.368-1.496-.888-1.944-1.56-.432-.688-.648-1.52-.648-2.496 0-.784.16-1.464.48-2.04a5.087 5.087 0 0 1 1.32-1.488 9.27 9.27 0 0 1 1.752-1.056 9.761 9.761 0 0 1-1.536-1.08 5.124 5.124 0 0 1-1.08-1.416c-.256-.528-.384-1.144-.384-1.848 0-.88.224-1.616.672-2.208.448-.608 1.056-1.072 1.824-1.392.768-.32 1.64-.48 2.616-.48Zm-3.6 13.032c0 .832.296 1.528.888 2.088.592.544 1.504.816 2.736.816.784 0 1.44-.128 1.968-.384s.928-.608 1.2-1.056c.288-.448.432-.96.432-1.536 0-.56-.152-1.048-.456-1.464-.288-.432-.704-.816-1.248-1.152a9.976 9.976 0 0 0-1.896-.912l-.384-.144c-.704.304-1.296.632-1.776.984s-.848.752-1.104 1.2c-.24.448-.36.968-.36 1.56Zm3.576-11.328c-.88 0-1.608.216-2.184.648-.56.416-.84 1.024-.84 1.824 0 .592.136 1.088.408 1.488.288.4.672.744 1.152 1.032.48.272 1.008.536 1.584.792a9.244 9.244 0 0 0 1.488-.792c.448-.288.8-.632 1.056-1.032.272-.416.408-.912.408-1.488 0-.8-.28-1.408-.84-1.824-.56-.432-1.304-.648-2.232-.648ZM970.631 522l7.032-15.216h-9.24v-1.92h11.496v1.632L972.959 522h-2.328Zm11.431-5.496v-1.872h5.808v1.872h-5.808ZM992.1 522l7.032-15.216h-9.24v-1.92h11.498v1.632L994.428 522H992.1Zm18.99 0h-2.06v-13.152c.01-.32.03-.616.04-.888.02-.288.04-.584.05-.888-.25.256-.49.472-.69.648-.21.176-.48.4-.8.672l-1.82 1.488-1.1-1.416 4.63-3.6h1.75V522Zm8.48 0 7.03-15.216h-9.24v-1.92h11.5v1.632L1021.9 522h-2.33Zm18.99 0h-2.06v-13.152c.01-.32.03-.616.04-.888.02-.288.04-.584.05-.888-.25.256-.49.472-.69.648-.21.176-.48.4-.8.672l-1.82 1.488-1.1-1.416 4.63-3.6h1.75V522Z"/>
    <path fill="#F3F4F6" stroke="#D1D5DB" stroke-width="2" d="M1645 350h-370c-8.28 0-15 6.716-15 15v170c0 8.284 6.72 15 15 15h370c8.28 0 15-6.716 15-15V365c0-8.284-6.72-15-15-15Z"/>
    <path fill="#F59E0B" d="M1460 450c22.09 0 40-17.909 40-40s-17.91-40-40-40-40 17.909-40 40 17.91 40 40 40Z"/>
    <path fill="#fff" d="m1454.4 399.28 2.76.08c-.19 4.107-.51 7.893-.96 11.36-.45 3.44-1.16 6.56-2.12 9.36-.93 2.773-2.24 5.227-3.92 7.36-.13-.16-.35-.36-.64-.6-.29-.24-.6-.467-.92-.68a13.45 13.45 0 0 0-.76-.52c1.65-1.893 2.92-4.16 3.8-6.8.91-2.64 1.56-5.613 1.96-8.92.43-3.307.69-6.853.8-10.64Zm10.64 0 2.76.08c-.16 4.16-.45 7.987-.88 11.48-.43 3.467-1.12 6.6-2.08 9.4-.96 2.773-2.31 5.2-4.04 7.28-.13-.16-.35-.347-.64-.56-.29-.24-.6-.467-.92-.68-.29-.24-.56-.427-.8-.56 1.73-1.893 3.05-4.147 3.96-6.76.91-2.64 1.55-5.613 1.92-8.92.37-3.307.61-6.893.72-10.76Zm-17.08 8.28 1.64-1.8a73.338 73.338 0 0 1 4.08 4.08 68.32 68.32 0 0 1 3.8 4.36c1.15 1.413 2.07 2.693 2.76 3.84l-1.8 2.12c-.69-1.173-1.61-2.493-2.76-3.96a70.897 70.897 0 0 0-3.76-4.48 64.816 64.816 0 0 0-3.96-4.16Zm10.92-.44 1.68-1.8c1.07.987 2.15 2.053 3.24 3.2a76.762 76.762 0 0 1 3.16 3.44 60.105 60.105 0 0 1 2.76 3.36c.83 1.067 1.52 2.04 2.08 2.92l-1.84 2.16c-.56-.907-1.25-1.92-2.08-3.04-.83-1.12-1.75-2.28-2.76-3.48-.99-1.2-2.01-2.373-3.08-3.52a62.971 62.971 0 0 0-3.16-3.24Zm-15.36-10.32h31.84v2.88h-28.92v31.44h-2.92V396.8Zm30.24 0h2.92v30.52c0 .907-.13 1.6-.4 2.08-.24.507-.65.893-1.24 1.16-.61.24-1.44.387-2.48.44-1.04.08-2.41.107-4.12.08-.05-.24-.15-.547-.28-.92-.11-.347-.23-.693-.36-1.04-.13-.347-.27-.653-.4-.92 1.23.027 2.35.04 3.36.04h2.04c.35-.027.59-.107.72-.24.16-.107.24-.333.24-.68V396.8Z"/>
    <path fill="#000" d="M1457.41 462.008 1452.68 482h-5.27l-2.21-10.5c-.04-.205-.09-.513-.17-.924-.07-.411-.16-.859-.25-1.344-.07-.485-.15-.943-.22-1.372-.06-.448-.11-.793-.14-1.036-.02.243-.07.588-.14 1.036-.08.429-.16.887-.25 1.372-.08.467-.15.915-.23 1.344-.07.411-.14.728-.19.952L1441.39 482h-5.26l-4.73-19.992h4.42l2.21 10.92c.06.317.13.709.23 1.176.09.448.18.924.28 1.428.09.485.17.961.25 1.428.07.467.13.868.17 1.204.05-.355.12-.756.19-1.204.1-.467.18-.943.26-1.428.09-.485.17-.933.25-1.344.09-.429.17-.775.22-1.036l2.44-11.144h4.2l2.38 11.2c.05.243.12.579.19 1.008.1.411.19.859.28 1.344.1.485.18.961.26 1.428.07.448.14.84.19 1.176.06-.467.14-1.017.25-1.652.12-.653.24-1.307.37-1.96s.24-1.195.33-1.624l2.22-10.92h4.42Zm7.83 4.424c1.37 0 2.54.271 3.53.812a5.577 5.577 0 0 1 2.3 2.352c.54 1.027.81 2.287.81 3.78v2.016h-9.1c.04 1.176.34 2.1.9 2.772.57.672 1.4 1.008 2.46 1.008.93 0 1.77-.093 2.52-.28.77-.205 1.55-.513 2.35-.924v3.22c-.69.373-1.44.644-2.27.812-.8.187-1.8.28-2.99.28-1.46 0-2.76-.28-3.89-.84-1.12-.579-2.01-1.447-2.66-2.604-.64-1.157-.96-2.613-.96-4.368 0-1.792.29-3.276.87-4.452.6-1.195 1.42-2.091 2.47-2.688 1.06-.597 2.28-.896 3.66-.896Zm.09 2.968c-.67 0-1.23.261-1.68.784-.45.523-.71 1.335-.79 2.436h4.9c0-.616-.09-1.167-.28-1.652-.18-.485-.45-.868-.81-1.148-.35-.28-.8-.42-1.34-.42Zm14.06-3.724c0 .579-.01 1.148-.05 1.708s-.08.999-.11 1.316h.16c.38-.635.87-1.167 1.49-1.596.63-.448 1.46-.672 2.49-.672 1.55 0 2.82.672 3.81 2.016.99 1.325 1.48 3.285 1.48 5.88 0 1.736-.23 3.201-.7 4.396-.45 1.176-1.08 2.063-1.9 2.66-.8.597-1.75.896-2.83.896-1.03 0-1.83-.196-2.41-.588a6.4 6.4 0 0 1-1.43-1.372h-.3l-.7 1.68h-3.48v-21.28h4.48v4.956Zm2.41 4.088c-.56 0-1.02.149-1.37.448-.35.299-.62.756-.78 1.372-.17.597-.26 1.353-.26 2.268v.448c0 1.475.18 2.613.54 3.416.35.784.99 1.176 1.93 1.176.71 0 1.26-.392 1.65-1.176.39-.803.59-1.951.59-3.444 0-1.493-.2-2.613-.59-3.36-.39-.765-.96-1.148-1.71-1.148Z"/>
    <path fill="#666" d="M1372.21 509.112c0 .304-.01.616-.04.936-.02.32-.04.608-.08.864h.15c.27-.448.61-.816 1.03-1.104.42-.288.88-.504 1.39-.648a5.28 5.28 0 0 1 1.59-.24c1.04 0 1.9.168 2.59.504.7.32 1.23.824 1.58 1.512.35.688.53 1.584.53 2.688V522h-2.09v-8.232c0-1.04-.23-1.816-.69-2.328-.47-.512-1.2-.768-2.19-.768-.96 0-1.71.184-2.25.552-.55.352-.94.88-1.18 1.584-.22.688-.34 1.536-.34 2.544V522h-2.11v-18.24h2.11v5.352Zm17.02 11.4c.32 0 .65-.024.99-.072.33-.064.61-.128.81-.192v1.608c-.22.112-.54.2-.96.264-.41.08-.81.12-1.2.12-.67 0-1.29-.112-1.87-.336-.56-.24-1.01-.648-1.37-1.224-.35-.576-.52-1.384-.52-2.424v-7.488h-1.83v-1.008l1.85-.84.84-2.736h1.25v2.952h3.72v1.632h-3.72v7.44c0 .784.18 1.368.55 1.752.38.368.87.552 1.46.552Zm8.68 0c.32 0 .64-.024.98-.072.34-.064.61-.128.82-.192v1.608c-.23.112-.55.2-.96.264-.42.08-.82.12-1.2.12-.68 0-1.3-.112-1.88-.336-.56-.24-1.01-.648-1.36-1.224-.36-.576-.53-1.384-.53-2.424v-7.488h-1.83v-1.008l1.85-.84.84-2.736h1.25v2.952h3.72v1.632h-3.72v7.44c0 .784.18 1.368.55 1.752.39.368.87.552 1.47.552Zm10.49-11.616c1.59 0 2.86.552 3.82 1.656.97 1.104 1.46 2.768 1.46 4.992 0 1.456-.22 2.688-.67 3.696-.43.992-1.05 1.744-1.85 2.256-.78.496-1.71.744-2.78.744-.66 0-1.24-.088-1.75-.264-.52-.176-.96-.4-1.32-.672-.36-.288-.66-.6-.92-.936h-.14c.03.272.06.616.1 1.032.03.416.04.776.04 1.08v5.28h-2.11v-18.624h1.73l.29 1.752h.09c.26-.368.56-.704.92-1.008.36-.304.8-.544 1.29-.72.51-.176 1.11-.264 1.8-.264Zm-.38 1.776c-.87 0-1.56.168-2.09.504-.53.32-.91.808-1.15 1.464-.24.656-.37 1.488-.39 2.496v.408c0 1.056.12 1.952.34 2.688.22.736.6 1.296 1.13 1.68.54.384 1.28.576 2.21.576.78 0 1.42-.216 1.92-.648.51-.432.88-1.016 1.12-1.752.26-.752.39-1.608.39-2.568 0-1.472-.29-2.648-.87-3.528-.56-.88-1.43-1.32-2.61-1.32Zm17.4 7.776c0 .832-.2 1.528-.62 2.088s-1.01.984-1.78 1.272c-.76.288-1.68.432-2.73.432-.9 0-1.67-.072-2.33-.216a6.981 6.981 0 0 1-1.7-.6v-1.92a12.2 12.2 0 0 0 1.84.72c.74.208 1.48.312 2.24.312 1.07 0 1.84-.168 2.32-.504.48-.352.72-.816.72-1.392 0-.32-.08-.608-.26-.864s-.5-.512-.96-.768c-.45-.256-1.1-.544-1.94-.864-.84-.32-1.55-.64-2.14-.96-.59-.32-1.05-.704-1.37-1.152-.32-.448-.48-1.024-.48-1.728 0-1.088.44-1.928 1.32-2.52.9-.592 2.07-.888 3.51-.888.78 0 1.51.08 2.18.24.69.144 1.33.352 1.92.624l-.72 1.68c-.35-.16-.73-.296-1.13-.408a7.244 7.244 0 0 0-1.17-.288c-.4-.08-.81-.12-1.23-.12-.86 0-1.53.144-1.99.432-.45.272-.67.648-.67 1.128 0 .352.1.656.31.912.21.24.55.48 1.03.72.5.224 1.15.496 1.97.816.82.304 1.51.616 2.09.936.57.32 1.01.712 1.32 1.176.3.448.45 1.016.45 1.704Zm2.8 2.256c0-.592.14-1.008.43-1.248s.63-.36 1.03-.36c.42 0 .77.12 1.06.36.3.24.46.656.46 1.248 0 .576-.16.992-.46 1.248a1.54 1.54 0 0 1-1.06.384 1.5 1.5 0 0 1-1.03-.384c-.29-.256-.43-.672-.43-1.248Zm0-10.272c0-.608.14-1.032.43-1.272s.63-.36 1.03-.36c.42 0 .77.12 1.06.36.3.24.46.664.46 1.272 0 .576-.16.992-.46 1.248a1.54 1.54 0 0 1-1.06.384 1.5 1.5 0 0 1-1.03-.384c-.29-.256-.43-.672-.43-1.248Zm13.38-5.568L1435.22 522h-2.07l6.39-17.136h2.06Zm8.93 0L1444.15 522h-2.07l6.39-17.136h2.06Zm6.58 15.648c.32 0 .65-.024.98-.072.34-.064.61-.128.82-.192v1.608c-.22.112-.54.2-.96.264-.42.08-.82.12-1.2.12-.67 0-1.3-.112-1.87-.336-.56-.24-1.02-.648-1.37-1.224-.35-.576-.53-1.384-.53-2.424v-7.488h-1.82v-1.008l1.85-.84.84-2.736h1.24v2.952h3.72v1.632h-3.72v7.44c0 .784.19 1.368.56 1.752.38.368.87.552 1.46.552Zm9.25-11.592c1.57 0 2.73.344 3.48 1.032.75.688 1.13 1.784 1.13 3.288V522h-1.54l-.41-1.824h-.09c-.37.464-.76.856-1.16 1.176-.38.304-.83.528-1.34.672-.5.144-1.1.216-1.82.216-.77 0-1.47-.136-2.09-.408a3.193 3.193 0 0 1-1.44-1.248c-.35-.576-.53-1.296-.53-2.16 0-1.28.5-2.264 1.51-2.952 1.01-.704 2.56-1.088 4.66-1.152l2.18-.072v-.768c0-1.072-.23-1.816-.69-2.232-.47-.416-1.12-.624-1.97-.624-.67 0-1.31.104-1.92.312-.61.192-1.18.416-1.71.672l-.64-1.584c.56-.304 1.22-.56 1.99-.768a8.548 8.548 0 0 1 2.4-.336Zm.62 6.864c-1.6.064-2.71.32-3.33.768-.61.448-.92 1.08-.92 1.896 0 .72.22 1.248.65 1.584.45.336 1.02.504 1.71.504 1.08 0 1.99-.296 2.71-.888.72-.608 1.08-1.536 1.08-2.784v-1.152l-1.9.072Zm14.15-6.888c1.54 0 2.7.376 3.48 1.128.78.736 1.18 1.936 1.18 3.6V522h-2.09v-8.232c0-1.04-.23-1.816-.7-2.328-.46-.512-1.19-.768-2.18-.768-1.43 0-2.41.4-2.95 1.2-.55.8-.82 1.952-.82 3.456V522h-2.11v-12.864h1.7l.31 1.752h.12c.29-.448.64-.816 1.06-1.104.43-.304.9-.528 1.42-.672a5.804 5.804 0 0 1 1.58-.216Zm14.64 0c.24 0 .5.016.77.048.29.016.54.048.75.096l-.27 1.944a7.222 7.222 0 0 0-.69-.12 5.373 5.373 0 0 0-.7-.048c-.5 0-.97.104-1.42.312-.44.208-.84.504-1.2.888-.35.368-.63.816-.84 1.344-.19.528-.28 1.12-.28 1.776V522h-2.12v-12.864h1.73l.24 2.352h.1c.27-.48.6-.912.98-1.296.39-.4.83-.712 1.32-.936.5-.24 1.04-.36 1.63-.36Zm8.42 0c1.1 0 2.05.24 2.83.72.8.48 1.41 1.16 1.82 2.04.44.864.65 1.88.65 3.048v1.272h-8.81c.04 1.456.4 2.568 1.11 3.336.72.752 1.72 1.128 3 1.128.81 0 1.53-.072 2.16-.216.64-.16 1.29-.384 1.97-.672v1.848c-.66.288-1.31.496-1.95.624-.64.144-1.4.216-2.28.216-1.21 0-2.29-.248-3.24-.744-.93-.496-1.65-1.232-2.18-2.208-.51-.992-.77-2.2-.77-3.624 0-1.408.23-2.616.7-3.624.48-1.008 1.14-1.784 1.99-2.328.86-.544 1.86-.816 3-.816Zm-.03 1.728c-1 0-1.8.328-2.4.984-.57.64-.92 1.536-1.03 2.688h6.55c0-.736-.11-1.376-.33-1.92-.23-.544-.57-.968-1.03-1.272-.45-.32-1.04-.48-1.76-.48Zm14.8-1.728c1.53 0 2.69.376 3.48 1.128.78.736 1.17 1.936 1.17 3.6V522h-2.08v-8.232c0-1.04-.24-1.816-.7-2.328-.46-.512-1.19-.768-2.18-.768-1.43 0-2.41.4-2.96 1.2-.54.8-.81 1.952-.81 3.456V522h-2.11v-12.864h1.7l.31 1.752h.12c.29-.448.64-.816 1.06-1.104.43-.304.9-.528 1.41-.672a5.877 5.877 0 0 1 1.59-.216Zm8.33 11.808c0-.592.14-1.008.43-1.248s.63-.36 1.03-.36c.42 0 .77.12 1.06.36.3.24.46.656.46 1.248 0 .576-.16.992-.46 1.248a1.54 1.54 0 0 1-1.06.384 1.5 1.5 0 0 1-1.03-.384c-.29-.256-.43-.672-.43-1.248Zm5.22 7.056c-.4 0-.75-.032-1.05-.096a4.523 4.523 0 0 1-.8-.192v-1.704c.24.064.49.12.75.168.25.048.53.072.84.072.51 0 .93-.144 1.27-.432.34-.272.5-.8.5-1.584v-14.856h2.12v14.784c0 .8-.13 1.488-.39 2.064a2.783 2.783 0 0 1-1.17 1.32c-.53.304-1.22.456-2.07.456Zm1.35-22.104c0-.464.12-.8.36-1.008.24-.224.53-.336.88-.336.32 0 .6.112.84.336.26.208.39.544.39 1.008 0 .448-.13.784-.39 1.008-.24.224-.52.336-.84.336-.35 0-.64-.112-.88-.336-.24-.224-.36-.56-.36-1.008Zm12.47 3.24c1.59 0 2.86.552 3.82 1.656.97 1.104 1.46 2.768 1.46 4.992 0 1.456-.22 2.688-.67 3.696-.43.992-1.05 1.744-1.85 2.256-.78.496-1.71.744-2.78.744-.66 0-1.24-.088-1.75-.264-.52-.176-.96-.4-1.32-.672-.36-.288-.66-.6-.92-.936h-.14c.03.272.06.616.1 1.032.03.416.04.776.04 1.08v5.28h-2.11v-18.624h1.73l.29 1.752h.09c.26-.368.56-.704.92-1.008.36-.304.8-.544 1.29-.72.51-.176 1.11-.264 1.8-.264Zm-.38 1.776c-.87 0-1.56.168-2.09.504-.53.32-.91.808-1.15 1.464-.24.656-.37 1.488-.39 2.496v.408c0 1.056.12 1.952.34 2.688.22.736.6 1.296 1.13 1.68.54.384 1.28.576 2.21.576.78 0 1.42-.216 1.92-.648.51-.432.88-1.016 1.12-1.752.26-.752.39-1.608.39-2.568 0-1.472-.29-2.648-.87-3.528-.56-.88-1.43-1.32-2.61-1.32Z"/>
    <path fill="#FEF3C7" stroke="#F59E0B" stroke-width="3" d="M1545 690H375c-8.284 0-15 6.716-15 15v90c0 8.284 6.716 15 15 15h1170c8.28 0 15-6.716 15-15v-90c0-8.284-6.72-15-15-15Z"/>
    <path fill="#92400E" d="m760.673 742-1.476-6.12h-8.316l-1.512 6.12h-6.336l8.208-25.812h7.488L766.973 742h-6.3Zm-4.428-16.668a71.117 71.117 0 0 1-.432-1.584 90.808 90.808 0 0 1-.432-1.728c-.12-.6-.24-1.212-.36-1.836a25.707 25.707 0 0 1-.36 1.872c-.144.6-.288 1.176-.432 1.728-.12.552-.252 1.068-.396 1.548l-1.656 5.976h5.76l-1.692-5.976ZM779.863 742h-11.772v-3.096l2.988-1.44v-16.632l-2.988-1.44v-3.096h11.772v3.096l-2.952 1.44v16.632l2.952 1.44V742Zm15.216-11.376h18.9v14.4h-4.14v-10.476h-10.8v10.656h-3.96v-14.58Zm16.02-19.224 3.312 3.384c-1.752.672-3.696 1.26-5.832 1.764-2.136.48-4.332.876-6.588 1.188-2.232.312-4.416.564-6.552.756-.072-.504-.24-1.116-.504-1.836-.24-.744-.48-1.356-.72-1.836 1.536-.168 3.084-.36 4.644-.576a83.94 83.94 0 0 0 4.608-.756c1.488-.288 2.88-.6 4.176-.936a32.316 32.316 0 0 0 3.456-1.152Zm-8.64 4.068h4.104v17.424h-4.104v-17.424Zm-9.612 6.444h22.932v4.104h-22.932v-4.104Zm5.076 17.892h13.644v3.924h-13.644v-3.924ZM783.955 715l2.448-3.132c.672.336 1.428.72 2.268 1.152.84.432 1.656.864 2.448 1.296.816.432 1.476.816 1.98 1.152l-2.556 3.492a21.39 21.39 0 0 0-1.872-1.224c-.768-.456-1.572-.924-2.412-1.404a74.01 74.01 0 0 0-2.304-1.332Zm-1.728 9.972 2.34-3.204c.672.288 1.44.648 2.304 1.08.864.432 1.704.864 2.52 1.296.816.408 1.476.78 1.98 1.116l-2.412 3.6c-.48-.36-1.116-.768-1.908-1.224a98.473 98.473 0 0 0-2.448-1.404c-.864-.48-1.656-.9-2.376-1.26Zm.54 16.92a67.797 67.797 0 0 0 2.124-3.204 131.657 131.657 0 0 0 2.412-3.96c.816-1.416 1.584-2.82 2.304-4.212l3.168 2.88a121.91 121.91 0 0 1-2.016 3.852 101.038 101.038 0 0 1-2.16 3.888 87.333 87.333 0 0 1-2.196 3.672l-3.636-2.916Zm41.796-28.08h22.068v4.14h-22.068v-4.14Zm0 8.316h22.14v4.032h-22.14v-4.032Zm-.072 8.496h22.356v4.068h-22.356v-4.068Zm-2.412-16.812h4.248v12.96c0 1.416-.06 2.964-.18 4.644-.12 1.68-.36 3.372-.72 5.076a22.193 22.193 0 0 1-1.548 4.824 14.736 14.736 0 0 1-2.664 4.104c-.216-.288-.54-.612-.972-.972a28.34 28.34 0 0 0-1.332-1.044 12.89 12.89 0 0 0-1.116-.792 13.269 13.269 0 0 0 2.34-3.564 18.99 18.99 0 0 0 1.26-4.068c.288-1.416.468-2.82.54-4.212a59.73 59.73 0 0 0 .144-4.032v-12.924Zm23.04 0h4.32v26.316c0 1.152-.144 2.04-.432 2.664-.288.648-.804 1.14-1.548 1.476-.72.336-1.644.552-2.772.648-1.128.096-2.52.132-4.176.108-.072-.576-.252-1.272-.54-2.088a16.04 16.04 0 0 0-.864-2.052l2.088.072h3.024c.336 0 .564-.06.684-.18.144-.12.216-.348.216-.684v-26.28Zm-11.952 1.656h4.356v29.304h-4.356v-29.304Zm41.076 1.872a111.56 111.56 0 0 1-.936 5.832 56.734 56.734 0 0 1-1.548 6.264c-.696 2.424-1.512 4.512-2.448 6.264-.936 1.752-1.968 3.108-3.096 4.068-1.104.936-2.316 1.404-3.636 1.404-1.32 0-2.544-.444-3.672-1.332-1.104-.912-1.992-2.16-2.664-3.744-.648-1.584-.972-3.384-.972-5.4 0-2.088.42-4.056 1.26-5.904a15.632 15.632 0 0 1 3.492-4.896 16.75 16.75 0 0 1 5.256-3.384c2.016-.816 4.188-1.224 6.516-1.224 2.232 0 4.236.36 6.012 1.08 1.8.72 3.336 1.716 4.608 2.988a12.97 12.97 0 0 1 2.916 4.464c.672 1.704 1.008 3.54 1.008 5.508 0 2.52-.516 4.776-1.548 6.768s-2.568 3.636-4.608 4.932c-2.016 1.296-4.536 2.184-7.56 2.664l-2.7-4.284a24.457 24.457 0 0 0 1.836-.252 23.771 23.771 0 0 0 1.512-.324 13.85 13.85 0 0 0 3.204-1.224 10.479 10.479 0 0 0 2.628-2.016 8.78 8.78 0 0 0 1.728-2.844c.432-1.08.648-2.268.648-3.564 0-1.416-.216-2.712-.648-3.888a8.573 8.573 0 0 0-1.908-3.06c-.84-.888-1.86-1.56-3.06-2.016-1.2-.48-2.58-.72-4.14-.72-1.92 0-3.612.348-5.076 1.044-1.464.672-2.7 1.548-3.708 2.628s-1.776 2.244-2.304 3.492c-.504 1.248-.756 2.436-.756 3.564 0 1.2.144 2.208.432 3.024.288.792.636 1.392 1.044 1.8.432.384.888.576 1.368.576.504 0 .996-.252 1.476-.756.504-.528.996-1.32 1.476-2.376.48-1.056.96-2.388 1.44-3.996a49.17 49.17 0 0 0 1.404-5.544c.384-1.968.66-3.888.828-5.76l4.896.144Zm21.78-1.152c1.32.168 2.808.288 4.464.36 1.656.072 3.432.108 5.328.108 1.2 0 2.424-.024 3.672-.072 1.248-.048 2.46-.108 3.636-.18 1.176-.096 2.22-.18 3.132-.252v4.788c-.84.048-1.86.108-3.06.18-1.176.072-2.412.132-3.708.18a96.596 96.596 0 0 1-3.636.072c-1.872 0-3.612-.036-5.22-.108a790.615 790.615 0 0 1-4.608-.288v-4.788Zm3.024 15.264a28.766 28.766 0 0 0-.432 1.836c-.12.6-.18 1.2-.18 1.8 0 1.176.576 2.136 1.728 2.88 1.176.72 3.06 1.08 5.652 1.08 1.632 0 3.204-.06 4.716-.18a68.167 68.167 0 0 0 4.32-.468 34.71 34.71 0 0 0 3.6-.756l.036 5.04c-1.032.24-2.208.456-3.528.648-1.296.192-2.7.336-4.212.432-1.488.12-3.072.18-4.752.18-2.76 0-5.052-.312-6.876-.936-1.824-.6-3.204-1.464-4.14-2.592-.912-1.152-1.368-2.556-1.368-4.212 0-1.032.084-1.98.252-2.844.168-.888.312-1.668.432-2.34l4.752.432Zm18.144-18.972c.312.432.636.948.972 1.548.36.6.708 1.2 1.044 1.8.336.6.624 1.128.864 1.584l-2.916 1.26a56.06 56.06 0 0 0-1.332-2.556 24.291 24.291 0 0 0-1.476-2.484l2.844-1.152Zm4.284-1.62c.312.456.648.984 1.008 1.584.36.6.708 1.2 1.044 1.8.36.576.648 1.08.864 1.512l-2.88 1.224a78.112 78.112 0 0 0-1.368-2.52c-.528-.96-1.044-1.776-1.548-2.448l2.88-1.152Zm22.284 11.016h12.888v3.924h-12.888v-3.924Zm0 8.532h12.888v3.888h-12.888v-3.888Zm0 8.496h12.888v3.924h-12.888v-3.924Zm-2.052-25.56h16.956V744.7h-4.32v-27.252h-8.496v27.468h-4.14v-31.572Zm-15.12 5.508h13.824v4.068h-13.824v-4.068Zm5.184-7.452h4.14v33.804h-4.14V711.4Zm-.216 10.224 2.556.9a61.493 61.493 0 0 1-1.08 4.536 58.836 58.836 0 0 1-1.476 4.536 43.833 43.833 0 0 1-1.8 4.14c-.648 1.272-1.332 2.364-2.052 3.276-.192-.6-.492-1.284-.9-2.052a19.05 19.05 0 0 0-1.152-1.98 19.886 19.886 0 0 0 1.872-2.772 33.417 33.417 0 0 0 1.656-3.348c.528-1.2.996-2.412 1.404-3.636a33.79 33.79 0 0 0 .972-3.6Zm4.068 3.168c.264.24.648.66 1.152 1.26a51.545 51.545 0 0 1 1.584 1.908c.576.696 1.104 1.344 1.584 1.944.504.576.852.984 1.044 1.224l-2.484 3.492c-.264-.528-.6-1.152-1.008-1.872a44.767 44.767 0 0 0-1.332-2.196c-.48-.744-.948-1.452-1.404-2.124a72.411 72.411 0 0 0-1.116-1.692l1.98-1.944Zm47.736-3.276 2.664-2.844c1.032.576 2.16 1.236 3.384 1.98 1.248.744 2.436 1.5 3.564 2.268 1.152.744 2.088 1.416 2.808 2.016l-2.88 3.276c-.648-.648-1.524-1.368-2.628-2.16a88.075 88.075 0 0 0-3.492-2.376 169.952 169.952 0 0 0-3.42-2.16Zm2.484 5.184h2.16v5.472c0 .48.072 1.032.216 1.656.144.624.384 1.296.72 2.016.36.696.852 1.392 1.476 2.088.624.672 1.404 1.332 2.34 1.98.936.624 2.052 1.188 3.348 1.692-.36.504-.792 1.116-1.296 1.836s-.9 1.332-1.188 1.836a12.912 12.912 0 0 1-3.06-1.656 15.208 15.208 0 0 1-2.304-2.124 14.864 14.864 0 0 1-1.584-2.232c-.408-.744-.696-1.392-.864-1.944-.192.552-.516 1.188-.972 1.908-.432.72-1.008 1.464-1.728 2.232-.72.744-1.572 1.44-2.556 2.088-.96.672-2.064 1.248-3.312 1.728a14.092 14.092 0 0 0-.684-1.188 20.253 20.253 0 0 0-.864-1.296c-.312-.408-.6-.756-.864-1.044 1.392-.48 2.58-1.044 3.564-1.692 1.008-.648 1.848-1.32 2.52-2.016.672-.72 1.2-1.428 1.584-2.124.408-.72.684-1.404.828-2.052.168-.648.252-1.212.252-1.692V726.7h2.268Zm-1.944-15.3h4.248c-.096 2.16-.288 4.128-.576 5.904-.264 1.776-.744 3.372-1.44 4.788-.672 1.392-1.668 2.616-2.988 3.672-1.296 1.056-3.036 1.968-5.22 2.736-.192-.528-.528-1.128-1.008-1.8-.48-.696-.948-1.236-1.404-1.62 1.896-.576 3.384-1.272 4.464-2.088 1.08-.84 1.884-1.812 2.412-2.916.552-1.128.924-2.4 1.116-3.816.192-1.44.324-3.06.396-4.86Zm-5.292 2.16 3.528.684a15.998 15.998 0 0 1-.972 3.672c-.48 1.224-1.116 2.244-1.908 3.06l-3.348-1.476c.648-.648 1.212-1.524 1.692-2.628s.816-2.208 1.008-3.312Zm-.432 15.624 3.78.756a18.273 18.273 0 0 1-1.224 4.104c-.552 1.32-1.272 2.424-2.16 3.312l-3.528-1.8c.768-.672 1.416-1.596 1.944-2.772a15.444 15.444 0 0 0 1.188-3.6Zm13.14-15.876 4.14 1.296c-.6 1.08-1.212 2.148-1.836 3.204a46.294 46.294 0 0 1-1.656 2.664l-3.24-1.224c.312-.528.636-1.14.972-1.836.336-.696.648-1.404.936-2.124.288-.72.516-1.38.684-1.98Zm.216 15.624 4.248 1.332a597.45 597.45 0 0 1-1.98 3.348c-.648 1.128-1.26 2.076-1.836 2.844l-3.348-1.224c.36-.576.72-1.224 1.08-1.944.36-.744.696-1.5 1.008-2.268.336-.768.612-1.464.828-2.088Zm-27.792-6.48h10.872v3.276h-10.872v-3.276Zm.144-9.9h10.656v3.24h-10.656v-3.24Zm-.144 14.832h10.872v3.24h-10.872v-3.24Zm-1.692-10.008h13.752v3.42h-13.752v-3.42Zm3.564 14.976h9.072v10.98h-9.072v-3.42h5.364v-4.14h-5.364v-3.42Zm-1.944 0h3.636v12.384h-3.636v-12.384Zm47.373-12.456c1.03.096 2.07.18 3.1.252 1.05.048 2.12.072 3.2.072 2.21 0 4.41-.096 6.59-.288 2.18-.192 4.2-.492 6.05-.9v4.5c-1.87.264-3.9.48-6.09.648-2.18.144-4.36.216-6.55.216-1.05 0-2.11-.012-3.17-.036a147.33 147.33 0 0 1-3.13-.18v-4.284Zm13.68-6.084c-.05.336-.09.708-.14 1.116-.03.408-.05.816-.07 1.224-.03.384-.05.9-.08 1.548-.02.648-.03 1.38-.03 2.196v2.52c0 1.632.02 3.168.07 4.608.05 1.416.11 2.736.18 3.96.07 1.2.13 2.304.18 3.312.07 1.008.11 1.944.11 2.808 0 .936-.13 1.8-.4 2.592a5.23 5.23 0 0 1-1.19 2.088c-.55.6-1.28 1.056-2.19 1.368-.89.336-1.98.504-3.28.504-2.49 0-4.46-.504-5.9-1.512-1.44-1.008-2.16-2.46-2.16-4.356 0-1.224.32-2.292.97-3.204.65-.936 1.57-1.656 2.77-2.16 1.2-.528 2.62-.792 4.25-.792 1.7 0 3.25.18 4.64.54 1.4.36 2.67.84 3.82 1.44s2.17 1.26 3.06 1.98c.91.696 1.73 1.368 2.45 2.016l-2.49 3.78a39.162 39.162 0 0 0-3.99-3.348c-1.3-.936-2.59-1.656-3.89-2.16a10.64 10.64 0 0 0-3.96-.756c-1.01 0-1.84.192-2.48.576-.63.384-.94.924-.94 1.62 0 .72.32 1.248.97 1.584.65.336 1.44.504 2.38.504.74 0 1.33-.12 1.76-.36.43-.264.73-.636.9-1.116.19-.504.29-1.104.29-1.8 0-.624-.02-1.44-.07-2.448s-.11-2.136-.18-3.384c-.05-1.248-.1-2.544-.15-3.888-.04-1.368-.07-2.7-.07-3.996 0-1.368-.01-2.604-.03-3.708v-2.52c0-.264-.03-.636-.08-1.116-.04-.48-.1-.9-.18-1.26h5.15Zm-17.57.396c-.07.24-.18.576-.32 1.008-.12.432-.23.852-.32 1.26-.08.408-.14.72-.18.936-.12.504-.26 1.188-.4 2.052-.14.84-.3 1.8-.47 2.88-.14 1.056-.29 2.148-.43 3.276-.14 1.104-.25 2.16-.32 3.168-.08.984-.11 1.836-.11 2.556v1.188c.02.408.07.792.14 1.152.17-.432.34-.852.51-1.26l.57-1.224c.19-.408.37-.816.54-1.224l2.2 1.8c-.34.984-.69 2.016-1.05 3.096-.33 1.08-.64 2.1-.93 3.06-.27.96-.47 1.764-.61 2.412-.05.24-.1.528-.15.864-.02.336-.03.612-.03.828v.684c.02.288.04.552.07.792l-4.07.324c-.38-1.272-.72-2.892-1.01-4.86-.29-1.992-.43-4.212-.43-6.66 0-1.344.06-2.748.18-4.212.12-1.488.25-2.916.4-4.284.16-1.368.33-2.616.5-3.744.17-1.152.3-2.076.4-2.772.07-.504.14-1.068.21-1.692.07-.648.12-1.26.15-1.836l4.96.432Zm41.51-1.44c-.02.192-.06.492-.11.9-.04.384-.09.78-.14 1.188-.02.384-.05.732-.07 1.044-.05.696-.1 1.464-.15 2.304-.02.816-.04 1.668-.07 2.556-.02.864-.05 1.74-.07 2.628v2.592c0 .984.01 2.076.04 3.276.02 1.176.04 2.352.07 3.528.05 1.152.07 2.208.07 3.168.02.96.04 1.704.04 2.232 0 1.488-.17 2.64-.51 3.456-.31.816-.77 1.38-1.37 1.692-.6.336-1.29.504-2.08.504-.87 0-1.79-.18-2.78-.54-.98-.336-1.9-.816-2.77-1.44a9.057 9.057 0 0 1-2.09-2.16c-.52-.84-.79-1.74-.79-2.7 0-1.152.43-2.292 1.3-3.42.89-1.152 2.05-2.208 3.49-3.168 1.46-.96 3.04-1.728 4.72-2.304 1.6-.6 3.26-1.032 4.96-1.296 1.71-.288 3.24-.432 4.61-.432 1.85 0 3.52.312 5.01.936 1.48.6 2.67 1.488 3.56 2.664.89 1.176 1.33 2.592 1.33 4.248 0 1.392-.26 2.676-.79 3.852-.53 1.176-1.38 2.196-2.56 3.06-1.15.84-2.68 1.5-4.6 1.98-.82.168-1.64.288-2.45.36-.79.096-1.55.168-2.27.216l-1.66-4.644c.82 0 1.6-.012 2.34-.036.77-.048 1.47-.12 2.09-.216.99-.192 1.87-.48 2.67-.864.79-.384 1.41-.888 1.87-1.512.45-.624.68-1.368.68-2.232 0-.816-.23-1.512-.68-2.088-.43-.576-1.05-1.02-1.84-1.332-.79-.312-1.71-.468-2.77-.468-1.51 0-3.05.156-4.61.468-1.53.312-3.01.744-4.43 1.296-1.05.408-2 .888-2.84 1.44-.84.528-1.5 1.08-1.98 1.656-.48.576-.72 1.128-.72 1.656 0 .288.08.564.25.828.19.24.43.456.72.648s.58.348.87.468c.31.096.57.144.79.144.33 0 .61-.096.83-.288.21-.216.32-.624.32-1.224 0-.648-.02-1.572-.07-2.772-.03-1.224-.06-2.58-.11-4.068-.02-1.488-.04-2.964-.04-4.428v-3.06c.03-1.032.04-2.016.04-2.952v-2.484c.02-.72.04-1.284.04-1.692 0-.264-.02-.6-.04-1.008-.02-.408-.06-.816-.11-1.224-.02-.432-.06-.744-.11-.936h4.97Zm10.26 3.888c.91.432 1.93.96 3.06 1.584 1.15.624 2.25 1.248 3.28 1.872 1.05.6 1.89 1.14 2.52 1.62l-2.16 3.672c-.46-.384-1.06-.816-1.8-1.296-.72-.48-1.51-.972-2.38-1.476-.84-.504-1.65-.972-2.45-1.404-.79-.456-1.47-.816-2.05-1.08l1.98-3.492Zm-22.07 1.98c1.06.12 1.98.204 2.78.252.81.024 1.54.036 2.19.036.94 0 1.97-.036 3.1-.108a92.01 92.01 0 0 0 3.45-.36c1.18-.168 2.32-.36 3.42-.576 1.13-.216 2.15-.456 3.06-.72l.11 4.464c-1.01.24-2.1.456-3.27.648-1.18.168-2.37.324-3.57.468-1.17.144-2.3.252-3.38.324-1.06.072-1.98.108-2.77.108-1.2 0-2.19-.012-2.96-.036-.76-.024-1.46-.072-2.08-.144l-.08-4.356Zm41.08-3.744h24.55v3.564h-24.55v-3.564Zm.4 5.292h20.88v3.492h-20.88v-3.492Zm-4.29 5.292h20.77v3.6h-20.77v-3.6Zm3.46-14.22 4.53.972c-.86 2.904-2.02 5.592-3.49 8.064-1.46 2.472-3.07 4.512-4.82 6.12-.27-.264-.65-.564-1.15-.9-.48-.36-.98-.708-1.48-1.044a11.8 11.8 0 0 0-1.3-.828c1.78-1.368 3.33-3.144 4.65-5.328a28.228 28.228 0 0 0 3.06-7.056Zm8.89 18 4.21 1.368a31.23 31.23 0 0 1-4.39 6.264 36.123 36.123 0 0 1-5.62 5.076 40.218 40.218 0 0 1-6.37 3.816c-.21-.288-.51-.648-.9-1.08-.36-.432-.75-.852-1.19-1.26-.4-.408-.76-.744-1.08-1.008 2.21-.888 4.29-1.98 6.23-3.276a27.889 27.889 0 0 0 5.26-4.464 24.703 24.703 0 0 0 3.85-5.436Zm7.02-3.78h4.43c0 2.16.02 4.188.07 6.084.05 1.872.16 3.516.32 4.932.2 1.392.46 2.496.8 3.312.33.792.76 1.188 1.29 1.188.29-.024.48-.48.58-1.368.09-.888.15-2.052.18-3.492.41.48.86.972 1.37 1.476.52.48 1 .888 1.44 1.224-.1 1.488-.28 2.712-.54 3.672-.24.96-.63 1.656-1.16 2.088-.52.456-1.24.684-2.16.684-1.51 0-2.71-.516-3.6-1.548-.86-1.008-1.51-2.412-1.94-4.212-.43-1.824-.72-3.936-.86-6.336-.15-2.4-.22-4.968-.22-7.704Zm-19.3 7.776 3.06-2.844a77.21 77.21 0 0 1 4.11 2.34 81.77 81.77 0 0 1 4.25 2.664c1.41.936 2.72 1.872 3.92 2.808 1.2.912 2.21 1.788 3.02 2.628l-3.45 3.276c-.75-.816-1.69-1.704-2.85-2.664-1.12-.96-2.37-1.92-3.74-2.88a73.608 73.608 0 0 0-4.18-2.844 94.322 94.322 0 0 0-4.14-2.484Zm48.86-.792h15.33v3.636h-15.33v-3.636Zm-1.95 8.172h18.9v3.816h-18.9v-3.816Zm1.51-27.576h13.32v3.708h-13.32v-3.708Zm5.94 15.408h4.25v14.544h-4.25v-14.544Zm6.27-15.408h.79l.76-.144 2.7 1.008c-.8 3-1.96 5.568-3.5 7.704a21.088 21.088 0 0 1-5.5 5.328c-2.12 1.416-4.48 2.544-7.1 3.384-.24-.504-.57-1.104-1-1.8-.41-.696-.82-1.248-1.23-1.656 1.71-.432 3.3-1.044 4.79-1.836a19.76 19.76 0 0 0 4.1-2.844 17.04 17.04 0 0 0 3.17-3.816c.89-1.416 1.56-2.976 2.02-4.68v-.648Zm-7.31 3.492c.72 1.68 1.69 3.192 2.92 4.536 1.22 1.344 2.67 2.496 4.35 3.456 1.68.936 3.58 1.656 5.69 2.16-.26.264-.56.612-.9 1.044-.34.408-.66.828-.97 1.26-.29.432-.52.828-.69 1.188-2.28-.672-4.32-1.596-6.12-2.772a19.394 19.394 0 0 1-4.6-4.248c-1.3-1.68-2.39-3.564-3.28-5.652l3.6-.972Zm-20.99-1.728h15.19v3.708h-15.19v-3.708Zm-.43 20.952h15.88v3.744h-15.88v-3.744Zm6.05-24.408h3.85v10.656h-3.85v-10.656Zm.43 10.62h2.95v10.044h.47v13.212h-3.85v-13.212h.43v-10.044Zm-2.56 6.444v2.196h8.18v-2.196h-8.18Zm0-4.932v2.16h8.18v-2.16h-8.18Zm-3.09-2.952h14.51v13.068h-14.51v-13.068Zm50.25-3.708c1.11.144 2.34.252 3.71.324 1.39.048 2.8.072 4.21.072 1.44-.024 2.82-.072 4.14-.144 1.32-.096 2.46-.192 3.42-.288v4.644c-1.1.096-2.31.18-3.63.252a114.692 114.692 0 0 1-8.17 0c-1.32-.072-2.55-.156-3.68-.252v-4.608Zm2.88 15.372c-.14.6-.25 1.14-.32 1.62-.07.456-.11.924-.11 1.404 0 .384.1.744.29 1.08.19.312.48.588.86.828.41.216.93.384 1.55.504.65.096 1.43.144 2.34.144 1.61 0 3.12-.072 4.54-.216 1.41-.168 2.91-.408 4.5-.72l.07 4.86c-1.15.216-2.48.384-4 .504-1.48.12-3.25.18-5.29.18-3.09 0-5.4-.516-6.91-1.548-1.51-1.056-2.27-2.508-2.27-4.356 0-.696.05-1.416.15-2.16.12-.768.27-1.608.46-2.52l4.14.396Zm-8.42-17.784c-.1.24-.2.576-.32 1.008-.12.432-.24.852-.36 1.26-.1.408-.17.72-.22.936-.07.504-.19 1.164-.36 1.98-.14.792-.3 1.692-.47 2.7-.14.984-.29 1.992-.43 3.024a97.051 97.051 0 0 0-.36 2.988c-.07.96-.11 1.8-.11 2.52v1.152c.03.432.07.828.15 1.188.16-.408.34-.816.54-1.224l.57-1.224c.19-.432.36-.84.51-1.224l2.23 1.764c-.34.984-.69 2.04-1.05 3.168-.33 1.128-.64 2.196-.93 3.204-.27.984-.47 1.8-.61 2.448-.05.264-.1.564-.15.9-.02.336-.03.6-.03.792v.684c.02.288.04.552.07.792l-4.18.288c-.36-1.248-.68-2.904-.97-4.968-.29-2.088-.43-4.356-.43-6.804 0-1.344.06-2.712.18-4.104s.26-2.724.43-3.996c.17-1.296.32-2.472.47-3.528.17-1.056.31-1.932.43-2.628.05-.504.11-1.068.18-1.692.1-.648.16-1.26.18-1.836l5.04.432Zm-534.885 49.152v2.368h15.648v-2.368h-15.648Zm-2.272-1.632h20.288v5.6h-20.288v-5.6Zm8.704-1.824h2.4v9.92h-2.4v-9.92Zm-13.024 9.12h28.544v1.888h-28.544v-1.888Zm6.4 8.48v1.984h16.064v-1.984h-16.064Zm0 3.488v2.016h16.064v-2.016h-16.064Zm0-6.944v1.984h16.064v-1.984h-16.064Zm-2.336-1.536h20.832v12.064h-20.832v-12.064Zm12.768 13.664 2.016-1.216c1.173.299 2.357.64 3.552 1.024 1.194.384 2.325.757 3.392 1.12a44.93 44.93 0 0 1 2.752 1.024l-2.752 1.216a42.845 42.845 0 0 0-2.432-.992 92.439 92.439 0 0 0-3.072-1.12 50.77 50.77 0 0 0-3.456-1.056Zm-7.36-1.312 2.144.992a25.43 25.43 0 0 1-3.008 1.376 62.54 62.54 0 0 1-3.52 1.248 41.524 41.524 0 0 1-3.392.96 4.544 4.544 0 0 0-.48-.608 20.812 20.812 0 0 0-.672-.64 12.76 12.76 0 0 0-.576-.544 54.21 54.21 0 0 0 3.392-.768 45.05 45.05 0 0 0 3.36-.928c1.066-.341 1.984-.704 2.752-1.088Zm33.728 1.216h18.112v2.336h-18.112v-2.336Zm1.28-15.712h16.128v2.304h-16.128v-2.304Zm6.848-10.208h2.464v27.04h-2.464v-27.04Zm-19.328 5.76h10.624v2.208h-10.624v-2.208Zm5.056 9.568 2.4-2.816v16.672h-2.4v-13.856Zm0-15.584h2.4v7.104h-2.4v-7.104Zm2.176 13.376c.277.192.682.512 1.216.96.533.448 1.109.939 1.728 1.472.618.512 1.184.992 1.696 1.44.512.448.874.779 1.088.992l-1.472 1.952a22.584 22.584 0 0 0-1.152-1.28 57.42 57.42 0 0 0-1.6-1.6 50.787 50.787 0 0 0-1.6-1.536 21.83 21.83 0 0 0-1.28-1.152l1.376-1.248Zm2.496-7.36h.512l.448-.096 1.344.896a27.033 27.033 0 0 1-3.104 5.632 34.114 34.114 0 0 1-4.224 4.832c-1.515 1.451-3.03 2.677-4.544 3.68a5.97 5.97 0 0 0-.352-.768c-.15-.277-.31-.544-.48-.8a4.243 4.243 0 0 0-.416-.608c1.45-.853 2.88-1.92 4.288-3.2a30.62 30.62 0 0 0 3.84-4.288c1.173-1.579 2.069-3.179 2.688-4.8v-.48Zm35.104-.736c.874.128 1.888.235 3.039.32 1.174.064 2.379.096 3.617.096a90.192 90.192 0 0 0 3.584-.128 34.494 34.494 0 0 0 2.912-.32v2.592c-.854.085-1.856.16-3.008.224a93.652 93.652 0 0 1-3.552.064c-1.216 0-2.4-.021-3.553-.064a74.6 74.6 0 0 1-3.039-.224v-2.56Zm1.248 13.024c-.15.576-.267 1.099-.352 1.568a7.62 7.62 0 0 0-.128 1.376c0 .363.074.725.224 1.088.17.341.448.651.832.928.405.256.96.469 1.663.64.705.149 1.601.224 2.689.224 1.45 0 2.816-.064 4.096-.192 1.28-.149 2.56-.363 3.84-.64l.064 2.688c-1.003.213-2.176.384-3.52.512-1.323.107-2.816.16-4.48.16-2.688 0-4.662-.427-5.92-1.28-1.238-.853-1.856-2.027-1.856-3.52 0-.533.042-1.099.128-1.696.106-.619.245-1.312.416-2.08l2.304.224Zm-7.36-15.488c-.043.171-.107.395-.192.672-.064.256-.139.523-.224.8-.064.256-.118.48-.16.672-.107.597-.235 1.291-.384 2.08-.15.768-.299 1.6-.448 2.496-.128.875-.256 1.771-.384 2.688-.107.896-.203 1.771-.288 2.624a31.817 31.817 0 0 0-.096 2.368c0 .789.021 1.536.064 2.24.064.704.138 1.451.224 2.24.192-.491.394-1.013.608-1.568.213-.555.426-1.099.64-1.632.234-.555.437-1.045.607-1.472l1.345 1.024a234.9 234.9 0 0 0-.896 2.528c-.32.917-.608 1.803-.864 2.656a34.639 34.639 0 0 0-.512 1.984c-.043.235-.086.491-.128.768a2.494 2.494 0 0 0-.032.672c.021.171.032.352.032.544.021.213.042.405.064.576l-2.304.16c-.32-1.131-.598-2.581-.832-4.352-.235-1.792-.352-3.765-.352-5.92 0-1.173.053-2.368.16-3.584a58.35 58.35 0 0 1 .416-3.584c.17-1.173.33-2.24.48-3.2.17-.981.298-1.803.384-2.464.064-.384.117-.768.16-1.152.042-.405.064-.779.064-1.12l2.848.256Zm31.519 3.744v2.272h16.065v-2.272h-16.065Zm0-3.84v2.24h16.065v-2.24h-16.065Zm-2.303-1.696h20.768v9.504h-20.768v-9.504Zm-3.84 11.296h28.224v2.016h-28.224v-2.016Zm14.24 4h11.36v1.952h-11.36v-1.952Zm-10.048.192h7.872v1.824h-7.872v-1.824Zm0 4.064h7.872v1.792h-7.872v-1.792Zm13.376-2.464c.938 2.304 2.389 4.288 4.352 5.952 1.984 1.643 4.33 2.805 7.04 3.488-.15.149-.32.331-.512.544-.192.235-.374.459-.544.672-.15.235-.278.448-.384.64-2.816-.832-5.238-2.165-7.264-4-2.006-1.856-3.542-4.096-4.608-6.72l1.92-.576Zm7.296-1.792h.448l.416-.096 1.472.608c-.704 2.176-1.707 4.075-3.008 5.696a20.071 20.071 0 0 1-4.48 4.128 22.71 22.71 0 0 1-5.312 2.592 6.283 6.283 0 0 0-.608-.992 4.87 4.87 0 0 0-.736-.896 18.251 18.251 0 0 0 3.744-1.536 19.034 19.034 0 0 0 3.424-2.336 15.703 15.703 0 0 0 2.784-3.04c.81-1.152 1.429-2.4 1.856-3.744v-.384Zm-25.152 9.152c1.045-.107 2.229-.224 3.552-.352 1.344-.128 2.762-.277 4.256-.448l4.48-.512.032 1.984a1082.121 1082.121 0 0 1-12.096 1.472l-.224-2.144Zm11.104-12.512h2.304v16.48h-2.304v-16.48Zm-8.032.064h2.208v12.992h-2.208v-12.992Zm35.232-.384v11.328h-2.336V775h-4.064v-2.24h6.4Zm0 10.336c.746 1.173 1.813 2.048 3.2 2.624 1.386.576 3.018.907 4.896.992.896.021 1.984.043 3.264.064h4.032c1.408-.021 2.773-.053 4.096-.096a102.77 102.77 0 0 0 3.424-.16 9.94 9.94 0 0 0-.576 1.536 7.31 7.31 0 0 0-.192.832c-.896.021-1.963.043-3.2.064-1.216.043-2.486.064-3.808.064-1.323.021-2.603.021-3.84 0a453.535 453.535 0 0 1-3.169-.064c-2.111-.085-3.914-.427-5.407-1.024a8.952 8.952 0 0 1-3.744-2.784 103.4 103.4 0 0 1-2.176 2.048 74.777 74.777 0 0 1-2.272 2.112l-1.248-2.368a52.576 52.576 0 0 0 2.272-1.76 37.85 37.85 0 0 0 2.336-2.08h2.112Zm-6.08-20.832 1.824-1.344a22.945 22.945 0 0 1 1.984 1.664 25.573 25.573 0 0 1 1.856 1.856c.576.619 1.024 1.195 1.344 1.728l-1.952 1.504c-.299-.533-.726-1.12-1.28-1.76a22.118 22.118 0 0 0-1.824-1.92 20.652 20.652 0 0 0-1.952-1.728Zm7.872.544h20.64v1.952h-20.64v-1.952Zm4.512 9.344h11.424v1.632h-11.424v-1.632Zm4.416-12.032h2.336v3.872h-2.336v-3.872Zm.352 9.696h1.824v6.752h-1.824v-6.752Zm-8.096-1.792h16.96v1.952h-14.752v14.848h-2.208v-16.8Zm4.768 8.064h1.76v7.04h-1.76v-7.04Zm.928 0h7.68v5.824h-7.68v-1.536h5.888v-2.752h-5.888v-1.536Zm10.368-8.064h2.24v14.208c0 .597-.075 1.067-.224 1.408-.128.32-.395.576-.8.768-.448.149-1.003.245-1.664.288-.662.043-1.472.064-2.432.064a4.759 4.759 0 0 0-.288-1.024 8.222 8.222 0 0 0-.448-1.024c.725.021 1.376.032 1.952.032h1.184c.192-.021.32-.064.384-.128s.096-.192.096-.384v-14.208Zm-3.008-3.648 2.24.576c-.32.661-.662 1.312-1.024 1.952a22.998 22.998 0 0 1-.96 1.6l-1.888-.512c.277-.533.565-1.141.864-1.824.32-.683.576-1.28.768-1.792Zm-10.208.672 1.984-.512c.341.491.65 1.056.928 1.696.298.64.501 1.195.608 1.664l-2.112.576c-.086-.469-.267-1.024-.544-1.664a12.261 12.261 0 0 0-.864-1.76Zm21.408 1.76c.597.085 1.226.149 1.888.192a63.48 63.48 0 0 0 2.016.032 41.992 41.992 0 0 0 7.424-.672 32.854 32.854 0 0 0 3.776-.992l.064 2.4a47.96 47.96 0 0 1-3.456.768 50.748 50.748 0 0 1-3.872.576 40.853 40.853 0 0 1-3.936.192h-1.856c-.64-.021-1.27-.053-1.888-.096l-.16-2.4Zm11.328-5.216c-.128.512-.288 1.163-.48 1.952-.192.789-.406 1.621-.64 2.496a33.395 33.395 0 0 1-.704 2.432 47.318 47.318 0 0 1-1.952 4.864 76.842 76.842 0 0 1-2.528 4.928c-.896 1.6-1.782 2.997-2.656 4.192l-2.464-1.28a29.915 29.915 0 0 0 2.112-2.848 35.217 35.217 0 0 0 2.016-3.36 52 52 0 0 0 1.728-3.456 44.638 44.638 0 0 0 1.28-3.104c.341-1.024.661-2.176.96-3.456.298-1.301.469-2.507.512-3.616l2.816.256Zm7.552 9.888c-.022.661-.043 1.259-.064 1.792 0 .512.01 1.067.032 1.664.021.512.042 1.173.064 1.984.042.789.085 1.632.128 2.528.042.875.074 1.717.096 2.528.042.811.064 1.483.064 2.016 0 .853-.192 1.632-.576 2.336-.384.704-.992 1.259-1.824 1.664-.811.427-1.878.64-3.2.64-1.174 0-2.24-.171-3.2-.512-.96-.32-1.739-.821-2.336-1.504-.576-.683-.864-1.547-.864-2.592 0-1.003.277-1.856.832-2.56.576-.725 1.344-1.28 2.304-1.664.981-.384 2.069-.576 3.264-.576 1.792 0 3.434.256 4.928.768 1.514.491 2.869 1.12 4.064 1.888 1.216.768 2.261 1.525 3.136 2.272l-1.376 2.176a38.699 38.699 0 0 0-2.08-1.728 16.337 16.337 0 0 0-2.496-1.632 15.099 15.099 0 0 0-2.944-1.248 11.314 11.314 0 0 0-3.328-.48c-1.174 0-2.123.245-2.848.736-.726.491-1.088 1.099-1.088 1.824 0 .747.309 1.355.928 1.824.618.469 1.546.704 2.784.704.896 0 1.6-.139 2.112-.416.512-.299.874-.683 1.088-1.152a3.67 3.67 0 0 0 .352-1.6c0-.597-.022-1.376-.064-2.336a85.937 85.937 0 0 0-.128-3.072 165.037 165.037 0 0 0-.16-3.296 203.888 203.888 0 0 1-.096-2.976h2.496Zm6.4.864c-.576-.512-1.302-1.045-2.176-1.6a37.82 37.82 0 0 0-2.72-1.568 33.88 33.88 0 0 0-2.432-1.248l1.312-1.952a37.19 37.19 0 0 1 1.92.928 52.327 52.327 0 0 1 4.064 2.336c.618.363 1.109.693 1.472.992l-1.44 2.112Zm12.063 13.504c2.667-1.088 4.918-2.443 6.753-4.064 1.834-1.643 3.349-3.349 4.544-5.12 1.237-1.835 2.144-3.659 2.72-5.472.597-1.835 1.024-3.488 1.28-4.96.085-.427.149-.896.192-1.408.064-.512.085-.917.064-1.216l3.2.448c-.128.427-.256.885-.384 1.376-.107.469-.192.853-.256 1.152a38.664 38.664 0 0 1-1.6 5.792 26.615 26.615 0 0 1-2.784 5.632c-1.238 1.92-2.784 3.744-4.64 5.472-1.856 1.707-4.086 3.168-6.688 4.384l-2.401-2.016Zm-1.951-21.856c.362.533.789 1.205 1.28 2.016.49.789.992 1.632 1.504 2.528a92.744 92.744 0 0 1 1.472 2.56c.469.811.842 1.472 1.12 1.984l-2.56 1.44a67.524 67.524 0 0 0-1.216-2.368 82.38 82.38 0 0 0-1.472-2.624 51.953 51.953 0 0 0-1.472-2.432 25.337 25.337 0 0 0-1.184-1.824l2.528-1.28Zm50.336-1.28c-.022.405-.043.843-.064 1.312-.022.448-.032.939-.032 1.472v5.184c0 1.92-.075 3.552-.224 4.896-.128 1.344-.331 2.496-.608 3.456a10.203 10.203 0 0 1-1.024 2.496 15.4 15.4 0 0 1-1.504 2.112 11.976 11.976 0 0 1-2.368 2.144 16.848 16.848 0 0 1-2.688 1.504c-.918.427-1.771.768-2.56 1.024l-2.08-2.208a19.43 19.43 0 0 0 4.16-1.536 11.972 11.972 0 0 0 3.488-2.72 9.682 9.682 0 0 0 1.376-2.016 8.914 8.914 0 0 0 .8-2.336c.192-.853.32-1.845.384-2.976s.096-2.453.096-3.968v-5.056c0-.533-.022-1.024-.064-1.472a23.408 23.408 0 0 0-.096-1.312h3.008Zm-14.848.256c-.022.299-.054.661-.096 1.088a23.63 23.63 0 0 0-.032 1.216v10.688c0 .405.01.843.032 1.312.042.448.074.821.096 1.12h-2.944c.042-.256.074-.608.096-1.056.042-.469.064-.939.064-1.408v-10.656c0-.277-.011-.651-.032-1.12a13.084 13.084 0 0 0-.096-1.184h2.912Zm45.6 8.8c-.043.149-.086.32-.128.512a8.762 8.762 0 0 0-.096.48 32.25 32.25 0 0 1-.256 1.984c-.107.832-.235 1.749-.384 2.752l-.448 3.008-.416 2.72c-.107.811-.203 1.44-.288 1.888h-2.72c.085-.363.181-.917.288-1.664.128-.768.266-1.632.416-2.592.17-.96.32-1.92.447-2.88.129-.981.235-1.867.321-2.656.106-.811.17-1.429.192-1.856h-10.176c-.47 0-.918.011-1.344.032l-1.216.064v-2.688c.256.043.522.075.8.096l.896.064c.298.021.576.032.832.032h9.728c.192 0 .384-.011.576-.032.213-.021.416-.043.608-.064a1.97 1.97 0 0 0 .416-.128l1.952.928Zm-18.816 12.32c.384.021.8.053 1.248.096.448.021.917.032 1.408.032h17.44c.341 0 .757-.011 1.248-.032.512-.021.938-.043 1.28-.064v2.592a6.995 6.995 0 0 0-.736-.032h-.896a11.581 11.581 0 0 0-.8-.032h-17.536c-.491 0-.939.011-1.344.032-.406 0-.843.021-1.312.064v-2.656Zm30.496-10.944c.32.021.714.053 1.184.096.469.021.981.043 1.536.064h19.264c.81 0 1.504-.021 2.08-.064.576-.043 1.034-.075 1.376-.096v3.136l-1.44-.096a28.71 28.71 0 0 0-1.984-.064h-17.568c-.875 0-1.707.021-2.496.064-.79.021-1.44.053-1.952.096v-3.136Zm37.743-10.72c.469.256 1.024.587 1.664.992.64.405 1.301.832 1.984 1.28.682.448 1.312.875 1.888 1.28.597.384 1.066.704 1.408.96l-1.504 2.176a148.22 148.22 0 0 0-1.44-1.024 57.117 57.117 0 0 0-1.856-1.248 42.525 42.525 0 0 0-1.952-1.248 42.869 42.869 0 0 0-1.632-1.024l1.44-2.144Zm-4.8 22.88a41.56 41.56 0 0 0 3.615-.832 46.885 46.885 0 0 0 3.681-1.248 26.828 26.828 0 0 0 3.424-1.664 37.333 37.333 0 0 0 4.928-3.392 32.891 32.891 0 0 0 4.096-3.968 27.736 27.736 0 0 0 3.104-4.352l1.536 2.624c-1.387 2.155-3.147 4.224-5.28 6.208a39.798 39.798 0 0 1-7.008 5.248 32.247 32.247 0 0 1-3.552 1.728c-1.259.512-2.507.96-3.744 1.344a36.077 36.077 0 0 1-3.328.896l-1.472-2.592Zm-.032-15.68a23.73 23.73 0 0 1 1.696.96 72.57 72.57 0 0 1 2.016 1.216c.682.405 1.322.8 1.92 1.184.597.384 1.066.704 1.408.96l-1.472 2.24c-.406-.299-.907-.64-1.504-1.024a35.22 35.22 0 0 0-1.856-1.216 70.894 70.894 0 0 0-1.952-1.216 25.644 25.644 0 0 0-1.664-.928l1.408-2.176Zm34.336-.192c.192.021.49.043.896.064l1.28.064h14.56c.362-.021.65-.043.864-.064a6.22 6.22 0 0 0-.032.736v17.696c.021.341.042.629.064.864h-2.528c.021-.192.032-.459.032-.8v-16.16h-11.872c-.278 0-.64.011-1.088.032-.427 0-.854.011-1.28.032-.406.021-.704.032-.896.032v-2.496Zm.704 7.616c.32.021.736.043 1.248.064.533.021 1.066.032 1.6.032h12.832v2.304h-12.8c-.555 0-1.099.011-1.632.032-.512 0-.928.011-1.248.032v-2.464Zm-1.088 7.968c.256.021.618.053 1.088.096.469.021.981.032 1.536.032h14.144v2.368h-14.113c-.511 0-1.023.011-1.535.032a28.58 28.58 0 0 1-1.12.032v-2.56Zm32.512-21.472c.576.384 1.238.864 1.988 1.44.74.555 1.5 1.152 2.27 1.792.79.619 1.52 1.227 2.21 1.824.68.597 1.24 1.12 1.69 1.568l-2.01 2.016c-.41-.405-.93-.907-1.57-1.504a55.995 55.995 0 0 0-2.11-1.856c-.77-.661-1.53-1.28-2.276-1.856a24.733 24.733 0 0 0-2.016-1.472l1.824-1.952Zm-2.752 21.44c1.877-.277 3.584-.661 5.12-1.152a31.536 31.536 0 0 0 4.26-1.664 37.73 37.73 0 0 0 3.42-1.856 27.881 27.881 0 0 0 4.54-3.52 32.033 32.033 0 0 0 3.65-4.16c1.05-1.429 1.88-2.795 2.5-4.096l1.53 2.72c-.72 1.323-1.62 2.667-2.68 4.032a35.284 35.284 0 0 1-3.62 3.936 29.5 29.5 0 0 1-4.45 3.424 44.9 44.9 0 0 1-3.52 1.952c-1.26.64-2.64 1.227-4.16 1.76-1.49.512-3.124.928-4.894 1.248l-1.696-2.624Zm42.21-23.296c-.13.64-.3 1.397-.51 2.272-.2.853-.52 1.824-.96 2.912-.39.96-.87 1.952-1.44 2.976a21.388 21.388 0 0 1-1.8 2.784 6.49 6.49 0 0 1 1.38-.64 7.934 7.934 0 0 1 1.57-.416 9.902 9.902 0 0 1 1.5-.128c1.24 0 2.28.352 3.14 1.056.85.683 1.28 1.685 1.28 3.008v3.552l.06 2.016c.02.661.03 1.237.03 1.728h-2.46c.02-.427.04-.928.06-1.504.02-.576.04-1.184.04-1.824.02-.64.02-1.248 0-1.824v-1.472c0-.939-.29-1.621-.87-2.048-.55-.448-1.26-.672-2.11-.672-1 0-2 .224-2.98.672-.96.427-1.8.981-2.52 1.664-.47.448-.94.96-1.41 1.536-.45.555-.95 1.152-1.51 1.792l-2.17-1.6c1.53-1.493 2.81-2.891 3.84-4.192 1.02-1.301 1.85-2.507 2.49-3.616.64-1.131 1.14-2.144 1.51-3.04.34-.896.62-1.792.83-2.688.21-.917.34-1.76.38-2.528l2.63.224Zm-10.95 3.456c.86.107 1.78.192 2.79.256 1 .064 1.87.096 2.62.096 1.43 0 2.97-.032 4.61-.096 1.64-.085 3.3-.203 4.96-.352 1.68-.149 3.28-.363 4.8-.64l-.03 2.368c-1.11.192-2.3.352-3.55.48-1.26.107-2.54.203-3.84.288-1.31.064-2.56.117-3.78.16-1.2.021-2.3.032-3.33.032h-1.57c-.57-.021-1.18-.043-1.82-.064-.64-.043-1.26-.085-1.86-.128v-2.4Zm24.45 7.744c-.28.064-.59.16-.93.288-.32.107-.65.224-.99.352-.32.128-.63.256-.93.384-1.11.427-2.4.949-3.87 1.568a57.985 57.985 0 0 0-4.51 2.144 19.114 19.114 0 0 0-2.82 1.696c-.81.576-1.45 1.184-1.92 1.824-.47.619-.7 1.301-.7 2.048 0 .619.14 1.12.42 1.504.29.384.71.683 1.24.896.54.192 1.14.32 1.83.384.7.064 1.47.096 2.3.096 1.24 0 2.65-.064 4.23-.192 1.6-.149 3.1-.341 4.51-.576l-.07 2.56a71.013 71.013 0 0 1-5.82.48c-1.02.064-2.01.096-2.94.096-1.52 0-2.91-.139-4.16-.416-1.24-.277-2.23-.768-2.98-1.472s-1.12-1.707-1.12-3.008c0-.96.22-1.835.67-2.624a8.48 8.48 0 0 1 1.79-2.208c.77-.661 1.61-1.269 2.53-1.824.92-.576 1.86-1.099 2.82-1.568a42.877 42.877 0 0 1 2.88-1.44c.91-.405 1.78-.779 2.59-1.12.81-.341 1.57-.683 2.27-1.024.47-.213.92-.416 1.35-.608.42-.192.85-.405 1.28-.64l1.05 2.4Zm10.72-8c1.15.128 2.44.224 3.87.288 1.45.064 2.98.096 4.58.096 1.02 0 2.05-.021 3.07-.064 1.05-.043 2.04-.096 2.98-.16.96-.064 1.82-.139 2.59-.224v2.624a122.734 122.734 0 0 1-5.57.352c-1.04.021-2.06.032-3.04.032a98.348 98.348 0 0 1-8.48-.352v-2.592Zm1.28 12.896a12.67 12.67 0 0 0-.48 1.856 9.69 9.69 0 0 0-.16 1.76c0 1.237.62 2.24 1.86 3.008 1.26.747 3.17 1.12 5.73 1.12 1.49 0 2.91-.043 4.25-.128 1.37-.107 2.61-.256 3.75-.448 1.15-.192 2.13-.416 2.94-.672l.03 2.752a31.6 31.6 0 0 1-2.85.544c-1.11.192-2.34.331-3.71.416-1.36.107-2.81.16-4.35.16-2.16 0-4-.235-5.54-.704-1.53-.469-2.71-1.163-3.52-2.08s-1.21-2.048-1.21-3.392c0-.832.07-1.621.22-2.368.15-.747.3-1.44.45-2.08l2.59.256Zm16.71-16.48c.27.384.57.843.89 1.376.32.512.63 1.045.93 1.6.32.533.59 1.013.8 1.44l-1.73.8c-.32-.661-.72-1.419-1.21-2.272-.5-.853-.96-1.589-1.41-2.208l1.73-.736Zm3.52-1.28c.29.405.61.875.96 1.408.34.533.67 1.067.99 1.6.32.512.57.971.77 1.376l-1.76.768c-.35-.704-.76-1.461-1.25-2.272-.47-.832-.94-1.547-1.41-2.144l1.7-.736Zm18.84 7.232v2.528h10.69v-2.528h-10.69Zm0-4.256v2.528h10.69V763h-10.69Zm-2.2-1.824h15.2v10.464h-15.2v-10.464Zm-1.44 12.768h18.4v2.016h-18.4v-2.016Zm7.84.992h2.27v13.088l-2.27-.928v-12.16Zm-4.29 5.888c.57 1.771 1.32 3.093 2.24 3.968a6.91 6.91 0 0 0 3.26 1.728c1.26.277 2.64.416 4.13.416h4.9c.59 0 1.04-.011 1.34-.032a5.305 5.305 0 0 0-.58 1.44c-.06.277-.11.523-.16.736h-5.6c-1.34 0-2.58-.107-3.71-.32a9.101 9.101 0 0 1-3.07-1.088c-.92-.533-1.73-1.301-2.43-2.304-.71-1.024-1.3-2.347-1.79-3.968l1.47-.576Zm5.85-1.088h7.43v1.984h-7.43v-1.984Zm-7.32-2.24 2.2.256c-.32 2.624-.9 4.928-1.76 6.912-.85 1.963-2 3.595-3.45 4.896a3.15 3.15 0 0 0-.51-.512 16 16 0 0 1-.71-.544c-.21-.171-.4-.299-.57-.384 1.42-1.131 2.51-2.592 3.26-4.384.77-1.813 1.28-3.893 1.54-6.24Zm-12.8-.384c1.23-.32 2.73-.747 4.48-1.28 1.74-.555 3.52-1.109 5.31-1.664l.32 2.176c-1.65.555-3.3 1.109-4.96 1.664-1.67.533-3.18 1.024-4.55 1.472l-.6-2.368Zm.35-10.528h9.76v2.24h-9.76v-2.24Zm3.97-6.432h2.24v26.4c0 .661-.09 1.163-.26 1.504-.15.363-.43.64-.83.832-.39.192-.9.32-1.54.384s-1.47.085-2.49.064c-.03-.277-.11-.64-.26-1.088-.13-.427-.27-.8-.42-1.12.69.021 1.3.032 1.86.032.58 0 .96-.011 1.15-.032.19 0 .33-.043.42-.128.08-.064.13-.213.13-.448v-26.4Zm41.5-.032h2.4v3.68h-2.4v-3.68Zm-.03 16.864h2.4v12.544h-2.4v-12.544Zm-12.16-14.464h27.04v4.608h-2.34v-2.56h-22.43v2.56h-2.27v-4.608Zm-.35 5.408h27.74v1.952h-27.74v-1.952Zm-.55 11.712h28.71v2.048h-28.71v-2.048Zm11.43-14.72 2.27.704c-.69.917-1.43 1.899-2.24 2.944-.79 1.045-1.58 2.059-2.37 3.04-.77.981-1.48 1.845-2.14 2.592l-2.24-.704a56.87 56.87 0 0 0 2.2-2.592c.79-1.003 1.58-2.016 2.37-3.04a96.907 96.907 0 0 0 2.15-2.944Zm-4.84 8.32 1.35-1.472c1.53.256 3.15.587 4.86.992 1.71.384 3.41.8 5.12 1.248 1.71.427 3.32.875 4.83 1.344 1.52.448 2.84.885 3.97 1.312l-1.44 1.76c-1.04-.427-2.31-.875-3.81-1.344-1.47-.469-3.06-.939-4.76-1.408a132.96 132.96 0 0 0-5.19-1.312c-1.73-.427-3.37-.8-4.93-1.12Zm5.6 7.456 1.76.832c-.94 1.109-2.12 2.165-3.55 3.168a27.567 27.567 0 0 1-4.57 2.624 29.32 29.32 0 0 1-4.9 1.792 4.99 4.99 0 0 0-.45-.64c-.17-.235-.35-.469-.54-.704a5.1 5.1 0 0 0-.51-.608c1.62-.341 3.24-.832 4.86-1.472a30.96 30.96 0 0 0 4.51-2.272c1.39-.875 2.52-1.781 3.39-2.72Zm4.23-.032c.91.96 2.08 1.867 3.49 2.72a32.59 32.59 0 0 0 4.6 2.272c1.67.64 3.31 1.141 4.93 1.504-.15.149-.33.341-.54.576-.19.256-.39.501-.58.736-.17.256-.31.491-.41.704a31.835 31.835 0 0 1-4.93-1.824 30.79 30.79 0 0 1-4.67-2.656c-1.46-1.003-2.67-2.08-3.65-3.232l1.76-.8Zm3.49-11.648h2.52a11.3 11.3 0 0 1-1.69 3.04c-.71.896-1.58 1.696-2.63 2.4-1.02.683-2.28 1.269-3.77 1.76-1.47.491-3.21.907-5.22 1.248-2 .32-4.32.576-6.94.768a4.423 4.423 0 0 0-.32-.992c-.17-.384-.32-.704-.45-.96 2.5-.149 4.68-.352 6.56-.608 1.88-.277 3.49-.619 4.83-1.024 1.35-.405 2.48-.875 3.39-1.408.92-.555 1.68-1.173 2.28-1.856a9.3 9.3 0 0 0 1.44-2.368Zm17.56-4.352c-.04.256-.08.576-.12.96-.03.384-.06.768-.1 1.152-.02.384-.03.715-.03.992-.02.661-.03 1.419-.03 2.272l.06 2.624c.04.896.11 1.792.19 2.688.17 1.771.46 3.328.87 4.672.4 1.323.89 2.357 1.47 3.104.59.747 1.27 1.12 2.01 1.12.41 0 .8-.181 1.19-.544.38-.384.74-.885 1.09-1.504.36-.64.68-1.344.96-2.112.29-.789.54-1.579.73-2.368l2.02 2.272c-.64 1.813-1.29 3.253-1.95 4.32-.64 1.045-1.31 1.803-1.99 2.272-.66.469-1.35.704-2.08.704-1 0-1.97-.363-2.91-1.088-.94-.747-1.75-1.941-2.43-3.584-.69-1.664-1.18-3.872-1.47-6.624-.11-.939-.2-1.952-.26-3.04-.04-1.088-.08-2.123-.1-3.104v-2.4c0-.363-.01-.832-.03-1.408-.02-.576-.08-1.056-.19-1.44l3.1.064Zm16.68.896c.57.725 1.12 1.579 1.63 2.56.53.96 1.01 1.995 1.44 3.104.45 1.088.84 2.219 1.18 3.392.36 1.173.65 2.347.87 3.52.23 1.152.4 2.261.51 3.328l-2.56 1.056a36.658 36.658 0 0 0-.67-4.416 39.836 39.836 0 0 0-1.19-4.384 31.12 31.12 0 0 0-1.63-4.032c-.62-1.259-1.31-2.347-2.08-3.264l2.5-.864Zm22.36-3.744c-.1.363-.21.8-.32 1.312-.1.512-.19.928-.25 1.248-.15.768-.33 1.664-.55 2.688a75.03 75.03 0 0 1-.67 3.168c-.23 1.109-.5 2.197-.8 3.264a83.172 83.172 0 0 1-1.02 3.712c-.41 1.323-.83 2.656-1.28 4a78.569 78.569 0 0 1-2.69 6.944l-2.82-.96c.49-.832.98-1.824 1.48-2.976.51-1.173 1-2.421 1.47-3.744.49-1.323.94-2.635 1.34-3.936.43-1.323.79-2.539 1.09-3.648.21-.747.42-1.536.61-2.368.19-.832.37-1.643.54-2.432.17-.811.31-1.547.42-2.208.13-.683.22-1.237.29-1.664.06-.448.1-.917.12-1.408.02-.491.01-.907-.03-1.248l3.07.256Zm-7.1 5.344c1.19 0 2.47-.053 3.84-.16a59.76 59.76 0 0 0 4.22-.544c1.43-.235 2.81-.523 4.13-.864v2.528c-1.32.299-2.71.555-4.16.768-1.45.213-2.88.384-4.29.512a49.176 49.176 0 0 1-5.72.128c-.6-.043-1.19-.075-1.76-.096l-.1-2.496c.77.085 1.45.149 2.05.192.62.021 1.21.032 1.79.032Zm10.11 4.416c.85-.085 1.78-.149 2.79-.192 1.02-.064 2.04-.096 3.07-.096.94 0 1.87.021 2.81.064.96.043 1.87.117 2.72.224l-.06 2.432a42.88 42.88 0 0 0-2.59-.256 30.31 30.31 0 0 0-2.79-.128c-1 0-2 .032-3 .096-.99.043-1.97.117-2.95.224v-2.368Zm.67 7.776c-.12.512-.23 1.013-.32 1.504-.08.491-.12.949-.12 1.376 0 .384.06.757.19 1.12.15.341.41.651.8.928.38.277.93.501 1.63.672.72.171 1.65.256 2.78.256 1.05 0 2.1-.053 3.17-.16 1.07-.107 2.09-.267 3.07-.48l-.09 2.592c-.86.128-1.81.235-2.85.32-1.05.085-2.16.128-3.33.128-2.52 0-4.45-.384-5.79-1.152-1.34-.789-2.02-1.973-2.02-3.552 0-.619.05-1.237.13-1.856.11-.619.23-1.259.35-1.92l2.4.224Zm25.03-17.28c-.09.533-.15 1.077-.19 1.632-.05.533-.08 1.067-.1 1.6-.04.896-.09 2.005-.13 3.328-.04 1.323-.08 2.731-.13 4.224a325.224 325.224 0 0 0-.12 8.384c0 1.173.22 2.112.67 2.816a3.683 3.683 0 0 0 1.85 1.504c.79.299 1.7.448 2.72.448 1.45 0 2.77-.181 3.94-.544 1.17-.384 2.22-.885 3.14-1.504.91-.64 1.72-1.355 2.43-2.144.72-.789 1.37-1.6 1.95-2.432l1.82 2.176c-.55.768-1.23 1.568-2.04 2.4-.79.811-1.73 1.568-2.82 2.272-1.09.704-2.35 1.28-3.78 1.728-1.4.448-2.98.672-4.73.672-1.52 0-2.86-.235-4.03-.704-1.18-.469-2.1-1.227-2.76-2.272-.66-1.045-.99-2.432-.99-4.16 0-.96.01-2.016.03-3.168.02-1.173.06-2.379.1-3.616.04-1.237.07-2.443.1-3.616.02-1.195.04-2.293.06-3.296.02-1.003.03-1.835.03-2.496 0-.597-.02-1.173-.06-1.728-.05-.555-.11-1.067-.19-1.536l3.23.032Zm39.45-.48c-.04.277-.08.587-.12.928-.03.341-.05.747-.07 1.216 0 .32-.01.8-.03 1.44v6.816c0 1.067.02 2.187.06 3.36.05 1.173.1 2.315.16 3.424.07 1.109.12 2.123.16 3.04.05.917.07 1.643.07 2.176 0 .747-.18 1.461-.55 2.144-.34.683-.92 1.237-1.76 1.664-.81.448-1.92.672-3.32.672-2.31 0-4.07-.405-5.28-1.216-1.22-.789-1.83-1.952-1.83-3.488 0-.981.29-1.835.87-2.56.59-.725 1.45-1.291 2.56-1.696 1.1-.427 2.43-.64 3.96-.64 1.69 0 3.27.203 4.74.608 1.49.384 2.86.875 4.1 1.472 1.23.597 2.33 1.227 3.29 1.888.96.64 1.75 1.216 2.37 1.728l-1.47 2.272a24.391 24.391 0 0 0-2.53-2.048 23.112 23.112 0 0 0-3.1-1.888 17.457 17.457 0 0 0-3.62-1.376c-1.28-.363-2.65-.544-4.1-.544-1.53 0-2.71.256-3.52.768-.79.512-1.18 1.141-1.18 1.888 0 .469.15.907.45 1.312.3.384.78.693 1.44.928.66.235 1.51.352 2.56.352.62 0 1.18-.075 1.69-.224a2.4 2.4 0 0 0 1.22-.864c.32-.405.48-.971.48-1.696 0-.619-.02-1.419-.06-2.4-.03-1.003-.06-2.059-.1-3.168-.04-1.131-.09-2.219-.13-3.264-.02-1.045-.03-1.92-.03-2.624v-6.624c.02-.683.03-1.301.03-1.856 0-.256-.01-.587-.03-.992-.02-.405-.05-.715-.1-.928h2.72Zm-12.25 3.488c.53.085 1.15.171 1.85.256.71.085 1.44.171 2.21.256.79.064 1.54.117 2.24.16.73.021 1.36.032 1.89.032 2.03 0 4.1-.075 6.21-.224a67.88 67.88 0 0 0 6.3-.736l-.03 2.336c-1.17.128-2.45.256-3.84.384-1.39.128-2.82.235-4.29.32-1.45.085-2.89.128-4.32.128-.75 0-1.63-.032-2.65-.096-1.03-.064-2.04-.139-3.04-.224-.99-.085-1.82-.16-2.5-.224l-.03-2.368Zm-.16 6.784a67.4 67.4 0 0 0 1.92.256c.7.085 1.43.149 2.17.192.75.043 1.46.085 2.15.128.68.021 1.29.032 1.82.032 1.56 0 3.06-.032 4.51-.096 1.48-.085 2.92-.192 4.32-.32 1.43-.149 2.84-.331 4.23-.544l-.03 2.4a85.48 85.48 0 0 1-3.2.384 155.475 155.475 0 0 1-6.4.384c-1.09.021-2.24.032-3.46.032-.73 0-1.57-.021-2.53-.064-.94-.043-1.9-.096-2.88-.16-.96-.064-1.82-.139-2.59-.224l-.03-2.4Zm46.14-10.208c0 .107-.02.299-.06.576-.02.277-.05.555-.07.832 0 .256-.01.459-.03.608-.02.405-.03.96-.03 1.664v4.832c.02.853.03 1.653.03 2.4.02.747.03 1.376.03 1.888l-2.46-1.216v-3.456c0-.811-.01-1.611-.03-2.4 0-.789-.01-1.515-.03-2.176-.03-.661-.05-1.173-.07-1.536-.02-.427-.05-.832-.09-1.216-.05-.405-.08-.672-.1-.8h2.91Zm-16.99 4.448c.87 0 1.87-.011 2.98-.032 1.1-.043 2.28-.085 3.52-.128 1.25-.043 2.52-.075 3.8-.096 1.28-.021 2.51-.043 3.68-.064 1.2-.021 2.3-.032 3.3-.032h5.57c.85 0 1.6.011 2.24.032h1.57l-.04 2.368c-.89-.043-2.1-.075-3.61-.096-1.5-.043-3.42-.064-5.76-.064-1.39 0-2.84.021-4.35.064-1.5.021-3 .053-4.52.096-1.51.043-2.98.107-4.41.192-1.41.064-2.71.139-3.91.224l-.06-2.464Zm16.8 9.312c0 1.408-.21 2.592-.64 3.552-.41.96-.98 1.675-1.73 2.144-.72.469-1.58.704-2.56.704-.66 0-1.31-.107-1.95-.32a5.653 5.653 0 0 1-1.7-1.024 5.405 5.405 0 0 1-1.18-1.696c-.28-.683-.42-1.451-.42-2.304 0-1.067.26-2.016.77-2.848a5.725 5.725 0 0 1 2.05-1.984 5.643 5.643 0 0 1 2.82-.736c1.25 0 2.29.288 3.1.864.83.555 1.46 1.323 1.89 2.304.42.96.64 2.059.64 3.296 0 1.067-.16 2.155-.48 3.264-.3 1.109-.81 2.176-1.54 3.2-.7 1.024-1.67 1.963-2.91 2.816-1.22.832-2.76 1.525-4.64 2.08l-2.14-2.112c1.45-.341 2.75-.779 3.9-1.312s2.12-1.184 2.91-1.952a7.54 7.54 0 0 0 1.79-2.688c.43-1.024.64-2.197.64-3.52 0-1.451-.31-2.496-.92-3.136-.62-.64-1.37-.96-2.24-.96-.56 0-1.08.139-1.57.416-.49.256-.9.64-1.22 1.152-.3.512-.45 1.12-.45 1.824 0 1.003.32 1.781.96 2.336a3.48 3.48 0 0 0 2.31.832c.66 0 1.22-.181 1.69-.544.47-.384.8-.949 1-1.696.21-.768.23-1.717.06-2.848l1.76.896Z"/>
    <path fill="#666" d="M784.282 886.572h23.996v5.712h-2.072v-3.864H786.27v3.864h-1.988v-5.712Zm3.416 5.012h15.652v1.96h-15.652v-1.96Zm17.528-13.216 1.456 1.708c-1.4.28-2.968.541-4.704.784-1.736.243-3.566.457-5.488.644-1.904.168-3.836.317-5.796.448-1.942.131-3.827.233-5.656.308a3.75 3.75 0 0 0-.196-.924 8.991 8.991 0 0 0-.28-.896c1.81-.075 3.668-.177 5.572-.308a251.12 251.12 0 0 0 5.656-.448 107.83 107.83 0 0 0 5.208-.588 59.433 59.433 0 0 0 4.228-.728Zm-18.312 4.48 1.82-.532c.41.56.802 1.195 1.176 1.904.373.709.634 1.307.784 1.792l-1.904.644c-.15-.523-.411-1.139-.784-1.848a19.001 19.001 0 0 0-1.092-1.96Zm7.448-.616 1.876-.42c.336.653.644 1.363.924 2.128.298.747.485 1.4.56 1.96l-1.96.504c-.094-.541-.271-1.204-.532-1.988a17.28 17.28 0 0 0-.868-2.184Zm9.548-.476 2.156.644c-.336.597-.7 1.213-1.092 1.848a42.997 42.997 0 0 1-2.24 3.332l-1.68-.588c.317-.467.653-.999 1.008-1.596.354-.616.7-1.241 1.036-1.876.336-.653.606-1.241.812-1.764Zm-1.316 9.828h.448l.392-.084 1.4.896a16.123 16.123 0 0 1-3.36 4.648 20.425 20.425 0 0 1-4.676 3.388 31.62 31.62 0 0 1-5.656 2.268 47.244 47.244 0 0 1-6.216 1.456 5.589 5.589 0 0 0-.336-.616 5.568 5.568 0 0 0-.448-.7 5.604 5.604 0 0 0-.42-.56 51.031 51.031 0 0 0 6.048-1.232 30.646 30.646 0 0 0 5.432-2.044c1.661-.821 3.126-1.811 4.396-2.968a13.159 13.159 0 0 0 2.996-4.088v-.364Zm-12.18 1.316c1.082 1.717 2.52 3.211 4.312 4.48 1.81 1.251 3.901 2.277 6.272 3.08 2.389.803 4.993 1.381 7.812 1.736-.15.149-.308.336-.476.56l-.448.728c-.15.243-.271.467-.364.672-2.838-.429-5.46-1.092-7.868-1.988-2.408-.896-4.555-2.053-6.44-3.472a18.82 18.82 0 0 1-4.62-5.04l1.82-.756Zm29.512-8.204h17.052v2.128h-17.052v-2.128Zm11.368-5.88h2.156v22.54c0 .803-.122 1.391-.364 1.764-.243.373-.626.644-1.148.812-.542.168-1.307.271-2.296.308-.99.037-2.24.047-3.752.028a5.054 5.054 0 0 0-.196-.672 22.478 22.478 0 0 0-.308-.756 11.063 11.063 0 0 0-.336-.672c.784.037 1.54.056 2.268.056.746.019 1.39.019 1.932 0h1.12c.336-.019.569-.093.7-.224.149-.112.224-.327.224-.644v-22.54Zm-9.604 11.816 1.82-.868c.485.728.989 1.512 1.512 2.352.541.84 1.054 1.652 1.54 2.436.485.784.877 1.465 1.176 2.044l-1.96 1.064a27.917 27.917 0 0 0-1.12-2.1 77.87 77.87 0 0 0-1.456-2.492 75.464 75.464 0 0 0-1.512-2.436Zm-6.216-4.536 2.1-2.1v20.188h-2.1v-18.088Zm3.052-7.448 2.044.644a44.28 44.28 0 0 1-2.212 4.788 43.089 43.089 0 0 1-2.716 4.424 30.123 30.123 0 0 1-3.024 3.64 5.103 5.103 0 0 0-.364-.644c-.15-.28-.308-.551-.476-.812a5.317 5.317 0 0 0-.476-.644 23.859 23.859 0 0 0 2.8-3.192 31.703 31.703 0 0 0 2.464-3.92 32.764 32.764 0 0 0 1.96-4.284Zm31.528 3.164h14.028v1.876h-14.028v-1.876Zm-1.176 5.432h16.38v1.904h-16.38v-1.904Zm.14 5.068h15.96v1.876h-15.96v-1.876Zm6.916-13.86h2.072v9.968h-2.072v-9.968Zm3.696 10.388h2.072v12.908c0 .597-.084 1.055-.252 1.372-.168.336-.467.579-.896.728-.448.168-1.036.271-1.764.308-.728.037-1.662.056-2.8.056a4.708 4.708 0 0 0-.28-1.008 7.114 7.114 0 0 0-.42-.98c.858.019 1.642.028 2.352.028.709.019 1.176.019 1.4 0 .224 0 .373-.037.448-.112.093-.075.14-.215.14-.42v-12.88Zm-8.904 7.308 1.68-.98c.466.467.942.989 1.428 1.568.485.579.924 1.148 1.316 1.708.41.56.718 1.073.924 1.54l-1.792 1.092a9.254 9.254 0 0 0-.896-1.54 20.606 20.606 0 0 0-1.26-1.736 26.325 26.325 0 0 0-1.4-1.652Zm-9.324-15.848h7v18.424h-7v-1.904h5.012v-14.588h-5.012V880.3Zm.084 8.148h5.852v1.904h-5.852v-1.904Zm-1.092-8.148h1.96v20.72h-1.96V880.3Zm35.616 15.344h8.484v1.624h-8.484v-1.624Zm-.112-4.228h9.548v10.22h-9.548v-1.652h7.588v-6.916h-7.588v-1.652Zm-.896 0h1.904v11.648h-1.904v-11.648Zm-5.18-7.756h7.784v1.54h-7.784v-1.54Zm12.908 0h7.952v1.54h-7.952v-1.54Zm7.056-3.976h2.128v21.784c0 .653-.094 1.167-.28 1.54-.168.373-.486.653-.952.84-.448.187-1.064.299-1.848.336-.766.037-1.727.056-2.884.056a7.845 7.845 0 0 0-.168-.7 6.636 6.636 0 0 0-.28-.784 6.388 6.388 0 0 0-.28-.672c.56.019 1.101.028 1.624.028h2.296c.242-.019.41-.075.504-.168.093-.093.14-.261.14-.504v-21.756Zm-19.796 0h8.96v9.604h-8.96v-1.596h7v-6.384h-7v-1.624Zm20.86 0v1.624h-7.364v6.412h7.364v1.624h-9.352v-9.66h9.352Zm-22.064 0h2.1v24.584h-2.1v-24.584Zm39.48 7.084c-.56 0-1.055-.187-1.484-.56-.43-.392-.644-.905-.644-1.54s.214-1.139.644-1.512a2.135 2.135 0 0 1 1.484-.588c.56 0 1.054.196 1.484.588.429.373.644.877.644 1.512s-.215 1.148-.644 1.54c-.43.373-.924.56-1.484.56Zm0 13.72c-.56 0-1.055-.187-1.484-.56-.43-.392-.644-.905-.644-1.54 0-.653.214-1.167.644-1.54a2.135 2.135 0 0 1 1.484-.588c.56 0 1.054.196 1.484.588.429.373.644.887.644 1.54 0 .635-.215 1.148-.644 1.54-.43.373-.924.56-1.484.56Zm16.94-20.132h22.064v2.1h-22.064v-2.1Zm-1.484 11.9h25.116v2.1h-25.116v-2.1Zm3.416-7.896 1.904-.56c.373.672.737 1.391 1.092 2.156.354.765.672 1.521.952 2.268.298.728.504 1.363.616 1.904l-1.988.7a15.005 15.005 0 0 0-.616-1.932 36.49 36.49 0 0 0-.896-2.296 25.158 25.158 0 0 0-1.064-2.24Zm16.268-.7 2.212.616a44.81 44.81 0 0 1-1.12 2.352 89.421 89.421 0 0 1-1.176 2.324c-.392.747-.775 1.4-1.148 1.96l-1.82-.588c.354-.597.718-1.279 1.092-2.044.392-.784.756-1.577 1.092-2.38.336-.821.625-1.568.868-2.24Zm-8.288-2.492h2.184v23.044h-2.184v-23.044Zm20.076-.784h18.368v23.408h-2.24v-21.308H957.35v21.448h-2.156v-23.548Zm1.456 9.688h15.624v2.072H956.65v-2.072Zm-.056 9.94h15.708v2.1h-15.708v-2.1ZM995.479 902h-2.408v-15.344c.019-.373.037-.719.056-1.036l.056-1.036a13.33 13.33 0 0 1-.812.756l-.924.784-2.128 1.736-1.288-1.652 5.404-4.2h2.044V902Zm20.731-10.024c0 1.624-.12 3.071-.37 4.34-.24 1.269-.63 2.352-1.17 3.248-.53.877-1.22 1.549-2.08 2.016-.84.467-1.85.7-3.05.7-1.49 0-2.73-.411-3.72-1.232-.97-.821-1.7-1.997-2.19-3.528-.46-1.549-.7-3.397-.7-5.544 0-2.165.22-4.013.65-5.544.45-1.531 1.16-2.697 2.13-3.5.97-.821 2.25-1.232 3.83-1.232 1.5 0 2.74.411 3.73 1.232.99.803 1.72 1.969 2.21 3.5.48 1.531.73 3.379.73 5.544Zm-10.81 0c0 1.829.13 3.351.39 4.564.28 1.213.72 2.128 1.32 2.744.61.597 1.42.896 2.43.896 1.01 0 1.81-.299 2.41-.896.62-.597 1.06-1.503 1.34-2.716.28-1.232.42-2.763.42-4.592 0-1.829-.14-3.341-.42-4.536-.28-1.213-.72-2.119-1.34-2.716-.6-.616-1.4-.924-2.41-.924-1.01 0-1.82.308-2.43.924-.6.597-1.04 1.503-1.32 2.716-.26 1.195-.39 2.707-.39 4.536Zm14.2 8.512c0-.691.17-1.176.51-1.456.33-.28.73-.42 1.2-.42.49 0 .9.14 1.23.42.36.28.53.765.53 1.456 0 .672-.17 1.157-.53 1.456-.33.299-.74.448-1.23.448-.47 0-.87-.149-1.2-.448-.34-.299-.51-.784-.51-1.456Zm0-11.984c0-.709.17-1.204.51-1.484.33-.28.73-.42 1.2-.42.49 0 .9.14 1.23.42.36.28.53.775.53 1.484 0 .672-.17 1.157-.53 1.456-.33.299-.74.448-1.23.448-.47 0-.87-.149-1.2-.448-.34-.299-.51-.784-.51-1.456Zm20.12 3.472c0 1.624-.12 3.071-.36 4.34-.24 1.269-.64 2.352-1.18 3.248a5.34 5.34 0 0 1-2.07 2.016c-.84.467-1.86.7-3.05.7-1.5 0-2.74-.411-3.73-1.232-.97-.821-1.69-1.997-2.18-3.528-.47-1.549-.7-3.397-.7-5.544 0-2.165.21-4.013.64-5.544.45-1.531 1.16-2.697 2.13-3.5.97-.821 2.25-1.232 3.84-1.232 1.49 0 2.73.411 3.72 1.232.99.803 1.73 1.969 2.21 3.5.49 1.531.73 3.379.73 5.544Zm-10.81 0c0 1.829.13 3.351.4 4.564.28 1.213.71 2.128 1.31 2.744.62.597 1.43.896 2.44.896s1.81-.299 2.41-.896c.61-.597 1.06-1.503 1.34-2.716.28-1.232.42-2.763.42-4.592 0-1.829-.14-3.341-.42-4.536-.28-1.213-.73-2.119-1.34-2.716-.6-.616-1.4-.924-2.41-.924-1.01 0-1.82.308-2.44.924-.6.597-1.03 1.503-1.31 2.716-.27 1.195-.4 2.707-.4 4.536Zm26.84 0c0 1.624-.13 3.071-.37 4.34-.24 1.269-.63 2.352-1.17 3.248-.53.877-1.22 1.549-2.08 2.016-.84.467-1.85.7-3.05.7-1.49 0-2.73-.411-3.72-1.232-.97-.821-1.7-1.997-2.19-3.528-.46-1.549-.7-3.397-.7-5.544 0-2.165.22-4.013.65-5.544.45-1.531 1.15-2.697 2.13-3.5.97-.821 2.24-1.232 3.83-1.232 1.49 0 2.74.411 3.73 1.232.98.803 1.72 1.969 2.21 3.5.48 1.531.73 3.379.73 5.544Zm-10.81 0c0 1.829.13 3.351.39 4.564.28 1.213.72 2.128 1.32 2.744.61.597 1.42.896 2.43.896 1.01 0 1.81-.299 2.41-.896.62-.597 1.06-1.503 1.34-2.716.28-1.232.42-2.763.42-4.592 0-1.829-.14-3.341-.42-4.536-.28-1.213-.72-2.119-1.34-2.716-.6-.616-1.4-.924-2.41-.924-1.01 0-1.82.308-2.43.924-.6.597-1.04 1.503-1.32 2.716-.26 1.195-.39 2.707-.39 4.536Zm13.31 3.612v-2.184h6.77v2.184h-6.77Zm17.84 6.412h-2.41v-15.344c.02-.373.04-.719.06-1.036.02-.336.03-.681.05-1.036-.3.299-.57.551-.81.756-.24.205-.55.467-.92.784l-2.13 1.736-1.29-1.652 5.4-4.2h2.05V902Zm9.89 0 8.2-17.752h-10.78v-2.24h13.42v1.904L1088.7 902h-2.72Zm14.23-1.512c0-.691.17-1.176.51-1.456.33-.28.73-.42 1.2-.42.48 0 .9.14 1.23.42.36.28.53.765.53 1.456 0 .672-.17 1.157-.53 1.456-.33.299-.75.448-1.23.448-.47 0-.87-.149-1.2-.448-.34-.299-.51-.784-.51-1.456Zm0-11.984c0-.709.17-1.204.51-1.484.33-.28.73-.42 1.2-.42.48 0 .9.14 1.23.42.36.28.53.775.53 1.484 0 .672-.17 1.157-.53 1.456-.33.299-.75.448-1.23.448-.47 0-.87-.149-1.2-.448-.34-.299-.51-.784-.51-1.456Zm20.12 3.472c0 1.624-.12 3.071-.36 4.34-.25 1.269-.64 2.352-1.18 3.248a5.34 5.34 0 0 1-2.07 2.016c-.84.467-1.86.7-3.05.7-1.5 0-2.74-.411-3.73-1.232-.97-.821-1.7-1.997-2.18-3.528-.47-1.549-.7-3.397-.7-5.544 0-2.165.21-4.013.64-5.544.45-1.531 1.16-2.697 2.13-3.5.97-.821 2.25-1.232 3.84-1.232 1.49 0 2.73.411 3.72 1.232.99.803 1.73 1.969 2.21 3.5.49 1.531.73 3.379.73 5.544Zm-10.81 0c0 1.829.13 3.351.4 4.564.28 1.213.71 2.128 1.31 2.744.62.597 1.43.896 2.44.896s1.81-.299 2.41-.896c.61-.597 1.06-1.503 1.34-2.716.28-1.232.42-2.763.42-4.592 0-1.829-.14-3.341-.42-4.536-.28-1.213-.73-2.119-1.34-2.716-.6-.616-1.4-.924-2.41-.924-1.01 0-1.82.308-2.44.924-.6.597-1.03 1.503-1.31 2.716-.27 1.195-.4 2.707-.4 4.536Zm26.83 0c0 1.624-.12 3.071-.36 4.34-.24 1.269-.63 2.352-1.18 3.248a5.34 5.34 0 0 1-2.07 2.016c-.84.467-1.85.7-3.05.7-1.49 0-2.73-.411-3.72-1.232-.97-.821-1.7-1.997-2.19-3.528-.46-1.549-.7-3.397-.7-5.544 0-2.165.22-4.013.65-5.544.44-1.531 1.15-2.697 2.12-3.5.98-.821 2.25-1.232 3.84-1.232 1.49 0 2.74.411 3.72 1.232.99.803 1.73 1.969 2.22 3.5.48 1.531.72 3.379.72 5.544Zm-10.8 0c0 1.829.13 3.351.39 4.564.28 1.213.72 2.128 1.31 2.744.62.597 1.43.896 2.44.896s1.81-.299 2.41-.896c.61-.597 1.06-1.503 1.34-2.716.28-1.232.42-2.763.42-4.592 0-1.829-.14-3.341-.42-4.536-.28-1.213-.73-2.119-1.34-2.716-.6-.616-1.4-.924-2.41-.924-1.01 0-1.82.308-2.44.924-.59.597-1.03 1.503-1.31 2.716-.26 1.195-.39 2.707-.39 4.536Z"/>
  </g>
  <defs>
    <clipPath id="a">
      <path fill="#fff" d="M0 0h1920v1080H0z"/>
    </clipPath>
  </defs>
</svg>
