<svg xmlns="http://www.w3.org/2000/svg" width="1920" height="1080" fill="none" viewBox="0 0 1920 1080">
  <g clip-path="url(#a)">
    <path fill="#fff" d="M1920 0H0v1080h1920V0Z"/>
    <path fill="#000" d="M535.771 102.16h18.48v8.72h-18.48v-8.72Zm14.8 0h9.28v3.52c-.107 5.653-.24 10.293-.4 13.92-.16 3.573-.427 6.373-.8 8.4-.32 1.973-.773 3.36-1.36 4.16-.8 1.013-1.653 1.733-2.56 2.16-.853.427-1.867.747-3.04.96-1.067.213-2.427.347-4.08.4-1.6 0-3.36-.027-5.28-.08-.053-1.387-.32-2.933-.8-4.64-.48-1.707-1.067-3.147-1.76-4.32 1.44.107 2.773.187 4 .24 1.28.053 2.24.08 2.88.08.533 0 .987-.053 1.36-.16.427-.16.773-.427 1.04-.8.373-.48.64-1.467.8-2.96.213-1.547.373-3.867.48-6.96.107-3.147.187-7.307.24-12.48v-1.44Zm24-25.12 5.84-5.76a63.014 63.014 0 0 1 4.72 2.64 121.25 121.25 0 0 1 4.72 3.04c1.547 1.013 2.8 2 3.76 2.96l-6.16 6.4c-.907-.907-2.08-1.92-3.52-3.04a64.659 64.659 0 0 0-4.64-3.28 73.336 73.336 0 0 0-4.72-2.96Zm9.44 20.64 9.76 2.32c-3.36 10.4-7.947 19.6-13.76 27.6-5.813 7.947-12.693 14.373-20.64 19.28-.427-.693-1.067-1.547-1.92-2.56-.853-.96-1.733-1.947-2.64-2.96a50.89 50.89 0 0 0-2.4-2.4c7.68-4.16 14.187-9.76 19.52-16.8 5.333-7.093 9.36-15.253 12.08-24.48ZM536.251 84h61.76v9.44h-61.76V84Zm-6.4 0h10.08v23.6c0 2.987-.107 6.267-.32 9.84-.213 3.52-.613 7.147-1.2 10.88a63.395 63.395 0 0 1-2.64 10.64c-1.12 3.413-2.587 6.48-4.4 9.2-.533-.693-1.333-1.467-2.4-2.32a158.503 158.503 0 0 0-3.12-2.56c-1.013-.8-1.893-1.36-2.64-1.68 2.027-3.2 3.493-6.773 4.4-10.72.96-4 1.573-8.027 1.84-12.08.267-4.053.4-7.813.4-11.28V84Zm32.48-11.92h10.08c-.107 6.56.08 12.987.56 19.28.48 6.293 1.173 12.187 2.08 17.68.96 5.44 2.08 10.267 3.36 14.48 1.28 4.16 2.693 7.413 4.24 9.76 1.547 2.347 3.12 3.52 4.72 3.52.907 0 1.6-1.093 2.08-3.28.533-2.187.907-5.787 1.12-10.8 1.12 1.067 2.427 2.107 3.92 3.12 1.547 1.013 2.96 1.76 4.24 2.24-.48 4.96-1.2 8.8-2.16 11.52-.96 2.667-2.24 4.507-3.84 5.52-1.6 1.013-3.653 1.52-6.16 1.52-2.88 0-5.493-.987-7.84-2.96-2.293-1.973-4.347-4.72-6.16-8.24-1.76-3.52-3.28-7.653-4.56-12.4-1.28-4.747-2.347-9.893-3.2-15.44a241.962 241.962 0 0 1-1.84-17.28 343.244 343.244 0 0 1-.64-18.24Zm43.2 42.08h71.6v8.72h-71.6v-8.72Zm30.8-35.2h10.16v68.24h-10.16V78.96Zm-2.64 39.44 7.92 3.44c-2.507 3.307-5.493 6.453-8.96 9.44a74.665 74.665 0 0 1-11.04 8c-3.947 2.347-7.947 4.267-12 5.76-.48-.8-1.12-1.707-1.92-2.72a59.075 59.075 0 0 0-2.32-2.8 26.71 26.71 0 0 0-2.32-2.48c2.987-.907 5.947-2 8.88-3.28a70.967 70.967 0 0 0 8.48-4.4c2.72-1.653 5.2-3.387 7.44-5.2 2.293-1.867 4.24-3.787 5.84-5.76Zm14.56-.56c1.653 1.92 3.653 3.813 6 5.68a77.255 77.255 0 0 0 7.68 5.2 93.591 93.591 0 0 0 8.64 4.4 69.277 69.277 0 0 0 8.88 3.28 34.41 34.41 0 0 0-2.32 2.4c-.8.96-1.573 1.947-2.32 2.96a27.58 27.58 0 0 0-1.84 2.8 75.553 75.553 0 0 1-8.96-4.24 88.48 88.48 0 0 1-8.72-5.52 78.923 78.923 0 0 1-7.92-6.48c-2.453-2.293-4.64-4.667-6.56-7.12l7.44-3.36Zm-24.88-21.6v5.12h35.84v-5.12h-35.84Zm0-12.48v5.04h35.84v-5.04h-35.84Zm-10-8h56.32v33.6h-56.32v-33.6Zm100.48 22.16v6.8h7.84v-6.8h-7.84Zm0 14.48v6.88h7.84v-6.88h-7.84Zm0-28.88v6.72h7.84v-6.72h-7.84Zm-8.08-8.32h24.32v52.4h-24.32V75.2Zm13.52 56.48 7.28-4.08a74.02 74.02 0 0 1 3.12 4.08 65.691 65.691 0 0 1 3.04 4.4c.96 1.44 1.733 2.72 2.32 3.84l-7.68 4.56c-.48-1.12-1.173-2.427-2.08-3.92a93.99 93.99 0 0 0-2.96-4.56 50.472 50.472 0 0 0-3.04-4.32Zm-11.36-3.36 8.72 2.4c-1.28 3.04-2.907 6.08-4.88 9.12-1.973 3.04-3.92 5.573-5.84 7.6-.587-.48-1.36-1.04-2.32-1.68a50.993 50.993 0 0 0-2.8-1.84 53.346 53.346 0 0 0-2.48-1.44c1.92-1.76 3.733-3.92 5.44-6.48 1.76-2.56 3.147-5.12 4.16-7.68ZM747.291 72h8.72v64.4c0 2.4-.267 4.293-.8 5.68-.48 1.387-1.44 2.453-2.88 3.2-1.387.747-3.173 1.227-5.36 1.44-2.133.267-4.773.4-7.92.4-.16-1.28-.507-2.827-1.04-4.64-.533-1.76-1.093-3.28-1.68-4.56 2.027.053 3.92.107 5.68.16h3.6c.64-.053 1.067-.187 1.28-.4.267-.267.4-.693.4-1.28V72Zm-13.2 8.24h8.24v46.4h-8.24v-46.4Zm-47.6-.56 5.44-6.96c1.44.587 2.96 1.307 4.56 2.16 1.653.853 3.2 1.76 4.64 2.72 1.493.907 2.693 1.787 3.6 2.64l-5.76 7.68c-.8-.907-1.92-1.84-3.36-2.8-1.387-1.013-2.88-2-4.48-2.96a49.92 49.92 0 0 0-4.64-2.48Zm-3.04 21.44 5.28-7.12c1.493.587 3.04 1.28 4.64 2.08a38.24 38.24 0 0 1 4.64 2.48c1.493.853 2.693 1.68 3.6 2.48l-5.6 7.76c-.853-.8-2-1.68-3.44-2.64a45.35 45.35 0 0 0-4.48-2.72 46.967 46.967 0 0 0-4.64-2.32Zm1.36 40.24c1.013-2.08 2.107-4.533 3.28-7.36a257.136 257.136 0 0 0 3.68-8.96 157.08 157.08 0 0 0 3.44-9.44l7.76 4.96a168.005 168.005 0 0 1-2.88 8.8 423.826 423.826 0 0 1-3.28 8.72 436.863 436.863 0 0 1-3.36 8.24l-8.64-4.96Zm94.24-45.2h44.24v9.2h-44.24v-9.2Zm22.16 19.2h26.96v9.04h-26.96v-9.04Zm-5.04-13.84h10v38.64l-10-1.2v-37.44Zm-19.12 8.24 10 1.04c-1.067 8.16-2.88 15.36-5.44 21.6-2.56 6.24-6.133 11.333-10.72 15.28-.533-.587-1.28-1.307-2.24-2.16a47.214 47.214 0 0 0-3.04-2.48c-1.013-.8-1.893-1.44-2.64-1.92 4.32-3.2 7.573-7.493 9.76-12.88 2.187-5.44 3.627-11.6 4.32-18.48Zm7.76 10.08c1.227 3.627 2.827 6.587 4.8 8.88 2.027 2.24 4.347 3.947 6.96 5.12 2.667 1.12 5.573 1.893 8.72 2.32 3.147.427 6.48.64 10 .64h13.84c1.867-.053 3.6-.08 5.2-.08 1.6-.053 2.933-.107 4-.16-.48.8-.96 1.787-1.44 2.96a53.834 53.834 0 0 0-1.2 3.52c-.373 1.227-.64 2.347-.8 3.36h-20.08c-4.64 0-8.907-.32-12.8-.96-3.893-.64-7.413-1.813-10.56-3.52-3.093-1.653-5.867-4.053-8.32-7.2-2.4-3.147-4.453-7.253-6.16-12.32l7.84-2.56Zm11.2-47.68h10.24v14.56h-10.24V72.16Zm-29.12 8.08h68.72v20.08h-9.84V89.28h-49.44v11.04h-9.44V80.24Zm145.44 6.48c-.373.747-.72 1.653-1.04 2.72a110.622 110.622 0 0 0-.72 2.88 121.36 121.36 0 0 1-1.68 6.56 104.318 104.318 0 0 1-2.48 7.6 66.321 66.321 0 0 1-3.44 7.76 49.01 49.01 0 0 1-4.4 7.2c-2.4 3.147-5.2 6.133-8.4 8.96-3.2 2.773-6.773 5.28-10.72 7.52-3.947 2.187-8.293 4.053-13.04 5.6l-8.72-9.52c5.28-1.28 9.84-2.853 13.68-4.72 3.893-1.92 7.28-4.053 10.16-6.4 2.88-2.4 5.387-4.96 7.52-7.68a37.626 37.626 0 0 0 4.48-7.28 51.87 51.87 0 0 0 3.12-7.92c.853-2.667 1.44-5.12 1.76-7.36h-37.28c-1.813 0-3.6.027-5.36.08-1.707.053-3.093.133-4.16.24V81.68c.853.053 1.84.133 2.96.24 1.12.107 2.293.213 3.52.32 1.227.053 2.267.08 3.12.08h36.96c.8 0 1.787-.027 2.96-.08a20.005 20.005 0 0 0 3.28-.56l7.92 5.04Zm24.48 50.08c.48-1.013.773-1.893.88-2.64.107-.747.16-1.6.16-2.56V88.24c0-1.013-.053-2.08-.16-3.2a29.451 29.451 0 0 0-.32-3.2 25.289 25.289 0 0 0-.4-2.72h12.56a152.87 152.87 0 0 0-.56 4.56 42.777 42.777 0 0 0-.24 4.56v41.6c3.253-.96 6.72-2.267 10.4-3.92a104.248 104.248 0 0 0 11.2-6 91.75 91.75 0 0 0 10.64-7.68c3.36-2.773 6.32-5.733 8.88-8.88l5.68 9.04c-5.44 6.56-12.187 12.24-20.24 17.04-8 4.747-16.72 8.667-26.16 11.76-.533.213-1.227.48-2.08.8-.853.32-1.733.773-2.64 1.36l-7.6-6.56Zm71.759-33.84c.96.053 2.19.133 3.68.24 1.49.053 3.04.107 4.64.16 1.65.053 3.17.08 4.56.08h42.96c1.87 0 3.63-.053 5.28-.16 1.65-.16 3.01-.267 4.08-.32v12.56l-4.08-.24c-1.81-.107-3.57-.16-5.28-.16h-42.96c-2.29 0-4.64.053-7.04.16-2.4.053-4.35.133-5.84.24v-12.56Zm114.62-23.28a91.202 91.202 0 0 0-1.68 4c-.59 1.44-1.17 3.067-1.76 4.88-.48 1.493-1.09 3.413-1.84 5.76-.75 2.293-1.57 4.827-2.48 7.6-.91 2.72-1.87 5.547-2.88 8.48-.96 2.88-1.89 5.68-2.8 8.4-.91 2.72-1.76 5.2-2.56 7.44-.8 2.187-1.49 3.973-2.08 5.36l-11.84.4c.75-1.707 1.57-3.787 2.48-6.24.91-2.453 1.87-5.12 2.88-8 1.01-2.933 2-5.92 2.96-8.96 1.01-3.04 1.95-5.973 2.8-8.8.91-2.827 1.71-5.44 2.4-7.84.75-2.4 1.33-4.347 1.76-5.84.53-2.08.93-3.787 1.2-5.12.32-1.387.56-2.773.72-4.16l12.72 2.64Zm14.32 25.84c1.44 2.133 2.99 4.64 4.64 7.52a205.91 205.91 0 0 1 4.88 9.04c1.65 3.093 3.17 6.08 4.56 8.96 1.39 2.88 2.53 5.467 3.44 7.76l-10.8 4.8c-.91-2.453-2.03-5.227-3.36-8.32-1.28-3.093-2.69-6.24-4.24-9.44-1.49-3.2-3.04-6.213-4.64-9.04-1.55-2.88-3.04-5.28-4.48-7.2l10-4.08Zm-44.96 22.96c1.81-.107 4-.24 6.56-.4 2.61-.213 5.41-.453 8.4-.72 2.99-.32 6.03-.64 9.12-.96 3.15-.32 6.21-.64 9.2-.96l8.48-1.04c2.61-.32 4.83-.613 6.64-.88l2.4 10.24c-1.97.267-4.35.56-7.12.88-2.72.32-5.65.667-8.8 1.04-3.15.32-6.35.667-9.6 1.04s-6.43.72-9.52 1.04c-3.09.32-5.95.613-8.56.88-2.61.213-4.83.427-6.64.64-1.01.107-2.21.267-3.6.48-1.33.16-2.64.32-3.92.48l-1.84-11.68h4.4c1.65 0 3.12-.027 4.4-.08Zm138.4-42.08c-.11.373-.27.933-.48 1.68-.21.693-.4 1.387-.56 2.08-.16.693-.29 1.227-.4 1.6a340.61 340.61 0 0 1-1.76 9.28c-.64 3.36-1.57 6.8-2.8 10.32-1.17 3.52-2.83 6.88-4.96 10.08-3.31 5.227-7.6 9.813-12.88 13.76-5.23 3.893-11.04 6.96-17.44 9.2l-8.96-9.12c3.63-.907 7.28-2.213 10.96-3.92 3.73-1.76 7.23-3.92 10.48-6.48 3.25-2.613 5.92-5.573 8-8.88 1.39-2.187 2.56-4.587 3.52-7.2a65.703 65.703 0 0 0 2.4-8.16c.64-2.88 1.09-5.76 1.36-8.64h-38.4v16.16c.05 1.227.16 2.48.32 3.76h-11.76c.11-1.28.19-2.427.24-3.44.11-1.013.16-2.053.16-3.12V88.48c0-1.12-.05-2.24-.16-3.36a56.067 56.067 0 0 0-.24-3.36c1.28.053 2.77.133 4.48.24 1.71.053 3.49.08 5.36.08h38.24c1.33 0 2.64-.053 3.92-.16 1.33-.107 2.53-.24 3.6-.4l7.76 4.88Zm15.2 16.56c.96.053 2.19.133 3.68.24 1.49.053 3.04.107 4.64.16 1.65.053 3.17.08 4.56.08h42.96c1.87 0 3.63-.053 5.28-.16 1.65-.16 3.01-.267 4.08-.32v12.56l-4.08-.24c-1.81-.107-3.57-.16-5.28-.16h-42.96c-2.29 0-4.64.053-7.04.16-2.4.053-4.35.133-5.84.24v-12.56Zm144.56-12.72c-.43.747-.88 1.653-1.36 2.72a35.789 35.789 0 0 0-1.28 3.04c-.69 2.347-1.68 5.04-2.96 8.08-1.23 2.987-2.77 6.107-4.64 9.36a69.27 69.27 0 0 1-6.32 9.28c-3.84 4.587-8.32 8.747-13.44 12.48-5.07 3.733-11.36 7.093-18.88 10.08l-9.44-8.48c5.44-1.6 10.13-3.44 14.08-5.52 3.95-2.08 7.39-4.293 10.32-6.64 2.93-2.4 5.55-4.933 7.84-7.6 1.87-2.08 3.57-4.427 5.12-7.04a73.037 73.037 0 0 0 4-7.92c1.12-2.613 1.87-4.907 2.24-6.88h-26.96l3.68-9.04h22.88c1.23 0 2.45-.08 3.68-.24 1.28-.16 2.37-.4 3.28-.72l8.16 5.04Zm-26.08-12.64a59.85 59.85 0 0 0-2.8 4.48c-.91 1.6-1.6 2.827-2.08 3.68-1.81 3.2-4.05 6.533-6.72 10-2.61 3.413-5.6 6.747-8.96 10a93.76 93.76 0 0 1-10.72 8.8l-9.04-6.64c3.52-2.187 6.61-4.427 9.28-6.72 2.72-2.293 5.07-4.56 7.04-6.8 1.97-2.293 3.65-4.48 5.04-6.56a152.12 152.12 0 0 0 3.68-5.68c.64-1.013 1.31-2.32 2-3.92.69-1.653 1.23-3.147 1.6-4.48l11.68 3.84Z"/>
    <path fill="#EF4444" stroke="#333" stroke-width="3" d="m960 163 400 200H560l400-200Z"/>
    <path fill="#fff" d="M910.536 284.4h4.392v14.112h-4.392V284.4Zm-3.276 28.404h11.7v3.852h-11.7v-3.852Zm-4.356-23.724h19.98v3.924h-19.98v-3.924Zm1.008 7.848h18.108v3.924h-18.108v-3.924Zm1.152 6.984h16.164v14.256h-4.176v-10.404h-8.028v10.44h-3.96v-14.292Zm-10.584-19.476 3.816 1.332c-.48.936-.984 1.896-1.512 2.88-.528.96-1.044 1.896-1.548 2.808a26.817 26.817 0 0 1-1.476 2.34l-2.916-1.188c.432-.744.876-1.584 1.332-2.52.456-.96.888-1.932 1.296-2.916.408-.984.744-1.896 1.008-2.736Zm4.32 4.284 3.672 1.512a224.807 224.807 0 0 1-2.88 4.32 104.08 104.08 0 0 1-3.132 4.284 70.832 70.832 0 0 1-2.952 3.6l-2.628-1.332a36.154 36.154 0 0 0 2.124-2.772c.72-1.032 1.428-2.1 2.124-3.204a61.12 61.12 0 0 0 2.016-3.312c.648-1.128 1.2-2.16 1.656-3.096Zm-9.864 4.248 2.052-2.952a31.997 31.997 0 0 1 1.944 1.8 27.32 27.32 0 0 1 1.836 1.944c.576.648 1.008 1.248 1.296 1.8l-2.196 3.348c-.288-.552-.708-1.176-1.26-1.872a23.62 23.62 0 0 0-1.764-2.124 29.518 29.518 0 0 0-1.908-1.944Zm9 4.428 3.06-1.332c.48.792.948 1.644 1.404 2.556.456.912.852 1.812 1.188 2.7.336.864.588 1.644.756 2.34l-3.312 1.512a19.582 19.582 0 0 0-.684-2.34 29.091 29.091 0 0 0-1.116-2.772c-.408-.96-.84-1.848-1.296-2.664Zm-9 2.88c1.656-.048 3.648-.12 5.976-.216s4.692-.204 7.092-.324l-.036 3.42-6.732.504c-2.208.144-4.188.264-5.94.36l-.36-3.744Zm9.612 6.12 3.168-1.044c.504 1.08.972 2.256 1.404 3.528.432 1.272.744 2.376.936 3.312l-3.348 1.224c-.168-.96-.456-2.088-.864-3.384a42.152 42.152 0 0 0-1.296-3.636Zm-8.064-.828 3.564.648a45.445 45.445 0 0 1-.864 5.112c-.384 1.68-.828 3.096-1.332 4.248a9.482 9.482 0 0 0-.972-.576 64.112 64.112 0 0 0-1.26-.576 8.389 8.389 0 0 0-1.08-.432c.528-1.08.948-2.364 1.26-3.852a42.01 42.01 0 0 0 .684-4.572Zm4.176-3.384h3.816v16.056h-3.816v-16.056Zm31.284 1.188h32.22v3.924h-32.22v-3.924Zm13.86-15.84h4.572v30.708h-4.572v-30.708Zm-1.188 17.748 3.564 1.548c-1.128 1.488-2.472 2.904-4.032 4.248a33.615 33.615 0 0 1-4.968 3.6 32.652 32.652 0 0 1-5.4 2.592c-.216-.36-.504-.768-.864-1.224a26.417 26.417 0 0 0-1.044-1.26c-.36-.432-.708-.804-1.044-1.116 1.344-.408 2.676-.9 3.996-1.476a31.902 31.902 0 0 0 3.816-1.98 30.447 30.447 0 0 0 3.348-2.34c1.032-.84 1.908-1.704 2.628-2.592Zm6.552-.252c.744.864 1.644 1.716 2.7 2.556a34.73 34.73 0 0 0 3.456 2.34c1.248.72 2.544 1.38 3.888 1.98 1.344.6 2.676 1.092 3.996 1.476-.312.288-.66.648-1.044 1.08-.36.432-.708.876-1.044 1.332-.336.456-.612.876-.828 1.26a33.999 33.999 0 0 1-4.032-1.908 39.872 39.872 0 0 1-3.924-2.484 35.508 35.508 0 0 1-3.564-2.916 28.114 28.114 0 0 1-2.952-3.204l3.348-1.512Zm-11.196-9.72v2.304H950.1v-2.304h-16.128Zm0-5.616v2.268H950.1v-2.268h-16.128Zm-4.5-3.6h25.344v15.12h-25.344v-15.12Zm46.116-1.656h4.32v9.792c0 .672.144 1.092.432 1.26.312.168.984.252 2.016.252h6.3c.6 0 1.044-.096 1.332-.288.312-.192.528-.588.648-1.188.144-.6.252-1.488.324-2.664.456.312 1.08.624 1.872.936.792.288 1.476.492 2.052.612-.168 1.704-.456 3.036-.864 3.996-.408.936-1.008 1.584-1.8 1.944-.792.36-1.884.54-3.276.54h-6.984c-1.68 0-2.988-.156-3.924-.468-.912-.312-1.548-.864-1.908-1.656-.36-.792-.54-1.872-.54-3.24v-9.828Zm13.932 1.548 3.204 3.132a53.67 53.67 0 0 1-4.356 1.512 95.748 95.748 0 0 1-4.86 1.26c-1.632.384-3.216.72-4.752 1.008-.096-.456-.276-.996-.54-1.62a28.034 28.034 0 0 0-.72-1.584c1.44-.312 2.892-.66 4.356-1.044a67.915 67.915 0 0 0 4.212-1.296 47.369 47.369 0 0 0 3.456-1.368Zm-14.004 15.732h17.604v16.344h-4.284v-12.816h-9.216v12.96h-4.104v-16.488Zm2.16 5.76h12.6v3.348h-12.6v-3.348Zm-.144 5.724h12.744v3.456h-12.744V313.2Zm-16.776-10.404c1.128-.24 2.4-.528 3.816-.864 1.44-.336 2.94-.696 4.5-1.08 1.584-.408 3.156-.816 4.716-1.224l.54 3.96c-2.16.6-4.344 1.188-6.552 1.764-2.184.576-4.176 1.104-5.976 1.584l-1.044-4.14Zm.576-11.592h12.42v3.996h-12.42v-3.996Zm4.5-6.804h4.212v29.16c0 1.056-.108 1.872-.324 2.448-.216.576-.636 1.044-1.26 1.404-.6.312-1.344.516-2.232.612-.888.096-1.968.144-3.24.144-.072-.552-.228-1.212-.468-1.98a12.409 12.409 0 0 0-.72-1.98l2.016.072h1.332c.24-.024.408-.084.504-.18.12-.096.18-.264.18-.504V284.4Zm46.118 17.1h16.99v3.132h-16.99V301.5Zm-2.16-15.624h21.02v3.456h-21.02v-3.456Zm-.18 20.16h21.31v3.456h-21.31v-3.456Zm13.71 5.832 3.03-2.016c.57.528 1.17 1.104 1.8 1.728.62.624 1.2 1.248 1.73 1.872.55.624.98 1.2 1.29 1.728l-3.24 2.232c-.26-.504-.66-1.08-1.19-1.728a36.02 36.02 0 0 0-1.65-1.98c-.6-.672-1.19-1.284-1.77-1.836Zm-8.92-17.748v2.952h11.77v-2.952h-11.77Zm-3.57-3.096h19.05v9.18h-19.05v-9.18Zm7.38 16.74h4v6.66c0 .84-.1 1.524-.29 2.052-.17.528-.54.924-1.12 1.188-.55.264-1.21.432-1.98.504-.76.072-1.64.108-2.62.108a8.835 8.835 0 0 0-.47-1.8c-.22-.624-.45-1.188-.69-1.692.58.024 1.12.048 1.62.072.53 0 .88-.012 1.05-.036.19-.024.32-.06.39-.108.08-.048.11-.156.11-.324v-6.624Zm-4.97 2.016 3.32 1.8a22.168 22.168 0 0 1-2.63 3.24c-1.01 1.032-2.02 1.896-3.03 2.592-.31-.408-.72-.864-1.22-1.368-.5-.504-.98-.924-1.44-1.26.96-.6 1.9-1.368 2.81-2.304.91-.936 1.64-1.836 2.19-2.7Zm2.6-21.852h3.34v4.932h-3.34v-4.932Zm.43 4.392h2.88v7.056h-2.88v-7.056Zm4.89-4.392h3.35v4.932h-3.35v-4.932Zm0 4.392h2.92v7.056h-2.92v-7.056Zm-23.54-.432h11.88v3.996h-11.88v-3.996Zm4.39-7.488h3.89v33.804h-3.89V284.4Zm-.07 10.224 2.38.792a59.18 59.18 0 0 1-.94 4.464 71.207 71.207 0 0 1-1.3 4.5c-.48 1.464-1 2.832-1.58 4.104-.552 1.272-1.152 2.364-1.8 3.276-.192-.552-.492-1.2-.9-1.944a21.716 21.716 0 0 0-1.044-1.836 19.67 19.67 0 0 0 1.656-2.772 36.776 36.776 0 0 0 1.476-3.384c.452-1.2.852-2.412 1.192-3.636.36-1.248.64-2.436.86-3.564Zm3.78 2.7c.22.24.53.684.94 1.332.43.624.88 1.32 1.36 2.088.51.744.95 1.44 1.34 2.088.4.624.68 1.068.82 1.332l-2.23 3.096c-.21-.552-.5-1.2-.86-1.944-.34-.744-.71-1.512-1.12-2.304-.38-.792-.75-1.536-1.11-2.232-.36-.696-.68-1.272-.94-1.728l1.8-1.728Zm-145.379-52.316c1.662 0 3.024.215 4.088.644 1.083.411 1.886 1.036 2.408 1.876.523.84.784 1.895.784 3.164 0 1.064-.196 1.951-.588 2.66a4.973 4.973 0 0 1-1.512 1.708 8.355 8.355 0 0 1-1.904.98l5.488 8.96h-2.94l-4.844-8.26h-3.976V265h-2.52v-19.992h5.516Zm-.14 2.184h-2.856v7.42h2.996c1.083 0 1.97-.14 2.66-.42.691-.299 1.195-.728 1.512-1.288.336-.56.504-1.26.504-2.1 0-.877-.177-1.577-.532-2.1-.336-.523-.858-.905-1.568-1.148-.709-.243-1.614-.364-2.716-.364Zm29.486 7.784c0 1.549-.196 2.959-.588 4.228-.392 1.251-.98 2.333-1.764 3.248-.765.915-1.726 1.615-2.884 2.1-1.138.485-2.464.728-3.976.728-1.568 0-2.93-.243-4.088-.728-1.157-.504-2.118-1.204-2.884-2.1-.765-.915-1.334-2.007-1.708-3.276-.373-1.269-.56-2.679-.56-4.228 0-2.053.336-3.845 1.008-5.376.672-1.531 1.69-2.725 3.052-3.584 1.382-.859 3.118-1.288 5.208-1.288 1.998 0 3.678.429 5.04 1.288 1.363.84 2.39 2.035 3.08 3.584.71 1.531 1.064 3.332 1.064 5.404Zm-15.792 0c0 1.68.234 3.127.7 4.34.467 1.213 1.186 2.147 2.156 2.8.99.653 2.231.98 3.724.98 1.512 0 2.744-.327 3.696-.98.971-.653 1.69-1.587 2.156-2.8.467-1.213.7-2.66.7-4.34 0-2.52-.522-4.489-1.568-5.908-1.045-1.437-2.697-2.156-4.956-2.156-1.512 0-2.762.327-3.752.98-.97.635-1.689 1.559-2.156 2.772-.466 1.195-.7 2.632-.7 4.312ZM899.746 265h-7.224v-1.456l2.352-.532v-15.988l-2.352-.56v-1.456h7.224v1.456l-2.352.56v15.988l2.352.532V265Zm15.145-13.608a2.911 2.911 0 0 1 2.968 2.968 3.05 3.05 0 0 1-.392 1.512 2.911 2.911 0 0 1-2.576 1.456 3.044 3.044 0 0 1-1.512-.392 2.903 2.903 0 0 1-1.064-1.064 3.039 3.039 0 0 1-.392-1.512c0-.56.13-1.064.392-1.512a2.903 2.903 0 0 1 1.064-1.064c.466-.261.97-.392 1.512-.392Zm15.82-7.14h24.416v1.932h-24.416v-1.932Zm2.604 4.76h19.292v1.876h-19.292v-1.876Zm-1.876 4.116h22.932v5.376h-2.1v-3.444h-18.816v3.444h-2.016v-5.376Zm10.276-11.648h2.184v8.512h-2.184v-8.512Zm3.276 14.98h2.1v7.42c0 .392.074.644.224.756.168.112.532.168 1.092.168h3.724c.336 0 .588-.084.756-.252.186-.168.317-.513.392-1.036.074-.523.121-1.316.14-2.38.168.112.364.224.588.336.224.112.457.215.7.308.242.075.457.14.644.196-.075 1.269-.215 2.249-.42 2.94-.187.691-.486 1.157-.896 1.4-.411.261-.98.392-1.708.392h-4.116c-.859 0-1.522-.084-1.988-.252-.448-.149-.766-.429-.952-.84-.187-.411-.28-.98-.28-1.708v-7.448Zm-6.916 0h2.184c-.131 1.437-.346 2.735-.644 3.892-.299 1.139-.766 2.147-1.4 3.024-.635.877-1.512 1.633-2.632 2.268-1.102.653-2.53 1.195-4.284 1.624a2.927 2.927 0 0 0-.28-.616 7.066 7.066 0 0 0-.448-.672 3.128 3.128 0 0 0-.448-.504c1.605-.355 2.912-.793 3.92-1.316s1.782-1.148 2.324-1.876a7.144 7.144 0 0 0 1.204-2.548c.242-.971.41-2.063.504-3.276Zm31.976-5.908h11.508v2.1h-11.508v-2.1Zm-11.732 13.244h25.172v2.1h-25.172v-2.1Zm10.528-21.896h2.212v23.016h-2.212V241.9Zm30.044 9.492c.56 0 1.064.131 1.509.392.45.261.81.616 1.07 1.064.26.448.39.952.39 1.512 0 .541-.13 1.045-.39 1.512-.26.448-.62.803-1.07 1.064a2.93 2.93 0 0 1-1.509.392 3.044 3.044 0 0 1-1.512-.392 2.903 2.903 0 0 1-1.064-1.064 3.039 3.039 0 0 1-.392-1.512c0-.56.13-1.064.392-1.512a2.903 2.903 0 0 1 1.064-1.064c.466-.261.97-.392 1.512-.392Zm15.399-1.484h13.33v1.96h-13.33v-1.96Zm15.2-5.096h2.05v15.456h-2.05v-15.456Zm-9.35-.98h2.07v23.352h-2.07v-23.352Zm16.21-1.82h2.1v22.428c0 .728-.1 1.269-.3 1.624-.19.355-.51.625-.96.812-.46.168-1.11.271-1.93.308-.8.056-1.85.084-3.13.084a5.384 5.384 0 0 0-.2-.7c-.09-.243-.19-.495-.28-.756a3.71 3.71 0 0 0-.31-.672c.99.019 1.89.028 2.69.028h1.6c.26-.019.44-.075.56-.168.11-.112.16-.299.16-.56v-22.428Zm-10.64-.364 1.57 1.596c-1.06.429-2.3.821-3.72 1.176a58.59 58.59 0 0 1-4.43.924c-1.51.261-2.97.485-4.39.672a6.048 6.048 0 0 0-.28-.84 3.548 3.548 0 0 0-.39-.812c1.04-.149 2.11-.317 3.19-.504 1.1-.205 2.16-.42 3.19-.644 1.05-.243 2.02-.495 2.91-.756.92-.261 1.7-.532 2.35-.812Zm-5.62 9.156 1.48.644a32.199 32.199 0 0 1-1.29 3.276 39.19 39.19 0 0 1-1.65 3.276 34.634 34.634 0 0 1-1.88 2.996c-.65.915-1.3 1.699-1.96 2.352-.07-.205-.18-.42-.33-.644-.13-.243-.27-.485-.42-.728a4.405 4.405 0 0 0-.39-.616 15.75 15.75 0 0 0 1.87-2.072c.64-.821 1.24-1.708 1.82-2.66.58-.952 1.1-1.923 1.57-2.912.49-1.008.88-1.979 1.18-2.912Zm1.84 2.912c.28.187.68.495 1.18.924.52.429 1.08.896 1.68 1.4.6.504 1.14.971 1.62 1.4.51.429.87.747 1.1.952l-1.21 1.764c-.28-.317-.66-.719-1.15-1.204-.48-.504-.99-1.017-1.54-1.54-.54-.523-1.06-1.017-1.56-1.484-.51-.467-.93-.831-1.26-1.092l1.14-1.12Zm20.22 10.78h25.51v1.904h-25.51v-1.904Zm.73-17.136h24.08v1.904h-24.08v-1.904Zm3.19 9.184h17.81v8.932h-1.99v-7.112h-3.36v7.112h-1.96v-7.112h-3.33v7.112h-1.96v-7.112h-3.31v7.112h-1.9v-8.932Zm.81-14.14 1.77-.812c.44.541.87 1.12 1.28 1.736.43.597.82 1.195 1.15 1.792.36.579.64 1.111.84 1.596l-1.87.952c-.19-.485-.45-1.036-.79-1.652-.33-.616-.72-1.241-1.15-1.876-.41-.635-.82-1.213-1.23-1.736Zm14.31-.98 2.16.7c-.58.933-1.22 1.885-1.91 2.856-.69.971-1.32 1.801-1.9 2.492l-1.82-.644c.41-.485.83-1.036 1.26-1.652.43-.635.84-1.279 1.23-1.932.39-.672.72-1.279.98-1.82Zm-10.58 6.496 2.07.616a24.023 24.023 0 0 1-2.55 4.2 28.256 28.256 0 0 1-3.25 3.612 24.897 24.897 0 0 1-3.61 2.828 3.466 3.466 0 0 0-.48-.504 5.883 5.883 0 0 0-.61-.588 6.662 6.662 0 0 0-.56-.504c1.88-1.064 3.61-2.436 5.18-4.116a21.391 21.391 0 0 0 3.81-5.544Zm8.26.028c.61 1.232 1.41 2.445 2.38 3.64a23.61 23.61 0 0 0 3.22 3.22c1.19.952 2.4 1.717 3.61 2.296-.15.131-.32.299-.51.504-.18.205-.37.42-.56.644-.16.205-.3.392-.42.56-1.23-.672-2.45-1.531-3.66-2.576a27.383 27.383 0 0 1-3.34-3.556 26.16 26.16 0 0 1-2.57-4.06l1.85-.672Z"/>
    <path fill="#F59E0B" stroke="#333" stroke-width="3" d="M560 363h800l-100 200H660L560 363Z"/>
    <path fill="#fff" d="M894.552 447.972h8.316v3.924h-8.316v-3.924Zm6.66 0h4.176v1.584a257.739 257.739 0 0 1-.18 6.264c-.072 1.608-.192 2.868-.36 3.78-.144.888-.348 1.512-.612 1.872-.36.456-.744.78-1.152.972-.384.192-.84.336-1.368.432-.48.096-1.092.156-1.836.18-.72 0-1.512-.012-2.376-.036-.024-.624-.144-1.32-.36-2.088s-.48-1.416-.792-1.944c.648.048 1.248.084 1.8.108a34.06 34.06 0 0 0 1.296.036c.24 0 .444-.024.612-.072a.991.991 0 0 0 .468-.36c.168-.216.288-.66.36-1.332.096-.696.168-1.74.216-3.132.048-1.416.084-3.288.108-5.616v-.648Zm10.8-11.304 2.628-2.592c.672.336 1.38.732 2.124 1.188.744.456 1.452.912 2.124 1.368.696.456 1.26.9 1.692 1.332l-2.772 2.88a17.222 17.222 0 0 0-1.584-1.368 29.058 29.058 0 0 0-2.088-1.476 33.008 33.008 0 0 0-2.124-1.332Zm4.248 9.288 4.392 1.044c-1.512 4.68-3.576 8.82-6.192 12.42-2.616 3.576-5.712 6.468-9.288 8.676a10.15 10.15 0 0 0-.864-1.152l-1.188-1.332a22.758 22.758 0 0 0-1.08-1.08c3.456-1.872 6.384-4.392 8.784-7.56 2.4-3.192 4.212-6.864 5.436-11.016Zm-21.492-6.156h27.792v4.248h-27.792V439.8Zm-2.88 0h4.536v10.62c0 1.344-.048 2.82-.144 4.428a51.703 51.703 0 0 1-.54 4.896 28.502 28.502 0 0 1-1.188 4.788c-.504 1.536-1.164 2.916-1.98 4.14-.24-.312-.6-.66-1.08-1.044a72.218 72.218 0 0 0-1.404-1.152c-.456-.36-.852-.612-1.188-.756.912-1.44 1.572-3.048 1.98-4.824.432-1.8.708-3.612.828-5.436.12-1.824.18-3.516.18-5.076V439.8Zm14.616-5.364h4.536a93.963 93.963 0 0 0 .252 8.676c.216 2.832.528 5.484.936 7.956.432 2.448.936 4.62 1.512 6.516.576 1.872 1.212 3.336 1.908 4.392.696 1.056 1.404 1.584 2.124 1.584.408 0 .72-.492.936-1.476.24-.984.408-2.604.504-4.86.504.48 1.092.948 1.764 1.404.696.456 1.332.792 1.908 1.008-.216 2.232-.54 3.96-.972 5.184-.432 1.2-1.008 2.028-1.728 2.484-.72.456-1.644.684-2.772.684-1.296 0-2.472-.444-3.528-1.332-1.032-.888-1.956-2.124-2.772-3.708-.792-1.584-1.476-3.444-2.052-5.58a64.265 64.265 0 0 1-1.44-6.948c-.36-2.496-.636-5.088-.828-7.776a154.459 154.459 0 0 1-.288-8.208Zm19.44 18.936h32.22v3.924h-32.22v-3.924Zm13.86-15.84h4.572v30.708h-4.572v-30.708Zm-1.188 17.748 3.564 1.548c-1.128 1.488-2.472 2.904-4.032 4.248a33.615 33.615 0 0 1-4.968 3.6 32.652 32.652 0 0 1-5.4 2.592c-.216-.36-.504-.768-.864-1.224a26.417 26.417 0 0 0-1.044-1.26c-.36-.432-.708-.804-1.044-1.116 1.344-.408 2.676-.9 3.996-1.476a31.902 31.902 0 0 0 3.816-1.98 30.447 30.447 0 0 0 3.348-2.34c1.032-.84 1.908-1.704 2.628-2.592Zm6.552-.252c.744.864 1.644 1.716 2.7 2.556a34.73 34.73 0 0 0 3.456 2.34c1.248.72 2.544 1.38 3.888 1.98 1.344.6 2.676 1.092 3.996 1.476-.312.288-.66.648-1.044 1.08-.36.432-.708.876-1.044 1.332-.336.456-.612.876-.828 1.26a33.999 33.999 0 0 1-4.032-1.908 39.872 39.872 0 0 1-3.924-2.484 35.508 35.508 0 0 1-3.564-2.916 28.114 28.114 0 0 1-2.952-3.204l3.348-1.512Zm-11.196-9.72v2.304H950.1v-2.304h-16.128Zm0-5.616v2.268H950.1v-2.268h-16.128Zm-4.5-3.6h25.344v15.12h-25.344v-15.12Zm46.116-1.656h4.32v9.792c0 .672.144 1.092.432 1.26.312.168.984.252 2.016.252h6.3c.6 0 1.044-.096 1.332-.288.312-.192.528-.588.648-1.188.144-.6.252-1.488.324-2.664.456.312 1.08.624 1.872.936.792.288 1.476.492 2.052.612-.168 1.704-.456 3.036-.864 3.996-.408.936-1.008 1.584-1.8 1.944-.792.36-1.884.54-3.276.54h-6.984c-1.68 0-2.988-.156-3.924-.468-.912-.312-1.548-.864-1.908-1.656-.36-.792-.54-1.872-.54-3.24v-9.828Zm13.932 1.548 3.204 3.132a53.67 53.67 0 0 1-4.356 1.512 95.748 95.748 0 0 1-4.86 1.26c-1.632.384-3.216.72-4.752 1.008-.096-.456-.276-.996-.54-1.62a28.034 28.034 0 0 0-.72-1.584c1.44-.312 2.892-.66 4.356-1.044a67.915 67.915 0 0 0 4.212-1.296 47.369 47.369 0 0 0 3.456-1.368Zm-14.004 15.732h17.604v16.344h-4.284v-12.816h-9.216v12.96h-4.104v-16.488Zm2.16 5.76h12.6v3.348h-12.6v-3.348Zm-.144 5.724h12.744v3.456h-12.744V463.2Zm-16.776-10.404c1.128-.24 2.4-.528 3.816-.864 1.44-.336 2.94-.696 4.5-1.08 1.584-.408 3.156-.816 4.716-1.224l.54 3.96c-2.16.6-4.344 1.188-6.552 1.764-2.184.576-4.176 1.104-5.976 1.584l-1.044-4.14Zm.576-11.592h12.42v3.996h-12.42v-3.996Zm4.5-6.804h4.212v29.16c0 1.056-.108 1.872-.324 2.448-.216.576-.636 1.044-1.26 1.404-.6.312-1.344.516-2.232.612-.888.096-1.968.144-3.24.144-.072-.552-.228-1.212-.468-1.98a12.409 12.409 0 0 0-.72-1.98l2.016.072h1.332c.24-.024.408-.084.504-.18.12-.096.18-.264.18-.504V434.4Zm46.118 17.1h16.99v3.132h-16.99V451.5Zm-2.16-15.624h21.02v3.456h-21.02v-3.456Zm-.18 20.16h21.31v3.456h-21.31v-3.456Zm13.71 5.832 3.03-2.016c.57.528 1.17 1.104 1.8 1.728.62.624 1.2 1.248 1.73 1.872.55.624.98 1.2 1.29 1.728l-3.24 2.232c-.26-.504-.66-1.08-1.19-1.728a36.02 36.02 0 0 0-1.65-1.98c-.6-.672-1.19-1.284-1.77-1.836Zm-8.92-17.748v2.952h11.77v-2.952h-11.77Zm-3.57-3.096h19.05v9.18h-19.05v-9.18Zm7.38 16.74h4v6.66c0 .84-.1 1.524-.29 2.052-.17.528-.54.924-1.12 1.188-.55.264-1.21.432-1.98.504-.76.072-1.64.108-2.62.108a8.835 8.835 0 0 0-.47-1.8c-.22-.624-.45-1.188-.69-1.692.58.024 1.12.048 1.62.072.53 0 .88-.012 1.05-.036.19-.024.32-.06.39-.108.08-.048.11-.156.11-.324v-6.624Zm-4.97 2.016 3.32 1.8a22.168 22.168 0 0 1-2.63 3.24c-1.01 1.032-2.02 1.896-3.03 2.592-.31-.408-.72-.864-1.22-1.368-.5-.504-.98-.924-1.44-1.26.96-.6 1.9-1.368 2.81-2.304.91-.936 1.64-1.836 2.19-2.7Zm2.6-21.852h3.34v4.932h-3.34v-4.932Zm.43 4.392h2.88v7.056h-2.88v-7.056Zm4.89-4.392h3.35v4.932h-3.35v-4.932Zm0 4.392h2.92v7.056h-2.92v-7.056Zm-23.54-.432h11.88v3.996h-11.88v-3.996Zm4.39-7.488h3.89v33.804h-3.89V434.4Zm-.07 10.224 2.38.792a59.18 59.18 0 0 1-.94 4.464 71.207 71.207 0 0 1-1.3 4.5c-.48 1.464-1 2.832-1.58 4.104-.552 1.272-1.152 2.364-1.8 3.276-.192-.552-.492-1.2-.9-1.944a21.716 21.716 0 0 0-1.044-1.836 19.67 19.67 0 0 0 1.656-2.772 36.776 36.776 0 0 0 1.476-3.384c.452-1.2.852-2.412 1.192-3.636.36-1.248.64-2.436.86-3.564Zm3.78 2.7c.22.24.53.684.94 1.332.43.624.88 1.32 1.36 2.088.51.744.95 1.44 1.34 2.088.4.624.68 1.068.82 1.332l-2.23 3.096c-.21-.552-.5-1.2-.86-1.944-.34-.744-.71-1.512-1.12-2.304-.38-.792-.75-1.536-1.11-2.232-.36-.696-.68-1.272-.94-1.728l1.8-1.728Zm-212.404 38.02h13.664v1.904h-13.664v-1.904Zm5.936-3.808h2.072v4.536h-2.072v-4.536Zm-2.632 6.692 2.016.504a21.666 21.666 0 0 1-1.904 3.528c-.747 1.157-1.512 2.147-2.296 2.968a4.257 4.257 0 0 0-.504-.42 13.438 13.438 0 0 0-.616-.476 5.53 5.53 0 0 0-.56-.364 13.884 13.884 0 0 0 2.212-2.604 15.848 15.848 0 0 0 1.652-3.136Zm5.432 4.732 2.072.448c-.915 3.099-2.203 5.805-3.864 8.12a21.086 21.086 0 0 1-5.992 5.656 9.284 9.284 0 0 0-.42-.532 8.44 8.44 0 0 0-.56-.616 6.611 6.611 0 0 0-.504-.504 17.862 17.862 0 0 0 5.768-5.124c1.549-2.147 2.716-4.629 3.5-7.448Zm-.056-4.06 1.624-.84c.467.541.933 1.129 1.4 1.764.467.616.877 1.232 1.232 1.848.373.616.663 1.176.868 1.68l-1.764.98a12.433 12.433 0 0 0-.812-1.708 21.53 21.53 0 0 0-1.204-1.904 30.876 30.876 0 0 0-1.344-1.82Zm-6.272 6.72 1.232-1.428a57.92 57.92 0 0 1 3.22 2.548 57.62 57.62 0 0 1 3.08 2.8c.952.915 1.708 1.745 2.268 2.492l-1.316 1.708c-.56-.765-1.316-1.624-2.268-2.576a49.641 49.641 0 0 0-3.024-2.884 54.933 54.933 0 0 0-3.192-2.66Zm10.892-7.672h10.388v1.988h-10.388v-1.988Zm9.576 0h1.96v1.036a668.998 668.998 0 0 1-.224 7.504c-.056 2.035-.14 3.705-.252 5.012-.112 1.288-.243 2.277-.392 2.968-.149.691-.336 1.195-.56 1.512-.261.355-.541.607-.84.756-.28.149-.644.243-1.092.28-.411.056-.943.075-1.596.056-.635 0-1.297-.009-1.988-.028a4.58 4.58 0 0 0-.196-1.036 3.1 3.1 0 0 0-.42-.98 47.332 47.332 0 0 0 3.36.14c.224 0 .411-.028.56-.084a.954.954 0 0 0 .448-.336c.168-.224.317-.663.448-1.316.131-.672.243-1.633.336-2.884.093-1.269.168-2.893.224-4.872.075-1.979.149-4.396.224-7.252v-.476Zm-6.02-6.188h2.016a336.133 336.133 0 0 1-.112 6.216 65.199 65.199 0 0 1-.364 5.852 33.632 33.632 0 0 1-.952 5.32c-.429 1.661-1.036 3.183-1.82 4.564a13.558 13.558 0 0 1-2.996 3.64 5.353 5.353 0 0 0-.728-.812 7.366 7.366 0 0 0-.868-.672 11.701 11.701 0 0 0 2.856-3.36 17.673 17.673 0 0 0 1.736-4.312c.411-1.568.7-3.229.868-4.984a73.87 73.87 0 0 0 .308-5.544c.037-1.941.056-3.911.056-5.908Zm22.68-.28h2.128v3.948h-2.128v-3.948Zm0 15.988h2.128v9.856h-2.128v-9.856Zm-11.34 2.184h25.004v1.96h-25.004v-1.96Zm.84-15.036h23.38v1.96h-23.38v-1.96Zm21.168 2.716 1.848.952a26.96 26.96 0 0 1-2.324 1.904 56.752 56.752 0 0 1-2.324 1.624l-1.54-.924a35.2 35.2 0 0 0 1.512-1.092 36.254 36.254 0 0 0 1.568-1.26c.504-.448.924-.849 1.26-1.204Zm-11.116-1.232 1.82.728a71.295 71.295 0 0 1-1.68 2.184 25.817 25.817 0 0 1-1.68 1.876l-1.372-.616c.336-.392.681-.831 1.036-1.316.355-.485.691-.98 1.008-1.484.336-.504.625-.961.868-1.372Zm4.088 2.156 1.652.812a70.902 70.902 0 0 1-2.408 2.8 96.246 96.246 0 0 1-2.66 2.828 45.249 45.249 0 0 1-2.52 2.352l-1.288-.728a33.358 33.358 0 0 0 2.52-2.436 90.51 90.51 0 0 0 2.548-2.884 40.878 40.878 0 0 0 2.156-2.744Zm-8.204 1.988 1.036-1.232c.541.317 1.111.681 1.708 1.092.597.411 1.167.821 1.708 1.232.541.392.971.756 1.288 1.092l-1.092 1.4c-.317-.355-.747-.737-1.288-1.148a33.172 33.172 0 0 0-1.68-1.288 24.923 24.923 0 0 0-1.68-1.148Zm-.364 5.432c.915-.037 1.951-.075 3.108-.112 1.176-.056 2.417-.121 3.724-.196 1.325-.075 2.66-.14 4.004-.196l-.028 1.54c-1.904.149-3.771.289-5.6.42a794.54 794.54 0 0 0-4.9.364l-.308-1.82Zm7.504-2.52 1.512-.728a27.57 27.57 0 0 1 1.4 1.708c.485.597.915 1.195 1.288 1.792.392.597.691 1.129.896 1.596l-1.624.84a9.761 9.761 0 0 0-.84-1.624 21.479 21.479 0 0 0-1.26-1.848 19.35 19.35 0 0 0-1.372-1.736Zm-14.028 3.108a95.248 95.248 0 0 0 3.22-1.288c1.251-.523 2.529-1.055 3.836-1.596l.392 1.596a558.734 558.734 0 0 1-3.332 1.568c-1.12.523-2.147.989-3.08 1.4l-1.036-1.68Zm.98-7.364 1.4-1.176c.541.261 1.092.579 1.652.952.56.355 1.092.709 1.596 1.064.504.355.915.691 1.232 1.008l-1.456 1.316a11.083 11.083 0 0 0-1.232-1.036 21.112 21.112 0 0 0-1.568-1.148 15.07 15.07 0 0 0-1.624-.98Zm16.268 5.348 1.456-1.204c.728.355 1.493.765 2.296 1.232.821.448 1.596.905 2.324 1.372a17.61 17.61 0 0 1 1.82 1.26l-1.54 1.344c-.448-.392-1.036-.821-1.764-1.288a36.656 36.656 0 0 0-2.268-1.428 33.217 33.217 0 0 0-2.324-1.288Zm22.96-12.096h2.128v20.804c0 .523.047.924.14 1.204a.928.928 0 0 0 .532.56c.28.093.681.14 1.204.14h5.488c.523 0 .905-.14 1.148-.42.261-.299.448-.821.56-1.568.131-.747.224-1.792.28-3.136.261.187.579.373.952.56.392.168.737.28 1.036.336-.093 1.531-.261 2.753-.504 3.668-.224.896-.597 1.54-1.12 1.932-.504.392-1.251.588-2.24.588h-5.768c-.971 0-1.736-.112-2.296-.336-.56-.224-.961-.625-1.204-1.204-.224-.56-.336-1.353-.336-2.38v-20.748Zm10.528 4.648 1.512 1.792a32.266 32.266 0 0 1-3.164 2.324 68.498 68.498 0 0 1-3.696 2.184c-1.269.709-2.52 1.381-3.752 2.016a3.532 3.532 0 0 0-.392-.812 15.526 15.526 0 0 0-.476-.84 73.987 73.987 0 0 0 3.64-2.072 56.824 56.824 0 0 0 3.5-2.296c1.101-.803 2.044-1.568 2.828-2.296Zm-15.372-4.9 2.044.7a40.272 40.272 0 0 1-2.492 4.788 42.312 42.312 0 0 1-3.08 4.424 28.68 28.68 0 0 1-3.388 3.612 2.78 2.78 0 0 0-.336-.672 17.268 17.268 0 0 0-.476-.784 6.866 6.866 0 0 0-.448-.672 24.823 24.823 0 0 0 3.136-3.136 31.747 31.747 0 0 0 2.828-3.92 32.736 32.736 0 0 0 2.212-4.34Zm-3.22 7.336 2.072-2.072.028.056v19.964h-2.1v-17.948ZM890 491.392c.56 0 1.064.131 1.512.392.448.261.803.616 1.064 1.064.261.448.392.952.392 1.512a3.05 3.05 0 0 1-.392 1.512 2.903 2.903 0 0 1-1.064 1.064 2.948 2.948 0 0 1-1.512.392 3.05 3.05 0 0 1-1.512-.392 2.903 2.903 0 0 1-1.064-1.064 3.05 3.05 0 0 1-.392-1.512c0-.56.131-1.064.392-1.512a2.903 2.903 0 0 1 1.064-1.064 3.05 3.05 0 0 1 1.512-.392Zm22.456-6.72v5.32h11.172v-5.32h-11.172Zm-2.044-1.988h15.372v9.324h-15.372v-9.324Zm-4.088 12.32h9.968v11.984h-2.1v-9.996h-5.852v10.248h-2.016v-12.236Zm13.048 0H929.9v12.068h-2.128v-10.08h-6.384v10.248h-2.016v-12.236Zm-12.124 8.68h7.812v2.044h-7.812v-2.044Zm13.132 0h8.316v2.044h-8.316v-2.044Zm23.352-22.148 1.4 1.316c-.747.224-1.605.42-2.576.588-.971.168-1.969.317-2.996.448a92.211 92.211 0 0 1-2.94.28 2.37 2.37 0 0 0-.196-.672 3.544 3.544 0 0 0-.308-.7c.896-.093 1.82-.196 2.772-.308.952-.131 1.848-.28 2.688-.448a25.432 25.432 0 0 0 2.156-.504Zm12.012.056 1.4 1.316a32.17 32.17 0 0 1-2.744.56 53.012 53.012 0 0 1-3.192.42c-1.083.112-2.128.205-3.136.28a3.784 3.784 0 0 0-.196-.672 4.88 4.88 0 0 0-.308-.7 57.21 57.21 0 0 0 2.968-.308 85.297 85.297 0 0 0 2.912-.42c.915-.149 1.68-.308 2.296-.476Zm-20.188.644 2.436.672c-.037.187-.224.308-.56.364v1.82c0 .691-.075 1.456-.224 2.296a8.812 8.812 0 0 1-.812 2.52c-.392.821-.98 1.596-1.764 2.324a1.917 1.917 0 0 0-.364-.476 6.337 6.337 0 0 0-.532-.476 3.765 3.765 0 0 0-.504-.392c.672-.616 1.167-1.26 1.484-1.932.336-.672.56-1.344.672-2.016a12.12 12.12 0 0 0 .168-1.932v-2.772Zm11.452.056 2.408.616c-.019.187-.196.299-.532.336v1.624c0 .616-.084 1.297-.252 2.044-.168.728-.485 1.456-.952 2.184-.467.709-1.148 1.372-2.044 1.988a2.842 2.842 0 0 0-.364-.504 6.337 6.337 0 0 0-.476-.532 2.76 2.76 0 0 0-.476-.392c.765-.485 1.335-.999 1.708-1.54.392-.56.653-1.12.784-1.68a7.12 7.12 0 0 0 .196-1.624v-2.52Zm-10.612 3.248h9.492v1.624h-9.492v-1.624Zm11.452 0h10.696v1.624h-10.696v-1.624Zm-7.14.588h1.876v4.564h-1.876v-4.564Zm11.76 0h1.904v4.62h-1.904v-4.62Zm-13.44 9.856v1.96h14.196v-1.96h-14.196Zm0 3.332v1.988h14.196v-1.988h-14.196Zm0-6.636v1.932h14.196v-1.932h-14.196Zm-2.044-1.428h18.34v11.48h-18.34v-11.48Zm11.368 12.936 1.708-1.064c1.027.317 2.063.653 3.108 1.008s2.035.709 2.968 1.064a44.06 44.06 0 0 1 2.408 1.036l-2.352 1.064a31.17 31.17 0 0 0-2.128-.98 88.707 88.707 0 0 0-2.716-1.092c-.971-.355-1.969-.7-2.996-1.036Zm-6.608-1.148 1.932.868c-.765.448-1.643.887-2.632 1.316-.971.429-1.979.821-3.024 1.176a56.999 56.999 0 0 1-2.968.924 7.502 7.502 0 0 0-.448-.532l-.588-.588a3.565 3.565 0 0 0-.532-.448c.971-.205 1.96-.448 2.968-.728a35.657 35.657 0 0 0 2.912-.924 17.005 17.005 0 0 0 2.38-1.064Zm21.028-16.716h21.308v2.044h-19.236v18.872h-2.072v-20.916Zm20.524 0h2.1v18.116c0 .691-.093 1.223-.28 1.596-.187.373-.532.653-1.036.84-.504.168-1.195.271-2.072.308-.877.037-1.96.056-3.248.056a2.928 2.928 0 0 0-.168-.7 38.827 38.827 0 0 0-.252-.784 4.88 4.88 0 0 0-.308-.7c.672.037 1.316.056 1.932.056a22.97 22.97 0 0 0 1.624 0h.98c.299 0 .495-.047.588-.14.093-.112.14-.289.14-.532v-18.116Zm-11.032-4.9 2.604.42a54.216 54.216 0 0 1-1.372 3.08 42.818 42.818 0 0 1-1.4 2.688l-1.988-.504c.261-.523.523-1.12.784-1.792.28-.672.541-1.344.784-2.016.261-.691.457-1.316.588-1.876Zm-3.752 10.668h1.932v11.284h-1.932v-11.284Zm.896 0h10.08v9.268h-10.08v-1.904h8.12v-5.488h-8.12v-1.876Zm31.752-1.54h11.51v2.1h-11.51v-2.1Zm-11.732 13.244h25.172v2.1h-25.172v-2.1Zm10.528-21.896h2.214v23.016h-2.214V481.9Zm30.044 9.492c.56 0 1.06.131 1.51.392.45.261.8.616 1.07 1.064.26.448.39.952.39 1.512 0 .541-.13 1.045-.39 1.512-.27.448-.62.803-1.07 1.064-.45.261-.95.392-1.51.392-.54 0-1.05-.131-1.51-.392-.45-.261-.8-.616-1.07-1.064a3.058 3.058 0 0 1-.39-1.512c0-.56.13-1.064.39-1.512.27-.448.62-.803 1.07-1.064.46-.261.97-.392 1.51-.392Zm22.85-7h17.13v1.876h-17.13v-1.876Zm-.95 5.012h18.87v1.876h-18.87v-1.876Zm5.65 11.816h7.7v1.624h-7.7v-1.624Zm-.67-19.74h1.96v9.464h-1.96v-9.464Zm6.92 0h2.04v9.464h-2.04v-9.464Zm-6.98 15.54h1.4v7.532h-1.4v-7.532Zm7.68 0h1.37v7.112h-1.37v-7.112Zm3.38-3.36h1.99v11.312c0 .523-.06.933-.19 1.232-.13.299-.4.532-.79.7-.39.131-.92.205-1.59.224-.66.037-1.49.056-2.5.056a5.515 5.515 0 0 0-.22-.896 4.786 4.786 0 0 0-.34-.896c.73.019 1.39.028 1.96.028.6.019 1 .019 1.21 0 .32 0 .47-.159.47-.476V493.66Zm-14.84 0h15.66v1.848h-13.75v11.704h-1.91V493.66Zm-6.63-10.388 1.23-1.484c.58.243 1.18.541 1.79.896.62.336 1.2.691 1.74 1.064.54.355.98.691 1.31 1.008l-1.28 1.68c-.32-.336-.75-.691-1.29-1.064-.54-.392-1.12-.775-1.74-1.148-.6-.373-1.18-.691-1.76-.952Zm-1.37 7.784 1.12-1.596c.61.187 1.24.429 1.87.728.66.28 1.27.588 1.85.924.6.317 1.08.625 1.46.924l-1.21 1.792c-.35-.299-.82-.616-1.4-.952a22.2 22.2 0 0 0-1.82-.98c-.63-.336-1.26-.616-1.87-.84Zm.75 14.532c.43-.728.91-1.587 1.43-2.576a84.235 84.235 0 0 0 1.62-3.192c.55-1.12 1.05-2.203 1.52-3.248l1.62 1.26c-.41.971-.86 1.988-1.34 3.052a77.663 77.663 0 0 1-1.52 3.136c-.5 1.027-.99 1.979-1.48 2.856l-1.85-1.288Zm14.51-14.924h2.01v4.312h-.19v7.336h-1.63v-7.336h-.19v-4.312Zm25.7 6.076h10.7v1.988H1086v-1.988Zm-6.27 1.204c.5 1.437 1.16 2.613 1.96 3.528.8.896 1.72 1.596 2.77 2.1 1.06.485 2.24.821 3.53 1.008 1.29.168 2.66.252 4.11.252h5.8c.49 0 .85-.009 1.09-.028a4.58 4.58 0 0 0-.33.616c-.1.261-.19.513-.28.756-.08.261-.13.495-.17.7h-6.19c-1.7 0-3.27-.121-4.7-.364-1.44-.224-2.75-.635-3.92-1.232-1.16-.579-2.2-1.4-3.11-2.464-.9-1.083-1.66-2.473-2.3-4.172l1.74-.7Zm5.35-6.16h2.15v13.944l-2.15-.7v-13.244Zm-6.28-6.916v5.516h14.93v-5.516h-14.93Zm-2.07-2.016h19.18v9.52h-19.18v-9.52Zm1.6 11.62 2.21.28a31.699 31.699 0 0 1-1.01 4.648 19.37 19.37 0 0 1-1.85 4.396 11.176 11.176 0 0 1-2.96 3.444c-.12-.131-.27-.289-.45-.476a9.176 9.176 0 0 0-.53-.532 8.131 8.131 0 0 0-.51-.42 9.78 9.78 0 0 0 2.72-3.136 17.819 17.819 0 0 0 1.59-4.032c.4-1.437.66-2.828.79-4.172Zm27.97-5.152h19.94v1.736h-19.94v-1.736Zm.39 8.176h16.05v1.736h-16.05v-1.736Zm4.12-10.612h2.01v7.14h6.81v-7.14h2.07v8.82h-10.89v-8.82Zm11.37 10.612h.42l.36-.084 1.32.7a12.965 12.965 0 0 1-3 3.78 17.684 17.684 0 0 1-4.2 2.632 28.166 28.166 0 0 1-5.04 1.708c-1.79.448-3.64.784-5.54 1.008a4.005 4.005 0 0 0-.37-.896c-.17-.355-.34-.644-.53-.868 1.77-.187 3.51-.457 5.21-.812 1.7-.373 3.28-.868 4.76-1.484 1.49-.616 2.81-1.363 3.95-2.24 1.13-.877 2.02-1.923 2.66-3.136v-.308Zm-10.5 1.456c.89 1.251 2.1 2.324 3.61 3.22 1.53.896 3.28 1.615 5.26 2.156 1.98.541 4.1.924 6.36 1.148-.13.149-.28.336-.45.56-.15.224-.3.439-.45.644-.13.224-.24.429-.33.616-2.3-.299-4.46-.775-6.47-1.428-2.02-.635-3.83-1.465-5.43-2.492-1.59-1.045-2.89-2.287-3.9-3.724l1.8-.7Zm2.07-17.472h2.15v3.836h-2.15v-3.836Zm-9.33 2.772h21.98v1.904h-21.98v-1.904Zm-1.03 0h2.01v8.092c0 1.083-.03 2.268-.11 3.556a34.151 34.151 0 0 1-.39 3.948 27.978 27.978 0 0 1-.84 3.92 14.668 14.668 0 0 1-1.46 3.5 5.008 5.008 0 0 0-.5-.42c-.21-.149-.42-.299-.64-.448a2.588 2.588 0 0 0-.59-.28 14.895 14.895 0 0 0 1.37-3.248c.34-1.176.59-2.38.76-3.612.16-1.232.27-2.436.3-3.612.06-1.195.09-2.296.09-3.304v-8.092Z"/>
    <path fill="#10B981" stroke="#333" stroke-width="3" d="M660 563h600l-100 200H760L660 563Z"/>
    <path fill="#fff" d="M902.112 653.624h18.9v14.4h-4.14v-10.476h-10.8v10.656h-3.96v-14.58Zm16.02-19.224 3.312 3.384c-1.752.672-3.696 1.26-5.832 1.764-2.136.48-4.332.876-6.588 1.188-2.232.312-4.416.564-6.552.756-.072-.504-.24-1.116-.504-1.836-.24-.744-.48-1.356-.72-1.836 1.536-.168 3.084-.36 4.644-.576a83.94 83.94 0 0 0 4.608-.756c1.488-.288 2.88-.6 4.176-.936a32.316 32.316 0 0 0 3.456-1.152Zm-8.64 4.068h4.104v17.424h-4.104v-17.424Zm-9.612 6.444h22.932v4.104H899.88v-4.104Zm5.076 17.892H918.6v3.924h-13.644v-3.924ZM890.988 638l2.448-3.132c.672.336 1.428.72 2.268 1.152.84.432 1.656.864 2.448 1.296.816.432 1.476.816 1.98 1.152l-2.556 3.492a21.39 21.39 0 0 0-1.872-1.224c-.768-.456-1.572-.924-2.412-1.404a74.01 74.01 0 0 0-2.304-1.332Zm-1.728 9.972 2.34-3.204c.672.288 1.44.648 2.304 1.08.864.432 1.704.864 2.52 1.296.816.408 1.476.78 1.98 1.116l-2.412 3.6c-.48-.36-1.116-.768-1.908-1.224a98.473 98.473 0 0 0-2.448-1.404c-.864-.48-1.656-.9-2.376-1.26Zm.54 16.92a67.797 67.797 0 0 0 2.124-3.204 131.657 131.657 0 0 0 2.412-3.96c.816-1.416 1.584-2.82 2.304-4.212l3.168 2.88a121.91 121.91 0 0 1-2.016 3.852 101.038 101.038 0 0 1-2.16 3.888 87.333 87.333 0 0 1-2.196 3.672l-3.636-2.916Zm36.288-7.2H942.9v3.06h-16.812v-3.06Zm-.792-17.136h18v3.132h-18v-3.132Zm7.128-2.52h3.924v25.812h-3.924v-25.812Zm-7.344 25.38c1.512-.096 3.24-.216 5.184-.36s3.996-.3 6.156-.468c2.184-.192 4.356-.384 6.516-.576l.036 3.276c-2.04.216-4.104.432-6.192.648-2.064.216-4.056.408-5.976.576-1.896.192-3.636.372-5.22.54l-.504-3.636Zm4.572-11.448v1.62h9.504v-1.62h-9.504Zm0-4.176v1.62h9.504v-1.62h-9.504Zm-3.42-2.7h16.488v11.196h-16.488v-11.196Zm14.76-10.476 1.872 3.204a67.316 67.316 0 0 1-5.112.828c-1.872.216-3.792.396-5.76.54-1.968.12-3.852.204-5.652.252a9.807 9.807 0 0 0-.396-1.548 8.764 8.764 0 0 0-.576-1.548c1.344-.072 2.724-.156 4.14-.252a206.34 206.34 0 0 0 4.176-.396c1.392-.144 2.7-.3 3.924-.468a59.292 59.292 0 0 0 3.384-.612Zm2.268 7.956h12.492v3.96H943.26v-3.96Zm10.728 0h4.14v1.908c-.096 3.696-.192 6.84-.288 9.432a194.357 194.357 0 0 1-.324 6.372c-.096 1.656-.252 2.952-.468 3.888-.192.936-.432 1.608-.72 2.016-.408.6-.84 1.02-1.296 1.26-.432.264-.948.456-1.548.576-.552.096-1.224.144-2.016.144-.792.024-1.62.024-2.484 0-.024-.6-.156-1.296-.396-2.088-.216-.792-.492-1.476-.828-2.052.768.072 1.476.12 2.124.144.648.024 1.14.036 1.476.036.288 0 .528-.048.72-.144.192-.096.372-.252.54-.468.192-.288.36-.84.504-1.656.144-.84.264-2.028.36-3.564.12-1.56.216-3.564.288-6.012.096-2.448.168-5.412.216-8.892v-.9Zm-7.272-7.56h4.14c0 3.072-.036 5.988-.108 8.748a87.117 87.117 0 0 1-.468 7.812c-.24 2.424-.66 4.68-1.26 6.768-.576 2.064-1.392 3.948-2.448 5.652-1.056 1.704-2.412 3.204-4.068 4.5a7.983 7.983 0 0 0-.864-1.152 16.641 16.641 0 0 0-1.08-1.188c-.36-.36-.72-.66-1.08-.9 1.512-1.152 2.736-2.472 3.672-3.96.936-1.512 1.656-3.18 2.16-5.004.504-1.848.852-3.864 1.044-6.048.192-2.208.3-4.572.324-7.092.024-2.544.036-5.256.036-8.136Zm28.872-.576h4.32v9.792c0 .672.144 1.092.432 1.26.312.168.984.252 2.016.252h6.3c.6 0 1.044-.096 1.332-.288.312-.192.528-.588.648-1.188.144-.6.252-1.488.324-2.664.456.312 1.08.624 1.872.936.792.288 1.476.492 2.052.612-.168 1.704-.456 3.036-.864 3.996-.408.936-1.008 1.584-1.8 1.944-.792.36-1.884.54-3.276.54h-6.984c-1.68 0-2.988-.156-3.924-.468-.912-.312-1.548-.864-1.908-1.656-.36-.792-.54-1.872-.54-3.24v-9.828Zm13.932 1.548 3.204 3.132a53.67 53.67 0 0 1-4.356 1.512 95.748 95.748 0 0 1-4.86 1.26c-1.632.384-3.216.72-4.752 1.008-.096-.456-.276-.996-.54-1.62a28.034 28.034 0 0 0-.72-1.584c1.44-.312 2.892-.66 4.356-1.044a67.915 67.915 0 0 0 4.212-1.296 47.369 47.369 0 0 0 3.456-1.368Zm-14.004 15.732h17.604v16.344h-4.284v-12.816h-9.216v12.96h-4.104v-16.488Zm2.16 5.76h12.6v3.348h-12.6v-3.348Zm-.144 5.724h12.744v3.456h-12.744V663.2Zm-16.776-10.404c1.128-.24 2.4-.528 3.816-.864 1.44-.336 2.94-.696 4.5-1.08 1.584-.408 3.156-.816 4.716-1.224l.54 3.96c-2.16.6-4.344 1.188-6.552 1.764-2.184.576-4.176 1.104-5.976 1.584l-1.044-4.14Zm.576-11.592h12.42v3.996h-12.42v-3.996Zm4.5-6.804h4.212v29.16c0 1.056-.108 1.872-.324 2.448-.216.576-.636 1.044-1.26 1.404-.6.312-1.344.516-2.232.612-.888.096-1.968.144-3.24.144-.072-.552-.228-1.212-.468-1.98a12.409 12.409 0 0 0-.72-1.98l2.016.072h1.332c.24-.024.408-.084.504-.18.12-.096.18-.264.18-.504V634.4Zm46.118 17.1h16.99v3.132h-16.99V651.5Zm-2.16-15.624h21.02v3.456h-21.02v-3.456Zm-.18 20.16h21.31v3.456h-21.31v-3.456Zm13.71 5.832 3.03-2.016c.57.528 1.17 1.104 1.8 1.728.62.624 1.2 1.248 1.73 1.872.55.624.98 1.2 1.29 1.728l-3.24 2.232c-.26-.504-.66-1.08-1.19-1.728a36.02 36.02 0 0 0-1.65-1.98c-.6-.672-1.19-1.284-1.77-1.836Zm-8.92-17.748v2.952h11.77v-2.952h-11.77Zm-3.57-3.096h19.05v9.18h-19.05v-9.18Zm7.38 16.74h4v6.66c0 .84-.1 1.524-.29 2.052-.17.528-.54.924-1.12 1.188-.55.264-1.21.432-1.98.504-.76.072-1.64.108-2.62.108a8.835 8.835 0 0 0-.47-1.8c-.22-.624-.45-1.188-.69-1.692.58.024 1.12.048 1.62.072.53 0 .88-.012 1.05-.036.19-.024.32-.06.39-.108.08-.048.11-.156.11-.324v-6.624Zm-4.97 2.016 3.32 1.8a22.168 22.168 0 0 1-2.63 3.24c-1.01 1.032-2.02 1.896-3.03 2.592-.31-.408-.72-.864-1.22-1.368-.5-.504-.98-.924-1.44-1.26.96-.6 1.9-1.368 2.81-2.304.91-.936 1.64-1.836 2.19-2.7Zm2.6-21.852h3.34v4.932h-3.34v-4.932Zm.43 4.392h2.88v7.056h-2.88v-7.056Zm4.89-4.392h3.35v4.932h-3.35v-4.932Zm0 4.392h2.92v7.056h-2.92v-7.056Zm-23.54-.432h11.88v3.996h-11.88v-3.996Zm4.39-7.488h3.89v33.804h-3.89V634.4Zm-.07 10.224 2.38.792a59.18 59.18 0 0 1-.94 4.464 71.207 71.207 0 0 1-1.3 4.5c-.48 1.464-1 2.832-1.58 4.104-.552 1.272-1.152 2.364-1.8 3.276-.192-.552-.492-1.2-.9-1.944a21.716 21.716 0 0 0-1.044-1.836 19.67 19.67 0 0 0 1.656-2.772 36.776 36.776 0 0 0 1.476-3.384c.452-1.2.852-2.412 1.192-3.636.36-1.248.64-2.436.86-3.564Zm3.78 2.7c.22.24.53.684.94 1.332.43.624.88 1.32 1.36 2.088.51.744.95 1.44 1.34 2.088.4.624.68 1.068.82 1.332l-2.23 3.096c-.21-.552-.5-1.2-.86-1.944-.34-.744-.71-1.512-1.12-2.304-.38-.792-.75-1.536-1.11-2.232-.36-.696-.68-1.272-.94-1.728l1.8-1.728ZM790.908 681.48h2.128v4.088h-2.128v-4.088Zm-10.752 2.772h23.66v5.404h-2.156v-3.528h-19.432v3.528h-2.072v-5.404Zm2.38 5.124h19.124v1.764h-19.124v-1.764Zm-2.8 8.68h24.668v1.876h-24.668v-1.876Zm3.248-4.396h18.312v1.764h-18.312v-1.764Zm10.444 4.844c.877 1.941 2.277 3.491 4.2 4.648 1.923 1.139 4.293 1.904 7.112 2.296a7.621 7.621 0 0 0-.728.868c-.243.373-.429.7-.56.98-1.979-.355-3.743-.887-5.292-1.596-1.531-.709-2.847-1.624-3.948-2.744s-1.997-2.455-2.688-4.004l1.904-.448Zm-2.576-11.48h2.128v7c0 .952-.084 1.913-.252 2.884a9.96 9.96 0 0 1-.924 2.884c-.467.952-1.148 1.876-2.044 2.772-.896.877-2.081 1.708-3.556 2.492-1.456.803-3.276 1.531-5.46 2.184a2.961 2.961 0 0 0-.308-.56 7.182 7.182 0 0 0-.504-.616 7.308 7.308 0 0 0-.476-.532c2.109-.579 3.855-1.213 5.236-1.904 1.4-.709 2.511-1.456 3.332-2.24.84-.784 1.456-1.587 1.848-2.408a8.18 8.18 0 0 0 .784-2.52c.131-.84.196-1.661.196-2.464v-6.972Zm30.128-1.624h11.732v1.932H820.98V685.4Zm4.032 2.996h1.82v14.112h-1.82v-14.112Zm-3.332-6.944 2.044.42a31.56 31.56 0 0 1-1.876 5.572c-.784 1.736-1.689 3.211-2.716 4.424a2.494 2.494 0 0 0-.448-.448l-.616-.56a3.066 3.066 0 0 0-.56-.42c.971-1.083 1.811-2.417 2.52-4.004a26.488 26.488 0 0 0 1.652-4.984Zm-3.696 14.7 12.292-5.796.756 1.736-12.292 5.768-.756-1.708Zm2.464-5.572h1.904v13.412c0 .541.103.896.308 1.064.224.168.719.252 1.484.252h5.488c.411 0 .719-.084.924-.252.205-.168.355-.485.448-.952.093-.467.159-1.148.196-2.044.224.168.504.327.84.476.355.131.672.224.952.28-.075 1.101-.224 1.96-.448 2.576-.205.635-.523 1.083-.952 1.344-.429.261-1.045.392-1.848.392h-5.712c-.933 0-1.661-.093-2.184-.28-.523-.168-.887-.485-1.092-.952-.205-.448-.308-1.092-.308-1.932V690.58Zm9.352.252h-.252l.476-.42.364-.28 1.344.532-.112.308c0 1.008-.009 1.969-.028 2.884 0 .915-.009 1.755-.028 2.52 0 .747-.009 1.381-.028 1.904-.019.504-.047.849-.084 1.036-.037.448-.168.793-.392 1.036a1.753 1.753 0 0 1-.868.504 7.005 7.005 0 0 1-1.064.168 9.91 9.91 0 0 1-1.064 0 4.935 4.935 0 0 0-.14-.84 3.762 3.762 0 0 0-.28-.812c.261.019.532.028.812.028h.644a.7.7 0 0 0 .364-.084c.112-.056.187-.196.224-.42.019-.131.037-.42.056-.868.019-.467.028-1.055.028-1.764V693.8c.019-.933.028-1.923.028-2.968Zm-22.568-4.788h11.844v1.988h-11.844v-1.988Zm4.032 5.824h4.928v1.96h-4.928v-1.96Zm.896-10.332h2.016v5.208h-2.016v-5.208Zm-1.876 5.628h2.016c-.037 1.96-.103 3.892-.196 5.796a62.121 62.121 0 0 1-.504 5.488c-.243 1.755-.616 3.379-1.12 4.872-.485 1.493-1.139 2.8-1.96 3.92a5.799 5.799 0 0 0-.756-.784 5.318 5.318 0 0 0-.84-.616c.747-1.008 1.335-2.203 1.764-3.584a26.96 26.96 0 0 0 1.008-4.536 55.26 55.26 0 0 0 .448-5.152c.075-1.792.121-3.593.14-5.404Zm5.208 4.704h1.932v.952a551.284 551.284 0 0 1-.168 5.936c-.037 1.605-.103 2.921-.196 3.948-.075 1.027-.168 1.82-.28 2.38-.112.56-.261.961-.448 1.204-.224.299-.457.504-.7.616-.243.131-.56.224-.952.28-.317.037-.747.056-1.288.056a26.37 26.37 0 0 1-1.68-.056 5.734 5.734 0 0 0-.168-.98 3.32 3.32 0 0 0-.364-.896c.56.037 1.083.056 1.568.056.485.019.831.028 1.036.028.187.019.345 0 .476-.056.149-.037.28-.14.392-.308.149-.224.28-.756.392-1.596.112-.859.196-2.184.252-3.976.075-1.792.14-4.181.196-7.168v-.42Zm31.36-10.388h2.128v3.948h-2.128v-3.948Zm0 15.988h2.128v9.856h-2.128v-9.856Zm-11.34 2.184h25.004v1.96h-25.004v-1.96Zm.84-15.036h23.38v1.96h-23.38v-1.96Zm21.168 2.716 1.848.952a26.96 26.96 0 0 1-2.324 1.904 56.752 56.752 0 0 1-2.324 1.624l-1.54-.924a35.2 35.2 0 0 0 1.512-1.092 36.254 36.254 0 0 0 1.568-1.26c.504-.448.924-.849 1.26-1.204Zm-11.116-1.232 1.82.728a71.295 71.295 0 0 1-1.68 2.184 25.817 25.817 0 0 1-1.68 1.876l-1.372-.616c.336-.392.681-.831 1.036-1.316.355-.485.691-.98 1.008-1.484.336-.504.625-.961.868-1.372Zm4.088 2.156 1.652.812a70.902 70.902 0 0 1-2.408 2.8 96.246 96.246 0 0 1-2.66 2.828 45.249 45.249 0 0 1-2.52 2.352l-1.288-.728a33.358 33.358 0 0 0 2.52-2.436 90.51 90.51 0 0 0 2.548-2.884 40.878 40.878 0 0 0 2.156-2.744Zm-8.204 1.988 1.036-1.232c.541.317 1.111.681 1.708 1.092.597.411 1.167.821 1.708 1.232.541.392.971.756 1.288 1.092l-1.092 1.4c-.317-.355-.747-.737-1.288-1.148a33.172 33.172 0 0 0-1.68-1.288 24.923 24.923 0 0 0-1.68-1.148Zm-.364 5.432c.915-.037 1.951-.075 3.108-.112 1.176-.056 2.417-.121 3.724-.196 1.325-.075 2.66-.14 4.004-.196l-.028 1.54c-1.904.149-3.771.289-5.6.42a794.54 794.54 0 0 0-4.9.364l-.308-1.82Zm7.504-2.52 1.512-.728a27.57 27.57 0 0 1 1.4 1.708c.485.597.915 1.195 1.288 1.792.392.597.691 1.129.896 1.596l-1.624.84a9.761 9.761 0 0 0-.84-1.624 21.479 21.479 0 0 0-1.26-1.848 19.35 19.35 0 0 0-1.372-1.736Zm-14.028 3.108a95.248 95.248 0 0 0 3.22-1.288c1.251-.523 2.529-1.055 3.836-1.596l.392 1.596a558.734 558.734 0 0 1-3.332 1.568c-1.12.523-2.147.989-3.08 1.4l-1.036-1.68Zm.98-7.364 1.4-1.176c.541.261 1.092.579 1.652.952.56.355 1.092.709 1.596 1.064.504.355.915.691 1.232 1.008l-1.456 1.316a11.083 11.083 0 0 0-1.232-1.036 21.112 21.112 0 0 0-1.568-1.148 15.07 15.07 0 0 0-1.624-.98Zm16.268 5.348 1.456-1.204c.728.355 1.493.765 2.296 1.232.821.448 1.596.905 2.324 1.372a17.61 17.61 0 0 1 1.82 1.26l-1.54 1.344c-.448-.392-1.036-.821-1.764-1.288a36.656 36.656 0 0 0-2.268-1.428 33.217 33.217 0 0 0-2.324-1.288ZM876 691.392c.56 0 1.064.131 1.512.392.448.261.803.616 1.064 1.064.261.448.392.952.392 1.512a3.05 3.05 0 0 1-.392 1.512 2.903 2.903 0 0 1-1.064 1.064 2.948 2.948 0 0 1-1.512.392 3.05 3.05 0 0 1-1.512-.392 2.903 2.903 0 0 1-1.064-1.064 3.05 3.05 0 0 1-.392-1.512c0-.56.131-1.064.392-1.512a2.903 2.903 0 0 1 1.064-1.064 3.05 3.05 0 0 1 1.512-.392Zm24.976 4.956h13.972v10.724h-2.016v-8.792h-9.996v8.932h-1.96v-10.864Zm12.936-14.756 1.68 1.624c-1.288.448-2.763.84-4.424 1.176a79.387 79.387 0 0 1-5.124.868c-1.773.243-3.491.448-5.152.616a7.619 7.619 0 0 0-.28-.896 7.717 7.717 0 0 0-.336-.896 182.93 182.93 0 0 0 3.724-.448c1.288-.168 2.539-.355 3.752-.56a75.764 75.764 0 0 0 3.388-.7 24.65 24.65 0 0 0 2.772-.784Zm-6.86 2.408h1.988v13.468h-1.988V684Zm-8.092 5.684h17.836v2.016H898.96v-2.016Zm3.36 14.42h11.536v1.904H902.32v-1.904Zm-9.772-20.776 1.176-1.484c.579.261 1.195.569 1.848.924.672.355 1.316.709 1.932 1.064.616.336 1.12.635 1.512.896l-1.232 1.736a14.355 14.355 0 0 0-1.512-.98 55.423 55.423 0 0 0-1.876-1.12 33.253 33.253 0 0 0-1.848-1.036Zm-1.372 7.7 1.148-1.54c.56.261 1.167.569 1.82.924.653.355 1.279.7 1.876 1.036.616.336 1.12.635 1.512.896l-1.176 1.736a24.123 24.123 0 0 0-1.456-.924c-.597-.355-1.223-.719-1.876-1.092a33.253 33.253 0 0 0-1.848-1.036Zm.644 14.42a50.957 50.957 0 0 0 1.68-2.548 80.236 80.236 0 0 0 1.904-3.192 120.733 120.733 0 0 0 1.764-3.276l1.54 1.372a63.026 63.026 0 0 1-1.624 3.08 127.572 127.572 0 0 1-3.472 5.992l-1.792-1.428Zm31.668-22.008h18.116v2.016h-18.116v-2.016Zm0 6.524h18.06v1.988h-18.06v-1.988Zm-.168 6.692h18.284v1.988H923.32v-1.988Zm-1.036-13.216h2.072v10.164c0 1.064-.047 2.203-.14 3.416a28.917 28.917 0 0 1-.532 3.696 15.831 15.831 0 0 1-1.148 3.556 11.685 11.685 0 0 1-2.016 3.108 2.57 2.57 0 0 0-.448-.504l-.616-.504a2.562 2.562 0 0 0-.56-.364c.784-.877 1.4-1.829 1.848-2.856a15.994 15.994 0 0 0 1.008-3.164c.224-1.101.364-2.193.42-3.276a45.04 45.04 0 0 0 .112-3.108V683.44Zm18.48 0h2.072v20.944c0 .672-.103 1.185-.308 1.54-.187.355-.513.625-.98.812-.467.168-1.12.271-1.96.308-.84.037-1.923.047-3.248.028a8.097 8.097 0 0 0-.308-1.008 6.641 6.641 0 0 0-.42-1.008c.653.019 1.279.028 1.876.028.616.019 1.148.019 1.596 0h.924c.28-.019.476-.075.588-.168.112-.093.168-.271.168-.532V683.44Zm-9.688.756h2.128v22.792h-2.128v-22.792Zm23.1.784h5.32v1.82h-5.32v-1.82Zm-7.028 4.928h13.076v1.904h-13.076v-1.904Zm6.02-8.288h1.876v9.24h-1.876v-9.24Zm-4.032 2.072h1.736v7.504h-1.736v-7.504Zm8.204 13.664 1.82.56c-.821 2.371-2.1 4.331-3.836 5.88-1.736 1.531-3.957 2.716-6.664 3.556-.093-.28-.261-.579-.504-.896a6.24 6.24 0 0 0-.672-.812c2.539-.672 4.629-1.689 6.272-3.052 1.643-1.363 2.837-3.108 3.584-5.236Zm-.756-3.92 1.624-.56c.448.709.877 1.484 1.288 2.324.411.84.709 1.559.896 2.156l-1.736.672c-.149-.597-.42-1.325-.812-2.184a20.747 20.747 0 0 0-1.26-2.408Zm-3.416-2.184h1.876v7.336c0 .467-.056.84-.168 1.12-.093.261-.299.467-.616.616-.317.149-.719.243-1.204.28-.485.019-1.083.028-1.792.028a3.369 3.369 0 0 0-.196-.868 7.715 7.715 0 0 0-.308-.868 31.8 31.8 0 0 0 1.288.028c.392 0 .653-.009.784-.028.224 0 .336-.112.336-.336v-7.308Zm-3.556 1.708 1.848.42a21.434 21.434 0 0 1-1.232 3.248c-.485 1.045-1.008 1.941-1.568 2.688a2.1 2.1 0 0 0-.476-.336 7.05 7.05 0 0 0-.644-.364 17.965 17.965 0 0 0-.532-.28c.579-.672 1.092-1.484 1.54-2.436a17.94 17.94 0 0 0 1.064-2.94Zm10.36-10.164h12.74v1.82h-12.74v-1.82Zm2.744 10.444v2.716h7.448v-2.716h-7.448Zm0 4.284v2.744h7.448v-2.744h-7.448Zm0-8.568v2.688h7.448v-2.688h-7.448Zm-1.848-1.652h11.2v14.616h-11.2v-14.616Zm4.536-3.64 2.212.28a56.926 56.926 0 0 1-.672 2.408 60.642 60.642 0 0 1-.672 2.1l-1.736-.336c.112-.411.224-.877.336-1.4.112-.541.215-1.073.308-1.596a12.63 12.63 0 0 0 .224-1.456Zm-2.016 18.732 1.82 1.092a15.16 15.16 0 0 1-1.68 1.428 19.088 19.088 0 0 1-4.088 2.38c-.168-.187-.392-.42-.672-.7-.28-.261-.532-.485-.756-.672a15.595 15.595 0 0 0 2.044-.98 22.617 22.617 0 0 0 1.904-1.26 11.123 11.123 0 0 0 1.428-1.288Zm3.92 1.176 1.568-1.036a24.14 24.14 0 0 1 1.624 1.148c.56.429 1.092.859 1.596 1.288.504.411.915.793 1.232 1.148l-1.652 1.148a14.82 14.82 0 0 0-1.204-1.176 41.475 41.475 0 0 0-1.568-1.316 32.842 32.842 0 0 0-1.596-1.204ZM980.3 689.32h19.94v1.736H980.3v-1.736Zm.392 8.176h16.044v1.736h-16.044v-1.736Zm4.116-10.612h2.016v7.14h6.804v-7.14h2.072v8.82h-10.892v-8.82Zm11.368 10.612h.42l.364-.084 1.316.7a12.838 12.838 0 0 1-2.996 3.78 17.764 17.764 0 0 1-4.2 2.632 28.059 28.059 0 0 1-5.04 1.708c-1.792.448-3.64.784-5.544 1.008-.056-.243-.177-.541-.364-.896a4.074 4.074 0 0 0-.532-.868 52.236 52.236 0 0 0 5.208-.812 27.79 27.79 0 0 0 4.76-1.484c1.493-.616 2.809-1.363 3.948-2.24 1.139-.877 2.025-1.923 2.66-3.136v-.308Zm-10.5 1.456c.896 1.251 2.1 2.324 3.612 3.22 1.531.896 3.285 1.615 5.264 2.156 1.979.541 4.097.924 6.358 1.148-.13.149-.28.336-.45.56-.15.224-.3.439-.45.644-.129.224-.241.429-.334.616-2.296-.299-4.452-.775-6.468-1.428-2.016-.635-3.827-1.465-5.432-2.492-1.587-1.045-2.884-2.287-3.892-3.724l1.792-.7Zm2.072-17.472h2.156v3.836h-2.156v-3.836Zm-9.324 2.772h21.976v1.904h-21.976v-1.904Zm-1.036 0h2.016v8.092c0 1.083-.037 2.268-.112 3.556a36.778 36.778 0 0 1-.392 3.948 27.15 27.15 0 0 1-.84 3.92 15.037 15.037 0 0 1-1.456 3.5 4.91 4.91 0 0 0-.504-.42c-.205-.149-.42-.299-.644-.448a2.361 2.361 0 0 0-.588-.28 14.756 14.756 0 0 0 1.372-3.248c.336-1.176.588-2.38.756-3.612.168-1.232.271-2.436.308-3.612.056-1.195.084-2.296.084-3.304v-8.092Zm38.612 7.14c.56 0 1.06.131 1.51.392.45.261.8.616 1.07 1.064.26.448.39.952.39 1.512 0 .541-.13 1.045-.39 1.512-.27.448-.62.803-1.07 1.064-.45.261-.95.392-1.51.392-.54 0-1.05-.131-1.51-.392-.45-.261-.8-.616-1.07-1.064a3.058 3.058 0 0 1-.39-1.512c0-.56.13-1.064.39-1.512.27-.448.62-.803 1.07-1.064.46-.261.97-.392 1.51-.392Zm20.89 1.148v9.912h-2.05V694.5h-3.55v-1.96h5.6Zm0 9.044c.65 1.027 1.58 1.792 2.8 2.296 1.21.504 2.64.793 4.28.868.79.019 1.74.037 2.86.056h3.53c1.23-.019 2.42-.047 3.58-.084 1.16-.037 2.16-.084 3-.14-.08.149-.16.345-.26.588-.09.243-.17.495-.25.756-.07.261-.13.504-.17.728-.78.019-1.71.037-2.8.056-1.06.037-2.17.056-3.33.056-1.16.019-2.28.019-3.36 0s-2-.037-2.77-.056c-1.85-.075-3.43-.373-4.73-.896a7.859 7.859 0 0 1-3.28-2.436c-.61.597-1.25 1.195-1.9 1.792-.64.616-1.3 1.232-1.99 1.848l-1.09-2.072c.61-.448 1.28-.961 1.99-1.54a33.63 33.63 0 0 0 2.04-1.82h1.85Zm-5.32-18.228 1.59-1.176c.58.429 1.16.915 1.74 1.456.6.541 1.14 1.083 1.62 1.624.51.541.9 1.045 1.18 1.512l-1.71 1.316c-.26-.467-.63-.98-1.12-1.54a19.51 19.51 0 0 0-1.59-1.68c-.56-.56-1.13-1.064-1.71-1.512Zm6.89.476h18.06v1.708h-18.06v-1.708Zm3.94 8.176h10v1.428h-10v-1.428Zm3.87-10.528h2.04v3.388h-2.04v-3.388Zm.31 8.484h1.59v5.908h-1.59v-5.908Zm-7.09-1.568h14.84v1.708h-12.91v12.992h-1.93v-14.7Zm4.17 7.056h1.54v6.16h-1.54v-6.16Zm.82 0h6.72v5.096h-6.72v-1.344h5.15v-2.408h-5.15v-1.344Zm9.07-7.056h1.96v12.432c0 .523-.07.933-.2 1.232-.11.28-.34.504-.7.672-.39.131-.88.215-1.45.252-.58.037-1.29.056-2.13.056-.04-.261-.12-.56-.25-.896a6.995 6.995 0 0 0-.4-.896c.64.019 1.21.028 1.71.028h1.04c.17-.019.28-.056.33-.112.06-.056.09-.168.09-.336v-12.432Zm-2.63-3.192 1.96.504c-.28.579-.58 1.148-.9 1.708-.3.541-.58 1.008-.84 1.4l-1.65-.448c.24-.467.49-.999.75-1.596.28-.597.51-1.12.68-1.568Zm-8.94.588 1.74-.448c.3.429.57.924.81 1.484.26.56.44 1.045.53 1.456l-1.84.504c-.08-.411-.24-.896-.48-1.456-.22-.56-.48-1.073-.76-1.54Zm21.51-2.352h18.11v2.016h-18.11v-2.016Zm0 6.524h18.06v1.988h-18.06v-1.988Zm-.17 6.692h18.28v1.988h-18.28v-1.988Zm-1.04-13.216h2.08v10.164c0 1.064-.05 2.203-.14 3.416-.1 1.213-.27 2.445-.54 3.696a15.81 15.81 0 0 1-1.14 3.556 11.848 11.848 0 0 1-2.02 3.108 2.348 2.348 0 0 0-.45-.504c-.2-.168-.41-.336-.61-.504a2.91 2.91 0 0 0-.56-.364c.78-.877 1.4-1.829 1.84-2.856.45-1.027.79-2.081 1.01-3.164.23-1.101.37-2.193.42-3.276.08-1.083.11-2.119.11-3.108V683.44Zm18.48 0h2.08v20.944c0 .672-.11 1.185-.31 1.54-.19.355-.52.625-.98.812-.47.168-1.12.271-1.96.308-.84.037-1.92.047-3.25.028a8.72 8.72 0 0 0-.31-1.008 6.443 6.443 0 0 0-.42-1.008c.66.019 1.28.028 1.88.028.61.019 1.15.019 1.59 0h.93c.28-.019.47-.075.59-.168.11-.093.16-.271.16-.532V683.44Zm-9.68.756h2.12v22.792h-2.12v-22.792Zm16.6 5.376h12.52v1.624h-12.52v-1.624Zm-.39 12.796h13.27v1.624h-13.27v-1.624Zm15.15-13.16h8.14v1.876h-8.14v-1.876Zm-9.41-1.092h1.79v19.124h-1.79v-19.124Zm-2.94 9.268v1.876h7.67v-1.876h-7.67Zm0-3.22v1.848h7.67v-1.848h-7.67Zm-1.74-1.372h11.2v7.868h-11.2v-7.868Zm13.02-3.584h1.99v14.476c0 .541.1.905.31 1.092.2.168.63.252 1.29.252h4.7c.41 0 .71-.093.9-.28.2-.205.34-.579.42-1.12.09-.541.15-1.325.19-2.352.24.187.54.355.9.504.37.149.7.261.98.336-.08 1.232-.22 2.203-.42 2.912-.21.709-.53 1.204-.98 1.484-.43.299-1.04.448-1.82.448h-5.04c-.88 0-1.57-.093-2.07-.28-.49-.168-.83-.495-1.04-.98-.21-.467-.31-1.139-.31-2.016v-14.476Zm8.21 0h2.01v8.372c0 .523-.07.943-.22 1.26-.13.299-.39.541-.79.728-.39.168-.91.28-1.56.336-.66.037-1.46.056-2.41.056a5.753 5.753 0 0 0-.31-1.008 5.394 5.394 0 0 0-.42-.98c.77.019 1.44.028 2.02.028h1.2c.19-.019.31-.056.36-.112.08-.056.12-.168.12-.336v-8.344Zm-18.99-5.572h9.05v1.792h-9.05v-1.792Zm10.81 0h11.31v1.792h-11.31v-1.792Zm-10.28-2.296 1.96.532a20.432 20.432 0 0 1-1.96 3.584c-.76 1.157-1.55 2.137-2.38 2.94-.13-.112-.3-.233-.53-.364-.2-.149-.42-.299-.64-.448a3.301 3.301 0 0 0-.56-.336c.84-.747 1.62-1.633 2.35-2.66a15.7 15.7 0 0 0 1.76-3.248Zm11.01 0 2.01.504a15.726 15.726 0 0 1-2.01 3.528c-.84 1.12-1.71 2.053-2.61 2.8-.13-.112-.3-.233-.53-.364-.22-.131-.45-.261-.67-.392a4.334 4.334 0 0 0-.62-.308c.94-.691 1.8-1.54 2.58-2.548.8-1.027 1.42-2.1 1.85-3.22Zm-10 3.696 1.79-.476c.3.448.59.952.87 1.512.3.56.52 1.036.65 1.428l-1.88.56c-.11-.411-.31-.896-.59-1.456-.26-.56-.54-1.083-.84-1.568Zm11.82 0 1.82-.588c.45.504.88 1.064 1.31 1.68.45.597.78 1.139.98 1.624l-1.87.616c-.21-.467-.52-1.008-.95-1.624-.43-.635-.86-1.204-1.29-1.708Zm16.38 4.536h15.71v1.736h-15.71v-1.736Zm-.31 5.516h16.13v1.792h-16.13v-1.792Zm10.42-9.044h1.84v16.632h-1.84v-16.632Zm-6.39 0h1.82v7.28c0 1.288-.1 2.529-.31 3.724a8.704 8.704 0 0 1-1.2 3.276c-.6 1.008-1.52 1.923-2.77 2.744-.1-.149-.23-.308-.39-.476a11.15 11.15 0 0 0-.48-.504 2.81 2.81 0 0 0-.48-.392c1.14-.709 1.97-1.503 2.5-2.38a8.09 8.09 0 0 0 1.06-2.856c.17-1.027.25-2.081.25-3.164v-7.252Zm-7.7-3.248h23.35v24.5h-2.15v-22.54h-19.1v22.54h-2.1v-24.5Zm1.18 21.224h20.86v1.96h-20.86v-1.96Z"/>
    <path fill="#F3F4F6" stroke="#D1D5DB" stroke-width="2" d="M1705 763H215c-8.284 0-15 6.716-15 15v220c0 8.28 6.716 15 15 15h1490c8.28 0 15-6.72 15-15V778c0-8.284-6.72-15-15-15Z"/>
    <path fill="#000" d="M866.688 796.064v3.06h3.528v-3.06h-3.528Zm0 6.516v3.096h3.528v-3.096h-3.528Zm0-12.996v3.024h3.528v-3.024h-3.528Zm-3.636-3.744h10.944v23.58h-10.944v-23.58Zm6.084 25.416 3.276-1.836c.456.552.924 1.164 1.404 1.836.504.672.96 1.332 1.368 1.98.432.648.78 1.224 1.044 1.728l-3.456 2.052a14.53 14.53 0 0 0-.936-1.764 42.15 42.15 0 0 0-1.332-2.052 22.713 22.713 0 0 0-1.368-1.944Zm-5.112-1.512 3.924 1.08a26.289 26.289 0 0 1-2.196 4.104c-.888 1.368-1.764 2.508-2.628 3.42a13.63 13.63 0 0 0-1.044-.756 22.804 22.804 0 0 0-1.26-.828 24.2 24.2 0 0 0-1.116-.648c.864-.792 1.68-1.764 2.448-2.916.792-1.152 1.416-2.304 1.872-3.456Zm17.712-25.344h3.924v28.98c0 1.08-.12 1.932-.36 2.556-.216.624-.648 1.104-1.296 1.44-.624.336-1.428.552-2.412.648-.96.12-2.148.18-3.564.18-.072-.576-.228-1.272-.468-2.088a16.347 16.347 0 0 0-.756-2.052c.912.024 1.764.048 2.556.072h1.62c.288-.024.48-.084.576-.18.12-.12.18-.312.18-.576V784.4Zm-5.94 3.708h3.708v20.88h-3.708v-20.88Zm-21.42-.252 2.448-3.132a22.12 22.12 0 0 1 2.052.972c.744.384 1.44.792 2.088 1.224.672.408 1.212.804 1.62 1.188l-2.592 3.456c-.36-.408-.864-.828-1.512-1.26-.624-.456-1.296-.9-2.016-1.332a22.449 22.449 0 0 0-2.088-1.116Zm-1.368 9.648 2.376-3.204c.672.264 1.368.576 2.088.936.744.336 1.44.708 2.088 1.116.672.384 1.212.756 1.62 1.116l-2.52 3.492c-.384-.36-.9-.756-1.548-1.188a20.419 20.419 0 0 0-2.016-1.224 21.152 21.152 0 0 0-2.088-1.044Zm.612 18.108c.456-.936.948-2.04 1.476-3.312a115.711 115.711 0 0 0 1.656-4.032 70.751 70.751 0 0 0 1.548-4.248l3.492 2.232a75.838 75.838 0 0 1-1.296 3.96 189.53 189.53 0 0 1-1.476 3.924 196.588 196.588 0 0 1-1.512 3.708l-3.888-2.232Zm42.408-20.34h19.908v4.14h-19.908v-4.14Zm9.972 8.64h12.132v4.068H906v-4.068Zm-2.268-6.228h4.5v17.388l-4.5-.54v-16.848Zm-8.604 3.708 4.5.468c-.48 3.672-1.296 6.912-2.448 9.72-1.152 2.808-2.76 5.1-4.824 6.876-.24-.264-.576-.588-1.008-.972a21.237 21.237 0 0 0-1.368-1.116c-.456-.36-.852-.648-1.188-.864 1.944-1.44 3.408-3.372 4.392-5.796.984-2.448 1.632-5.22 1.944-8.316Zm3.492 4.536c.552 1.632 1.272 2.964 2.16 3.996.912 1.008 1.956 1.776 3.132 2.304 1.2.504 2.508.852 3.924 1.044 1.416.192 2.916.288 4.5.288h6.228c.84-.024 1.62-.036 2.34-.036.72-.024 1.32-.048 1.8-.072-.216.36-.432.804-.648 1.332a24.436 24.436 0 0 0-.54 1.584 11.295 11.295 0 0 0-.36 1.512h-9.036c-2.088 0-4.008-.144-5.76-.432-1.752-.288-3.336-.816-4.752-1.584-1.392-.744-2.64-1.824-3.744-3.24-1.08-1.416-2.004-3.264-2.772-5.544l3.528-1.152Zm5.04-21.456h4.608v6.552h-4.608v-6.552Zm-13.104 3.636h30.924v9.036h-4.428v-4.968h-22.248v4.968h-4.248v-9.036Zm63.468 2.484c-.144.216-.36.552-.648 1.008a8.532 8.532 0 0 0-.612 1.26 60.37 60.37 0 0 1-1.872 3.78 45.857 45.857 0 0 1-2.484 4.212 40.573 40.573 0 0 1-2.916 3.924 60.512 60.512 0 0 1-4.464 4.5 49.356 49.356 0 0 1-5.112 4.068 39.384 39.384 0 0 1-5.472 3.168l-3.708-3.888a33.49 33.49 0 0 0 5.652-2.808 42.215 42.215 0 0 0 5.076-3.672c1.56-1.32 2.904-2.604 4.032-3.852a30.16 30.16 0 0 0 2.232-2.916 33.387 33.387 0 0 0 1.908-3.06c.552-1.032.96-1.98 1.224-2.844h-12.204c-.504 0-1.032.024-1.584.072-.552.024-1.08.06-1.584.108-.48.024-.852.048-1.116.072v-5.112c.36.024.804.06 1.332.108a35.096 35.096 0 0 0 2.952.144h12.708c.792 0 1.512-.048 2.16-.144.672-.096 1.188-.204 1.548-.324l2.952 2.196Zm-8.064 11.196a50.711 50.711 0 0 1 2.988 2.592 93.62 93.62 0 0 1 3.132 3.06 78.511 78.511 0 0 1 2.844 3.06c.888.96 1.632 1.8 2.232 2.52l-4.104 3.564a54.614 54.614 0 0 0-3.06-3.816 77.282 77.282 0 0 0-3.6-3.924 69.86 69.86 0 0 0-3.816-3.744l3.384-3.312Zm21.276-14.4c.6.096 1.248.168 1.944.216.696.024 1.332.036 1.908.036h14.472c.624 0 1.272-.012 1.944-.036.672-.048 1.32-.12 1.944-.216v4.644a47.448 47.448 0 0 0-1.944-.108 54.52 54.52 0 0 0-1.944-.036h-14.436c-.624 0-1.296.012-2.016.036-.696.024-1.32.06-1.872.108v-4.644Zm-4.176 9.216c.528.048 1.092.096 1.692.144.624.048 1.212.072 1.764.072h23.58c.384 0 .9-.012 1.548-.036a22.846 22.846 0 0 0 1.728-.18v4.68a14.68 14.68 0 0 0-1.584-.072 44.403 44.403 0 0 0-1.692-.036h-23.58c-.528 0-1.116.012-1.764.036a30.25 30.25 0 0 0-1.692.108v-4.716Zm18.432 2.484c0 2.352-.204 4.464-.612 6.336-.408 1.848-.996 3.516-1.764 5.004-.432.816-1.008 1.656-1.728 2.52-.72.864-1.548 1.68-2.484 2.448a15.451 15.451 0 0 1-3.024 1.944l-4.212-3.06c1.272-.504 2.496-1.224 3.672-2.16 1.176-.936 2.124-1.932 2.844-2.988a12.476 12.476 0 0 0 1.836-4.608c.312-1.68.468-3.48.468-5.4l5.004-.036Zm32.688-5.472c.17.384.38.936.65 1.656.29.696.59 1.452.9 2.268.31.792.59 1.548.83 2.268.24.72.43 1.284.57 1.692l-4.32 1.512c-.09-.456-.26-1.032-.5-1.728s-.51-1.428-.79-2.196a76.247 76.247 0 0 0-1.62-4.068l4.28-1.404Zm13.28 2.628c-.19.576-.36 1.068-.5 1.476-.12.408-.24.792-.36 1.152a35.747 35.747 0 0 1-1.87 5.472c-.79 1.8-1.8 3.492-3.03 5.076-1.68 2.16-3.58 3.996-5.72 5.508-2.11 1.488-4.22 2.628-6.34 3.42l-3.78-3.852c1.32-.36 2.72-.888 4.18-1.584 1.46-.72 2.88-1.584 4.25-2.592a18.937 18.937 0 0 0 3.53-3.348 18.813 18.813 0 0 0 2.16-3.528 25.418 25.418 0 0 0 1.58-4.284c.43-1.536.72-3.048.86-4.536l5.04 1.62Zm-21.63-.72c.24.456.5 1.044.79 1.764.31.72.62 1.476.94 2.268l.9 2.304c.31.744.55 1.368.72 1.872l-4.4 1.656a32.72 32.72 0 0 0-.64-1.872c-.27-.768-.57-1.572-.9-2.412-.34-.864-.66-1.656-.98-2.376a14.45 14.45 0 0 0-.75-1.656l4.32-1.548Zm55.11-6.912c0 .576.21 1.068.62 1.476.4.384.88.576 1.44.576.57 0 1.06-.192 1.47-.576.41-.408.61-.9.61-1.476s-.2-1.068-.61-1.476c-.41-.408-.9-.612-1.47-.612-.56 0-1.04.204-1.44.612-.41.408-.62.9-.62 1.476Zm-2.23 0c0-.792.19-1.512.58-2.16.41-.672.93-1.2 1.58-1.584a4.112 4.112 0 0 1 2.13-.576c.79 0 1.51.192 2.16.576.67.384 1.2.912 1.58 1.584.38.648.58 1.368.58 2.16 0 .768-.2 1.476-.58 2.124a4.521 4.521 0 0 1-1.58 1.584c-.65.384-1.37.576-2.16.576-.77 0-1.48-.192-2.13-.576a4.98 4.98 0 0 1-1.58-1.584 4.039 4.039 0 0 1-.58-2.124Zm4.36 2.844c-.17.336-.31.744-.43 1.224-.12.456-.24.876-.36 1.26-.2.888-.45 1.884-.76 2.988a45.4 45.4 0 0 1-1.12 3.384c-.43 1.176-.94 2.34-1.54 3.492a22.75 22.75 0 0 1-1.98 3.24 25.914 25.914 0 0 1-3.78 4.032 29.665 29.665 0 0 1-4.83 3.384c-1.77 1.008-3.73 1.86-5.87 2.556l-3.92-4.32c2.4-.576 4.46-1.284 6.19-2.124 1.73-.84 3.23-1.8 4.5-2.88 1.3-1.08 2.44-2.232 3.42-3.456.79-1.008 1.47-2.1 2.02-3.276a24.633 24.633 0 0 0 1.4-3.528c.39-1.2.65-2.316.79-3.348h-16.74c-.84 0-1.65.012-2.44.036-.77.024-1.38.06-1.84.108v-5.076a34.281 34.281 0 0 0 4.28.288h16.67c.36 0 .79-.012 1.3-.036a6.193 6.193 0 0 0 1.51-.252l3.53 2.304Z"/>
    <path fill="#374151" d="M350 943c33.137 0 60-26.863 60-60s-26.863-60-60-60-60 26.863-60 60 26.863 60 60 60Z"/>
    <path fill="#fff" d="M355.521 896h-6.52v-18.2c.027-.667.04-1.36.04-2.08.027-.72.053-1.36.08-1.92-.213.16-.493.453-.84.88-.32.427-.653.787-1 1.08l-3 2.64-3.28-3.64 8.92-7.32h5.6V896Z"/>
    <path fill="#000" d="M265.581 966.982c.243.347.512.771.806 1.274.312.503.616 1.005.91 1.508.295.503.538.962.728 1.378l-2.34 1.014a17.853 17.853 0 0 0-.754-1.534 20.184 20.184 0 0 0-.754-1.378 9.952 9.952 0 0 0-.858-1.326l2.262-.936Zm3.484-1.43c.26.329.546.745.858 1.248.312.485.616.979.91 1.482.312.485.564.927.754 1.326l-2.262 1.092a28.59 28.59 0 0 0-.806-1.508c-.26-.468-.528-.91-.806-1.326-.26-.433-.554-.867-.884-1.3l2.236-1.014Zm-21.008 12.038a21.02 21.02 0 0 0 1.066-.936c.312-.295.676-.641 1.092-1.04a42.948 42.948 0 0 0 2.236-2.574l1.378-1.638c.468-.572.928-1.127 1.378-1.664.763-.919 1.552-1.421 2.366-1.508.815-.104 1.725.329 2.73 1.3.59.537 1.188 1.118 1.794 1.742a90.547 90.547 0 0 1 1.82 1.872c.607.624 1.17 1.222 1.69 1.794.59.607 1.248 1.309 1.976 2.106.746.797 1.5 1.612 2.262 2.444.78.832 1.5 1.603 2.158 2.314l-2.86 3.068a118.066 118.066 0 0 0-1.846-2.288c-.658-.797-1.3-1.569-1.924-2.314a71.062 71.062 0 0 0-1.716-2.028c-.364-.451-.78-.927-1.248-1.43-.45-.52-.901-1.031-1.352-1.534-.45-.503-.866-.953-1.248-1.352-.381-.399-.684-.719-.91-.962-.433-.416-.806-.607-1.118-.572-.294.017-.632.26-1.014.728-.242.329-.537.719-.884 1.17-.346.451-.702.927-1.066 1.43-.364.503-.719.988-1.066 1.456-.329.468-.624.875-.884 1.222-.294.416-.589.841-.884 1.274-.294.416-.563.797-.806 1.144l-3.12-3.224Zm27.482-4.628c.312.017.711.043 1.196.078l1.508.052c.538.017 1.032.026 1.482.026h13.962c.607 0 1.179-.017 1.716-.052.538-.052.98-.087 1.326-.104v4.082l-1.326-.078a28.934 28.934 0 0 0-1.716-.052h-13.962c-.745 0-1.508.017-2.288.052-.78.017-1.412.043-1.898.078v-4.082Zm43.998-5.59c-.104.156-.26.399-.468.728a6.129 6.129 0 0 0-.442.91 43.603 43.603 0 0 1-1.352 2.73 33.208 33.208 0 0 1-1.794 3.042 29.454 29.454 0 0 1-2.106 2.834 43.962 43.962 0 0 1-3.224 3.25 35.717 35.717 0 0 1-3.692 2.938 28.43 28.43 0 0 1-3.952 2.288l-2.678-2.808a24.163 24.163 0 0 0 4.082-2.028 30.615 30.615 0 0 0 3.666-2.652 30.466 30.466 0 0 0 2.912-2.782 21.918 21.918 0 0 0 1.612-2.106 24.14 24.14 0 0 0 1.378-2.21c.398-.745.693-1.43.884-2.054h-8.814c-.364 0-.746.017-1.144.052-.399.017-.78.043-1.144.078-.347.017-.616.035-.806.052v-3.692c.26.017.58.043.962.078a24.316 24.316 0 0 0 2.132.104h9.178c.572 0 1.092-.035 1.56-.104.485-.069.858-.147 1.118-.234l2.132 1.586Zm-5.824 8.086a36.484 36.484 0 0 1 2.158 1.872 68.917 68.917 0 0 1 2.262 2.21c.745.763 1.43 1.499 2.054 2.21.641.693 1.178 1.3 1.612 1.82l-2.964 2.574a39.56 39.56 0 0 0-2.21-2.756 56.429 56.429 0 0 0-2.6-2.834 50.694 50.694 0 0 0-2.756-2.704l2.444-2.392Zm15.938-10.4c.364.052.797.087 1.3.104.502.017.97.026 1.404.026h10.01c.398 0 .875-.009 1.43-.026a12.815 12.815 0 0 0 1.378-.104v3.354a14.038 14.038 0 0 0-1.352-.052 47.963 47.963 0 0 0-1.508-.026h-9.958c-.416 0-.876.009-1.378.026-.486.017-.928.035-1.326.052v-3.354Zm17.706 7.54-.286.572c-.087.208-.156.381-.208.52a28.313 28.313 0 0 1-1.508 3.744 14.523 14.523 0 0 1-2.34 3.458 17.377 17.377 0 0 1-4.368 3.562 22.609 22.609 0 0 1-4.914 2.054l-2.574-2.938c1.958-.416 3.7-1.023 5.226-1.82 1.525-.797 2.782-1.707 3.77-2.73a9.872 9.872 0 0 0 1.664-2.236c.433-.797.771-1.551 1.014-2.262h-12.558c-.312 0-.754.009-1.326.026-.572.017-1.136.052-1.69.104v-3.38c.554.035 1.092.069 1.612.104.537.035 1.005.052 1.404.052h12.87c.416 0 .788-.026 1.118-.078.346-.052.606-.113.78-.182l2.314 1.43Zm4.108 2.288c2.34-.607 4.454-1.309 6.344-2.106 1.906-.815 3.579-1.664 5.018-2.548a28.633 28.633 0 0 0 2.704-1.898 36.875 36.875 0 0 0 2.574-2.236 21.25 21.25 0 0 0 2.054-2.184l2.808 2.678a45.687 45.687 0 0 1-2.626 2.366 43.105 43.105 0 0 1-2.938 2.288 48.486 48.486 0 0 1-3.042 2.002 57.187 57.187 0 0 1-3.328 1.768 52.067 52.067 0 0 1-7.93 3.146l-1.638-3.276Zm10.816-2.99 3.692-.858v11.7a31.353 31.353 0 0 0 .104 2.496c.034.399.078.702.13.91h-4.108a8.42 8.42 0 0 0 .078-.91c.034-.381.06-.797.078-1.248.017-.451.026-.867.026-1.248v-10.842Zm19.838-6.656c.45.312.979.693 1.586 1.144.606.451 1.23.945 1.872 1.482.658.52 1.274 1.031 1.846 1.534.572.503 1.04.953 1.404 1.352l-2.652 2.704c-.33-.364-.763-.797-1.3-1.3a56.844 56.844 0 0 0-1.742-1.56 67.394 67.394 0 0 0-1.846-1.534 33.618 33.618 0 0 0-1.612-1.222l2.444-2.6Zm-3.25 17.316a27.536 27.536 0 0 0 3.822-.806 26.667 26.667 0 0 0 3.328-1.196 30.596 30.596 0 0 0 2.808-1.404 25.153 25.153 0 0 0 4.056-3.016 26.4 26.4 0 0 0 3.224-3.51c.918-1.231 1.646-2.427 2.184-3.588l2.028 3.666a23.736 23.736 0 0 1-2.444 3.484 28 28 0 0 1-3.25 3.328 27.816 27.816 0 0 1-3.926 2.808 31.62 31.62 0 0 1-2.86 1.534 28.78 28.78 0 0 1-3.25 1.248 23 23 0 0 1-3.536.884l-2.184-3.432Zm35.594-18.902h2.938v3.172c0 .815-.087 1.673-.26 2.574a8.097 8.097 0 0 1-.936 2.574c-.468.832-1.153 1.569-2.054 2.21a6.171 6.171 0 0 0-.676-.676 9.663 9.663 0 0 0-.884-.78 7.393 7.393 0 0 0-.78-.546c.797-.537 1.378-1.109 1.742-1.716a5.02 5.02 0 0 0 .728-1.872 9.833 9.833 0 0 0 .182-1.82v-3.12Zm5.824 0h2.938v5.85c0 .347.017.563.052.65.052.087.147.13.286.13h.65c.104 0 .19-.052.26-.156.069-.121.121-.364.156-.728.034-.381.06-.953.078-1.716.277.243.667.468 1.17.676.52.191.97.338 1.352.442-.087 1.075-.234 1.915-.442 2.522-.208.607-.494 1.031-.858 1.274-.347.225-.806.338-1.378.338h-1.534c-.694 0-1.24-.104-1.638-.312-.399-.208-.685-.555-.858-1.04-.156-.503-.234-1.187-.234-2.054v-5.876Zm-3.354 13.26c.884 1.855 2.218 3.458 4.004 4.81 1.785 1.335 3.9 2.297 6.344 2.886a8.199 8.199 0 0 0-.728.78c-.26.329-.503.659-.728.988-.226.347-.416.659-.572.936-2.583-.78-4.802-1.976-6.656-3.588-1.838-1.629-3.311-3.605-4.42-5.928l2.756-.884Zm5.798-2.782h.598l.546-.13 2.028.754c-.451 1.751-1.066 3.302-1.846 4.654a15.79 15.79 0 0 1-2.73 3.536 16.094 16.094 0 0 1-3.562 2.6c-1.318.711-2.73 1.3-4.238 1.768a7.43 7.43 0 0 0-.442-.936 15.837 15.837 0 0 0-.624-.988 7.566 7.566 0 0 0-.598-.832 19.074 19.074 0 0 0 3.77-1.352 14.523 14.523 0 0 0 3.172-2.132 12.117 12.117 0 0 0 2.418-2.886 12.71 12.71 0 0 0 1.508-3.588v-.468Zm-9.542 0h10.764v2.782h-10.764v-2.782Zm2.444-10.478h6.266v2.73h-6.266v-2.73Zm-11.752 7.228h8.06v2.366h-8.06v-2.366Zm.104-7.15h7.904v2.34h-7.904v-2.34Zm-.104 10.712h8.06v2.34h-8.06v-2.34Zm-1.248-7.228h10.218v2.47h-10.218v-2.47Zm2.678 10.816h6.578v7.93h-6.578v-2.47h3.9v-2.99h-3.9v-2.47Zm-1.508 0h2.652v8.944h-2.652v-8.944Zm29.848-7.28h14.378v2.99h-14.378v-2.99Zm7.202 6.24h8.762v2.938h-8.762v-2.938Zm-1.638-4.498h3.25v12.558l-3.25-.39v-12.168Zm-6.214 2.678 3.25.338c-.347 2.652-.936 4.992-1.768 7.02-.832 2.028-1.994 3.683-3.484 4.966a9.928 9.928 0 0 0-.728-.702 15.638 15.638 0 0 0-.988-.806c-.33-.26-.616-.468-.858-.624 1.404-1.04 2.461-2.435 3.172-4.186.71-1.768 1.178-3.77 1.404-6.006Zm2.522 3.276c.398 1.179.918 2.141 1.56 2.886a6.756 6.756 0 0 0 2.262 1.664c.866.364 1.811.615 2.834.754 1.022.139 2.106.208 3.25.208h4.498c.606-.017 1.17-.026 1.69-.026.52-.017.953-.035 1.3-.052-.156.26-.312.581-.468.962-.139.364-.269.745-.39 1.144a8.08 8.08 0 0 0-.26 1.092h-6.526c-1.508 0-2.895-.104-4.16-.312-1.266-.208-2.41-.589-3.432-1.144-1.006-.537-1.907-1.317-2.704-2.34-.78-1.023-1.448-2.357-2.002-4.004l2.548-.832Zm3.64-15.496h3.328v4.732h-3.328v-4.732Zm-9.464 2.626h22.334v6.526h-3.198v-3.588h-16.068v3.588h-3.068v-6.526Z"/>
    <path fill="#374151" d="M660 943c33.137 0 60-26.863 60-60s-26.863-60-60-60-60 26.863-60 60 26.863 60 60 60Z"/>
    <path fill="#fff" d="M669.561 896h-19.12v-4.2l6.64-7.24c1.36-1.493 2.427-2.733 3.2-3.72.8-1.013 1.36-1.92 1.68-2.72.347-.827.52-1.707.52-2.64 0-1.147-.28-2-.84-2.56-.533-.56-1.227-.84-2.08-.84-.933 0-1.867.253-2.8.76-.907.507-1.907 1.227-3 2.16l-3.52-3.88c.8-.72 1.64-1.387 2.52-2 .88-.613 1.92-1.107 3.12-1.48 1.2-.4 2.64-.6 4.32-.6 1.787 0 3.333.347 4.64 1.04 1.307.667 2.307 1.587 3 2.76.72 1.147 1.08 2.453 1.08 3.92 0 1.2-.173 2.293-.52 3.28-.347.987-.853 1.96-1.52 2.92-.64.96-1.413 1.96-2.32 3-.907 1.013-1.92 2.16-3.04 3.44l-2.88 3.24-.04.28h10.96V896Z"/>
    <path fill="#000" d="M613.798 970.752h14.378v2.99h-14.378v-2.99Zm7.202 6.24h8.762v2.938H621v-2.938Zm-1.638-4.498h3.25v12.558l-3.25-.39v-12.168Zm-6.214 2.678 3.25.338c-.347 2.652-.936 4.992-1.768 7.02-.832 2.028-1.993 3.683-3.484 4.966a9.728 9.728 0 0 0-.728-.702 15.358 15.358 0 0 0-.988-.806c-.329-.26-.615-.468-.858-.624 1.404-1.04 2.461-2.435 3.172-4.186.711-1.768 1.179-3.77 1.404-6.006Zm2.522 3.276c.399 1.179.919 2.141 1.56 2.886a6.776 6.776 0 0 0 2.262 1.664c.867.364 1.811.615 2.834.754 1.023.139 2.106.208 3.25.208h4.498c.607-.017 1.17-.026 1.69-.026.52-.017.953-.035 1.3-.052-.156.26-.312.581-.468.962-.139.364-.269.745-.39 1.144a8.234 8.234 0 0 0-.26 1.092h-6.526c-1.508 0-2.895-.104-4.16-.312-1.265-.208-2.409-.589-3.432-1.144-1.005-.537-1.907-1.317-2.704-2.34-.78-1.023-1.447-2.357-2.002-4.004l2.548-.832Zm3.64-15.496h3.328v4.732h-3.328v-4.732Zm-9.464 2.626h22.334v6.526h-3.198v-3.588h-16.068v3.588h-3.068v-6.526Zm40.144-1.508h6.708v2.834h-6.708v-2.834Zm0 5.876h6.708v2.756h-6.708v-2.756Zm-.026 5.954h6.76v2.782h-6.76V975.9Zm5.408-11.83h2.99v19.812c0 .763-.087 1.361-.26 1.794-.173.451-.485.806-.936 1.066-.451.243-1.023.399-1.716.468-.676.069-1.499.095-2.47.078a9.849 9.849 0 0 0-.338-1.508 10.343 10.343 0 0 0-.546-1.456 26.02 26.02 0 0 0 1.638.052h1.118c.191 0 .321-.035.39-.104.087-.087.13-.225.13-.416V964.07Zm-6.682 0h2.938v9.568c0 1.023-.035 2.141-.104 3.354a34.032 34.032 0 0 1-.364 3.692 26.85 26.85 0 0 1-.754 3.588c-.329 1.161-.78 2.201-1.352 3.12a4.449 4.449 0 0 0-.702-.65 31.002 31.002 0 0 0-.936-.65 5.316 5.316 0 0 0-.832-.468c.659-1.127 1.135-2.383 1.43-3.77.295-1.387.477-2.791.546-4.212.087-1.439.13-2.773.13-4.004v-9.568Zm-13.598 1.898h12.74v2.73h-12.74v-2.73Zm3.38 4.264h6.214v2.366h-6.214v-2.366Zm0 4.03h6.214v2.392h-6.214v-2.392Zm-3.692 4.134h12.87v2.73h-12.87v-2.73Zm2.34-15.184h2.808v16.172h-2.808v-16.172Zm6.058 0h2.86v16.172h-2.86v-16.172Zm-5.174 18.096 2.964.858a18.772 18.772 0 0 1-1.794 2.834c-.711.953-1.413 1.751-2.106 2.392a4.706 4.706 0 0 0-.728-.624 22.319 22.319 0 0 0-.936-.676 9.643 9.643 0 0 0-.832-.546 10.753 10.753 0 0 0 1.95-1.924 11.064 11.064 0 0 0 1.482-2.314Zm3.874 1.17 2.366-1.3c.347.364.702.78 1.066 1.248a24.2 24.2 0 0 1 1.066 1.352c.347.433.624.832.832 1.196l-2.522 1.456a9.849 9.849 0 0 0-.754-1.222c-.312-.451-.65-.919-1.014-1.404a37.02 37.02 0 0 0-1.04-1.326Zm28.73-11.154v2.21h2.548v-2.21h-2.548Zm0 4.706v2.236h2.548v-2.236h-2.548Zm0-9.386v2.184h2.548v-2.184h-2.548Zm-2.626-2.704h7.904v17.03h-7.904v-17.03Zm4.394 18.356 2.366-1.326c.329.399.667.841 1.014 1.326.364.485.693.962.988 1.43.312.468.563.884.754 1.248l-2.496 1.482a10.423 10.423 0 0 0-.676-1.274 30.768 30.768 0 0 0-.962-1.482c-.329-.52-.659-.988-.988-1.404Zm-3.692-1.092 2.834.78a19.014 19.014 0 0 1-1.586 2.964c-.641.988-1.274 1.811-1.898 2.47a9.911 9.911 0 0 0-.754-.546 16.792 16.792 0 0 0-.91-.598 17.052 17.052 0 0 0-.806-.468c.624-.572 1.213-1.274 1.768-2.106a12.6 12.6 0 0 0 1.352-2.496Zm12.792-18.304h2.834v20.93c0 .78-.087 1.395-.26 1.846-.156.451-.468.797-.936 1.04-.451.243-1.031.399-1.742.468-.693.087-1.551.13-2.574.13a9.849 9.849 0 0 0-.338-1.508 11.702 11.702 0 0 0-.546-1.482c.659.017 1.274.035 1.846.052h1.17c.208-.017.347-.061.416-.13.087-.087.13-.225.13-.416V962.9Zm-4.29 2.678h2.678v15.08h-2.678v-15.08Zm-15.47-.182 1.768-2.262c.468.191.962.425 1.482.702.537.277 1.04.572 1.508.884.485.295.875.581 1.17.858l-1.872 2.496c-.26-.295-.624-.598-1.092-.91a19.44 19.44 0 0 0-1.456-.962 16.176 16.176 0 0 0-1.508-.806Zm-.988 6.968 1.716-2.314c.485.191.988.416 1.508.676.537.243 1.04.511 1.508.806.485.277.875.546 1.17.806l-1.82 2.522a8.754 8.754 0 0 0-1.118-.858 14.722 14.722 0 0 0-1.456-.884 15.24 15.24 0 0 0-1.508-.754Zm.442 13.078c.329-.676.685-1.473 1.066-2.392a83.57 83.57 0 0 0 1.196-2.912c.416-1.04.789-2.063 1.118-3.068l2.522 1.612a54.25 54.25 0 0 1-.936 2.86c-.347.953-.702 1.898-1.066 2.834a141.98 141.98 0 0 1-1.092 2.678l-2.808-1.612Zm30.628-14.69h14.378v2.99h-14.378v-2.99Zm7.202 6.24h8.762v2.938H699v-2.938Zm-1.638-4.498h3.25v12.558l-3.25-.39v-12.168Zm-6.214 2.678 3.25.338c-.347 2.652-.936 4.992-1.768 7.02-.832 2.028-1.993 3.683-3.484 4.966a9.728 9.728 0 0 0-.728-.702 15.358 15.358 0 0 0-.988-.806c-.329-.26-.615-.468-.858-.624 1.404-1.04 2.461-2.435 3.172-4.186.711-1.768 1.179-3.77 1.404-6.006Zm2.522 3.276c.399 1.179.919 2.141 1.56 2.886a6.776 6.776 0 0 0 2.262 1.664c.867.364 1.811.615 2.834.754 1.023.139 2.106.208 3.25.208h4.498c.607-.017 1.17-.026 1.69-.026.52-.017.953-.035 1.3-.052-.156.26-.312.581-.468.962-.139.364-.269.745-.39 1.144a8.234 8.234 0 0 0-.26 1.092h-6.526c-1.508 0-2.895-.104-4.16-.312-1.265-.208-2.409-.589-3.432-1.144-1.005-.537-1.907-1.317-2.704-2.34-.78-1.023-1.447-2.357-2.002-4.004l2.548-.832Zm3.64-15.496h3.328v4.732h-3.328v-4.732Zm-9.464 2.626h22.334v6.526h-3.198v-3.588h-16.068v3.588h-3.068v-6.526Z"/>
    <path fill="#374151" d="M960 943c33.137 0 60-26.863 60-60s-26.863-60-60-60-60 26.863-60 60 26.863 60 60 60Z"/>
    <path fill="#fff" d="M968.601 873.84c0 1.307-.267 2.44-.8 3.4a6.937 6.937 0 0 1-2.12 2.36 9.385 9.385 0 0 1-2.96 1.36v.12c2.133.267 3.773.96 4.92 2.08 1.147 1.12 1.72 2.627 1.72 4.52 0 1.653-.387 3.147-1.16 4.48-.773 1.307-1.973 2.347-3.6 3.12-1.6.747-3.68 1.12-6.24 1.12-1.6 0-3.027-.133-4.28-.4a18.323 18.323 0 0 1-3.6-1.16v-5.12a17.047 17.047 0 0 0 3.6 1.4c1.253.32 2.4.48 3.44.48 1.893 0 3.2-.373 3.92-1.12.747-.747 1.12-1.8 1.12-3.16 0-.8-.173-1.467-.52-2-.347-.56-.96-.973-1.84-1.24-.853-.293-2.093-.44-3.72-.44h-1.84V879h1.88c1.52 0 2.693-.16 3.52-.48.827-.347 1.4-.8 1.72-1.36.347-.587.52-1.253.52-2 0-1.013-.28-1.8-.84-2.36-.56-.587-1.413-.88-2.56-.88-.827 0-1.6.12-2.32.36-.72.213-1.36.48-1.92.8-.533.32-.973.627-1.32.92l-2.8-4.16a15.973 15.973 0 0 1 2.36-1.44c.88-.427 1.867-.76 2.96-1 1.12-.24 2.387-.36 3.8-.36 2.773 0 4.96.6 6.56 1.8 1.6 1.173 2.4 2.84 2.4 5Z"/>
    <path fill="#000" d="M900.07 972.468h14.066v3.016H900.07v-3.016Zm13.026 0h3.276v.832c0 .208-.009.381-.026.52a199.436 199.436 0 0 1-.234 5.07 54.447 54.447 0 0 1-.312 3.51c-.104.936-.234 1.681-.39 2.236-.156.555-.347.971-.572 1.248-.347.416-.711.711-1.092.884a4.425 4.425 0 0 1-1.3.364c-.433.069-1.005.104-1.716.104a32.55 32.55 0 0 1-2.236-.026c-.017-.468-.121-1.005-.312-1.612a6.64 6.64 0 0 0-.702-1.534c.728.052 1.404.087 2.028.104.624.017 1.092.026 1.404.026.243 0 .442-.017.598-.052.156-.052.312-.156.468-.312.208-.225.373-.719.494-1.482.139-.78.26-1.924.364-3.432.104-1.525.191-3.493.26-5.902v-.546Zm-10.114-9.23 3.38.988a29.303 29.303 0 0 1-2.314 4.368 30.018 30.018 0 0 1-2.886 3.874 23.034 23.034 0 0 1-3.198 3.068 10.731 10.731 0 0 0-.78-.806c-.329-.329-.667-.65-1.014-.962a9.458 9.458 0 0 0-.884-.754 19.398 19.398 0 0 0 3.068-2.6 22.978 22.978 0 0 0 2.678-3.354 20.444 20.444 0 0 0 1.95-3.822Zm9.906-.052c.416.832.919 1.681 1.508 2.548a32.663 32.663 0 0 0 1.924 2.548c.711.815 1.43 1.586 2.158 2.314a22.888 22.888 0 0 0 2.184 1.898 9.053 9.053 0 0 0-.936.832c-.329.329-.65.667-.962 1.014-.295.347-.546.667-.754.962a34.406 34.406 0 0 1-2.21-2.262 58.681 58.681 0 0 1-2.21-2.678 48.763 48.763 0 0 1-2.028-2.938 46.331 46.331 0 0 1-1.742-3.016l3.068-1.222Zm-8.19 10.166h3.406a37.693 37.693 0 0 1-.598 4.264 14.679 14.679 0 0 1-1.378 3.926c-.624 1.231-1.534 2.357-2.73 3.38-1.179 1.005-2.739 1.863-4.68 2.574a5.958 5.958 0 0 0-.52-.962 18.738 18.738 0 0 0-.728-1.04 7.745 7.745 0 0 0-.78-.858c1.751-.555 3.137-1.239 4.16-2.054 1.023-.832 1.794-1.733 2.314-2.704.52-.988.875-2.037 1.066-3.146.208-1.109.364-2.236.468-3.38Zm30.264-1.664h11.31v2.938h-11.31v-2.938Zm-1.56-6.968 3.718 1.04c-.035.243-.26.399-.676.468v6.11c0 1.04-.052 2.201-.156 3.484a33.541 33.541 0 0 1-.52 3.952 21.75 21.75 0 0 1-1.17 3.978 13.798 13.798 0 0 1-2.028 3.536 3.895 3.895 0 0 0-.65-.754c-.277-.26-.572-.511-.884-.754a3.64 3.64 0 0 0-.858-.52 12.82 12.82 0 0 0 1.742-3.068c.433-1.109.754-2.236.962-3.38.208-1.144.347-2.271.416-3.38.069-1.127.104-2.167.104-3.12v-7.592Zm9.438-1.534 2.626 2.444c-1.005.399-2.097.78-3.276 1.144-1.179.347-2.375.65-3.588.91s-2.401.477-3.562.65c-.069-.364-.208-.797-.416-1.3a7.023 7.023 0 0 0-.598-1.248 71.433 71.433 0 0 0 3.224-.702 42.975 42.975 0 0 0 3.068-.91 25.689 25.689 0 0 0 2.522-.988Zm-3.016 9.412h3.094v14.716h-3.094v-14.716Zm-17.654-4.316h9.698v2.938h-9.698v-2.938Zm3.562-5.382h2.99v24.414h-2.99V962.9Zm-.13 7.384 1.82.624a34.974 34.974 0 0 1-.754 3.25 36.012 36.012 0 0 1-1.04 3.276 30.145 30.145 0 0 1-1.248 3.016 15.285 15.285 0 0 1-1.43 2.392 8.778 8.778 0 0 0-.65-1.508 15.073 15.073 0 0 0-.832-1.404c.468-.572.91-1.239 1.326-2.002a24.07 24.07 0 0 0 1.144-2.418c.364-.867.685-1.742.962-2.626.295-.901.529-1.768.702-2.6Zm2.886 2.288c.173.173.433.485.78.936.364.433.745.901 1.144 1.404.399.503.754.971 1.066 1.404.329.433.563.745.702.936l-1.768 2.47a10.92 10.92 0 0 0-.676-1.378 54.765 54.765 0 0 0-.936-1.586 50.237 50.237 0 0 0-.962-1.56 86.498 86.498 0 0 0-.754-1.222l1.404-1.404Zm31.512-.78c.624 0 1.179.156 1.664.468.503.295.901.693 1.196 1.196.312.485.468 1.04.468 1.664 0 .607-.156 1.161-.468 1.664-.295.503-.693.91-1.196 1.222-.485.295-1.04.442-1.664.442a3.227 3.227 0 0 1-1.664-.442 3.736 3.736 0 0 1-1.222-1.222 3.227 3.227 0 0 1-.442-1.664c0-.624.147-1.179.442-1.664a3.506 3.506 0 0 1 1.222-1.196 3.093 3.093 0 0 1 1.664-.468Zm34.658-3.848 2.938.624c-.208.728-.425 1.473-.65 2.236-.225.745-.451 1.465-.676 2.158a32.552 32.552 0 0 1-.65 1.794l-2.392-.598a24.08 24.08 0 0 0 .546-1.924c.191-.728.364-1.465.52-2.21.156-.763.277-1.456.364-2.08Zm-9.906.78 2.47-.546c.208.624.39 1.3.546 2.028.173.728.312 1.439.416 2.132.121.693.199 1.309.234 1.846l-2.626.624a16.06 16.06 0 0 0-.182-1.872 33.3 33.3 0 0 0-.39-2.158 24.616 24.616 0 0 0-.468-2.054Zm-.26-4.524h13.26v2.912h-13.26V964.2Zm-.91 11.284h14.638v2.938h-14.638v-2.938Zm5.772-10.27h3.068v22.1h-3.068v-22.1Zm-14.326 5.668h8.06v2.366h-8.06v-2.366Zm.104-7.15h7.904v2.34h-7.904v-2.34Zm-.104 10.712h8.06v2.34h-8.06v-2.34Zm-1.248-7.228h10.218v2.47H973.78v-2.47Zm2.678 10.816h6.578v7.93h-6.578v-2.47h3.9v-2.99h-3.9v-2.47Zm-1.508 0h2.652v8.944h-2.652v-8.944Zm32.27-12.584h16.61v2.808h-16.61v-2.808Zm.26 6.058h16.22v15.106h-3.02v-12.376h-10.34v12.532h-2.86v-15.262Zm4.21-5.694h2.94v7.722h-2.94v-7.722Zm4.65-.026h2.94v7.722h-2.94v-7.722Zm-7.56 16.822h14.11v2.678h-14.11v-2.678Zm3.19-9.1h2.63v11.18h-2.63v-11.18Zm4.37-.026h2.63v11.18h-2.63v-11.18Zm-11.36-10.504 2.81.884a40.81 40.81 0 0 1-4.24 8.372c-.85 1.265-1.72 2.383-2.63 3.354-.1-.243-.25-.563-.44-.962-.17-.399-.37-.797-.596-1.196a7.622 7.622 0 0 0-.572-.988 19.841 19.841 0 0 0 2.188-2.652 27.921 27.921 0 0 0 1.95-3.276c.59-1.161 1.1-2.34 1.53-3.536Zm-2.5 7.254 2.92-2.938.02.052v19.968h-2.94v-17.082Z"/>
    <path fill="#374151" d="M1270 943c33.14 0 60-26.863 60-60s-26.86-60-60-60-60 26.863-60 60 26.86 60 60 60Z"/>
    <path fill="#fff" d="M1280.28 890.08h-3.08V896h-6.36v-5.92h-11.08v-4.2l11.48-18.44h5.96v17.96h3.08v4.68Zm-9.44-9.52v-1.6c.03-.64.05-1.267.08-1.88.03-.64.05-1.2.08-1.68.03-.507.04-.853.04-1.04h-.16c-.24.533-.48 1.053-.72 1.56-.21.48-.47 1-.76 1.56l-4.04 7.92h5.48v-4.84Z"/>
    <path fill="#000" d="M1183.42 971.74h6.06v2.834h-6.06v-2.834Zm-1.69-6.838h9.57v10.53h-3.01v-7.644h-6.56v-2.886Zm-.02 6.838h3.04v7.982c0 .451.06.737.18.858s.43.182.91.182h2.65c.26 0 .46-.061.6-.182.14-.139.24-.399.31-.78.07-.399.12-.988.16-1.768.19.156.45.312.78.468.35.156.69.295 1.04.416.35.121.67.225.96.312-.12 1.161-.31 2.071-.57 2.73-.26.641-.63 1.092-1.12 1.352-.47.26-1.1.39-1.9.39h-3.35c-.95 0-1.7-.113-2.24-.338a2.048 2.048 0 0 1-1.14-1.196c-.21-.589-.31-1.395-.31-2.418v-8.008Zm12.84-4.264h10.82v2.938h-10.82v-2.938Zm.21-4.55 3.28.598a41.625 41.625 0 0 1-1.3 4.654 32.425 32.425 0 0 1-1.77 4.16c-.66 1.265-1.38 2.375-2.16 3.328-.17-.191-.43-.407-.78-.65-.33-.26-.68-.511-1.04-.754-.36-.26-.67-.459-.91-.598a13.66 13.66 0 0 0 2.05-2.912 21.735 21.735 0 0 0 1.56-3.692c.45-1.335.81-2.713 1.07-4.134Zm5.67 5.798 3.2.338c-.33 2.409-.8 4.576-1.41 6.5-.61 1.907-1.39 3.614-2.34 5.122a16.307 16.307 0 0 1-3.51 3.926c-1.37 1.109-2.99 2.054-4.86 2.834-.1-.243-.27-.537-.49-.884a21.92 21.92 0 0 0-.73-1.04 8.94 8.94 0 0 0-.68-.858c2.36-.832 4.27-1.95 5.72-3.354 1.47-1.421 2.61-3.163 3.41-5.226.79-2.063 1.36-4.515 1.69-7.358Zm-4.47 1.092c.43 2.271 1.04 4.377 1.84 6.318.8 1.924 1.85 3.605 3.15 5.044 1.31 1.439 2.93 2.548 4.83 3.328-.24.208-.5.477-.78.806-.27.329-.53.667-.78 1.014-.24.347-.44.659-.59.936-2.07-.971-3.78-2.271-5.15-3.9-1.35-1.629-2.46-3.536-3.3-5.72-.85-2.201-1.55-4.645-2.08-7.332l2.86-.494Zm16.3 14.326h13.7v2.392h-13.7v-2.392Zm-1.41-4.134h16.7v7.254h-3.23v-4.888h-10.4v4.966h-3.07v-7.332Zm-1.95-14.352h20.52v2.262h-20.52v-2.262Zm-.72 6.474h22.02v2.288h-22.02v-2.288Zm2.41-3.224h17.14v2.21h-17.14v-2.21Zm-3.27 7.722H1231v2.392h-23.68v-2.392Zm10.14-9.88h3.22v10.868h-3.22v-10.868Zm-5.25-3.172 2.83-.702c.29.381.56.823.81 1.326.26.503.45.945.59 1.326l-2.99.884c-.08-.381-.25-.841-.49-1.378-.23-.537-.48-1.023-.75-1.456Zm-1.23 11.076 2.89-.598c.26.347.5.745.73 1.196.24.451.4.849.49 1.196l-2.99.728c-.09-.364-.23-.78-.44-1.248a9.122 9.122 0 0 0-.68-1.274Zm11.99-11.804 3.3.52c-.31.572-.61 1.092-.91 1.56-.29.468-.57.884-.83 1.248l-2.81-.546c.21-.416.43-.884.68-1.404.26-.52.45-.979.57-1.378Zm1.35 11.232 3.2.468c-.28.485-.54.927-.78 1.326l-.6 1.04-2.94-.442c.19-.364.39-.763.6-1.196.23-.451.4-.849.52-1.196Zm32.66-6.682c-.14.173-.31.399-.52.676-.21.26-.38.485-.5.676-.4.676-.92 1.456-1.58 2.34a35.98 35.98 0 0 1-2.19 2.6c-.79.849-1.62 1.577-2.47 2.184l-2.7-2.158c.52-.312 1.03-.676 1.53-1.092.51-.416.97-.849 1.38-1.3.43-.468.81-.91 1.12-1.326.33-.416.58-.789.75-1.118h-13.54c-.54 0-1.05.017-1.54.052-.48.035-1.03.078-1.63.13v-3.614c.5.069 1.02.13 1.56.182.53.052 1.07.078 1.61.078h14.01a19.013 19.013 0 0 0 1.9-.104c.35-.035.6-.078.75-.13l2.06 1.924Zm-10.61 3.51c0 1.283-.03 2.522-.08 3.718a20.34 20.34 0 0 1-.44 3.458c-.23 1.092-.6 2.132-1.12 3.12-.5.988-1.2 1.924-2.1 2.808-.91.884-2.06 1.699-3.46 2.444l-3.04-2.47c.41-.139.85-.321 1.32-.546.47-.243.94-.537 1.41-.884.83-.572 1.49-1.179 2-1.82.52-.641.92-1.335 1.19-2.08.28-.763.47-1.586.58-2.47.1-.901.15-1.881.15-2.938 0-.399-.01-.78-.02-1.144-.02-.381-.07-.78-.16-1.196h3.77Zm33.86-2.08c-.14.243-.29.537-.45.884-.15.329-.29.659-.41.988a28.25 28.25 0 0 1-.96 2.626c-.4.971-.9 1.985-1.51 3.042a22.743 22.743 0 0 1-2.06 3.016c-1.24 1.491-2.7 2.843-4.36 4.056-1.65 1.213-3.7 2.305-6.14 3.276l-3.07-2.756c1.77-.52 3.3-1.118 4.58-1.794 1.28-.676 2.4-1.395 3.35-2.158.96-.78 1.81-1.603 2.55-2.47.61-.676 1.16-1.439 1.66-2.288.51-.867.94-1.725 1.3-2.574.37-.849.61-1.595.73-2.236h-8.76l1.2-2.938h7.43c.4 0 .8-.026 1.2-.078.41-.052.77-.13 1.06-.234l2.66 1.638Zm-8.48-4.108c-.31.451-.61.936-.91 1.456-.29.52-.52.919-.68 1.196-.58 1.04-1.31 2.123-2.18 3.25a29.741 29.741 0 0 1-2.91 3.25 29.693 29.693 0 0 1-3.49 2.86l-2.93-2.158c1.14-.711 2.15-1.439 3.01-2.184.89-.745 1.65-1.482 2.29-2.21.64-.745 1.19-1.456 1.64-2.132.47-.693.87-1.309 1.19-1.846.21-.329.43-.754.65-1.274.23-.537.4-1.023.52-1.456l3.8 1.248Zm19.14-.312c.41.243.89.529 1.43.858.53.329 1.08.667 1.63 1.014.58.347 1.11.685 1.59 1.014.5.312.93.589 1.27.832l-1.95 2.886a22.8 22.8 0 0 0-1.27-.884c-.5-.329-1.02-.667-1.56-1.014s-1.07-.676-1.61-.988c-.52-.329-1-.615-1.43-.858l1.9-2.86Zm-4.84 18.46c.99-.173 1.98-.381 2.96-.624 1.01-.26 2.01-.581 2.99-.962 1.01-.381 1.98-.823 2.92-1.326a28.41 28.41 0 0 0 4.1-2.808 25.97 25.97 0 0 0 3.44-3.328c1.02-1.179 1.88-2.383 2.57-3.614l2 3.536c-1.21 1.803-2.71 3.501-4.5 5.096a33.692 33.692 0 0 1-5.85 4.238c-.88.503-1.85.971-2.91 1.404a33.66 33.66 0 0 1-3.09 1.118c-1.01.329-1.9.563-2.68.702l-1.95-3.432Zm.83-12.532c.44.243.92.529 1.46.858.55.312 1.11.641 1.66.988.56.347 1.08.676 1.56.988.51.312.92.589 1.25.832l-1.9 2.912c-.38-.26-.81-.546-1.3-.858-.48-.329-1-.667-1.56-1.014-.53-.364-1.07-.702-1.61-1.014-.52-.312-1-.581-1.46-.806l1.9-2.886Zm27.51-.026c.23.017.53.043.91.078.38.017.78.035 1.2.052h12.01c.41-.017.73-.035.93-.052-.01.173-.02.442-.02.806v14.846c.02.381.02.685.02.91h-3.27c.02-.225.02-.537.02-.936v-12.662h-8.58c-.32 0-.7.009-1.11.026a28.963 28.963 0 0 0-2.11.078v-3.146Zm.68 6.11c.34.017.78.035 1.3.052.53.017 1.05.026 1.53.026h9.8v2.938h-9.8c-.48 0-1 .009-1.56.026-.54 0-.96.009-1.27.026v-3.068Zm-.97 6.37c.23.017.54.043.94.078.4.017.84.026 1.33.026h11.36v3.016h-11.39c-.36 0-.77.009-1.22.026-.45.017-.79.035-1.02.052v-3.198Zm27.02-17.55c.45.312.98.693 1.58 1.144.61.451 1.24.945 1.88 1.482.66.52 1.27 1.031 1.84 1.534.57.503 1.04.953 1.41 1.352l-2.66 2.704c-.32-.364-.76-.797-1.3-1.3a43.895 43.895 0 0 0-1.74-1.56 70.49 70.49 0 0 0-1.84-1.534c-.61-.485-1.15-.893-1.62-1.222l2.45-2.6Zm-3.25 17.316c1.35-.191 2.62-.459 3.82-.806a26.3 26.3 0 0 0 3.33-1.196 30.9 30.9 0 0 0 2.81-1.404 25.191 25.191 0 0 0 4.05-3.016 26.526 26.526 0 0 0 3.23-3.51c.92-1.231 1.64-2.427 2.18-3.588l2.03 3.666a23.126 23.126 0 0 1-2.45 3.484 27.173 27.173 0 0 1-3.25 3.328 27.758 27.758 0 0 1-3.92 2.808c-.89.537-1.84 1.049-2.86 1.534-1.02.468-2.11.884-3.25 1.248-1.13.381-2.31.676-3.54.884l-2.18-3.432Z"/>
    <path fill="#EF4444" d="M1570 943c33.14 0 60-26.863 60-60s-26.86-60-60-60-60 26.863-60 60 26.86 60 60 60Z"/>
    <path fill="#fff" d="M1570.88 877.76c1.57 0 2.97.333 4.2 1 1.25.667 2.24 1.64 2.96 2.92.75 1.28 1.12 2.867 1.12 4.76 0 2.053-.4 3.827-1.2 5.32-.8 1.493-2 2.64-3.6 3.44-1.6.8-3.6 1.2-6 1.2-1.47 0-2.84-.133-4.12-.4-1.25-.267-2.36-.653-3.32-1.16v-5.2c.93.507 2.05.947 3.36 1.32 1.33.347 2.56.52 3.68.52 1.01 0 1.87-.16 2.56-.48.69-.32 1.21-.813 1.56-1.48.37-.667.56-1.52.56-2.56 0-1.413-.4-2.48-1.2-3.2-.8-.747-2.03-1.12-3.68-1.12-.69 0-1.39.08-2.08.24-.69.133-1.29.267-1.8.4l-2.48-1.28 1.04-14.56h14.92v5.12H1568l-.44 5.6 1.28-.24c.45-.107 1.13-.16 2.04-.16Z"/>
    <path fill="#000" d="M1522.73 972.702h6.01v2.834h-6.01v-2.834Zm4.81 0h3.02v1.144a233.49 233.49 0 0 1-.13 4.524c-.05 1.161-.14 2.071-.26 2.73-.11.641-.25 1.092-.44 1.352-.26.329-.54.563-.84.702-.27.139-.6.243-.98.312-.35.069-.79.113-1.33.13-.52 0-1.09-.009-1.72-.026-.01-.451-.1-.953-.26-1.508-.15-.555-.34-1.023-.57-1.404.47.035.9.061 1.3.078.42.017.73.026.94.026.17 0 .32-.017.44-.052a.733.733 0 0 0 .34-.26c.12-.156.21-.477.26-.962.07-.503.12-1.257.15-2.262.04-1.023.06-2.375.08-4.056v-.468Zm7.8-8.164 1.9-1.872c.49.243 1 .529 1.53.858.54.329 1.05.659 1.54.988.5.329.91.65 1.22.962l-2 2.08c-.3-.295-.68-.624-1.15-.988a20.75 20.75 0 0 0-1.5-1.066c-.54-.364-1.05-.685-1.54-.962Zm3.07 6.708 3.17.754c-1.09 3.38-2.58 6.37-4.47 8.97-1.89 2.583-4.13 4.671-6.71 6.266a7.066 7.066 0 0 0-.62-.832c-.28-.312-.57-.633-.86-.962-.29-.312-.55-.572-.78-.78a19.486 19.486 0 0 0 6.34-5.46c1.74-2.305 3.05-4.957 3.93-7.956Zm-15.52-4.446h20.07v3.068h-20.07V966.8Zm-2.08 0h3.27v7.67a53.2 53.2 0 0 1-.1 3.198c-.07 1.144-.2 2.323-.39 3.536a20.645 20.645 0 0 1-.86 3.458 12.073 12.073 0 0 1-1.43 2.99c-.17-.225-.43-.477-.78-.754a89.77 89.77 0 0 0-1.01-.832c-.33-.26-.62-.442-.86-.546.66-1.04 1.14-2.201 1.43-3.484.31-1.3.51-2.609.6-3.926.08-1.317.13-2.539.13-3.666V966.8Zm10.55-3.874h3.28a71.83 71.83 0 0 0 .18 6.266c.16 2.045.38 3.961.68 5.746.31 1.768.67 3.337 1.09 4.706.42 1.352.88 2.409 1.38 3.172.5.763 1.01 1.144 1.53 1.144.3 0 .52-.355.68-1.066.17-.711.29-1.881.36-3.51.37.347.79.685 1.28 1.014.5.329.96.572 1.37.728-.15 1.612-.39 2.86-.7 3.744-.31.867-.73 1.465-1.25 1.794-.52.329-1.18.494-2 .494-.93 0-1.78-.321-2.55-.962-.74-.641-1.41-1.534-2-2.678-.57-1.144-1.06-2.487-1.48-4.03-.42-1.543-.76-3.215-1.04-5.018a79.367 79.367 0 0 1-.6-5.616c-.12-1.959-.19-3.935-.21-5.928Zm14.04 13.676h23.27v2.834h-23.27v-2.834Zm10.01-11.44h3.31v22.178h-3.31v-22.178Zm-.85 12.818 2.57 1.118c-.81 1.075-1.79 2.097-2.91 3.068a24.472 24.472 0 0 1-3.59 2.6 23.328 23.328 0 0 1-3.9 1.872c-.16-.26-.36-.555-.62-.884-.25-.312-.5-.615-.76-.91a9.038 9.038 0 0 0-.75-.806c.97-.295 1.93-.65 2.88-1.066.96-.416 1.88-.893 2.76-1.43a22.61 22.61 0 0 0 2.42-1.69c.74-.607 1.38-1.231 1.9-1.872Zm4.73-.182c.54.624 1.19 1.239 1.95 1.846.76.589 1.59 1.153 2.49 1.69.91.52 1.84.997 2.81 1.43.97.433 1.93.789 2.89 1.066-.23.208-.48.468-.76.78-.26.312-.51.633-.75.962-.24.329-.44.633-.6.91a24.53 24.53 0 0 1-2.91-1.378 27.713 27.713 0 0 1-2.83-1.794 25.97 25.97 0 0 1-2.58-2.106 19.69 19.69 0 0 1-2.13-2.314l2.42-1.092Zm-8.09-7.02v1.664h11.65v-1.664h-11.65Zm0-4.056v1.638h11.65v-1.638h-11.65Zm-3.25-2.6h18.31v10.92h-18.31v-10.92Zm36.32 11.414h9.73v2.288h-9.73v-2.288Zm0 4.108h9.73v2.288h-9.73v-2.288Zm-.05 4.134h11v2.548h-11v-2.548Zm-3.82-18.434h14.69v4.732h-2.78v-2.132h-9.28v2.132h-2.63v-4.732Zm7.38 8.008h2.86V985h-2.86v-11.648Zm-2.54-2.132h9.33v2.574h-9.33v13.546h-2.94v-13.416l2.65-2.704h.29Zm1.35-8.346 2.96.572c-.69 2.808-1.69 5.313-2.99 7.514-1.3 2.201-2.9 4.004-4.81 5.408-.14-.191-.34-.433-.6-.728-.24-.312-.5-.615-.78-.91a8.677 8.677 0 0 0-.72-.702c1.76-1.161 3.23-2.704 4.39-4.628 1.16-1.924 2.01-4.099 2.55-6.526Zm2.81 5.72 2.86.598c-.33.711-.67 1.404-1.02 2.08-.33.659-.63 1.231-.91 1.716l-2.34-.598c.24-.537.5-1.161.78-1.872.28-.711.49-1.352.63-1.924Zm-18.15-4.134h9.36v2.834h-9.36v-2.834Zm2.91 7.644h6.06v12.09h-6.06v-2.678h3.43v-6.734h-3.43v-2.678Zm-.23-6.136 2.91.442a55.24 55.24 0 0 1-.99 5.512c-.42 1.785-.94 3.467-1.59 5.044-.62 1.56-1.37 2.929-2.23 4.108a8.603 8.603 0 0 0-.44-.936c-.19-.381-.4-.763-.63-1.144a5.684 5.684 0 0 0-.6-.91c.68-.953 1.24-2.071 1.69-3.354.47-1.283.85-2.669 1.15-4.16.31-1.491.55-3.025.73-4.602Zm-.99 6.136h2.52v14.118h-2.52v-14.118Zm38.61-7.098h2.81c-.13 1.04-.31 2.089-.55 3.146a13.65 13.65 0 0 1-1.04 3.016c-.47.953-1.09 1.855-1.87 2.704-.76.832-1.75 1.56-2.97 2.184-.15-.364-.4-.763-.75-1.196-.35-.433-.68-.771-.99-1.014 1.04-.503 1.89-1.092 2.55-1.768a8.379 8.379 0 0 0 1.56-2.184c.38-.78.66-1.586.83-2.418.19-.832.33-1.655.42-2.47Zm-4.5 4.446 1.46-2.158c.86.243 1.75.555 2.65.936.92.381 1.78.78 2.6 1.196.83.416 1.53.806 2.1 1.17l-1.48 2.418c-.55-.416-1.25-.841-2.08-1.274a29.39 29.39 0 0 0-2.6-1.274c-.9-.416-1.78-.754-2.65-1.014Zm10.45-5.538h2.91v.234c0 .139 0 .303-.02.494 0 .173-.01.312-.03.416-.07 1.976-.15 3.597-.26 4.862-.1 1.248-.23 2.219-.39 2.912-.14.676-.32 1.153-.54 1.43-.26.329-.53.563-.81.702-.26.139-.57.234-.94.286a6.91 6.91 0 0 1-1.22.13c-.5 0-1.04-.009-1.61-.026-.02-.433-.1-.91-.26-1.43-.14-.537-.31-.997-.52-1.378.45.052.86.087 1.22.104h.86c.33.017.59-.087.78-.312.12-.173.23-.529.34-1.066.1-.555.19-1.387.26-2.496.08-1.109.16-2.574.23-4.394v-.468Zm-7.59 14.04h2.86v5.668c0 .364.03.598.1.702.07.087.23.13.47.13h1.33c.17 0 .3-.061.39-.182.08-.121.15-.373.21-.754.05-.399.08-.997.1-1.794.17.139.41.286.7.442.31.139.63.269.94.39.33.104.62.199.88.286-.08 1.127-.24 2.002-.47 2.626-.2.641-.51 1.075-.91 1.3-.38.243-.88.364-1.5.364h-2.16c-.8 0-1.41-.113-1.85-.338-.41-.208-.7-.563-.86-1.066-.15-.503-.23-1.187-.23-2.054v-5.72Zm-2.65 1.014 2.47.65c-.07.763-.18 1.534-.34 2.314-.16.78-.36 1.517-.62 2.21a6.402 6.402 0 0 1-1.04 1.794l-2.29-1.378c.36-.451.67-.971.91-1.56.24-.607.43-1.257.57-1.95.16-.693.27-1.387.34-2.08Zm3.25-2.808 1.79-1.82c.56.277 1.13.607 1.72.988.59.364 1.14.754 1.66 1.17.54.399.97.78 1.3 1.144l-1.95 2.028c-.29-.381-.69-.78-1.19-1.196-.49-.416-1.03-.823-1.62-1.222-.59-.416-1.16-.78-1.71-1.092Zm5.72 3.224 2.52-1.014c.47.659.89 1.369 1.27 2.132.39.763.71 1.525.99 2.288.28.745.48 1.421.6 2.028l-2.76 1.144a9.481 9.481 0 0 0-.49-2.054c-.26-.763-.57-1.543-.94-2.34-.36-.797-.76-1.525-1.19-2.184Zm-8.82-15.47h11.42v2.6h-11.42v-2.6Zm-9.46 6.968h7.62v2.366h-7.62v-2.366Zm.1-7.15h7.47v2.34h-7.47v-2.34Zm-.1 10.712h7.62v2.34h-7.62v-2.34Zm-1.17-7.228h9.49v2.47h-9.49v-2.47Zm2.52 10.816h6.32v7.93h-6.32v-2.47h3.72v-2.99h-3.72v-2.47Zm-1.4 0h2.57v8.944h-2.57v-8.944Z"/>
  </g>
  <defs>
    <clipPath id="a">
      <path fill="#fff" d="M0 0h1920v1080H0z"/>
    </clipPath>
  </defs>
</svg>
