<svg xmlns="http://www.w3.org/2000/svg" width="1920" height="1080" fill="none" viewBox="0 0 1920 1080">
  <g clip-path="url(#a)">
    <path fill="#fff" d="M1920 0H0v1080h1920V0Z"/>
    <path fill="#000" d="M512.802 68.16h18.48v8.72h-18.48v-8.72Zm14.8 0h9.28v3.52c-.106 5.653-.24 10.293-.4 13.92-.16 3.573-.426 6.373-.8 8.4-.32 1.973-.773 3.36-1.36 4.16-.8 1.013-1.653 1.733-2.56 2.16-.853.427-1.866.747-3.04.96-1.066.213-2.426.347-4.08.4-1.6 0-3.36-.027-5.28-.08-.053-1.387-.32-2.933-.8-4.64-.48-1.707-1.066-3.147-1.76-4.32 1.44.107 2.774.187 4 .24 1.28.053 2.24.08 2.88.08.534 0 .987-.053 1.36-.16a2.2 2.2 0 0 0 1.04-.8c.374-.48.64-1.467.8-2.96.214-1.547.374-3.867.48-6.96.107-3.147.187-7.307.24-12.48v-1.44Zm24-25.12 5.84-5.76a62.816 62.816 0 0 1 4.72 2.64 120.497 120.497 0 0 1 4.72 3.04c1.547 1.013 2.8 2 3.76 2.96l-6.16 6.4c-.906-.907-2.08-1.92-3.52-3.04a64.435 64.435 0 0 0-4.64-3.28 73.062 73.062 0 0 0-4.72-2.96Zm9.44 20.64 9.76 2.32c-3.36 10.4-7.946 19.6-13.76 27.6-5.813 7.947-12.693 14.373-20.64 19.28-.426-.693-1.066-1.547-1.92-2.56-.853-.96-1.733-1.947-2.64-2.96a49.95 49.95 0 0 0-2.4-2.4c7.68-4.16 14.187-9.76 19.52-16.8 5.334-7.093 9.36-15.253 12.08-24.48ZM513.282 50h61.76v9.44h-61.76V50Zm-6.4 0h10.08v23.6c0 2.987-.106 6.267-.32 9.84-.213 3.52-.613 7.147-1.2 10.88a63.202 63.202 0 0 1-2.64 10.64c-1.12 3.413-2.586 6.48-4.4 9.2-.533-.693-1.333-1.467-2.4-2.32a158.503 158.503 0 0 0-3.12-2.56c-1.013-.8-1.893-1.36-2.64-1.68 2.027-3.2 3.494-6.773 4.4-10.72.96-4 1.574-8.027 1.84-12.08.267-4.053.4-7.813.4-11.28V50Zm32.48-11.92h10.08c-.106 6.56.08 12.987.56 19.28.48 6.293 1.174 12.187 2.08 17.68.96 5.44 2.08 10.267 3.36 14.48 1.28 4.16 2.694 7.413 4.24 9.76 1.547 2.347 3.12 3.52 4.72 3.52.907 0 1.6-1.093 2.08-3.28.534-2.187.907-5.787 1.12-10.8 1.12 1.067 2.427 2.107 3.92 3.12 1.547 1.013 2.96 1.76 4.24 2.24-.48 4.96-1.2 8.8-2.16 11.52-.96 2.667-2.24 4.507-3.84 5.52-1.6 1.013-3.653 1.52-6.16 1.52-2.88 0-5.493-.987-7.84-2.96-2.293-1.973-4.346-4.72-6.16-8.24-1.76-3.52-3.28-7.653-4.56-12.4-1.28-4.747-2.346-9.893-3.2-15.44a241.943 241.943 0 0 1-1.84-17.28 344.307 344.307 0 0 1-.64-18.24Zm42.08 8.56h30.24v9.12h-30.24v-9.12Zm31.36 8.4h35.92v9.2h-35.92v-9.2Zm-20.96-4.64h9.52v40.24h-9.52V50.4Zm52.4 4.64h9.44v2.72c0 .693-.026 1.253-.08 1.68-.213 8.107-.453 15.013-.72 20.72-.266 5.707-.56 10.427-.88 14.16-.32 3.68-.746 6.587-1.28 8.72-.48 2.133-1.093 3.653-1.84 4.56-1.013 1.493-2.08 2.507-3.2 3.04-1.066.587-2.346 1.013-3.84 1.28-1.386.16-3.12.267-5.2.32a84.305 84.305 0 0 1-6.32-.08c-.053-1.387-.373-2.987-.96-4.8-.533-1.76-1.226-3.307-2.08-4.64 2.134.16 4.107.267 5.92.32h4.08c.747 0 1.36-.08 1.84-.24.48-.213.934-.587 1.36-1.12.48-.587.907-1.813 1.28-3.68.427-1.92.774-4.64 1.04-8.16.32-3.52.587-7.973.8-13.36.214-5.387.427-11.867.64-19.44v-2Zm-63.92 34.48c2.72-.533 5.84-1.227 9.36-2.08 3.52-.853 7.227-1.787 11.12-2.8l11.68-3.04 1.2 9.12a991.894 991.894 0 0 1-16.24 4.72 863.276 863.276 0 0 1-14.8 4.08l-2.32-10Zm43.76-50.24h9.76a1060.23 1060.23 0 0 1-.32 19.2c-.16 6.08-.64 11.813-1.44 17.2-.746 5.387-1.973 10.4-3.68 15.04-1.653 4.64-4 8.853-7.04 12.64-2.986 3.733-6.906 7.04-11.76 9.92-.426-.8-1.04-1.707-1.84-2.72a56.47 56.47 0 0 0-2.4-2.88c-.853-.907-1.68-1.627-2.48-2.16 4.427-2.453 7.974-5.333 10.64-8.64a36.457 36.457 0 0 0 6.24-11.04c1.494-4.107 2.534-8.56 3.12-13.36.587-4.853.907-10.027.96-15.52.107-5.547.187-11.44.24-17.68Zm37.44 42.16h73.52v7.76h-73.52v-7.76Zm1.52-40.56h70v8.32h-70v-8.32Zm25.2 32.8 9.44 2.48a283.95 283.95 0 0 1-5.6 8.72 312.726 312.726 0 0 1-5.92 8.8c-1.92 2.827-3.706 5.307-5.36 7.44l-9.2-2.88c1.654-2.133 3.467-4.613 5.44-7.44a408.243 408.243 0 0 0 5.92-8.72 200.2 200.2 0 0 0 5.28-8.4Zm23.2 10.64 9.28 2.32c-2.026 4.747-4.586 8.693-7.68 11.84-3.093 3.147-6.853 5.707-11.28 7.68-4.373 1.973-9.466 3.493-15.28 4.56-5.813 1.12-12.426 1.973-19.84 2.56-.32-1.387-.826-2.853-1.52-4.4-.64-1.547-1.333-2.827-2.08-3.84 8.96-.373 16.64-1.2 23.04-2.48 6.454-1.28 11.76-3.36 15.92-6.24 4.16-2.88 7.307-6.88 9.44-12Zm-34.32 14.56 4.8-6.8a331.846 331.846 0 0 1 18.56 4.24 370.284 370.284 0 0 1 17.6 4.8c5.494 1.6 10.24 3.12 14.24 4.56l-5.76 7.84c-3.893-1.6-8.48-3.28-13.76-5.04-5.226-1.707-10.906-3.387-17.04-5.04a381.446 381.446 0 0 0-18.64-4.56Zm7.04-54.8h9.04v27.36h-9.04V44.08Zm18.08 0h9.12v27.36h-9.12V44.08Zm-26.48 17.2v7.44h45.2v-7.44h-45.2Zm-9.04-7.6h63.76v22.56h-63.76V53.68Zm89.92 9.2h43.2v8.56h-43.2v-8.56Zm16.8-10.4h8.96c-.16 5.76-.506 11.04-1.04 15.84-.48 4.747-1.44 9.04-2.88 12.88-1.386 3.787-3.52 7.147-6.4 10.08-2.826 2.88-6.666 5.333-11.52 7.36-.48-1.173-1.253-2.48-2.32-3.92-1.066-1.44-2.106-2.587-3.12-3.44 4.267-1.653 7.6-3.653 10-6 2.454-2.4 4.24-5.173 5.36-8.32 1.174-3.2 1.92-6.8 2.24-10.8.374-4.053.614-8.613.72-13.68Zm9.2 15.68c1.174 5.493 3.174 10.213 6 14.16 2.88 3.893 6.907 6.72 12.08 8.48a50.689 50.689 0 0 0-2.08 2.24 28.386 28.386 0 0 0-2.08 2.88c-.64.96-1.146 1.84-1.52 2.64-3.893-1.6-7.146-3.787-9.76-6.56-2.613-2.773-4.746-6.053-6.4-9.84-1.6-3.84-2.906-8.133-3.92-12.88l7.68-1.12Zm-38.64-26.72h68.72v71.6h-10.08v-62.4h-49.04v62.4h-9.6v-71.6Zm5.68 59.2h56.8v9.2h-56.8v-9.2Zm108.56-35.92c-2.133 0-3.946-.72-5.44-2.16-1.44-1.44-2.16-3.2-2.16-5.28 0-2.24.72-4.053 2.16-5.44 1.494-1.44 3.307-2.16 5.44-2.16 2.134 0 3.92.72 5.36 2.16 1.494 1.387 2.24 3.2 2.24 5.44 0 2.08-.746 3.84-2.24 5.28-1.44 1.44-3.226 2.16-5.36 2.16Zm0 38.16c-2.133 0-3.946-.72-5.44-2.16-1.44-1.44-2.16-3.2-2.16-5.28 0-2.24.72-4.053 2.16-5.44 1.494-1.44 3.307-2.16 5.44-2.16 2.134 0 3.92.72 5.36 2.16 1.494 1.387 2.24 3.2 2.24 5.44 0 2.08-.746 3.84-2.24 5.28-1.44 1.44-3.226 2.16-5.36 2.16Zm61.84-54.72c3.307 0 6.267.507 8.88 1.52 2.667 1.013 4.774 2.533 6.32 4.56 1.547 2.027 2.32 4.587 2.32 7.68 0 2.293-.426 4.32-1.28 6.08-.8 1.707-1.92 3.2-3.36 4.48-1.386 1.28-2.986 2.4-4.8 3.36a34.659 34.659 0 0 1 5.2 3.76 16.91 16.91 0 0 1 4.16 4.96c1.12 1.867 1.68 4.08 1.68 6.64 0 3.147-.746 5.893-2.24 8.24-1.493 2.347-3.68 4.16-6.56 5.44-2.826 1.28-6.293 1.92-10.4 1.92-4.266 0-7.84-.613-10.72-1.84-2.826-1.227-4.96-2.987-6.4-5.28-1.386-2.293-2.08-5.013-2.08-8.16 0-2.613.427-4.88 1.28-6.8a15.457 15.457 0 0 1 3.68-4.96 22.773 22.773 0 0 1 5.12-3.6 31.018 31.018 0 0 1-4.32-3.6 16.628 16.628 0 0 1-3.04-4.64c-.746-1.76-1.12-3.787-1.12-6.08 0-3.04.774-5.573 2.32-7.6 1.6-2.027 3.734-3.547 6.4-4.56 2.72-1.013 5.707-1.52 8.96-1.52Zm-7.36 42.64c0 2.08.614 3.787 1.84 5.12 1.227 1.333 2.987 2 5.28 2 1.707 0 3.094-.293 4.16-.88 1.12-.587 1.947-1.413 2.48-2.48.534-1.067.8-2.293.8-3.68 0-1.44-.346-2.72-1.04-3.84a12.313 12.313 0 0 0-2.56-2.96 22.944 22.944 0 0 0-3.04-2.32l-.96-.64a19.888 19.888 0 0 0-3.6 2.56 12.919 12.919 0 0 0-2.48 3.2c-.586 1.12-.88 2.427-.88 3.92Zm7.28-33.84c-1.493 0-2.773.507-3.84 1.52-1.066 1.013-1.6 2.453-1.6 4.32 0 1.28.24 2.427.72 3.44.534.96 1.2 1.813 2 2.56a36.03 36.03 0 0 0 2.72 2 22.862 22.862 0 0 0 2.56-1.92 8.446 8.446 0 0 0 2.08-2.48c.534-1.013.8-2.213.8-3.6 0-1.867-.533-3.307-1.6-4.32-1.013-1.013-2.293-1.52-3.84-1.52Zm26.076 5.2a62.595 62.595 0 0 0 4.96-1.12c1.813-.48 3.44-.907 4.88-1.28a476.83 476.83 0 0 0 6.24-2c2.666-.853 5.6-1.707 8.8-2.56 3.2-.853 6.453-1.573 9.76-2.16 3.36-.64 6.48-.96 9.36-.96 4.853 0 9.226.907 13.122 2.72 3.89 1.813 6.98 4.427 9.28 7.84 2.29 3.413 3.44 7.6 3.44 12.56 0 3.627-.67 6.987-2 10.08-1.34 3.093-3.31 5.867-5.92 8.32-2.56 2.453-5.68 4.587-9.362 6.4-3.68 1.813-7.894 3.28-12.64 4.4-4.694 1.067-9.867 1.733-15.52 2l-4.64-10.64c5.44-.107 10.48-.587 15.12-1.44 4.693-.907 8.8-2.187 12.32-3.84 3.52-1.707 6.266-3.84 8.242-6.4 1.97-2.56 2.96-5.573 2.96-9.04 0-2.507-.56-4.747-1.68-6.72-1.12-2.027-2.802-3.627-5.042-4.8-2.187-1.173-4.88-1.76-8.08-1.76-2.347 0-4.934.293-7.76.88a83 83 0 0 0-8.72 2.16 149.22 149.22 0 0 0-8.64 2.96 152.513 152.513 0 0 0-7.84 3.04c-2.4 1.013-4.427 1.867-6.08 2.56l-4.56-11.2ZM1069.04 51.2a259.08 259.08 0 0 1-2.08 12.96c-.86 4.587-2 9.227-3.44 13.92-1.55 5.387-3.36 10.027-5.44 13.92-2.08 3.893-4.38 6.907-6.88 9.04-2.46 2.08-5.15 3.12-8.08 3.12-2.94 0-5.66-.987-8.16-2.96-2.46-2.027-4.43-4.8-5.92-8.32-1.44-3.52-2.16-7.52-2.16-12 0-4.64.93-9.013 2.8-13.12 1.86-4.107 4.45-7.733 7.76-10.88 3.36-3.2 7.25-5.707 11.68-7.52 4.48-1.813 9.3-2.72 14.48-2.72 4.96 0 9.41.8 13.36 2.4 4 1.6 7.41 3.813 10.24 6.64 2.82 2.827 4.98 6.133 6.48 9.92 1.49 3.787 2.24 7.867 2.24 12.24 0 5.6-1.15 10.613-3.44 15.04-2.3 4.427-5.71 8.08-10.24 10.96-4.48 2.88-10.08 4.853-16.8 5.92l-6-9.52c1.54-.16 2.9-.347 4.08-.56 1.17-.213 2.29-.453 3.36-.72 2.56-.64 4.93-1.547 7.12-2.72 2.24-1.227 4.18-2.72 5.84-4.48 1.65-1.813 2.93-3.92 3.84-6.32.96-2.4 1.44-5.04 1.44-7.92 0-3.147-.48-6.027-1.44-8.64-.96-2.613-2.38-4.88-4.24-6.8-1.87-1.973-4.14-3.467-6.8-4.48-2.67-1.067-5.74-1.6-9.2-1.6-4.27 0-8.03.773-11.28 2.32-3.26 1.493-6 3.44-8.24 5.84s-3.95 4.987-5.12 7.76c-1.12 2.773-1.68 5.413-1.68 7.92 0 2.667.32 4.907.96 6.72.64 1.76 1.41 3.093 2.32 4 .96.853 1.97 1.28 3.04 1.28 1.12 0 2.21-.56 3.28-1.68 1.12-1.173 2.21-2.933 3.28-5.28 1.06-2.347 2.13-5.307 3.2-8.88 1.22-3.84 2.26-7.947 3.12-12.32.85-4.373 1.46-8.64 1.84-12.8l10.88.32Zm94.72-5.2c0 1.227.42 2.267 1.28 3.12.85.8 1.89 1.2 3.12 1.2 1.17 0 2.18-.4 3.04-1.2.85-.853 1.28-1.893 1.28-3.12 0-1.173-.43-2.187-1.28-3.04-.86-.853-1.87-1.28-3.04-1.28-1.23 0-2.27.427-3.12 1.28-.86.853-1.28 1.867-1.28 3.04Zm-4.88 0c0-1.707.4-3.253 1.2-4.64a10.058 10.058 0 0 1 3.36-3.36 9.086 9.086 0 0 1 4.72-1.28c1.7 0 3.25.427 4.64 1.28a9.478 9.478 0 0 1 3.28 3.36c.85 1.387 1.28 2.933 1.28 4.64 0 1.707-.43 3.28-1.28 4.72a9.478 9.478 0 0 1-3.28 3.36c-1.39.8-2.94 1.2-4.64 1.2-1.71 0-3.28-.4-4.72-1.2a10.058 10.058 0 0 1-3.36-3.36c-.8-1.44-1.2-3.013-1.2-4.72Zm-11.04-3.12c-.06.373-.14.987-.24 1.84-.11.853-.22 1.76-.32 2.72-.11.907-.16 1.707-.16 2.4v53.28c0 2.293-.7 4.107-2.08 5.44-1.34 1.387-3.42 2.08-6.24 2.08-1.44 0-2.91-.027-4.4-.08-1.5-.053-2.96-.133-4.4-.24-1.44-.107-2.86-.24-4.24-.4l-.96-9.92c1.7.32 3.36.56 4.96.72 1.65.16 2.96.24 3.92.24 1.06 0 1.81-.213 2.24-.64.42-.48.66-1.227.72-2.24v-3.12c.05-1.6.08-3.493.08-5.68V49.84c0-1.067-.08-2.32-.24-3.76-.16-1.493-.32-2.56-.48-3.2h11.84Zm-39.2 12.72c1.22.16 2.5.32 3.84.48 1.33.107 2.64.16 3.92.16h49.36c1.12 0 2.42-.053 3.92-.16 1.54-.107 2.88-.24 4-.4v10.48a46.4 46.4 0 0 0-4-.16c-1.44-.053-2.72-.08-3.84-.08h-49.44c-1.18 0-2.48.027-3.92.08-1.39.053-2.67.133-3.84.24V55.6Zm20.4 21.68c-.91 1.813-2 3.76-3.28 5.84-1.28 2.08-2.67 4.16-4.16 6.24-1.44 2.08-2.86 4.027-4.24 5.84-1.39 1.76-2.64 3.227-3.76 4.4l-8.64-5.92c1.33-1.227 2.69-2.667 4.08-4.32a86.676 86.676 0 0 0 4.16-5.36 70.28 70.28 0 0 0 3.76-5.6 66.318 66.318 0 0 0 3.04-5.36l9.04 4.24Zm34.4-4.48c1.01 1.28 2.13 2.8 3.36 4.56a104.75 104.75 0 0 1 3.84 5.68c1.28 1.973 2.48 3.92 3.6 5.84 1.12 1.867 2.08 3.52 2.88 4.96l-9.44 5.12a126.57 126.57 0 0 0-2.96-5.52 177.608 177.608 0 0 0-3.36-5.92 105.851 105.851 0 0 0-3.52-5.52c-1.12-1.76-2.16-3.253-3.12-4.48l8.72-4.72Zm23.28 2.08c7.2-1.867 13.7-4.027 19.52-6.48 5.86-2.507 11.01-5.12 15.44-7.84 2.77-1.707 5.54-3.653 8.32-5.84 2.82-2.24 5.46-4.533 7.92-6.88 2.5-2.347 4.61-4.587 6.32-6.72l8.64 8.24c-2.46 2.4-5.15 4.827-8.08 7.28-2.88 2.453-5.9 4.8-9.04 7.04-3.15 2.24-6.27 4.293-9.36 6.16-3.04 1.76-6.46 3.573-10.24 5.44a153.105 153.105 0 0 1-11.84 5.28 160.13 160.13 0 0 1-12.56 4.4l-5.04-10.08Zm33.28-9.2 11.36-2.64v36c0 1.173.02 2.453.08 3.84.05 1.387.13 2.667.24 3.84.1 1.227.24 2.16.4 2.8h-12.64c.1-.64.18-1.573.24-2.8.1-1.173.18-2.453.24-3.84.05-1.387.08-2.667.08-3.84V65.68Zm61.04-20.48c1.38.96 3.01 2.133 4.88 3.52 1.86 1.387 3.78 2.907 5.76 4.56 2.02 1.6 3.92 3.173 5.68 4.72 1.76 1.547 3.2 2.933 4.32 4.16l-8.16 8.32c-1.02-1.12-2.35-2.453-4-4a183.381 183.381 0 0 0-5.36-4.8 214.584 214.584 0 0 0-5.68-4.72c-1.87-1.493-3.52-2.747-4.96-3.76l7.52-8Zm-10 53.28c4.16-.587 8.08-1.413 11.76-2.48 3.68-1.067 7.09-2.293 10.24-3.68 3.14-1.387 6.02-2.827 8.64-4.32a77.657 77.657 0 0 0 12.48-9.28c3.78-3.467 7.09-7.067 9.92-10.8 2.82-3.787 5.06-7.467 6.72-11.04l6.24 11.28c-2.03 3.573-4.54 7.147-7.52 10.72-2.94 3.573-6.27 6.987-10 10.24-3.74 3.2-7.76 6.08-12.08 8.64a97.918 97.918 0 0 1-8.8 4.72 88.726 88.726 0 0 1-10 3.84 70.887 70.887 0 0 1-10.88 2.72l-6.72-10.56Zm95.84-.16v-46c0-1.387-.08-2.987-.24-4.8-.11-1.813-.3-3.413-.56-4.8h12.48a219.71 219.71 0 0 0-.48 4.64 51.463 51.463 0 0 0-.24 4.96v46c0 .747.02 1.813.08 3.2.05 1.333.16 2.72.32 4.16s.26 2.72.32 3.84h-12.48c.21-1.6.4-3.467.56-5.6.16-2.133.24-4 .24-5.6Zm8.56-34.88c2.66.693 5.65 1.6 8.96 2.72 3.3 1.067 6.64 2.213 10 3.44 3.36 1.227 6.5 2.453 9.44 3.68 2.98 1.173 5.46 2.267 7.44 3.28l-4.56 11.04a109.869 109.869 0 0 0-7.44-3.52c-2.72-1.227-5.5-2.4-8.32-3.52-2.78-1.12-5.52-2.16-8.24-3.12-2.67-.96-5.1-1.813-7.28-2.56V63.44Z"/>
    <path fill="#10B981" d="M960 650c55.23 0 100-44.772 100-100s-44.77-100-100-100c-55.228 0-100 44.772-100 100s44.772 100 100 100Z"/>
    <path fill="#fff" d="m926.821 542-1.312-5.44h-7.392l-1.344 5.44h-5.632l7.296-22.944h6.656L932.421 542h-5.6Zm-3.936-14.816a62.725 62.725 0 0 1-.384-1.408 82 82 0 0 1-.384-1.536 176.79 176.79 0 0 1-.32-1.632 23.213 23.213 0 0 1-.32 1.664 82 82 0 0 1-.384 1.536c-.107.491-.224.949-.352 1.376l-1.472 5.312h5.12l-1.504-5.312ZM943.878 542h-10.464v-2.752l2.656-1.28v-14.784l-2.656-1.28v-2.752h10.464v2.752l-2.624 1.28v14.784l2.624 1.28V542Zm13.525-10.112h16.8v12.8h-3.68v-9.312h-9.6v9.472h-3.52v-12.96Zm14.24-17.088 2.944 3.008c-1.557.597-3.285 1.12-5.184 1.568a70.79 70.79 0 0 1-5.856 1.056c-1.984.277-3.925.501-5.824.672-.064-.448-.213-.992-.448-1.632a11.775 11.775 0 0 0-.64-1.632c1.366-.149 2.742-.32 4.128-.512a74.508 74.508 0 0 0 4.096-.672 60.74 60.74 0 0 0 3.712-.832 28.651 28.651 0 0 0 3.072-1.024Zm-7.68 3.616h3.648v15.488h-3.648v-15.488Zm-8.544 5.728h20.384v3.648h-20.384v-3.648Zm4.512 15.904h12.128v3.488h-12.128v-3.488ZM947.515 518l2.176-2.784c.598.299 1.27.64 2.016 1.024.747.384 1.472.768 2.176 1.152a20.62 20.62 0 0 1 1.76 1.024l-2.272 3.104c-.426-.32-.981-.683-1.664-1.088-.682-.405-1.397-.821-2.144-1.248a64.002 64.002 0 0 0-2.048-1.184Zm-1.536 8.864 2.08-2.848c.598.256 1.28.576 2.048.96s1.515.768 2.24 1.152c.726.363 1.312.693 1.76.992l-2.144 3.2c-.426-.32-.992-.683-1.696-1.088a88.441 88.441 0 0 0-2.176-1.248 54.98 54.98 0 0 0-2.112-1.12Zm.48 15.04a59.92 59.92 0 0 0 1.888-2.848 116.344 116.344 0 0 0 2.144-3.52 93.551 93.551 0 0 0 2.048-3.744l2.816 2.56a106.99 106.99 0 0 1-1.792 3.424 88.527 88.527 0 0 1-1.92 3.456 76.503 76.503 0 0 1-1.952 3.264l-3.232-2.592Zm37.152-24.96h19.619v3.68h-19.619v-3.68Zm0 7.392h19.679v3.584h-19.679v-3.584Zm-.064 7.552h19.873v3.616h-19.873v-3.616Zm-2.144-14.944h3.776v11.52c0 1.259-.053 2.635-.16 4.128a33.193 33.193 0 0 1-.64 4.512 19.673 19.673 0 0 1-1.376 4.288 13.086 13.086 0 0 1-2.368 3.648c-.192-.256-.48-.544-.864-.864-.384-.32-.778-.629-1.184-.928a11.356 11.356 0 0 0-.992-.704 11.787 11.787 0 0 0 2.08-3.168 16.843 16.843 0 0 0 1.12-3.616c.256-1.259.416-2.507.48-3.744.086-1.259.128-2.453.128-3.584v-11.488Zm20.477 0h3.84v23.392c0 1.024-.12 1.813-.38 2.368-.26.576-.72 1.013-1.38 1.312-.64.299-1.46.491-2.46.576-1 .085-2.241.117-3.713.096-.064-.512-.224-1.131-.48-1.856a14.3 14.3 0 0 0-.768-1.824l1.856.064h2.685c.3 0 .5-.053.61-.16.13-.107.19-.309.19-.608v-23.36Zm-10.621 1.472h3.872v26.048h-3.872v-26.048Zm-57.435 38.448h7.392v3.488h-7.392v-3.488Zm5.92 0h3.712v1.408a230.93 230.93 0 0 1-.16 5.568c-.064 1.429-.171 2.549-.32 3.36-.128.789-.309 1.344-.544 1.664-.32.405-.661.693-1.024.864a4.505 4.505 0 0 1-1.216.384c-.427.085-.971.139-1.632.16-.64 0-1.344-.011-2.112-.032-.021-.555-.128-1.173-.32-1.856s-.427-1.259-.704-1.728c.576.043 1.109.075 1.6.096.512.021.896.032 1.152.032.213 0 .395-.021.544-.064a.883.883 0 0 0 .416-.32c.149-.192.256-.587.32-1.184.085-.619.149-1.547.192-2.784.043-1.259.075-2.923.096-4.992v-.576Zm9.6-10.048 2.336-2.304c.597.299 1.227.651 1.888 1.056a48.5 48.5 0 0 1 1.888 1.216c.619.405 1.12.8 1.504 1.184l-2.464 2.56a15.302 15.302 0 0 0-1.408-1.216 26.01 26.01 0 0 0-1.856-1.312 29.194 29.194 0 0 0-1.888-1.184Zm3.776 8.256 3.904.928c-1.344 4.16-3.179 7.84-5.504 11.04-2.325 3.179-5.077 5.749-8.256 7.712a9.104 9.104 0 0 0-.768-1.024c-.341-.384-.693-.779-1.056-1.184a20.549 20.549 0 0 0-.96-.96 24.089 24.089 0 0 0 7.808-6.72c2.133-2.837 3.744-6.101 4.832-9.792Zm-19.104-5.472h24.704v3.776h-24.704V549.6Zm-2.56 0h4.032v9.44c0 1.195-.043 2.507-.128 3.936a45.729 45.729 0 0 1-.48 4.352 25.392 25.392 0 0 1-1.056 4.256c-.448 1.365-1.035 2.592-1.76 3.68-.213-.277-.533-.587-.96-.928a62.248 62.248 0 0 0-1.248-1.024c-.405-.32-.757-.544-1.056-.672.811-1.28 1.397-2.709 1.76-4.288a28.8 28.8 0 0 0 .736-4.832c.107-1.621.16-3.125.16-4.512V549.6Zm12.992-4.768h4.032a83.403 83.403 0 0 0 .224 7.712c.192 2.517.469 4.875.832 7.072.384 2.176.832 4.107 1.344 5.792.512 1.664 1.077 2.965 1.696 3.904.619.939 1.248 1.408 1.888 1.408.363 0 .64-.437.832-1.312.213-.875.363-2.315.448-4.32.448.427.971.843 1.568 1.248.619.405 1.184.704 1.696.896-.192 1.984-.48 3.52-.864 4.608-.384 1.067-.896 1.803-1.536 2.208-.64.405-1.461.608-2.464.608-1.152 0-2.197-.395-3.136-1.184-.917-.789-1.739-1.888-2.464-3.296-.704-1.408-1.312-3.061-1.824-4.96a57.044 57.044 0 0 1-1.28-6.176 96.933 96.933 0 0 1-.736-6.912 137.322 137.322 0 0 1-.256-7.296Zm16.832 3.424h12.096v3.648H961.28v-3.648Zm12.544 3.36h14.368v3.68h-14.368v-3.68Zm-8.384-1.856h3.808v16.096h-3.808V549.76Zm20.96 1.856h3.776v1.088c0 .277-.011.501-.032.672a411.254 411.254 0 0 1-.288 8.288 151.794 151.794 0 0 1-.352 5.664c-.128 1.472-.299 2.635-.512 3.488-.192.853-.437 1.461-.736 1.824-.405.597-.832 1.003-1.28 1.216-.427.235-.939.405-1.536.512a23.93 23.93 0 0 1-2.08.128 33.72 33.72 0 0 1-2.528-.032c-.021-.555-.149-1.195-.384-1.92a7.408 7.408 0 0 0-.832-1.856 51.95 51.95 0 0 0 2.368.128h1.632c.299 0 .544-.032.736-.096a1.49 1.49 0 0 0 .544-.448c.192-.235.363-.725.512-1.472.171-.768.309-1.856.416-3.264.128-1.408.235-3.189.32-5.344.085-2.155.171-4.747.256-7.776v-.8Zm-25.568 13.792a87.912 87.912 0 0 0 3.744-.832c1.408-.341 2.891-.715 4.448-1.12l4.672-1.216.48 3.648c-2.133.64-4.299 1.269-6.496 1.888a339.052 339.052 0 0 1-5.92 1.632l-.928-4Zm17.504-20.096h3.904a422.21 422.21 0 0 1-.128 7.68 57.118 57.118 0 0 1-.576 6.88c-.299 2.155-.789 4.16-1.472 6.016a17.277 17.277 0 0 1-2.816 5.056c-1.195 1.493-2.763 2.816-4.704 3.968a7.545 7.545 0 0 0-.736-1.088 23.233 23.233 0 0 0-.96-1.152 5.802 5.802 0 0 0-.992-.864c1.771-.981 3.189-2.133 4.256-3.456a14.59 14.59 0 0 0 2.496-4.416c.597-1.643 1.013-3.424 1.248-5.344a56.21 56.21 0 0 0 .384-6.208c.043-2.219.075-4.576.096-7.072Z"/>
    <path fill="#3B82F6" d="M960 380c44.18 0 80-35.817 80-80s-35.82-80-80-80c-44.183 0-80 35.817-80 80s35.817 80 80 80Z"/>
    <path fill="#fff" d="M965.521 298h-6.52v-18.2c.027-.667.04-1.36.04-2.08.027-.72.053-1.36.08-1.92-.213.16-.493.453-.84.88-.32.427-.653.787-1 1.08l-3 2.64-3.28-3.64 8.92-7.32h5.6V298Zm-33.081 7.42h5.72v11.94h-5.72v-1.4h4.32v-9.16h-4.32v-1.38Zm0 5.2h4.94v1.36h-4.94v-1.36Zm8.46-5.56h6.74v1.4h-6.74v-1.4Zm0 4.86h6.74v1.36h-6.74v-1.36Zm-.14 4.9h6.84v1.36h-6.84v-1.36Zm-9.16-9.4h1.42v13.82h-1.42v-13.82Zm15.48-.36h1.48v15.56c0 .467-.067.827-.2 1.08-.12.267-.34.46-.66.58-.333.12-.78.193-1.34.22-.56.04-1.273.06-2.14.06a2.064 2.064 0 0 0-.12-.48 5.402 5.402 0 0 0-.2-.54 2.99 2.99 0 0 0-.22-.46c.44.013.853.02 1.24.02.4.013.747.013 1.04 0h.62c.187 0 .313-.033.38-.1.08-.08.12-.207.12-.38v-15.56Zm-7.06 0h1.46v7.14c0 .84-.047 1.733-.14 2.68a15.28 15.28 0 0 1-.56 2.82 10.415 10.415 0 0 1-1.22 2.7c-.547.867-1.273 1.647-2.18 2.34a2.134 2.134 0 0 0-.3-.36 11.614 11.614 0 0 0-.42-.4 3.885 3.885 0 0 0-.38-.28c.853-.64 1.527-1.347 2.02-2.12.493-.787.867-1.6 1.12-2.44.253-.84.413-1.68.48-2.52.08-.84.12-1.653.12-2.44v-7.12Zm20.42 8.82h7.82v1.16h-7.82v-1.16Zm0 3.28h7.82v1.18h-7.82v-1.18Zm.02 3.28h8.74v1.28h-8.74v-1.28Zm-2.3-14.2h10.94v3.44h-1.36v-2.14h-8.26v2.14h-1.32v-3.44Zm5.52 5.24h1.4v9.64h-1.4v-9.64Zm-2.72-.94h7.64v1.3h-7.64v10.76h-1.42v-10.72l1.3-1.34h.12Zm1.9-6.36 1.42.28c-.56 2.027-1.333 3.853-2.32 5.48-.973 1.627-2.14 2.973-3.5 4.04a2.937 2.937 0 0 0-.3-.34 3.844 3.844 0 0 0-.4-.42 3.441 3.441 0 0 0-.36-.32c1.32-.973 2.433-2.207 3.34-3.7.92-1.507 1.627-3.18 2.12-5.02Zm2.08 3.98 1.4.34c-.24.52-.487 1.047-.74 1.58-.24.52-.473.967-.7 1.34l-1.14-.32c.213-.4.433-.88.66-1.44.227-.573.4-1.073.52-1.5Zm-13.88-2.62h7.06v1.4h-7.06v-1.4Zm2.02 5.84h4.5v8.76h-4.5v-1.32h3.2v-6.1h-3.2v-1.34Zm.32-5.18 1.44.22c-.2 1.4-.46 2.76-.78 4.08a25.648 25.648 0 0 1-1.14 3.66 14.348 14.348 0 0 1-1.58 3.02 5.425 5.425 0 0 0-.24-.42 18.399 18.399 0 0 0-.32-.54 2.798 2.798 0 0 0-.3-.44c.533-.76.987-1.64 1.36-2.64.387-1.013.707-2.107.96-3.28.253-1.187.453-2.407.6-3.66Zm-.94 5.18h1.26v10.34h-1.26v-10.34Zm19.48-3c.373.053.767.093 1.18.12.413.013.833.02 1.26.02a26.184 26.184 0 0 0 4.64-.42c.8-.16 1.587-.367 2.36-.62l.04 1.5c-.653.173-1.373.333-2.16.48-.773.147-1.58.267-2.42.36-.827.08-1.647.12-2.46.12h-1.16c-.4-.013-.793-.033-1.18-.06l-.1-1.5Zm7.08-3.26c-.08.32-.18.727-.3 1.22s-.253 1.013-.4 1.56a20.52 20.52 0 0 1-.44 1.52c-.32.96-.727 1.973-1.22 3.04a47.677 47.677 0 0 1-1.58 3.08c-.56 1-1.113 1.873-1.66 2.62l-1.54-.8c.44-.52.88-1.113 1.32-1.78.453-.667.873-1.367 1.26-2.1.4-.733.76-1.453 1.08-2.16.32-.707.587-1.353.8-1.94.213-.64.413-1.36.6-2.16.187-.813.293-1.567.32-2.26l1.76.16Zm4.72 6.18c-.013.413-.027.787-.04 1.12 0 .32.007.667.02 1.04.013.32.027.733.04 1.24.027.493.053 1.02.08 1.58.027.547.047 1.073.06 1.58.027.507.04.927.04 1.26a3 3 0 0 1-.36 1.46c-.24.44-.62.787-1.14 1.04-.507.267-1.173.4-2 .4-.733 0-1.4-.107-2-.32-.6-.2-1.087-.513-1.46-.94-.36-.427-.54-.967-.54-1.62 0-.627.173-1.16.52-1.6.36-.453.84-.8 1.44-1.04.613-.24 1.293-.36 2.04-.36 1.12 0 2.147.16 3.08.48.947.307 1.793.7 2.54 1.18.76.48 1.413.953 1.96 1.42l-.86 1.36c-.387-.347-.82-.707-1.3-1.08a10.242 10.242 0 0 0-1.56-1.02 9.42 9.42 0 0 0-1.84-.78c-.653-.2-1.347-.3-2.08-.3-.733 0-1.327.153-1.78.46-.453.307-.68.687-.68 1.14 0 .467.193.847.58 1.14.387.293.967.44 1.74.44.56 0 1-.087 1.32-.26.32-.187.547-.427.68-.72.147-.307.22-.64.22-1 0-.373-.013-.86-.04-1.46-.013-.6-.04-1.24-.08-1.92-.027-.693-.06-1.38-.1-2.06-.027-.693-.047-1.313-.06-1.86h1.56Zm4 .54c-.36-.32-.813-.653-1.36-1a23.503 23.503 0 0 0-1.7-.98c-.573-.32-1.08-.58-1.52-.78l.82-1.22c.36.16.76.353 1.2.58a33.019 33.019 0 0 1 2.54 1.46c.387.227.693.433.92.62l-.9 1.32Zm-53.18 13.48c.173.24.36.527.56.86.2.32.393.647.58.98.2.333.367.633.5.9l-1.08.5c-.2-.413-.453-.88-.76-1.4a20.285 20.285 0 0 0-.86-1.38l1.06-.46Zm2.2-.8c.173.253.367.547.58.88.213.333.413.667.6 1 .2.32.367.6.5.84l-1.08.5c-.213-.44-.473-.913-.78-1.42-.307-.52-.6-.967-.88-1.34l1.06-.46ZM925.58 326c-.027.227-.053.487-.08.78-.013.28-.02.56-.02.84v10.56c0 .507.107.86.32 1.06.227.187.587.327 1.08.42.32.053.713.093 1.18.12.48.027.967.04 1.46.04.533 0 1.107-.013 1.72-.04a46.24 46.24 0 0 0 1.86-.12c.64-.053 1.24-.12 1.8-.2.56-.08 1.047-.173 1.46-.28V341c-.573.093-1.267.167-2.08.22-.8.067-1.627.113-2.48.14-.84.04-1.627.06-2.36.06-.587 0-1.167-.02-1.74-.06a13.256 13.256 0 0 1-1.46-.14c-.773-.133-1.367-.393-1.78-.78-.413-.4-.62-1.007-.62-1.82v-11c0-.173-.007-.353-.02-.54 0-.187-.013-.373-.04-.56a4.55 4.55 0 0 0-.06-.52h1.86Zm-.84 6.3c.6-.133 1.26-.293 1.98-.48a80.64 80.64 0 0 0 2.22-.64c.76-.227 1.493-.467 2.2-.72.72-.253 1.367-.507 1.94-.76.307-.133.607-.273.9-.42.293-.147.58-.307.86-.48l.7 1.6-.94.4c-.333.133-.647.26-.94.38-.627.253-1.327.513-2.1.78a68.81 68.81 0 0 1-2.36.78c-.813.24-1.607.467-2.38.68a50.41 50.41 0 0 1-2.08.54v-1.66Zm29.58-6.22c.173.227.373.527.6.9.24.373.473.753.7 1.14.227.387.413.74.56 1.06l-1.14.52c-.16-.347-.34-.7-.54-1.06-.2-.373-.407-.74-.62-1.1-.213-.36-.433-.693-.66-1l1.1-.46Zm2.62-.96c.187.227.393.52.62.88.227.36.46.733.7 1.12.24.387.44.74.6 1.06l-1.14.52a14.22 14.22 0 0 0-.58-1.08c-.213-.36-.433-.713-.66-1.06a10.74 10.74 0 0 0-.66-.96l1.12-.48Zm-11.16.66c.293.16.64.373 1.04.64.4.253.813.52 1.24.8.427.267.82.527 1.18.78.373.24.667.44.88.6l-.94 1.38c-.24-.187-.547-.407-.92-.66a36.25 36.25 0 0 0-1.16-.78c-.4-.28-.8-.54-1.2-.78a26.992 26.992 0 0 0-1.02-.64l.9-1.34Zm-3 14.3a25.987 25.987 0 0 0 2.26-.52c.773-.213 1.54-.473 2.3-.78.76-.307 1.473-.647 2.14-1.02a23.304 23.304 0 0 0 3.08-2.12c.947-.787 1.8-1.62 2.56-2.5.76-.88 1.407-1.787 1.94-2.72l.96 1.66c-.867 1.333-1.967 2.627-3.3 3.88a24.719 24.719 0 0 1-4.4 3.26c-.667.387-1.4.747-2.2 1.08-.787.32-1.567.6-2.34.84-.76.253-1.453.44-2.08.56l-.92-1.62Zm-.02-9.8a46.692 46.692 0 0 1 2.32 1.36c.427.267.82.52 1.18.76.373.227.667.42.88.58l-.9 1.4c-.253-.187-.567-.4-.94-.64-.36-.24-.747-.493-1.16-.76-.413-.267-.82-.513-1.22-.74-.4-.24-.753-.44-1.06-.6l.9-1.36Zm21.7-.26c.12.013.307.027.56.04l.8.04h9.1c.227-.013.407-.027.54-.04a4.06 4.06 0 0 0-.02.46v11.06c.013.213.027.393.04.54h-1.58c.013-.12.02-.287.02-.5v-10.1h-7.42c-.173 0-.4.007-.68.02-.267 0-.533.007-.8.02-.253.013-.44.02-.56.02v-1.56Zm.44 4.76c.2.013.46.027.78.04.333.013.667.02 1 .02h8.02v1.44h-8c-.347 0-.687.007-1.02.02-.32 0-.58.007-.78.02v-1.54Zm-.68 4.98c.16.013.387.033.68.06.293.013.613.02.96.02h8.84v1.48h-8.82c-.32 0-.64.007-.96.02-.307.013-.54.02-.7.02v-1.6Zm20.32-13.42c.36.24.773.54 1.24.9.467.347.94.72 1.42 1.12.493.387.953.767 1.38 1.14.427.373.78.7 1.06.98l-1.26 1.26c-.253-.253-.58-.567-.98-.94s-.84-.76-1.32-1.16c-.48-.413-.953-.8-1.42-1.16-.467-.373-.887-.68-1.26-.92l1.14-1.22Zm-1.72 13.4a20.205 20.205 0 0 0 3.2-.72c.973-.307 1.86-.653 2.66-1.04a23.92 23.92 0 0 0 2.14-1.16 17.546 17.546 0 0 0 2.84-2.2 20.38 20.38 0 0 0 2.28-2.6c.653-.893 1.173-1.747 1.56-2.56l.96 1.7a18.693 18.693 0 0 1-1.68 2.52 21.647 21.647 0 0 1-2.26 2.46 18.52 18.52 0 0 1-2.78 2.14c-.667.413-1.4.82-2.2 1.22-.787.4-1.653.767-2.6 1.1-.933.32-1.953.58-3.06.78l-1.06-1.64Z"/>
    <path fill="#8B5CF6" d="M1080.21 429.792c31.24 31.242 81.89 31.242 113.14 0 31.24-31.242 31.24-81.895 0-113.137-31.25-31.242-81.9-31.242-113.14 0-31.24 31.242-31.24 81.895 0 113.137Z"/>
    <path fill="#fff" d="m1144.95 378.57-13.52-13.52 2.97-2.97 9.82-.424c2.01-.094 3.64-.217 4.89-.368 1.28-.151 2.32-.396 3.11-.735.83-.34 1.58-.839 2.24-1.499.81-.811 1.21-1.612 1.21-2.404.02-.773-.27-1.462-.88-2.065-.66-.66-1.49-1.141-2.51-1.443-1-.282-2.22-.48-3.65-.594l.25-5.232c1.08.056 2.14.179 3.2.368 1.06.188 2.14.575 3.25 1.159 1.13.566 2.29 1.443 3.48 2.631 1.26 1.263 2.11 2.602 2.55 4.016.45 1.395.51 2.753.17 4.073-.31 1.32-.97 2.498-2.01 3.535-.85.849-1.75 1.5-2.69 1.952-.94.453-1.99.783-3.14.99-1.13.226-2.38.387-3.76.481-1.36.075-2.89.17-4.58.283l-4.33.254-.23.17 7.75 7.75-3.59 3.592Zm-20.14-9.9 6.28 6.279-.93.933-6.28-6.279.93-.933Zm-7.07 8.174 6.55 6.548-.95.947-6.55-6.547.95-.948Zm-4.2 2.362 8.09 8.089-.95.948-8.09-8.09.95-.947Zm17.25-4.554.2.198.26.17.39 1.018c-1.46.707-2.92 1.108-4.4 1.202-1.46.104-2.9-.028-4.32-.396a20.04 20.04 0 0 1-4.12-1.541c.08-.208.14-.458.19-.75.05-.283.09-.533.09-.749a16.28 16.28 0 0 0 3.72 1.541c1.32.358 2.64.509 3.96.453a9.816 9.816 0 0 0 3.85-.962l.18-.184Zm-4.96-3.323c-.64 1.659-.83 3.408-.58 5.246.26 1.848.95 3.644 2.05 5.389-.21 0-.47.023-.78.07-.29.047-.54.099-.75.156-1.09-1.867-1.74-3.776-1.96-5.728-.2-1.951.06-3.87.78-5.756l1.24.623Zm-3.34 6.166 1.05 1.046-5.93 5.926-1.04-1.047 5.92-5.925Zm-.07-12.686.55 1.315c-.51.151-1.05.316-1.62.495-.58.179-1.14.34-1.7.481-.55.151-1.04.259-1.48.325l-.4-1.046c.45-.094.95-.226 1.5-.396a70.1 70.1 0 0 0 1.67-.566c.56-.207 1.06-.41 1.48-.608Zm-.01 3.21.48 1.301c-.86.217-1.79.429-2.79.637-.99.217-1.96.405-2.91.566a32.1 32.1 0 0 1-2.6.339l-.29-1.018c.59-.057 1.23-.146 1.91-.269.71-.123 1.42-.269 2.14-.438.73-.17 1.45-.354 2.13-.552.71-.198 1.35-.386 1.93-.566Zm-5.19-2.446 1.24-.17c.05.481.07.99.06 1.527.01.538-.01 1.052-.04 1.542-.03.481-.09.886-.17 1.216l-1.39.226c.1-.339.17-.759.21-1.258.07-.5.11-1.018.12-1.556.01-.537 0-1.046-.03-1.527Zm1.38 5.232 1.06.439c-.1.499-.24 1.018-.42 1.555-.17.528-.36 1.028-.57 1.499-.18.472-.38.873-.58 1.203l-1.15-.453c.2-.321.41-.721.6-1.202.21-.471.41-.971.6-1.499.2-.538.35-1.051.46-1.542Zm-4.79-1.937c.64.603 1.4 1.306 2.28 2.107.87.801 1.78 1.631 2.71 2.489l-.87.849c-.9-.783-1.79-1.556-2.66-2.32-.87-.773-1.65-1.456-2.34-2.05l.88-1.075Zm1.84 5.628 1.02.538c-.21.584-.47 1.207-.8 1.867-.3.66-.59 1.197-.87 1.612l-1.09-.523c.29-.425.59-.962.9-1.613.33-.65.61-1.277.84-1.881Zm-2.79-3.068.75 1.06c-.76.575-1.55 1.103-2.37 1.584-.81.472-1.56.82-2.24 1.047a2.989 2.989 0 0 0-.11-.396c-.05-.142-.11-.293-.17-.453-.05-.16-.1-.297-.16-.41.68-.188 1.39-.509 2.12-.962.76-.452 1.48-.942 2.18-1.47Zm2.87.155.95.948-6.31 6.307-.94-.947 6.3-6.308Zm17.4 14.086-1.63 1.626 5.47 5.473 1.63-1.626-5.47-5.473Zm-.17-1.839 7.51 7.51-3.28 3.281-7.51-7.51 3.28-3.281Zm.11 5.883 1.06 1.287c-.48.217-.96.429-1.45.637-.49.217-.91.396-1.28.537l-.78-1.089c.37-.179.79-.396 1.25-.65.48-.255.88-.495 1.2-.722Zm-5.53-2.446 9.62 9.616-4.34 4.342-1.05-1.046 3.41-3.409-7.55-7.552-3.43 3.423-1.01-1.018 4.35-4.356Zm-2.33 3.408 8.5 8.499-.94.934-8.49-8.5.93-.933Zm7.66-10.946 11.73 11.724-2.8 2.8-1.04-1.032 1.87-1.867-9.71-9.716-1.87 1.867-.98-.976 2.8-2.8Zm11.9 7.651.7 1.471c-.67.103-1.36.198-2.09.283-.72.075-1.36.113-1.92.113l-.48-1.188c.37-.038.78-.09 1.23-.156.45-.056.9-.132 1.35-.226.46-.094.86-.193 1.21-.297Zm-9.41-8.443 1.3.509c-.02.528-.07 1.094-.17 1.697-.09.604-.21 1.094-.36 1.471l-1.4-.495c.15-.377.28-.867.39-1.471.12-.613.2-1.183.24-1.711Zm3.81 3.239 1.26.579c-.08.528-.2 1.089-.36 1.683-.16.594-.33 1.075-.51 1.443l-1.34-.58c.2-.368.39-.848.56-1.442.18-.594.31-1.155.39-1.683Zm-47.53-15.514c.2.264.44.547.7.848.28.293.53.552.75.778l6.97 6.972.54.538.54.48c-.17.151-.36.326-.58.524-.21.188-.4.367-.57.537l-7.29 7.297c-.26.255-.52.524-.78.806-.26.293-.44.5-.54.623l-1.27-1.273c.12-.104.29-.269.52-.495.25-.226.5-.467.75-.721l7.37-7.368-6.78-6.774a33.43 33.43 0 0 0-.87-.849c-.31-.292-.55-.514-.72-.665l1.26-1.258Zm-8 7.622c.17.198.38.448.64.75.27.311.56.613.85.905l7.58 7.58-1.15 1.146-7.55-7.552c-.28-.283-.58-.571-.89-.863-.3-.283-.55-.509-.76-.679l1.28-1.287Zm24.77 7.142c.32.415.69.915 1.1 1.499.42.585.84 1.212 1.29 1.881.45.679.89 1.362 1.31 2.051.44.697.83 1.357 1.19 1.98.36.622.66 1.173.89 1.654l-1.54.637c-.23-.472-.51-1.014-.86-1.627-.34-.622-.72-1.273-1.13-1.951-.41-.67-.84-1.344-1.29-2.023-.43-.678-.86-1.315-1.29-1.909a25.41 25.41 0 0 0-1.13-1.555l1.46-.637Zm-4.37 3.097c.39.566.85 1.226 1.36 1.98.5.754 1.01 1.546 1.52 2.376.53.83 1.02 1.636 1.46 2.418.45.773.81 1.457 1.09 2.051l-1.54.636a25.32 25.32 0 0 0-1.02-2.008c-.43-.764-.89-1.56-1.4-2.39a57.27 57.27 0 0 0-1.56-2.404c-.51-.773-.97-1.447-1.4-2.022l1.49-.637Zm-4.9 3.338c.41.556.84 1.188 1.31 1.895.48.707.96 1.452 1.44 2.234.49.773.96 1.546 1.41 2.32.45.773.86 1.513 1.23 2.22.38.698.68 1.32.91 1.867l-1.57.608a22.19 22.19 0 0 0-.88-1.867c-.36-.717-.77-1.466-1.23-2.249-.44-.782-.91-1.565-1.41-2.347-.49-.773-.97-1.509-1.45-2.206-.46-.689-.88-1.301-1.27-1.839l1.51-.636Zm23.62 13.039c-.07.207-.2.504-.38.891-.17.377-.35.778-.55 1.202-.19.434-.38.839-.57 1.216-.18.368-.32.655-.44.863l-1.41-.679c.12-.198.27-.481.45-.849.19-.358.38-.749.58-1.173.21-.434.39-.844.55-1.231.16-.386.29-.693.39-.919l1.38.679Zm4.33 5.911c-.19.095-.36.184-.52.269-.15.085-.28.16-.4.226-.96.585-1.98 1.089-3.04 1.513-1.06.415-2.16.689-3.31.821a13.78 13.78 0 0 1-4.28-.128c-1.37-.254-2.6-.627-3.7-1.117l.02-1.881c.71.377 1.49.703 2.33.976.85.283 1.72.476 2.62.58.9.113 1.79.122 2.66.028.75-.075 1.52-.24 2.3-.495a13.737 13.737 0 0 0 4.49-2.39l.83 1.598Zm-8.32-8.485c-.08.236-.2.547-.36.933-.16.387-.35.806-.56 1.259-.18.453-.37.886-.56 1.301a17.5 17.5 0 0 1-.43.99l-1.47-.679a16 16 0 0 0 .47-.976c.21-.414.41-.853.61-1.315.2-.462.37-.891.52-1.287.16-.386.27-.674.33-.862l1.45.636Zm9.17 21.553c.13-.132.39-.396.79-.792.41-.406.88-.882 1.43-1.429.55-.556 1.13-1.136 1.74-1.739.61-.613 1.2-1.207 1.78-1.782.57-.575 1.08-1.084 1.53-1.527.44-.444.76-.764.96-.962.2-.198.43-.448.69-.75.27-.301.49-.58.67-.834l1.38 1.386c-.22.188-.49.41-.8.665-.31.264-.56.499-.77.707-.37.367-.81.81-1.33 1.329-.51.509-1.05 1.056-1.64 1.641-.57.575-1.15 1.15-1.72 1.725-.56.575-1.09 1.112-1.59 1.612l-1.26 1.259c-.33.339-.56.565-.67.679-.15.15-.33.325-.53.523-.19.207-.37.424-.56.65-.18.217-.35.41-.5.58l-1.37-1.372c.26-.188.56-.433.88-.735.33-.292.62-.57.89-.834Zm6.93-5.063c.32.603.66 1.282 1.02 2.036a75.1 75.1 0 0 1 1.11 2.334c.37.801.7 1.574.99 2.319.31.745.56 1.409.75 1.994l-1.68.721c-.18-.631-.42-1.31-.71-2.036-.28-.736-.58-1.48-.9-2.235-.31-.745-.63-1.452-.96-2.121-.32-.669-.61-1.254-.88-1.754l1.26-1.258Z"/>
    <path fill="#EC4899" d="M1130 550c0 44.183 35.82 80 80 80s80-35.817 80-80-35.82-80-80-80-80 35.817-80 80Z"/>
    <path fill="#fff" d="M1234.16 558.601c-1.31 0-2.44-.267-3.4-.8a6.91 6.91 0 0 1-2.36-2.12 9.385 9.385 0 0 1-1.36-2.96h-.12c-.27 2.133-.96 3.773-2.08 4.92-1.12 1.147-2.63 1.72-4.52 1.72-1.65 0-3.15-.387-4.48-1.16-1.31-.773-2.35-1.973-3.12-3.6-.75-1.6-1.12-3.68-1.12-6.24 0-1.6.13-3.027.4-4.28.27-1.253.65-2.453 1.16-3.6h5.12a17.21 17.21 0 0 0-1.4 3.6c-.32 1.253-.48 2.4-.48 3.44 0 1.893.37 3.2 1.12 3.92.75.747 1.8 1.12 3.16 1.12.8 0 1.47-.173 2-.52.56-.347.97-.96 1.24-1.84.29-.853.44-2.093.44-3.72v-1.84h4.64v1.88c0 1.52.16 2.693.48 3.52.35.827.8 1.4 1.36 1.72.59.347 1.25.52 2 .52 1.01 0 1.8-.28 2.36-.84.59-.56.88-1.413.88-2.56 0-.827-.12-1.6-.36-2.32-.21-.72-.48-1.36-.8-1.92-.32-.533-.63-.973-.92-1.32l4.16-2.8a16.5 16.5 0 0 1 1.44 2.36c.43.88.76 1.867 1 2.96.24 1.12.36 2.387.36 3.8 0 2.773-.6 4.96-1.8 6.56-1.17 1.6-2.84 2.4-5 2.4Zm-37.24-29.221v7.72h-1.36v-7.72h1.36Zm3.68-6.36v5.34h-1.4v-5.34h1.4Zm-3.84 0v5.52h-1.4v-5.52h1.4Zm8.2 8.2v4.68h-1.32v-4.68h1.32Zm-8.04 5.58v.28l.06.28-.38.96c-1.71-.493-3.17-1.22-4.4-2.18a12.658 12.658 0 0 1-3-3.34c-.79-1.28-1.4-2.66-1.84-4.14.13-.053.29-.127.46-.22.16-.093.32-.193.48-.3.15-.107.27-.207.38-.3.35 1.36.87 2.64 1.58 3.84a11.902 11.902 0 0 0 2.66 3.16c1.07.893 2.31 1.547 3.74 1.96h.26Zm-1.28-5.28c-1.71.64-3.16 1.627-4.36 2.96-1.19 1.347-2.03 2.973-2.54 4.88-.11-.107-.23-.227-.38-.36-.16-.12-.32-.233-.48-.34-.17-.107-.33-.2-.46-.28.61-1.987 1.59-3.667 2.92-5.04 1.35-1.36 2.99-2.407 4.92-3.14l.38 1.32Zm8.64-9.2-.46 1.44h-16.4v-1.44h16.86Zm-12.46-1.64c.11.693.23 1.493.38 2.4.15.92.31 1.893.48 2.92.17 1.027.35 2.047.52 3.06l-1.38.06c-.17-.96-.35-1.933-.54-2.92-.17-.987-.34-1.927-.5-2.82-.16-.893-.31-1.707-.44-2.44l1.48-.26Zm13.14 9.84v1.4h-2.88c-.53 0-1.1-.06-1.7-.18-.6-.12-1.17-.353-1.72-.7s-1.03-.86-1.46-1.54c.11-.067.23-.16.36-.28.13-.12.26-.253.38-.4.13-.133.23-.253.28-.36.37.613.77 1.067 1.2 1.36.44.293.89.48 1.34.56.47.093.92.14 1.36.14h2.84Zm.82-2.62-1.06 1.28c-.27-.547-.52-1.16-.76-1.84-.24-.68-.46-1.38-.66-2.1-.2-.72-.38-1.42-.54-2.1.16-.04.35-.113.58-.22.23-.093.41-.187.56-.28.16.64.34 1.287.54 1.94.21.653.43 1.267.66 1.84.23.587.45 1.08.68 1.48Zm-.82 7.18v1.42h-4.94c-.19 0-.34.007-.46.02-.11.013-.18.04-.22.08-.04.067-.06.173-.06.32v.58c0 .08.01.16.02.24.01.08.03.14.04.18.05.093.21.167.46.22.15.013.37.027.66.04.31.013.66.027 1.06.04-.12.133-.23.307-.34.52-.11.227-.19.44-.26.64-.39-.027-.78-.06-1.18-.1-.39-.027-.66-.067-.82-.12a1.083 1.083 0 0 1-.68-.6c-.07-.107-.11-.253-.14-.44a2.91 2.91 0 0 1-.04-.5v-1.02c0-.187.03-.387.08-.6.05-.213.14-.387.26-.52.13-.147.31-.253.52-.32.23-.053.63-.08 1.2-.08h4.84Zm-1.84 13.7v3.8h-1.22v-3.8h1.22Zm-10.44.42v8.02h-1.22v-8.02h1.22Zm-3.22-.04v8.3h-1.28v-8.3h1.28Zm16.1-1.06v1.36h-7.4v-1.36h7.4Zm-7.18-1.3c.15.76.34 1.667.58 2.72.24 1.067.49 2.147.74 3.24l-1.16.12c-.25-.987-.51-1.98-.76-2.98-.25-.987-.48-1.887-.68-2.7l1.28-.4Zm7.18 6.64v1.38h-6.26c-.25 0-.42.033-.5.1-.07.08-.1.26-.1.54v1.96c0 .173.04.3.12.38.09.08.28.133.56.16.28.04.69.067 1.22.08-.12.16-.23.36-.34.6-.09.24-.16.46-.2.66-.69-.04-1.23-.12-1.62-.24-.39-.12-.65-.3-.8-.54-.15-.227-.22-.547-.22-.96v-2.26c0-.493.05-.88.16-1.16a.966.966 0 0 1 .56-.56c.28-.093.67-.14 1.16-.14h6.26Zm-1.26 4.38-1 1.06c-.39-.613-.76-1.327-1.12-2.14-.35-.8-.66-1.573-.94-2.32.15-.027.31-.087.5-.18s.35-.18.5-.26c.2.467.41.94.64 1.42.23.48.46.927.7 1.34.25.427.49.787.72 1.08Zm-6.44-5.74-.32 1.52c-.45-.173-.91-.353-1.36-.54-.45-.173-.85-.34-1.18-.5l.32-1.3c.35.147.76.3 1.24.46.49.173.93.293 1.3.36Zm-2.02-3.62v9.72h-8.32v-1.46h7.04v-6.86h-7.12v-1.4h8.4Zm9.1-6.8v4.48h-1.36V543h-16.18v-1.34h17.54Zm0 4.02v.26l.08.22-.6.98c-.55-.173-1.13-.367-1.74-.58-.6-.2-1.21-.413-1.82-.64-.61-.213-1.19-.427-1.74-.64-.83.68-1.6 1.127-2.32 1.34-.72.213-1.39.32-2 .32-.52.013-.99-.04-1.4-.16-.4-.12-.7-.32-.9-.6-.09-.12-.17-.267-.22-.44-.05-.16-.1-.34-.14-.54-.01-.187-.03-.393-.04-.62 0-.213.01-.427.02-.64.19-.013.4-.053.64-.12.25-.053.48-.133.68-.24-.01.213-.03.407-.04.58 0 .173.01.327.02.46 0 .267.05.473.16.62.11.133.29.227.54.28.27.067.55.1.84.1.55-.013 1.15-.127 1.82-.34.67-.213 1.39-.653 2.18-1.32.45.16.93.32 1.44.48.51.173 1.01.333 1.52.48.51.16.98.3 1.42.42.45.133.85.247 1.2.34h.4Zm-2.36 16.94v6.08h-13.08v-6.08h1.36v4.7h10.38v-4.7h1.34Zm0-.88v1.38h-14.66v-1.38h14.66Zm-5.56.78v5.52h-1.32v-5.52h1.32Zm8.82 2.28-.28 1.62c-.63-.2-1.26-.42-1.9-.66a23.38 23.38 0 0 1-1.64-.64l.3-1.22c.33.12.71.233 1.12.34.41.12.83.227 1.26.32.43.107.81.187 1.14.24Zm-3.2 6.76v6.14h-1.38v-6.14h1.38Zm0 5.6v1.42h-.48c-.12 0-.21-.007-.28-.02-2.29-.08-4.23-.16-5.82-.24-1.59-.067-2.89-.153-3.9-.26-1-.107-1.78-.233-2.34-.38-.56-.133-.96-.3-1.2-.5-.29-.227-.49-.467-.6-.72-.12-.24-.2-.54-.24-.9-.03-.333-.03-.773-.02-1.32 0-.533.02-1.087.06-1.66.21-.013.46-.067.74-.16.28-.08.51-.193.7-.34-.05.667-.09 1.267-.1 1.8-.01.547-.02.94-.02 1.18 0 .2.02.36.06.48.05.133.15.26.28.38.17.16.53.3 1.06.42.55.133 1.32.247 2.32.34 1 .093 2.27.18 3.82.26 1.56.08 3.44.153 5.64.22h.32Zm3.24-5.2-.32 1.44c-1-.24-1.98-.533-2.94-.88a24.21 24.21 0 0 1-2.68-1.12c-.84-.4-1.58-.827-2.22-1.28.08-.093.17-.22.28-.38.12-.147.23-.3.32-.46.11-.16.19-.3.26-.42.6.467 1.29.893 2.06 1.28.79.387 1.63.733 2.52 1.04.89.307 1.8.567 2.72.78Zm-8.42-.92.66 1.18c-.47.373-.98.76-1.54 1.16-.56.413-1.1.793-1.62 1.14-.52.36-.98.647-1.38.86l-.8-1.28c.41-.2.89-.473 1.42-.82.55-.333 1.1-.7 1.66-1.1.57-.387 1.11-.767 1.6-1.14Zm-24.8-40.12v18.18h-1.2v-18.18h1.2Zm11.32 5.02v13.04h-1.1v-13.04h1.1Zm-9.94 7.32v1.44H1169c-.39 0-.69-.053-.9-.16-.21-.107-.37-.32-.48-.64-.11-.32-.17-.747-.18-1.28a37.24 37.24 0 0 1-.04-2.02c.2-.027.42-.093.66-.2.23-.093.44-.193.64-.3-.01.427-.02.827-.02 1.2-.01.373-.01.693 0 .96v.58c.01.173.05.287.1.34.04.053.12.08.24.08h5.02Zm-3.46-8.9.88 1.02c-.21.36-.45.727-.72 1.1-.27.387-.54.747-.82 1.08-.28.347-.54.62-.78.82l-.96-1.1c.25-.187.53-.447.82-.78.28-.32.56-.667.84-1.04.28-.373.53-.74.74-1.1Zm14-2.76.82 1.02c-.23.333-.49.673-.78 1.02-.28.36-.57.693-.88 1a5.32 5.32 0 0 1-.82.72l-.94-1.06c.27-.173.55-.407.86-.7.31-.293.61-.613.92-.96.31-.347.58-.693.82-1.04Zm.92 6.8.3 1.22c-.28.24-.6.473-.96.7-.36.227-.68.387-.96.48l-.36-1.3c.27-.093.59-.247.96-.46.37-.2.71-.413 1.02-.64Zm-6.12.54h-.88v6.92h.88v-6.92Zm-1.7 0h-.9v6.92h.9v-6.92Zm3.38 0h-.88v6.92h.88v-6.92Zm.82-1.4v9.78h-5.92v-9.78h5.92Zm-1.3-2.5h-4.3v-1.38h3.1v-2.64h1.2v4.02Zm3 6.54-.14 1.5c-.37-.133-.74-.267-1.1-.4-.35-.12-.65-.233-.9-.34l.18-1.2c.29.093.63.18 1 .26.37.08.69.14.96.18Zm2.26 3.68-.32 1.42c-.36-.24-.71-.487-1.04-.74-.33-.24-.63-.473-.88-.7l.3-1.18c.28.2.6.413.96.64.37.24.7.427.98.56Zm-9.06-10.22c-.57.4-1 .953-1.28 1.66-.28.72-.43 1.54-.46 2.46-.01.467-.03 1.027-.04 1.68v2.12c.01.76.03 1.52.04 2.28.01.773.03 1.5.06 2.18.03.693.05 1.3.08 1.82a12.49 12.49 0 0 0-.58-.24c-.24-.08-.45-.133-.64-.16-.03-.613-.05-1.347-.06-2.2-.01-.853-.03-1.747-.04-2.68v-2.64c.01-.84.03-1.553.04-2.14.04-1.053.2-1.96.48-2.72.28-.76.73-1.407 1.34-1.94-.33-.48-.67-.973-1-1.48-.33-.507-.67-1.027-1.02-1.56l1.26-.58c.24.467.52.973.84 1.52.32.547.65 1.08.98 1.6v1.02Zm7.8 19.52v5.66h-1.52v-5.66h1.52Zm0 4.9v1.52c-.59 0-1.28.027-2.08.08-.8.053-1.66.167-2.58.34-.91.173-1.85.44-2.84.8-.99.36-1.97.847-2.96 1.46a16.52 16.52 0 0 0-2.84 2.3c-.92.933-1.77 2.06-2.54 3.38-.09-.107-.21-.247-.36-.42-.16-.16-.32-.313-.48-.46-.17-.133-.32-.247-.44-.34.81-1.333 1.71-2.48 2.68-3.44.99-.947 2.01-1.74 3.08-2.38a19.33 19.33 0 0 1 3.2-1.52 24 24 0 0 1 3.12-.86c1.01-.187 1.95-.313 2.82-.38.87-.053 1.61-.08 2.22-.08Zm-3.92-.58-.3 1.7c-2.03-.48-3.85-1.107-5.48-1.88-1.63-.76-3.06-1.687-4.3-2.78-1.23-1.08-2.27-2.36-3.14-3.84.11-.08.23-.207.38-.38.15-.16.3-.333.46-.52.15-.173.27-.327.36-.46 1.17 2.227 2.76 3.993 4.76 5.3 2.01 1.307 4.43 2.26 7.26 2.86Z"/>
    <path fill="#EF4444" d="M1080.21 670.208c-31.24 31.242-31.24 81.895 0 113.137 31.24 31.242 81.89 31.242 113.14 0 31.24-31.242 31.24-81.895 0-113.137-31.25-31.242-81.9-31.242-113.14 0Z"/>
    <path fill="#fff" d="m1135.11 739.647 2.17-2.178-4.18-4.186 4.5-4.497 4.18 4.186 7.84-7.835 2.97 2.97 4.92 21.156-4.22 4.215-12.7-12.7-2.17 2.178-3.31-3.309Zm13.4.056c.32.321.7.698 1.14 1.132.43.471.85.933 1.27 1.386.43.471.81.886 1.13 1.244.34.377.57.632.71.764l.11-.113c-.21-.547-.41-1.084-.59-1.612-.19-.491-.38-1.038-.57-1.641l-2.74-8.457-3.88 3.875 3.42 3.422Zm-1.98-30.066-4.86 4.865-.99-.99 4.86-4.865.99.99Zm-4.18-3.847-4.57 4.568-.98-.976 4.57-4.568.98.976Zm-4.61-5.459c-.32.547-.69 1.179-1.1 1.895-.42.717-.85 1.48-1.31 2.291-.46.82-.92 1.636-1.37 2.447l-1.09-.806c.63-1.151 1.26-2.31 1.9-3.479l1.68-3.097 1.29.749Zm-.79 12.756-1.43-1.428-4.63 4.624 1.43 1.429 4.63-4.625Zm-2.28-2.277-1.44-1.442-4.63 4.624 1.45 1.443 4.62-4.625Zm4.55 4.554-1.41-1.414-4.63 4.624 1.42 1.415 4.62-4.625Zm1.88-.099-6.64 6.647-7.79-7.792 6.64-6.647 7.79 7.792Zm-11.05-3.648-1.02 1.018-3.61-3.606c-.17-.17-.3-.255-.4-.255-.1-.009-.24.071-.41.24-.05.057-.16.161-.31.312-.15.15-.3.306-.46.466-.16.16-.28.274-.34.34a.382.382 0 0 0-.13.353c.02.132.14.325.35.58.22.273.56.655 1.04 1.146-.13.028-.27.065-.43.113-.17.056-.33.122-.48.198-.15.075-.29.146-.41.212-.55-.604-.94-1.108-1.17-1.513-.24-.406-.33-.755-.29-1.047.04-.283.2-.566.48-.848.05-.048.14-.137.27-.269.14-.132.28-.274.43-.424l.42-.425c.12-.122.21-.212.27-.268.34-.34.64-.566.91-.679.25-.104.51-.09.77.042.27.132.57.368.91.707l3.61 3.607Zm2.2-2.631-1.05 1.047c-.53-.67-.99-1.33-1.35-1.98a6.243 6.243 0 0 1-.72-1.994c-.13-.689-.11-1.424.05-2.206.14-.783.46-1.641.96-2.574.13.047.28.094.46.141.17.038.35.071.55.099.18.028.33.033.46.014-.47.83-.78 1.579-.94 2.249-.16.688-.2 1.324-.1 1.909.09.585.29 1.141.59 1.669.29.537.66 1.079 1.09 1.626Zm11.92 2.22-1.03 1.033-8.33-8.33.85-1.216 8.51 8.513Zm-20.86 11.47-8.91 8.909-.92-.919 8.91-8.91.92.92Zm-3.5-.311-6.16 6.151-.87-.876 6.15-6.152.88.877Zm.89 2.248-1.18.693c-.41-1.15-.65-2.362-.72-3.634-.06-1.254.01-2.428.21-3.522.11.01.25.01.43 0 .17 0 .34-.005.52-.014.18-.009.33-.033.44-.071a12.704 12.704 0 0 0-.33 3.295c.03 1.16.24 2.244.63 3.253Zm-6.85 3.705-1 1.004s-.05-.061-.16-.183a4.07 4.07 0 0 1-.24-.269 60.051 60.051 0 0 1-2.13-2.616c-.53-.679-.91-1.226-1.13-1.641-.23-.415-.35-.759-.36-1.032a1.29 1.29 0 0 1 .1-.637c.09-.179.21-.358.37-.537.13-.17.32-.382.58-.636.24-.246.52-.5.82-.764.13.132.31.259.52.382.21.113.41.198.6.254-.3.236-.56.458-.78.665-.23.207-.39.363-.5.467-.09.094-.16.184-.21.268a.479.479 0 0 0-.06.312c-.01.197.1.48.32.848.2.377.56.882 1.06 1.513.5.651 1.17 1.462 2.03 2.433l.17.169Zm9.83-.579-1.12-1.118-4.55 4.554 1.12 1.117 4.55-4.553Zm1.88 1.88-1.12-1.117-4.55 4.554 1.12 1.117 4.55-4.554Zm1.76-.169-6.51 6.505-4.6-4.596 6.51-6.505 4.6 4.596Zm2.68-7.948-4.18 4.186-1.02-1.018 4.18-4.186 1.02 1.018Zm1.29 4.596-1 1.004-8.7-8.697 1-1.004 8.7 8.697Zm-7.33-11.172c-.2.509-.44 1.103-.7 1.782a98.97 98.97 0 0 0-.84 2.192c-.29.782-.59 1.56-.89 2.333l-1.16-.707c.37-1.084.74-2.178 1.1-3.281.38-1.094.72-2.084 1.02-2.97l1.47.651Zm-8.48 11.427-1.13.339c-.43-.764-.79-1.607-1.09-2.531-.3-.924-.52-1.839-.65-2.744-.13-.905-.15-1.735-.06-2.489.2.009.43-.005.69-.042.26-.029.49-.076.71-.142-.14.745-.16 1.561-.07 2.447.09.895.27 1.791.57 2.687.28.905.62 1.73 1.03 2.475Zm2.19-2.249-1.16.311a14.31 14.31 0 0 1-.61-2.503c-.14-.896-.2-1.796-.18-2.701.02-.905.11-1.74.27-2.503.2.028.42.037.68.028.24 0 .47-.024.69-.071-.21.717-.34 1.513-.38 2.39-.05.877-.01 1.754.11 2.631.11.886.31 1.692.58 2.418Zm11.85-29.953-11.23 11.229-1.03-1.032 11.23-11.229 1.03 1.032Zm-4.79-3.493-10 9.998-1.03-1.032 10-9.998 1.03 1.032Zm-3.21-5.841-12.62 12.615-1.03-1.032 12.61-12.615 1.04 1.032Zm2.13 13.534-1.14 1.146-8.37-8.372 1.14-1.146 8.37 8.372Zm4.23 1.825-.28 1.442c-.51.094-1.07.17-1.67.226-.61.066-1.2.109-1.77.128-.55.028-1.04.023-1.45-.015l.25-1.583c.39.047.86.061 1.43.042.56 0 1.15-.024 1.77-.071a15.91 15.91 0 0 0 1.72-.169Zm-18.16.848-12.85 12.855-.85-.848 12.85-12.855.85.848Zm4.46 11.554-9.22 9.221-.78-.778 9.22-9.221.78.778Zm-12.21-1.852-1.02 1.018-3.56-3.564c-.27-.273-.45-.523-.52-.749-.08-.227-.04-.491.11-.792.15-.302.41-.646.78-1.033.35-.386.81-.872 1.4-1.456.16.122.36.231.61.325.22.094.44.174.66.24-.31.292-.6.571-.86.835-.27.254-.5.48-.68.678-.2.198-.33.335-.41.411-.11.132-.17.235-.17.311-.01.066.03.141.11.226l3.55 3.55Zm3.85-8.74-.1 1.343c-.4.104-.83.194-1.29.269-.46.085-.91.146-1.34.184-.44.047-.82.056-1.13.028l.1-1.457c.31.048.69.057 1.13.029.42-.029.87-.076 1.33-.142.46-.066.89-.151 1.3-.254Zm11.85 7.948-.14 1.301c-.4.075-.82.132-1.27.169-.46.057-.9.085-1.33.085-.43.01-.79-.014-1.09-.07l.08-1.415c.31.066.68.104 1.11.114.42.009.86 0 1.33-.029.46-.028.9-.08 1.31-.155Zm-4.16 5.459-.65 1.074a7.8 7.8 0 0 1-1.17-.184 4.425 4.425 0 0 1-1.02-.339l.67-1.174c.25.123.58.241 1 .354.4.122.8.212 1.17.269Zm-4.71-3.946-.62-.622-4.89 4.893.62.622 4.89-4.893Zm-1.2-1.202-.63-.637-4.9 4.894.64.636 4.89-4.893Zm2.39 2.39-.62-.622-4.89 4.893.62.622 4.89-4.893Zm1.57-.41-6.91 6.915-4.19-4.186 6.92-6.915 4.18 4.186Zm.85-2.687-3.04-3.041.98-.976 2.19 2.192 1.86-1.866.85.848-2.84 2.843Zm-2.5 6.745-1.16.962c-.17-.358-.34-.712-.5-1.061-.16-.329-.29-.622-.39-.876l.97-.722c.14.274.32.571.53.891.2.321.39.59.55.806Zm-1.01 4.201-1.23.778c-.08-.425-.15-.844-.21-1.259a10.04 10.04 0 0 1-.13-1.117l1.05-.623c.06.34.13.717.23 1.132.09.433.19.796.29 1.089Zm.82-13.633c-.69-.123-1.38-.033-2.08.268-.7.312-1.39.783-2.06 1.415-.34.32-.75.707-1.22 1.159-.46.462-.96.962-1.5 1.499-.52.547-1.05 1.094-1.58 1.641-.54.556-1.04 1.084-1.5 1.584-.47.509-.88.957-1.23 1.343-.06-.151-.14-.344-.24-.58a3.735 3.735 0 0 0-.34-.565c.42-.453.92-.986 1.51-1.598.6-.613 1.22-1.254 1.87-1.924.65-.65 1.27-1.272 1.87-1.866.6-.585 1.11-1.08 1.54-1.485.77-.717 1.53-1.245 2.26-1.584.74-.34 1.51-.481 2.32-.425.1-.575.22-1.159.34-1.753.12-.594.25-1.202.38-1.825l1.3.481c-.16.5-.32 1.056-.48 1.669-.16.613-.3 1.221-.44 1.824l-.72.722Z"/>
    <path fill="#F59E0B" d="M960 720c-44.183 0-80 35.817-80 80s35.817 80 80 80c44.18 0 80-35.817 80-80s-35.82-80-80-80Z"/>
    <path fill="#fff" d="M959.119 820.24c-1.573 0-2.973-.333-4.2-1-1.253-.667-2.24-1.64-2.96-2.92-.747-1.28-1.12-2.867-1.12-4.76 0-2.053.4-3.827 1.2-5.32.8-1.493 2-2.64 3.6-3.44 1.6-.8 3.6-1.2 6-1.2 1.467 0 2.84.133 4.12.4 1.253.267 2.36.653 3.32 1.16v5.2c-.933-.507-2.053-.947-3.36-1.32-1.333-.347-2.56-.52-3.68-.52-1.013 0-1.867.16-2.56.48a3.238 3.238 0 0 0-1.56 1.48c-.373.667-.56 1.52-.56 2.56 0 1.413.4 2.48 1.2 3.2.8.747 2.027 1.12 3.68 1.12.693 0 1.387-.08 2.08-.24a27.943 27.943 0 0 0 1.8-.4l2.48 1.28-1.04 14.56h-14.92v-5.12h9.36l.44-5.6-1.28.24c-.453.107-1.133.16-2.04.16Zm16.661-30.56H964.1v-1.44h11.68v1.44Zm-5.76-4.78h-6.74v-1.4h6.74v1.4Zm.78 4.06h-1.56v-10.14l1.56.22v9.92Zm4.76-2.42-1.56-.18c.28-2.013.747-3.78 1.4-5.3.653-1.52 1.54-2.773 2.66-3.76.08.093.2.207.36.34.147.12.3.247.46.38.16.12.3.22.42.3-1.107.867-1.953 2-2.54 3.4-.6 1.4-1 3.007-1.2 4.82Zm-.96-2.58c-.347-1.027-.8-1.853-1.36-2.48a5.8 5.8 0 0 0-1.94-1.44 8.644 8.644 0 0 0-2.42-.68c-.893-.12-1.853-.18-2.88-.18h-4.34c-.36 0-.633.007-.82.02a5 5 0 0 0 .22-.46c.08-.187.153-.373.22-.56.053-.187.093-.353.12-.5h4.68c1.187 0 2.287.08 3.3.24 1 .147 1.907.427 2.72.84.8.413 1.513 1 2.14 1.76.627.76 1.153 1.747 1.58 2.96l-1.22.48Zm-3.78 11.84h-1.58v-3.24h1.58v3.24Zm7.54-2.3h-16.72v-4.36h1.54v2.92h13.7v-2.92h1.48v4.36ZM955 792.3v-1.1h-9.94v1.1H955Zm0 1.96v-1.08h-9.94v1.08H955Zm1.46.9h-12.9v-4.86h12.9v4.86Zm-1.06-10.7v-1.16h-10.94v1.16h10.94Zm0 2v-1.12h-10.94v1.12h10.94Zm1.42.94h-13.84v-5.02h13.84v5.02Zm-6.06-.34h-1.46v-8.6h1.46v8.6Zm8.2 2.38h-17.94v-1.14h17.94v1.14Zm-1.58-8.16h-14.84v-1.06h14.84v1.06Zm1.68-2.22H940.9v-1.16h18.16v1.16Zm3.94-6.74-1.44-.34c.16-.56.333-1.153.52-1.78.187-.613.373-1.207.56-1.78.173-.56.353-1.06.54-1.5l1.16.34c-.16.453-.327.973-.5 1.56-.173.6-.333 1.207-.48 1.82a32.09 32.09 0 0 0-.36 1.68Zm7.74-.46-1.22.32a24.886 24.886 0 0 1-.92-3.44c-.107-.56-.18-1.067-.22-1.52l1.3-.32c.04.453.113.967.22 1.54.093.573.213 1.153.36 1.74.133.6.293 1.16.48 1.68Zm.46 2.82h-10.04v-1.4h10.04v1.4Zm.78-8.64h-11.22v-1.42h11.22v1.42Zm-4.94 8.16h-1.48v-16.78h1.48v16.78Zm11.24-4.46h-5.96v-1.18h5.96v1.18Zm-.08 5.36h-5.84v-1.2h5.84v1.2Zm.08-8.02h-5.96v-1.2h5.96v1.2Zm.96 5.4h-7.62v-1.26h7.62v1.26Zm-1.66-8.1h-5.24v-5.84h5.24v1.24h-3.92v3.34h3.92v1.26Zm.74 0H977v-6.76h1.32v6.76Zm-24.58 9.4h-12.76v-1.38h12.76v1.38Zm-.28-4.66h-12.3v-11.28h1.44v9.96h9.48v-10.06h1.38v11.38Zm-3.5 4.44h-1.4v-5.4h1.4v5.4Zm-3.72.02h-1.42v-5.4h1.42v5.4Zm6.58-13.22h-11.26v-1.32h11.26v1.32Zm-2.96 7.84h-1.3v-8.84h1.3v8.84Zm-3.62 0h-1.3v-8.82h1.3v8.82Zm8.68 7.54-1.36-.42c.413-1.107.9-2.2 1.46-3.28a30.82 30.82 0 0 1 1.78-3.04 19.78 19.78 0 0 1 2-2.52c.04.107.113.253.22.44.093.187.193.373.3.56.107.187.207.333.3.44-.627.64-1.227 1.38-1.8 2.22a24.095 24.095 0 0 0-2.9 5.6Zm1.98-5.18-1.38 1.4-.02-.02v-14.52h1.4v13.14Z"/>
    <path fill="#14B8A6" d="M839.792 670.208c-31.242-31.242-81.895-31.242-113.137 0-31.242 31.242-31.242 81.895 0 113.137 31.242 31.242 81.895 31.242 113.137 0 31.242-31.242 31.242-81.895 0-113.137Z"/>
    <path fill="#fff" d="M780.026 743.548a36.97 36.97 0 0 1-3.676 3.225 20.521 20.521 0 0 1-4.045 2.347 12.413 12.413 0 0 1-4.384.99c-1.528.057-3.074-.264-4.639-.961-1.603-.698-3.215-1.858-4.836-3.479a25.252 25.252 0 0 1-1.273-1.386c-.509-.547-.896-1.028-1.16-1.443l3.423-3.422c.264.452.584.905.961 1.357.358.472.802.972 1.33 1.5 1.037 1.037 2.064 1.763 3.083 2.177 1.018.415 2.027.557 3.026.425.98-.151 1.961-.509 2.942-1.075.942-.566 1.904-1.301 2.885-2.206l-.142-.142a7.202 7.202 0 0 1-2.065.311c-.716 0-1.433-.15-2.149-.452-.717-.302-1.414-.792-2.093-1.471-1.113-1.112-1.81-2.319-2.093-3.62-.321-1.301-.217-2.65.311-4.045.509-1.376 1.442-2.744 2.8-4.101 1.452-1.452 2.979-2.433 4.582-2.942 1.584-.528 3.149-.584 4.695-.169 1.528.433 2.97 1.329 4.328 2.687a10.16 10.16 0 0 1 2.234 3.309 8.791 8.791 0 0 1 .622 3.846c-.094 1.377-.518 2.801-1.272 4.271-.755 1.471-1.886 2.961-3.395 4.469Zm-1.527-12.388c-.66-.66-1.48-.915-2.461-.764-.999.17-2.102.858-3.309 2.065-.98.98-1.574 1.933-1.782 2.857-.207.924.057 1.753.792 2.489.509.509 1.094.81 1.754.905a3.884 3.884 0 0 0 1.895-.198 4.662 4.662 0 0 0 1.612-1.047c.471-.471.896-.99 1.273-1.555a7.207 7.207 0 0 0 .82-1.669c.17-.585.217-1.141.142-1.669-.076-.528-.321-.999-.736-1.414Zm23.59 7.439-.99-.99 12.445-12.445.99.99-12.445 12.445Zm-4.158-3.62-.947-.948 10.804-10.804.948.947-10.805 10.805Zm-1.555-3.366-.637-1.258c.481-.198.99-.406 1.527-.623.528-.207 1.042-.4 1.542-.58.49-.188.938-.344 1.343-.466l.467 1.032c-.424.142-.886.321-1.386.538-.509.207-1.013.428-1.513.664a24.07 24.07 0 0 0-1.343.693Zm5.26 4.441-1.074-.509c.198-.67.462-1.358.792-2.065.33-.707.645-1.287.947-1.74l1.174.552c-.321.453-.651 1.028-.99 1.725a16.185 16.185 0 0 0-.849 2.037Zm3.295-3.041-6.095-6.095.976-.976 6.095 6.095-.976.976Zm7.369-5.784-7.171-7.17.976-.976 7.17 7.17-.975.976Zm-9.165 2.942-.424-1.019a19.533 19.533 0 0 1 2.517-1.046c.906-.321 1.806-.57 2.702-.75.886-.188 1.687-.273 2.404-.254a4.379 4.379 0 0 0-.269.721 4.942 4.942 0 0 0-.212.75c-.632-.029-1.344.023-2.136.155-.791.132-1.588.325-2.39.58-.81.245-1.541.533-2.192.863Zm-.24-1.853a11.965 11.965 0 0 1-.042-.834c-.01-.368-.005-.778.014-1.231l.028-1.386c0-.452.005-.862.014-1.23 0-.358.01-.622.028-.792l1.471-.198a13.32 13.32 0 0 0-.184 1.23c-.056.51-.108 1.052-.155 1.627a38.41 38.41 0 0 0-.127 1.654c-.038.509-.057.915-.057 1.217l-.99-.057Zm1.74 13.93-.566-1.273a55.936 55.936 0 0 1 3.323-1.032c.538-.16 1.028-.283 1.471-.368l.41 1.033c-.443.103-.943.245-1.499.424a29.503 29.503 0 0 0-3.139 1.216Zm.113-3.111-.481-1.273a84.326 84.326 0 0 1 2.715-.651 53.989 53.989 0 0 1 2.829-.565 28.98 28.98 0 0 1 2.517-.34l.283.99c-.566.057-1.184.146-1.853.269-.679.132-1.372.278-2.079.438-.716.17-1.409.354-2.079.552-.679.189-1.296.382-1.852.58Zm5.063 2.432-1.217.113c-.028-.48-.033-.985-.014-1.513.01-.537.038-1.046.085-1.527.047-.481.123-.886.226-1.216l1.358-.198a8.338 8.338 0 0 0-.255 1.272 15.56 15.56 0 0 0-.155 1.542c-.028.537-.038 1.046-.028 1.527Zm-1.33-5.119-1.046-.453c.132-.49.301-.999.509-1.527.198-.519.405-1.009.622-1.471.207-.471.424-.867.651-1.188l1.145.467a8.547 8.547 0 0 0-.665 1.174c-.235.462-.457.957-.664 1.485a13.56 13.56 0 0 0-.552 1.513Zm4.78 1.923a108.853 108.853 0 0 0-2.178-1.98c-.848-.754-1.72-1.532-2.616-2.333l.905-.905c.83.735 1.664 1.466 2.503 2.192l2.206 1.951-.82 1.075Zm-1.598-5.614-.99-.538c.236-.575.528-1.169.877-1.782.349-.612.679-1.112.99-1.499l1.061.552c-.33.386-.674.881-1.033 1.485a13.372 13.372 0 0 0-.905 1.782Zm2.574 2.913-.721-1.004a26.965 26.965 0 0 1 2.347-1.584c.802-.481 1.542-.834 2.221-1.061.009.085.042.203.099.354.047.141.099.287.155.438.057.151.109.278.156.382-.67.198-1.372.523-2.107.976-.745.462-1.462.962-2.15 1.499Zm-2.828 0-.92-.919 6.336-6.336.919.919-6.335 6.336Zm-27.238-13.859-1.047-1.047 3.974-3.974 1.047 1.047-3.974 3.974Zm4.596 1.909-7.594-7.594.891-.891 7.594 7.594-.891.891Zm1.669-2.687-6.605-6.605.906-.905 6.604 6.605-.905.905Zm2.305-1.429-7.552-7.551 2.546-2.546.933.933-1.683 1.683 5.714 5.714 1.682-1.683.906.905-2.546 2.545Zm-2.517-6.307-.962-.962 4.328-4.327c.179-.179.273-.311.282-.396 0-.094-.07-.212-.212-.354l-.24-.24-.382-.382-.269-.269a.322.322 0 0 0-.339-.084c-.132.018-.33.141-.594.367-.274.236-.665.599-1.174 1.089a3.157 3.157 0 0 0-.184-.636 5.707 5.707 0 0 0-.297-.637c.613-.575 1.122-.98 1.528-1.216.405-.254.749-.363 1.032-.325.283.019.556.16.82.424l.226.226.354.354.339.339.227.227c.311.311.509.594.594.848a.91.91 0 0 1-.043.75c-.132.245-.367.537-.707.877l-4.327 4.327Zm2.616 2.588-.962-.962.891-.891c.349-.348.769-.702 1.259-1.06a6.32 6.32 0 0 1 1.683-.891c.632-.236 1.357-.358 2.178-.368.811-.019 1.725.142 2.743.481a5.72 5.72 0 0 0-.014.721c0 .283.019.538.057.764-.934-.33-1.768-.504-2.503-.523-.745-.01-1.396.085-1.952.283a5.357 5.357 0 0 0-1.457.721 7.263 7.263 0 0 0-1.046.848l-.877.877Zm-2.348 12.219-.579-1.287c.518-.179 1.07-.354 1.654-.523a43.85 43.85 0 0 1 1.711-.495 19.324 19.324 0 0 1 1.485-.354l.41 1.061c-.452.094-.957.231-1.513.41-.565.17-1.126.363-1.683.58-.565.207-1.06.41-1.485.608Zm.029-3.196-.467-1.315a82.122 82.122 0 0 1 2.744-.594 67.41 67.41 0 0 1 2.899-.495c.942-.151 1.796-.25 2.559-.297l.283 1.018c-.575.047-1.207.122-1.895.226-.697.113-1.405.245-2.121.396-.726.16-1.433.33-2.121.509a28.73 28.73 0 0 0-1.881.552Zm5.176 2.489-1.231.127a16.089 16.089 0 0 1-.014-1.513c.01-.538.038-1.047.085-1.527.047-.481.118-.891.212-1.231l1.386-.198a8.364 8.364 0 0 0-.254 1.273c-.076.49-.128 1.004-.156 1.541-.028.538-.038 1.047-.028 1.528Zm-1.386-5.176-1.089-.467c.104-.5.245-1.018.424-1.556a23.71 23.71 0 0 1 .566-1.527 7.75 7.75 0 0 1 .551-1.202l1.245.453a7.24 7.24 0 0 0-.622 1.216c-.217.481-.42.985-.609 1.513a12.168 12.168 0 0 0-.466 1.57Zm4.808 2.008-2.277-2.079c-.895-.801-1.81-1.622-2.743-2.461l.891-.891 2.644 2.306 2.305 2.05-.82 1.075Zm-1.768-5.812-1.004-.552c.226-.585.509-1.188.849-1.81.33-.613.646-1.117.947-1.513l1.103.565c-.33.387-.664.891-1.004 1.513a15.163 15.163 0 0 0-.891 1.797Zm2.744 3.111-.75-1.033a24.697 24.697 0 0 1 2.376-1.583c.802-.481 1.537-.84 2.206-1.075.019.094.057.217.114.367a6.904 6.904 0 0 0 .311.849c-.67.198-1.372.523-2.108.976-.744.462-1.461.961-2.149 1.499Zm-2.913-.085-.934-.933 6.336-6.336.933.933-6.335 6.336Zm-17.636-8.839-4.299-4.299 9.249-9.249 4.299 4.299-.961.962-3.324-3.324-7.34 7.34 3.324 3.324-.948.947Zm.623.622-.976-.975 10.366-10.367.976.976-10.366 10.366Zm3.38-4.483-3.904-3.903.934-.933 3.903 3.903-.933.933Zm-7.849 4.625-.948-1.344a41.707 41.707 0 0 1 1.81-.877 24.497 24.497 0 0 1 1.613-.707l.65 1.075c-.32.151-.665.335-1.032.552-.377.207-.75.429-1.117.664-.378.227-.703.439-.976.637Zm-2.518-7.043-4.341-4.342.976-.975 4.341 4.341-.976.976Zm-3.959-3.96-1.004-1.004.099-.099.24-.24c.085-.085.155-.146.212-.184a395.504 395.504 0 0 1 4.285-3.946 64.218 64.218 0 0 1 2.942-2.574c.782-.631 1.423-1.093 1.923-1.386.49-.301.891-.466 1.202-.495.368-.047.679-.018.933.085.255.085.524.241.807.467.254.217.57.523.947.919.377.377.754.783 1.131 1.216a3.014 3.014 0 0 0-.41.637c-.141.254-.226.5-.254.735a33.625 33.625 0 0 0-1.202-1.343 53.897 53.897 0 0 0-.821-.849 1.575 1.575 0 0 0-.381-.297 1.04 1.04 0 0 0-.467-.07c-.236.009-.585.16-1.047.452-.48.292-1.107.759-1.88 1.4a94.34 94.34 0 0 0-2.885 2.517 274.94 274.94 0 0 0-4.144 3.833l-.226.226Zm1.386 5.968-.792-1.244a27.483 27.483 0 0 1 2.701-1.457 24.41 24.41 0 0 1 2.687-1.103 14.98 14.98 0 0 1 2.475-.665c.009.123.033.278.07.467.019.189.052.372.099.552.038.188.076.348.113.48a12.32 12.32 0 0 0-2.361.552c-.83.283-1.669.632-2.518 1.046-.848.415-1.673.873-2.474 1.372Zm6.604-5.303-1.301-.368c.066-.594.155-1.23.269-1.909a40.19 40.19 0 0 1 .339-1.952c.113-.622.236-1.15.368-1.584l1.47.34c-.15.434-.292.962-.424 1.584a27.307 27.307 0 0 0-.396 1.951 36.3 36.3 0 0 0-.325 1.938Zm40.729 14.198-3.592-3.592.976-.975 3.592 3.592-.976.975Zm-3.196 4.356-4.822-4.822 5.289-5.289 1.032 1.032-4.299 4.299 3.79 3.79-.99.99Zm3.762-3.79-1.018-1.018 4.525-4.526c.217-.216.316-.4.297-.551-.028-.142-.188-.358-.481-.651l-.367-.367-.594-.594-.622-.623-.425-.424c-.169-.17-.334-.259-.495-.269-.16-.009-.377.085-.65.283-.283.208-.67.538-1.16.99a2.586 2.586 0 0 0-.113-.452 5.805 5.805 0 0 0-.198-.509l-.226-.425c.622-.547 1.15-.933 1.584-1.159.433-.227.815-.297 1.145-.212.321.075.665.296 1.033.664l.424.424.693.693.679.679.396.396c.424.424.716.792.876 1.103.142.311.151.623.029.934-.132.32-.396.679-.792 1.074l-4.54 4.54Zm-9.235-4.37-5.812-5.812 1.018-1.018 5.812 5.812-1.018 1.018Zm-2.955 2.221-.906-1.302a34.891 34.891 0 0 1 3.14-1.781 24.193 24.193 0 0 1 3.097-1.287 13.86 13.86 0 0 1 2.899-.637c.01.123.029.283.057.481s.066.396.113.594c.038.207.071.382.099.523-.877.047-1.787.222-2.729.524-.953.311-1.914.716-2.885 1.216a27.524 27.524 0 0 0-2.885 1.669Zm-.312-6.308-.947-1.202c1.508-1.112 2.96-2.018 4.356-2.715 1.376-.698 2.739-1.183 4.087-1.457a12.132 12.132 0 0 1 4.044-.141c1.358.169 2.777.561 4.257 1.173a2.458 2.458 0 0 0-.141.481 8.896 8.896 0 0 0-.099.608 2.959 2.959 0 0 0-.057.51c-1.838-.858-3.582-1.311-5.232-1.358-1.66-.057-3.319.264-4.978.962-1.679.697-3.442 1.744-5.29 3.139Zm3.776 2.758c1.075-1.603 1.947-3.201 2.617-4.794.66-1.603 1.041-3.192 1.145-4.766a10.392 10.392 0 0 0-.764-4.582c.151 0 .326-.005.524-.014.198-.01.396-.029.594-.057.207-.038.386-.075.537-.113.585 1.603.806 3.229.665 4.879-.142 1.65-.575 3.328-1.301 5.034-.736 1.716-1.697 3.451-2.885 5.205l-1.132-.792Zm-.99-17.31-7.778-7.778.863-.863 7.778 7.778-.863.863Zm-2.008 3.026-8.824-8.824 3.818-3.819 1.075 1.075-2.97 2.97 6.703 6.703 3.013-3.012 1.046 1.046-3.861 3.861Zm-6.42 8.74-11.088-11.087.82-.821 11.088 11.088-.82.82Zm3.917-3.182-11.893-11.893.82-.821 11.893 11.894-.82.82Zm-3.012.552-9.348-9.348.806-.806 9.348 9.348-.806.806Zm5.77-2.461-12.686-12.686.863-.862 12.685 12.685-.862.863Zm-11.257-.226-1.089-1.089 5.883-5.883 1.089 1.089-5.883 5.883Zm1.343 4.624-1.216-.65c.019-.434.085-.877.198-1.33.094-.452.207-.829.339-1.131l1.344.636a5.741 5.741 0 0 0-.382 1.146 9.973 9.973 0 0 0-.283 1.329Zm6.491-5.218-1.216-.707a7.36 7.36 0 0 1 .198-1.217 5.62 5.62 0 0 1 .325-1.032l1.344.693c-.151.264-.283.613-.396 1.046a7.86 7.86 0 0 0-.255 1.217Zm-12.869-.509-.834-1.344c.462-.122.928-.231 1.4-.325.452-.094.858-.17 1.216-.226l.693 1.173c-.368.066-.787.165-1.259.297-.481.142-.886.283-1.216.425Zm5.261-6.591-.82-1.301c.433-.094.862-.184 1.287-.268a9.224 9.224 0 0 1 1.103-.17l.735 1.16c-.349.066-.74.155-1.174.268-.443.104-.82.208-1.131.311Z"/>
    <path fill="#0EA5E9" d="M790 550c0-44.183-35.817-80-80-80s-80 35.817-80 80 35.817 80 80 80 80-35.817 80-80Z"/>
    <path fill="#fff" d="m708 556.839-23.48-9.64v12.44h-5.08v-19.32h3.8l24.76 9.8v6.72Zm6.82 4.201v-1.68c.52.027 1.207.073 2.06.14.853.067 1.82.193 2.9.38 1.067.173 2.18.447 3.34.82 1.16.373 2.307.873 3.44 1.5a15.458 15.458 0 0 1 3.22 2.4c1.013.96 1.893 2.133 2.64 3.52a3.28 3.28 0 0 0-.6.52c-.213.227-.4.46-.56.7-.707-1.373-1.533-2.527-2.48-3.46-.947-.933-1.96-1.7-3.04-2.3a16.793 16.793 0 0 0-3.26-1.4 24.375 24.375 0 0 0-3.16-.74c-1-.16-1.887-.26-2.66-.3-.787-.053-1.4-.087-1.84-.1Zm.4-1.6c.227-.013.62-.04 1.18-.08a29.34 29.34 0 0 0 2-.28c.787-.133 1.64-.327 2.56-.58.92-.253 1.867-.593 2.84-1.02.973-.427 1.92-.953 2.84-1.58.92-.627 1.773-1.38 2.56-2.26.773-.88 1.427-1.913 1.96-3.1.173.227.373.447.6.66.24.2.46.367.66.5a13.281 13.281 0 0 1-2.1 3.18 15.415 15.415 0 0 1-2.72 2.34c-.987.64-1.993 1.18-3.02 1.62a25.185 25.185 0 0 1-5.74 1.64 33.913 33.913 0 0 1-3.5.38l-.12-1.42Zm3.28-18.98v-9.64h1.44v9.64h-1.44Zm-4.28-6v-1.56h16.32c.533 0 .927.073 1.18.22.253.133.44.373.56.72.133.32.213.78.24 1.38.04.6.06 1.327.06 2.18a5.57 5.57 0 0 0-.78.22 7.274 7.274 0 0 0-.76.32c.013-.653.02-1.267.02-1.84 0-.573-.007-.953-.02-1.14 0-.187-.033-.313-.1-.38-.067-.08-.193-.12-.38-.12h-16.34Zm4.94.16.74-1.2c.88.373 1.773.827 2.68 1.36.893.52 1.767 1.1 2.62 1.74.84.627 1.62 1.287 2.34 1.98a17.66 17.66 0 0 1 1.88 2.06c-.2.12-.42.28-.66.48-.24.2-.433.393-.58.58-.453-.68-1.02-1.36-1.7-2.04a21.276 21.276 0 0 0-2.24-1.94 25.05 25.05 0 0 0-2.5-1.7c-.867-.52-1.727-.96-2.58-1.32Zm-.68 14.18v-7.6h1.46v7.6h-1.46Zm-4.28-3.34v-1.5h18.38v1.5H714.2Zm5.18.06.36-1.04c.827.2 1.673.453 2.54.76.853.293 1.693.627 2.52 1 .827.36 1.6.747 2.32 1.16.707.4 1.313.813 1.82 1.24a4.583 4.583 0 0 0-.74.4 8.5 8.5 0 0 0-.7.44c-.453-.4-.987-.8-1.6-1.2-.627-.4-1.307-.773-2.04-1.12-.733-.347-1.48-.66-2.24-.94-.76-.28-1.507-.513-2.24-.7Zm.96-1.44c.12-.12.313-.3.58-.54a29.142 29.142 0 0 1 1.84-1.6c.32-.28.613-.533.88-.76.253-.227.447-.393.58-.5l1.28.96c-.267.16-.6.387-1 .68-.413.28-.84.587-1.28.92-.44.32-.847.633-1.22.94-.387.293-.687.527-.9.7l-.76-.8Zm22.34 21.84v-10.98h1.26v9.48h8.66v1.5h-9.92Zm0-10.46v-1.52H751c.4 0 .707.067.92.2.213.12.367.333.46.64.107.32.167.747.18 1.28.027.533.04 1.2.04 2a4.088 4.088 0 0 0-1.24.5c.013-.4.02-.78.02-1.14 0-.36-.007-.68-.02-.96v-.58c0-.16-.033-.267-.1-.32-.053-.067-.147-.1-.28-.1h-8.3Zm2.8 9.58v-10.2h1.12v10.2h-1.12Zm-9.32 3.74v-17.6h1.34v17.6h-1.34Zm.8-5.56.48-1.62c.613.427 1.24.9 1.88 1.42.64.52 1.187.993 1.64 1.42l-.46 1.2c-.32-.267-.687-.547-1.1-.84a18.96 18.96 0 0 0-1.26-.86c-.427-.28-.82-.52-1.18-.72Zm1.28-5.56-.78-1.2c.387-.587.82-1.2 1.3-1.84.467-.653.94-1.267 1.42-1.84.48-.573.913-1.04 1.3-1.4l.9 1.26c-.4.333-.84.78-1.32 1.34-.493.56-.987 1.16-1.48 1.8-.493.64-.94 1.267-1.34 1.88Zm1.8 10.34c0-.893-.007-1.9-.02-3.02-.027-1.133-.047-2.34-.06-3.62-.027-1.28-.053-2.593-.08-3.94l-.08-4.04 1.24.08.16 5.26a1028.013 1028.013 0 0 1 .24 9.22l-1.4.06Zm8.1-2.96V554.9h1.12v10.14h-1.12Zm-13.96-4.24v-1.54h2.62v1.54h-2.62Zm7.52-14.22v-4.96h1.4v4.96h-1.4Zm0-4.38v-1.46h.12c.067 0 .153.007.26.02h.26c1.493.027 2.707.067 3.64.12.92.04 1.62.1 2.1.18.48.067.813.173 1 .32.187.16.32.333.4.52.08.173.14.4.18.68.027.267.04.613.04 1.04-.013.427-.033.887-.06 1.38-.213.013-.447.06-.7.14-.267.067-.5.16-.7.28.053-.453.087-.88.1-1.28v-.84c0-.147-.013-.267-.04-.36a.54.54 0 0 0-.18-.28c-.12-.093-.387-.167-.8-.22-.427-.067-1.067-.113-1.92-.14-.867-.04-2.02-.073-3.46-.1h-.24Zm-6.5-5.62-.92-.9c.2-.427.44-.867.72-1.32.267-.467.54-.9.82-1.3.267-.4.513-.733.74-1l1.04.94c-.24.253-.5.58-.78.98-.293.4-.58.827-.86 1.28-.28.453-.533.893-.76 1.32Zm5.42-2.88.38-1.5c2.613.853 4.88 2.02 6.8 3.5a18.666 18.666 0 0 1 4.7 5.28c-.107.08-.24.187-.4.32l-.46.42a10.53 10.53 0 0 0-.38.36 15.701 15.701 0 0 0-4.3-5.14c-1.813-1.4-3.927-2.48-6.34-3.24Zm-3.02 12.76v-15.48h1.46v15.48h-1.46Zm0 .98v-1.56h5.64c.707 0 1.473.027 2.3.08.827.053 1.667.153 2.52.3s1.687.36 2.5.64c.8.28 1.527.653 2.18 1.12-.107.08-.227.2-.36.36-.133.147-.26.307-.38.48-.12.16-.207.3-.26.42a8.636 8.636 0 0 0-2.72-1.22 15.3 15.3 0 0 0-2.98-.5 35.98 35.98 0 0 0-2.82-.12h-5.62Zm-3.38-8.32v-1.56a55.745 55.745 0 0 0 5.28-.2 46.41 46.41 0 0 0 4.6-.62c1.387-.267 2.593-.587 3.62-.96 1.013-.387 1.8-.807 2.36-1.26.56-.467.84-.953.84-1.46 0-.293-.28-.507-.84-.64-.573-.147-1.527-.247-2.86-.3.16-.173.32-.38.48-.62.16-.253.273-.48.34-.68 1.147.093 2.04.227 2.68.4.64.16 1.087.4 1.34.72.267.307.4.72.4 1.24 0 .667-.227 1.28-.68 1.84-.453.56-1.093 1.06-1.92 1.5-.827.427-1.8.8-2.92 1.12-1.133.32-2.38.593-3.74.82a51.29 51.29 0 0 1-4.3.48 75.38 75.38 0 0 1-4.68.18Z"/>
    <path fill="#6366F1" d="M839.792 429.792c31.242-31.242 31.242-81.895 0-113.137-31.242-31.242-81.895-31.242-113.137 0-31.242 31.242-31.242 81.895 0 113.137 31.242 31.242 81.895 31.242 113.137 0Z"/>
    <path fill="#fff" d="M761.389 351.33c1.169-1.169 2.394-2.036 3.676-2.602 1.302-.584 2.584-.792 3.847-.622 1.264.17 2.442.801 3.536 1.895.811.811 1.376 1.678 1.697 2.602.32.887.452 1.81.396 2.772a11.369 11.369 0 0 1-.509 2.885 17.313 17.313 0 0 1 3.167-.509 8.461 8.461 0 0 1 3.225.283c1.056.264 2.036.848 2.941 1.753 1.113 1.113 1.82 2.348 2.122 3.706.301 1.357.169 2.772-.396 4.242-.547 1.452-1.546 2.904-2.998 4.356-1.509 1.509-2.989 2.555-4.441 3.14-1.433.565-2.81.697-4.13.396-1.301-.321-2.507-1.037-3.62-2.15-.924-.924-1.574-1.876-1.952-2.857a7.713 7.713 0 0 1-.452-3.054c.038-1.056.217-2.084.537-3.083-.924.169-1.857.254-2.8.254a8.297 8.297 0 0 1-2.715-.565c-.886-.359-1.735-.943-2.546-1.754-1.074-1.075-1.697-2.244-1.866-3.507-.151-1.283.066-2.574.65-3.875.603-1.32 1.48-2.555 2.631-3.706Zm12.473 17.678c.735.736 1.556 1.122 2.461 1.16.905.038 1.763-.349 2.574-1.16.603-.603.989-1.197 1.159-1.782a2.78 2.78 0 0 0 0-1.753c-.188-.566-.528-1.094-1.018-1.584-.509-.509-1.084-.839-1.725-.99a6.185 6.185 0 0 0-1.952-.142c-.679.038-1.311.123-1.895.255l-.566.113a9.905 9.905 0 0 0-.367 2.178 6.465 6.465 0 0 0 .254 2.008c.189.603.547 1.169 1.075 1.697Zm-9.39-14.538a2.69 2.69 0 0 0-.821 1.895c-.019.735.302 1.433.962 2.093.452.453.943.773 1.471.962a5.172 5.172 0 0 0 1.612.198 18.11 18.11 0 0 0 1.669-.255c.113-.528.188-1.056.226-1.584a4.238 4.238 0 0 0-.141-1.612c-.17-.547-.5-1.065-.99-1.556-.66-.66-1.358-.98-2.093-.961-.717 0-1.349.273-1.895.82Zm19.388 32.796 4.582-4.582.975.976-4.582 4.582-.975-.976Zm3.578 3.578 4.582-4.582.975.976-4.582 4.582-.975-.976Zm-7.708-6.604 5.699-5.699 11.441 11.441-1.06 1.06-10.465-10.465-3.621 3.62 10.465 10.466-1.018 1.018-11.441-11.441Zm9.348 12.346 8.287-8.287.962.961-8.287 8.288-.962-.962Zm-14.269-9.009 1.315-.579c.17.509.339 1.055.509 1.64.17.585.33 1.15.481 1.697.141.537.25 1.032.325 1.485l-1.061.41a16.243 16.243 0 0 0-.396-1.499 58.552 58.552 0 0 0-.565-1.669c-.208-.565-.41-1.06-.608-1.485Zm3.323-.099 1.329-.537c.208.867.406 1.801.594 2.8.189.981.359 1.952.509 2.913.151.962.25 1.825.297 2.588l-1.032.326a24.078 24.078 0 0 0-.24-1.938 38.722 38.722 0 0 0-.41-2.135 42.296 42.296 0 0 0-.495-2.136 29.748 29.748 0 0 0-.552-1.881Zm-2.56 5.304-.184-1.231c.481-.047.99-.075 1.528-.085.537-.009 1.051.005 1.541.043.481.028.887.085 1.217.17l.254 1.386a8.121 8.121 0 0 0-1.287-.213 16.25 16.25 0 0 0-1.541-.099c-.538-.009-1.047 0-1.528.029Zm5.388-1.57.453-1.131c.519.103 1.047.235 1.584.396.537.16 1.042.334 1.513.523.481.179.886.367 1.216.565l-.438 1.231c-.339-.189-.75-.382-1.23-.58-.481-.198-.99-.387-1.528-.566a15.73 15.73 0 0 0-1.57-.438Zm-2.078 4.936 2.206-2.348c.848-.924 1.716-1.876 2.602-2.857l.877.877c-.839.952-1.664 1.881-2.475 2.786l-2.164 2.418-1.046-.876Zm5.84-1.91.524-1.06a20.11 20.11 0 0 1 1.994.834c.697.321 1.268.627 1.711.919l-.58 1.174a13.444 13.444 0 0 0-1.683-.976 22.858 22.858 0 0 0-1.966-.891Zm-3.295 2.899 1.061-.749a24.895 24.895 0 0 1 1.584 2.376c.471.811.82 1.555 1.046 2.234a2.236 2.236 0 0 0-.396.113 7.643 7.643 0 0 0-.452.17 2.421 2.421 0 0 0-.41.156c-.189-.679-.51-1.386-.962-2.122a24.644 24.644 0 0 0-1.471-2.178Zm.269-2.984.962-.961 6.307 6.307-.962.962-6.307-6.308Zm11.285-24.777.976-.975 2.037 2.036-.976.976-2.037-2.037Zm1.372 3.89.58-.92c.443.198.9.448 1.372.75.48.292.867.566 1.159.82l-.608 1.004a9.16 9.16 0 0 0-1.131-.877 9.638 9.638 0 0 0-1.372-.777Zm-1.711-.411 4.822-4.822.849.848-4.823 4.823-.848-.849Zm2.8 3.423 8.895-8.896.863.863-8.895 8.895-.863-.862Zm5.176 2.517 2.913-2.913.778.778-2.913 2.913-.778-.778Zm-2.135-2.022 3.493-3.493 4.964 4.964-3.494 3.493-.792-.792 2.603-2.602-3.38-3.38-2.602 2.602-.792-.792Zm-.368.367.863-.862 5.826 5.826-.863.863-5.826-5.827Zm-1.188-6.901 1.131-.679c.236.481.486.976.75 1.485.254.5.457.948.608 1.344l-.962.537a24.919 24.919 0 0 0-.438-.863c-.179-.33-.363-.655-.552-.975a13.201 13.201 0 0 0-.537-.849Zm-.665-3.974.919-.919c1.33 1.31 2.603 2.546 3.819 3.705a102.45 102.45 0 0 0 3.408 3.069 39.877 39.877 0 0 0 2.843 2.249c.848.584 1.555.99 2.121 1.216.566.226.976.231 1.23.014.123-.104.048-.377-.226-.82-.283-.453-.712-1.014-1.287-1.683.123.009.264.009.424 0 .17-.019.33-.047.481-.085.151-.038.269-.061.354-.071.603.773 1.032 1.419 1.287 1.938.254.518.377.933.367 1.244 0 .302-.08.533-.24.693-.434.396-1.004.523-1.711.382-.707-.141-1.537-.509-2.489-1.103-.962-.603-2.027-1.386-3.196-2.348a84.805 84.805 0 0 1-3.805-3.351c-1.367-1.273-2.8-2.65-4.299-4.13Zm2.419-.014.466-1.117c.67.104 1.377.264 2.122.481.735.207 1.334.419 1.796.636l-.439 1.202a9.368 9.368 0 0 0-1.145-.438 24.98 24.98 0 0 0-1.415-.425c-.48-.141-.942-.254-1.385-.339Zm6.067 3.946 1.103-.651c.999 1.773 1.678 3.602 2.036 5.487a14.51 14.51 0 0 1-.056 5.629 2.65 2.65 0 0 0-.425-.028 7.938 7.938 0 0 0-.495-.015c-.16.01-.301.029-.424.057.405-1.801.453-3.592.141-5.374a15.05 15.05 0 0 0-1.88-5.105Zm-16.165 3.634 1.245-.622.594 1.556c.207.528.4 1.041.579 1.541.179.5.321.962.425 1.386l-1.019.424a12.316 12.316 0 0 0-.48-1.386 20.106 20.106 0 0 0-.665-1.541 18.215 18.215 0 0 0-.679-1.358Zm3.069.184 1.23-.495c.245.792.491 1.659.736 2.602.254.934.48 1.848.678 2.744.198.895.34 1.706.425 2.432l-.948.297a32.346 32.346 0 0 0-.523-2.446 48.368 48.368 0 0 0-.764-2.716 39.46 39.46 0 0 0-.834-2.418Zm-2.037 4.497-.226-1.188a12.43 12.43 0 0 1 1.443.029c.509.037.985.089 1.428.155.453.057.839.142 1.16.255l.325 1.343a6.488 6.488 0 0 0-1.202-.297 23.682 23.682 0 0 0-1.485-.212c-.509-.056-.99-.085-1.443-.085Zm4.696-.707.495-1.032c.471.113.957.268 1.456.466.5.18.971.378 1.414.594.444.198.816.401 1.118.609l-.453 1.131a7.56 7.56 0 0 0-1.131-.622 17.889 17.889 0 0 0-2.899-1.146Zm-1.457 4.229c.519-.557 1.122-1.217 1.81-1.98.698-.773 1.414-1.565 2.15-2.376l.834.863c-.669.782-1.324 1.55-1.966 2.305-.641.754-1.23 1.437-1.767 2.05l-1.061-.862Zm5.218-1.259.524-.948c.584.246 1.192.552 1.824.92.632.349 1.155.674 1.57.976l-.538 1.046c-.405-.33-.928-.674-1.569-1.032a24.306 24.306 0 0 0-1.811-.962Zm-2.715 2.432 1.004-.721a27.001 27.001 0 0 1 1.655 2.249c.509.773.9 1.475 1.174 2.107a3.81 3.81 0 0 0-.58.184 7.1 7.1 0 0 0-.566.226c-.245-.622-.613-1.282-1.103-1.98a23.938 23.938 0 0 0-1.584-2.065Zm-.085-2.743.905-.905 6.336 6.335-.905.906-6.336-6.336Zm4.102 16.688 1.456-.778c1.132 2.319 1.858 4.572 2.178 6.76.33 2.178.274 4.346-.17 6.505-.433 2.15-1.23 4.361-2.39 6.633a2.389 2.389 0 0 0-.509-.142 9.793 9.793 0 0 0-.636-.127 2.685 2.685 0 0 0-.552-.071c1.188-2.168 2.013-4.275 2.475-6.321a17.12 17.12 0 0 0 .241-6.152c-.302-2.055-1-4.158-2.093-6.307Zm-6.35 6.519c2.027.99 4.082 1.65 6.166 1.98 2.083.311 4.181.24 6.293-.212 2.112-.453 4.224-1.33 6.336-2.631-.01.161-.005.354.014.58l.113.679c.047.217.09.401.127.552-2.197 1.291-4.389 2.144-6.576 2.559a18.714 18.714 0 0 1-6.562.029c-2.197-.387-4.412-1.113-6.647-2.178l.736-1.358Zm-3.72 2.503 12.785-12.784 1.032 1.032-12.784 12.785-1.033-1.033Zm3.394-8.202 1.089-1.089 3.027 3.026-1.089 1.089-3.027-3.026Zm14.85-14.171 1.075-1.074 10.507 10.507c.264.264.49.443.679.538a.668.668 0 0 0 .552.014c.188-.095.414-.274.678-.538l.509-.509.835-.834.863-.863.565-.566c.264-.264.387-.528.368-.792-.019-.282-.189-.641-.509-1.074-.311-.443-.792-1.019-1.443-1.726a4.92 4.92 0 0 0 .764-.198c.283-.113.514-.231.693-.353.726.82 1.259 1.522 1.598 2.107.339.566.476 1.08.41 1.541-.056.453-.335.929-.834 1.429l-.41.41-.679.679-.764.763-.679.679-.382.382c-.49.49-.933.82-1.329.99-.396.17-.801.17-1.216 0-.396-.17-.853-.514-1.372-1.032l-10.479-10.48Zm7.665-2.969 1.669.141a23.15 23.15 0 0 1-.425 2.772 49.608 49.608 0 0 1-.763 2.97c-.283.999-.576 1.97-.877 2.913a2.49 2.49 0 0 0-.608-.212 10.263 10.263 0 0 0-.665-.184c.283-.924.547-1.886.792-2.885.245-.999.448-1.975.608-2.927.151-.962.24-1.825.269-2.588Zm-10.239 5.289 1.386-.679a28.74 28.74 0 0 1 1.159 3.677c.312 1.273.538 2.536.679 3.79.142 1.235.179 2.413.113 3.535a1.98 1.98 0 0 0-.509-.169 11.82 11.82 0 0 0-.636-.156 5.088 5.088 0 0 0-.566-.113c.094-.999.094-2.055 0-3.168a22.718 22.718 0 0 0-.551-3.408 23.4 23.4 0 0 0-1.075-3.309Zm2.079 5.331v-2.093l.042.014 10.084 10.084-1.061 1.06-9.065-9.065Z"/>
    <path stroke="#666" stroke-width="2" d="M960 450v-70m71 99 49-49m-20 120h70m-99 71 49 49m-120-20v70m-71-99-49 49m20-120h-70m99-71-49-49" opacity=".3"/>
    <path fill="#059669" d="M698.539 922.984c-.024.192-.06.504-.108.936l-.072 1.26c-.024.408-.048.708-.072.9a41.01 41.01 0 0 0-.036 1.944v5.652c.024.984.036 1.92.036 2.808.024.864.036 1.584.036 2.16l-4.5-1.512v-4.284c0-.912-.012-1.812-.036-2.7 0-.888-.012-1.692-.036-2.412-.024-.72-.048-1.26-.072-1.62a30.388 30.388 0 0 0-.18-1.944 15.139 15.139 0 0 0-.18-1.188h5.22Zm-20.34 4.464c1.056 0 2.256-.012 3.6-.036 1.344-.024 2.748-.048 4.212-.072a7778.7 7778.7 0 0 0 4.32-.072c1.416-.024 2.748-.036 3.996-.036 1.248-.024 2.328-.036 3.24-.036h2.988c1.08-.024 2.148-.036 3.204-.036h4.932l-.036 4.248a158.177 158.177 0 0 0-4.464-.108 267.235 267.235 0 0 0-6.768-.072c-1.632 0-3.288.024-4.968.072-1.68.024-3.348.06-5.004.108-1.656.048-3.252.108-4.788.18-1.536.048-2.988.12-4.356.216l-.108-4.356Zm19.476 10.656c0 1.968-.24 3.6-.72 4.896-.456 1.296-1.152 2.28-2.088 2.952-.936.648-2.1.972-3.492.972-.672 0-1.38-.144-2.124-.432a6.906 6.906 0 0 1-2.016-1.26 6.254 6.254 0 0 1-1.512-2.052c-.36-.816-.54-1.776-.54-2.88 0-1.368.324-2.544.972-3.528a6.59 6.59 0 0 1 2.592-2.34c1.104-.576 2.316-.864 3.636-.864 1.584 0 2.904.36 3.96 1.08a6.345 6.345 0 0 1 2.412 2.844c.552 1.2.828 2.556.828 4.068 0 1.176-.192 2.4-.576 3.672-.384 1.272-1.02 2.52-1.908 3.744-.864 1.2-2.04 2.292-3.528 3.276-1.464.984-3.3 1.788-5.508 2.412l-3.852-3.816a27.151 27.151 0 0 0 4.284-1.224c1.32-.504 2.472-1.14 3.456-1.908a7.893 7.893 0 0 0 2.34-2.844c.576-1.128.864-2.484.864-4.068 0-1.152-.288-2.016-.864-2.592a2.687 2.687 0 0 0-2.016-.864c-.456 0-.9.108-1.332.324a2.54 2.54 0 0 0-1.044.972c-.264.432-.396.96-.396 1.584 0 .816.276 1.476.828 1.98.576.48 1.224.72 1.944.72.576 0 1.08-.18 1.512-.54.456-.36.756-.96.9-1.8.144-.84.024-1.968-.36-3.384l3.348.9Zm11.905 3.816a27.07 27.07 0 0 0 1.476-1.296c.48-.432.996-.936 1.548-1.512.408-.456.876-.996 1.404-1.62.552-.648 1.128-1.344 1.728-2.088l1.8-2.232c.6-.744 1.188-1.44 1.764-2.088 1.248-1.44 2.472-2.208 3.672-2.304 1.2-.12 2.46.468 3.78 1.764.84.792 1.692 1.704 2.556 2.736a285.11 285.11 0 0 1 2.556 3.024c.864.984 1.644 1.86 2.34 2.628.576.624 1.2 1.296 1.872 2.016l2.124 2.196 2.304 2.304c.816.768 1.656 1.536 2.52 2.304l-3.78 4.248a58.841 58.841 0 0 1-2.7-2.736 310.987 310.987 0 0 1-2.7-3.096 92.861 92.861 0 0 0-2.448-2.88 724.206 724.206 0 0 1-2.34-2.808 166.115 166.115 0 0 0-2.34-2.844 50.698 50.698 0 0 0-1.98-2.304c-.408-.48-.78-.78-1.116-.9a.935.935 0 0 0-.9.108c-.288.168-.612.468-.972.9-.336.456-.756.996-1.26 1.62-.48.624-.984 1.284-1.512 1.98-.504.696-1.008 1.38-1.512 2.052-.48.648-.912 1.224-1.296 1.728-.408.6-.816 1.224-1.224 1.872a48.68 48.68 0 0 1-1.044 1.692l-4.32-4.464Zm24.444-14.724c.336.504.72 1.104 1.152 1.8.432.672.852 1.368 1.26 2.088.408.696.744 1.32 1.008 1.872l-3.24 1.404c-.36-.744-.708-1.44-1.044-2.088a28.353 28.353 0 0 0-1.044-1.908 20.762 20.762 0 0 0-1.224-1.872l3.132-1.296Zm4.824-1.98c.384.48.792 1.068 1.224 1.764.432.672.852 1.356 1.26 2.052.432.672.78 1.272 1.044 1.8l-3.132 1.512a39.93 39.93 0 0 0-1.116-2.088 46.672 46.672 0 0 0-1.116-1.836c-.384-.6-.804-1.188-1.26-1.764l3.096-1.44Zm6.767 2.016c.72-.024 1.404-.048 2.052-.072a219.39 219.39 0 0 1 1.512-.108 360.67 360.67 0 0 1 2.736-.252l3.636-.324c1.368-.12 2.82-.24 4.356-.36a714.18 714.18 0 0 1 4.788-.432c1.248-.096 2.496-.18 3.744-.252 1.248-.096 2.424-.168 3.528-.216a86.72 86.72 0 0 1 2.916-.144l.036 4.608c-.648 0-1.392.012-2.232.036-.84.024-1.68.072-2.52.144-.816.048-1.548.144-2.196.288a8.86 8.86 0 0 0-3.024 1.476 11.49 11.49 0 0 0-2.412 2.412 11.5 11.5 0 0 0-1.62 3.024 9.87 9.87 0 0 0-.54 3.204c0 1.176.204 2.22.612 3.132a6.995 6.995 0 0 0 1.692 2.304 10.691 10.691 0 0 0 2.592 1.584c.984.408 2.04.72 3.168.936 1.152.216 2.34.36 3.564.432l-1.692 4.932a22.733 22.733 0 0 1-4.428-.72 18.744 18.744 0 0 1-3.996-1.584 13.7 13.7 0 0 1-3.24-2.448 11.088 11.088 0 0 1-2.196-3.348c-.528-1.272-.792-2.688-.792-4.248 0-1.752.276-3.348.828-4.788.552-1.44 1.236-2.7 2.052-3.78.816-1.104 1.632-1.956 2.448-2.556-.672.072-1.488.168-2.448.288-.936.096-1.956.216-3.06.36-1.08.12-2.184.252-3.312.396-1.128.144-2.22.312-3.276.504a79.791 79.791 0 0 0-2.808.504l-.468-4.932Zm54.72.108a111.56 111.56 0 0 1-.936 5.832 56.734 56.734 0 0 1-1.548 6.264c-.696 2.424-1.512 4.512-2.448 6.264-.936 1.752-1.968 3.108-3.096 4.068-1.104.936-2.316 1.404-3.636 1.404-1.32 0-2.544-.444-3.672-1.332-1.104-.912-1.992-2.16-2.664-3.744-.648-1.584-.972-3.384-.972-5.4 0-2.088.42-4.056 1.26-5.904a15.632 15.632 0 0 1 3.492-4.896 16.75 16.75 0 0 1 5.256-3.384c2.016-.816 4.188-1.224 6.516-1.224 2.232 0 4.236.36 6.012 1.08 1.8.72 3.336 1.716 4.608 2.988a12.97 12.97 0 0 1 2.916 4.464c.672 1.704 1.008 3.54 1.008 5.508 0 2.52-.516 4.776-1.548 6.768s-2.568 3.636-4.608 4.932c-2.016 1.296-4.536 2.184-7.56 2.664l-2.7-4.284a24.457 24.457 0 0 0 1.836-.252 23.771 23.771 0 0 0 1.512-.324 13.85 13.85 0 0 0 3.204-1.224 10.479 10.479 0 0 0 2.628-2.016 8.78 8.78 0 0 0 1.728-2.844c.432-1.08.648-2.268.648-3.564 0-1.416-.216-2.712-.648-3.888a8.573 8.573 0 0 0-1.908-3.06c-.84-.888-1.86-1.56-3.06-2.016-1.2-.48-2.58-.72-4.14-.72-1.92 0-3.612.348-5.076 1.044-1.464.672-2.7 1.548-3.708 2.628s-1.776 2.244-2.304 3.492c-.504 1.248-.756 2.436-.756 3.564 0 1.2.144 2.208.432 3.024.288.792.636 1.392 1.044 1.8.432.384.888.576 1.368.576.504 0 .996-.252 1.476-.756.504-.528.996-1.32 1.476-2.376.48-1.056.96-2.388 1.44-3.996a49.17 49.17 0 0 0 1.404-5.544c.384-1.968.66-3.888.828-5.76l4.896.144Zm16.2 13.608h33.084v3.492h-33.084v-3.492Zm.684-18.252h31.5v3.744h-31.5v-3.744Zm11.34 14.76 4.248 1.116a128.618 128.618 0 0 1-2.52 3.924 141.685 141.685 0 0 1-2.664 3.96 66.55 66.55 0 0 1-2.412 3.348l-4.14-1.296c.744-.96 1.56-2.076 2.448-3.348a185.4 185.4 0 0 0 2.664-3.924 90.697 90.697 0 0 0 2.376-3.78Zm10.44 4.788 4.176 1.044c-.912 2.136-2.064 3.912-3.456 5.328-1.392 1.416-3.084 2.568-5.076 3.456-1.968.888-4.26 1.572-6.876 2.052-2.616.504-5.592.888-8.928 1.152a10.817 10.817 0 0 0-.684-1.98c-.288-.696-.6-1.272-.936-1.728 4.032-.168 7.488-.54 10.368-1.116 2.904-.576 5.292-1.512 7.164-2.808 1.872-1.296 3.288-3.096 4.248-5.4Zm-15.444 6.552 2.16-3.06c2.784.552 5.568 1.188 8.352 1.908a166.64 166.64 0 0 1 7.92 2.16c2.472.72 4.608 1.404 6.408 2.052l-2.592 3.528c-1.752-.72-3.816-1.476-6.192-2.268a153.458 153.458 0 0 0-7.668-2.268 171.348 171.348 0 0 0-8.388-2.052Zm3.168-24.66h4.068v12.312h-4.068v-12.312Zm8.136 0h4.104v12.312h-4.104v-12.312Zm-11.916 7.74v3.348h20.34v-3.348h-20.34Zm-4.068-3.42h28.692v10.152h-28.692v-10.152Zm47.952 16.632h4.284v10.044h-4.284v-10.044Zm-1.332-11.7 3.888 1.836a91.737 91.737 0 0 1-3.384 2.664 43.023 43.023 0 0 1-3.168 2.124l-2.916-1.584a23.992 23.992 0 0 0 1.944-1.512c.696-.6 1.356-1.2 1.98-1.8.648-.624 1.2-1.2 1.656-1.728Zm7.56 1.98 3.816 2.088a86.801 86.801 0 0 1-4.536 3.132 107.073 107.073 0 0 1-4.896 2.988 98.524 98.524 0 0 1-4.572 2.412l-2.772-1.944a56.675 56.675 0 0 0 4.536-2.556 94.964 94.964 0 0 0 4.572-3.096 57.447 57.447 0 0 0 3.852-3.024Zm-17.064 3.888 2.808-2.376c.888.408 1.836.912 2.844 1.512a46.842 46.842 0 0 1 2.916 1.764c.912.6 1.668 1.152 2.268 1.656l-2.988 2.664c-.552-.528-1.272-1.104-2.16-1.728a37.937 37.937 0 0 0-2.808-1.836 36.453 36.453 0 0 0-2.88-1.656Zm18.648 2.16 2.988-2.16a41.3 41.3 0 0 1 3.024 2.016 55.192 55.192 0 0 1 3.024 2.304c.936.768 1.704 1.5 2.304 2.196l-3.24 2.412c-.528-.672-1.248-1.404-2.16-2.196a44.431 44.431 0 0 0-2.916-2.376 43.202 43.202 0 0 0-3.024-2.196Zm-1.296 8.064 3.204-2.196c.888.432 1.848.924 2.88 1.476a45.287 45.287 0 0 1 3.024 1.728c.96.576 1.764 1.116 2.412 1.62l-3.384 2.412a46.91 46.91 0 0 0-2.304-1.62c-.912-.6-1.884-1.2-2.916-1.8a33.135 33.135 0 0 0-2.916-1.62Zm-20.16-5.76c1.8 0 3.816-.012 6.048-.036 2.256-.024 4.644-.06 7.164-.108 2.52-.048 5.1-.084 7.74-.108l7.848-.144-.18 3.204c-2.592.048-5.184.108-7.776.18-2.592.072-5.124.132-7.596.18-2.472.048-4.824.096-7.056.144-2.208.048-4.2.084-5.976.108l-.216-3.42Zm7.452 3.672 3.996 1.512a24.304 24.304 0 0 1-2.7 2.232 34.522 34.522 0 0 1-3.204 2.052 29.57 29.57 0 0 1-3.132 1.584c-.24-.264-.564-.588-.972-.972l-1.188-1.116a7.711 7.711 0 0 0-1.08-.864 35.77 35.77 0 0 0 4.572-1.944c1.512-.792 2.748-1.62 3.708-2.484Zm6.156-26.028h4.356v12.924h-4.356v-12.924Zm-11.772 1.98h28.512v3.132h-28.512v-3.132Zm1.908 4.5h24.732v3.096h-24.732v-3.096Zm-3.852 4.464h32.04v3.276h-32.04v-3.276Zm50.364-8.496c-.096.456-.204.96-.324 1.512-.12.528-.228 1.02-.324 1.476a59.436 59.436 0 0 1-.36 1.8c-.144.648-.288 1.308-.432 1.98a44.61 44.61 0 0 1-.396 1.908 130.754 130.754 0 0 1-2.16 8.028 78.432 78.432 0 0 1-1.62 4.716 89.44 89.44 0 0 1-1.908 4.644 31.616 31.616 0 0 1-2.16 4.032l-4.68-1.872a27.362 27.362 0 0 0 2.34-3.78 50.267 50.267 0 0 0 2.016-4.32 60.98 60.98 0 0 0 1.584-4.392c.48-1.464.888-2.82 1.224-4.068.36-1.248.636-2.316.828-3.204.336-1.632.6-3.204.792-4.716a26.54 26.54 0 0 0 .216-4.284l5.364.54Zm12.384 3.636c.576.792 1.164 1.764 1.764 2.916a62.699 62.699 0 0 1 1.836 3.6c.6 1.272 1.14 2.496 1.62 3.672.48 1.176.852 2.196 1.116 3.06l-4.572 2.088a27.457 27.457 0 0 0-.972-3.348 42.026 42.026 0 0 0-1.44-3.708 41.858 41.858 0 0 0-1.764-3.6c-.6-1.128-1.224-2.076-1.872-2.844l4.284-1.836Zm-27 3.744c.648.048 1.284.072 1.908.072l1.944-.072c.6-.024 1.32-.06 2.16-.108a306.7 306.7 0 0 1 2.664-.216l2.88-.216c.96-.096 1.848-.168 2.664-.216a35.58 35.58 0 0 1 2.016-.072c1.296 0 2.424.216 3.384.648.96.408 1.716 1.116 2.268 2.124.576 1.008.864 2.376.864 4.104 0 1.416-.06 2.952-.18 4.608a36.59 36.59 0 0 1-.648 4.752c-.288 1.512-.696 2.796-1.224 3.852-.576 1.248-1.368 2.112-2.376 2.592-.984.48-2.16.72-3.528.72-.672 0-1.404-.06-2.196-.18-.792-.096-1.5-.204-2.124-.324l-.756-4.752c.456.12.96.24 1.512.36.576.12 1.116.216 1.62.288.528.072.948.108 1.26.108.6 0 1.128-.108 1.584-.324.456-.24.828-.648 1.116-1.224.336-.696.612-1.596.828-2.7.216-1.104.372-2.292.468-3.564.12-1.296.18-2.532.18-3.708 0-.96-.144-1.668-.432-2.124a1.89 1.89 0 0 0-1.188-.9c-.504-.168-1.128-.252-1.872-.252-.552 0-1.296.048-2.232.144-.936.072-1.944.168-3.024.288-1.056.096-2.04.204-2.952.324-.912.12-1.62.204-2.124.252-.528.096-1.2.204-2.016.324-.792.096-1.464.192-2.016.288l-.432-4.896Zm26.352-8.748c.312.432.636.948.972 1.548.36.6.708 1.2 1.044 1.8.336.6.624 1.128.864 1.584l-2.916 1.26a53.112 53.112 0 0 0-.828-1.656c-.312-.6-.636-1.2-.972-1.8-.336-.6-.672-1.116-1.008-1.548l2.844-1.188Zm4.284-1.62c.312.456.648.984 1.008 1.584.36.6.708 1.2 1.044 1.8.36.6.636 1.104.828 1.512l-2.844 1.224a78.112 78.112 0 0 0-1.368-2.52c-.528-.96-1.044-1.776-1.548-2.448l2.88-1.152Zm13.176 14.616v13.284h-4.14v-9.288h-4.068v-3.996h8.208Zm0 11.556a6.366 6.366 0 0 0 2.952 2.664c1.272.552 2.82.864 4.644.936 1.08.048 2.376.084 3.888.108a330.755 330.755 0 0 0 9.684-.144 88.672 88.672 0 0 0 4.32-.288 9.822 9.822 0 0 0-.54 1.26c-.168.504-.336 1.02-.504 1.548-.144.528-.252.996-.324 1.404-1.104.072-2.376.12-3.816.144-1.44.024-2.928.036-4.464.036-1.536.024-3.024.024-4.464 0-1.44 0-2.712-.024-3.816-.072-2.16-.096-3.996-.444-5.508-1.044-1.512-.6-2.808-1.596-3.888-2.988-.696.72-1.44 1.428-2.232 2.124a63.388 63.388 0 0 1-2.52 2.232l-2.052-4.284a50.818 50.818 0 0 0 2.412-1.692 40.373 40.373 0 0 0 2.484-1.944h3.744Zm-8.064-22.212 3.276-2.448a32.96 32.96 0 0 1 2.16 1.8 32.798 32.798 0 0 1 2.052 2.016c.624.672 1.128 1.308 1.512 1.908l-3.564 2.736c-.336-.6-.804-1.248-1.404-1.944a22.586 22.586 0 0 0-1.944-2.124 37.293 37.293 0 0 0-2.088-1.944Zm9.612-.792h22.68v3.492h-22.68v-3.492Zm-.432 18.864h23.58v3.528h-23.58v-3.528Zm9.468-21.456h4.212v28.368h-4.212V921.4Zm-3.672 15.12v1.8h11.628v-1.8h-11.628Zm0-4.572v1.764h11.628v-1.764h-11.628Zm-3.924-2.952h19.692v12.312h-19.692v-12.312Zm25.524 15.696h16.812v3.06h-16.812v-3.06Zm-.792-17.136h18v3.132h-18v-3.132Zm7.128-2.52h3.924v25.812h-3.924v-25.812Zm-7.344 25.38c1.512-.096 3.24-.216 5.184-.36s3.996-.3 6.156-.468c2.184-.192 4.356-.384 6.516-.576l.036 3.276c-2.04.216-4.104.432-6.192.648-2.064.216-4.056.408-5.976.576-1.896.192-3.636.372-5.22.54l-.504-3.636Zm4.572-11.448v1.62h9.504v-1.62h-9.504Zm0-4.176v1.62h9.504v-1.62h-9.504Zm-3.42-2.7h16.488v11.196h-16.488v-11.196Zm14.76-10.476 1.872 3.204a67.316 67.316 0 0 1-5.112.828c-1.872.216-3.792.396-5.76.54-1.968.12-3.852.204-5.652.252a9.807 9.807 0 0 0-.396-1.548 8.764 8.764 0 0 0-.576-1.548c1.344-.072 2.724-.156 4.14-.252a206.34 206.34 0 0 0 4.176-.396c1.392-.144 2.7-.3 3.924-.468a59.292 59.292 0 0 0 3.384-.612Zm2.268 7.956h12.492v3.96h-12.492v-3.96Zm10.728 0h4.14v1.908c-.096 3.696-.192 6.84-.288 9.432a194.357 194.357 0 0 1-.324 6.372c-.096 1.656-.252 2.952-.468 3.888-.192.936-.432 1.608-.72 2.016-.408.6-.84 1.02-1.296 1.26-.432.264-.948.456-1.548.576-.552.096-1.224.144-2.016.144-.792.024-1.62.024-2.484 0-.024-.6-.156-1.296-.396-2.088-.216-.792-.492-1.476-.828-2.052.768.072 1.476.12 2.124.144.648.024 1.14.036 1.476.036.288 0 .528-.048.72-.144.192-.096.372-.252.54-.468.192-.288.36-.84.504-1.656.144-.84.264-2.028.36-3.564.12-1.56.216-3.564.288-6.012.096-2.448.168-5.412.216-8.892v-.9Zm-7.272-7.56h4.14c0 3.072-.036 5.988-.108 8.748a87.117 87.117 0 0 1-.468 7.812c-.24 2.424-.66 4.68-1.26 6.768-.576 2.064-1.392 3.948-2.448 5.652-1.056 1.704-2.412 3.204-4.068 4.5a7.983 7.983 0 0 0-.864-1.152 16.641 16.641 0 0 0-1.08-1.188c-.36-.36-.72-.66-1.08-.9 1.512-1.152 2.736-2.472 3.672-3.96.936-1.512 1.656-3.18 2.16-5.004.504-1.848.852-3.864 1.044-6.048.192-2.208.3-4.572.324-7.092.024-2.544.036-5.256.036-8.136Zm26.635 1.44c-.09.744-.19 1.548-.28 2.412a65.11 65.11 0 0 0-.18 2.376c-.03.984-.08 2.184-.15 3.6-.05 1.392-.09 2.856-.14 4.392a324.33 324.33 0 0 1-.11 4.536c-.02 1.488-.04 2.784-.04 3.888 0 1.2.22 2.16.65 2.88.46.696 1.06 1.2 1.8 1.512.75.288 1.59.432 2.52.432 1.49 0 2.85-.192 4.07-.576 1.22-.408 2.34-.948 3.35-1.62a13.904 13.904 0 0 0 2.7-2.34c.81-.888 1.55-1.824 2.19-2.808l3.28 3.96c-.58.864-1.33 1.776-2.27 2.736-.93.96-2.05 1.86-3.35 2.7-1.27.84-2.74 1.524-4.42 2.052-1.68.528-3.54.792-5.58.792-1.97 0-3.69-.312-5.15-.936-1.44-.6-2.57-1.536-3.39-2.808-.79-1.296-1.18-2.964-1.18-5.004 0-.984.01-2.1.03-3.348.03-1.272.06-2.592.11-3.96.05-1.368.08-2.7.11-3.996.02-1.32.05-2.508.07-3.564.02-1.056.04-1.896.04-2.52 0-.864-.04-1.704-.11-2.52-.07-.84-.19-1.62-.36-2.34l5.79.072Zm24.11 3.78c.72-.024 1.41-.048 2.06-.072.64-.048 1.15-.084 1.51-.108.74-.072 1.65-.156 2.73-.252l3.64-.324c1.37-.12 2.82-.24 4.36-.36 1.53-.144 3.13-.288 4.78-.432 1.25-.096 2.5-.18 3.75-.252 1.25-.096 2.42-.168 3.53-.216 1.12-.072 2.1-.12 2.91-.144l.04 4.608c-.65 0-1.39.012-2.23.036-.84.024-1.68.072-2.52.144-.82.048-1.55.144-2.2.288a8.79 8.79 0 0 0-3.02 1.476c-.92.672-1.72 1.476-2.42 2.412-.69.936-1.23 1.944-1.62 3.024a9.87 9.87 0 0 0-.54 3.204c0 1.176.21 2.22.62 3.132.4.888.97 1.656 1.69 2.304.74.624 1.61 1.152 2.59 1.584.98.408 2.04.72 3.17.936 1.15.216 2.34.36 3.56.432l-1.69 4.932a22.777 22.777 0 0 1-4.43-.72 18.653 18.653 0 0 1-3.99-1.584 13.461 13.461 0 0 1-3.24-2.448c-.94-.984-1.67-2.1-2.2-3.348-.53-1.272-.79-2.688-.79-4.248 0-1.752.27-3.348.83-4.788.55-1.44 1.23-2.7 2.05-3.78.81-1.104 1.63-1.956 2.45-2.556-.68.072-1.49.168-2.45.288-.94.096-1.96.216-3.06.36-1.08.12-2.19.252-3.31.396-1.13.144-2.22.312-3.28.504-1.03.168-1.97.336-2.81.504l-.47-4.932Zm40 7.74h8.32v3.924h-8.32v-3.924Zm6.66 0h4.18v1.584c-.05 2.544-.11 4.632-.18 6.264-.08 1.608-.2 2.868-.36 3.78-.15.888-.35 1.512-.62 1.872-.36.456-.74.78-1.15.972a5.04 5.04 0 0 1-1.37.432c-.48.096-1.09.156-1.83.18-.72 0-1.51-.012-2.38-.036-.02-.624-.14-1.32-.36-2.088-.21-.768-.48-1.416-.79-1.944.65.048 1.25.084 1.8.108.58.024 1.01.036 1.3.036.24 0 .44-.024.61-.072.19-.072.35-.192.47-.36.16-.216.28-.66.36-1.332.09-.696.16-1.74.21-3.132.05-1.416.09-3.288.11-5.616v-.648Zm10.8-11.304 2.63-2.592c.67.336 1.38.732 2.12 1.188.75.456 1.45.912 2.13 1.368.69.456 1.26.9 1.69 1.332l-2.77 2.88c-.41-.408-.94-.864-1.59-1.368-.65-.504-1.34-.996-2.09-1.476a32.43 32.43 0 0 0-2.12-1.332Zm4.25 9.288 4.39 1.044c-1.51 4.68-3.58 8.82-6.19 12.42-2.62 3.576-5.71 6.468-9.29 8.676-.19-.312-.48-.696-.86-1.152-.39-.432-.78-.876-1.19-1.332a24.82 24.82 0 0 0-1.08-1.08c3.45-1.872 6.38-4.392 8.78-7.56 2.4-3.192 4.21-6.864 5.44-11.016Zm-21.49-6.156h27.79v4.248h-27.79V926.8Zm-2.88 0h4.53v10.62c0 1.344-.05 2.82-.14 4.428-.1 1.584-.28 3.216-.54 4.896a28.898 28.898 0 0 1-1.19 4.788c-.5 1.536-1.16 2.916-1.98 4.14-.24-.312-.6-.66-1.08-1.044-.46-.384-.92-.768-1.4-1.152-.46-.36-.86-.612-1.19-.756.91-1.44 1.57-3.048 1.98-4.824.43-1.8.71-3.612.83-5.436.12-1.824.18-3.516.18-5.076V926.8Zm14.61-5.364h4.54c-.05 2.952.03 5.844.25 8.676s.53 5.484.94 7.956c.43 2.448.93 4.62 1.51 6.516.57 1.872 1.21 3.336 1.91 4.392.69 1.056 1.4 1.584 2.12 1.584.41 0 .72-.492.94-1.476.24-.984.4-2.604.5-4.86.5.48 1.09.948 1.76 1.404.7.456 1.34.792 1.91 1.008-.21 2.232-.54 3.96-.97 5.184-.43 1.2-1.01 2.028-1.73 2.484-.72.456-1.64.684-2.77.684-1.3 0-2.47-.444-3.53-1.332-1.03-.888-1.95-2.124-2.77-3.708-.79-1.584-1.48-3.444-2.05-5.58-.58-2.136-1.06-4.452-1.44-6.948-.36-2.496-.64-5.088-.83-7.776-.17-2.712-.26-5.448-.29-8.208Zm18.94 3.852h13.61v4.104h-13.61v-4.104Zm14.11 3.78h16.16v4.14h-16.16v-4.14Zm-9.43-2.088h4.28v18.108h-4.28V926.98Zm23.58 2.088h4.25v1.224c0 .312-.02.564-.04.756-.1 3.648-.2 6.756-.32 9.324-.12 2.568-.26 4.692-.4 6.372-.14 1.656-.34 2.964-.58 3.924-.21.96-.49 1.644-.82 2.052-.46.672-.94 1.128-1.44 1.368-.48.264-1.06.456-1.73.576-.63.072-1.41.12-2.34.144-.91.024-1.86.012-2.85-.036-.02-.624-.16-1.344-.43-2.16a8.48 8.48 0 0 0-.93-2.088c.96.072 1.84.12 2.66.144h1.84c.33 0 .61-.036.82-.108.22-.096.42-.264.62-.504.21-.264.4-.816.57-1.656.19-.864.35-2.088.47-3.672.14-1.584.26-3.588.36-6.012.1-2.424.19-5.34.29-8.748v-.9Zm-28.77 15.516c1.23-.24 2.63-.552 4.22-.936 1.58-.384 3.25-.804 5-1.26 1.75-.456 3.5-.912 5.26-1.368l.54 4.104c-2.4.72-4.84 1.428-7.31 2.124-2.45.696-4.67 1.308-6.66 1.836l-1.05-4.5Zm19.7-22.608h4.39c-.03 3-.07 5.88-.15 8.64-.07 2.736-.28 5.316-.64 7.74-.34 2.424-.89 4.68-1.66 6.768a19.31 19.31 0 0 1-3.17 5.688c-1.34 1.68-3.11 3.168-5.29 4.464-.19-.36-.47-.768-.83-1.224-.33-.432-.69-.864-1.08-1.296a6.405 6.405 0 0 0-1.11-.972c1.99-1.104 3.58-2.4 4.78-3.888a16.327 16.327 0 0 0 2.81-4.968c.67-1.848 1.14-3.852 1.41-6.012.26-2.184.4-4.512.43-6.984.05-2.496.08-5.148.11-7.956Zm16.7 19.296c.55-.432 1.06-.864 1.51-1.296.48-.456 1-.96 1.55-1.512.41-.432.88-.96 1.4-1.584.53-.648 1.1-1.344 1.7-2.088l1.8-2.232c.62-.768 1.21-1.476 1.76-2.124 1.27-1.44 2.51-2.208 3.71-2.304 1.2-.12 2.46.468 3.78 1.764a43.87 43.87 0 0 1 2.52 2.7c.89 1.008 1.75 2.016 2.59 3.024a61.252 61.252 0 0 0 2.34 2.664c.58.648 1.19 1.32 1.84 2.016.67.696 1.38 1.428 2.12 2.196.74.768 1.52 1.536 2.34 2.304.82.768 1.64 1.536 2.48 2.304l-3.7 4.32c-.84-.84-1.73-1.752-2.67-2.736a118.85 118.85 0 0 1-2.77-3.024c-.89-1.032-1.73-1.98-2.52-2.844-.72-.888-1.49-1.824-2.3-2.808-.8-1.008-1.56-1.968-2.31-2.88-.74-.912-1.4-1.68-1.98-2.304-.41-.48-.78-.78-1.11-.9-.32-.12-.63-.096-.94.072-.29.168-.6.48-.94.936-.36.456-.78.996-1.26 1.62-.45.624-.94 1.296-1.47 2.016-.51.696-1 1.38-1.48 2.052-.48.648-.92 1.224-1.33 1.728-.41.6-.82 1.2-1.22 1.8l-1.05 1.62-4.39-4.5Zm36.22 3.708h32.94v3.276h-32.94v-3.276Zm9.28-20.592h23.62v2.88h-23.62v-2.88Zm11.7 18.648h4.14v8.1c0 .96-.12 1.716-.36 2.268-.21.552-.69.972-1.44 1.26-.72.264-1.57.42-2.55.468-.99.072-2.15.108-3.49.108a8.517 8.517 0 0 0-.51-1.908c-.26-.696-.54-1.308-.83-1.836l1.77.072c.6.024 1.13.036 1.58.036.46-.024.77-.036.94-.036.29 0 .48-.036.57-.108.12-.096.18-.24.18-.432v-7.992Zm-14.9 6.768 2.95-2.376c.58.36 1.18.78 1.8 1.26.63.456 1.23.924 1.8 1.404.58.48 1.05.936 1.41 1.368l-3.17 2.628c-.31-.408-.73-.876-1.26-1.404a29.708 29.708 0 0 0-1.73-1.512c-.62-.504-1.22-.96-1.8-1.368Zm-5.11-25.632 2.81-2.376c.6.408 1.22.876 1.87 1.404.67.528 1.28 1.056 1.83 1.584.58.528 1.02 1.02 1.34 1.476l-2.96 2.592c-.31-.456-.74-.96-1.29-1.512-.53-.576-1.11-1.14-1.73-1.692a20.091 20.091 0 0 0-1.87-1.476Zm12.49-2.16 3.49-.648c.39.528.76 1.128 1.12 1.8.36.648.61 1.236.75 1.764l-3.67.72c-.14-.48-.38-1.056-.72-1.728a18.82 18.82 0 0 0-.97-1.908Zm2.66 11.196v1.116h9.69v-1.116h-9.69Zm0 2.952v1.152h9.69v-1.152h-9.69Zm0-5.832v1.044h9.69v-1.044h-9.69Zm-3.99-1.908h17.85v10.764h-17.85V928.42Zm-3.93 1.944v8.46h-3.88v-5.22h-4.22v-3.24h8.1Zm10.7-4.788 4.28.288c-.29.672-.56 1.296-.83 1.872-.24.576-.45 1.08-.65 1.512l-3.42-.432c.15-.528.27-1.08.36-1.656.12-.6.21-1.128.26-1.584Zm6.22-4.248 4.07.648a34.17 34.17 0 0 1-1.29 1.944c-.41.576-.78 1.08-1.12 1.512l-3.42-.648c.31-.528.62-1.104.94-1.728.33-.648.61-1.224.82-1.728Zm-16.92 16.056c.6.984 1.44 1.704 2.52 2.16 1.08.456 2.39.708 3.93.756.89.024 1.93.048 3.13.072 1.22.024 2.53.036 3.92.036l4.22-.072c1.41-.048 2.77-.096 4.06-.144 1.32-.072 2.49-.132 3.5-.18-.2.384-.4.912-.62 1.584-.21.648-.37 1.212-.46 1.692-1.16.048-2.51.096-4.07.144l-4.86.072h-4.83c-1.53-.024-2.86-.06-3.99-.108-1.83-.072-3.37-.336-4.65-.792-1.24-.48-2.31-1.284-3.2-2.412-.86.576-1.75 1.152-2.66 1.728-.89.576-1.84 1.176-2.85 1.8l-1.47-3.42c.84-.384 1.74-.828 2.7-1.332.98-.528 1.92-1.056 2.8-1.584h2.88Zm52.67-11.34c-.57.408-1.14.84-1.69 1.296-.55.432-1.03.828-1.44 1.188-.6.456-1.32 1.02-2.16 1.692-.82.648-1.68 1.332-2.59 2.052-.89.696-1.75 1.38-2.59 2.052a60.93 60.93 0 0 0-2.16 1.8c-.63.552-1.05 1.008-1.26 1.368-.22.336-.22.672 0 1.008.24.336.68.792 1.33 1.368.53.456 1.2 1.02 2.01 1.692.84.672 1.74 1.416 2.7 2.232.99.792 1.98 1.62 2.99 2.484 1.03.84 2.02 1.68 2.95 2.52.96.816 1.82 1.584 2.56 2.304l-4.21 3.852a103.706 103.706 0 0 0-3.13-3.348 67.166 67.166 0 0 0-2.16-2.016 91.696 91.696 0 0 0-2.85-2.556c-1.01-.888-2.01-1.764-3.02-2.628-1.01-.888-1.92-1.68-2.74-2.376-1.2-1.008-1.98-1.932-2.34-2.772-.33-.84-.29-1.668.15-2.484.45-.84 1.28-1.752 2.48-2.736.72-.552 1.54-1.2 2.45-1.944.91-.768 1.85-1.548 2.81-2.34.96-.816 1.87-1.596 2.73-2.34.87-.768 1.6-1.44 2.2-2.016.53-.528 1.05-1.068 1.58-1.62s.93-1.032 1.19-1.44l4.21 3.708Z"/>
  </g>
  <defs>
    <clipPath id="a">
      <path fill="#fff" d="M0 0h1920v1080H0z"/>
    </clipPath>
  </defs>
</svg>
