<svg xmlns="http://www.w3.org/2000/svg" width="1920" height="1080" fill="none" viewBox="0 0 1920 1080">
  <g clip-path="url(#a)">
    <path fill="#fff" d="M1920 0H0v1080h1920V0Z"/>
    <path fill="#000" d="m677.552 106-3.28-13.6h-18.48l-3.36 13.6h-14.08l18.24-57.36h16.64l18.32 57.36h-14Zm-9.84-37.04c-.32-1.12-.64-2.293-.96-3.52a201.92 201.92 0 0 1-.96-3.84 511.862 511.862 0 0 1-.8-4.08 57.486 57.486 0 0 1-.8 4.16 201.92 201.92 0 0 1-.96 3.84 46.159 46.159 0 0 1-.88 3.44l-3.68 13.28h12.8l-3.76-13.28ZM720.195 106h-26.16v-6.88l6.64-3.2V58.96l-6.64-3.2v-6.88h26.16v6.88l-6.56 3.2v36.96l6.56 3.2V106Zm18.053-38.56h43.28v9.28h-43.28v-9.28Zm40.08 0h10.08V70c0 .64-.026 1.173-.08 1.6-.213 6.027-.453 11.227-.72 15.6-.266 4.32-.586 7.92-.96 10.8-.32 2.88-.72 5.173-1.2 6.88-.48 1.707-1.066 2.987-1.76 3.84-1.066 1.28-2.186 2.187-3.36 2.72-1.12.533-2.453.907-4 1.12-1.333.213-3.093.32-5.28.32-2.186.053-4.48.027-6.88-.08-.053-1.44-.373-3.093-.96-4.96-.586-1.813-1.306-3.387-2.16-4.72 2.24.16 4.32.267 6.24.32 1.92.053 3.36.08 4.32.08.747 0 1.36-.053 1.84-.16.48-.16.96-.48 1.44-.96.64-.693 1.147-2.213 1.52-4.56.427-2.4.8-5.92 1.12-10.56.32-4.693.587-10.747.8-18.16v-1.68Zm-31.12-28.4 10.4 3.04a90.07 90.07 0 0 1-7.12 13.44c-2.72 4.32-5.68 8.293-8.88 11.92-3.146 3.627-6.426 6.773-9.84 9.44-.586-.693-1.386-1.52-2.4-2.48a81.315 81.315 0 0 0-3.12-2.96c-1.013-.96-1.92-1.733-2.72-2.32 3.307-2.24 6.454-4.907 9.44-8a70.64 70.64 0 0 0 8.24-10.32c2.454-3.787 4.454-7.707 6-11.76Zm30.48-.16c1.28 2.56 2.827 5.173 4.64 7.84a100.942 100.942 0 0 0 5.92 7.84c2.187 2.507 4.4 4.88 6.64 7.12 2.294 2.24 4.534 4.187 6.72 5.84-.853.64-1.813 1.493-2.88 2.56a81.997 81.997 0 0 0-2.96 3.12 42.485 42.485 0 0 0-2.32 2.96c-2.24-2.08-4.506-4.4-6.8-6.96a180.641 180.641 0 0 1-6.8-8.24 151.615 151.615 0 0 1-6.24-9.04 141.98 141.98 0 0 1-5.36-9.28l9.44-3.76Zm-25.2 31.28h10.48c-.373 4.48-.986 8.853-1.84 13.12a45.13 45.13 0 0 1-4.24 12.08c-1.92 3.787-4.72 7.253-8.4 10.4-3.626 3.093-8.426 5.733-14.4 7.92-.373-.907-.906-1.893-1.6-2.96a58.028 58.028 0 0 0-2.24-3.2c-.8-1.013-1.6-1.893-2.4-2.64 5.387-1.707 9.654-3.813 12.8-6.32 3.147-2.56 5.52-5.333 7.12-8.32a32.438 32.438 0 0 0 3.28-9.68c.64-3.413 1.12-6.88 1.44-10.4Zm93.12-5.12h34.8v9.04h-34.8v-9.04Zm-4.8-21.44 11.44 3.2c-.106.747-.8 1.227-2.08 1.44v18.8c0 3.2-.16 6.773-.48 10.72-.266 3.893-.8 7.947-1.6 12.16-.8 4.16-2 8.24-3.6 12.24a42.357 42.357 0 0 1-6.24 10.88c-.426-.693-1.093-1.467-2-2.32a38.83 38.83 0 0 0-2.72-2.32c-.96-.747-1.84-1.28-2.64-1.6a39.485 39.485 0 0 0 5.36-9.44 56.07 56.07 0 0 0 2.96-10.4 89.166 89.166 0 0 0 1.28-10.4c.214-3.467.32-6.667.32-9.6V43.6Zm29.04-4.72 8.08 7.52c-3.093 1.227-6.453 2.4-10.08 3.52-3.626 1.067-7.306 2-11.04 2.8-3.733.8-7.386 1.467-10.96 2-.213-1.12-.64-2.453-1.28-4-.586-1.547-1.2-2.827-1.84-3.84 3.307-.64 6.614-1.36 9.92-2.16a132.078 132.078 0 0 0 9.44-2.8c2.987-1.013 5.574-2.027 7.76-3.04Zm-9.28 28.96h9.52v45.28h-9.52V67.84Zm-54.32-13.28h29.84v9.04h-29.84v-9.04ZM817.208 38h9.2v75.12h-9.2V38Zm-.4 22.72 5.6 1.92a107.07 107.07 0 0 1-2.32 10 110.298 110.298 0 0 1-3.2 10.08 93.18 93.18 0 0 1-3.84 9.28c-1.386 2.827-2.853 5.28-4.4 7.36-.426-1.387-1.093-2.933-2-4.64-.906-1.707-1.76-3.147-2.56-4.32 1.44-1.76 2.8-3.813 4.08-6.16a73.49 73.49 0 0 0 3.52-7.44 91.792 91.792 0 0 0 2.96-8.08 74.93 74.93 0 0 0 2.16-8Zm8.88 7.04c.534.533 1.334 1.493 2.4 2.88a196.513 196.513 0 0 1 3.52 4.32 117.069 117.069 0 0 1 3.28 4.32 184.976 184.976 0 0 1 2.16 2.88l-5.44 7.6c-.48-1.227-1.173-2.64-2.08-4.24a161.97 161.97 0 0 0-2.88-4.88c-1.013-1.707-2-3.307-2.96-4.8a251.225 251.225 0 0 0-2.32-3.76l4.32-4.32Zm104.24-16.56a246.87 246.87 0 0 1-2.08 12.96c-.853 4.587-2 9.227-3.44 13.92-1.546 5.387-3.36 10.027-5.44 13.92-2.08 3.893-4.373 6.907-6.88 9.04-2.453 2.08-5.146 3.12-8.08 3.12-2.933 0-5.653-.987-8.16-2.96-2.453-2.027-4.426-4.8-5.92-8.32-1.44-3.52-2.16-7.52-2.16-12 0-4.64.934-9.013 2.8-13.12 1.867-4.107 4.454-7.733 7.76-10.88 3.36-3.2 7.254-5.707 11.68-7.52 4.48-1.813 9.307-2.72 14.48-2.72 4.96 0 9.414.8 13.36 2.4 4 1.6 7.414 3.813 10.24 6.64 2.827 2.827 4.987 6.133 6.48 9.92 1.494 3.787 2.24 7.867 2.24 12.24 0 5.6-1.146 10.613-3.44 15.04-2.293 4.427-5.706 8.08-10.24 10.96-4.48 2.88-10.08 4.853-16.8 5.92l-6-9.52a54.317 54.317 0 0 0 4.08-.56 52.581 52.581 0 0 0 3.36-.72c2.56-.64 4.934-1.547 7.12-2.72 2.24-1.227 4.187-2.72 5.84-4.48 1.654-1.813 2.934-3.92 3.84-6.32.96-2.4 1.44-5.04 1.44-7.92 0-3.147-.48-6.027-1.44-8.64-.96-2.613-2.373-4.88-4.24-6.8-1.866-1.973-4.133-3.467-6.8-4.48-2.666-1.067-5.733-1.6-9.2-1.6-4.266 0-8.026.773-11.28 2.32-3.253 1.493-6 3.44-8.24 5.84s-3.946 4.987-5.12 7.76c-1.12 2.773-1.68 5.413-1.68 7.92 0 2.667.32 4.907.96 6.72.64 1.76 1.414 3.093 2.32 4 .96.853 1.974 1.28 3.04 1.28 1.12 0 2.214-.56 3.28-1.68 1.12-1.173 2.214-2.933 3.28-5.28 1.067-2.347 2.134-5.307 3.2-8.88 1.227-3.84 2.267-7.947 3.12-12.32a125.1 125.1 0 0 0 1.84-12.8l10.88.32Zm73.202 5.04h27.52v7.84h-27.52v-7.84Zm-13.762 46.4c2.4-.373 5.174-.827 8.32-1.36 3.202-.533 6.592-1.093 10.162-1.68 3.57-.64 7.12-1.28 10.64-1.92l.8 8.32c-4.64 1.067-9.31 2.107-14 3.12-4.69 1.067-8.962 2-12.802 2.8l-3.12-9.28Zm8.32-61.04h9.282v63.2h-9.282V41.6Zm5.442 0h31.92v37.44h-31.92V70.8h22.4V49.84h-22.4V41.6Zm16.64 31.92c1.01 4.8 2.4 9.253 4.16 13.36 1.76 4.053 4 7.627 6.72 10.72 2.72 3.093 6.05 5.493 10 7.2-.69.64-1.44 1.413-2.24 2.32-.8.96-1.57 1.947-2.32 2.96a31.6 31.6 0 0 0-1.68 2.88c-4.32-2.293-7.95-5.28-10.88-8.96-2.88-3.733-5.25-8.053-7.12-12.96s-3.39-10.293-4.56-16.16l7.92-1.36Zm11.6 6.08 7.52 5.2c-2.19 2.133-4.51 4.24-6.96 6.32-2.4 2.027-4.61 3.76-6.64 5.2l-5.92-4.56a77 77 0 0 0 4.08-3.68 85.192 85.192 0 0 0 4.32-4.32 68.089 68.089 0 0 0 3.6-4.16Zm-62.802-38.16h19.92v8.64h-10.96v63.12h-8.96V41.44Zm17.28 0h1.68l1.36-.32 6.56 3.76a1261.145 1261.145 0 0 1-4.96 15.2c-.853 2.56-1.706 4.88-2.56 6.96 2.614 3.093 4.294 6.027 5.04 8.8.8 2.72 1.2 5.253 1.2 7.6 0 2.667-.293 4.853-.88 6.56-.586 1.707-1.546 3.04-2.88 4-.64.48-1.386.853-2.24 1.12-.8.267-1.626.48-2.48.64-.746.107-1.626.16-2.64.16h-2.96c-.053-1.227-.266-2.667-.64-4.32-.32-1.653-.8-3.067-1.44-4.24.747.053 1.414.08 2 .08h1.68c.427 0 .827-.053 1.2-.16a8.26 8.26 0 0 0 1.2-.56c.48-.373.827-.933 1.04-1.68.267-.8.374-1.76.32-2.88 0-1.867-.4-4-1.2-6.4-.746-2.453-2.32-5.013-4.72-7.68a122.67 122.67 0 0 0 1.76-6c.64-2.187 1.227-4.373 1.76-6.56a571.5 571.5 0 0 0 1.6-6.24c.534-1.973.934-3.6 1.2-4.88v-2.96Zm77.922 20v5.76h37.84v-5.76h-37.84Zm0-12.96v5.76h37.84v-5.76h-37.84Zm-9.52-7.76h57.36v34.24h-57.36V40.72Zm39.44 29.12c1.76 2.4 4 4.64 6.72 6.72 2.77 2.08 5.87 3.92 9.28 5.52a63.05 63.05 0 0 0 10.8 3.68c-.69.64-1.44 1.44-2.24 2.4-.8.96-1.57 1.973-2.32 3.04a27.078 27.078 0 0 0-1.84 2.8 65.986 65.986 0 0 1-11.2-5.04 59.255 59.255 0 0 1-9.76-7.2c-2.93-2.773-5.44-5.76-7.52-8.96l8.08-2.96Zm-21.84 0 8.4 3.28c-2.13 3.04-4.72 5.92-7.76 8.64a61.307 61.307 0 0 1-9.84 7.28 57.876 57.876 0 0 1-11.04 5.2c-.43-.8-1.01-1.68-1.76-2.64-.75-.96-1.52-1.92-2.32-2.88-.8-.96-1.55-1.733-2.24-2.32a66.918 66.918 0 0 0 10.4-4.08c3.41-1.707 6.51-3.627 9.28-5.76 2.83-2.133 5.12-4.373 6.88-6.72Zm-5.68 14.64h9.84V90c0 1.92-.21 3.973-.64 6.16-.43 2.133-1.25 4.267-2.48 6.4s-3.07 4.16-5.52 6.08c-2.4 1.92-5.63 3.6-9.68 5.04-.37-.8-.96-1.68-1.76-2.64-.75-.96-1.55-1.92-2.4-2.88a30.25 30.25 0 0 0-2.4-2.32c3.36-1.067 6.03-2.267 8-3.6 2.03-1.333 3.52-2.72 4.48-4.16 1.01-1.44 1.68-2.88 2-4.32.37-1.493.56-2.88.56-4.16v-5.12Zm11.6-39.76h9.68v26.32h-9.68V44.72Zm12.72 39.92h10v28.24h-10V84.64Zm35.44-3.2h73.52v7.76h-73.52v-7.76Zm1.52-40.56h70v8.32h-70v-8.32Zm25.2 32.8 9.44 2.48a285.86 285.86 0 0 1-5.6 8.72c-1.97 3.04-3.95 5.973-5.92 8.8-1.92 2.827-3.71 5.307-5.36 7.44l-9.2-2.88a186.91 186.91 0 0 0 5.44-7.44c1.97-2.827 3.95-5.733 5.92-8.72 1.97-2.987 3.73-5.787 5.28-8.4Zm23.2 10.64 9.28 2.32c-2.03 4.747-4.59 8.693-7.68 11.84-3.09 3.147-6.85 5.707-11.28 7.68-4.37 1.973-9.47 3.493-15.28 4.56-5.81 1.12-12.43 1.973-19.84 2.56-.32-1.387-.83-2.853-1.52-4.4-.64-1.547-1.33-2.827-2.08-3.84 8.96-.373 16.64-1.2 23.04-2.48 6.45-1.28 11.76-3.36 15.92-6.24 4.16-2.88 7.31-6.88 9.44-12Zm-34.32 14.56 4.8-6.8c6.19 1.227 12.37 2.64 18.56 4.24 6.24 1.547 12.11 3.147 17.6 4.8 5.49 1.6 10.24 3.12 14.24 4.56l-5.76 7.84c-3.89-1.6-8.48-3.28-13.76-5.04-5.23-1.707-10.91-3.387-17.04-5.04a380.603 380.603 0 0 0-18.64-4.56Zm7.04-54.8h9.04v27.36h-9.04V44.08Zm18.08 0h9.12v27.36h-9.12V44.08Zm-26.48 17.2v7.44h45.2v-7.44h-45.2Zm-9.04-7.6h63.76v22.56h-63.76V53.68Zm89.92 9.2h43.2v8.56h-43.2v-8.56Zm16.8-10.4h8.96c-.16 5.76-.51 11.04-1.04 15.84-.48 4.747-1.44 9.04-2.88 12.88-1.39 3.787-3.52 7.147-6.4 10.08-2.83 2.88-6.67 5.333-11.52 7.36-.48-1.173-1.25-2.48-2.32-3.92-1.07-1.44-2.11-2.587-3.12-3.44 4.27-1.653 7.6-3.653 10-6 2.45-2.4 4.24-5.173 5.36-8.32 1.17-3.2 1.92-6.8 2.24-10.8.37-4.053.61-8.613.72-13.68Zm9.2 15.68c1.17 5.493 3.17 10.213 6 14.16 2.88 3.893 6.91 6.72 12.08 8.48a48.37 48.37 0 0 0-2.08 2.24 27.78 27.78 0 0 0-2.08 2.88c-.64.96-1.15 1.84-1.52 2.64-3.89-1.6-7.15-3.787-9.76-6.56-2.61-2.773-4.75-6.053-6.4-9.84-1.6-3.84-2.91-8.133-3.92-12.88l7.68-1.12Zm-38.64-26.72h68.72v71.6h-10.08v-62.4h-49.04v62.4h-9.6v-71.6Zm5.68 59.2h56.8v9.2h-56.8v-9.2Z"/>
    <path fill="#EF4444" stroke="#333" stroke-width="4" d="M600 540V240a299.993 299.993 0 0 1 235.62 114.59L600 540Z"/>
    <path fill="#3B82F6" stroke="#333" stroke-width="4" d="m600 540 235.62-185.41a300.001 300.001 0 0 1 54.16 263.93L600 540Z"/>
    <path fill="#10B981" stroke="#333" stroke-width="4" d="m600 540 289.78 78.52a300.002 300.002 0 0 1-133.35 177.46L600 540Z"/>
    <path fill="#F59E0B" stroke="#333" stroke-width="4" d="m600 540 156.43 255.98a299.995 299.995 0 0 1-264.6 23.92L600 540Z"/>
    <path fill="#6B7280" stroke="#333" stroke-width="4" d="M600 540 491.83 819.9a300.003 300.003 0 0 1-186.95-334.911A299.996 299.996 0 0 1 600 240v300Z"/>
    <path fill="#000" d="M661.509 321.76c0 1.96-.4 3.66-1.2 5.1-.8 1.44-1.86 2.62-3.18 3.54-1.32.92-2.8 1.6-4.44 2.04v.18c3.2.4 5.66 1.44 7.38 3.12 1.72 1.68 2.58 3.94 2.58 6.78 0 2.48-.58 4.72-1.74 6.72-1.16 1.96-2.96 3.52-5.4 4.68-2.4 1.12-5.52 1.68-9.36 1.68-2.4 0-4.54-.2-6.42-.6-1.88-.4-3.68-.98-5.4-1.74v-7.68c1.76.92 3.56 1.62 5.4 2.1 1.88.48 3.6.72 5.16.72 2.84 0 4.8-.56 5.88-1.68 1.12-1.12 1.68-2.7 1.68-4.74 0-1.2-.26-2.2-.78-3-.52-.84-1.44-1.46-2.76-1.86-1.28-.44-3.14-.66-5.58-.66h-2.76v-6.96h2.82c2.28 0 4.04-.24 5.28-.72 1.24-.52 2.1-1.2 2.58-2.04.52-.88.78-1.88.78-3 0-1.52-.42-2.7-1.26-3.54-.84-.88-2.12-1.32-3.84-1.32-1.24 0-2.4.18-3.48.54-1.08.32-2.04.72-2.88 1.2-.8.48-1.46.94-1.98 1.38l-4.2-6.24c1.08-.8 2.26-1.52 3.54-2.16 1.32-.64 2.8-1.14 4.44-1.5 1.68-.36 3.58-.54 5.7-.54 4.16 0 7.44.9 9.84 2.7 2.4 1.76 3.6 4.26 3.6 7.5Zm21.057 5.88c2.36 0 4.46.5 6.3 1.5 1.88 1 3.36 2.46 4.44 4.38 1.12 1.92 1.68 4.3 1.68 7.14 0 3.08-.6 5.74-1.8 7.98-1.2 2.24-3 3.96-5.4 5.16-2.4 1.2-5.4 1.8-9 1.8-2.2 0-4.26-.2-6.18-.6-1.88-.4-3.54-.98-4.98-1.74v-7.8c1.4.76 3.08 1.42 5.04 1.98 2 .52 3.84.78 5.52.78 1.52 0 2.8-.24 3.84-.72a4.855 4.855 0 0 0 2.34-2.22c.56-1 .84-2.28.84-3.84 0-2.12-.6-3.72-1.8-4.8-1.2-1.12-3.04-1.68-5.52-1.68-1.04 0-2.08.12-3.12.36-1.04.2-1.94.4-2.7.6l-3.72-1.92 1.56-21.84h22.38v7.68h-14.04l-.66 8.4 1.92-.36c.68-.16 1.7-.24 3.06-.24Zm26.217-16.08c3.2 0 5.68 1.18 7.44 3.54 1.76 2.32 2.64 5.6 2.64 9.84s-.84 7.56-2.52 9.96c-1.64 2.36-4.16 3.54-7.56 3.54-2.04 0-3.8-.54-5.28-1.62-1.44-1.08-2.56-2.62-3.36-4.62-.8-2.04-1.2-4.46-1.2-7.26 0-4.24.8-7.52 2.4-9.84 1.64-2.36 4.12-3.54 7.44-3.54Zm.12 6.12c-.84 0-1.44.6-1.8 1.8-.36 1.2-.54 3.04-.54 5.52 0 2.44.18 4.28.54 5.52.36 1.24.94 1.86 1.74 1.86.88 0 1.5-.62 1.86-1.86.36-1.24.54-3.08.54-5.52 0-2.48-.18-4.32-.54-5.52-.36-1.2-.96-1.8-1.8-1.8Zm29.46-5.52L716.043 355h-7.38l22.32-42.84h7.38Zm-.12 16.5c2.12 0 3.92.54 5.4 1.62 1.48 1.04 2.62 2.56 3.42 4.56.8 1.96 1.2 4.36 1.2 7.2 0 4.24-.84 7.56-2.52 9.96-1.64 2.36-4.14 3.54-7.5 3.54-2.04 0-3.8-.54-5.28-1.62-1.48-1.08-2.62-2.62-3.42-4.62-.8-2.04-1.2-4.46-1.2-7.26 0-4.24.82-7.52 2.46-9.84 1.68-2.36 4.16-3.54 7.44-3.54Zm.06 6.12c-.84 0-1.44.6-1.8 1.8-.36 1.2-.54 3.04-.54 5.52 0 2.44.18 4.28.54 5.52.36 1.24.96 1.86 1.8 1.86.84 0 1.44-.6 1.8-1.8.4-1.24.6-3.1.6-5.58s-.2-4.32-.6-5.52c-.4-1.2-1-1.8-1.8-1.8ZM786.949 532h-28.68v-6.3l9.96-10.86c2.04-2.24 3.64-4.1 4.8-5.58 1.2-1.52 2.04-2.88 2.52-4.08.52-1.24.78-2.56.78-3.96 0-1.72-.42-3-1.26-3.84-.8-.84-1.84-1.26-3.12-1.26-1.4 0-2.8.38-4.2 1.14-1.36.76-2.86 1.84-4.5 3.24l-5.28-5.82c1.2-1.08 2.46-2.08 3.78-3 1.32-.92 2.88-1.66 4.68-2.22 1.8-.6 3.96-.9 6.48-.9 2.68 0 5 .52 6.96 1.56 1.96 1 3.46 2.38 4.5 4.14 1.08 1.72 1.62 3.68 1.62 5.88 0 1.8-.26 3.44-.78 4.92s-1.28 2.94-2.28 4.38c-.96 1.44-2.12 2.94-3.48 4.5-1.36 1.52-2.88 3.24-4.56 5.16l-4.32 4.86-.06.42h16.44V532Zm19.617-27.36c2.36 0 4.46.5 6.3 1.5 1.88 1 3.36 2.46 4.44 4.38 1.12 1.92 1.68 4.3 1.68 7.14 0 3.08-.6 5.74-1.8 7.98-1.2 2.24-3 3.96-5.4 5.16-2.4 1.2-5.4 1.8-9 1.8-2.2 0-4.26-.2-6.18-.6-1.88-.4-3.54-.98-4.98-1.74v-7.8c1.4.76 3.08 1.42 5.04 1.98 2 .52 3.84.78 5.52.78 1.52 0 2.8-.24 3.84-.72a4.855 4.855 0 0 0 2.34-2.22c.56-1 .84-2.28.84-3.84 0-2.12-.6-3.72-1.8-4.8-1.2-1.12-3.04-1.68-5.52-1.68-1.04 0-2.08.12-3.12.36-1.04.2-1.94.4-2.7.6l-3.72-1.92 1.56-21.84h22.38v7.68h-14.04l-.66 8.4 1.92-.36c.68-.16 1.7-.24 3.06-.24Zm26.217-16.08c3.2 0 5.68 1.18 7.44 3.54 1.76 2.32 2.64 5.6 2.64 9.84s-.84 7.56-2.52 9.96c-1.64 2.36-4.16 3.54-7.56 3.54-2.04 0-3.8-.54-5.28-1.62-1.44-1.08-2.56-2.62-3.36-4.62-.8-2.04-1.2-4.46-1.2-7.26 0-4.24.8-7.52 2.4-9.84 1.64-2.36 4.12-3.54 7.44-3.54Zm.12 6.12c-.84 0-1.44.6-1.8 1.8-.36 1.2-.54 3.04-.54 5.52 0 2.44.18 4.28.54 5.52.36 1.24.94 1.86 1.74 1.86.88 0 1.5-.62 1.86-1.86.36-1.24.54-3.08.54-5.52 0-2.48-.18-4.32-.54-5.52-.36-1.2-.96-1.8-1.8-1.8Zm29.46-5.52L840.043 532h-7.38l22.32-42.84h7.38Zm-.12 16.5c2.12 0 3.92.54 5.4 1.62 1.48 1.04 2.62 2.56 3.42 4.56.8 1.96 1.2 4.36 1.2 7.2 0 4.24-.84 7.56-2.52 9.96-1.64 2.36-4.14 3.54-7.5 3.54-2.04 0-3.8-.54-5.28-1.62-1.48-1.08-2.62-2.62-3.42-4.62-.8-2.04-1.2-4.46-1.2-7.26 0-4.24.82-7.52 2.46-9.84 1.68-2.36 4.16-3.54 7.44-3.54Zm.06 6.12c-.84 0-1.44.6-1.8 1.8-.36 1.2-.54 3.04-.54 5.52 0 2.44.18 4.28.54 5.52.36 1.24.96 1.86 1.8 1.86.84 0 1.44-.6 1.8-1.8.4-1.24.6-3.1.6-5.58s-.2-4.32-.6-5.52c-.4-1.2-1-1.8-1.8-1.8Z"/>
    <path fill="#fff" d="M763.624 701h-23.9v-5.25l8.3-9.05c1.7-1.867 3.034-3.417 4-4.65 1-1.267 1.7-2.4 2.1-3.4a8.432 8.432 0 0 0 .65-3.3c0-1.433-.35-2.5-1.05-3.2-.666-.7-1.533-1.05-2.6-1.05-1.166 0-2.333.317-3.5.95-1.133.633-2.383 1.533-3.75 2.7l-4.4-4.85c1-.9 2.05-1.733 3.15-2.5 1.1-.767 2.4-1.383 3.9-1.85 1.5-.5 3.3-.75 5.4-.75 2.234 0 4.167.433 5.8 1.3 1.634.833 2.884 1.983 3.75 3.45.9 1.433 1.35 3.067 1.35 4.9 0 1.5-.216 2.867-.65 4.1-.433 1.233-1.066 2.45-1.9 3.65-.8 1.2-1.766 2.45-2.9 3.75a535.33 535.33 0 0 0-3.8 4.3l-3.6 4.05-.05.35h13.7V701Zm27.147-17.85c0 2.867-.216 5.433-.65 7.7-.4 2.267-1.083 4.2-2.05 5.8-.966 1.567-2.2 2.767-3.7 3.6-1.5.833-3.35 1.25-5.55 1.25-2.733 0-4.983-.733-6.75-2.2-1.766-1.467-3.066-3.567-3.9-6.3-.833-2.733-1.25-6.017-1.25-9.85 0-3.867.384-7.167 1.15-9.9.767-2.733 2.017-4.833 3.75-6.3 1.767-1.467 4.1-2.2 7-2.2 2.734 0 4.984.733 6.75 2.2 1.767 1.433 3.067 3.533 3.9 6.3.867 2.733 1.3 6.033 1.3 9.9Zm-15.8 0c0 2.7.1 4.967.3 6.8.234 1.8.634 3.167 1.2 4.1.567.9 1.35 1.35 2.35 1.35s1.767-.45 2.3-1.35c.567-.9.967-2.25 1.2-4.05.267-1.833.4-4.117.4-6.85 0-2.733-.133-5-.4-6.8-.233-1.833-.633-3.2-1.2-4.1-.533-.933-1.3-1.4-2.3-1.4-1 0-1.783.467-2.35 1.4-.566.9-.966 2.267-1.2 4.1-.2 1.8-.3 4.067-.3 6.8Zm26.848-18.35c2.666 0 4.733.983 6.2 2.95 1.466 1.933 2.2 4.667 2.2 8.2 0 3.533-.7 6.3-2.1 8.3-1.367 1.967-3.467 2.95-6.3 2.95-1.7 0-3.167-.45-4.4-1.35-1.2-.9-2.134-2.183-2.8-3.85-.667-1.7-1-3.717-1-6.05 0-3.533.666-6.267 2-8.2 1.366-1.967 3.433-2.95 6.2-2.95Zm.1 5.1c-.7 0-1.2.5-1.5 1.5-.3 1-.45 2.533-.45 4.6 0 2.033.15 3.567.45 4.6.3 1.033.783 1.55 1.45 1.55.733 0 1.25-.517 1.55-1.55.3-1.033.45-2.567.45-4.6 0-2.067-.15-3.6-.45-4.6-.3-1-.8-1.5-1.5-1.5Zm24.55-4.6-18.6 35.7h-6.15l18.6-35.7h6.15Zm-.1 13.75c1.766 0 3.266.45 4.5 1.35 1.233.867 2.183 2.133 2.85 3.8.666 1.633 1 3.633 1 6 0 3.533-.7 6.3-2.1 8.3-1.367 1.967-3.45 2.95-6.25 2.95-1.7 0-3.167-.45-4.4-1.35-1.234-.9-2.184-2.183-2.85-3.85-.667-1.7-1-3.717-1-6.05 0-3.533.683-6.267 2.05-8.2 1.4-1.967 3.466-2.95 6.2-2.95Zm.05 5.1c-.7 0-1.2.5-1.5 1.5-.3 1-.45 2.533-.45 4.6 0 2.033.15 3.567.45 4.6.3 1.033.8 1.55 1.5 1.55s1.2-.5 1.5-1.5c.333-1.033.5-2.583.5-4.65s-.167-3.6-.5-4.6c-.334-1-.834-1.5-1.5-1.5ZM598.917 797h-7.335v-20.475c.03-.75.045-1.53.045-2.34.03-.81.06-1.53.09-2.16-.24.18-.555.51-.945.99-.36.48-.735.885-1.125 1.215l-3.375 2.97-3.69-4.095 10.035-8.235h6.3V797Zm19.257-20.52c1.77 0 3.345.375 4.725 1.125 1.41.75 2.52 1.845 3.33 3.285.84 1.44 1.26 3.225 1.26 5.355 0 2.31-.45 4.305-1.35 5.985-.9 1.68-2.25 2.97-4.05 3.87-1.8.9-4.05 1.35-6.75 1.35-1.65 0-3.195-.15-4.635-.45-1.41-.3-2.655-.735-3.735-1.305v-5.85c1.05.57 2.31 1.065 3.78 1.485 1.5.39 2.88.585 4.14.585 1.14 0 2.1-.18 2.88-.54a3.641 3.641 0 0 0 1.755-1.665c.42-.75.63-1.71.63-2.88 0-1.59-.45-2.79-1.35-3.6-.9-.84-2.28-1.26-4.14-1.26-.78 0-1.56.09-2.34.27-.78.15-1.455.3-2.025.45l-2.79-1.44 1.17-16.38h16.785v5.76h-10.53l-.495 6.3 1.44-.27c.51-.12 1.275-.18 2.295-.18Zm19.663-12.06c2.4 0 4.26.885 5.58 2.655 1.32 1.74 1.98 4.2 1.98 7.38 0 3.18-.63 5.67-1.89 7.47-1.23 1.77-3.12 2.655-5.67 2.655-1.53 0-2.85-.405-3.96-1.215-1.08-.81-1.92-1.965-2.52-3.465-.6-1.53-.9-3.345-.9-5.445 0-3.18.6-5.64 1.8-7.38 1.23-1.77 3.09-2.655 5.58-2.655Zm.09 4.59c-.63 0-1.08.45-1.35 1.35-.27.9-.405 2.28-.405 4.14 0 1.83.135 3.21.405 4.14.27.93.705 1.395 1.305 1.395.66 0 1.125-.465 1.395-1.395.27-.93.405-2.31.405-4.14 0-1.86-.135-3.24-.405-4.14-.27-.9-.72-1.35-1.35-1.35Zm22.095-4.14L643.282 797h-5.535l16.74-32.13h5.535Zm-.09 12.375c1.59 0 2.94.405 4.05 1.215 1.11.78 1.965 1.92 2.565 3.42.6 1.47.9 3.27.9 5.4 0 3.18-.63 5.67-1.89 7.47-1.23 1.77-3.105 2.655-5.625 2.655-1.53 0-2.85-.405-3.96-1.215-1.11-.81-1.965-1.965-2.565-3.465-.6-1.53-.9-3.345-.9-5.445 0-3.18.615-5.64 1.845-7.38 1.26-1.77 3.12-2.655 5.58-2.655Zm.045 4.59c-.63 0-1.08.45-1.35 1.35-.27.9-.405 2.28-.405 4.14 0 1.83.135 3.21.405 4.14.27.93.72 1.395 1.35 1.395.63 0 1.08-.45 1.35-1.35.3-.93.45-2.325.45-4.185 0-1.86-.15-3.24-.45-4.14-.3-.9-.75-1.35-1.35-1.35ZM374.561 525.04c1.377 0 2.602.292 3.675.875 1.097.583 1.96 1.435 2.59 2.555.653 1.12.98 2.508.98 4.165 0 1.797-.35 3.348-1.05 4.655-.7 1.307-1.75 2.31-3.15 3.01-1.4.7-3.15 1.05-5.25 1.05-1.283 0-2.485-.117-3.605-.35-1.097-.233-2.065-.572-2.905-1.015v-4.55c.817.443 1.797.828 2.94 1.155 1.167.303 2.24.455 3.22.455.887 0 1.633-.14 2.24-.42a2.83 2.83 0 0 0 1.365-1.295c.327-.583.49-1.33.49-2.24 0-1.237-.35-2.17-1.05-2.8-.7-.653-1.773-.98-3.22-.98a8.07 8.07 0 0 0-1.82.21c-.607.117-1.132.233-1.575.35l-2.17-1.12.91-12.74h13.055v4.48h-8.19l-.385 4.9 1.12-.21c.397-.093.992-.14 1.785-.14Zm15.293-9.38c1.867 0 3.313.688 4.34 2.065 1.027 1.353 1.54 3.267 1.54 5.74 0 2.473-.49 4.41-1.47 5.81-.957 1.377-2.427 2.065-4.41 2.065-1.19 0-2.217-.315-3.08-.945-.84-.63-1.493-1.528-1.96-2.695-.467-1.19-.7-2.602-.7-4.235 0-2.473.467-4.387 1.4-5.74.957-1.377 2.403-2.065 4.34-2.065Zm.07 3.57c-.49 0-.84.35-1.05 1.05-.21.7-.315 1.773-.315 3.22 0 1.423.105 2.497.315 3.22.21.723.548 1.085 1.015 1.085.513 0 .875-.362 1.085-1.085.21-.723.315-1.797.315-3.22 0-1.447-.105-2.52-.315-3.22-.21-.7-.56-1.05-1.05-1.05Zm17.185-3.22L394.089 541h-4.305l13.02-24.99h4.305Zm-.07 9.625c1.237 0 2.287.315 3.15.945.863.607 1.528 1.493 1.995 2.66.467 1.143.7 2.543.7 4.2 0 2.473-.49 4.41-1.47 5.81-.957 1.377-2.415 2.065-4.375 2.065-1.19 0-2.217-.315-3.08-.945-.863-.63-1.528-1.528-1.995-2.695-.467-1.19-.7-2.602-.7-4.235 0-2.473.478-4.387 1.435-5.74.98-1.377 2.427-2.065 4.34-2.065Zm.035 3.57c-.49 0-.84.35-1.05 1.05-.21.7-.315 1.773-.315 3.22 0 1.423.105 2.497.315 3.22.21.723.56 1.085 1.05 1.085s.84-.35 1.05-1.05c.233-.723.35-1.808.35-3.255 0-1.447-.117-2.52-.35-3.22-.233-.7-.583-1.05-1.05-1.05Z"/>
    <path fill="#F3F4F6" stroke="#D1D5DB" stroke-width="2" d="M1785 300h-470c-8.28 0-15 6.716-15 15v450c0 8.284 6.72 15 15 15h470c8.28 0 15-6.716 15-15V315c0-8.284-6.72-15-15-15Z"/>
    <path fill="#EF4444" d="M1360 340h-30v30h30v-30Z"/>
    <path fill="#000" d="M1385.02 339.28c.6.064 1.27.117 2.02.16a70.4 70.4 0 0 0 1.92.032h17.66c.58-.021 1.01-.043 1.28-.064-.02.363-.04.832-.06 1.408-.02.555-.03 1.067-.03 1.536v16.576c0 .555.01 1.205.03 1.952.04.747.07 1.355.1 1.824h-4.64c.02-.469.03-.981.03-1.536.02-.576.03-1.152.03-1.728V343.6h-14.37c-.68 0-1.41.011-2.17.032-.75.021-1.35.053-1.8.096v-4.448Zm-.41 17.376c.55.043 1.17.085 1.85.128.71.043 1.42.064 2.15.064h17.28v4.192h-17.15c-.62 0-1.34.021-2.15.064-.79.043-1.45.085-1.98.128v-4.576Zm35.1-18.976c.56.384 1.21.853 1.95 1.408.75.555 1.52 1.163 2.31 1.824.81.64 1.57 1.269 2.27 1.888s1.28 1.173 1.73 1.664l-3.27 3.328c-.4-.448-.93-.981-1.6-1.6a65.25 65.25 0 0 0-2.14-1.92 96.77 96.77 0 0 0-2.27-1.888 40.705 40.705 0 0 0-1.99-1.504l3.01-3.2Zm-4 21.312a34.04 34.04 0 0 0 4.71-.992c1.47-.427 2.83-.917 4.09-1.472a37.927 37.927 0 0 0 3.46-1.728 30.85 30.85 0 0 0 4.99-3.712c1.51-1.387 2.84-2.827 3.97-4.32 1.13-1.515 2.02-2.987 2.69-4.416l2.49 4.512c-.81 1.429-1.81 2.859-3.01 4.288a33.613 33.613 0 0 1-4 4.096 33.865 33.865 0 0 1-4.83 3.456 38.896 38.896 0 0 1-3.52 1.888 35.343 35.343 0 0 1-4 1.536 28.18 28.18 0 0 1-4.35 1.088l-2.69-4.224Zm34.72-21.536c.54.085 1.11.149 1.73.192.62.021 1.18.032 1.7.032h12.86c.55 0 1.13-.011 1.73-.032.6-.043 1.17-.107 1.73-.192v4.128c-.56-.043-1.13-.075-1.73-.096a49.7 49.7 0 0 0-1.73-.032h-12.83c-.56 0-1.15.011-1.79.032-.62.021-1.18.053-1.67.096v-4.128Zm-3.71 8.192c.47.043.97.085 1.5.128a20.5 20.5 0 0 0 1.57.064h20.96c.34 0 .8-.011 1.38-.032.6-.043 1.11-.096 1.53-.16v4.16c-.38-.043-.85-.064-1.4-.064a40.62 40.62 0 0 0-1.51-.032h-20.96c-.47 0-.99.011-1.57.032-.55.021-1.05.053-1.5.096v-4.192Zm16.38 2.208c0 2.091-.18 3.968-.54 5.632-.36 1.643-.89 3.125-1.57 4.448-.38.725-.89 1.472-1.53 2.24a16.57 16.57 0 0 1-2.21 2.176 13.66 13.66 0 0 1-2.69 1.728l-3.74-2.72c1.13-.448 2.21-1.088 3.26-1.92 1.05-.832 1.89-1.717 2.53-2.656a11.144 11.144 0 0 0 1.63-4.096c.28-1.493.42-3.093.42-4.8l4.44-.032Zm24.55-8.704a9.76 9.76 0 0 0-.32-1.28c-.11-.384-.22-.768-.32-1.152l4.51-.736c.04.32.09.725.13 1.216.06.469.14.896.22 1.28.04.299.14.853.29 1.664.15.811.33 1.792.54 2.944.22 1.152.45 2.4.71 3.744.28 1.323.54 2.667.8 4.032.25 1.344.5 2.624.73 3.84.26 1.216.47 2.293.64 3.232.2.939.33 1.632.42 2.08.11.469.23.981.38 1.536s.3 1.088.45 1.6l-4.64.832c-.08-.597-.15-1.173-.19-1.728-.04-.533-.12-1.035-.22-1.504-.09-.427-.22-1.077-.39-1.952-.15-.896-.34-1.941-.57-3.136-.22-1.195-.45-2.464-.71-3.808-.25-1.344-.51-2.688-.77-4.032-.25-1.344-.5-2.603-.73-3.776-.22-1.173-.41-2.187-.58-3.04-.17-.875-.3-1.493-.38-1.856Zm-8.74 4.064 1.51-.064c.49-.043.98-.096 1.47-.16.47-.064 1.13-.149 1.98-.256.86-.128 1.84-.267 2.95-.416 1.11-.171 2.25-.352 3.42-.544 1.19-.192 2.35-.373 3.46-.544 1.11-.192 2.09-.363 2.94-.512l2.05-.352a90.46 90.46 0 0 1 1.6-.32c.55-.128 1.02-.245 1.41-.352l.76 4.192c-.34.021-.8.075-1.37.16-.58.085-1.1.16-1.57.224-.58.085-1.33.203-2.27.352-.92.149-1.94.32-3.07.512-1.13.171-2.29.352-3.46.544-1.17.171-2.29.352-3.36.544-1.07.171-2.01.32-2.82.448l-1.82.288c-.51.107-.99.213-1.44.32a20 20 0 0 0-1.5.352l-.87-4.416Zm.03 9.408c.43-.021.96-.064 1.6-.128.67-.085 1.24-.16 1.73-.224.58-.085 1.35-.203 2.31-.352.96-.149 2.03-.32 3.23-.512 1.21-.192 2.46-.384 3.74-.576 1.28-.213 2.53-.427 3.75-.64 1.21-.213 2.32-.405 3.32-.576 1.01-.171 1.82-.309 2.44-.416.61-.128 1.2-.256 1.76-.384.57-.128 1.07-.256 1.5-.384l.86 4.224c-.42.021-.95.085-1.56.192-.6.085-1.21.181-1.83.288-.68.107-1.53.245-2.56.416-1.02.171-2.15.363-3.39.576-1.22.192-2.46.395-3.74.608-1.28.192-2.51.395-3.68.608-1.18.192-2.23.363-3.17.512-.94.149-1.68.277-2.21.384-.68.128-1.3.245-1.86.352a15.9 15.9 0 0 0-1.34.32l-.9-4.288Zm54.78-12.32c-.13.192-.32.491-.58.896-.23.405-.41.779-.54 1.12-.45 1.003-1 2.123-1.66 3.36a41.344 41.344 0 0 1-2.21 3.744 37.23 37.23 0 0 1-2.59 3.488 55.084 55.084 0 0 1-3.97 4 44.015 44.015 0 0 1-4.55 3.616 35.246 35.246 0 0 1-4.86 2.816l-3.3-3.456a29.65 29.65 0 0 0 5.03-2.496 37.95 37.95 0 0 0 4.51-3.264c1.39-1.173 2.58-2.315 3.58-3.424a26.21 26.21 0 0 0 1.99-2.592 29.39 29.39 0 0 0 1.69-2.72c.49-.917.86-1.76 1.09-2.528h-10.85c-.44 0-.91.021-1.4.064-.5.021-.96.053-1.41.096-.43.021-.76.043-.99.064v-4.544c.32.021.71.053 1.18.096a30.337 30.337 0 0 0 2.62.128h11.3c.7 0 1.34-.043 1.92-.128.6-.085 1.06-.181 1.38-.288l2.62 1.952Zm-7.17 9.952c.83.661 1.72 1.429 2.66 2.304.94.875 1.86 1.781 2.78 2.72.92.939 1.76 1.845 2.53 2.72.79.853 1.45 1.6 1.98 2.24l-3.64 3.168a49.866 49.866 0 0 0-2.72-3.392 72.79 72.79 0 0 0-3.2-3.488 59.69 59.69 0 0 0-3.4-3.328l3.01-2.944Zm22.53 8.672v-18.4c0-.555-.03-1.195-.1-1.92-.04-.725-.11-1.365-.22-1.92h4.99c-.06.555-.13 1.173-.19 1.856-.06.661-.1 1.323-.1 1.984v18.4c0 .299.01.725.04 1.28.02.533.06 1.088.12 1.664.07.576.11 1.088.13 1.536h-4.99c.08-.64.16-1.387.22-2.24.07-.853.1-1.6.1-2.24Zm3.42-13.952c1.07.277 2.26.64 3.59 1.088 1.32.427 2.65.885 4 1.376 1.34.491 2.6.981 3.77 1.472 1.2.469 2.19.907 2.98 1.312l-1.82 4.416c-.9-.469-1.89-.939-2.98-1.408-1.09-.491-2.2-.96-3.33-1.408a83.887 83.887 0 0 0-3.29-1.248c-1.07-.384-2.04-.725-2.92-1.024v-4.576Zm34.98.16v2.72h9.66v-2.72h-9.66Zm0-5.728v2.688h9.66v-2.688h-9.66Zm-3.49-3.232h16.83v14.944h-16.83v-14.944Zm-.19 17.696h17.34v3.456h-17.34v-3.456Zm-2.24 6.496h20.67v3.488h-20.67v-3.488Zm-9.38-23.712h10.63v3.552h-10.63v-3.552Zm.29 9.216h9.79v3.52h-9.79v-3.52Zm-.67 12.16c.94-.256 1.98-.544 3.14-.864 1.17-.341 2.41-.715 3.71-1.12 1.3-.427 2.58-.843 3.84-1.248l.67 3.648c-1.79.597-3.61 1.205-5.44 1.824-1.84.619-3.52 1.173-5.06 1.664l-.86-3.904Zm3.9-19.968h3.68v19.648l-3.68.608v-20.256Zm15.08-.512h3.23v12.032h.35V362h-3.94v-12.416h.36v-12.032Zm16.8 5.504h8.89v2.816h-8.89v-2.816Zm0 5.216h8.89v2.72h-8.89v-2.72Zm0 5.376h8.89v2.816h-8.89v-2.816Zm13.88-3.648h12.04v3.232h-12.04V350Zm-12.28-12.224h5.05v2.912h-5.05v-2.912Zm9.85-1.344h11.91v3.168h-11.91v-3.168Zm.03 19.712h15.08v3.296h-15.08v-3.296Zm5.96-9.024h3.64v17.632h-3.64V347.12Zm-13.96-2.592h2.53v10.176h-2.53v-10.176Zm18.85-8.096h3.39l-.03.48c0 .299-.01.555-.03.768a87.96 87.96 0 0 1-.19 4.192c-.09 1.109-.21 1.984-.35 2.624-.15.64-.35 1.099-.58 1.376-.26.32-.54.555-.86.704-.32.149-.69.267-1.09.352-.37.043-.83.075-1.41.096-.58 0-1.2-.011-1.86-.032a7.585 7.585 0 0 0-.25-1.6c-.15-.597-.35-1.099-.61-1.504.51.043.97.075 1.38.096.4.021.71.032.92.032.2 0 .36-.011.48-.032a.737.737 0 0 0 .39-.288c.13-.149.23-.459.32-.928.08-.491.16-1.205.22-2.144.07-.939.12-2.176.16-3.712v-.48Zm-9.12 10.912 3.14.64a26.257 26.257 0 0 1-1.19 4.256c-.49 1.387-1.04 2.549-1.66 3.488-.21-.149-.49-.32-.83-.512-.34-.192-.7-.373-1.06-.544-.36-.171-.67-.309-.93-.416.62-.853 1.14-1.899 1.57-3.136.43-1.237.75-2.496.96-3.776Zm-12.38-12.576 3.42.768c-.4 1.451-.88 2.88-1.44 4.288a31.655 31.655 0 0 1-1.85 3.936c-.67 1.216-1.38 2.283-2.15 3.2-.19-.192-.46-.427-.8-.704-.34-.299-.68-.587-1.02-.864a5.053 5.053 0 0 0-.93-.672c1.09-1.195 2.05-2.667 2.88-4.416a26.813 26.813 0 0 0 1.89-5.536Zm-2.24 8.288h3.07v8.48c0 1.024-.04 2.123-.13 3.296a34.729 34.729 0 0 1-.38 3.584 21.434 21.434 0 0 1-.8 3.488 13.47 13.47 0 0 1-1.44 3.04c-.17-.192-.43-.405-.77-.64-.32-.213-.66-.427-1.02-.64a9.295 9.295 0 0 0-.9-.448 12.22 12.22 0 0 0 1.6-3.68c.34-1.365.55-2.741.64-4.128.08-1.408.13-2.709.13-3.904v-8.448Zm9.25 0h3.16v18.112c0 .768-.08 1.397-.25 1.888-.17.491-.5.875-.99 1.152-.5.277-1.08.448-1.76.512-.69.085-1.53.128-2.53.128-.05-.469-.18-1.024-.42-1.664a9.91 9.91 0 0 0-.67-1.6c.64.021 1.24.043 1.79.064h1.15c.2 0 .32-.032.39-.096.08-.085.13-.235.13-.448v-18.048Zm7.48-5.568h3.43a22.38 22.38 0 0 1-.77 4.32 9.277 9.277 0 0 1-1.82 3.488c-.86 1.024-2.07 1.888-3.65 2.592-.19-.405-.49-.875-.9-1.408-.38-.533-.76-.939-1.12-1.216 1.28-.533 2.24-1.184 2.88-1.952a6.55 6.55 0 0 0 1.38-2.624c.27-.981.47-2.048.57-3.2Zm-9.6.288h.74l.48-.128 2.21 1.344a33.415 33.415 0 0 1-1.38 3.264 36.67 36.67 0 0 1-1.57 2.912c-.32-.235-.71-.491-1.18-.768-.45-.277-.84-.501-1.18-.672.25-.512.5-1.077.73-1.696.26-.64.48-1.28.67-1.92a15.2 15.2 0 0 0 .48-1.728v-.608Zm23.81-.832h27.91v3.936h-27.91v-3.936Zm15.46 10.752 2.97-2.496c.86.619 1.77 1.301 2.76 2.048 1 .725 1.99 1.483 2.97 2.272 1 .789 1.93 1.568 2.79 2.336.85.747 1.57 1.429 2.17 2.048l-3.26 2.976c-.54-.64-1.22-1.344-2.05-2.112-.81-.789-1.7-1.6-2.66-2.432a67.092 67.092 0 0 0-2.91-2.432 287.64 287.64 0 0 0-2.78-2.208Zm-1.28-9.28 4.25 1.504a45.05 45.05 0 0 1-4.35 6.56 41.908 41.908 0 0 1-5.63 5.92 35.884 35.884 0 0 1-6.82 4.608 10.33 10.33 0 0 0-.76-1.152c-.32-.427-.66-.843-1-1.248-.32-.427-.62-.789-.89-1.088a27.171 27.171 0 0 0 4.89-2.88 35.48 35.48 0 0 0 4.26-3.744 33.689 33.689 0 0 0 3.49-4.16 30.852 30.852 0 0 0 2.56-4.32Zm-2.34 7.744 4.19-4.192v22.848h-4.19V346.16Zm34.08 5.664h12.71v3.552h-12.71v-3.552Zm-6.56 1.792c.58 1.536 1.32 2.784 2.24 3.744.94.939 2.01 1.664 3.2 2.176 1.2.512 2.5.864 3.91 1.056 1.42.192 2.91.288 4.44.288h6.56a38.37 38.37 0 0 1 1.38-.032c-.19.277-.38.64-.58 1.088-.17.448-.32.907-.44 1.376-.13.469-.24.885-.32 1.248h-6.82c-1.96 0-3.79-.139-5.47-.416-1.69-.256-3.23-.736-4.64-1.44-1.39-.704-2.64-1.685-3.75-2.944-1.11-1.28-2.06-2.933-2.84-4.96l3.13-1.184Zm4.83-6.688h3.97v15.808l-3.97-1.248v-14.56Zm-5.4-7.072v4.384h14.75v-4.384h-14.75Zm-3.84-3.68h22.65v11.712h-22.65v-11.712Zm1.4 13.6 4 .48a48.92 48.92 0 0 1-1.24 5.408 25.246 25.246 0 0 1-2.08 5.12c-.88 1.579-1.98 2.901-3.3 3.968a8.62 8.62 0 0 0-.8-.896c-.32-.32-.65-.64-.99-.96-.34-.299-.65-.544-.93-.736a10.369 10.369 0 0 0 2.82-3.424 19.05 19.05 0 0 0 1.66-4.384c.4-1.579.69-3.104.86-4.576Z"/>
    <path fill="#666" d="M1393.8 376.684c0 .896-.16 1.671-.5 2.324a4.126 4.126 0 0 1-1.46 1.596c-.61.411-1.34.7-2.18.868v.112c1.61.187 2.8.691 3.58 1.512.79.821 1.18 1.895 1.18 3.22 0 1.157-.27 2.193-.81 3.108-.54.896-1.38 1.596-2.52 2.1-1.12.504-2.57.756-4.34.756-1.05 0-2.02-.084-2.91-.252a9.011 9.011 0 0 1-2.58-.84v-2.296c.84.411 1.75.737 2.72.98.97.224 1.9.336 2.8.336 1.79 0 3.08-.345 3.86-1.036.8-.709 1.2-1.68 1.2-2.912 0-.84-.22-1.512-.67-2.016-.43-.523-1.06-.905-1.9-1.148-.84-.243-1.85-.364-3.03-.364h-1.93v-2.1h1.96c1.1 0 2.02-.159 2.75-.476.74-.317 1.3-.756 1.68-1.316.39-.579.58-1.241.58-1.988 0-.971-.32-1.717-.98-2.24-.65-.541-1.54-.812-2.66-.812-.71 0-1.35.075-1.93.224a6.65 6.65 0 0 0-1.62.588c-.49.243-.98.532-1.49.868l-1.23-1.68c.49-.373 1.04-.719 1.65-1.036.64-.317 1.34-.569 2.1-.756.77-.187 1.6-.28 2.5-.28 2.09 0 3.64.467 4.64 1.4 1.03.933 1.54 2.119 1.54 3.556Zm9.92 3.052c1.37 0 2.55.233 3.56.7 1.01.467 1.78 1.139 2.32 2.016.56.859.84 1.913.84 3.164 0 1.381-.3 2.576-.89 3.584-.6.989-1.46 1.755-2.58 2.296-1.1.523-2.43.784-4 .784-1.03 0-2-.093-2.91-.28-.9-.187-1.66-.457-2.27-.812v-2.324c.67.411 1.48.737 2.43.98.97.224 1.9.336 2.78.336.98 0 1.84-.149 2.57-.448.75-.317 1.33-.793 1.74-1.428.41-.653.61-1.465.61-2.436 0-1.307-.4-2.305-1.2-2.996-.8-.709-2.07-1.064-3.81-1.064-.52 0-1.12.047-1.79.14-.67.093-1.21.187-1.62.28l-1.24-.784.76-9.436h10.02v2.24h-7.92l-.48 5.796c.32-.056.75-.121 1.29-.196a13.11 13.11 0 0 1 1.79-.112Zm13.79-8.008c1.38 0 2.42.551 3.13 1.652.71 1.083 1.07 2.613 1.07 4.592 0 1.979-.35 3.528-1.04 4.648-.67 1.101-1.73 1.652-3.16 1.652-.88 0-1.63-.252-2.24-.756-.62-.504-1.09-1.223-1.4-2.156-.3-.952-.45-2.081-.45-3.388 0-1.979.33-3.509.98-4.592.65-1.101 1.69-1.652 3.11-1.652Zm0 1.736c-.71 0-1.24.383-1.57 1.148-.32.747-.48 1.867-.48 3.36 0 1.493.16 2.623.48 3.388.33.765.86 1.148 1.57 1.148.72 0 1.27-.373 1.62-1.12.36-.765.53-1.904.53-3.416 0-1.493-.17-2.613-.53-3.36-.35-.765-.9-1.148-1.62-1.148Zm12.79-1.456L1419.21 392h-2.15l11.09-19.992h2.15Zm-.56 7.728c.92 0 1.68.252 2.3.756.61.485 1.08 1.195 1.4 2.128.33.915.5 2.035.5 3.36 0 1.979-.34 3.528-1.03 4.648-.68 1.101-1.73 1.652-3.17 1.652-.87 0-1.62-.252-2.24-.756-.61-.504-1.08-1.223-1.4-2.156-.3-.952-.45-2.081-.45-3.388 0-1.979.33-3.509.98-4.592.66-1.101 1.69-1.652 3.11-1.652Zm0 1.764c-.71 0-1.23.373-1.57 1.12-.31.747-.47 1.867-.47 3.36 0 1.512.16 2.651.47 3.416.34.747.86 1.12 1.57 1.12.73 0 1.27-.373 1.63-1.12.35-.747.53-1.885.53-3.416 0-1.493-.18-2.613-.53-3.36-.36-.747-.9-1.12-1.63-1.12Z"/>
    <path fill="#3B82F6" d="M1360 420h-30v30h30v-30Z"/>
    <path fill="#000" d="M1393.86 414.832h3.84v8.704c0 .597.12.971.38 1.12.28.149.87.224 1.79.224h5.6c.54 0 .93-.085 1.19-.256.27-.171.47-.523.57-1.056.13-.533.23-1.323.29-2.368.41.277.96.555 1.66.832.71.256 1.32.437 1.83.544-.15 1.515-.41 2.699-.77 3.552-.36.832-.9 1.408-1.6 1.728-.7.32-1.67.48-2.91.48h-6.21c-1.49 0-2.66-.139-3.49-.416-.81-.277-1.37-.768-1.69-1.472-.32-.704-.48-1.664-.48-2.88v-8.736Zm12.38 1.376 2.85 2.784c-1.18.469-2.47.917-3.87 1.344a86.22 86.22 0 0 1-4.32 1.12c-1.45.341-2.86.64-4.23.896-.08-.405-.24-.885-.48-1.44a23.06 23.06 0 0 0-.64-1.408c1.28-.277 2.57-.587 3.87-.928 1.33-.363 2.57-.747 3.75-1.152 1.19-.427 2.22-.832 3.07-1.216Zm-12.45 13.984h15.65v14.528h-3.81v-11.392h-8.19v11.52h-3.65v-14.656Zm1.92 5.12h11.2v2.976h-11.2v-2.976Zm-.13 5.088h11.33v3.072h-11.33V440.4Zm-14.91-9.248c1-.213 2.14-.469 3.39-.768 1.28-.299 2.62-.619 4-.96 1.41-.363 2.81-.725 4.2-1.088l.48 3.52c-1.92.533-3.87 1.056-5.83 1.568-1.94.512-3.71.981-5.31 1.408l-.93-3.68Zm.51-10.304h11.04v3.552h-11.04v-3.552Zm4-6.048h3.75v25.92c0 .939-.1 1.664-.29 2.176-.19.512-.57.928-1.12 1.248-.53.277-1.19.459-1.98.544-.79.085-1.75.128-2.88.128-.07-.491-.21-1.077-.42-1.76-.19-.683-.41-1.269-.64-1.76.62.021 1.22.043 1.79.064h1.19c.21-.021.36-.075.44-.16.11-.085.16-.235.16-.448V414.8Zm40.84 11.904h4.19v13.664c0 1.067-.14 1.899-.42 2.496-.28.597-.79 1.045-1.53 1.344-.75.299-1.66.48-2.72.544-1.07.085-2.3.128-3.68.128-.09-.597-.27-1.291-.55-2.08a13.26 13.26 0 0 0-.83-2.016l1.89.064c.66.021 1.25.032 1.76.032h1.09c.29 0 .5-.043.6-.128.13-.107.2-.267.2-.48v-13.568Zm-7.72 4.032 4.07 1.056a27.574 27.574 0 0 1-1.73 3.776 38.07 38.07 0 0 1-2.11 3.488 24.487 24.487 0 0 1-2.27 2.848c-.26-.213-.61-.469-1.06-.768-.43-.299-.86-.587-1.31-.864a14.36 14.36 0 0 0-1.19-.672c1.16-1.045 2.23-2.368 3.24-3.968 1-1.6 1.79-3.232 2.36-4.896Zm15.17 1.376 3.62-1.472c.7.981 1.41 2.048 2.11 3.2.7 1.131 1.34 2.261 1.92 3.392.58 1.109 1.01 2.123 1.31 3.04l-4 1.728c-.23-.875-.62-1.877-1.15-3.008a39.374 39.374 0 0 0-1.79-3.52 54.247 54.247 0 0 0-2.02-3.36Zm-16.83-15.232h22.69v3.808h-22.69v-3.808Zm-2.91 7.712h28.61v3.808h-28.61v-3.808Zm49.18-4.512a97.1 97.1 0 0 1-.83 5.184c-.34 1.835-.8 3.691-1.38 5.568-.61 2.155-1.34 4.011-2.17 5.568-.83 1.557-1.75 2.763-2.75 3.616-.99.832-2.06 1.248-3.24 1.248-1.17 0-2.26-.395-3.26-1.184-.98-.811-1.77-1.92-2.37-3.328-.57-1.408-.86-3.008-.86-4.8 0-1.856.37-3.605 1.12-5.248a13.82 13.82 0 0 1 3.1-4.352 14.95 14.95 0 0 1 4.67-3.008c1.8-.725 3.73-1.088 5.8-1.088 1.98 0 3.76.32 5.34.96 1.6.64 2.97 1.525 4.1 2.656a11.571 11.571 0 0 1 2.59 3.968c.6 1.515.89 3.147.89 4.896 0 2.24-.45 4.245-1.37 6.016-.92 1.771-2.28 3.232-4.1 4.384-1.79 1.152-4.03 1.941-6.72 2.368l-2.4-3.808a21.8 21.8 0 0 0 1.63-.224c.47-.085.92-.181 1.35-.288 1.02-.256 1.97-.619 2.85-1.088a9.375 9.375 0 0 0 2.33-1.792 7.788 7.788 0 0 0 1.54-2.528c.38-.96.57-2.016.57-3.168 0-1.259-.19-2.411-.57-3.456-.39-1.045-.95-1.952-1.7-2.72-.74-.789-1.65-1.387-2.72-1.792-1.06-.427-2.29-.64-3.68-.64-1.7 0-3.21.309-4.51.928-1.3.597-2.4 1.376-3.3 2.336-.89.96-1.57 1.995-2.04 3.104-.45 1.109-.68 2.165-.68 3.168 0 1.067.13 1.963.39 2.688.25.704.56 1.237.93 1.6.38.341.79.512 1.21.512.45 0 .89-.224 1.31-.672.45-.469.89-1.173 1.32-2.112.42-.939.85-2.123 1.28-3.552.49-1.536.9-3.179 1.24-4.928.35-1.749.59-3.456.74-5.12l4.35.128Zm29.7 14.112h9.76v2.432h-9.76v-2.432Zm-5.25-11.648h19.23v5.216h-3.29v-2.336h-12.8v2.336h-3.14v-5.216Zm1.31-2.4 2.79-.832c.32.448.6.96.86 1.536.28.576.47 1.067.58 1.472l-2.95.928c-.08-.427-.24-.928-.48-1.504-.23-.576-.5-1.109-.8-1.6Zm5.79-.48 2.92-.672c.25.512.49 1.077.7 1.696.23.597.36 1.12.38 1.568l-3.07.736c-.02-.469-.13-1.013-.32-1.632-.17-.619-.37-1.184-.61-1.696Zm6.63 8.48 2.37-1.376c.68.64 1.35 1.376 2.01 2.208.68.811 1.18 1.547 1.47 2.208l-2.52 1.504a9.87 9.87 0 0 0-.84-1.44c-.36-.533-.76-1.067-1.21-1.6-.43-.555-.86-1.056-1.28-1.504Zm2.46-12.928 2.15 2.72c-1.2.235-2.51.448-3.94.64-1.43.171-2.91.32-4.45.448-1.53.128-3.07.235-4.61.32-1.51.085-2.98.139-4.41.16-.04-.405-.15-.875-.32-1.408-.17-.533-.34-.981-.51-1.344 1.4-.043 2.84-.107 4.32-.192 1.47-.107 2.91-.224 4.32-.352 1.43-.149 2.77-.299 4.03-.448 1.28-.171 2.42-.352 3.42-.544Zm-2.37 18.976h.68l.57-.096 2.15.992a13.78 13.78 0 0 1-2.82 3.904 17.011 17.011 0 0 1-3.97 2.784 25.182 25.182 0 0 1-4.8 1.888c-1.73.512-3.53.917-5.41 1.216-.12-.427-.35-.939-.67-1.536-.3-.576-.58-1.045-.86-1.408 1.7-.192 3.35-.48 4.93-.864 1.57-.384 3.04-.864 4.38-1.44 1.34-.597 2.52-1.312 3.52-2.144 1-.832 1.77-1.781 2.3-2.848v-.448Zm-8.06 1.632c.81 1.173 1.9 2.187 3.26 3.04 1.39.832 3.01 1.504 4.87 2.016 1.88.512 3.93.875 6.17 1.088-.36.341-.74.8-1.15 1.376-.38.597-.68 1.131-.89 1.6-2.37-.32-4.52-.832-6.44-1.536-1.92-.683-3.61-1.579-5.08-2.688a15.178 15.178 0 0 1-3.65-4l2.91-.896Zm.51-3.968 3.11.992c-.67.939-1.45 1.824-2.37 2.656-.9.832-1.86 1.6-2.88 2.304a26.59 26.59 0 0 1-3.07 1.824c-.17-.213-.4-.469-.68-.768-.27-.299-.56-.597-.86-.896-.3-.299-.57-.533-.8-.704a23.564 23.564 0 0 0 4.29-2.336c1.38-.939 2.47-1.963 3.26-3.072Zm-1.05-4.928h2.88v2.56c0 .32.05.523.16.608.1.085.36.128.76.128h2.44c.21 0 .37-.043.48-.128.12-.085.22-.256.28-.512.07-.277.11-.693.13-1.248.28.213.66.416 1.15.608.52.171.96.299 1.35.384-.13 1.323-.42 2.208-.87 2.656-.44.448-1.16.672-2.14.672h-3.23c-.92 0-1.62-.096-2.11-.288-.49-.192-.84-.512-1.03-.96-.17-.469-.25-1.109-.25-1.92v-2.56Zm-3.01.128 2.59 1.024c-.28.811-.63 1.621-1.06 2.432-.4.811-.92 1.493-1.56 2.048l-2.47-1.536c.56-.491 1.06-1.099 1.51-1.824.44-.747.77-1.461.99-2.144Zm5.12-.768 1.82-1.568c.64.299 1.28.693 1.92 1.184.64.469 1.14.907 1.51 1.312l-1.92 1.76c-.37-.448-.87-.928-1.51-1.44-.64-.512-1.25-.928-1.82-1.248Zm-14.79-9.536h6.66v21.6h-6.66v-3.36h3.52v-14.88h-3.52v-3.36Zm.1 9.024h4.83v3.328H1480v-3.328Zm-2.02-9.024h3.11v24.064h-3.11v-24.064Zm24.32 1.984 3.33.992c-.49.811-.98 1.611-1.47 2.4-.49.768-.94 1.429-1.34 1.984l-2.66-.928a33.455 33.455 0 0 0 1.5-2.976c.26-.555.47-1.045.64-1.472Zm18.21 8.512h18.37v3.648h-18.37v-3.648Zm.83-7.616h16.77v3.648h-16.77v-3.648Zm6.24-4.544h3.88v29.664h-3.88v-29.664Zm-.32 14.4 3.17.96a33.31 33.31 0 0 1-2.49 5.216c-.99 1.664-2.09 3.168-3.33 4.512-1.22 1.344-2.54 2.475-3.97 3.392-.19-.32-.45-.683-.77-1.088-.32-.384-.65-.768-.99-1.152a6.45 6.45 0 0 0-.99-.928 18.158 18.158 0 0 0 3.87-2.816 22.99 22.99 0 0 0 3.2-3.776 23.608 23.608 0 0 0 2.3-4.32Zm4.55-.128a23.937 23.937 0 0 0 1.98 4.096 28.372 28.372 0 0 0 2.69 3.744 18.781 18.781 0 0 0 3.07 2.912c-.3.213-.63.501-.99.864-.34.363-.67.736-.99 1.12-.32.405-.59.779-.8 1.12-1.09-.981-2.11-2.155-3.07-3.52a36.9 36.9 0 0 1-2.66-4.512 45.169 45.169 0 0 1-2.05-4.928l2.82-.896Zm-19.94-12.224h7.81v21.792h-7.81v-3.488h4.26v-14.784h-4.26v-3.52Zm.07 9.184h6.11v3.424h-6.11v-3.424Zm-1.99-9.184h3.52v24.512h-3.52v-24.512Zm46.27 2.144c-.12-.363-.27-.811-.44-1.344a25.68 25.68 0 0 0-.58-1.6l4.32-.512c.17.832.36 1.664.58 2.496.21.811.44 1.611.7 2.4.26.768.51 1.493.77 2.176a33.431 33.431 0 0 0 1.73 3.904c.68 1.259 1.28 2.251 1.79 2.976.28.405.55.789.83 1.152.3.341.6.672.9.992l-1.99 2.88c-.45-.085-1.01-.171-1.69-.256-.69-.107-1.43-.203-2.24-.288-.79-.085-1.59-.171-2.4-.256-.79-.085-1.52-.149-2.18-.192l.32-3.392c.53.043 1.1.096 1.7.16.59.043 1.15.085 1.66.128.53.043.97.075 1.31.096-.38-.619-.79-1.323-1.21-2.112a42.154 42.154 0 0 1-2.37-5.088c-.34-.896-.64-1.707-.9-2.432-.23-.725-.44-1.355-.61-1.888Zm-11.64 1.504c1.98.235 3.85.395 5.6.48 1.75.085 3.38.107 4.89.064 1.52-.043 2.9-.139 4.16-.288.98-.128 1.93-.267 2.85-.416.94-.149 1.86-.331 2.75-.544.92-.213 1.78-.448 2.59-.704l.52 4.032c-.71.192-1.48.373-2.31.544-.81.171-1.65.331-2.53.48-.87.128-1.73.245-2.59.352-2.15.235-4.52.373-7.1.416-2.58.043-5.51-.064-8.77-.32l-.06-4.096Zm6.4 10.912c-.49.747-.88 1.483-1.16 2.208a5.869 5.869 0 0 0-.41 2.112c0 1.344.58 2.325 1.76 2.944 1.17.597 2.85.896 5.02.896 1.75 0 3.33-.075 4.74-.224a47.42 47.42 0 0 0 3.84-.544l-.23 4.032c-.89.171-2.07.341-3.52.512-1.43.171-3.12.256-5.08.256-2.16-.021-4.04-.309-5.64-.864-1.6-.533-2.83-1.333-3.71-2.4-.87-1.088-1.31-2.389-1.31-3.904 0-.981.14-1.941.42-2.88.29-.96.72-1.984 1.28-3.072l4 .928Z"/>
    <path fill="#666" d="M1394.56 472h-13.22v-2.044l5.24-5.292a58.336 58.336 0 0 0 2.55-2.688c.69-.784 1.21-1.549 1.57-2.296.35-.765.53-1.596.53-2.492 0-1.101-.33-1.932-.98-2.492-.66-.579-1.5-.868-2.55-.868-.97 0-1.83.168-2.58.504-.72.336-1.47.803-2.24 1.4l-1.31-1.652c.52-.448 1.09-.849 1.71-1.204a9.21 9.21 0 0 1 2.04-.84 8.972 8.972 0 0 1 2.38-.308c1.25 0 2.32.215 3.22.644.9.429 1.59 1.045 2.07 1.848.51.784.76 1.727.76 2.828 0 .784-.12 1.531-.37 2.24a8.937 8.937 0 0 1-1.03 2.044c-.45.672-.99 1.353-1.63 2.044-.63.691-1.33 1.409-2.1 2.156l-4.17 4.116v.112h10.11V472Zm9.16-12.264c1.37 0 2.55.233 3.56.7 1.01.467 1.78 1.139 2.32 2.016.56.859.84 1.913.84 3.164 0 1.381-.3 2.576-.89 3.584-.6.989-1.46 1.755-2.58 2.296-1.1.523-2.43.784-4 .784-1.03 0-2-.093-2.91-.28-.9-.187-1.66-.457-2.27-.812v-2.324c.67.411 1.48.737 2.43.98.97.224 1.9.336 2.78.336.98 0 1.84-.149 2.57-.448.75-.317 1.33-.793 1.74-1.428.41-.653.61-1.465.61-2.436 0-1.307-.4-2.305-1.2-2.996-.8-.709-2.07-1.064-3.81-1.064-.52 0-1.12.047-1.79.14-.67.093-1.21.187-1.62.28l-1.24-.784.76-9.436h10.02v2.24h-7.92l-.48 5.796c.32-.056.75-.121 1.29-.196a13.11 13.11 0 0 1 1.79-.112Zm13.79-8.008c1.38 0 2.42.551 3.13 1.652.71 1.083 1.07 2.613 1.07 4.592 0 1.979-.35 3.528-1.04 4.648-.67 1.101-1.73 1.652-3.16 1.652-.88 0-1.63-.252-2.24-.756-.62-.504-1.09-1.223-1.4-2.156-.3-.952-.45-2.081-.45-3.388 0-1.979.33-3.509.98-4.592.65-1.101 1.69-1.652 3.11-1.652Zm0 1.736c-.71 0-1.24.383-1.57 1.148-.32.747-.48 1.867-.48 3.36 0 1.493.16 2.623.48 3.388.33.765.86 1.148 1.57 1.148.72 0 1.27-.373 1.62-1.12.36-.765.53-1.904.53-3.416 0-1.493-.17-2.613-.53-3.36-.35-.765-.9-1.148-1.62-1.148Zm12.79-1.456L1419.21 472h-2.15l11.09-19.992h2.15Zm-.56 7.728c.92 0 1.68.252 2.3.756.61.485 1.08 1.195 1.4 2.128.33.915.5 2.035.5 3.36 0 1.979-.34 3.528-1.03 4.648-.68 1.101-1.73 1.652-3.17 1.652-.87 0-1.62-.252-2.24-.756-.61-.504-1.08-1.223-1.4-2.156-.3-.952-.45-2.081-.45-3.388 0-1.979.33-3.509.98-4.592.66-1.101 1.69-1.652 3.11-1.652Zm0 1.764c-.71 0-1.23.373-1.57 1.12-.31.747-.47 1.867-.47 3.36 0 1.512.16 2.651.47 3.416.34.747.86 1.12 1.57 1.12.73 0 1.27-.373 1.63-1.12.35-.747.53-1.885.53-3.416 0-1.493-.18-2.613-.53-3.36-.36-.747-.9-1.12-1.63-1.12Z"/>
    <path fill="#10B981" d="M1360 500h-30v30h30v-30Z"/>
    <path fill="#000" d="M1386.02 497.84c.51.085 1.07.149 1.69.192.62.043 1.2.064 1.73.064h10.46c.56 0 1.13-.021 1.73-.064.6-.043 1.18-.107 1.73-.192v4.128c-.55-.043-1.13-.064-1.73-.064-.6-.021-1.17-.032-1.73-.032h-10.46c-.55 0-1.14.011-1.76.032-.62 0-1.17.021-1.66.064v-4.128Zm-3.72 8.192c.47.064.97.117 1.51.16.55.021 1.08.032 1.57.032h20.96c.34 0 .8-.011 1.37-.032.6-.043 1.11-.096 1.54-.16v4.16c-.39-.043-.86-.064-1.41-.064-.55-.021-1.06-.032-1.5-.032h-20.96c-.47 0-1 .011-1.57.032-.56.021-1.06.053-1.51.096v-4.192Zm16.39 2.24c0 2.069-.18 3.936-.55 5.6-.36 1.643-.88 3.125-1.56 4.448-.37.725-.88 1.472-1.54 2.24a16.57 16.57 0 0 1-2.21 2.176 13.66 13.66 0 0 1-2.69 1.728l-3.74-2.72c1.13-.427 2.22-1.056 3.26-1.888 1.05-.853 1.89-1.749 2.53-2.688a10.688 10.688 0 0 0 1.63-4.064c.28-1.493.42-3.104.42-4.832h4.45Zm6.59-12.64c.28.384.57.843.86 1.376.32.533.62 1.067.9 1.6.3.533.55 1.003.77 1.408l-2.56 1.12a66.73 66.73 0 0 0-1.22-2.24c-.45-.853-.88-1.589-1.31-2.208l2.56-1.056Zm3.78-1.44c.27.405.57.885.89 1.44.32.533.63 1.067.93 1.6.32.512.58.949.77 1.312l-2.56 1.12a27.87 27.87 0 0 0-1.22-2.272c-.47-.832-.92-1.547-1.34-2.144l2.53-1.056Zm5.88 12.992c.39.021.88.053 1.48.096.59.021 1.21.043 1.85.064.66.021 1.27.032 1.83.032h17.18c.75 0 1.45-.021 2.11-.064.66-.064 1.21-.107 1.63-.128v5.024l-1.63-.096c-.72-.043-1.43-.064-2.11-.064h-17.18c-.92 0-1.86.021-2.82.064-.96.021-1.74.053-2.34.096v-5.024Zm42.79-.16c.98.555 2.05 1.216 3.2 1.984 1.17.747 2.36 1.525 3.55 2.336 1.19.811 2.31 1.6 3.36 2.368 1.07.768 1.96 1.451 2.69 2.048l-3.04 3.616c-.71-.64-1.58-1.376-2.63-2.208a67.728 67.728 0 0 0-3.32-2.592c-1.2-.896-2.38-1.749-3.56-2.56a69.064 69.064 0 0 0-3.1-2.08l2.85-2.912Zm15.04-5.44a9.46 9.46 0 0 0-.58 1.056c-.19.405-.35.811-.48 1.216-.32.981-.76 2.08-1.31 3.296a34.715 34.715 0 0 1-1.92 3.68 33.804 33.804 0 0 1-2.56 3.648c-1.51 1.877-3.34 3.659-5.47 5.344-2.11 1.685-4.71 3.115-7.78 4.288l-3.71-3.232c2.24-.683 4.18-1.493 5.82-2.432 1.65-.939 3.07-1.941 4.26-3.008a29.75 29.75 0 0 0 3.17-3.2c.72-.832 1.41-1.76 2.05-2.784.66-1.045 1.22-2.08 1.69-3.104.49-1.045.83-1.973 1.03-2.784h-10.82l1.47-3.648h9.09c.51 0 1.01-.032 1.5-.096.52-.064.94-.149 1.28-.256l3.27 2.016Zm-10.56-4.928c-.39.555-.77 1.152-1.15 1.792-.37.64-.64 1.131-.84 1.472-.72 1.28-1.64 2.645-2.75 4.096a43.134 43.134 0 0 1-3.74 4.192 32.503 32.503 0 0 1-4.35 3.648l-3.46-2.656c1.88-1.173 3.47-2.4 4.77-3.68 1.32-1.301 2.42-2.549 3.29-3.744a37.4 37.4 0 0 0 2.12-3.232c.25-.384.52-.896.8-1.536.29-.661.52-1.259.67-1.792l4.64 1.44Zm24.16 3.104v4.288h11.26v-4.288h-11.26Zm-3.71-3.68h18.88v11.616h-18.88V496.08Zm-4.42 14.304h12.26v14.304h-3.84v-10.624h-4.77v10.816h-3.65v-14.496Zm14.94 0h12.68v14.336h-3.84v-10.656h-5.16v10.816h-3.68v-14.496Zm-13.34 9.184h8.42v3.68h-8.42v-3.68Zm15.1 0h8.96v3.68h-8.96v-3.68Zm25.99-24.736 2.33 2.272c-.89.256-1.89.491-3 .704-1.09.213-2.2.384-3.33.512s-2.22.224-3.27.288c-.06-.32-.18-.704-.35-1.152-.15-.469-.32-.853-.51-1.152.98-.107 1.96-.224 2.94-.352 1.01-.149 1.96-.32 2.85-.512.92-.192 1.7-.395 2.34-.608Zm13.85.032 2.34 2.24c-.96.299-2.03.555-3.2.768a61.19 61.19 0 0 1-3.62.48c-1.21.128-2.39.235-3.52.32a6.73 6.73 0 0 0-.35-1.184c-.17-.469-.33-.864-.48-1.184 1.05-.085 2.11-.203 3.2-.352 1.09-.149 2.12-.32 3.11-.512 1-.192 1.84-.384 2.52-.576Zm-23.04.672 4.13 1.024c-.02.256-.28.427-.77.512v1.568c0 .832-.09 1.792-.28 2.88-.2 1.067-.55 2.144-1.06 3.232-.49 1.067-1.23 2.059-2.21 2.976-.17-.256-.4-.533-.7-.832-.3-.32-.61-.619-.93-.896a4.358 4.358 0 0 0-.9-.672c.81-.704 1.4-1.451 1.76-2.24a8.4 8.4 0 0 0 .77-2.368c.13-.811.19-1.568.19-2.272v-2.912Zm13.28.032 4.1.928c-.02.299-.28.48-.77.544v1.632c0 .747-.1 1.6-.32 2.56-.21.939-.62 1.877-1.21 2.816-.6.917-1.47 1.739-2.6 2.464-.12-.256-.33-.544-.6-.864-.28-.341-.57-.661-.87-.96-.3-.32-.58-.555-.86-.704.89-.555 1.56-1.141 1.98-1.76.45-.619.75-1.248.9-1.888.17-.64.25-1.259.25-1.856v-2.912Zm-11.77 4.032h10.65v2.784h-10.65V499.6Zm13.18 0h11.97v2.784h-11.97V499.6Zm-8.96.928h3.39v5.184h-3.39v-5.184Zm13.44 0h3.43v5.216h-3.43v-5.216Zm-13.76 11.648v1.408h13.95v-1.408h-13.95Zm0 3.584v1.408h13.95v-1.408h-13.95Zm0-7.136V510h13.95v-1.376h-13.95Zm-3.71-2.304h21.54v13.12h-21.54v-13.12Zm12.35 14.816 3.2-1.824c1.15.405 2.32.843 3.49 1.312 1.19.448 2.33.907 3.39 1.376 1.09.448 2.01.853 2.75 1.216l-4.48 1.728c-.59-.341-1.34-.736-2.24-1.184a69.82 69.82 0 0 0-2.91-1.376 42.603 42.603 0 0 0-3.2-1.248Zm-7.07-1.952 3.49 1.6a24.76 24.76 0 0 1-3.01 1.632 40.526 40.526 0 0 1-3.55 1.44c-1.22.448-2.37.821-3.46 1.12-.23-.256-.52-.565-.86-.928a35.48 35.48 0 0 0-1.03-1.056c-.36-.341-.68-.619-.96-.832a51.78 51.78 0 0 0 3.43-.768c1.17-.299 2.27-.64 3.29-1.024 1.05-.384 1.93-.779 2.66-1.184Z"/>
    <path fill="#666" d="M1394.56 552h-13.22v-2.044l5.24-5.292a58.336 58.336 0 0 0 2.55-2.688c.69-.784 1.21-1.549 1.57-2.296.35-.765.53-1.596.53-2.492 0-1.101-.33-1.932-.98-2.492-.66-.579-1.5-.868-2.55-.868-.97 0-1.83.168-2.58.504-.72.336-1.47.803-2.24 1.4l-1.31-1.652c.52-.448 1.09-.849 1.71-1.204a9.21 9.21 0 0 1 2.04-.84 8.972 8.972 0 0 1 2.38-.308c1.25 0 2.32.215 3.22.644.9.429 1.59 1.045 2.07 1.848.51.784.76 1.727.76 2.828 0 .784-.12 1.531-.37 2.24a8.937 8.937 0 0 1-1.03 2.044c-.45.672-.99 1.353-1.63 2.044-.63.691-1.33 1.409-2.1 2.156l-4.17 4.116v.112h10.11V552Zm16.11-10.024c0 1.624-.12 3.071-.37 4.34-.24 1.269-.63 2.352-1.17 3.248-.53.877-1.22 1.549-2.07 2.016-.84.467-1.86.7-3.06.7-1.49 0-2.73-.411-3.72-1.232-.97-.821-1.7-1.997-2.18-3.528-.47-1.549-.7-3.397-.7-5.544 0-2.165.21-4.013.64-5.544.45-1.531 1.16-2.697 2.13-3.5.97-.821 2.25-1.232 3.83-1.232 1.5 0 2.74.411 3.73 1.232.99.803 1.72 1.969 2.21 3.5.48 1.531.73 3.379.73 5.544Zm-10.81 0c0 1.829.13 3.351.39 4.564.28 1.213.72 2.128 1.32 2.744.61.597 1.43.896 2.43.896 1.01 0 1.81-.299 2.41-.896.62-.597 1.07-1.503 1.35-2.716.28-1.232.42-2.763.42-4.592 0-1.829-.14-3.341-.42-4.536-.28-1.213-.73-2.119-1.35-2.716-.6-.616-1.4-.924-2.41-.924-1 0-1.82.308-2.43.924-.6.597-1.04 1.503-1.32 2.716-.26 1.195-.39 2.707-.39 4.536Zm17.65-10.248c1.38 0 2.42.551 3.13 1.652.71 1.083 1.07 2.613 1.07 4.592 0 1.979-.35 3.528-1.04 4.648-.67 1.101-1.73 1.652-3.16 1.652-.88 0-1.63-.252-2.24-.756-.62-.504-1.09-1.223-1.4-2.156-.3-.952-.45-2.081-.45-3.388 0-1.979.33-3.509.98-4.592.65-1.101 1.69-1.652 3.11-1.652Zm0 1.736c-.71 0-1.24.383-1.57 1.148-.32.747-.48 1.867-.48 3.36 0 1.493.16 2.623.48 3.388.33.765.86 1.148 1.57 1.148.72 0 1.27-.373 1.62-1.12.36-.765.53-1.904.53-3.416 0-1.493-.17-2.613-.53-3.36-.35-.765-.9-1.148-1.62-1.148Zm12.79-1.456L1419.21 552h-2.15l11.09-19.992h2.15Zm-.56 7.728c.92 0 1.68.252 2.3.756.61.485 1.08 1.195 1.4 2.128.33.915.5 2.035.5 3.36 0 1.979-.34 3.528-1.03 4.648-.68 1.101-1.73 1.652-3.17 1.652-.87 0-1.62-.252-2.24-.756-.61-.504-1.08-1.223-1.4-2.156-.3-.952-.45-2.081-.45-3.388 0-1.979.33-3.509.98-4.592.66-1.101 1.69-1.652 3.11-1.652Zm0 1.764c-.71 0-1.23.373-1.57 1.12-.31.747-.47 1.867-.47 3.36 0 1.512.16 2.651.47 3.416.34.747.86 1.12 1.57 1.12.73 0 1.27-.373 1.63-1.12.35-.747.53-1.885.53-3.416 0-1.493-.18-2.613-.53-3.36-.36-.747-.9-1.12-1.63-1.12Z"/>
    <path fill="#F59E0B" d="M1360 580h-30v30h30v-30Z"/>
    <path fill="#000" d="m1395.68 602-1.31-5.44h-7.39l-1.35 5.44H1380l7.3-22.944h6.65l7.33 22.944h-5.6Zm-3.94-14.816c-.12-.448-.25-.917-.38-1.408-.13-.491-.26-1.003-.38-1.536-.11-.533-.22-1.077-.32-1.632-.09.555-.2 1.109-.32 1.664-.13.533-.26 1.045-.39 1.536-.1.491-.22.949-.35 1.376l-1.47 5.312h5.12l-1.51-5.312Zm21 14.816h-10.47v-2.752l2.66-1.28v-14.784l-2.66-1.28v-2.752h10.47v2.752l-2.63 1.28v14.784l2.63 1.28V602Zm19.89-21.92a97.1 97.1 0 0 1-.83 5.184c-.34 1.835-.8 3.691-1.38 5.568-.62 2.155-1.34 4.011-2.17 5.568-.84 1.557-1.75 2.763-2.76 3.616-.98.832-2.05 1.248-3.23 1.248-1.17 0-2.26-.395-3.26-1.184-.98-.811-1.77-1.92-2.37-3.328-.58-1.408-.86-3.008-.86-4.8 0-1.856.37-3.605 1.12-5.248a13.82 13.82 0 0 1 3.1-4.352c1.34-1.28 2.9-2.283 4.67-3.008 1.79-.725 3.73-1.088 5.79-1.088 1.99 0 3.77.32 5.35.96 1.6.64 2.96 1.525 4.09 2.656 1.14 1.131 2 2.453 2.6 3.968.59 1.515.89 3.147.89 4.896 0 2.24-.46 4.245-1.37 6.016-.92 1.771-2.29 3.232-4.1 4.384-1.79 1.152-4.03 1.941-6.72 2.368l-2.4-3.808a21.8 21.8 0 0 0 1.63-.224c.47-.085.92-.181 1.35-.288 1.02-.256 1.97-.619 2.84-1.088a9.248 9.248 0 0 0 2.34-1.792 7.964 7.964 0 0 0 1.54-2.528c.38-.96.57-2.016.57-3.168 0-1.259-.19-2.411-.57-3.456-.39-1.045-.95-1.952-1.7-2.72a7.212 7.212 0 0 0-2.72-1.792c-1.07-.427-2.29-.64-3.68-.64-1.71 0-3.21.309-4.51.928-1.3.597-2.4 1.376-3.3 2.336-.89.96-1.58 1.995-2.05 3.104-.44 1.109-.67 2.165-.67 3.168 0 1.067.13 1.963.39 2.688.25.704.56 1.237.92 1.6.39.341.79.512 1.22.512.45 0 .89-.224 1.31-.672.45-.469.89-1.173 1.31-2.112.43-.939.86-2.123 1.28-3.552.5-1.536.91-3.179 1.25-4.928.34-1.749.59-3.456.74-5.12l4.35.128Zm27.23-2.432h15.43v3.488h-15.43v-3.488Zm-1.89 6.208h18.72v3.584h-18.72v-3.584Zm.68 6.464h17.76v3.52h-17.76v-3.52Zm6.94-15.552h3.81v11.072h-3.81v-11.072Zm3.78 12.256h3.8v13.568c0 .96-.11 1.717-.35 2.272-.21.555-.64.992-1.28 1.312-.66.277-1.45.448-2.37.512-.91.085-1.97.128-3.16.128-.09-.555-.24-1.195-.45-1.92-.21-.725-.46-1.355-.74-1.888l2.34.064h1.53c.26-.021.43-.064.52-.128.1-.064.16-.203.16-.416v-13.504Zm-9.6 8.544 2.84-1.76c.5.469.99.992 1.48 1.568.49.576.95 1.152 1.37 1.728.45.555.79 1.067 1.03 1.536l-3.04 1.984c-.22-.469-.53-.992-.93-1.568-.41-.597-.85-1.195-1.35-1.792a21.26 21.26 0 0 0-1.4-1.696Zm-13.19-3.712c1.05-.235 2.23-.523 3.55-.864 1.35-.341 2.76-.715 4.23-1.12 1.49-.427 2.97-.853 4.45-1.28l.48 3.392c-2.01.619-4.06 1.248-6.15 1.888-2.07.619-3.94 1.173-5.63 1.664l-.93-3.68Zm5.73-17.024h3.52v30.048h-3.52v-30.048Zm-4.22 1.632 3.23.544a92.001 92.001 0 0 1-.55 4.256 47.537 47.537 0 0 1-.76 4c-.3 1.259-.64 2.368-1.03 3.328a5.983 5.983 0 0 0-.8-.576l-1.02-.64a7.297 7.297 0 0 0-.9-.544c.34-.853.63-1.845.87-2.976.25-1.131.46-2.325.6-3.584.18-1.28.29-2.549.36-3.808Zm.89 4.384h9.54v3.648h-10.27l.73-3.648Zm33.51-6.048h3.84v30.048h-3.84V574.8Zm-2.69 6.176 2.72.384c-.04.917-.13 1.92-.26 3.008s-.3 2.155-.51 3.2a25.894 25.894 0 0 1-.67 2.816l-2.85-1.024c.26-.704.48-1.547.67-2.528.22-.981.4-1.984.55-3.008.17-1.024.28-1.973.35-2.848Zm5.79.224 2.59-1.088c.45.811.88 1.707 1.28 2.688.41.981.7 1.813.87 2.496l-2.79 1.28a9.168 9.168 0 0 0-.45-1.6c-.21-.619-.44-1.259-.7-1.92a26.17 26.17 0 0 0-.8-1.856Zm6.05-4.928 3.74.576c-.21 1.579-.5 3.147-.86 4.704a37.897 37.897 0 0 1-1.22 4.32c-.45 1.323-.95 2.485-1.5 3.488-.24-.171-.57-.373-.99-.608-.43-.235-.87-.448-1.32-.64-.42-.213-.8-.384-1.12-.512.58-.896 1.08-1.952 1.51-3.168a27.41 27.41 0 0 0 1.05-3.904c.3-1.408.54-2.827.71-4.256Zm1.15 5.024h14.78v3.616h-15.9l1.12-3.616Zm4.38-6.304h3.84v27.296h-3.84v-27.296Zm-6.24 15.2h15.94v3.584h-15.94v-3.584Zm-2.4 9.984h20.04v3.68h-20.04v-3.68Zm37.64-15.04v2.72h9.66v-2.72h-9.66Zm0-5.728v2.688h9.66v-2.688h-9.66Zm-3.49-3.232h16.83v14.944h-16.83v-14.944Zm-.19 17.696h17.34v3.456h-17.34v-3.456Zm-2.24 6.496h20.67v3.488h-20.67v-3.488Zm-9.38-23.712h10.62v3.552h-10.62v-3.552Zm.29 9.216h9.79v3.52h-9.79v-3.52Zm-.67 12.16c.94-.256 1.98-.544 3.13-.864 1.18-.341 2.41-.715 3.71-1.12 1.31-.427 2.59-.843 3.84-1.248l.68 3.648c-1.8.597-3.61 1.205-5.44 1.824-1.84.619-3.52 1.173-5.06 1.664l-.86-3.904Zm3.9-19.968h3.68v19.648l-3.68.608v-20.256Zm15.07-.512h3.23v12.032h.36V602h-3.94v-12.416h.35v-12.032Zm16.8 5.504h8.9v2.816h-8.9v-2.816Zm0 5.216h8.9v2.72h-8.9v-2.72Zm0 5.376h8.9v2.816h-8.9v-2.816Zm13.89-3.648h12.03v3.232h-12.03V590Zm-12.29-12.224h5.06v2.912h-5.06v-2.912Zm9.86-1.344h11.9v3.168h-11.9v-3.168Zm.03 19.712h15.07v3.296h-15.07v-3.296Zm5.95-9.024h3.65v17.632h-3.65V587.12Zm-13.95-2.592h2.53v10.176h-2.53v-10.176Zm18.85-8.096h3.39l-.03.48c0 .299-.01.555-.03.768-.05 1.685-.11 3.083-.2 4.192-.08 1.109-.2 1.984-.35 2.624-.15.64-.34 1.099-.57 1.376-.26.32-.55.555-.87.704-.32.149-.68.267-1.09.352-.36.043-.83.075-1.4.096-.58 0-1.2-.011-1.86-.032a7.64 7.64 0 0 0-.26-1.6 5.055 5.055 0 0 0-.6-1.504c.51.043.97.075 1.37.096.41.021.72.032.93.032.19 0 .35-.011.48-.032a.681.681 0 0 0 .38-.288c.13-.149.24-.459.32-.928.09-.491.16-1.205.23-2.144.06-.939.12-2.176.16-3.712v-.48Zm-9.12 10.912 3.13.64a26.225 26.225 0 0 1-1.18 4.256c-.49 1.387-1.04 2.549-1.66 3.488-.22-.149-.49-.32-.84-.512a19.527 19.527 0 0 0-1.98-.96c.62-.853 1.14-1.899 1.57-3.136.43-1.237.75-2.496.96-3.776Zm-12.39-12.576 3.43.768c-.41 1.451-.89 2.88-1.44 4.288a31.679 31.679 0 0 1-1.86 3.936c-.66 1.216-1.37 2.283-2.14 3.2-.19-.192-.46-.427-.8-.704-.34-.299-.68-.587-1.03-.864a5.385 5.385 0 0 0-.92-.672c1.08-1.195 2.04-2.667 2.88-4.416a26.206 26.206 0 0 0 1.88-5.536Zm-2.24 8.288h3.08v8.48c0 1.024-.05 2.123-.13 3.296a34.793 34.793 0 0 1-.39 3.584 20.44 20.44 0 0 1-.8 3.488 12.664 12.664 0 0 1-1.44 3.04 4.25 4.25 0 0 0-.76-.64c-.32-.213-.66-.427-1.03-.64a9.266 9.266 0 0 0-.89-.448 12.22 12.22 0 0 0 1.6-3.68c.34-1.365.55-2.741.64-4.128.08-1.408.12-2.709.12-3.904v-8.448Zm9.25 0h3.17v18.112c0 .768-.08 1.397-.26 1.888-.17.491-.5.875-.99 1.152-.49.277-1.07.448-1.76.512-.68.085-1.52.128-2.53.128-.04-.469-.18-1.024-.41-1.664a9.91 9.91 0 0 0-.67-1.6c.64.021 1.23.043 1.79.064h1.15c.19 0 .32-.032.38-.096.09-.085.13-.235.13-.448v-18.048Zm7.49-5.568h3.42a21.656 21.656 0 0 1-.76 4.32 9.298 9.298 0 0 1-1.83 3.488c-.85 1.024-2.07 1.888-3.65 2.592-.19-.405-.49-.875-.89-1.408-.39-.533-.76-.939-1.12-1.216 1.28-.533 2.24-1.184 2.88-1.952a6.408 6.408 0 0 0 1.37-2.624c.28-.981.47-2.048.58-3.2Zm-9.6.288h.74l.48-.128 2.2 1.344a33.21 33.21 0 0 1-1.37 3.264 40.236 40.236 0 0 1-1.57 2.912c-.32-.235-.71-.491-1.18-.768-.45-.277-.85-.501-1.19-.672.26-.512.5-1.077.74-1.696.25-.64.48-1.28.67-1.92.21-.661.37-1.237.48-1.728v-.608Zm23.81-.832h27.9v3.936h-27.9v-3.936Zm15.45 10.752 2.98-2.496c.85.619 1.77 1.301 2.75 2.048 1.01.725 2 1.483 2.98 2.272 1 .789 1.93 1.568 2.78 2.336.86.747 1.58 1.429 2.18 2.048l-3.27 2.976c-.53-.64-1.21-1.344-2.04-2.112-.81-.789-1.7-1.6-2.66-2.432a67.092 67.092 0 0 0-2.91-2.432c-.98-.789-1.91-1.525-2.79-2.208Zm-1.28-9.28 4.26 1.504a46.742 46.742 0 0 1-4.35 6.56 42.485 42.485 0 0 1-5.63 5.92 36.203 36.203 0 0 1-6.82 4.608c-.19-.341-.45-.725-.77-1.152-.32-.427-.65-.843-.99-1.248-.32-.427-.62-.789-.9-1.088a27.605 27.605 0 0 0 4.9-2.88 35.48 35.48 0 0 0 4.26-3.744 32.73 32.73 0 0 0 3.48-4.16 29.025 29.025 0 0 0 2.56-4.32Zm-2.33 7.744 4.19-4.192v22.848h-4.19V586.16Zm34.08 5.664h12.7v3.552h-12.7v-3.552Zm-6.56 1.792c.57 1.536 1.32 2.784 2.24 3.744.94.939 2 1.664 3.2 2.176 1.19.512 2.49.864 3.9 1.056 1.43.192 2.91.288 4.45.288h6.56c.56-.021 1.01-.032 1.38-.032-.2.277-.39.64-.58 1.088-.17.448-.32.907-.45 1.376-.13.469-.23.885-.32 1.248h-6.81c-1.97 0-3.79-.139-5.48-.416-1.68-.256-3.23-.736-4.64-1.44-1.38-.704-2.63-1.685-3.74-2.944-1.11-1.28-2.06-2.933-2.85-4.96l3.14-1.184Zm4.83-6.688h3.97v15.808l-3.97-1.248v-14.56Zm-5.41-7.072v4.384h14.75v-4.384h-14.75Zm-3.84-3.68h22.66v11.712h-22.66v-11.712Zm1.41 13.6 4 .48c-.3 1.771-.71 3.573-1.25 5.408-.51 1.813-1.2 3.52-2.08 5.12-.87 1.579-1.97 2.901-3.29 3.968a9.97 9.97 0 0 0-.8-.896c-.32-.32-.65-.64-1-.96-.34-.299-.65-.544-.92-.736a10.22 10.22 0 0 0 2.81-3.424 19.073 19.073 0 0 0 1.67-4.384c.4-1.579.69-3.104.86-4.576Z"/>
    <path fill="#666" d="M1389.94 632h-2.41v-15.344c.02-.373.04-.719.06-1.036.02-.336.04-.681.05-1.036-.29.299-.57.551-.81.756-.24.205-.55.467-.92.784l-2.13 1.736-1.29-1.652 5.41-4.2h2.04V632Zm13.78-12.264c1.37 0 2.55.233 3.56.7 1.01.467 1.78 1.139 2.32 2.016.56.859.84 1.913.84 3.164 0 1.381-.3 2.576-.89 3.584-.6.989-1.46 1.755-2.58 2.296-1.1.523-2.43.784-4 .784-1.03 0-2-.093-2.91-.28-.9-.187-1.66-.457-2.27-.812v-2.324c.67.411 1.48.737 2.43.98.97.224 1.9.336 2.78.336.98 0 1.84-.149 2.57-.448.75-.317 1.33-.793 1.74-1.428.41-.653.61-1.465.61-2.436 0-1.307-.4-2.305-1.2-2.996-.8-.709-2.07-1.064-3.81-1.064-.52 0-1.12.047-1.79.14-.67.093-1.21.187-1.62.28l-1.24-.784.76-9.436h10.02v2.24h-7.92l-.48 5.796c.32-.056.75-.121 1.29-.196a13.11 13.11 0 0 1 1.79-.112Zm13.79-8.008c1.38 0 2.42.551 3.13 1.652.71 1.083 1.07 2.613 1.07 4.592 0 1.979-.35 3.528-1.04 4.648-.67 1.101-1.73 1.652-3.16 1.652-.88 0-1.63-.252-2.24-.756-.62-.504-1.09-1.223-1.4-2.156-.3-.952-.45-2.081-.45-3.388 0-1.979.33-3.509.98-4.592.65-1.101 1.69-1.652 3.11-1.652Zm0 1.736c-.71 0-1.24.383-1.57 1.148-.32.747-.48 1.867-.48 3.36 0 1.493.16 2.623.48 3.388.33.765.86 1.148 1.57 1.148.72 0 1.27-.373 1.62-1.12.36-.765.53-1.904.53-3.416 0-1.493-.17-2.613-.53-3.36-.35-.765-.9-1.148-1.62-1.148Zm12.79-1.456L1419.21 632h-2.15l11.09-19.992h2.15Zm-.56 7.728c.92 0 1.68.252 2.3.756.61.485 1.08 1.195 1.4 2.128.33.915.5 2.035.5 3.36 0 1.979-.34 3.528-1.03 4.648-.68 1.101-1.73 1.652-3.17 1.652-.87 0-1.62-.252-2.24-.756-.61-.504-1.08-1.223-1.4-2.156-.3-.952-.45-2.081-.45-3.388 0-1.979.33-3.509.98-4.592.66-1.101 1.69-1.652 3.11-1.652Zm0 1.764c-.71 0-1.23.373-1.57 1.12-.31.747-.47 1.867-.47 3.36 0 1.512.16 2.651.47 3.416.34.747.86 1.12 1.57 1.12.73 0 1.27-.373 1.63-1.12.35-.747.53-1.885.53-3.416 0-1.493-.18-2.613-.53-3.36-.36-.747-.9-1.12-1.63-1.12Z"/>
    <path fill="#6B7280" d="M1360 660h-30v30h30v-30Z"/>
    <path fill="#000" d="m1387.84 657.52 1.5.064c.49.021 1.01.032 1.54.032.3 0 .74-.011 1.31-.032.58-.021 1.24-.043 1.99-.064l2.3-.128c.79-.043 1.5-.085 2.14-.128.67-.043 1.2-.085 1.6-.128.54-.064.99-.128 1.35-.192.36-.064.65-.139.86-.224l2.53 2.944c-.34.213-.77.501-1.28.864-.49.341-.91.64-1.25.896-.45.363-.93.757-1.44 1.184-.51.427-1.04.864-1.6 1.312-.53.427-1.06.864-1.6 1.312-.53.427-1.05.853-1.57 1.28-.49.405-.96.768-1.4 1.088 1.43-.149 2.93-.277 4.51-.384 1.6-.128 3.17-.224 4.7-.288 1.56-.064 2.99-.096 4.29-.096v3.776a80.413 80.413 0 0 0-4.51-.128c-1.5 0-2.73.075-3.71.224-.75.085-1.44.277-2.08.576-.64.299-1.22.683-1.73 1.152-.49.448-.88.96-1.15 1.536a3.991 3.991 0 0 0-.42 1.824c0 .832.2 1.515.61 2.048.4.533.97.939 1.69 1.216.75.277 1.59.469 2.53.576.92.107 1.82.16 2.69.16.87 0 1.61-.021 2.21-.064l-.87 4.192c-4.09.171-7.28-.363-9.56-1.6-2.27-1.237-3.4-3.189-3.4-5.856 0-.661.11-1.301.32-1.92.24-.64.53-1.227.87-1.76a8.02 8.02 0 0 1 1.15-1.376 75.37 75.37 0 0 0-4.77.512c-1.68.235-3.34.491-4.96.768l-.38-3.872c.85-.085 1.79-.192 2.81-.32 1.03-.128 1.97-.235 2.82-.32.7-.469 1.47-1.024 2.3-1.664.84-.64 1.67-1.301 2.5-1.984l2.34-1.984c.74-.64 1.36-1.184 1.85-1.632-.25.021-.61.043-1.05.064-.43.021-.91.053-1.44.096-.52.021-1.04.053-1.57.096-.54.021-1.03.053-1.47.096-.43.021-.77.043-1.03.064-.4.021-.86.064-1.37.128-.49.043-1 .096-1.51.16l-.19-4.096Zm43.07 2.56a97.1 97.1 0 0 1-.83 5.184c-.34 1.835-.8 3.691-1.38 5.568-.61 2.155-1.34 4.011-2.17 5.568-.83 1.557-1.75 2.763-2.75 3.616-.99.832-2.06 1.248-3.24 1.248-1.17 0-2.26-.395-3.26-1.184-.98-.811-1.77-1.92-2.37-3.328-.57-1.408-.86-3.008-.86-4.8 0-1.856.37-3.605 1.12-5.248a13.82 13.82 0 0 1 3.1-4.352 14.95 14.95 0 0 1 4.67-3.008c1.8-.725 3.73-1.088 5.8-1.088 1.98 0 3.76.32 5.34.96 1.6.64 2.97 1.525 4.1 2.656a11.571 11.571 0 0 1 2.59 3.968c.6 1.515.89 3.147.89 4.896 0 2.24-.45 4.245-1.37 6.016-.92 1.771-2.28 3.232-4.1 4.384-1.79 1.152-4.03 1.941-6.72 2.368l-2.4-3.808a21.8 21.8 0 0 0 1.63-.224c.47-.085.92-.181 1.35-.288 1.02-.256 1.97-.619 2.85-1.088a9.375 9.375 0 0 0 2.33-1.792 7.788 7.788 0 0 0 1.54-2.528c.38-.96.57-2.016.57-3.168 0-1.259-.19-2.411-.57-3.456-.39-1.045-.95-1.952-1.7-2.72-.74-.789-1.65-1.387-2.72-1.792-1.06-.427-2.29-.64-3.68-.64-1.7 0-3.21.309-4.51.928-1.3.597-2.4 1.376-3.3 2.336-.89.96-1.57 1.995-2.04 3.104-.45 1.109-.68 2.165-.68 3.168 0 1.067.13 1.963.39 2.688.25.704.56 1.237.93 1.6.38.341.79.512 1.21.512.45 0 .89-.224 1.31-.672.45-.469.89-1.173 1.32-2.112.42-.939.85-2.123 1.28-3.552.49-1.536.9-3.179 1.24-4.928.35-1.749.59-3.456.74-5.12l4.35.128Zm32.51-5.12h3.62v22.304h-3.62V654.96Zm-10.81 12.544 19.01-7.424 1.47 3.328-18.98 7.488-1.5-3.392Zm3.93-9.12h3.78v20.32c0 .64.05 1.12.16 1.44.13.32.36.533.7.64.37.107.89.16 1.57.16h6.47c.64 0 1.12-.117 1.44-.352.32-.235.55-.661.7-1.28.15-.64.28-1.568.38-2.784.43.299.97.587 1.64.864.68.277 1.29.48 1.82.608-.17 1.6-.45 2.869-.83 3.808-.36.917-.93 1.579-1.7 1.984-.74.405-1.79.608-3.13.608h-7.11c-1.53 0-2.73-.171-3.58-.512-.86-.32-1.45-.896-1.79-1.728-.35-.832-.52-1.984-.52-3.456v-20.32Zm13.8 2.336h-.26l.67-.48.67-.48 2.63.992-.13.608c0 1.856-.01 3.52-.03 4.992a139.3 139.3 0 0 1-.1 3.68c-.04.981-.09 1.707-.16 2.176-.06.811-.25 1.44-.57 1.888-.3.448-.71.789-1.22 1.024-.49.213-1.08.352-1.76.416a19.1 19.1 0 0 1-1.89.032c-.02-.533-.1-1.152-.25-1.856-.15-.704-.35-1.259-.58-1.664l1.12.064h.86c.22 0 .39-.043.52-.128.12-.107.22-.309.28-.608.05-.256.08-.789.1-1.6.02-.811.04-1.963.06-3.456.03-1.493.04-3.36.04-5.6Zm-18.6-5.792 3.56 1.152a53.546 53.546 0 0 1-2.44 5.408 50.717 50.717 0 0 1-3.04 5.152c-1.08 1.6-2.2 3.008-3.36 4.224-.1-.299-.28-.693-.54-1.184-.23-.491-.49-.981-.77-1.472a11.46 11.46 0 0 0-.7-1.248 26.33 26.33 0 0 0 2.78-3.392c.92-1.28 1.76-2.656 2.53-4.128a30.726 30.726 0 0 0 1.98-4.512Zm-3.23 8.864 3.75-3.776.03.032v24.768h-3.78v-21.024Z"/>
    <path fill="#666" d="M1387.7 699.736c1.36 0 2.55.233 3.56.7 1 .467 1.78 1.139 2.32 2.016.56.859.84 1.913.84 3.164 0 1.381-.3 2.576-.9 3.584-.59.989-1.45 1.755-2.57 2.296-1.1.523-2.44.784-4.01.784-1.02 0-1.99-.093-2.91-.28-.89-.187-1.65-.457-2.27-.812v-2.324c.68.411 1.49.737 2.44.98.97.224 1.89.336 2.77.336.99 0 1.85-.149 2.58-.448.74-.317 1.32-.793 1.73-1.428.41-.653.62-1.465.62-2.436 0-1.307-.4-2.305-1.2-2.996-.81-.709-2.08-1.064-3.81-1.064-.52 0-1.12.047-1.79.14-.68.093-1.22.187-1.63.28l-1.23-.784.76-9.436h10.02v2.24h-7.92l-.48 5.796c.32-.056.75-.121 1.29-.196a13.11 13.11 0 0 1 1.79-.112Zm13.78-8.008c1.38 0 2.43.551 3.14 1.652.71 1.083 1.06 2.613 1.06 4.592 0 1.979-.34 3.528-1.03 4.648-.67 1.101-1.73 1.652-3.17 1.652-.87 0-1.62-.252-2.24-.756-.61-.504-1.08-1.223-1.4-2.156-.3-.952-.44-2.081-.44-3.388 0-1.979.32-3.509.98-4.592.65-1.101 1.68-1.652 3.1-1.652Zm0 1.736c-.71 0-1.23.383-1.56 1.148-.32.747-.48 1.867-.48 3.36 0 1.493.16 2.623.48 3.388.33.765.85 1.148 1.56 1.148.73 0 1.27-.373 1.63-1.12.35-.765.53-1.904.53-3.416 0-1.493-.18-2.613-.53-3.36-.36-.765-.9-1.148-1.63-1.148Zm12.8-1.456L1403.19 712h-2.15l11.08-19.992h2.16Zm-.56 7.728c.91 0 1.68.252 2.3.756.61.485 1.08 1.195 1.4 2.128.33.915.5 2.035.5 3.36 0 1.979-.35 3.528-1.04 4.648-.67 1.101-1.72 1.652-3.16 1.652-.88 0-1.62-.252-2.24-.756-.62-.504-1.08-1.223-1.4-2.156-.3-.952-.45-2.081-.45-3.388 0-1.979.33-3.509.98-4.592.65-1.101 1.69-1.652 3.11-1.652Zm0 1.764c-.71 0-1.23.373-1.57 1.12-.32.747-.47 1.867-.47 3.36 0 1.512.15 2.651.47 3.416.34.747.86 1.12 1.57 1.12.73 0 1.27-.373 1.62-1.12.36-.747.54-1.885.54-3.416 0-1.493-.18-2.613-.54-3.36-.35-.747-.89-1.12-1.62-1.12Z"/>
    <path fill="#FEF3C7" stroke="#F59E0B" stroke-width="3" d="M1450 910H470c-5.523 0-10 4.477-10 10v60c0 5.523 4.477 10 10 10h980c5.52 0 10-4.477 10-10v-60c0-5.523-4.48-10-10-10Z"/>
    <path fill="#92400E" d="M632.248 941.548h20.124v3.996h-20.124v-3.996Zm.612 8.316h15.408v3.888H632.86v-3.888Zm7.128-13.464h4.284v15.588h-4.284V936.4Zm-2.448 16.56a22 22 0 0 0 6.048 8.568c2.712 2.352 6.108 4.02 10.188 5.004-.312.312-.648.684-1.008 1.116-.36.432-.696.876-1.008 1.332-.288.48-.54.912-.756 1.296-4.32-1.272-7.884-3.276-10.692-6.012-2.784-2.736-5.004-6.132-6.66-10.188l3.888-1.116Zm10.26-3.096h.828l.72-.144 2.772 1.116c-.72 2.664-1.704 5.04-2.952 7.128-1.224 2.088-2.688 3.912-4.392 5.472a26.386 26.386 0 0 1-5.652 3.996 34.841 34.841 0 0 1-6.66 2.7 14.44 14.44 0 0 0-.612-1.296c-.264-.48-.552-.96-.864-1.44-.288-.456-.564-.84-.828-1.152a29.396 29.396 0 0 0 6.084-2.124 23.136 23.136 0 0 0 5.184-3.348 20.228 20.228 0 0 0 3.924-4.536 19.433 19.433 0 0 0 2.448-5.688v-.684Zm-28.476 4.824c1.056-.216 2.256-.468 3.6-.756 1.344-.312 2.748-.648 4.212-1.008 1.488-.384 2.952-.756 4.392-1.116l.54 3.96a516.926 516.926 0 0 1-6.048 1.656c-2.04.528-3.9.996-5.58 1.404l-1.116-4.14Zm.468-11.412h11.988v3.996h-11.988v-3.996Zm4.176-6.876h4.248v29.052c0 1.032-.12 1.836-.36 2.412-.216.6-.636 1.068-1.26 1.404-.6.312-1.344.516-2.232.612-.888.096-1.98.144-3.276.144-.072-.552-.228-1.212-.468-1.98a15.729 15.729 0 0 0-.756-1.944c.72.024 1.404.036 2.052.036h1.368c.456 0 .684-.24.684-.72V936.4Zm41.724 15.12 3.456.504a56.145 56.145 0 0 1-.504 4.968 48.042 48.042 0 0 1-.828 4.608c-.312 1.44-.708 2.712-1.188 3.816-.216-.192-.504-.42-.864-.684a12.283 12.283 0 0 0-1.08-.756 5.517 5.517 0 0 0-.936-.576c.432-.984.768-2.112 1.008-3.384a39.03 39.03 0 0 0 .612-4.104c.168-1.464.276-2.928.324-4.392Zm-.324-7.452h13.464v3.996h-13.464v-3.996Zm4.788-7.092h4.032v32.688h-4.032v-32.688Zm4.716 15.228 3.132-.576c.264 1.128.504 2.34.72 3.636.216 1.272.396 2.52.54 3.744.168 1.224.288 2.328.36 3.312l-3.348.684a36.157 36.157 0 0 0-.252-3.312c-.144-1.248-.312-2.52-.504-3.816a57.413 57.413 0 0 0-.648-3.672Zm5.22-13.86h8.604v3.816h-8.604v-3.816Zm-.864 10.188h10.044v3.852h-10.044v-3.852Zm-4.788-9.972 2.844-1.188c.48.768.96 1.62 1.44 2.556.48.912.816 1.692 1.008 2.34l-2.952 1.368c-.216-.696-.552-1.512-1.008-2.448a29.701 29.701 0 0 0-1.332-2.628Zm7.92 11.088h4.104v15.912c0 1.008-.108 1.824-.324 2.448-.192.624-.612 1.104-1.26 1.44-.624.312-1.38.516-2.268.612-.888.096-1.944.144-3.168.144-.024-.6-.156-1.296-.396-2.088-.216-.792-.468-1.5-.756-2.124.744.024 1.44.048 2.088.072h1.368c.216 0 .372-.036.468-.108.096-.096.144-.252.144-.468v-15.84ZM661.264 936.4l3.888 1.44a31.91 31.91 0 0 1-2.232 3.168 35.729 35.729 0 0 1-2.7 3.024c-.936.96-1.872 1.8-2.808 2.52a14.86 14.86 0 0 0-.684-1.044c-.264-.408-.54-.804-.828-1.188a7.87 7.87 0 0 0-.72-.972c.768-.6 1.536-1.284 2.304-2.052a25.447 25.447 0 0 0 2.16-2.448c.672-.84 1.212-1.656 1.62-2.448Zm-1.98 15.444 3.384-3.384.576.216v21.564h-3.96v-18.396Zm2.808-7.812 3.816 1.296a37.742 37.742 0 0 1-2.448 4.644 48.532 48.532 0 0 1-3.06 4.356 31.892 31.892 0 0 1-3.312 3.564c-.12-.312-.324-.72-.612-1.224a19.551 19.551 0 0 0-.864-1.548 15.037 15.037 0 0 0-.828-1.224c1.416-1.2 2.772-2.676 4.068-4.428a28.258 28.258 0 0 0 3.24-5.436Zm33.408-1.764h11.052v24.228H695.5v-3.78h7.164v-16.704H695.5v-3.744Zm-2.52 0h3.924v26.892h-3.924v-26.892Zm2.376 9.612h9.18v3.744h-9.18v-3.744Zm2.772-15.48 4.68.684a65.057 65.057 0 0 1-1.26 3.636 56.48 56.48 0 0 1-1.188 3.06l-3.456-.792c.168-.624.324-1.32.468-2.088.168-.768.324-1.548.468-2.34.144-.792.24-1.512.288-2.16Zm13.176 5.58h10.548v3.96h-10.548v-3.96Zm9.036 0h3.996v1.224c0 .312-.012.552-.036.72-.096 4.056-.216 7.5-.36 10.332-.12 2.808-.276 5.136-.468 6.984-.168 1.824-.372 3.252-.612 4.284s-.552 1.788-.936 2.268c-.48.696-.996 1.176-1.548 1.44a7.124 7.124 0 0 1-1.908.576c-.696.096-1.56.132-2.592.108-1.008 0-2.04-.012-3.096-.036-.024-.6-.168-1.308-.432-2.124a9.336 9.336 0 0 0-.972-2.088c1.152.096 2.22.156 3.204.18 1.008.024 1.74.036 2.196.036.36 0 .648-.036.864-.108.24-.096.468-.264.684-.504.312-.312.564-.948.756-1.908.216-.984.396-2.364.54-4.14.144-1.776.276-4.02.396-6.732.12-2.712.228-5.94.324-9.684v-.828Zm-8.928-5.544 4.176.972a49.462 49.462 0 0 1-1.692 5.256 46.918 46.918 0 0 1-2.16 4.968c-.768 1.536-1.56 2.88-2.376 4.032-.24-.24-.588-.516-1.044-.828-.432-.336-.876-.66-1.332-.972a8.584 8.584 0 0 0-1.152-.72c.792-1.032 1.536-2.22 2.232-3.564a33.18 33.18 0 0 0 1.908-4.392 44.757 44.757 0 0 0 1.44-4.752Zm-1.764 15.948 3.384-1.908c.6.816 1.236 1.716 1.908 2.7a118.68 118.68 0 0 1 1.908 2.88c.6.936 1.092 1.764 1.476 2.484l-3.672 2.232a25.407 25.407 0 0 0-1.368-2.556 69.922 69.922 0 0 0-1.8-2.952 67.966 67.966 0 0 0-1.836-2.88Zm29.448 1.368h12.168v11.376h-12.168V961.6h8.1v-4.284h-8.1v-3.564Zm-1.872 0h3.996v13.428h-3.996v-13.428Zm-5.868-10.728h9v2.916h-9v-2.916Zm16.704 0h9.072v2.916h-9.072v-2.916Zm7.272-5.22h4.392v27.252c0 1.2-.144 2.136-.432 2.808-.288.672-.804 1.188-1.548 1.548-.768.36-1.728.588-2.88.684-1.152.096-2.568.144-4.248.144a5.874 5.874 0 0 0-.288-1.44 64.028 64.028 0 0 0-.54-1.62 7.27 7.27 0 0 0-.648-1.368c.72.048 1.44.084 2.16.108h1.908c.576-.024.984-.036 1.224-.036.336 0 .564-.06.684-.18.144-.144.216-.384.216-.72v-27.18Zm-23.652 0h11.412v13.464H731.68v-3.276h7.344v-6.912h-7.344v-3.276Zm25.992 0v3.276h-8.064v6.984h8.064v3.24h-12.168v-13.5h12.168Zm-28.44 0h4.284v32.436h-4.284v-32.436Zm40.14 7.344v1.692h5.148v-1.692h-5.148Zm0-4.428v1.692h5.148v-1.692h-5.148Zm-3.816-2.916h12.96v11.952h-12.96v-11.952Zm-1.656 14.04h16.236v3.132H763.9v-3.132Zm16.092-13.932h16.596v3.06h-16.596v-3.06Zm-9.396 14.904h3.636v14.472l-3.636-2.052v-12.42Zm1.908 5.076h6.948v3.132h-6.948v-3.132Zm14.436-19.224 3.924.828a382.326 382.326 0 0 0-1.368 3.06 39.73 39.73 0 0 1-1.188 2.556l-3.096-.828a44.27 44.27 0 0 0 .972-2.772 26.92 26.92 0 0 0 .756-2.844Zm-2.016 11.556v1.692h6.588v-1.692h-6.588Zm0 4.464v1.692h6.588v-1.692h-6.588Zm0-8.892v1.692h6.588v-1.692h-6.588Zm-3.816-2.916h14.4v16.452h-14.4V942.88Zm2.916 16.704 3.528 1.116c-.744 1.008-1.704 1.992-2.88 2.952a23.48 23.48 0 0 1-3.42 2.34 31.92 31.92 0 0 0-.828-.792c-.336-.336-.684-.66-1.044-.972a7.61 7.61 0 0 0-.936-.756 17.458 17.458 0 0 0 3.132-1.728c1.008-.696 1.824-1.416 2.448-2.16Zm-18.504-3.168h3.492a77.178 77.178 0 0 1-.396 5.364c-.192 1.728-.528 3.336-1.008 4.824-.456 1.464-1.14 2.748-2.052 3.852-.264-.456-.648-.984-1.152-1.584-.48-.6-.936-1.056-1.368-1.368.672-.84 1.176-1.848 1.512-3.024.36-1.176.6-2.448.72-3.816.144-1.392.228-2.808.252-4.248Zm2.88 2.988c.528 1.512 1.2 2.712 2.016 3.6a7.963 7.963 0 0 0 2.916 2.016c1.152.456 2.472.756 3.96.9 1.488.12 3.144.18 4.968.18h9.36c1.272-.024 2.436-.048 3.492-.072 1.056-.024 1.884-.036 2.484-.036-.288.384-.576.936-.864 1.656-.264.72-.444 1.344-.54 1.872H782.26c-2.208 0-4.188-.108-5.94-.324-1.752-.216-3.3-.648-4.644-1.296-1.32-.624-2.46-1.56-3.42-2.808-.96-1.248-1.764-2.88-2.412-4.896l2.556-.792Zm20.7 1.512 2.988-1.548c.648.408 1.308.888 1.98 1.44a25.239 25.239 0 0 1 1.872 1.62c.6.528 1.08 1.02 1.44 1.476l-3.096 1.836a19.63 19.63 0 0 0-1.44-1.584 33.223 33.223 0 0 0-1.872-1.728 23.556 23.556 0 0 0-1.872-1.512Zm29.772-22.788c-.048.336-.096.756-.144 1.26-.048.48-.084.984-.108 1.512-.024.504-.048.984-.072 1.44-.024.864-.036 1.8-.036 2.808.024 1.008.036 2.028.036 3.06 0 1.008.024 2.196.072 3.564.072 1.344.156 2.736.252 4.176s.168 2.784.216 4.032c.072 1.224.108 2.22.108 2.988 0 .792-.12 1.56-.36 2.304a4.897 4.897 0 0 1-1.224 1.98c-.576.6-1.356 1.068-2.34 1.404-.984.36-2.232.54-3.744.54-1.704 0-3.276-.216-4.716-.648-1.416-.408-2.544-1.092-3.384-2.052-.84-.96-1.26-2.256-1.26-3.888 0-1.248.36-2.376 1.08-3.384.72-1.032 1.8-1.848 3.24-2.448 1.464-.6 3.3-.9 5.508-.9 1.872 0 3.684.216 5.436.648 1.776.432 3.432.996 4.968 1.692 1.56.672 2.964 1.44 4.212 2.304 1.272.84 2.364 1.692 3.276 2.556l-2.772 4.284a31.642 31.642 0 0 0-3.06-2.664 25.264 25.264 0 0 0-3.708-2.412 21.366 21.366 0 0 0-4.32-1.728 16.244 16.244 0 0 0-4.716-.684c-1.392 0-2.496.228-3.312.684-.792.432-1.188 1.044-1.188 1.836 0 .888.408 1.512 1.224 1.872.816.36 1.86.54 3.132.54 1.128 0 1.932-.264 2.412-.792.48-.552.72-1.428.72-2.628 0-.624-.024-1.488-.072-2.592-.048-1.128-.096-2.34-.144-3.636-.048-1.32-.096-2.592-.144-3.816a81.77 81.77 0 0 1-.072-3.132v-4.14c0-.648-.012-1.224-.036-1.728-.024-.6-.06-1.164-.108-1.692a22.294 22.294 0 0 0-.108-1.44 4.204 4.204 0 0 0-.18-1.08h5.436Zm-2.772 6.876h2.268a198.757 198.757 0 0 0 6.84-.288c1.224-.096 2.352-.192 3.384-.288l.144 4.284c-1.008.096-2.124.18-3.348.252-1.224.072-2.436.132-3.636.18-1.2.024-2.304.048-3.312.072-.984.024-1.752.036-2.304.036l-.036-4.248Zm30.544-6.912c-.12.432-.252.972-.396 1.62a98.76 98.76 0 0 0-.432 2.052c-.144.696-.276 1.38-.396 2.052a38.47 38.47 0 0 0-.216 1.764c.432-.72.948-1.416 1.548-2.088.6-.696 1.272-1.32 2.016-1.872a10.048 10.048 0 0 1 2.484-1.368 8.264 8.264 0 0 1 2.88-.504c1.68 0 3.192.516 4.536 1.548 1.344 1.032 2.4 2.508 3.168 4.428.792 1.92 1.188 4.2 1.188 6.84 0 2.544-.372 4.776-1.116 6.696-.744 1.896-1.812 3.516-3.204 4.86-1.392 1.344-3.06 2.436-5.004 3.276-1.92.864-4.068 1.512-6.444 1.944l-2.736-4.176c1.992-.312 3.816-.732 5.472-1.26 1.68-.552 3.12-1.296 4.32-2.232 1.224-.936 2.16-2.136 2.808-3.6.672-1.488 1.008-3.312 1.008-5.472 0-1.848-.192-3.408-.576-4.68-.384-1.296-.948-2.28-1.692-2.952-.72-.672-1.584-1.008-2.592-1.008-1.056 0-2.064.348-3.024 1.044-.96.696-1.824 1.608-2.592 2.736a15.786 15.786 0 0 0-1.8 3.6c-.432 1.296-.672 2.544-.72 3.744a35.005 35.005 0 0 0-.036 1.656c.024.6.096 1.32.216 2.16l-4.428.288c-.096-.696-.204-1.56-.324-2.592a37.897 37.897 0 0 1-.144-3.42c0-.84.024-1.74.072-2.7l.216-2.916c.096-1.008.204-2.016.324-3.024.144-1.008.276-1.968.396-2.88.096-.696.168-1.38.216-2.052a24.78 24.78 0 0 0 .072-1.728l4.932.216Zm39.888.072a58.696 58.696 0 0 0-.36 1.728c-.096.504-.18.996-.252 1.476a61.039 61.039 0 0 0-.36 2.196c-.12.936-.264 2.004-.432 3.204-.144 1.176-.3 2.412-.468 3.708-.144 1.272-.288 2.52-.432 3.744-.144 1.224-.264 2.34-.36 3.348a35.621 35.621 0 0 0-.108 2.412c0 1.488.444 2.628 1.332 3.42.912.768 2.256 1.152 4.032 1.152 1.68 0 3.096-.228 4.248-.684 1.152-.48 2.028-1.116 2.628-1.908.6-.792.9-1.68.9-2.664 0-1.224-.324-2.412-.972-3.564-.624-1.176-1.536-2.316-2.736-3.42l5.076-1.08c1.2 1.512 2.076 2.952 2.628 4.32.576 1.344.864 2.784.864 4.32 0 1.8-.516 3.408-1.548 4.824s-2.508 2.52-4.428 3.312c-1.896.792-4.164 1.188-6.804 1.188-1.872 0-3.54-.288-5.004-.864-1.464-.576-2.604-1.488-3.42-2.736-.816-1.248-1.224-2.868-1.224-4.86 0-.744.06-1.728.18-2.952.12-1.248.264-2.616.432-4.104.192-1.512.384-3.036.576-4.572.192-1.56.36-3.036.504-4.428.168-1.392.3-2.592.396-3.6.048-.84.072-1.476.072-1.908a7.652 7.652 0 0 0-.036-1.296l5.076.288Zm-12.852 4.464c1.08.336 2.256.624 3.528.864 1.272.216 2.58.384 3.924.504 1.344.096 2.616.144 3.816.144 1.416 0 2.736-.048 3.96-.144a41.787 41.787 0 0 0 3.204-.36l-.144 4.284c-1.08.096-2.16.18-3.24.252a59.66 59.66 0 0 1-3.888.108c-1.224 0-2.496-.06-3.816-.18a70.118 70.118 0 0 1-3.924-.54 55.807 55.807 0 0 1-3.636-.792l.216-4.14Zm-.756 8.928c1.296.432 2.604.768 3.924 1.008 1.344.24 2.664.408 3.96.504 1.32.072 2.58.108 3.78.108 1.104 0 2.292-.036 3.564-.108 1.296-.072 2.52-.18 3.672-.324l-.108 4.284c-1.008.096-2.04.18-3.096.252a72.193 72.193 0 0 1-3.276.072c-2.4 0-4.704-.12-6.912-.36-2.208-.264-4.128-.624-5.76-1.08l.252-4.356Zm55.764-15.228h11.952v3.888h-7.668v19.116h-4.284v-23.004Zm24.912 3.636h22.932v3.888H953.6v-3.888Zm4.68 9.936v3.564h13.14V949.9h-13.14Zm-3.924-3.492h21.24v10.584h-21.24v-10.584Zm3.384 10.98c1.104 1.704 2.568 3.18 4.392 4.428 1.824 1.224 3.996 2.208 6.516 2.952 2.52.744 5.34 1.26 8.46 1.548-.312.312-.636.696-.972 1.152-.312.456-.612.924-.9 1.404-.264.48-.492.912-.684 1.296-3.24-.432-6.156-1.14-8.748-2.124-2.568-.96-4.812-2.232-6.732-3.816-1.896-1.608-3.516-3.54-4.86-5.796l3.528-1.044Zm4.932-20.736h4.284v16.416c0 1.464-.096 2.904-.288 4.32a17.793 17.793 0 0 1-1.044 4.032 12.51 12.51 0 0 1-2.088 3.564c-.912 1.104-2.088 2.1-3.528 2.988-1.44.888-3.192 1.632-5.256 2.232-.144-.312-.384-.696-.72-1.152-.312-.432-.636-.876-.972-1.332a8.944 8.944 0 0 0-.972-1.08c1.944-.432 3.552-.984 4.824-1.656 1.296-.696 2.328-1.488 3.096-2.376.768-.888 1.344-1.836 1.728-2.844a13.28 13.28 0 0 0 .756-3.24c.12-1.128.18-2.292.18-3.492v-16.38Zm-11.808-.324 3.996 1.296a54.43 54.43 0 0 1-2.916 6.12 58.175 58.175 0 0 1-3.6 5.76c-1.272 1.8-2.592 3.384-3.96 4.752-.12-.36-.312-.816-.576-1.368a37.788 37.788 0 0 0-.864-1.692 13.435 13.435 0 0 0-.828-1.368 31.18 31.18 0 0 0 3.348-3.816 36.772 36.772 0 0 0 3.024-4.644 43.607 43.607 0 0 0 2.376-5.04Zm-3.528 10.008 4.104-4.104v28.08h-4.104v-23.976Zm39.672-5.076c-.096.432-.18.924-.252 1.476-.048.552-.096 1.092-.144 1.62-.024.528-.036.96-.036 1.296a80.868 80.868 0 0 0-.036 2.448l.072 2.592c.048.864.108 1.728.18 2.592.168 1.728.408 3.252.72 4.572.312 1.32.72 2.352 1.224 3.096.504.72 1.14 1.08 1.908 1.08.408 0 .804-.228 1.188-.684.408-.456.768-1.044 1.08-1.764.336-.744.624-1.524.864-2.34.264-.816.492-1.584.684-2.304l3.6 4.392c-.792 2.088-1.584 3.756-2.376 5.004-.768 1.224-1.572 2.112-2.412 2.664a5.045 5.045 0 0 1-2.736.792c-1.296 0-2.532-.432-3.708-1.296-1.152-.864-2.136-2.256-2.952-4.176-.816-1.944-1.392-4.524-1.728-7.74a70.89 70.89 0 0 1-.288-3.492 200.5 200.5 0 0 1-.108-3.492v-2.736c0-.504-.024-1.104-.072-1.8-.048-.696-.12-1.32-.216-1.872l5.544.072Zm18.002.828c.67.816 1.32 1.812 1.94 2.988a35.83 35.83 0 0 1 1.73 3.78c.53 1.344 1 2.724 1.4 4.14.41 1.392.74 2.76.98 4.104.26 1.32.43 2.532.5 3.636l-4.75 1.836c-.12-1.464-.34-3.06-.65-4.788a46.195 46.195 0 0 0-1.26-5.22 34.477 34.477 0 0 0-1.91-4.968c-.72-1.56-1.57-2.904-2.55-4.032l4.57-1.476Zm10.33.108h32.65v4.104h-32.65v-4.104Zm12.02 8.82h13.79v4.068h-13.79v-4.068Zm12.17 0h4.47s-.02.12-.04.36v.756c0 .288-.02.54-.07.756-.22 3.288-.46 5.976-.72 8.064-.27 2.088-.57 3.72-.9 4.896-.34 1.152-.75 1.992-1.23 2.52-.55.6-1.12 1.008-1.72 1.224-.6.216-1.32.372-2.16.468-.7.072-1.61.096-2.74.072-1.13 0-2.29-.024-3.49-.072-.03-.624-.18-1.344-.47-2.16a8.696 8.696 0 0 0-1.08-2.088c1.25.12 2.45.192 3.6.216 1.15.024 1.98.036 2.48.036.41 0 .75-.024 1.01-.072.29-.072.54-.204.76-.396.38-.312.71-.996.97-2.052.29-1.056.54-2.556.76-4.5.21-1.944.4-4.404.57-7.38v-.648Zm-13.79-6.372h4.83c-.1 1.92-.25 3.864-.47 5.832a39.865 39.865 0 0 1-1.01 5.796 24.094 24.094 0 0 1-2.09 5.436c-.91 1.728-2.11 3.336-3.6 4.824-1.48 1.488-3.37 2.808-5.65 3.96-.31-.6-.77-1.248-1.37-1.944a12.672 12.672 0 0 0-1.69-1.728c2.09-.96 3.79-2.076 5.11-3.348 1.35-1.296 2.4-2.688 3.17-4.176a19.697 19.697 0 0 0 1.69-4.716c.39-1.632.64-3.288.76-4.968.14-1.68.25-3.336.32-4.968Zm3.46-8.388h4.5v7.56h-4.5v-7.56Zm33.41 34.056h-11.95v-3.888h7.66v-19.116h4.29v23.004Zm39.17-28.476c1.1.144 2.34.252 3.7.324 1.4.048 2.8.072 4.22.072 1.44-.024 2.82-.072 4.14-.144 1.32-.096 2.46-.192 3.42-.288v4.644c-1.11.096-2.32.18-3.64.252a114.692 114.692 0 0 1-8.17 0c-1.32-.072-2.55-.156-3.67-.252v-4.608Zm2.88 15.372c-.15.6-.26 1.14-.33 1.62-.07.456-.11.924-.11 1.404 0 .384.1.744.29 1.08.19.312.48.588.87.828.4.216.92.384 1.54.504.65.096 1.43.144 2.34.144 1.61 0 3.12-.072 4.54-.216 1.42-.168 2.92-.408 4.5-.72l.07 4.86c-1.15.216-2.48.384-3.99.504-1.49.12-3.26.18-5.3.18-3.09 0-5.4-.516-6.91-1.548-1.51-1.056-2.27-2.508-2.27-4.356 0-.696.05-1.416.15-2.16.12-.768.27-1.608.47-2.52l4.14.396Zm-8.43-17.784c-.09.24-.2.576-.32 1.008-.12.432-.24.852-.36 1.26-.1.408-.17.72-.22.936-.07.504-.19 1.164-.36 1.98-.14.792-.3 1.692-.47 2.7-.14.984-.28 1.992-.43 3.024a97.051 97.051 0 0 0-.36 2.988c-.07.96-.11 1.8-.11 2.52v1.152c.03.432.08.828.15 1.188.17-.408.35-.816.54-1.224l.57-1.224c.2-.432.36-.84.51-1.224l2.23 1.764c-.34.984-.68 2.04-1.04 3.168a261.58 261.58 0 0 0-.94 3.204c-.26.984-.47 1.8-.61 2.448-.05.264-.1.564-.15.9-.02.336-.03.6-.03.792v.684c.02.288.05.552.07.792l-4.18.288c-.36-1.248-.68-2.904-.97-4.968-.29-2.088-.43-4.356-.43-6.804 0-1.344.06-2.712.18-4.104s.26-2.724.43-3.996c.17-1.296.33-2.472.47-3.528.17-1.056.31-1.932.43-2.628.05-.504.11-1.068.18-1.692.1-.648.16-1.26.18-1.836l5.04.432Zm40.03 15.228h19.66v3.78h-19.66v-3.78Zm12.78 2.232c.58 1.08 1.3 2.16 2.16 3.24.87 1.08 1.8 2.088 2.81 3.024 1.03.912 2.04 1.68 3.03 2.304-.29.24-.63.552-1.01.936-.39.384-.75.78-1.08 1.188-.34.408-.61.78-.83 1.116-1.03-.792-2.05-1.764-3.06-2.916a33.555 33.555 0 0 1-2.84-3.744 35.417 35.417 0 0 1-2.24-3.996l3.06-1.152Zm-7.88-10.116v2.34h9.94v-2.34h-9.94Zm0-5.58v2.304h9.94v-2.304h-9.94Zm-3.82-3.42h17.75v14.76h-17.75v-14.76Zm5.91 18.864 3.24 1.08a31.022 31.022 0 0 1-2.34 4.356 27.59 27.59 0 0 1-3.03 3.852c-1.1 1.176-2.26 2.16-3.49 2.952-.21-.336-.49-.72-.83-1.152-.33-.408-.68-.804-1.04-1.188-.36-.408-.7-.744-1.01-1.008 1.15-.6 2.27-1.368 3.35-2.304a24.39 24.39 0 0 0 2.95-3.132 21.423 21.423 0 0 0 2.2-3.456Zm.97-17.136h3.71v11.412h.25v19.296h-4.21v-19.296h.25v-11.412Zm-19.87 7.956h10.55v3.276h-10.55v-3.276Zm.14-9.9h10.33v3.24h-10.33v-3.24Zm-.14 14.832h10.55v3.24h-10.55v-3.24Zm-1.62-10.008h13.1v3.42h-13.1v-3.42Zm3.49 14.976h8.75v10.98h-8.75v-3.42h5.15v-4.14h-5.15v-3.42Zm-1.94 0h3.56v12.384h-3.56v-12.384Zm40.39-12.204v1.692h5.15v-1.692h-5.15Zm0-4.428v1.692h5.15v-1.692h-5.15Zm-3.82-2.916h12.96v11.952h-12.96v-11.952Zm-1.65 14.04h16.23v3.132h-16.23v-3.132Zm16.09-13.932h16.59v3.06h-16.59v-3.06Zm-9.4 14.904h3.64v14.472l-3.64-2.052v-12.42Zm1.91 5.076h6.95v3.132h-6.95v-3.132Zm14.44-19.224 3.92.828c-.46 1.008-.91 2.028-1.37 3.06-.43 1.008-.83 1.86-1.19 2.556l-3.09-.828c.31-.792.63-1.716.97-2.772.34-1.056.59-2.004.76-2.844Zm-2.02 11.556v1.692h6.59v-1.692h-6.59Zm0 4.464v1.692h6.59v-1.692h-6.59Zm0-8.892v1.692h6.59v-1.692h-6.59Zm-3.82-2.916h14.4v16.452h-14.4V942.88Zm2.92 16.704 3.53 1.116c-.75 1.008-1.71 1.992-2.88 2.952a23.267 23.267 0 0 1-3.42 2.34c-.22-.216-.49-.48-.83-.792-.34-.336-.68-.66-1.04-.972a7.774 7.774 0 0 0-.94-.756 17.51 17.51 0 0 0 3.13-1.728c1.01-.696 1.83-1.416 2.45-2.16Zm-18.5-3.168h3.49a77.157 77.157 0 0 1-.4 5.364 24.359 24.359 0 0 1-1.01 4.824 11.139 11.139 0 0 1-2.05 3.852c-.26-.456-.65-.984-1.15-1.584-.48-.6-.94-1.056-1.37-1.368.67-.84 1.18-1.848 1.51-3.024.36-1.176.6-2.448.72-3.816.15-1.392.23-2.808.26-4.248Zm2.88 2.988c.52 1.512 1.2 2.712 2.01 3.6.82.888 1.79 1.56 2.92 2.016 1.15.456 2.47.756 3.96.9 1.49.12 3.14.18 4.97.18h9.36c1.27-.024 2.43-.048 3.49-.072 1.05-.024 1.88-.036 2.48-.036-.29.384-.57.936-.86 1.656-.27.72-.45 1.344-.54 1.872h-13.93c-2.21 0-4.19-.108-5.94-.324-1.76-.216-3.3-.648-4.65-1.296-1.32-.624-2.46-1.56-3.42-2.808-.96-1.248-1.76-2.88-2.41-4.896l2.56-.792Zm20.7 1.512 2.98-1.548c.65.408 1.31.888 1.98 1.44.68.528 1.3 1.068 1.88 1.62.6.528 1.08 1.02 1.44 1.476l-3.1 1.836c-.38-.48-.86-1.008-1.44-1.584-.58-.576-1.2-1.152-1.87-1.728a23.91 23.91 0 0 0-1.87-1.512Zm25.63-22.104-.33 1.512c-.12.528-.22 1.02-.32 1.476-.1.528-.22 1.128-.36 1.8-.14.648-.29 1.308-.43 1.98-.12.648-.25 1.284-.4 1.908a130.754 130.754 0 0 1-2.16 8.028 78.432 78.432 0 0 1-1.62 4.716 82.927 82.927 0 0 1-1.91 4.644 31.12 31.12 0 0 1-2.16 4.032l-4.68-1.872a27.362 27.362 0 0 0 2.34-3.78 48.559 48.559 0 0 0 2.02-4.32c.6-1.488 1.13-2.952 1.58-4.392.48-1.464.89-2.82 1.23-4.068.36-1.248.63-2.316.83-3.204.33-1.632.6-3.204.79-4.716.19-1.512.26-2.94.21-4.284l5.37.54Zm12.38 3.636c.58.792 1.17 1.764 1.77 2.916a65.417 65.417 0 0 1 1.83 3.6c.6 1.272 1.14 2.496 1.62 3.672a39.08 39.08 0 0 1 1.12 3.06l-4.57 2.088a26.899 26.899 0 0 0-.98-3.348c-.4-1.224-.88-2.46-1.44-3.708a42.445 42.445 0 0 0-1.76-3.6c-.6-1.128-1.22-2.076-1.87-2.844l4.28-1.836Zm-27 3.744c.65.048 1.29.072 1.91.072l1.94-.072c.6-.024 1.32-.06 2.16-.108.84-.072 1.73-.144 2.67-.216l2.88-.216a66.38 66.38 0 0 1 2.66-.216c.82-.048 1.49-.072 2.02-.072 1.29 0 2.42.216 3.38.648.96.408 1.72 1.116 2.27 2.124.58 1.008.86 2.376.86 4.104 0 1.416-.06 2.952-.18 4.608-.12 1.656-.33 3.24-.64 4.752-.29 1.512-.7 2.796-1.23 3.852-.57 1.248-1.37 2.112-2.37 2.592-.99.48-2.16.72-3.53.72-.67 0-1.41-.06-2.2-.18-.79-.096-1.5-.204-2.12-.324l-.76-4.752c.46.12.96.24 1.51.36.58.12 1.12.216 1.62.288.53.072.95.108 1.26.108.6 0 1.13-.108 1.59-.324.45-.24.83-.648 1.11-1.224.34-.696.62-1.596.83-2.7.22-1.104.37-2.292.47-3.564.12-1.296.18-2.532.18-3.708 0-.96-.14-1.668-.43-2.124a1.905 1.905 0 0 0-1.19-.9c-.5-.168-1.13-.252-1.87-.252-.55 0-1.3.048-2.23.144-.94.072-1.95.168-3.03.288-1.05.096-2.04.204-2.95.324-.91.12-1.62.204-2.12.252-.53.096-1.2.204-2.02.324-.79.096-1.46.192-2.02.288l-.43-4.896Zm26.35-8.748c.32.432.64.948.98 1.548.36.6.7 1.2 1.04 1.8.34.6.62 1.128.86 1.584l-2.91 1.26c-.24-.504-.52-1.056-.83-1.656-.31-.6-.64-1.2-.97-1.8-.34-.6-.67-1.116-1.01-1.548l2.84-1.188Zm4.29-1.62c.31.456.65.984 1.01 1.584.36.6.7 1.2 1.04 1.8.36.6.64 1.104.83 1.512l-2.85 1.224c-.38-.744-.84-1.584-1.36-2.52-.53-.96-1.05-1.776-1.55-2.448l2.88-1.152Zm5.33 22.752h32.54v3.42h-32.54v-3.42Zm6.91-13.428h21.81v2.808h-21.81v-2.808Zm0 4.32h21.89v2.844h-21.89v-2.844Zm-.87-9.144h24.48v3.348h-24.48v-3.348Zm9 2.124h4.14v12.636h-4.14v-12.636Zm-1 13.824h4.28v13.932h-4.28v-13.932Zm-.36 3.708 3.24 1.62c-.92.888-1.97 1.764-3.17 2.628-1.18.84-2.45 1.632-3.82 2.376-1.37.72-2.76 1.368-4.17 1.944a39.446 39.446 0 0 1-4.18 1.44c-.34-.528-.77-1.152-1.3-1.872a13.85 13.85 0 0 0-1.47-1.692c1.37-.288 2.76-.648 4.17-1.08 1.42-.456 2.79-.96 4.11-1.512a36.225 36.225 0 0 0 3.71-1.836c1.12-.648 2.08-1.32 2.88-2.016Zm5.14-.108c.8.696 1.73 1.368 2.81 2.016 1.11.648 2.31 1.26 3.6 1.836 1.32.552 2.68 1.056 4.07 1.512 1.39.432 2.76.804 4.1 1.116-.31.264-.63.6-.97 1.008-.33.432-.66.864-.97 1.296-.31.432-.56.816-.76 1.152a39.297 39.297 0 0 1-4.17-1.44 46.812 46.812 0 0 1-4.11-1.944 41.476 41.476 0 0 1-3.74-2.304 29.571 29.571 0 0 1-3.17-2.592l3.31-1.656Zm-2.01-23.472 4.86.612a39.577 39.577 0 0 1-1.77 3.06 32.99 32.99 0 0 1-1.65 2.484l-3.82-.72c.43-.792.88-1.692 1.33-2.7.46-1.008.81-1.92 1.05-2.736Zm-9.22-.072 4.47.9a55.37 55.37 0 0 1-2.7 4.14 46.639 46.639 0 0 1-3.28 4.032 35.16 35.16 0 0 1-4.03 3.708 7.893 7.893 0 0 0-.87-1.008c-.36-.384-.74-.744-1.15-1.08a6.67 6.67 0 0 0-1.04-.828 27.31 27.31 0 0 0 3.63-3.096 30.533 30.533 0 0 0 2.92-3.42c.84-1.176 1.52-2.292 2.05-3.348Zm-3.45 6.192h4.06v11.34h23.37v3.24h-27.43v-14.58Zm33.3.144h29.73v18.072h-4.53v-13.824h-20.88v14.004h-4.32v-18.252Zm2.23 12.024h25.49v4.248h-25.49v-4.248Zm10.22-18.288h4.57v33.804h-4.57V936.4Z"/>
  </g>
  <defs>
    <clipPath id="a">
      <path fill="#fff" d="M0 0h1920v1080H0z"/>
    </clipPath>
  </defs>
</svg>
