<svg xmlns="http://www.w3.org/2000/svg" width="1920" height="1080" fill="none" viewBox="0 0 1920 1080">
  <g clip-path="url(#a)">
    <path fill="#fff" d="M1920 0H0v1080h1920V0Z"/>
    <path fill="#000" d="M828.32 126.56h27.04v25.28h-27.04V144h18v-9.52h-18v-7.92Zm-4.16 0h8.88v29.84h-8.88v-29.84Zm-13.04-23.84h20v6.48h-20v-6.48Zm37.12 0h20.16v6.48h-20.16v-6.48Zm16.16-11.6h9.76v60.56c0 2.667-.32 4.747-.96 6.24-.64 1.493-1.787 2.64-3.44 3.44-1.707.8-3.84 1.307-6.4 1.52-2.56.213-5.707.32-9.44.32-.053-.96-.267-2.027-.64-3.2a140.526 140.526 0 0 0-1.2-3.6c-.427-1.173-.907-2.187-1.44-3.04 1.6.107 3.2.187 4.8.24h4.24c1.28-.053 2.187-.08 2.72-.08.747 0 1.253-.133 1.52-.4.32-.32.48-.853.48-1.6v-60.4Zm-52.56 0h25.36v29.92h-25.36v-7.28h16.32V98.4h-16.32v-7.28Zm57.76 0v7.28h-17.92v15.52h17.92v7.2h-27.04v-30h27.04Zm-63.2 0h9.52v72.08h-9.52V91.12Zm89.2 16.32v3.76h11.44v-3.76H895.6Zm0-9.84v3.76h11.44V97.6H895.6Zm-8.48-6.48h28.8v26.56h-28.8V91.12Zm-3.68 31.2h36.08v6.96h-36.08v-6.96Zm35.76-30.96h36.88v6.8H919.2v-6.8Zm-20.88 33.12h8.08v32.16l-8.08-4.56v-27.6Zm4.24 11.28H918v6.96h-15.44v-6.96Zm32.08-42.72 8.72 1.84a850.145 850.145 0 0 0-3.04 6.8c-.96 2.24-1.84 4.133-2.64 5.68l-6.88-1.84c.693-1.76 1.413-3.813 2.16-6.16.747-2.347 1.307-4.453 1.68-6.32Zm-4.48 25.68v3.76h14.64v-3.76h-14.64Zm0 9.92v3.76h14.64v-3.76h-14.64Zm0-19.76v3.76h14.64v-3.76h-14.64Zm-8.48-6.48h32v36.56h-32V102.4Zm6.48 37.12L936 142c-1.653 2.24-3.787 4.427-6.4 6.56-2.56 2.08-5.093 3.813-7.6 5.2a69.843 69.843 0 0 0-1.84-1.76 44.296 44.296 0 0 0-2.32-2.16c-.747-.693-1.44-1.253-2.08-1.68a38.755 38.755 0 0 0 6.96-3.84c2.24-1.547 4.053-3.147 5.44-4.8Zm-41.12-7.04h7.76a171.3 171.3 0 0 1-.88 11.92c-.427 3.84-1.173 7.413-2.24 10.72-1.013 3.253-2.533 6.107-4.56 8.56-.587-1.013-1.44-2.187-2.56-3.52-1.067-1.333-2.08-2.347-3.04-3.04 1.493-1.867 2.613-4.107 3.36-6.72.8-2.613 1.333-5.44 1.6-8.48.32-3.093.507-6.24.56-9.44Zm6.4 6.64c1.173 3.36 2.667 6.027 4.48 8a17.69 17.69 0 0 0 6.48 4.48c2.56 1.013 5.493 1.68 8.8 2 3.307.267 6.987.4 11.04.4h20.8c2.827-.053 5.413-.107 7.76-.16 2.347-.053 4.187-.08 5.52-.08-.64.853-1.28 2.08-1.92 3.68-.587 1.6-.987 2.987-1.2 4.16h-30.96c-4.907 0-9.307-.24-13.2-.72-3.893-.48-7.333-1.44-10.32-2.88-2.933-1.387-5.467-3.467-7.6-6.24s-3.92-6.4-5.36-10.88l5.68-1.76Zm46 3.36 6.64-3.44a43.345 43.345 0 0 1 4.4 3.2 55.998 55.998 0 0 1 4.16 3.6c1.333 1.173 2.4 2.267 3.2 3.28l-6.88 4.08c-.853-1.067-1.92-2.24-3.2-3.52a73.945 73.945 0 0 0-4.16-3.84 52.407 52.407 0 0 0-4.16-3.36Zm61.92-35.04v4h21.68v-4h-21.68Zm0-10.08v3.92h21.68v-3.92h-21.68Zm-8.72-6.88h39.6v27.76h-39.6V90.48ZM988.72 122h47.6v7.76h-47.6V122Zm18.96 4.24h9.04v32.56l-9.04-3.92v-28.64Zm-7.36 14.16c1.33 3.947 3.09 6.88 5.28 8.8a17.288 17.288 0 0 0 7.52 3.76c2.83.587 5.87.88 9.12.88h12.64c1.55-.053 2.75-.107 3.6-.16-.37.64-.75 1.467-1.12 2.48a55.803 55.803 0 0 0-.88 3.12c-.27 1.067-.48 2-.64 2.8h-13.92c-3.31 0-6.35-.24-9.12-.72-2.77-.48-5.31-1.413-7.6-2.8-2.29-1.387-4.35-3.387-6.16-6-1.76-2.613-3.253-6.027-4.48-10.24l5.76-1.92Zm13.92-3.68H1032v7.52h-17.76v-7.52Zm-20.8-4.56 8.72 1.04c-.85 6.507-2.32 12.293-4.4 17.36-2.08 5.013-4.907 9.173-8.48 12.48-.48-.533-1.147-1.173-2-1.92a51.053 51.053 0 0 0-2.64-2.16 29.858 29.858 0 0 0-2.4-1.68c3.36-2.613 5.92-6.107 7.68-10.48 1.76-4.373 2.933-9.253 3.52-14.64Zm-31.6-3.52c3.253-.693 7.147-1.627 11.68-2.8 4.533-1.227 9.12-2.48 13.76-3.76l1.28 8.64c-4.213 1.227-8.48 2.48-12.8 3.76-4.32 1.227-8.267 2.347-11.84 3.36l-2.08-9.2Zm.8-25.44h25.44v8.8h-25.44v-8.8Zm8.64-15.12h8.8V152c0 2.187-.24 3.92-.72 5.2-.427 1.28-1.253 2.293-2.48 3.04-1.227.747-2.747 1.227-4.56 1.44-1.76.267-3.947.4-6.56.4-.107-1.173-.4-2.64-.88-4.4-.48-1.707-1.013-3.173-1.6-4.4 1.44.053 2.8.08 4.08.08 1.28 0 2.16-.027 2.64-.08.48 0 .8-.08.96-.24.213-.213.32-.587.32-1.12V88.08ZM1045.6 96h32.8v8.32h-32.8V96Zm41.52 15.84h21.84v8.32h-21.84v-8.32Zm-43.76-.08h37.04v8.48h-37.04v-8.48Zm20.88 17.12h15.44v8.24h-15.44v-8.24Zm-6.72-40.64h8.96v28.08h-8.96V88.24Zm2 28.96h8.8v35.6h-8.8v-35.6Zm23.2-26.08h30.32v31.04h-9.2V99.52h-21.12v-8.4Zm.64 20.72h9.28v24.72c0 1.387.21 2.267.64 2.64.43.373 1.44.56 3.04.56h9.2c.96 0 1.68-.24 2.16-.72.53-.48.88-1.467 1.04-2.96.21-1.493.37-3.707.48-6.64.69.48 1.52.96 2.48 1.44 1.01.427 2.05.827 3.12 1.2 1.07.373 2 .693 2.8.96-.32 4-.88 7.12-1.68 9.36-.75 2.187-1.89 3.733-3.44 4.64-1.49.853-3.55 1.28-6.16 1.28h-11.36c-2.93 0-5.25-.32-6.96-.96-1.65-.693-2.85-1.893-3.6-3.6-.69-1.707-1.04-4.107-1.04-7.2v-24.72Zm-29.84 20.8c1.12 4.213 2.51 7.6 4.16 10.16 1.71 2.56 3.79 4.507 6.24 5.84 2.45 1.28 5.31 2.16 8.56 2.64 3.31.427 7.07.64 11.28.64 1.01 0 2.4.027 4.16.08h5.92c2.19-.053 4.45-.08 6.8-.08h6.96c2.29 0 4.37-.027 6.24-.08 1.87-.107 3.41-.16 4.64-.16-.48.693-.99 1.6-1.52 2.72a36.96 36.96 0 0 0-1.28 3.44c-.37 1.227-.67 2.32-.88 3.28h-31.04c-5.28 0-9.95-.347-14-1.04-4-.64-7.49-1.893-10.48-3.76-2.93-1.867-5.41-4.533-7.44-8-2.03-3.467-3.76-8-5.2-13.6l6.88-2.08Zm-7.36-7.76 8.8.64c-.16 5.067-.43 9.973-.8 14.72-.32 4.747-.88 9.173-1.68 13.28-.8 4.053-1.89 7.627-3.28 10.72-.53-.427-1.31-.907-2.32-1.44-.96-.48-1.97-.987-3.04-1.52-1.07-.48-1.95-.853-2.64-1.12 1.33-2.72 2.32-5.947 2.96-9.68.69-3.733 1.17-7.787 1.44-12.16.32-4.373.51-8.853.56-13.44Z"/>
    <path fill="#DC2626" d="M1630 290H290c-16.569 0-30 13.431-30 30v440c0 16.569 13.431 30 30 30h1340c16.57 0 30-13.431 30-30V320c0-16.569-13.43-30-30-30Z"/>
    <path fill="#fff" d="M614.077 360.76h39.84v12.96h-25.56v63.72h-14.28v-76.68Zm102 102.24-4.92-20.4h-27.72l-5.04 20.4h-21.12l27.36-86.04h24.96l27.48 86.04h-21Zm-14.76-55.56c-.48-1.68-.96-3.44-1.44-5.28-.48-1.84-.96-3.76-1.44-5.76-.4-2-.8-4.04-1.2-6.12a85.69 85.69 0 0 1-1.2 6.24c-.48 2-.96 3.92-1.44 5.76-.4 1.84-.84 3.56-1.32 5.16l-5.52 19.92h19.2l-5.64-19.92ZM780.042 463h-39.24v-10.32l9.96-4.8v-55.44l-9.96-4.8v-10.32h39.24v10.32l-9.84 4.8v55.44l9.84 4.8V463Zm57.441-83.88c3.68.48 7.8.84 12.36 1.08 4.64.16 9.32.24 14.04.24 4.8-.08 9.4-.24 13.8-.48 4.4-.32 8.2-.64 11.4-.96v15.48c-3.68.32-7.72.6-12.12.84-4.4.16-8.92.24-13.56.24-4.64 0-9.2-.08-13.68-.24-4.4-.24-8.48-.52-12.24-.84v-15.36Zm9.6 51.24c-.48 2-.84 3.8-1.08 5.4-.24 1.52-.36 3.08-.36 4.68 0 1.28.32 2.48.96 3.6.64 1.04 1.6 1.96 2.88 2.76 1.36.72 3.08 1.28 5.16 1.68 2.16.32 4.76.48 7.8.48 5.36 0 10.4-.24 15.12-.72 4.72-.56 9.72-1.36 15-2.4l.24 16.2c-3.84.72-8.28 1.28-13.32 1.68-4.96.4-10.84.6-17.64.6-10.32 0-18-1.72-23.04-5.16-5.04-3.52-7.56-8.36-7.56-14.52 0-2.32.16-4.72.48-7.2.4-2.56.92-5.36 1.56-8.4l13.8 1.32Zm-28.08-59.28c-.32.8-.68 1.92-1.08 3.36s-.8 2.84-1.2 4.2c-.32 1.36-.56 2.4-.72 3.12-.24 1.68-.64 3.88-1.2 6.6-.48 2.64-1 5.64-1.56 9-.48 3.28-.96 6.64-1.44 10.08a257.7 257.7 0 0 0-1.2 9.96c-.24 3.2-.36 6-.36 8.4v3.84c.08 1.44.24 2.76.48 3.96.56-1.36 1.16-2.72 1.8-4.08l1.92-4.08c.64-1.44 1.2-2.8 1.68-4.08l7.44 5.88c-1.12 3.28-2.28 6.8-3.48 10.56-1.12 3.76-2.16 7.32-3.12 10.68-.88 3.28-1.56 6-2.04 8.16-.16.88-.32 1.88-.48 3-.08 1.12-.12 2-.12 2.64v2.28c.08.96.16 1.84.24 2.64l-13.92.96c-1.2-4.16-2.28-9.68-3.24-16.56-.96-6.96-1.44-14.52-1.44-22.68 0-4.48.2-9.04.6-13.68.4-4.64.88-9.08 1.44-13.32.56-4.32 1.08-8.24 1.56-11.76.56-3.52 1.04-6.44 1.44-8.76.16-1.68.36-3.56.6-5.64.32-2.16.52-4.2.6-6.12l16.8 1.44Zm186.957-8.4 10.56 12.24c-4.72 1.52-9.8 2.96-15.24 4.32a414.77 414.77 0 0 1-16.917 3.6c-5.84 1.04-11.68 2-17.52 2.88-5.84.8-11.56 1.52-17.16 2.16-.32-1.76-.92-3.84-1.8-6.24-.88-2.4-1.72-4.44-2.52-6.12 5.44-.64 10.92-1.4 16.44-2.28 5.6-.96 11.04-2 16.32-3.12 5.36-1.12 10.4-2.28 15.12-3.48 4.72-1.28 8.957-2.6 12.717-3.96Zm-63.957 48.48h77.517v13.92h-77.517v-13.92Zm4.92 44.64h71.277v13.8h-71.277v-13.8Zm27.72-75.36h14.64v79.68h-14.64v-79.68Zm-50.88 15.6 14.04-14.16.24.24v91.44h-14.28v-77.52Zm11.88-34.56 14.16 4.44c-2.72 7.04-6 14.08-9.84 21.12-3.84 6.96-7.96 13.56-12.36 19.8-4.4 6.16-8.96 11.56-13.68 16.2-.48-1.2-1.24-2.76-2.28-4.68-1.04-1.92-2.12-3.84-3.24-5.76s-2.12-3.48-3-4.68c4-3.76 7.88-8.08 11.64-12.96 3.84-4.96 7.32-10.32 10.44-16.08 3.2-5.76 5.92-11.56 8.16-17.4Zm179.877 7.32c-.08.64-.16 1.6-.24 2.88-.08 1.2-.16 2.48-.24 3.84-.08 1.36-.16 2.6-.24 3.72 0 2.64-.04 5.2-.12 7.68 0 2.48-.04 4.84-.12 7.08 0 2.16-.04 4.28-.12 6.36-.08 3.52-.2 7.2-.36 11.04-.16 3.84-.36 7.4-.6 10.68-.24 3.28-.56 5.96-.96 8.04-.64 3.12-1.76 5.24-3.36 6.36-1.6 1.04-3.96 1.56-7.08 1.56-1.36 0-3.24-.08-5.64-.24-2.32-.24-4.64-.52-6.96-.84-2.24-.32-4.08-.56-5.52-.72l.36-13.32c1.84.4 3.84.76 6 1.08 2.24.32 3.92.48 5.04.48 1.2 0 2.08-.16 2.64-.48.64-.4 1-1.16 1.08-2.28.24-1.52.4-3.44.48-5.76.16-2.32.28-4.84.36-7.56.16-2.8.28-5.52.36-8.16v-20.4c0-1.04-.08-2.24-.24-3.6-.08-1.44-.16-2.84-.24-4.2-.08-1.36-.2-2.44-.36-3.24h16.08Zm-47.16 3.6c-.32 2-.52 3.96-.6 5.88-.08 1.84-.12 4.04-.12 6.6 0 2.16-.04 5.04-.12 8.64 0 3.6-.04 7.52-.12 11.76 0 4.16-.04 8.36-.12 12.6v11.4c0 3.44.04 6.16.12 8.16.08 2.96.28 5.4.6 7.32.4 1.84 1.2 3.28 2.4 4.32 1.2 1.04 3.08 1.76 5.64 2.16 2.64.4 6.2.6 10.68.6 3.92 0 8.08-.12 12.48-.36 4.4-.32 8.64-.72 12.72-1.2s7.64-.96 10.68-1.44l-.6 16.32c-2.64.32-5.92.6-9.84.84-3.92.32-8 .56-12.24.72-4.24.24-8.28.36-12.12.36-7.76 0-13.96-.44-18.6-1.32-4.64-.88-8.16-2.36-10.56-4.44-2.4-2.08-4-4.88-4.8-8.4-.8-3.52-1.28-7.88-1.44-13.08 0-1.76-.04-4.12-.12-7.08v-32.04c.08-3.52.12-6.6.12-9.24v-5.76c0-2.48-.08-4.8-.24-6.96-.16-2.16-.4-4.28-.72-6.36h16.92Zm-40.2 27.12c1.76 0 3.96-.08 6.6-.24 2.64-.16 5.48-.36 8.52-.6 2.4-.24 5.96-.56 10.68-.96 4.72-.48 10.08-1 16.08-1.56 6-.56 12.24-1.12 18.72-1.68 6.56-.64 12.84-1.2 18.84-1.68s11.32-.88 15.96-1.2c1.68-.16 3.56-.28 5.64-.36 2.16-.16 4.12-.32 5.88-.48v14.76c-.64-.08-1.68-.12-3.12-.12-1.44 0-2.96.04-4.56.12-1.52 0-2.8.04-3.84.12-3.12.08-6.92.28-11.4.6-4.48.24-9.28.6-14.4 1.08-5.12.4-10.36.88-15.72 1.44-5.28.48-10.36 1-15.24 1.56-4.88.56-9.28 1.04-13.2 1.44-3.92.4-7.04.72-9.36.96-1.28.16-2.84.4-4.68.72-1.84.24-3.68.52-5.52.84-1.76.24-3.16.44-4.2.6l-1.68-15.36Zm232.56 57.24c-2.8 2.56-6.04 4.68-9.72 6.36-3.68 1.68-7.96 2.52-12.84 2.52-4.48 0-8.12-1.56-10.92-4.68-2.72-3.12-4.08-7.6-4.08-13.44 0-3.2.2-6.64.6-10.32.48-3.76 1-7.52 1.56-11.28s1.04-7.32 1.44-10.68c.48-3.44.72-6.52.72-9.24 0-2.96-.72-5.16-2.16-6.6-1.44-1.52-3.44-2.28-6-2.28-2.8 0-5.92 1-9.36 3-3.44 1.92-6.96 4.4-10.56 7.44-3.6 3.04-7.04 6.28-10.32 9.72-3.2 3.44-6 6.72-8.4 9.84l-.12-18.48c1.44-1.6 3.32-3.48 5.64-5.64 2.4-2.16 5.08-4.4 8.04-6.72 3.04-2.32 6.2-4.48 9.48-6.48 3.36-2.08 6.72-3.76 10.08-5.04 3.44-1.28 6.76-1.92 9.96-1.92 4.32 0 7.84.8 10.56 2.4 2.8 1.52 4.88 3.64 6.24 6.36 1.36 2.64 2.04 5.64 2.04 9 0 3.12-.2 6.52-.6 10.2-.4 3.6-.88 7.28-1.44 11.04-.56 3.76-1.04 7.48-1.44 11.16-.32 3.68-.48 7.04-.48 10.08 0 1.6.4 2.92 1.2 3.96.8.96 1.92 1.44 3.36 1.44 2.24 0 4.72-.72 7.44-2.16 2.72-1.52 5.44-3.68 8.16-6.48l1.92 16.92Zm-82.92-57.24c-1.28.16-2.92.36-4.92.6s-4.16.52-6.48.84c-2.24.32-4.52.64-6.84.96-2.32.32-4.48.6-6.48.84l-1.56-15.36c1.76.08 3.4.12 4.92.12 1.6-.08 3.44-.16 5.52-.24 1.92-.16 4.2-.36 6.84-.6 2.72-.32 5.44-.68 8.16-1.08 2.8-.4 5.4-.84 7.8-1.32 2.4-.48 4.28-.96 5.64-1.44l4.8 6.12c-.72.96-1.56 2.16-2.52 3.6-.88 1.44-1.8 2.92-2.76 4.44-.96 1.44-1.8 2.72-2.52 3.84l-7.08 22.56a1297.8 1297.8 0 0 0-4.8 6.96c-1.84 2.8-3.8 5.76-5.88 8.88-2.08 3.12-4.12 6.12-6.12 9s-3.8 5.4-5.4 7.56l-9.48-13.08c1.52-1.92 3.24-4.12 5.16-6.6 2-2.56 4.08-5.24 6.24-8.04 2.16-2.88 4.28-5.72 6.36-8.52 2.08-2.88 4-5.56 5.76-8.04 1.84-2.56 3.36-4.76 4.56-6.6l.24-3.12.84-2.28Zm-1.44-23.04v-5.28c0-1.84-.16-3.68-.48-5.52l17.52.6c-.48 1.84-1 4.52-1.56 8.04-.48 3.44-1 7.4-1.56 11.88-.48 4.48-.96 9.2-1.44 14.16-.4 4.88-.76 9.76-1.08 14.64-.24 4.88-.36 9.44-.36 13.68v9.96c.08 3.36.16 6.8.24 10.32.08 3.52.24 7.16.48 10.92.08 1.04.2 2.48.36 4.32.16 1.92.32 3.56.48 4.92h-16.56c.16-1.44.24-3.04.24-4.8.08-1.76.12-3.12.12-4.08.08-3.92.16-7.56.24-10.92.08-3.36.12-6.92.12-10.68.08-3.76.2-8.12.36-13.08.08-1.84.2-4.16.36-6.96.16-2.88.32-6 .48-9.36.24-3.44.48-6.92.72-10.44.24-3.52.44-6.8.6-9.84.24-3.12.4-5.76.48-7.92.16-2.24.24-3.76.24-4.56Zm130.92 14.28c3.44.32 6.88.56 10.32.72 3.52.16 7.08.24 10.68.24 7.36 0 14.68-.32 21.96-.96 7.28-.64 14.04-1.56 20.28-2.76v14.76c-6.32.96-13.12 1.68-20.4 2.16-7.28.48-14.56.76-21.84.84-3.52 0-7-.04-10.44-.12-3.44-.16-6.92-.36-10.44-.6l-.12-14.28Zm45.6-20.28c-.16 1.12-.32 2.36-.48 3.72-.08 1.36-.16 2.68-.24 3.96-.08 1.28-.16 3.04-.24 5.28-.08 2.16-.16 4.6-.24 7.32v8.28c0 5.52.08 10.64.24 15.36.24 4.72.48 9.12.72 13.2.32 4 .56 7.72.72 11.16.16 3.36.24 6.48.24 9.36 0 3.12-.44 6.04-1.32 8.76-.8 2.64-2.12 4.92-3.96 6.84-1.84 2-4.28 3.52-7.32 4.56-2.96 1.12-6.6 1.68-10.92 1.68-8.32 0-14.88-1.68-19.68-5.04-4.8-3.36-7.2-8.2-7.2-14.52 0-4.08 1.08-7.68 3.24-10.8 2.24-3.12 5.32-5.52 9.24-7.2 4-1.76 8.72-2.64 14.16-2.64 5.68 0 10.84.64 15.48 1.92 4.64 1.2 8.84 2.8 12.6 4.8 3.84 2 7.28 4.16 10.32 6.48 3.04 2.32 5.72 4.56 8.04 6.72l-8.04 12.6c-4.64-4.32-9.16-8.04-13.56-11.16-4.32-3.12-8.6-5.52-12.84-7.2a35.52 35.52 0 0 0-13.2-2.52c-3.36 0-6.12.68-8.28 2.04-2.08 1.28-3.12 3.04-3.12 5.28 0 2.48 1.08 4.28 3.24 5.4s4.8 1.68 7.92 1.68c2.48 0 4.44-.44 5.88-1.32 1.44-.88 2.48-2.12 3.12-3.72.64-1.6.96-3.56.96-5.88 0-2.08-.08-4.8-.24-8.16-.16-3.44-.36-7.2-.6-11.28-.24-4.16-.44-8.48-.6-12.96-.16-4.56-.24-9-.24-13.32v-12.48c0-3.76-.04-6.52-.12-8.28 0-.96-.08-2.2-.24-3.72-.16-1.6-.36-3-.6-4.2h17.16Zm-58.56 1.2c-.24.8-.56 1.92-.96 3.36l-1.2 4.32c-.32 1.36-.56 2.4-.72 3.12-.4 1.6-.84 3.84-1.32 6.72-.4 2.88-.88 6.12-1.44 9.72-.56 3.52-1.04 7.12-1.44 10.8-.4 3.68-.76 7.2-1.08 10.56-.24 3.36-.36 6.24-.36 8.64 0 1.12.04 2.4.12 3.84.08 1.44.2 2.76.36 3.96.56-1.44 1.12-2.84 1.68-4.2.64-1.36 1.24-2.72 1.8-4.08.64-1.36 1.24-2.68 1.8-3.96l7.44 5.76c-1.04 3.28-2.16 6.72-3.36 10.32-1.2 3.6-2.28 7.04-3.24 10.32-.88 3.2-1.56 5.88-2.04 8.04-.16.8-.32 1.76-.48 2.88-.16 1.12-.2 2-.12 2.64v2.28c0 .96.04 1.88.12 2.76l-13.44.96c-1.28-4.16-2.4-9.56-3.36-16.2-.96-6.64-1.44-14-1.44-22.08 0-4.56.2-9.28.6-14.16.4-4.88.88-9.6 1.44-14.16.56-4.64 1.08-8.84 1.56-12.6.56-3.76 1-6.8 1.32-9.12.24-1.68.48-3.6.72-5.76.24-2.16.4-4.16.48-6l16.56 1.32Zm68.4-6c.8 1.52 1.56 3.28 2.28 5.28.8 1.92 1.56 3.88 2.28 5.88.72 1.92 1.32 3.64 1.8 5.16l-8.4 2.76c-.56-1.76-1.2-3.6-1.92-5.52-.64-1.92-1.32-3.84-2.04-5.76-.64-1.92-1.36-3.68-2.16-5.28l8.16-2.52Zm12.36-3.84c.8 1.52 1.6 3.28 2.4 5.28.8 1.92 1.56 3.84 2.28 5.76.8 1.92 1.44 3.68 1.92 5.28l-8.28 2.64c-.88-2.56-1.88-5.32-3-8.28-1.12-3.04-2.28-5.76-3.48-8.16l8.16-2.52ZM766.72 521.4h106.8v14.88h-106.8V521.4Zm61.68 6c2.4 9.12 5.72 17.64 9.96 25.56 4.24 7.92 9.48 14.84 15.72 20.76 6.32 5.92 13.68 10.6 22.08 14.04-1.2 1.04-2.48 2.36-3.84 3.96-1.28 1.6-2.56 3.24-3.84 4.92-1.2 1.76-2.2 3.32-3 4.68-9.2-4.32-17.12-9.88-23.76-16.68-6.56-6.8-12.08-14.72-16.56-23.76-4.48-9.12-8.24-19.16-11.28-30.12l14.52-3.36Zm-16.56-38.28h15.72c-.08 6.08-.28 12.52-.6 19.32-.24 6.72-.84 13.56-1.8 20.52-.96 6.96-2.52 13.88-4.68 20.76-2.08 6.8-5.04 13.36-8.88 19.68-3.76 6.24-8.64 12.08-14.64 17.52-5.92 5.44-13.16 10.24-21.72 14.4-1.12-1.92-2.68-4.04-4.68-6.36-2-2.32-4.04-4.24-6.12-5.76 8.16-3.68 15-7.92 20.52-12.72 5.52-4.88 10-10.12 13.44-15.72 3.52-5.68 6.2-11.56 8.04-17.64 1.84-6.16 3.08-12.36 3.72-18.6.72-6.24 1.16-12.36 1.32-18.36.16-6 .28-11.68.36-17.04Zm75 21.6H993.4v14.04H886.84v-14.04Zm27 17.88c3.28 11.92 8.16 22 14.64 30.24 6.56 8.16 15.2 14.6 25.92 19.32 10.8 4.72 24.24 7.92 40.32 9.6-1.04 1.04-2.12 2.4-3.24 4.08a86.107 86.107 0 0 0-3.12 5.04c-.96 1.68-1.76 3.24-2.4 4.68-12.72-1.68-23.76-4.28-33.12-7.8-9.36-3.52-17.4-8.12-24.12-13.8-6.64-5.68-12.28-12.48-16.92-20.4-4.56-8-8.44-17.24-11.64-27.72l13.68-3.24Zm31.08-37.56h15.96c-.08 9.52-.28 18.52-.6 27-.24 8.4-.96 16.28-2.16 23.64-1.2 7.28-3.16 13.96-5.88 20.04-2.64 6.08-6.36 11.6-11.16 16.56-4.8 4.88-11 9.16-18.6 12.84-7.52 3.76-16.84 6.88-27.96 9.36-.4-1.28-1.08-2.72-2.04-4.32-.88-1.52-1.88-3.04-3-4.56-1.12-1.52-2.2-2.8-3.24-3.84 10.24-2.08 18.8-4.68 25.68-7.8 6.96-3.12 12.56-6.72 16.8-10.8 4.32-4.16 7.56-8.88 9.72-14.16 2.24-5.28 3.8-11.12 4.68-17.52.88-6.48 1.4-13.56 1.56-21.24.16-7.76.24-16.16.24-25.2Zm61.68 48.12h106.92v14.76H1006.6v-14.76Zm8.28-34.2h92.04v14.88h-92.04v-14.88Zm50.64 38.16c3.68 11.76 9.68 21.4 18 28.92 8.32 7.52 19.6 12.64 33.84 15.36-1.04 1.12-2.2 2.48-3.48 4.08-1.2 1.6-2.32 3.24-3.36 4.92-1.04 1.76-1.92 3.32-2.64 4.68-10.24-2.64-18.96-6.36-26.16-11.16-7.2-4.88-13.2-10.96-18-18.24-4.72-7.28-8.64-15.8-11.76-25.56l13.56-3ZM1051.84 489h15.48v39.24c0 5.6-.36 11.28-1.08 17.04-.72 5.76-2.12 11.44-4.2 17.04-2.08 5.52-5.12 10.76-9.12 15.72-4 4.96-9.28 9.48-15.84 13.56-6.56 4.08-14.64 7.56-24.24 10.44-.56-1.28-1.36-2.76-2.4-4.44-.96-1.6-2.04-3.24-3.24-4.92-1.2-1.6-2.28-2.92-3.24-3.96 8.56-2.4 15.72-5.32 21.48-8.76 5.76-3.44 10.4-7.2 13.92-11.28 3.52-4.16 6.16-8.48 7.92-12.96 1.84-4.56 3.04-9.16 3.6-13.8.64-4.64.96-9.2.96-13.68V489Zm111.36 113.04h-39.84v-12.96h25.56v-63.72h14.28v76.68Z"/>
    <path fill="#FF0" d="M793.3 674.7a62.442 62.442 0 0 1-4.7 2.7c-1.6.867-3.333 1.767-5.2 2.7-1.533.8-3.433 1.733-5.7 2.8-2.2 1.067-4.6 2.267-7.2 3.6a174.886 174.886 0 0 0-7.7 4.1c-2.6 1.4-5.033 2.833-7.3 4.3-4.133 2.733-7.5 5.567-10.1 8.5-2.533 2.933-3.8 6.167-3.8 9.7 0 3.533 1.733 6.267 5.2 8.2 3.467 1.867 8.667 2.8 15.6 2.8 3.467 0 7.133-.133 11-.4 3.933-.333 7.8-.767 11.6-1.3 3.8-.6 7.167-1.267 10.1-2l-.2 14.4c-2.8.467-5.867.9-9.2 1.3-3.267.4-6.833.7-10.7.9-3.8.2-7.867.3-12.2.3-5 0-9.633-.4-13.9-1.2-4.2-.733-7.9-1.967-11.1-3.7-3.133-1.733-5.6-4.067-7.4-7-1.733-2.933-2.6-6.533-2.6-10.8s.933-8.133 2.8-11.6c1.867-3.467 4.4-6.667 7.6-9.6 3.267-2.933 6.833-5.7 10.7-8.3 2.4-1.6 4.933-3.133 7.6-4.6 2.667-1.533 5.267-3 7.8-4.4 2.6-1.4 5-2.667 7.2-3.8 2.267-1.2 4.133-2.233 5.6-3.1a166.243 166.243 0 0 0 5.1-3.1 47.54 47.54 0 0 0 4.2-3l6.9 11.6ZM743 653.3c1.667 4.4 3.4 8.633 5.2 12.7 1.867 4.067 3.7 7.867 5.5 11.4a736.87 736.87 0 0 0 5.1 9.5l-11.3 6.7c-1.8-3.067-3.667-6.5-5.6-10.3-1.933-3.8-3.867-7.8-5.8-12a444.609 444.609 0 0 1-5.6-12.9l12.5-5.1Zm93 8.2c-.267 1.2-.5 2.567-.7 4.1-.133 1.533-.267 3.033-.4 4.5a81.886 81.886 0 0 0-.1 3.6c-.067 2.2-.1 4.467-.1 6.8.067 2.333.133 4.733.2 7.2.133 2.4.3 4.8.5 7.2.467 4.8 1.133 9.033 2 12.7s2 6.533 3.4 8.6c1.4 2 3.167 3 5.3 3 1.133 0 2.233-.633 3.3-1.9 1.133-1.267 2.133-2.9 3-4.9a50.252 50.252 0 0 0 2.4-6.5c.733-2.267 1.367-4.4 1.9-6.4l10 12.2c-2.2 5.8-4.4 10.433-6.6 13.9-2.133 3.4-4.367 5.867-6.7 7.4-2.333 1.467-4.867 2.2-7.6 2.2-3.6 0-7.033-1.2-10.3-3.6-3.2-2.4-5.933-6.267-8.2-11.6-2.267-5.4-3.867-12.567-4.8-21.5-.333-3.067-.6-6.3-.8-9.7-.133-3.4-.233-6.633-.3-9.7v-7.6c0-1.4-.067-3.067-.2-5-.133-1.933-.333-3.667-.6-5.2l15.4.2Zm50 2.3c1.867 2.267 3.667 5.033 5.4 8.3 1.733 3.267 3.333 6.767 4.8 10.5a129.236 129.236 0 0 1 3.9 11.5 108.32 108.32 0 0 1 2.7 11.4c.733 3.667 1.2 7.033 1.4 10.1l-13.2 5.1c-.333-4.067-.933-8.5-1.8-13.3-.867-4.8-2.033-9.633-3.5-14.5-1.467-4.867-3.233-9.467-5.3-13.8-2-4.333-4.367-8.067-7.1-11.2l12.7-4.1Zm92.5 36.5c0-2.2-.567-4.2-1.7-6-1.067-1.8-2.7-3.233-4.9-4.3-2.133-1.133-4.8-1.7-8-1.7-3.6 0-7.1.3-10.5.9-3.333.6-6.333 1.3-9 2.1a295.2 295.2 0 0 0-6.5 1.9c-1.467.4-3.1.967-4.9 1.7a272.652 272.652 0 0 1-4.8 1.8l-3.8-14.3c1.733-.133 3.6-.367 5.6-.7 2-.333 3.8-.667 5.4-1a302.05 302.05 0 0 1 8.4-1.9c3.2-.733 6.667-1.367 10.4-1.9 3.733-.533 7.533-.8 11.4-.8 5.333 0 10 1 14 3 4.067 1.933 7.233 4.733 9.5 8.4 2.267 3.667 3.4 8.1 3.4 13.3 0 5.333-1.167 10.167-3.5 14.5s-5.633 8.133-9.9 11.4c-4.267 3.2-9.3 5.867-15.1 8-5.8 2.133-12.167 3.667-19.1 4.6l-7.2-12.4c6.2-.733 11.8-1.8 16.8-3.2 5.067-1.4 9.367-3.167 12.9-5.3 3.6-2.2 6.333-4.767 8.2-7.7 1.933-3 2.9-6.467 2.9-10.4Zm-39.3-48c2.867.6 6.3 1.167 10.3 1.7 4.067.533 8.233 1 12.5 1.4 4.333.4 8.433.733 12.3 1 3.933.2 7.2.333 9.8.4l-2 12.3c-2.933-.2-6.367-.467-10.3-.8-3.933-.333-8-.7-12.2-1.1-4.2-.467-8.267-.933-12.2-1.4a499.584 499.584 0 0 1-10.2-1.5l2-12Zm109.9 54.1h58.2v10.7h-58.2v-10.7Zm30.4-45.7v11h12.1v-11h-12.1Zm-10.3-9.8h33.4v30.7h-33.4v-30.7Zm12.7 71.5 9.9-5.4c2 1.867 4.03 3.933 6.1 6.2 2.07 2.2 4 4.4 5.8 6.6 1.87 2.2 3.33 4.233 4.4 6.1l-10.6 6c-.93-1.8-2.27-3.833-4-6.1a97.846 97.846 0 0 0-5.6-6.9c-2-2.4-4-4.567-6-6.5Zm-29.2-63.6h10.9v42.8h-10.9v-42.8Zm12.3 57.7 10.5 5.9c-1.53 2.267-3.43 4.633-5.7 7.1a86.297 86.297 0 0 1-7.1 6.9c-2.47 2.133-4.9 3.967-7.3 5.5-1.07-1.133-2.43-2.433-4.1-3.9-1.67-1.467-3.2-2.7-4.6-3.7 2.33-1.4 4.67-3.1 7-5.1 2.33-2.067 4.5-4.2 6.5-6.4 2-2.267 3.6-4.367 4.8-6.3Zm-6.6-29.4h41.5v24.5h-11.8v-14.1h-29.7v-10.4Zm-40.9-8.4h27.9v9.1h-27.9v-9.1Zm.6-27.5h26.9v9h-26.9v-9Zm-.6 41.2h27.9v9h-27.9v-9Zm-4.5-27.8h35.7v9.5H1013v-9.5Zm10 41.6h22.6v30.3H1023v-9.4h12.7v-11.5H1023v-9.4Zm-5.8 0h9.7v34.4h-9.7v-34.4Zm107-32.4h27.8v8.8h-27.8v-8.8Zm0 16.3h27.8v8.5h-27.8v-8.5Zm0 16.8h27.8v8.8h-27.8v-8.8Zm43.4-11.4h37.6v10.1h-37.6v-10.1Zm-38.4-38.2h15.8v9.1h-15.8v-9.1Zm30.8-4.2h37.2v9.9H1160v-9.9Zm.1 61.6h47.1V725h-47.1v-10.3Zm18.6-28.2h11.4v55.1h-11.4v-55.1Zm-43.6-8.1h7.9v31.8h-7.9v-31.8Zm58.9-25.3h10.6s-.03.5-.1 1.5c0 .933-.03 1.733-.1 2.4-.13 5.267-.33 9.633-.6 13.1-.27 3.467-.63 6.2-1.1 8.2-.47 2-1.07 3.433-1.8 4.3-.8 1-1.7 1.733-2.7 2.2-1 .467-2.13.833-3.4 1.1-1.13.133-2.6.233-4.4.3-1.8 0-3.73-.033-5.8-.1-.07-1.533-.33-3.2-.8-5-.47-1.867-1.1-3.433-1.9-4.7 1.6.133 3.03.233 4.3.3 1.27.067 2.23.1 2.9.1.6 0 1.1-.033 1.5-.1.47-.133.87-.433 1.2-.9.4-.467.73-1.433 1-2.9.27-1.533.5-3.767.7-6.7.2-2.933.37-6.8.5-11.6v-1.5Zm-28.5 34.1 9.8 2a84.072 84.072 0 0 1-3.7 13.3c-1.53 4.333-3.27 7.967-5.2 10.9-.67-.467-1.53-1-2.6-1.6-1.07-.6-2.17-1.167-3.3-1.7-1.13-.533-2.1-.967-2.9-1.3 1.93-2.667 3.57-5.933 4.9-9.8 1.33-3.867 2.33-7.8 3-11.8Zm-38.7-39.3 10.7 2.4c-1.27 4.533-2.77 9-4.5 13.4s-3.67 8.5-5.8 12.3c-2.07 3.8-4.3 7.133-6.7 10-.6-.6-1.43-1.333-2.5-2.2-1.07-.933-2.13-1.833-3.2-2.7-1.07-.933-2.03-1.633-2.9-2.1 3.4-3.733 6.4-8.333 9-13.8 2.6-5.533 4.57-11.3 5.9-17.3Zm-7 25.9h9.6v26.5c0 3.2-.13 6.633-.4 10.3-.2 3.667-.6 7.4-1.2 11.2a66.336 66.336 0 0 1-2.5 10.9c-1.13 3.467-2.63 6.633-4.5 9.5-.53-.6-1.33-1.267-2.4-2-1-.667-2.07-1.333-3.2-2-1.07-.6-2-1.067-2.8-1.4 2.27-3.467 3.93-7.3 5-11.5a71.094 71.094 0 0 0 2-12.9c.27-4.4.4-8.467.4-12.2v-26.4Zm28.9 0h9.9v56.6c0 2.4-.27 4.367-.8 5.9-.53 1.533-1.57 2.733-3.1 3.6s-3.37 1.4-5.5 1.6c-2.13.267-4.77.4-7.9.4-.13-1.467-.57-3.2-1.3-5.2-.67-2-1.37-3.667-2.1-5 2 .067 3.87.133 5.6.2h3.6c.6 0 1-.1 1.2-.3.27-.267.4-.733.4-1.4v-56.4Zm23.4-17.4h10.7c-.4 4.867-1.2 9.367-2.4 13.5-1.13 4.067-3.03 7.7-5.7 10.9-2.67 3.2-6.47 5.9-11.4 8.1-.6-1.267-1.53-2.733-2.8-4.4-1.2-1.667-2.37-2.933-3.5-3.8 4-1.667 7-3.7 9-6.1a20.19 20.19 0 0 0 4.3-8.2c.87-3.067 1.47-6.4 1.8-10Zm-30 .9h2.3l1.5-.4 6.9 4.2c-1.13 3.2-2.57 6.6-4.3 10.2-1.73 3.533-3.37 6.567-4.9 9.1-1-.733-2.23-1.533-3.7-2.4-1.4-.867-2.63-1.567-3.7-2.1.8-1.6 1.57-3.367 2.3-5.3.8-2 1.5-4 2.1-6 .67-2.067 1.17-3.867 1.5-5.4v-1.9ZM455 483l60 100H395l60-100Z"/>
    <path fill="#000" d="M459.446 542.78h-7.86l-1.44-28.62h10.74l-1.44 28.62Zm-9.3 10.02c0-1.84.52-3.12 1.56-3.84 1.04-.76 2.3-1.14 3.78-1.14 1.44 0 2.66.38 3.66 1.14 1.04.72 1.56 2 1.56 3.84 0 1.76-.52 3.04-1.56 3.84-1 .76-2.22 1.14-3.66 1.14-1.48 0-2.74-.38-3.78-1.14-1.04-.8-1.56-2.08-1.56-3.84Z"/>
    <path fill="#666" d="m585.913 953-3.44-8.84h-11.32l-3.4 8.84h-3.64l11.16-28.68h3.24l11.12 28.68h-3.72Zm-7.72-20.68c-.08-.213-.213-.6-.4-1.16-.186-.56-.373-1.133-.56-1.72-.16-.613-.293-1.08-.4-1.4a50.36 50.36 0 0 1-.44 1.64c-.133.533-.28 1.027-.44 1.48-.133.453-.253.84-.36 1.16l-3.24 8.64h9.04l-3.2-8.64ZM601.58 953h-10.32v-2.08l3.36-.76v-22.84l-3.36-.8v-2.08h10.32v2.08l-3.36.8v22.84l3.36.76V953Zm17.595-23.64a71.118 71.118 0 0 0 6.8.32c2.4 0 4.787-.093 7.16-.28 2.373-.187 4.573-.48 6.6-.88v3.08c-2.133.347-4.387.6-6.76.76-2.347.16-4.707.253-7.08.28-1.147 0-2.267-.027-3.36-.08-1.067-.053-2.187-.12-3.36-.2v-3Zm14-7.16-.16 1.2-.08 1.2c-.027.48-.053 1.093-.08 1.84-.027.747-.04 1.547-.04 2.4v2.44c0 1.52.027 3.04.08 4.56.053 1.52.12 3 .2 4.44.08 1.44.147 2.8.2 4.08.08 1.253.12 2.4.12 3.44 0 .8-.12 1.587-.36 2.36a5.269 5.269 0 0 1-1.12 2.08c-.507.613-1.213 1.093-2.12 1.44-.88.373-1.987.56-3.32.56-2.693 0-4.76-.507-6.2-1.52-1.413-1.013-2.12-2.413-2.12-4.2 0-1.12.32-2.133.96-3.04.667-.933 1.6-1.667 2.8-2.2 1.227-.533 2.72-.8 4.48-.8 1.707 0 3.267.2 4.68.6 1.44.373 2.76.88 3.96 1.52a20.971 20.971 0 0 1 3.36 2.08 42.87 42.87 0 0 1 2.8 2.24l-1.76 2.68a35.066 35.066 0 0 0-4.2-3.48 18.874 18.874 0 0 0-4.32-2.32c-1.493-.56-3.08-.84-4.76-.84-1.52 0-2.76.307-3.72.92-.933.587-1.4 1.36-1.4 2.32 0 1.013.453 1.8 1.36 2.36.907.533 2.08.8 3.52.8 1.147 0 2.027-.187 2.64-.56.64-.373 1.08-.88 1.32-1.52.267-.64.4-1.4.4-2.28 0-.72-.027-1.693-.08-2.92-.053-1.227-.12-2.56-.2-4-.08-1.467-.147-2.96-.2-4.48-.053-1.52-.08-2.947-.08-4.28v-6.68c0-.347-.013-.747-.04-1.2-.027-.48-.067-.893-.12-1.24h3.6Zm-19.76.24c-.08.213-.173.493-.28.84-.08.32-.16.653-.24 1-.053.347-.107.64-.16.88-.16.747-.333 1.64-.52 2.68-.16 1.013-.333 2.12-.52 3.32-.187 1.173-.36 2.373-.52 3.6-.133 1.2-.24 2.36-.32 3.48a43.02 43.02 0 0 0-.12 3.04c0 .96.027 1.88.08 2.76.08.88.187 1.813.32 2.8a62.84 62.84 0 0 1 .72-1.96l.8-2.08c.293-.693.547-1.307.76-1.84l1.64 1.28c-.32.907-.68 1.933-1.08 3.08l-1.08 3.24c-.32 1.013-.547 1.853-.68 2.52-.053.267-.107.573-.16.92a4.75 4.75 0 0 0 0 .88v.68c.027.267.053.507.08.72l-2.8.2c-.4-1.44-.76-3.227-1.08-5.36-.293-2.16-.44-4.587-.44-7.28 0-1.493.067-3.04.2-4.64.16-1.627.333-3.213.52-4.76.213-1.547.413-2.96.6-4.24.213-1.307.387-2.373.52-3.2.053-.453.107-.933.16-1.44.053-.507.08-.973.08-1.4l3.52.28Zm32.28-.04h35.08v2.96h-35.08v-2.96Zm12.52 11.12h16.84v2.92h-16.84v-2.92Zm15.8 0h3.08v.28c0 .187-.013.4-.04.64v.56c-.16 3.253-.347 6.013-.56 8.28-.187 2.267-.387 4.16-.6 5.68-.213 1.493-.467 2.68-.76 3.56-.293.88-.64 1.52-1.04 1.92-.453.507-.947.853-1.48 1.04-.533.213-1.187.347-1.96.4-.747.08-1.773.107-3.08.08-1.28-.027-2.613-.08-4-.16a5.978 5.978 0 0 0-.32-1.52 6.1 6.1 0 0 0-.72-1.44c1.493.133 2.893.213 4.2.24 1.307.027 2.227.04 2.76.04.48.027.867 0 1.16-.08.293-.053.547-.187.76-.4.453-.4.827-1.267 1.12-2.6.32-1.333.587-3.293.8-5.88.24-2.587.467-5.947.68-10.08v-.56Zm-17.48-8.72h3.12c-.053 2.267-.173 4.6-.36 7a57.865 57.865 0 0 1-.92 7.08 34.101 34.101 0 0 1-2.04 6.76 22.331 22.331 0 0 1-3.72 5.92c-1.547 1.813-3.493 3.387-5.84 4.72-.24-.4-.573-.813-1-1.24a13.649 13.649 0 0 0-1.2-1.08c2.267-1.2 4.12-2.64 5.56-4.32a20.531 20.531 0 0 0 3.44-5.56c.853-2 1.48-4.08 1.88-6.24.4-2.187.667-4.387.8-6.6s.227-4.36.28-6.44Zm35-5.44 3.08.76c-.48 1.093-1 2.24-1.56 3.44a49.16 49.16 0 0 1-1.68 3.36 44.341 44.341 0 0 1-1.64 2.88l-2.6-.72c.533-.88 1.067-1.88 1.6-3a57.98 57.98 0 0 0 1.56-3.48c.507-1.2.92-2.28 1.24-3.24Zm-6.72 8.52c1.387-.053 2.987-.107 4.8-.16 1.813-.08 3.747-.16 5.8-.24 2.053-.107 4.12-.2 6.2-.28l-.04 2.64c-1.973.133-3.96.253-5.96.36-1.973.107-3.867.213-5.68.32-1.787.107-3.413.2-4.88.28l-.24-2.92Zm2.4 5.76h12.68v2.56h-9.88v19.96h-2.8v-22.52Zm11.32 0h2.96v19.08c0 .773-.093 1.373-.28 1.8-.187.453-.56.813-1.12 1.08-.56.213-1.28.347-2.16.4-.88.053-1.947.08-3.2.08-.08-.4-.213-.867-.4-1.4a8.312 8.312 0 0 0-.6-1.36c.933.027 1.787.04 2.56.04.773.027 1.307.027 1.6 0 .267 0 .44-.053.52-.16.08-.08.12-.253.12-.52v-19.04Zm-9.96 6h11.52V942h-11.52v-2.36Zm0 6h11.52V948h-11.52v-2.36Zm16.68-26.16h3v13.24c0 .64.12 1.053.36 1.24.267.187.867.28 1.8.28h6.32c.533 0 .933-.107 1.2-.32.267-.24.453-.68.56-1.32.107-.667.187-1.667.24-3 .24.16.507.32.8.48.32.16.653.307 1 .44.347.107.653.187.92.24-.107 1.627-.307 2.893-.6 3.8s-.747 1.533-1.36 1.88c-.587.347-1.413.52-2.48.52h-6.88c-1.28 0-2.28-.12-3-.36-.693-.24-1.187-.667-1.48-1.28-.267-.613-.4-1.467-.4-2.56v-13.28Zm12.28 2.92 2 2.24a83.695 83.695 0 0 1-3.8 1.56 88.638 88.638 0 0 1-4.28 1.44c-1.467.453-2.893.88-4.28 1.28-.053-.293-.173-.64-.36-1.04a5.797 5.797 0 0 0-.52-1.08c1.307-.4 2.653-.853 4.04-1.36a124.844 124.844 0 0 0 3.96-1.52 42.942 42.942 0 0 0 3.24-1.52Zm-12.28 15.68h2.96v13.52c0 .64.133 1.067.4 1.28.293.187.92.28 1.88.28h6.6c.56 0 .987-.12 1.28-.36.293-.24.493-.733.6-1.48.107-.773.187-1.92.24-3.44a8.6 8.6 0 0 0 1.32.68c.533.213 1 .373 1.4.48-.107 1.787-.307 3.173-.6 4.16-.293.987-.76 1.667-1.4 2.04-.613.4-1.48.6-2.6.6h-7.12c-1.28 0-2.293-.12-3.04-.36-.72-.24-1.227-.667-1.52-1.28-.267-.613-.4-1.48-.4-2.6v-13.52Zm12.76 2.16 1.96 2.24c-1.093.64-2.36 1.253-3.8 1.84a87.818 87.818 0 0 1-4.48 1.6c-1.547.48-3.04.92-4.48 1.32a8.136 8.136 0 0 0-.4-1.08c-.187-.427-.36-.787-.52-1.08 1.387-.4 2.8-.867 4.24-1.4a60.995 60.995 0 0 0 4.16-1.68c1.307-.587 2.413-1.173 3.32-1.76Zm-21.48-17.08 2.48-.96c.72.907 1.413 1.907 2.08 3a44.847 44.847 0 0 1 1.88 3.16c.56 1.04.987 1.973 1.28 2.8l-2.6 1.16c-.267-.827-.68-1.773-1.24-2.84a36.652 36.652 0 0 0-1.84-3.24 47.827 47.827 0 0 0-2.04-3.08Zm29.84 3.52c.747-.027 1.427-.053 2.04-.08.64-.053 1.147-.093 1.52-.12.64-.08 1.56-.173 2.76-.28a180.2 180.2 0 0 1 4.2-.4c1.573-.16 3.267-.32 5.08-.48 1.813-.16 3.64-.32 5.48-.48 1.467-.133 2.853-.24 4.16-.32 1.307-.107 2.52-.187 3.64-.24 1.12-.08 2.12-.133 3-.16v3.2c-.747 0-1.6.013-2.56.04-.96.027-1.907.08-2.84.16-.933.08-1.747.227-2.44.44a11.688 11.688 0 0 0-3.84 2.08c-1.12.907-2.08 1.96-2.88 3.16a15.59 15.59 0 0 0-1.84 3.72c-.4 1.28-.6 2.52-.6 3.72 0 1.547.267 2.907.8 4.08a8.767 8.767 0 0 0 2.16 2.92c.933.8 1.987 1.453 3.16 1.96 1.173.507 2.413.893 3.72 1.16 1.333.24 2.653.373 3.96.4l-1.16 3.32a21.608 21.608 0 0 1-4.48-.64 19.935 19.935 0 0 1-4.28-1.52 14.819 14.819 0 0 1-3.64-2.6 11.553 11.553 0 0 1-2.52-3.64c-.613-1.387-.92-2.973-.92-4.76 0-2.08.36-4 1.08-5.76.747-1.787 1.693-3.347 2.84-4.68 1.147-1.333 2.333-2.36 3.56-3.08-.853.107-1.92.227-3.2.36-1.253.133-2.6.28-4.04.44-1.44.133-2.893.293-4.36.48-1.44.187-2.787.373-4.04.56-1.253.16-2.307.333-3.16.52l-.36-3.48Zm26.12 5.56c.293.427.64.973 1.04 1.64.427.64.84 1.307 1.24 2 .4.667.733 1.307 1 1.92l-2.04.96a33.66 33.66 0 0 0-1.52-2.92 26.631 26.631 0 0 0-1.76-2.72l2.04-.88Zm4.36-1.68c.32.427.693.96 1.12 1.6.427.64.84 1.307 1.24 2 .427.667.8 1.307 1.12 1.92l-2.08 1a34.617 34.617 0 0 0-1.6-2.92 29.222 29.222 0 0 0-1.76-2.68l1.96-.92Zm22.32-1.2a71.118 71.118 0 0 0 6.8.32c2.4 0 4.787-.093 7.16-.28 2.373-.187 4.573-.48 6.6-.88v3.08c-2.133.347-4.387.6-6.76.76-2.347.16-4.707.253-7.08.28-1.147 0-2.267-.027-3.36-.08-1.067-.053-2.187-.12-3.36-.2v-3Zm14-7.16-.16 1.2-.08 1.2c-.027.48-.053 1.093-.08 1.84-.027.747-.04 1.547-.04 2.4v2.44c0 1.52.027 3.04.08 4.56.053 1.52.12 3 .2 4.44.08 1.44.147 2.8.2 4.08.08 1.253.12 2.4.12 3.44 0 .8-.12 1.587-.36 2.36a5.269 5.269 0 0 1-1.12 2.08c-.507.613-1.213 1.093-2.12 1.44-.88.373-1.987.56-3.32.56-2.693 0-4.76-.507-6.2-1.52-1.413-1.013-2.12-2.413-2.12-4.2 0-1.12.32-2.133.96-3.04.667-.933 1.6-1.667 2.8-2.2 1.227-.533 2.72-.8 4.48-.8 1.707 0 3.267.2 4.68.6 1.44.373 2.76.88 3.96 1.52a20.971 20.971 0 0 1 3.36 2.08 42.87 42.87 0 0 1 2.8 2.24l-1.76 2.68a35.066 35.066 0 0 0-4.2-3.48 18.874 18.874 0 0 0-4.32-2.32c-1.493-.56-3.08-.84-4.76-.84-1.52 0-2.76.307-3.72.92-.933.587-1.4 1.36-1.4 2.32 0 1.013.453 1.8 1.36 2.36.907.533 2.08.8 3.52.8 1.147 0 2.027-.187 2.64-.56.64-.373 1.08-.88 1.32-1.52.267-.64.4-1.4.4-2.28 0-.72-.027-1.693-.08-2.92-.053-1.227-.12-2.56-.2-4-.08-1.467-.147-2.96-.2-4.48-.053-1.52-.08-2.947-.08-4.28v-6.68c0-.347-.013-.747-.04-1.2-.027-.48-.067-.893-.12-1.24h3.6Zm-19.76.24c-.08.213-.173.493-.28.84-.08.32-.16.653-.24 1-.053.347-.107.64-.16.88-.16.747-.333 1.64-.52 2.68-.16 1.013-.333 2.12-.52 3.32-.187 1.173-.36 2.373-.52 3.6-.133 1.2-.24 2.36-.32 3.48a43.02 43.02 0 0 0-.12 3.04c0 .96.027 1.88.08 2.76.08.88.187 1.813.32 2.8a62.84 62.84 0 0 1 .72-1.96l.8-2.08c.293-.693.547-1.307.76-1.84l1.64 1.28c-.32.907-.68 1.933-1.08 3.08l-1.08 3.24c-.32 1.013-.547 1.853-.68 2.52-.053.267-.107.573-.16.92a4.75 4.75 0 0 0 0 .88v.68c.027.267.053.507.08.72l-2.8.2c-.4-1.44-.76-3.227-1.08-5.36-.293-2.16-.44-4.587-.44-7.28 0-1.493.067-3.04.2-4.64.16-1.627.333-3.213.52-4.76.213-1.547.413-2.96.6-4.24.213-1.307.387-2.373.52-3.2.053-.453.107-.933.16-1.44.053-.507.08-.973.08-1.4l3.52.28Zm33.68 5.32c.747.107 1.533.187 2.36.24.827.027 1.667.04 2.52.04 1.467 0 2.973-.067 4.52-.2a49.641 49.641 0 0 0 4.76-.64c1.6-.32 3.173-.733 4.72-1.24l.08 3a59.037 59.037 0 0 1-4.32.96c-1.547.293-3.16.533-4.84.72-1.653.16-3.293.24-4.92.24h-2.32c-.8-.027-1.587-.067-2.36-.12l-.2-3Zm14.16-6.52c-.16.64-.36 1.453-.6 2.44-.24.987-.507 2.027-.8 3.12a41.388 41.388 0 0 1-.88 3.04c-.64 1.92-1.453 3.947-2.44 6.08a95.6 95.6 0 0 1-3.16 6.16c-1.12 2-2.227 3.747-3.32 5.24l-3.08-1.6a37.49 37.49 0 0 0 2.64-3.56 43.53 43.53 0 0 0 2.52-4.2c.8-1.467 1.52-2.907 2.16-4.32a55.553 55.553 0 0 0 1.6-3.88 48.58 48.58 0 0 0 1.2-4.32c.373-1.627.587-3.133.64-4.52l3.52.32Zm9.44 12.36c-.027.827-.053 1.573-.08 2.24 0 .64.013 1.333.04 2.08.027.64.053 1.467.08 2.48.053.987.107 2.04.16 3.16.053 1.093.093 2.147.12 3.16.053 1.013.08 1.853.08 2.52 0 1.067-.24 2.04-.72 2.92-.48.88-1.24 1.573-2.28 2.08-1.013.533-2.347.8-4 .8-1.467 0-2.8-.213-4-.64-1.2-.4-2.173-1.027-2.92-1.88-.72-.853-1.08-1.933-1.08-3.24 0-1.253.347-2.32 1.04-3.2.72-.907 1.68-1.6 2.88-2.08 1.227-.48 2.587-.72 4.08-.72 2.24 0 4.293.32 6.16.96 1.893.613 3.587 1.4 5.08 2.36 1.52.96 2.827 1.907 3.92 2.84l-1.72 2.72a48.79 48.79 0 0 0-2.6-2.16 20.238 20.238 0 0 0-3.12-2.04 18.841 18.841 0 0 0-3.68-1.56c-1.307-.4-2.693-.6-4.16-.6s-2.653.307-3.56.92-1.36 1.373-1.36 2.28c0 .933.387 1.693 1.16 2.28.773.587 1.933.88 3.48.88 1.12 0 2-.173 2.64-.52.64-.373 1.093-.853 1.36-1.44.293-.613.44-1.28.44-2 0-.747-.027-1.72-.08-2.92-.027-1.2-.08-2.48-.16-3.84-.053-1.387-.12-2.76-.2-4.12a278.743 278.743 0 0 1-.12-3.72h3.12Zm8 1.08c-.72-.64-1.627-1.307-2.72-2a47.005 47.005 0 0 0-3.4-1.96 42.244 42.244 0 0 0-3.04-1.56l1.64-2.44c.72.32 1.52.707 2.4 1.16a63.593 63.593 0 0 1 5.08 2.92c.773.453 1.387.867 1.84 1.24l-1.8 2.64Zm13.44-9.6c-.053.32-.107.72-.16 1.2-.027.48-.067.96-.12 1.44-.027.48-.04.893-.04 1.24-.027.827-.04 1.773-.04 2.84.027 1.04.053 2.133.08 3.28.053 1.12.133 2.24.24 3.36.213 2.213.573 4.16 1.08 5.84.507 1.653 1.12 2.947 1.84 3.88.747.933 1.587 1.4 2.52 1.4.507 0 1-.227 1.48-.68.48-.48.933-1.107 1.36-1.88.453-.8.853-1.68 1.2-2.64.373-.987.68-1.973.92-2.96l2.52 2.84c-.8 2.267-1.613 4.067-2.44 5.4-.8 1.307-1.627 2.253-2.48 2.84-.827.587-1.693.88-2.6.88-1.253 0-2.467-.453-3.64-1.36-1.173-.933-2.187-2.427-3.04-4.48-.853-2.08-1.467-4.84-1.84-8.28a70.683 70.683 0 0 1-.32-3.8c-.053-1.36-.093-2.653-.12-3.88v-3c0-.453-.013-1.04-.04-1.76-.027-.72-.107-1.32-.24-1.8l3.88.08Zm20.84 1.12c.72.907 1.4 1.973 2.04 3.2a30.478 30.478 0 0 1 1.8 3.88 41.825 41.825 0 0 1 1.48 4.24 37.91 37.91 0 0 1 1.08 4.4c.293 1.44.507 2.827.64 4.16l-3.2 1.32a45.388 45.388 0 0 0-.84-5.52c-.4-1.893-.893-3.72-1.48-5.48a39.031 39.031 0 0 0-2.04-5.04c-.773-1.573-1.64-2.933-2.6-4.08l3.12-1.08Zm22.23 17.64v-3.12h9.68v3.12h-9.68Zm25.282-21.52h33.08v2.96h-33.08v-2.96Zm17.32 13.64h14.2v2.92h-14.2v-2.92Zm-18.84 15.52h35.92v2.92h-35.92v-2.92Zm17.36-28.04h3.16v29.48h-3.16v-29.48Zm-11.92 9.16h3.08v20.44h-3.08V932.6Zm46.08-10.76a24.828 24.828 0 0 0-.24 2.04 47.882 47.882 0 0 0-.12 2c-.054 1.12-.107 2.507-.16 4.16-.054 1.653-.107 3.413-.16 5.28-.054 1.84-.094 3.68-.12 5.52-.027 1.84-.04 3.493-.04 4.96s.28 2.64.84 3.52a4.61 4.61 0 0 0 2.32 1.88c.986.373 2.12.56 3.4.56 1.813 0 3.453-.227 4.92-.68 1.466-.48 2.773-1.107 3.92-1.88 1.146-.8 2.16-1.693 3.04-2.68.906-.987 1.72-2 2.44-3.04l2.28 2.72c-.694.96-1.547 1.96-2.56 3-.987 1.013-2.16 1.96-3.52 2.84-1.36.88-2.934 1.6-4.72 2.16-1.76.56-3.734.84-5.92.84-1.894 0-3.574-.293-5.04-.88-1.467-.587-2.614-1.533-3.44-2.84-.827-1.307-1.24-3.04-1.24-5.2a263.418 263.418 0 0 1 .16-8.48c.053-1.547.093-3.053.12-4.52.026-1.493.053-2.867.08-4.12.026-1.253.04-2.293.04-3.12 0-.747-.027-1.467-.08-2.16a19.26 19.26 0 0 0-.24-1.92l4.04.04Zm35.323 3.24c-.06.32-.11.72-.16 1.2-.03.48-.07.96-.12 1.44-.03.48-.04.893-.04 1.24a80.25 80.25 0 0 0-.04 2.84c.02 1.04.05 2.133.08 3.28.05 1.12.13 2.24.24 3.36.21 2.213.57 4.16 1.08 5.84.5 1.653 1.12 2.947 1.84 3.88.74.933 1.58 1.4 2.52 1.4.5 0 1-.227 1.48-.68.48-.48.93-1.107 1.36-1.88.45-.8.85-1.68 1.2-2.64.37-.987.68-1.973.92-2.96l2.52 2.84c-.8 2.267-1.62 4.067-2.44 5.4-.8 1.307-1.63 2.253-2.48 2.84-.83.587-1.7.88-2.6.88-1.26 0-2.47-.453-3.64-1.36-1.18-.933-2.19-2.427-3.04-4.48-.86-2.08-1.47-4.84-1.84-8.28-.14-1.173-.24-2.44-.32-3.8-.06-1.36-.1-2.653-.12-3.88v-3c0-.453-.02-1.04-.04-1.76-.03-.72-.11-1.32-.24-1.8l3.88.08Zm20.84 1.12c.72.907 1.4 1.973 2.04 3.2.66 1.2 1.26 2.493 1.8 3.88.56 1.36 1.05 2.773 1.48 4.24.45 1.467.81 2.933 1.08 4.4.29 1.44.5 2.827.64 4.16l-3.2 1.32a45.388 45.388 0 0 0-.84-5.52c-.4-1.893-.9-3.72-1.48-5.48a39.907 39.907 0 0 0-2.04-5.04c-.78-1.573-1.64-2.933-2.6-4.08l3.12-1.08Zm29.28 5.2v5.16h14.84v-5.16h-14.84Zm0-7.52v5.08h14.84v-5.08h-14.84Zm-2.76-2.64h20.48v17.92h-20.48v-17.92Zm-.48 22.64h21.52v2.72h-21.52v-2.72Zm-3.08 8.24h25.96v2.76h-25.96v-2.76Zm-10.88-30.04h12.48v2.84h-12.48v-2.84Zm.4 11.6h11.48v2.8h-11.48v-2.8Zm-.84 15.32 3.68-1.08c1.38-.427 2.84-.893 4.36-1.4 1.54-.533 3.09-1.053 4.64-1.56l.52 2.92c-2.16.72-4.34 1.453-6.52 2.2-2.19.72-4.16 1.373-5.92 1.96l-.76-3.04Zm5.4-25.8h2.88V948l-2.88.56V923.2Zm18.36-.72h2.6v15.4h.24v15.48h-3.08v-15.48h.24v-15.4Zm20.4 7.08h11.56v2.32h-11.56v-2.32Zm0 6.8h11.56v2.28h-11.56v-2.28Zm0 6.92h11.56v2.4h-11.56v-2.4Zm17.04-4.96h15.2v2.64h-15.2v-2.64Zm-14.96-15.36h6.6v2.4h-6.6v-2.4Zm12.36-1.52h15.64v2.52h-15.64v-2.52Zm-.48 24.36h19v2.68h-19v-2.68Zm8.48-11.56h2.84v21.8h-2.84v-21.8Zm-17.52-3.56h2.2v13.6h-2.2v-13.6Zm24.24-9.24h2.72s-.02.133-.04.4c0 .267-.02.507-.04.72-.08 2.213-.19 4.013-.32 5.4-.14 1.387-.3 2.453-.48 3.2-.19.747-.43 1.28-.72 1.6-.24.32-.54.56-.88.72-.35.133-.78.227-1.28.28-.4.053-.99.08-1.76.08-.78-.027-1.58-.067-2.4-.12-.03-.373-.11-.8-.24-1.28-.11-.48-.27-.88-.48-1.2.8.053 1.53.093 2.2.12.66.027 1.13.04 1.4.04.29 0 .53-.013.72-.04.18-.053.34-.16.48-.32.16-.213.3-.64.44-1.28.13-.64.25-1.6.36-2.88.1-1.28.21-2.96.32-5.04v-.4Zm-11.96 13.16 2.6.48a41.034 41.034 0 0 1-1.64 5.4c-.67 1.707-1.43 3.16-2.28 4.36a3.125 3.125 0 0 0-.68-.4c-.3-.16-.59-.307-.88-.44-.3-.16-.56-.293-.8-.4.88-1.147 1.62-2.507 2.24-4.08.61-1.6 1.09-3.24 1.44-4.92Zm-15.2-15.24 2.76.6a50.74 50.74 0 0 1-1.8 5.28 41.55 41.55 0 0 1-2.32 4.8c-.83 1.467-1.72 2.76-2.68 3.88-.14-.16-.35-.347-.64-.56-.27-.24-.55-.467-.84-.68a8.97 8.97 0 0 0-.76-.56c1.41-1.52 2.65-3.4 3.72-5.64a37.197 37.197 0 0 0 2.56-7.12Zm-3.2 10.2h2.52v10.64c0 1.2-.06 2.507-.16 3.92-.08 1.413-.24 2.84-.48 4.28a25.69 25.69 0 0 1-1 4.2c-.43 1.333-.99 2.56-1.68 3.68-.16-.16-.38-.333-.64-.52-.27-.16-.55-.32-.84-.48-.27-.16-.51-.28-.72-.36.9-1.44 1.57-3 2-4.68.42-1.707.69-3.427.8-5.16.13-1.76.2-3.387.2-4.88v-10.64Zm11.92 0h2.56v23.36c0 .72-.11 1.293-.32 1.72-.19.453-.54.8-1.04 1.04-.51.213-1.19.347-2.04.4-.86.053-1.99.08-3.4.08a8.086 8.086 0 0 0-.36-1.28 11.77 11.77 0 0 0-.56-1.28c1.04.027 1.96.04 2.76.04.82 0 1.37-.013 1.64-.04.26 0 .45-.053.56-.16.13-.107.2-.293.2-.56v-23.32Zm9.44-7.32h2.76a27.83 27.83 0 0 1-1.16 5.16c-.54 1.6-1.35 3.04-2.44 4.32-1.07 1.253-2.55 2.293-4.44 3.12-.16-.32-.4-.68-.72-1.08-.32-.4-.64-.72-.96-.96 1.65-.693 2.94-1.573 3.88-2.64a11.213 11.213 0 0 0 2.08-3.64c.48-1.36.81-2.787 1-4.28Zm-12.2.72h.6l.44-.12 1.76 1.12c-.43 1.253-.98 2.56-1.64 3.92-.67 1.333-1.31 2.467-1.92 3.4a6.753 6.753 0 0 0-.96-.6c-.38-.24-.71-.427-1-.56.34-.587.69-1.267 1.04-2.04.34-.8.66-1.6.96-2.4.29-.827.53-1.56.72-2.2v-.52Zm59.04 6.16c-.46.293-.94.573-1.44.84-.51.267-1.06.547-1.64.84-.67.373-1.5.8-2.48 1.28a113.703 113.703 0 0 0-6.52 3.44c-1.12.64-2.18 1.28-3.16 1.92-1.87 1.2-3.34 2.467-4.4 3.8-1.04 1.333-1.56 2.76-1.56 4.28 0 1.653.78 2.973 2.36 3.96 1.6.96 3.97 1.44 7.12 1.44 1.46 0 2.98-.053 4.56-.16 1.57-.133 3.08-.307 4.52-.52 1.46-.213 2.7-.44 3.72-.68v3.56c-.99.187-2.16.347-3.52.48-1.34.16-2.78.28-4.32.36-1.55.107-3.15.16-4.8.16-1.9 0-3.63-.16-5.2-.48-1.58-.293-2.95-.76-4.12-1.4-1.15-.64-2.04-1.48-2.68-2.52-.64-1.067-.96-2.347-.96-3.84 0-1.467.3-2.813.92-4.04.61-1.253 1.49-2.44 2.64-3.56 1.14-1.12 2.5-2.2 4.08-3.24 1.01-.693 2.09-1.36 3.24-2a239.145 239.145 0 0 1 6.56-3.6c.98-.507 1.81-.933 2.48-1.28.56-.347 1.06-.653 1.52-.92.45-.293.89-.613 1.32-.96l1.76 2.84Zm-20.24-7.24a85.105 85.105 0 0 0 1.96 5 92.576 92.576 0 0 0 2.16 4.56c.74 1.413 1.42 2.667 2.04 3.76l-2.76 1.64a49.796 49.796 0 0 1-2.12-3.88c-.75-1.493-1.5-3.08-2.24-4.76-.75-1.68-1.48-3.347-2.2-5l3.16-1.32Zm43.36 18.76h19.96v15.32h-2.88V943.4h-14.28v12.76h-2.8v-15.52Zm18.48-21.08 2.4 2.32c-1.84.64-3.95 1.2-6.32 1.68-2.35.48-4.79.893-7.32 1.24-2.54.347-4.99.64-7.36.88a12.44 12.44 0 0 0-.4-1.28c-.16-.507-.32-.933-.48-1.28 1.7-.187 3.48-.4 5.32-.64 1.84-.24 3.62-.507 5.36-.8 1.73-.32 3.34-.653 4.84-1 1.52-.347 2.84-.72 3.96-1.12Zm-9.8 3.44h2.84v19.24h-2.84V923Zm-11.56 8.12h25.48V934h-25.48v-2.88Zm4.8 20.6h16.48v2.72h-16.48v-2.72Zm-13.96-29.68 1.68-2.12c.82.373 1.7.813 2.64 1.32.96.507 1.88 1.013 2.76 1.52.88.48 1.6.907 2.16 1.28l-1.76 2.48c-.56-.427-1.28-.893-2.16-1.4a90.49 90.49 0 0 0-2.68-1.6c-.94-.56-1.82-1.053-2.64-1.48Zm-1.96 11 1.64-2.2c.8.373 1.66.813 2.6 1.32.93.507 1.82 1 2.68 1.48.88.48 1.6.907 2.16 1.28l-1.68 2.48a37.81 37.81 0 0 0-2.08-1.32c-.86-.507-1.75-1.027-2.68-1.56-.94-.56-1.82-1.053-2.64-1.48Zm.92 20.6a72.796 72.796 0 0 0 2.4-3.64c.9-1.44 1.81-2.96 2.72-4.56.9-1.627 1.74-3.187 2.52-4.68l2.2 1.96c-.7 1.413-1.47 2.88-2.32 4.4-.83 1.52-1.67 3.013-2.52 4.48-.86 1.467-1.67 2.827-2.44 4.08l-2.56-2.04Zm45.24-31.44h25.88v2.88h-25.88v-2.88Zm0 9.32h25.8v2.84h-25.8v-2.84Zm-.24 9.56h26.12v2.84h-26.12v-2.84Zm-1.48-18.88h2.96v14.52c0 1.52-.07 3.147-.2 4.88a43.158 43.158 0 0 1-.76 5.28c-.35 1.76-.9 3.453-1.64 5.08a16.697 16.697 0 0 1-2.88 4.44 4.024 4.024 0 0 0-.64-.72c-.3-.24-.59-.48-.88-.72-.3-.24-.56-.413-.8-.52 1.12-1.253 2-2.613 2.64-4.08a22.85 22.85 0 0 0 1.44-4.52c.32-1.573.52-3.133.6-4.68.1-1.547.16-3.027.16-4.44V922.2Zm26.4 0h2.96v29.92c0 .96-.15 1.693-.44 2.2-.27.507-.74.893-1.4 1.16-.67.24-1.6.387-2.8.44-1.2.053-2.75.067-4.64.04-.08-.373-.23-.853-.44-1.44-.19-.56-.39-1.04-.6-1.44.93.027 1.82.04 2.68.04a31.9 31.9 0 0 0 2.28 0h1.32c.4-.027.68-.107.84-.24.16-.133.24-.387.24-.76V922.2Zm-13.84 1.08h3.04v32.56h-3.04v-32.56Zm38.28-1.36c-.06.373-.12.773-.2 1.2l-.24 1.2c-.11.453-.23 1.093-.36 1.92-.14.827-.3 1.707-.48 2.64-.16.907-.34 1.787-.52 2.64-.3 1.12-.64 2.4-1.04 3.84a91.274 91.274 0 0 1-1.36 4.56c-.51 1.6-1.08 3.24-1.72 4.92a73.798 73.798 0 0 1-2.12 4.92 51.142 51.142 0 0 1-2.52 4.64l-3.24-1.32c.9-1.2 1.76-2.56 2.56-4.08s1.53-3.093 2.2-4.72a95.69 95.69 0 0 0 1.8-4.88c.53-1.6.98-3.08 1.36-4.44.4-1.387.7-2.573.92-3.56.37-1.573.68-3.227.92-4.96s.36-3.36.36-4.88l3.68.36Zm13.76 4.64c.64.8 1.3 1.813 2 3.04.72 1.227 1.41 2.52 2.08 3.88.69 1.36 1.32 2.68 1.88 3.96.58 1.28 1.04 2.387 1.36 3.32l-3.08 1.48c-.3-1.04-.71-2.213-1.24-3.52a49.492 49.492 0 0 0-1.76-3.96c-.64-1.36-1.32-2.64-2.04-3.84-.7-1.227-1.4-2.24-2.12-3.04l2.92-1.32Zm-28.16 4.16c.64.027 1.24.04 1.8.04s1.16-.013 1.8-.04c.58-.027 1.34-.067 2.28-.12.96-.08 1.98-.16 3.08-.24 1.09-.107 2.18-.2 3.28-.28 1.09-.107 2.09-.187 3-.24.9-.08 1.62-.12 2.16-.12 1.2 0 2.28.2 3.24.6.98.373 1.77 1.053 2.36 2.04.61.96.92 2.347.92 4.16 0 1.573-.08 3.28-.24 5.12a45.766 45.766 0 0 1-.76 5.2c-.32 1.627-.76 3-1.32 4.12-.62 1.333-1.42 2.213-2.4 2.64-.99.453-2.14.68-3.44.68-.78 0-1.6-.067-2.48-.2-.86-.107-1.6-.227-2.24-.36l-.52-3.36c.56.187 1.14.347 1.76.48.61.107 1.2.2 1.76.28.56.053 1.01.08 1.36.08.74 0 1.41-.12 2-.36.58-.267 1.09-.84 1.52-1.72.42-.907.77-2.04 1.04-3.4.29-1.36.5-2.813.64-4.36.13-1.547.2-3.04.2-4.48 0-1.227-.18-2.147-.52-2.76-.35-.613-.84-1.027-1.48-1.24-.64-.213-1.39-.32-2.24-.32-.67 0-1.58.053-2.72.16-1.15.08-2.38.187-3.68.32-1.31.107-2.52.227-3.64.36-1.1.133-1.95.227-2.56.28-.48.053-1.08.133-1.8.24-.7.08-1.3.16-1.8.24l-.36-3.44Zm28.64-9.96c.34.453.7 1.013 1.08 1.68.4.64.8 1.307 1.2 2 .4.667.73 1.267 1 1.8l-2.2.96a24.77 24.77 0 0 0-.92-1.8c-.38-.667-.76-1.333-1.16-2-.4-.667-.79-1.253-1.16-1.76l2.16-.88Zm4.4-1.64c.34.507.73 1.093 1.16 1.76.42.667.84 1.333 1.24 2 .4.64.72 1.213.96 1.72l-2.16.96c-.43-.88-.95-1.827-1.56-2.84-.62-1.04-1.2-1.933-1.76-2.68l2.12-.92Zm6.48 33.36h35.88v2.44h-35.88v-2.44Zm.24-26h35.44v2.48h-35.44v-2.48Zm2.76 20.12h30.36v2.4h-30.36v-2.4Zm13.28-24.16h3v31.2h-3v-31.2Zm13.92-2.8 1.6 2.32c-1.79.32-3.82.613-6.08.88-2.24.24-4.6.453-7.08.64-2.48.16-4.98.307-7.48.44-2.51.107-4.94.173-7.28.2 0-.347-.08-.747-.24-1.2-.14-.48-.27-.867-.4-1.16 2.32-.08 4.72-.173 7.2-.28 2.5-.133 4.96-.28 7.36-.44 2.42-.187 4.69-.4 6.8-.64 2.13-.24 4-.493 5.6-.76Zm-23 18.96v3.04h21.6v-3.04h-21.6Zm0-5.04v3h21.6v-3h-21.6Zm-2.92-2.16h27.56v12.44h-27.56V931.4Zm35.48 9.84h36.36v2.52h-36.36v-2.52Zm.92-20.12h34.44v2.68h-34.44v-2.68Zm12.92 15.96 2.96.76a221.241 221.241 0 0 1-6 8.92c-1.04 1.44-2 2.707-2.88 3.8l-2.84-1c.88-1.093 1.84-2.36 2.88-3.8 1.04-1.44 2.08-2.92 3.12-4.44a100.25 100.25 0 0 0 2.76-4.24Zm12 5.08 2.88.84c-.86 2.187-2.06 4.053-3.6 5.6-1.52 1.547-3.39 2.827-5.6 3.84-2.22 1.013-4.8 1.813-7.76 2.4-2.96.613-6.31 1.053-10.04 1.32a5.822 5.822 0 0 0-.48-1.4c-.22-.48-.46-.893-.72-1.24 4.77-.267 8.84-.787 12.2-1.56 3.38-.8 6.14-1.987 8.28-3.56 2.16-1.573 3.77-3.653 4.84-6.24Zm-18.56 7.04 1.48-2.2c3.3.56 6.58 1.227 9.84 2 3.25.747 6.3 1.547 9.16 2.4 2.88.827 5.34 1.64 7.4 2.44l-1.84 2.44c-2.03-.827-4.43-1.667-7.2-2.52a143.1 143.1 0 0 0-8.96-2.44c-3.2-.8-6.5-1.507-9.88-2.12Zm4.56-27.08h2.84v14h-2.84v-14Zm9.36 0h2.84v14h-2.84v-14Zm-15.44 7.56v5.44h24.96v-5.44h-24.96Zm-2.84-2.48h30.76v10.36h-30.76V927.2Z"/>
  </g>
  <defs>
    <clipPath id="a">
      <path fill="#fff" d="M0 0h1920v1080H0z"/>
    </clipPath>
  </defs>
</svg>
