<svg xmlns="http://www.w3.org/2000/svg" width="1920" height="1080" fill="none" viewBox="0 0 1920 1080">
  <g clip-path="url(#a)">
    <path fill="#fff" d="M1920 0H0v1080h1920V0Z"/>
    <path fill="#000" d="m572.42 85-2.87-11.9h-16.17L550.44 85h-12.32l15.96-50.19h14.56L584.67 85h-12.25Zm-8.61-32.41c-.28-.98-.56-2.007-.84-3.08-.28-1.073-.56-2.193-.84-3.36a491.97 491.97 0 0 1-.7-3.57 50.165 50.165 0 0 1-.7 3.64c-.28 1.167-.56 2.287-.84 3.36a40.084 40.084 0 0 1-.77 3.01l-3.22 11.62h11.2l-3.29-11.62ZM609.733 85h-22.89v-6.02l5.81-2.8V43.84l-5.81-2.8v-6.02h22.89v6.02l-5.74 2.8v32.34l5.74 2.8V85Zm29.587-22.12h36.75v28h-8.05V70.51h-21v20.72h-7.7V62.88Zm31.15-37.38 6.44 6.58c-3.407 1.307-7.187 2.45-11.34 3.43a155.662 155.662 0 0 1-12.81 2.31 260.53 260.53 0 0 1-12.74 1.47c-.14-.98-.467-2.17-.98-3.57-.467-1.447-.933-2.637-1.4-3.57 2.987-.327 5.997-.7 9.03-1.12 3.08-.42 6.067-.91 8.96-1.47 2.893-.56 5.6-1.167 8.12-1.82 2.52-.7 4.76-1.447 6.72-2.24Zm-16.8 7.91h7.98v33.88h-7.98V33.41Zm-18.69 12.53h44.59v7.98h-44.59v-7.98Zm9.87 34.79h26.53v7.63h-26.53v-7.63ZM617.69 32.5l4.76-6.09c1.307.653 2.777 1.4 4.41 2.24 1.633.84 3.22 1.68 4.76 2.52 1.587.84 2.87 1.587 3.85 2.24l-4.97 6.79c-.933-.7-2.147-1.493-3.64-2.38a325.397 325.397 0 0 0-4.69-2.73 143.975 143.975 0 0 0-4.48-2.59Zm-3.36 19.39 4.55-6.23c1.307.56 2.8 1.26 4.48 2.1 1.68.84 3.313 1.68 4.9 2.52 1.587.793 2.87 1.517 3.85 2.17l-4.69 7c-.933-.7-2.17-1.493-3.71-2.38a190.66 190.66 0 0 0-4.76-2.73 121.35 121.35 0 0 0-4.62-2.45Zm1.05 32.9c1.26-1.773 2.637-3.85 4.13-6.23a256.69 256.69 0 0 0 4.69-7.7 205.013 205.013 0 0 0 4.48-8.19l6.16 5.6a236.354 236.354 0 0 1-3.92 7.49 195.515 195.515 0 0 1-4.2 7.56 169.5 169.5 0 0 1-4.27 7.14l-7.07-5.67Zm81.27-54.6h42.91v8.05h-42.91v-8.05Zm0 16.17h43.05v7.84h-43.05v-7.84Zm-.14 16.52h43.47v7.91h-43.47v-7.91Zm-4.69-32.69h8.26v25.2c0 2.753-.117 5.763-.35 9.03a72.752 72.752 0 0 1-1.4 9.87 43.152 43.152 0 0 1-3.01 9.38c-1.307 2.987-3.033 5.647-5.18 7.98-.42-.56-1.05-1.19-1.89-1.89-.84-.7-1.703-1.377-2.59-2.03-.84-.653-1.563-1.167-2.17-1.54 1.913-2.1 3.43-4.41 4.55-6.93a36.908 36.908 0 0 0 2.45-7.91c.56-2.753.91-5.483 1.05-8.19.187-2.753.28-5.367.28-7.84V30.19Zm44.8 0h8.4v51.17c0 2.24-.28 3.967-.84 5.18-.56 1.26-1.563 2.217-3.01 2.87-1.4.653-3.197 1.073-5.39 1.26-2.193.187-4.9.257-8.12.21-.14-1.12-.49-2.473-1.05-4.06-.56-1.587-1.12-2.917-1.68-3.99l4.06.14h5.88c.653 0 1.097-.117 1.33-.35.28-.233.42-.677.42-1.33v-51.1Zm-23.24 3.22h8.47v56.98h-8.47V33.41Zm51.24 18.48h16.17v7.63h-16.17v-7.63Zm12.95 0h8.12v3.08c-.093 4.947-.21 9.007-.35 12.18-.14 3.127-.373 5.577-.7 7.35-.28 1.727-.677 2.94-1.19 3.64-.7.887-1.447 1.517-2.24 1.89-.747.373-1.633.653-2.66.84-.933.187-2.123.303-3.57.35-1.4 0-2.94-.023-4.62-.07-.047-1.213-.28-2.567-.7-4.06-.42-1.493-.933-2.753-1.54-3.78 1.26.093 2.427.163 3.5.21 1.12.047 1.96.07 2.52.07.467 0 .863-.047 1.19-.14.373-.14.677-.373.91-.7.327-.42.56-1.283.7-2.59.187-1.353.327-3.383.42-6.09.093-2.753.163-6.393.21-10.92v-1.26Zm21-21.98 5.11-5.04a55.092 55.092 0 0 1 4.13 2.31c1.447.887 2.823 1.773 4.13 2.66 1.353.887 2.45 1.75 3.29 2.59l-5.39 5.6c-.793-.793-1.82-1.68-3.08-2.66a56.417 56.417 0 0 0-4.06-2.87 64.197 64.197 0 0 0-4.13-2.59Zm8.26 18.06 8.54 2.03c-2.94 9.1-6.953 17.15-12.04 24.15-5.087 6.953-11.107 12.577-18.06 16.87-.373-.607-.933-1.353-1.68-2.24-.747-.84-1.517-1.703-2.31-2.59a43.938 43.938 0 0 0-2.1-2.1c6.72-3.64 12.413-8.54 17.08-14.7 4.667-6.207 8.19-13.347 10.57-21.42ZM765.04 36h54.04v8.26h-54.04V36Zm-5.6 0h8.82v20.65c0 2.613-.093 5.483-.28 8.61-.187 3.08-.537 6.253-1.05 9.52a55.358 55.358 0 0 1-2.31 9.31c-.98 2.987-2.263 5.67-3.85 8.05-.467-.607-1.167-1.283-2.1-2.03a142.46 142.46 0 0 0-2.73-2.24c-.887-.7-1.657-1.19-2.31-1.47 1.773-2.8 3.057-5.927 3.85-9.38.84-3.5 1.377-7.023 1.61-10.57.233-3.547.35-6.837.35-9.87V36Zm28.42-10.43h8.82c-.093 5.74.07 11.363.49 16.87.42 5.507 1.027 10.663 1.82 15.47.84 4.76 1.82 8.983 2.94 12.67 1.12 3.64 2.357 6.487 3.71 8.54 1.353 2.053 2.73 3.08 4.13 3.08.793 0 1.4-.957 1.82-2.87.467-1.913.793-5.063.98-9.45.98.933 2.123 1.843 3.43 2.73 1.353.887 2.59 1.54 3.71 1.96-.42 4.34-1.05 7.7-1.89 10.08-.84 2.333-1.96 3.943-3.36 4.83s-3.197 1.33-5.39 1.33c-2.52 0-4.807-.863-6.86-2.59-2.007-1.727-3.803-4.13-5.39-7.21-1.54-3.08-2.87-6.697-3.99-10.85s-2.053-8.657-2.8-13.51c-.7-4.853-1.237-9.893-1.61-15.12a300.334 300.334 0 0 1-.56-15.96Zm37.8 36.82h62.65v7.63h-62.65v-7.63Zm26.95-30.8h8.89V91.3h-8.89V31.59ZM850.3 66.1l6.93 3.01c-2.193 2.893-4.807 5.647-7.84 8.26a65.397 65.397 0 0 1-9.66 7c-3.453 2.053-6.953 3.733-10.5 5.04-.42-.7-.98-1.493-1.68-2.38a51.151 51.151 0 0 0-2.03-2.45c-.7-.84-1.377-1.563-2.03-2.17a70.994 70.994 0 0 0 7.77-2.87 62.001 62.001 0 0 0 7.42-3.85c2.38-1.447 4.55-2.963 6.51-4.55 2.007-1.633 3.71-3.313 5.11-5.04Zm12.74-.49c1.447 1.68 3.197 3.337 5.25 4.97a67.453 67.453 0 0 0 6.72 4.55 82.132 82.132 0 0 0 7.56 3.85 60.549 60.549 0 0 0 7.77 2.87c-.607.56-1.283 1.26-2.03 2.1a54.87 54.87 0 0 0-2.03 2.59 24.24 24.24 0 0 0-1.61 2.45 66.109 66.109 0 0 1-7.84-3.71 77.541 77.541 0 0 1-7.63-4.83 69.11 69.11 0 0 1-6.93-5.67 54.636 54.636 0 0 1-5.74-6.23l6.51-2.94Zm-21.77-18.9v4.48h31.36v-4.48h-31.36Zm0-10.92v4.41h31.36v-4.41h-31.36Zm-8.75-7h49.28v29.4h-49.28v-29.4Zm113.89-1.26c.607.793 1.237 1.797 1.89 3.01.7 1.167 1.377 2.333 2.03 3.5a52.143 52.143 0 0 1 1.61 3.08l-5.6 2.38a88.948 88.948 0 0 0-2.59-4.9c-.98-1.867-1.937-3.477-2.87-4.83l5.53-2.24Zm8.26-3.22c.607.887 1.26 1.937 1.96 3.15a68.906 68.906 0 0 1 2.1 3.5c.7 1.12 1.237 2.077 1.61 2.87l-5.53 2.45a113.918 113.918 0 0 0-2.66-4.97c-1.027-1.82-2.03-3.383-3.01-4.69l5.53-2.31Zm-34.44 29.54a172.18 172.18 0 0 1 7.07 4.41 244.053 244.053 0 0 1 7.7 5.11 241.49 241.49 0 0 1 7.35 5.18c2.333 1.633 4.317 3.127 5.95 4.48l-6.72 7.91c-1.54-1.447-3.453-3.08-5.74-4.9a183.101 183.101 0 0 0-7.28-5.6 313.757 313.757 0 0 0-7.7-5.6 180.15 180.15 0 0 0-6.86-4.62l6.23-6.37Zm32.9-11.9c-.373.653-.77 1.447-1.19 2.38-.42.887-.793 1.773-1.12 2.66-.7 2.147-1.657 4.527-2.87 7.14-1.167 2.613-2.567 5.297-4.2 8.05a69.262 69.262 0 0 1-5.6 8.05c-3.267 4.06-7.233 7.957-11.9 11.69-4.667 3.687-10.337 6.813-17.01 9.38l-8.12-7.07c4.853-1.54 9.077-3.313 12.67-5.32 3.593-2.053 6.72-4.247 9.38-6.58 2.66-2.333 4.97-4.667 6.93-7a52.205 52.205 0 0 0 4.48-6.16 64.541 64.541 0 0 0 3.64-6.79c1.073-2.24 1.82-4.247 2.24-6.02H916.8l3.22-7.98h19.95c1.073 0 2.147-.07 3.22-.21 1.12-.14 2.077-.35 2.87-.63l7.07 4.41Zm-23.1-10.71a71.675 71.675 0 0 0-2.52 3.92c-.793 1.4-1.4 2.473-1.82 3.22-1.54 2.753-3.547 5.717-6.02 8.89-2.427 3.173-5.157 6.253-8.19 9.24a69.61 69.61 0 0 1-9.52 7.98l-7.56-5.88c4.107-2.52 7.583-5.18 10.43-7.98 2.893-2.847 5.297-5.577 7.21-8.19 1.96-2.66 3.523-5.017 4.69-7.07.56-.84 1.143-1.96 1.75-3.36.653-1.447 1.12-2.753 1.4-3.92l10.15 3.15Zm67.2 12.18c.327.747.747 1.82 1.26 3.22.56 1.353 1.143 2.823 1.75 4.41a87.93 87.93 0 0 1 1.61 4.41c.47 1.4.84 2.497 1.12 3.29l-8.4 2.94c-.187-.887-.513-2.007-.98-3.36-.467-1.353-.98-2.777-1.54-4.27-.56-1.54-1.12-3.01-1.68-4.41-.56-1.4-1.05-2.567-1.47-3.5l8.33-2.73Zm25.83 5.11c-.37 1.12-.7 2.077-.98 2.87-.23.793-.47 1.54-.7 2.24a68.643 68.643 0 0 1-3.64 10.64 47.15 47.15 0 0 1-5.88 9.87c-3.27 4.2-6.98 7.77-11.13 10.71-4.107 2.893-8.213 5.11-12.32 6.65l-7.35-7.49c2.567-.7 5.273-1.727 8.12-3.08 2.847-1.4 5.6-3.08 8.26-5.04s4.95-4.13 6.86-6.51c1.59-2.007 2.99-4.293 4.2-6.86a47.544 47.544 0 0 0 3.08-8.33c.84-2.987 1.4-5.927 1.68-8.82l9.8 3.15Zm-42.07-1.4c.467.887.98 2.03 1.54 3.43.607 1.4 1.213 2.87 1.82 4.41s1.19 3.033 1.75 4.48c.607 1.447 1.073 2.66 1.4 3.64l-8.54 3.22c-.28-.933-.7-2.147-1.26-3.64a101.529 101.529 0 0 0-1.75-4.69 130.7 130.7 0 0 0-1.89-4.62c-.56-1.4-1.05-2.473-1.47-3.22l8.4-3.01Zm72.52-17.57c1.12.653 2.4 1.423 3.85 2.31 1.45.887 2.92 1.797 4.41 2.73 1.54.933 2.96 1.843 4.27 2.73 1.35.84 2.5 1.587 3.43 2.24l-5.25 7.77c-.93-.7-2.08-1.493-3.43-2.38a542.03 542.03 0 0 0-4.2-2.73c-1.45-.933-2.89-1.82-4.34-2.66a81.926 81.926 0 0 0-3.85-2.31l5.11-7.7Zm-13.02 49.7c2.66-.467 5.32-1.027 7.98-1.68 2.71-.7 5.39-1.563 8.05-2.59a65.864 65.864 0 0 0 7.84-3.57c3.97-2.24 7.65-4.76 11.06-7.56 3.45-2.8 6.53-5.787 9.24-8.96 2.75-3.173 5.06-6.417 6.93-9.73l5.39 9.52c-3.27 4.853-7.3 9.427-12.11 13.72-4.76 4.293-10.01 8.097-15.75 11.41-2.38 1.353-4.99 2.613-7.84 3.78a90.128 90.128 0 0 1-8.33 3.01c-2.71.887-5.11 1.517-7.21 1.89l-5.25-9.24Zm2.24-33.74c1.17.653 2.47 1.423 3.92 2.31 1.49.84 2.99 1.727 4.48 2.66 1.49.933 2.89 1.82 4.2 2.66 1.35.84 2.47 1.587 3.36 2.24l-5.11 7.84c-1.03-.7-2.19-1.47-3.5-2.31a140.42 140.42 0 0 0-4.2-2.73c-1.45-.98-2.89-1.89-4.34-2.73a59.59 59.59 0 0 0-3.92-2.17l5.11-7.77Zm112.28 6.09c-.19.467-.33.98-.42 1.54-.09.56-.19 1.027-.28 1.4-.14.98-.35 2.333-.63 4.06-.23 1.727-.51 3.64-.84 5.74-.28 2.053-.58 4.13-.91 6.23-.33 2.1-.63 4.013-.91 5.74a86.758 86.758 0 0 1-.63 4.13h-9.59c.19-.98.4-2.217.63-3.71.23-1.54.49-3.197.77-4.97.33-1.82.61-3.64.84-5.46.28-1.82.51-3.5.7-5.04.19-1.54.3-2.777.35-3.71h-18.9c-1.12 0-2.33.047-3.64.14a58.84 58.84 0 0 0-3.36.21v-9.24c.61.093 1.33.163 2.17.21l2.52.14c.89.047 1.63.07 2.24.07h17.92c.51 0 1.12-.023 1.82-.07.7-.047 1.38-.117 2.03-.21.65-.14 1.1-.303 1.33-.49l6.79 3.29Zm-43.26 25.41c.93.093 2.01.187 3.22.28 1.26.047 2.5.07 3.71.07h36.68c.89 0 2.03-.023 3.43-.07a50.07 50.07 0 0 0 3.43-.21v9.03a47.86 47.86 0 0 0-1.96-.14c-.79 0-1.63-.023-2.52-.07h-42.42c-1.03.047-2.22.117-3.57.21v-9.1Zm113.68-48.65c.89 1.307 1.84 2.847 2.87 4.62 1.03 1.773 1.87 3.29 2.52 4.55l-5.67 2.38c-.7-1.4-1.52-2.94-2.45-4.62a50.203 50.203 0 0 0-2.8-4.62l5.53-2.31Zm9.1-1.96c.65.84 1.31 1.82 1.96 2.94a91.5 91.5 0 0 1 1.96 3.29c.65 1.073 1.17 2.007 1.54 2.8l-5.53 2.45a86.677 86.677 0 0 0-2.59-4.76 38.738 38.738 0 0 0-2.87-4.48l5.53-2.24Zm-22.33 3.36c-.05.327-.12.863-.21 1.61-.09.747-.19 1.54-.28 2.38-.09.793-.14 1.493-.14 2.1v46.62c0 2.007-.61 3.593-1.82 4.76-1.17 1.213-2.99 1.82-5.46 1.82a107.951 107.951 0 0 1-7.7-.28c-1.26-.093-2.5-.21-3.71-.35l-.84-8.68c1.49.28 2.94.49 4.34.63 1.45.14 2.59.21 3.43.21.93 0 1.59-.187 1.96-.56.37-.42.58-1.073.63-1.96v-2.73c.05-1.4.07-3.057.07-4.97V35.86c0-.933-.07-2.03-.21-3.29-.14-1.307-.28-2.24-.42-2.8h10.36Zm-34.3 11.13c1.07.14 2.19.28 3.36.42 1.17.093 2.31.14 3.43.14h43.19a49 49 0 0 0 3.43-.14c1.35-.093 2.52-.21 3.5-.35v9.17a40.52 40.52 0 0 0-3.5-.14 91.79 91.79 0 0 0-3.36-.07h-43.26c-1.03 0-2.17.023-3.43.07-1.21.047-2.33.117-3.36.21V40.9Zm17.85 18.97c-.79 1.587-1.75 3.29-2.87 5.11a90.811 90.811 0 0 1-3.64 5.46c-1.26 1.82-2.5 3.523-3.71 5.11-1.21 1.54-2.31 2.823-3.29 3.85l-7.56-5.18c1.17-1.073 2.36-2.333 3.57-3.78a74.888 74.888 0 0 0 3.64-4.69 60.828 60.828 0 0 0 3.29-4.9 55.498 55.498 0 0 0 2.66-4.69l7.91 3.71Zm30.1-3.92c.89 1.12 1.87 2.45 2.94 3.99a91.784 91.784 0 0 1 3.36 4.97 126.87 126.87 0 0 1 3.15 5.11c.98 1.633 1.82 3.08 2.52 4.34l-8.26 4.48a108.51 108.51 0 0 0-2.59-4.83c-.93-1.727-1.91-3.453-2.94-5.18a87.13 87.13 0 0 0-3.08-4.83c-.98-1.54-1.89-2.847-2.73-3.92l7.63-4.13Zm22.47-3.36c.84.047 1.91.117 3.22.21 1.31.047 2.66.093 4.06.14 1.45.047 2.78.07 3.99.07h37.59c1.63 0 3.17-.047 4.62-.14 1.45-.14 2.64-.233 3.57-.28v10.99l-3.57-.21a78.92 78.92 0 0 0-4.62-.14h-37.59c-2.01 0-4.06.047-6.16.14-2.1.047-3.8.117-5.11.21V52.59Zm111.3-19.67c.65.933 1.38 2.03 2.17 3.29.79 1.26 1.54 2.52 2.24 3.78.75 1.26 1.4 2.427 1.96 3.5l-6.09 2.73a45.66 45.66 0 0 0-1.96-3.99 61.428 61.428 0 0 0-1.89-3.36 39.338 39.338 0 0 0-2.31-3.5l5.88-2.45Zm9.17-3.85c.7.933 1.45 2.007 2.24 3.22a64.16 64.16 0 0 1 2.38 3.71c.79 1.213 1.45 2.357 1.96 3.43l-5.88 2.87c-.75-1.493-1.47-2.8-2.17-3.92a42.929 42.929 0 0 0-2.03-3.29 31.762 31.762 0 0 0-2.31-3.29l5.81-2.73Zm-37.1 50.26V39.08c0-1.26-.07-2.683-.21-4.27a32.594 32.594 0 0 0-.49-4.2h10.92c-.14 1.213-.28 2.567-.42 4.06a47.233 47.233 0 0 0-.21 4.41v40.25c0 .607.02 1.517.07 2.73.09 1.167.19 2.38.28 3.64.14 1.26.26 2.38.35 3.36h-10.99c.23-1.353.4-2.963.49-4.83.14-1.913.21-3.547.21-4.9Zm7.56-30.59c2.33.607 4.92 1.4 7.77 2.38 2.89.933 5.81 1.96 8.75 3.08 2.94 1.073 5.72 2.147 8.33 3.22 2.61 1.027 4.76 1.96 6.44 2.8l-3.92 9.73a87.855 87.855 0 0 0-6.58-3.15c-2.38-1.027-4.81-2.03-7.28-3.01-2.43-1.027-4.81-1.96-7.14-2.8-2.33-.84-4.46-1.563-6.37-2.17V48.74Z"/>
    <path fill="#F7F9FD" stroke="#374151" stroke-width="2" d="M1800 150H120c-11.046 0-20 8.954-20 20v810c0 11.046 8.954 20 20 20h1680c11.05 0 20-8.954 20-20V170c0-11.046-8.95-20-20-20Z"/>
    <path fill="#1F2937" stroke="#10B981" stroke-width="3" d="M685 250H315c-8.284 0-15 6.716-15 15v170c0 8.284 6.716 15 15 15h370c8.284 0 15-6.716 15-15V265c0-8.284-6.716-15-15-15Z"/>
    <path fill="#10B981" d="m428.968 292-1.148-4.76h-6.468l-1.176 4.76h-4.928l6.384-20.076h5.824L433.868 292h-4.9Zm-3.444-12.964a55.812 55.812 0 0 1-.336-1.232 69.388 69.388 0 0 1-.336-1.344c-.093-.467-.187-.943-.28-1.428-.075.485-.168.971-.28 1.456-.112.467-.224.915-.336 1.344-.093.429-.196.831-.308 1.204l-1.288 4.648h4.48l-1.316-4.648ZM443.893 292h-9.156v-2.408l2.324-1.12v-12.936l-2.324-1.12v-2.408h9.156v2.408l-2.296 1.12v12.936l2.296 1.12V292Zm11.835-8.848h14.7v11.2h-3.22v-8.148h-8.4v8.288h-3.08v-11.34Zm12.46-14.952 2.576 2.632c-1.363.523-2.875.98-4.536 1.372a62.505 62.505 0 0 1-5.124.924 103.46 103.46 0 0 1-5.096.588c-.056-.392-.187-.868-.392-1.428a10.35 10.35 0 0 0-.56-1.428c1.195-.131 2.399-.28 3.612-.448a65.234 65.234 0 0 0 3.584-.588 53.725 53.725 0 0 0 3.248-.728 25.21 25.21 0 0 0 2.688-.896Zm-6.72 3.164h3.192v13.552h-3.192v-13.552Zm-7.476 5.012h17.836v3.192h-17.836v-3.192Zm3.948 13.916h10.612v3.052H457.94v-3.052ZM447.076 271l1.904-2.436c.523.261 1.111.56 1.764.896.653.336 1.288.672 1.904 1.008.635.336 1.148.635 1.54.896l-1.988 2.716c-.373-.28-.859-.597-1.456-.952s-1.223-.719-1.876-1.092a58.243 58.243 0 0 0-1.792-1.036Zm-1.344 7.756 1.82-2.492c.523.224 1.12.504 1.792.84a95.68 95.68 0 0 1 1.96 1.008 14.63 14.63 0 0 1 1.54.868l-1.876 2.8c-.373-.28-.868-.597-1.484-.952a73.964 73.964 0 0 0-1.904-1.092c-.672-.373-1.288-.7-1.848-.98Zm.42 13.16a52.302 52.302 0 0 0 1.652-2.492c.616-.971 1.241-1.997 1.876-3.08a81.313 81.313 0 0 0 1.792-3.276l2.464 2.24a94.128 94.128 0 0 1-1.568 2.996 77.207 77.207 0 0 1-1.68 3.024 67.996 67.996 0 0 1-1.708 2.856l-2.828-2.268Zm32.508-21.84h17.164v3.22H478.66v-3.22Zm0 6.468h17.22v3.136h-17.22v-3.136Zm-.056 6.608h17.388v3.164h-17.388v-3.164Zm-1.876-13.076h3.304v10.08c0 1.101-.047 2.305-.14 3.612a29.055 29.055 0 0 1-.56 3.948 17.26 17.26 0 0 1-1.204 3.752 11.451 11.451 0 0 1-2.072 3.192c-.168-.224-.42-.476-.756-.756s-.681-.551-1.036-.812a9.975 9.975 0 0 0-.868-.616 10.328 10.328 0 0 0 1.82-2.772c.448-1.027.775-2.081.98-3.164.224-1.101.364-2.193.42-3.276.075-1.101.112-2.147.112-3.136v-10.052Zm17.92 0h3.36v20.468c0 .896-.112 1.587-.336 2.072-.224.504-.625.887-1.204 1.148-.56.261-1.279.429-2.156.504-.877.075-1.96.103-3.248.084-.056-.448-.196-.989-.42-1.624a12.435 12.435 0 0 0-.672-1.596l1.624.056h2.352c.261 0 .439-.047.532-.14.112-.093.168-.271.168-.532v-20.44Zm-9.296 1.288h3.388v22.792h-3.388v-22.792Zm38.752 1.652c-.112.168-.28.429-.504.784a6.67 6.67 0 0 0-.476.98 46.951 46.951 0 0 1-1.456 2.94 35.578 35.578 0 0 1-1.932 3.276 31.406 31.406 0 0 1-2.268 3.052 47 47 0 0 1-3.472 3.5 38.423 38.423 0 0 1-3.976 3.164 30.646 30.646 0 0 1-4.256 2.464l-2.884-3.024a26.111 26.111 0 0 0 4.396-2.184 32.708 32.708 0 0 0 3.948-2.856c1.213-1.027 2.259-2.025 3.136-2.996a23.323 23.323 0 0 0 1.736-2.268 25.94 25.94 0 0 0 1.484-2.38c.429-.803.747-1.54.952-2.212h-9.492c-.392 0-.803.019-1.232.056-.429.019-.84.047-1.232.084a22.83 22.83 0 0 0-.868.056v-3.976c.28.019.625.047 1.036.084a28.307 28.307 0 0 0 2.296.112h9.884c.616 0 1.176-.037 1.68-.112.523-.075.924-.159 1.204-.252l2.296 1.708Zm-6.272 8.708a39.584 39.584 0 0 1 2.324 2.016 73.46 73.46 0 0 1 2.436 2.38c.803.821 1.54 1.615 2.212 2.38.691.747 1.269 1.4 1.736 1.96l-3.192 2.772a42.654 42.654 0 0 0-2.38-2.968 59.966 59.966 0 0 0-2.8-3.052 54.455 54.455 0 0 0-2.968-2.912l2.632-2.576Zm15.316-9.604c.523.056 1.111.103 1.764.14.653.019 1.213.028 1.68.028h15.456c.504-.019.877-.037 1.12-.056-.019.317-.037.728-.056 1.232-.019.485-.028.933-.028 1.344v14.504c0 .485.009 1.055.028 1.708.037.653.065 1.185.084 1.596h-4.06c.019-.411.028-.859.028-1.344.019-.504.028-1.008.028-1.512V275.9H536.62c-.597 0-1.232.009-1.904.028-.653.019-1.176.047-1.568.084v-3.892Zm-.364 15.204c.485.037 1.027.075 1.624.112.616.037 1.241.056 1.876.056h15.12v3.668h-15.008c-.541 0-1.167.019-1.876.056a69.3 69.3 0 0 0-1.736.112v-4.004Zm50.708-14.28c-.149.187-.336.429-.56.728-.224.28-.401.523-.532.728-.429.728-.999 1.568-1.708 2.52a38.814 38.814 0 0 1-2.352 2.8 18.038 18.038 0 0 1-2.66 2.352l-2.912-2.324c.56-.336 1.111-.728 1.652-1.176a15.305 15.305 0 0 0 1.484-1.4c.467-.504.868-.98 1.204-1.428.355-.448.625-.849.812-1.204h-14.588c-.579 0-1.129.019-1.652.056-.523.037-1.111.084-1.764.14v-3.892c.541.075 1.101.14 1.68.196.579.056 1.157.084 1.736.084h15.092a20.689 20.689 0 0 0 2.044-.112c.373-.037.644-.084.812-.14l2.212 2.072Zm-11.424 3.78a92.26 92.26 0 0 1-.084 4.004 21.875 21.875 0 0 1-.476 3.724 12.694 12.694 0 0 1-1.204 3.36c-.541 1.064-1.297 2.072-2.268 3.024-.971.952-2.212 1.829-3.724 2.632l-3.276-2.66a12.11 12.11 0 0 0 1.428-.588 11.239 11.239 0 0 0 1.512-.952c.896-.616 1.615-1.269 2.156-1.96a7.942 7.942 0 0 0 1.288-2.24 11.77 11.77 0 0 0 .616-2.66c.112-.971.168-2.025.168-3.164 0-.429-.009-.84-.028-1.232a8.206 8.206 0 0 0-.168-1.288h4.06Zm-93.744 41.336c3.307 0 6.267.507 8.88 1.52 2.667 1.013 4.774 2.533 6.32 4.56 1.547 2.027 2.32 4.587 2.32 7.68 0 2.293-.426 4.32-1.28 6.08-.8 1.707-1.92 3.2-3.36 4.48-1.386 1.28-2.986 2.4-4.8 3.36a34.68 34.68 0 0 1 5.2 3.76 16.913 16.913 0 0 1 4.16 4.96c1.12 1.867 1.68 4.08 1.68 6.64 0 3.147-.746 5.893-2.24 8.24-1.493 2.347-3.68 4.16-6.56 5.44-2.826 1.28-6.293 1.92-10.4 1.92-4.266 0-7.84-.613-10.72-1.84-2.826-1.227-4.96-2.987-6.4-5.28-1.386-2.293-2.08-5.013-2.08-8.16 0-2.613.427-4.88 1.28-6.8a15.46 15.46 0 0 1 3.68-4.96 22.773 22.773 0 0 1 5.12-3.6 31.06 31.06 0 0 1-4.32-3.6 16.628 16.628 0 0 1-3.04-4.64c-.746-1.76-1.12-3.787-1.12-6.08 0-3.04.774-5.573 2.32-7.6 1.6-2.027 3.734-3.547 6.4-4.56 2.72-1.013 5.707-1.52 8.96-1.52Zm-7.36 42.64c0 2.08.614 3.787 1.84 5.12 1.227 1.333 2.987 2 5.28 2 1.707 0 3.094-.293 4.16-.88 1.12-.587 1.947-1.413 2.48-2.48.534-1.067.8-2.293.8-3.68 0-1.44-.346-2.72-1.04-3.84a12.307 12.307 0 0 0-2.56-2.96 22.918 22.918 0 0 0-3.04-2.32l-.96-.64a19.903 19.903 0 0 0-3.6 2.56 12.924 12.924 0 0 0-2.48 3.2c-.586 1.12-.88 2.427-.88 3.92Zm7.28-33.84c-1.493 0-2.773.507-3.84 1.52-1.066 1.013-1.6 2.453-1.6 4.32 0 1.28.24 2.427.72 3.44.534.96 1.2 1.813 2 2.56a36.03 36.03 0 0 0 2.72 2 22.936 22.936 0 0 0 2.56-1.92 8.442 8.442 0 0 0 2.08-2.48c.534-1.013.8-2.213.8-3.6 0-1.867-.533-3.307-1.6-4.32-1.013-1.013-2.293-1.52-3.84-1.52ZM508.08 376l19.28-46.96h-24.88v-10.16h38.64v7.6L521.52 376h-13.44Z"/>
    <path fill="#6EE7B7" d="M430.335 405.632h21.456v1.656h-21.456v-1.656Zm2.472 7.728h6.744v1.416h-6.744v-1.416Zm0 3.84h6.744v1.416h-6.744V417.2Zm10.752-7.536h1.68v9.84h-1.68v-9.84Zm-4.68-.216h1.752v12.408c0 .448-.064.8-.192 1.056-.112.256-.336.456-.672.6-.336.144-.776.232-1.32.264-.528.032-1.2.048-2.016.048a5.22 5.22 0 0 0-.264-.816 5.284 5.284 0 0 0-.36-.792c.608.016 1.16.024 1.656.024.496.016.824.016.984 0 .176 0 .288-.032.336-.096.064-.064.096-.168.096-.312v-12.384Zm9.552-.504h1.776v12.744c0 .512-.072.904-.216 1.176-.144.288-.408.504-.792.648-.368.144-.864.232-1.488.264a24.8 24.8 0 0 1-2.304.048 5.573 5.573 0 0 0-.264-.864c-.128-.32-.256-.608-.384-.864.72.032 1.376.048 1.968.048.592 0 .992-.008 1.2-.024.192 0 .32-.032.384-.096.08-.064.12-.184.12-.36v-12.72Zm-14.376-6.528 1.68-.6c.464.496.92 1.064 1.368 1.704.448.64.792 1.192 1.032 1.656l-1.776.672c-.192-.464-.512-1.016-.961-1.656a15.97 15.97 0 0 0-1.343-1.776Zm12.36-.696 1.92.624a41.71 41.71 0 0 1-1.464 2.28 35.853 35.853 0 0 1-1.416 1.992l-1.608-.576c.304-.4.616-.848.936-1.344.32-.512.616-1.024.888-1.536.288-.528.536-1.008.744-1.44Zm-14.568 7.728h7.608v1.536h-5.904V423.8h-1.704v-14.352Zm27.312-6.336h12.504v1.752h-12.504v-1.752Zm0 5.784h12.624v1.704h-12.624v-1.704Zm-.192 5.784h12.696v1.752h-12.696v-1.752Zm-.936-11.568h1.824v7.392c0 1.04-.056 2.152-.168 3.336a20.62 20.62 0 0 1-.625 3.6c-.319 1.2-.799 2.36-1.439 3.48-.624 1.12-1.456 2.128-2.496 3.024a2.752 2.752 0 0 0-.384-.456 7.488 7.488 0 0 0-.504-.504 3.342 3.342 0 0 0-.48-.336c.976-.864 1.744-1.792 2.303-2.784a12.402 12.402 0 0 0 1.273-3.12c.288-1.072.472-2.136.552-3.192.096-1.072.144-2.088.144-3.048v-7.392Zm12.84 0h1.896v18.144c0 .64-.096 1.128-.288 1.464-.192.336-.512.584-.96.744-.464.16-1.112.256-1.944.288-.832.048-1.888.072-3.168.072a2.746 2.746 0 0 0-.192-.624 8.063 8.063 0 0 0-.288-.696 4.814 4.814 0 0 0-.288-.576l1.92.048h1.608c.464-.016.784-.024.96-.024.288-.016.48-.072.576-.168.112-.112.168-.296.168-.552v-18.12Zm11.4 6.144h6.216v1.776h-6.216v-1.776Zm-1.056-7.296h1.847v19.584l-1.847.432V401.96Zm-3.216 19.56c.96-.176 2.056-.392 3.288-.648 1.232-.272 2.528-.568 3.888-.888 1.36-.32 2.712-.632 4.056-.936l.167 1.728c-1.263.304-2.543.616-3.839.936-1.28.32-2.52.616-3.72.888-1.184.288-2.28.552-3.288.792l-.552-1.872Zm20.04-14.424 1.344 1.512c-.72.48-1.528.952-2.424 1.416-.88.464-1.8.912-2.76 1.344-.944.432-1.864.84-2.76 1.224a5.592 5.592 0 0 0-.288-.72 3.105 3.105 0 0 0-.36-.696c.88-.384 1.76-.8 2.64-1.248a46.568 46.568 0 0 0 2.544-1.416 19.762 19.762 0 0 0 2.064-1.416Zm-7.776-5.136h1.848v18.168c0 .656.08 1.08.24 1.272.16.192.528.288 1.104.288h3.744c.368 0 .64-.12.816-.36.192-.24.328-.68.408-1.32.08-.64.144-1.536.192-2.688.224.176.496.336.816.48.32.144.616.248.888.312-.08 1.312-.208 2.352-.384 3.12-.176.768-.472 1.32-.888 1.656-.4.336-.984.504-1.752.504h-4.032c-.784 0-1.392-.096-1.824-.288-.432-.176-.736-.504-.912-.984-.176-.48-.264-1.16-.264-2.04v-18.12Zm24.738 10.728h4.776v1.704h-4.776v4.944h-1.728v-4.944h-4.776v-1.704h4.776v-4.968h1.728v4.968Zm14.55 9.312h-2.064v-13.152c.016-.32.032-.616.048-.888l.048-.888a11.61 11.61 0 0 1-.696.648l-.792.672-1.824 1.488-1.104-1.416 4.632-3.6h1.752V422Zm17.695 0h-11.328v-1.752l4.488-4.536a51.138 51.138 0 0 0 2.184-2.304c.592-.672 1.04-1.328 1.344-1.968a5.018 5.018 0 0 0 .456-2.136c0-.944-.28-1.656-.84-2.136-.56-.496-1.288-.744-2.184-.744-.832 0-1.568.144-2.208.432a9.887 9.887 0 0 0-1.92 1.2l-1.128-1.416a9.613 9.613 0 0 1 1.464-1.032 8.064 8.064 0 0 1 1.752-.72 7.663 7.663 0 0 1 2.04-.264c1.072 0 1.992.184 2.76.552.768.368 1.36.896 1.776 1.584.432.672.648 1.48.648 2.424a5.89 5.89 0 0 1-.312 1.92 7.857 7.857 0 0 1-.888 1.752c-.384.576-.848 1.16-1.392 1.752a47.42 47.42 0 0 1-1.8 1.848l-3.576 3.528v.096h8.664V422Zm9.414-13.104c1.584 0 2.856.552 3.816 1.656.976 1.104 1.464 2.768 1.464 4.992 0 1.456-.224 2.688-.672 3.696-.432.992-1.048 1.744-1.848 2.256-.784.496-1.712.744-2.784.744-.656 0-1.24-.088-1.752-.264a4.866 4.866 0 0 1-1.32-.672 5.584 5.584 0 0 1-.912-.936h-.144c.032.272.064.616.096 1.032.032.416.048.776.048 1.08v5.28h-2.112v-18.624h1.728l.288 1.752h.096c.256-.368.56-.704.912-1.008a4.24 4.24 0 0 1 1.296-.72c.512-.176 1.112-.264 1.8-.264Zm-.384 1.776c-.864 0-1.56.168-2.088.504-.528.32-.912.808-1.152 1.464-.24.656-.368 1.488-.384 2.496v.408c0 1.056.112 1.952.336 2.688.224.736.6 1.296 1.128 1.68.544.384 1.28.576 2.208.576.784 0 1.424-.216 1.92-.648.512-.432.888-1.016 1.128-1.752.256-.752.384-1.608.384-2.568 0-1.472-.288-2.648-.864-3.528-.56-.88-1.432-1.32-2.616-1.32Zm13.326 9.84c.32 0 .648-.024.984-.072.336-.064.608-.128.816-.192v1.608c-.224.112-.544.2-.96.264-.416.08-.816.12-1.2.12a5.12 5.12 0 0 1-1.872-.336c-.56-.24-1.016-.648-1.368-1.224-.352-.576-.528-1.384-.528-2.424v-7.488h-1.824v-1.008l1.848-.84.84-2.736h1.248v2.952h3.72v1.632h-3.72v7.44c0 .784.184 1.368.552 1.752.384.368.872.552 1.464.552Z"/>
    <path fill="#1F2937" stroke="#3B82F6" stroke-width="3" d="M1145 250H775c-8.284 0-15 6.716-15 15v170c0 8.284 6.716 15 15 15h370c8.28 0 15-6.716 15-15V265c0-8.284-6.72-15-15-15Z"/>
    <path fill="#3B82F6" d="M943.317 272.008c1.699 0 3.108.224 4.228.672 1.12.429 1.951 1.092 2.492 1.988.56.877.84 1.988.84 3.332 0 .915-.149 1.717-.448 2.408a5.102 5.102 0 0 1-1.176 1.736 6.683 6.683 0 0 1-1.708 1.148l5.488 8.708h-5.068l-4.228-7.672h-1.708V292h-4.536v-19.992h5.824Zm-.196 3.472h-1.092v5.404h1.12c.691 0 1.27-.103 1.736-.308a2.24 2.24 0 0 0 1.064-.924c.243-.429.364-.943.364-1.54 0-.635-.112-1.139-.336-1.512-.224-.392-.569-.672-1.036-.84-.466-.187-1.073-.28-1.82-.28Zm29.258 6.496c0 1.549-.177 2.959-.532 4.228-.354 1.251-.896 2.333-1.624 3.248-.728.915-1.67 1.615-2.828 2.1-1.138.485-2.492.728-4.06.728-1.549 0-2.893-.243-4.032-.728-1.138-.504-2.081-1.204-2.828-2.1-.728-.915-1.278-2.007-1.652-3.276-.354-1.269-.532-2.679-.532-4.228 0-2.072.318-3.873.952-5.404.654-1.531 1.652-2.716 2.996-3.556 1.344-.859 3.052-1.288 5.124-1.288 2.091 0 3.799.429 5.124 1.288 1.326.84 2.306 2.035 2.94 3.584.635 1.531.952 3.332.952 5.404Zm-13.328 0c0 1.4.14 2.604.42 3.612.299 1.008.766 1.783 1.4 2.324.635.541 1.456.812 2.464.812 1.027 0 1.848-.271 2.464-.812.635-.541 1.092-1.316 1.372-2.324.299-1.008.448-2.212.448-3.612 0-2.109-.336-3.761-1.008-4.956-.653-1.195-1.736-1.792-3.248-1.792-1.026 0-1.857.271-2.492.812-.634.541-1.101 1.316-1.4 2.324-.28 1.008-.42 2.212-.42 3.612ZM983.86 292h-9.156v-2.408l2.324-1.12v-12.936l-2.324-1.12v-2.408h9.156v2.408l-2.296 1.12v12.936l2.296 1.12V292Zm-59.511 84h-38.24v-8.4l13.28-14.48c2.72-2.987 4.853-5.467 6.4-7.44 1.6-2.027 2.72-3.84 3.36-5.44.693-1.653 1.04-3.413 1.04-5.28 0-2.293-.56-4-1.68-5.12-1.067-1.12-2.454-1.68-4.16-1.68-1.867 0-3.734.507-5.6 1.52-1.814 1.013-3.814 2.453-6 4.32l-7.04-7.76c1.6-1.44 3.28-2.773 5.04-4 1.76-1.227 3.84-2.213 6.24-2.96 2.4-.8 5.28-1.2 8.64-1.2 3.573 0 6.666.693 9.28 2.08 2.613 1.333 4.613 3.173 6 5.52 1.44 2.293 2.16 4.907 2.16 7.84 0 2.4-.347 4.587-1.04 6.56-.694 1.973-1.707 3.92-3.04 5.84-1.28 1.92-2.827 3.92-4.64 6a830.34 830.34 0 0 0-6.08 6.88l-5.76 6.48-.08.56h21.92V376Zm6.395-5.6c0-2.453.694-4.16 2.08-5.12 1.387-1.013 3.067-1.52 5.04-1.52 1.867 0 3.494.507 4.88 1.52 1.387.96 2.08 2.667 2.08 5.12 0 2.347-.693 4.053-2.08 5.12-1.386 1.013-3.013 1.52-4.88 1.52-1.973 0-3.653-.507-5.04-1.52-1.386-1.067-2.08-2.773-2.08-5.12Zm39.643-52.24c3.307 0 6.267.507 8.88 1.52 2.667 1.013 4.773 2.533 6.32 4.56 1.547 2.027 2.32 4.587 2.32 7.68 0 2.293-.427 4.32-1.28 6.08-.8 1.707-1.92 3.2-3.36 4.48-1.387 1.28-2.987 2.4-4.8 3.36a34.73 34.73 0 0 1 5.2 3.76 16.928 16.928 0 0 1 4.16 4.96c1.12 1.867 1.68 4.08 1.68 6.64 0 3.147-.747 5.893-2.24 8.24-1.493 2.347-3.68 4.16-6.56 5.44-2.827 1.28-6.293 1.92-10.4 1.92-4.267 0-7.84-.613-10.72-1.84-2.827-1.227-4.96-2.987-6.4-5.28-1.387-2.293-2.08-5.013-2.08-8.16 0-2.613.427-4.88 1.28-6.8a15.445 15.445 0 0 1 3.68-4.96 22.75 22.75 0 0 1 5.12-3.6 30.944 30.944 0 0 1-4.32-3.6 16.628 16.628 0 0 1-3.04-4.64c-.747-1.76-1.12-3.787-1.12-6.08 0-3.04.773-5.573 2.32-7.6 1.6-2.027 3.733-3.547 6.4-4.56 2.72-1.013 5.707-1.52 8.96-1.52Zm-7.36 42.64c0 2.08.613 3.787 1.84 5.12 1.227 1.333 2.987 2 5.28 2 1.707 0 3.093-.293 4.16-.88 1.12-.587 1.947-1.413 2.48-2.48.533-1.067.8-2.293.8-3.68 0-1.44-.347-2.72-1.04-3.84a12.33 12.33 0 0 0-2.56-2.96 22.983 22.983 0 0 0-3.04-2.32l-.96-.64a19.903 19.903 0 0 0-3.6 2.56 12.924 12.924 0 0 0-2.48 3.2c-.587 1.12-.88 2.427-.88 3.92Zm7.28-33.84c-1.493 0-2.773.507-3.84 1.52-1.067 1.013-1.6 2.453-1.6 4.32 0 1.28.24 2.427.72 3.44.533.96 1.2 1.813 2 2.56a35.83 35.83 0 0 0 2.72 2 22.936 22.936 0 0 0 2.56-1.92 8.458 8.458 0 0 0 2.08-2.48c.533-1.013.8-2.213.8-3.6 0-1.867-.533-3.307-1.6-4.32-1.013-1.013-2.293-1.52-3.84-1.52Zm35.833 26.72-13.037-21.36h14.557l7.12 13.92 7.28-13.92h14.48l-13.2 21.36L1037.1 376h-14.48l-7.84-14.96-7.84 14.96h-14.477l13.677-22.32Z"/>
    <path fill="#93C5FD" d="M887.509 408.992h13.872v1.728h-13.872v-1.728Zm0 5.688h13.872v1.728h-13.872v-1.728Zm0 5.712h13.872v1.752h-13.872v-1.752Zm-1.248-17.064h16.296v20.448h-1.872v-18.672h-12.624v18.672h-1.8v-20.448Zm30.744 9.936h11.28v1.392h-11.28v-1.392Zm-1.392-10.368h13.896v1.488h-13.896v-1.488Zm-.12 13.488h14.016v1.512h-14.016v-1.512Zm9.528 2.952 1.272-.84c.416.368.84.768 1.272 1.2.432.432.832.864 1.2 1.296.384.416.688.8.912 1.152l-1.344.96a9.752 9.752 0 0 0-.864-1.152 22.669 22.669 0 0 0-1.2-1.344 31.867 31.867 0 0 0-1.248-1.272Zm-7.128-11.856v2.952h9.432v-2.952h-9.432Zm-1.512-1.416h12.528v5.76h-12.528v-5.76Zm5.232 10.992h1.68v5.088c0 .4-.048.72-.144.96-.096.256-.304.448-.624.576-.32.112-.728.184-1.224.216s-1.12.048-1.872.048a3.544 3.544 0 0 0-.216-.768 11.23 11.23 0 0 0-.336-.744c.592.016 1.096.024 1.512.024.416.016.696.016.84 0 .16-.016.264-.048.312-.096.048-.048.072-.128.072-.24v-5.064Zm-3.336 1.368 1.368.768a12.259 12.259 0 0 1-1.752 2.112 15.479 15.479 0 0 1-2.16 1.776 5.328 5.328 0 0 0-.528-.552 5.674 5.674 0 0 0-.6-.528 13.982 13.982 0 0 0 2.064-1.68c.672-.656 1.208-1.288 1.608-1.896Zm1.656-14.688h1.464v3.192h-1.464v-3.192Zm.12 2.952h1.32v4.56h-1.32v-4.56Zm3.552-2.952h1.488v3.192h-1.488v-3.192Zm0 2.952h1.344v4.56h-1.344v-4.56Zm-15.888.36h7.728v1.68h-7.728v-1.68Zm3.36-5.208h1.656v22.056h-1.656V401.84Zm-.048 6.216 1.128.36a39.93 39.93 0 0 1-.72 2.976 38.908 38.908 0 0 1-.936 3.024 29.953 29.953 0 0 1-1.128 2.76c-.4.848-.816 1.576-1.248 2.184a3.404 3.404 0 0 0-.408-.792c-.192-.304-.36-.56-.504-.768.4-.544.792-1.192 1.176-1.944.384-.752.744-1.568 1.08-2.448a37.9 37.9 0 0 0 .912-2.688 27.86 27.86 0 0 0 .648-2.664Zm1.584 2.184c.144.16.352.448.624.864.288.4.592.84.912 1.32.336.48.64.928.912 1.344.272.4.456.688.552.864l-.984 1.344a21.847 21.847 0 0 0-.6-1.152c-.24-.464-.504-.944-.792-1.44a62.55 62.55 0 0 0-.816-1.368 23.668 23.668 0 0 0-.624-1.008l.816-.768Zm36.57 11.76h-11.328v-1.752l4.488-4.536a51.138 51.138 0 0 0 2.184-2.304c.592-.672 1.04-1.328 1.344-1.968a5.018 5.018 0 0 0 .456-2.136c0-.944-.28-1.656-.84-2.136-.56-.496-1.288-.744-2.184-.744-.832 0-1.568.144-2.208.432a9.887 9.887 0 0 0-1.92 1.2l-1.128-1.416a9.613 9.613 0 0 1 1.464-1.032 8.064 8.064 0 0 1 1.752-.72 7.663 7.663 0 0 1 2.04-.264c1.072 0 1.992.184 2.76.552.768.368 1.36.896 1.776 1.584.432.672.648 1.48.648 2.424a5.89 5.89 0 0 1-.312 1.92 7.857 7.857 0 0 1-.888 1.752c-.384.576-.848 1.16-1.392 1.752a47.42 47.42 0 0 1-1.8 1.848l-3.576 3.528v.096h8.664V422Zm2.983-1.296c0-.592.144-1.008.432-1.248a1.56 1.56 0 0 1 1.032-.36c.416 0 .768.12 1.056.36.304.24.456.656.456 1.248 0 .576-.152.992-.456 1.248-.288.256-.64.384-1.056.384a1.5 1.5 0 0 1-1.032-.384c-.288-.256-.432-.672-.432-1.248Zm17.245-7.296c0 1.392-.104 2.632-.312 3.72-.208 1.088-.544 2.016-1.008 2.784a4.601 4.601 0 0 1-1.776 1.728c-.72.4-1.592.6-2.616.6-1.28 0-2.344-.352-3.192-1.056-.832-.704-1.456-1.712-1.872-3.024-.4-1.328-.6-2.912-.6-4.752 0-1.856.184-3.44.552-4.752.384-1.312.992-2.312 1.824-3 .832-.704 1.928-1.056 3.288-1.056 1.28 0 2.344.352 3.192 1.056.848.688 1.48 1.688 1.896 3 .416 1.312.624 2.896.624 4.752Zm-9.264 0c0 1.568.112 2.872.336 3.912.24 1.04.616 1.824 1.128 2.352.528.512 1.224.768 2.088.768.864 0 1.552-.256 2.064-.768.528-.512.912-1.288 1.152-2.328.24-1.056.36-2.368.36-3.936s-.12-2.864-.36-3.888c-.24-1.04-.624-1.816-1.152-2.328-.512-.528-1.2-.792-2.064-.792-.864 0-1.56.264-2.088.792-.512.512-.888 1.288-1.128 2.328-.224 1.024-.336 2.32-.336 3.888Zm15.535 2.016-4.44-6.288h2.4l3.312 4.848 3.288-4.848h2.376l-4.44 6.288 4.68 6.576h-2.4l-3.504-5.136-3.552 5.136h-2.376l4.656-6.576Zm19.753-4.104v8.496h-1.752V413h-3.048v-1.68h4.8Zm0 7.752c.56.88 1.36 1.536 2.4 1.968 1.04.432 2.265.68 3.675.744.67.016 1.49.032 2.45.048h3.02c1.06-.016 2.08-.04 3.07-.072.99-.032 1.85-.072 2.57-.12-.06.128-.14.296-.22.504a6.46 6.46 0 0 0-.21.648c-.07.224-.11.432-.15.624-.67.016-1.47.032-2.4.048-.91.032-1.86.048-2.85.048-.99.016-1.95.016-2.88 0-.93-.016-1.72-.032-2.38-.048-1.583-.064-2.935-.32-4.055-.768a6.724 6.724 0 0 1-2.808-2.088 76.338 76.338 0 0 1-1.632 1.536 55.207 55.207 0 0 1-1.704 1.584l-.936-1.776a39.083 39.083 0 0 0 1.704-1.32 28.162 28.162 0 0 0 1.752-1.56h1.584Zm-4.56-15.624 1.368-1.008c.496.368.992.784 1.488 1.248.512.464.976.928 1.392 1.392.432.464.768.896 1.008 1.296l-1.464 1.128c-.224-.4-.544-.84-.96-1.32a16.442 16.442 0 0 0-1.368-1.44c-.48-.48-.968-.912-1.464-1.296Zm8.736 5.04 1.559-.384c.26.384.5.808.72 1.272.23.448.39.848.48 1.2l-1.65.432c-.07-.336-.2-.736-.41-1.2-.21-.48-.443-.92-.699-1.32Zm-1.464-4.824h12.503v1.344h-12.503v-1.344Zm-.144 10.128h12.987v1.368h-12.987v-1.368Zm-.912-2.952h14.879v1.368h-14.879v-1.368Zm-.552-4.032h15.741v1.416h-15.741v-1.416Zm.264 10.152h15.287v1.392h-15.287v-1.392Zm6.597-15.12h1.78v5.88h-1.78v-5.88Zm0 9.6h1.78v9.168h-1.78v-9.168Zm3.92-3.408 1.75.48c-.26.464-.51.92-.77 1.368-.24.448-.47.84-.7 1.176l-1.44-.456c.2-.368.4-.8.63-1.296.22-.496.4-.92.53-1.272Zm10.32 2.808h5.95v1.68h-5.95v-1.68Zm5.25 0h1.75v.144c0 .08 0 .184-.02.312v.312c-.03 1.792-.08 3.248-.14 4.368-.05 1.104-.12 1.944-.22 2.52-.08.576-.21.976-.38 1.2-.2.224-.4.384-.63.48a3.02 3.02 0 0 1-.81.216c-.32.032-.74.048-1.25.048-.51-.016-1.07-.04-1.66-.072a3.116 3.116 0 0 0-.17-.84 3.2 3.2 0 0 0-.33-.84c.54.064 1.05.104 1.53.12h1.01c.18 0 .32-.016.43-.048a.662.662 0 0 0 .34-.216c.11-.144.2-.464.26-.96.08-.512.14-1.28.17-2.304.05-1.04.09-2.424.12-4.152v-.288Zm6.75-7.8 1.08-1.104c.51.24 1.04.528 1.58.864.56.32 1.08.648 1.56.984.48.32.88.616 1.2.888l-1.13 1.248c-.3-.288-.69-.6-1.17-.936a27.43 27.43 0 0 0-3.12-1.944Zm3.45 6.504 1.8.456c-1.02 3.136-2.42 5.856-4.2 8.16a22.41 22.41 0 0 1-6.33 5.64c-.1-.128-.23-.288-.39-.48-.16-.176-.33-.36-.5-.552-.16-.176-.31-.328-.43-.456 2.43-1.28 4.48-3 6.16-5.16 1.68-2.176 2.98-4.712 3.89-7.608Zm-15.31-3.624h18.58v1.752h-18.58v-1.752Zm-1.18 0h1.88v6.768c0 .848-.04 1.768-.1 2.76-.06.992-.18 2-.36 3.024a19.19 19.19 0 0 1-.77 3c-.33.96-.78 1.832-1.34 2.616a2.98 2.98 0 0 0-.43-.432c-.18-.16-.37-.312-.58-.456a2.772 2.772 0 0 0-.5-.312c.67-.992 1.16-2.08 1.46-3.264.32-1.184.52-2.376.6-3.576.1-1.216.14-2.344.14-3.384v-6.744Zm9.99-4.056h1.87a64.32 64.32 0 0 0 .24 6.336c.18 2 .42 3.84.74 5.52.32 1.664.71 3.112 1.16 4.344.46 1.216.96 2.16 1.51 2.832.56.672 1.14 1.008 1.75 1.008.35 0 .61-.336.77-1.008.17-.688.29-1.832.36-3.432.21.192.45.384.74.576.31.192.58.328.82.408-.11 1.376-.27 2.448-.48 3.216-.19.768-.48 1.304-.87 1.608-.36.32-.86.48-1.48.48-.8 0-1.54-.272-2.21-.816-.67-.544-1.27-1.312-1.8-2.304-.51-.992-.96-2.16-1.35-3.504-.38-1.36-.71-2.856-.98-4.488a60.376 60.376 0 0 1-.58-5.16c-.12-1.824-.2-3.696-.21-5.616Z"/>
    <path fill="#1F2937" stroke="#F59E0B" stroke-width="3" d="M1605 250h-370c-8.28 0-15 6.716-15 15v170c0 8.284 6.72 15 15 15h370c8.28 0 15-6.716 15-15V265c0-8.284-6.72-15-15-15Z"/>
    <path fill="#F59E0B" d="M1337.57 285.336h24.97v2.772h-24.97v-2.772Zm.08-12.544h24.81v2.744h-24.81v-2.744Zm1.15 5.012h22.57v2.632h-22.57v-2.632Zm1.37 3.864h19.91v2.436h-19.91v-2.436Zm8.12-2.548h3.33v15.4h-3.33v-15.4Zm-2.43-10.948h3.13v5.936h-3.13v-5.936Zm5.2 0h3.17v5.74h-3.17v-5.74Zm-3.38 18.396 2.66 1.204c-.88.971-1.95 1.876-3.2 2.716-1.23.821-2.55 1.54-3.97 2.156a29.452 29.452 0 0 1-4.29 1.54c-.15-.28-.35-.597-.61-.952-.24-.336-.51-.672-.79-1.008a7.065 7.065 0 0 0-.75-.84c1.4-.299 2.79-.681 4.17-1.148a24.02 24.02 0 0 0 3.86-1.652c1.18-.635 2.15-1.307 2.92-2.016Zm4.62-.084c.57.56 1.27 1.092 2.07 1.596.8.485 1.68.933 2.63 1.344.97.392 1.99.737 3.05 1.036 1.08.299 2.18.532 3.28.7-.26.261-.54.56-.84.896-.28.355-.55.719-.81 1.092-.25.392-.45.747-.62 1.064a23.44 23.44 0 0 1-3.3-1.092 23.9 23.9 0 0 1-3.06-1.484c-.97-.56-1.88-1.185-2.74-1.876a16.274 16.274 0 0 1-2.27-2.212l2.61-1.064Zm5.2-18.06 3.5.84c-.43.765-.86 1.512-1.31 2.24a32.99 32.99 0 0 1-1.23 1.82l-2.75-.84c.23-.373.45-.793.67-1.26.23-.485.43-.971.62-1.456.21-.504.37-.952.5-1.344Zm-3.69 5.992 3.55.84c-.39.653-.76 1.288-1.12 1.904-.35.597-.67 1.111-.95 1.54l-2.85-.784c.24-.523.49-1.101.75-1.736.26-.653.47-1.241.62-1.764Zm-14.17-5.096 2.88-.98c.41.579.83 1.251 1.24 2.016.41.747.71 1.391.89 1.932l-3.02 1.12c-.15-.56-.42-1.223-.81-1.988-.4-.765-.79-1.465-1.18-2.1Zm3.56 6.272 3.27-.532c.24.392.48.84.7 1.344.24.485.42.915.53 1.288l-3.41.588c-.1-.355-.24-.793-.45-1.316-.21-.523-.42-.98-.64-1.372Zm22.31-6.104h9.16v2.828h-9.16v-2.828Zm11.2 14.42h11.37v2.772h-11.37v-2.772Zm-11.59-5.852h10.42v2.912h-10.42v-2.912Zm4.56 1.204h3.17v11.62c0 .765-.09 1.381-.25 1.848-.15.467-.47.831-.96 1.092-.48.243-1.05.401-1.7.476-.66.075-1.41.112-2.27.112a9.831 9.831 0 0 0-.37-1.624 10.32 10.32 0 0 0-.61-1.568c.54.019 1.05.028 1.54.028h1.01c.16-.019.28-.047.33-.084.08-.056.11-.168.11-.336V279.26Zm17.34 4.648h3.38s-.01.159-.02.476c-.02.299-.05.56-.09.784-.13 1.624-.29 2.968-.47 4.032-.17 1.045-.36 1.885-.56 2.52-.21.616-.45 1.073-.73 1.372-.3.317-.62.541-.95.672-.32.149-.69.261-1.1.336-.33.037-.78.056-1.34.056-.56.019-1.17.019-1.82 0a6.66 6.66 0 0 0-.28-1.596c-.15-.579-.35-1.083-.62-1.512.51.056.97.093 1.4.112.45.019.79.028 1.01.028.23 0 .4-.019.53-.056.13-.056.27-.14.4-.252.16-.168.32-.485.47-.952.15-.485.29-1.185.42-2.1s.25-2.081.37-3.5v-.42Zm-5.94-2.52h3.33a36.717 36.717 0 0 1-.59 4.116 12.976 12.976 0 0 1-1.23 3.612c-.58 1.12-1.39 2.137-2.43 3.052-1.03.915-2.37 1.699-4.04 2.352-.18-.392-.46-.849-.84-1.372-.37-.504-.73-.915-1.09-1.232 1.46-.523 2.62-1.148 3.47-1.876.88-.747 1.54-1.568 1.99-2.464.47-.896.8-1.867.98-2.912.21-1.045.36-2.137.45-3.276Zm-14.92-6.076 2.1-2.156c.76.28 1.57.616 2.43 1.008.88.392 1.71.793 2.49 1.204.81.411 1.48.812 2.02 1.204l-2.27 2.408c-.48-.392-1.11-.803-1.87-1.232-.77-.448-1.59-.887-2.47-1.316a39.82 39.82 0 0 0-2.43-1.12Zm8.56 2.744h.42l.45-.14 2.05.644a53.266 53.266 0 0 1-.87 3.92c-.34 1.344-.69 2.492-1.07 3.444l-2.26-1.064c.26-.821.5-1.82.72-2.996.25-1.176.43-2.287.56-3.332v-.476Zm11.2-5.628 3.5.532c-.61 1.717-1.48 3.192-2.6 4.424a14.314 14.314 0 0 1-3.92 3.024c-1.51.803-3.19 1.465-5.04 1.988-.11-.243-.3-.541-.56-.896-.24-.355-.5-.7-.78-1.036a6.752 6.752 0 0 0-.73-.84c1.72-.355 3.26-.84 4.62-1.456 1.38-.616 2.54-1.391 3.47-2.324a8.18 8.18 0 0 0 2.04-3.416Zm-5.57-4.256 3.11.896c-.45.989-.99 1.96-1.62 2.912-.64.952-1.31 1.848-2.02 2.688a16.2 16.2 0 0 1-2.13 2.128c-.2-.187-.47-.392-.81-.616-.34-.243-.67-.476-1.01-.7-.33-.224-.63-.411-.89-.56 1.1-.784 2.12-1.773 3.08-2.968a17.892 17.892 0 0 0 2.29-3.78Zm.37 4.984c.65 1.045 1.5 1.997 2.54 2.856 1.07.859 2.29 1.596 3.67 2.212 1.4.597 2.91 1.055 4.54 1.372a6.68 6.68 0 0 0-.76.84c-.26.336-.51.681-.75 1.036-.25.355-.45.672-.62.952a19.898 19.898 0 0 1-4.73-1.82 18.073 18.073 0 0 1-3.84-2.828 16.109 16.109 0 0 1-2.83-3.752l2.78-.868Zm-11.34 5.908 2.15.812c-.35 1.232-.8 2.492-1.34 3.78a24.6 24.6 0 0 1-1.79 3.584c-.68 1.101-1.41 2.025-2.22 2.772-.15-.485-.38-1.036-.7-1.652-.29-.616-.57-1.148-.84-1.596.68-.597 1.31-1.316 1.91-2.156.61-.84 1.16-1.736 1.65-2.688.49-.971.88-1.923 1.18-2.856Zm10.89-8.008h10.47v2.772h-11.82l1.35-2.772Zm-6.39-1.568h.7l.54-.112 2.12 1.316c-.41.672-.91 1.363-1.51 2.072-.6.709-1.24 1.381-1.93 2.016-.67.616-1.34 1.157-2.02 1.624a8.92 8.92 0 0 0-1.09-.868c-.41-.299-.78-.551-1.12-.756.6-.411 1.17-.887 1.71-1.428.56-.56 1.06-1.129 1.51-1.708.47-.579.83-1.101 1.09-1.568v-.588Zm30.1 1.708h14.34v2.912h-14.34v-2.912Zm-.92 5.376h16.07v2.94h-16.07v-2.94Zm.06 5.32h15.82v2.94h-15.82v-2.94Zm6.27-13.72h3.33v10.304h-3.33v-10.304Zm3.55 11.2h3.31v11.592c0 .803-.1 1.428-.31 1.876-.21.467-.58.831-1.12 1.092-.54.243-1.2.392-1.99.448a28.2 28.2 0 0 1-2.71.112c-.08-.467-.22-1.008-.42-1.624-.21-.597-.42-1.111-.65-1.54l2.02.056h1.31c.21 0 .35-.028.42-.084.1-.075.14-.215.14-.42v-11.508Zm-8.7 7.364 2.66-1.54c.44.429.89.915 1.34 1.456.45.541.86 1.083 1.23 1.624.38.541.66 1.036.87 1.484l-2.91 1.708c-.15-.448-.4-.943-.76-1.484-.35-.56-.74-1.12-1.17-1.68-.41-.579-.83-1.101-1.26-1.568Zm-8.88-16.8h7.2v19.152h-7.2v-2.996h4.09v-13.16h-4.09v-2.996Zm.17 7.952h5.43v2.94h-5.43v-2.94Zm-1.77-7.952h3.11v21.644h-3.11v-21.644Zm36.4 15.372h7.65v2.38h-7.65v-2.38Zm-.19-4.172h9.43v10.78h-9.43v-2.492h6.27v-5.796h-6.27v-2.492Zm-1.4 0h3.05v12.208h-3.05v-12.208Zm-4.68-7.952h7v2.268h-7v-2.268Zm12.99 0h7.06v2.268h-7.06v-2.268Zm5.69-3.892h3.39v21.252c0 .896-.11 1.605-.31 2.128-.21.523-.59.924-1.15 1.204-.58.28-1.29.457-2.13.532-.82.075-1.84.112-3.05.112a7.992 7.992 0 0 0-.22-1.12c-.12-.411-.25-.831-.4-1.26-.15-.411-.3-.765-.47-1.064.5.037 1 .065 1.48.084h1.35c.41-.019.69-.028.84-.028.26 0 .43-.047.53-.14.09-.093.14-.261.14-.504v-21.196Zm-18.43 0h8.88v10.164h-8.88v-2.408h5.72v-5.32h-5.72v-2.436Zm20.22 0v2.436h-6.27v5.376h6.27v2.408h-9.46v-10.22h9.46Zm-22.15 0h3.33v25.228h-3.33v-25.228Zm38.11.056h14.42v3.108h-14.42v-3.108Zm-1.26 21.56h16.1v3.108h-16.1v-3.108Zm2.97-5.796 2.85-.672c.25.56.46 1.167.65 1.82.18.635.34 1.26.47 1.876.15.616.26 1.167.31 1.652l-3.02.784c-.04-.485-.12-1.045-.25-1.68-.12-.635-.26-1.279-.42-1.932a15.35 15.35 0 0 0-.59-1.848Zm7.89-.84 3.28.7a57.65 57.65 0 0 1-.76 2.072 78.12 78.12 0 0 1-.72 1.988c-.25.616-.48 1.157-.7 1.624l-2.83-.672c.22-.504.44-1.092.64-1.764.23-.672.43-1.353.62-2.044.2-.691.36-1.325.47-1.904Zm-5.46-6.72v3.388h6.11v-3.388h-6.11Zm-3.08-2.94h12.46v9.268h-12.46v-9.268Zm-7.5-1.428h3.19v5.292c0 1.176-.07 2.473-.22 3.892-.15 1.4-.43 2.828-.84 4.284a18.708 18.708 0 0 1-1.79 4.228 13.45 13.45 0 0 1-3.03 3.64 5.364 5.364 0 0 0-.67-.84c-.28-.317-.57-.616-.87-.896a6.74 6.74 0 0 0-.78-.644c1.14-.971 2.03-2.025 2.69-3.164a15.19 15.19 0 0 0 1.51-3.584c.33-1.232.55-2.436.64-3.612.11-1.195.17-2.305.17-3.332v-5.264Zm-2.13-1.596h8.46v3.052h-8.46v-3.052Zm-2.66 7.364h11.45v3.108h-11.45v-3.108Zm7.37 3.892c.18.168.43.429.75.784.32.336.66.719 1.04 1.148.39.429.76.868 1.12 1.316.35.429.68.821.98 1.176.3.336.51.579.64.728l-2.15 2.772c-.25-.448-.56-.943-.96-1.484-.37-.56-.76-1.129-1.17-1.708-.41-.579-.81-1.12-1.21-1.624a64.23 64.23 0 0 0-1-1.316l1.96-1.792Zm-4.93-14.616 3.16.616c-.2 1.176-.48 2.352-.84 3.528a29.257 29.257 0 0 1-1.15 3.276 17.867 17.867 0 0 1-1.31 2.632c-.23-.149-.52-.327-.87-.532a10.26 10.26 0 0 0-1.06-.56c-.36-.187-.67-.336-.93-.448.73-1.027 1.35-2.296 1.85-3.808a27.05 27.05 0 0 0 1.15-4.704Zm41.52-.084h3.42v4.004h-3.42v-4.004Zm2.94 9.072 3.33.532c-.24.915-.49 1.829-.75 2.744-.24.896-.47 1.661-.67 2.296l-2.72-.56c.11-.467.22-.989.34-1.568.11-.597.21-1.195.3-1.792.1-.616.15-1.167.17-1.652Zm-9.07-6.44h15.88v4.732h-3.11v-1.988h-9.77v2.38h-3v-5.124Zm2.97 4.144 2.83.7a46.497 46.497 0 0 1-1.29 3.64 29.993 29.993 0 0 1-1.68 3.584 16.148 16.148 0 0 1-2.07 2.996c-.19-.299-.45-.681-.79-1.148-.32-.467-.6-.84-.87-1.12.62-.747 1.18-1.615 1.68-2.604.51-.989.95-2.007 1.32-3.052.37-1.064.66-2.063.87-2.996Zm2.46 1.176h10.5v2.66h-10.5v-2.66Zm1.85 9.632h6.72v2.576h-6.72v-2.576Zm-.03 5.012h6.72v2.604h-6.72v-2.604Zm-1.34-9.968h9.55v13.524h-2.89v-10.92h-3.92v11.06h-2.74v-13.664Zm-11.82-12.544 2.86 1.008c-.38.728-.77 1.475-1.18 2.24-.39.747-.78 1.465-1.17 2.156-.38.691-.74 1.307-1.1 1.848l-2.21-.896c.34-.579.67-1.232 1.01-1.96.35-.728.69-1.484 1.01-2.268.33-.784.6-1.493.78-2.128Zm3.03 3.332 2.63 1.176c-.66 1.064-1.36 2.175-2.13 3.332a78.653 78.653 0 0 1-2.27 3.332 46.872 46.872 0 0 1-2.13 2.8l-1.9-1.036c.5-.635 1.02-1.344 1.54-2.128a52.36 52.36 0 0 0 1.57-2.492c.52-.877 1.01-1.745 1.45-2.604.47-.859.88-1.652 1.24-2.38Zm-7.34 3.108 1.62-2.184c.49.429.97.915 1.46 1.456.5.523.96 1.045 1.37 1.568.43.523.76.999.98 1.428l-1.76 2.492c-.21-.448-.52-.952-.93-1.512-.39-.56-.83-1.12-1.31-1.68-.49-.579-.96-1.101-1.43-1.568Zm6.72 3.276 2.21-.896c.47.915.89 1.895 1.26 2.94.39 1.045.65 1.951.76 2.716l-2.38.98a10.89 10.89 0 0 0-.37-1.736c-.18-.672-.41-1.353-.67-2.044-.24-.709-.51-1.363-.81-1.96Zm-6.8 2.548c1.19-.056 2.59-.131 4.2-.224 1.62-.112 3.27-.215 4.95-.308l.06 2.744c-1.55.131-3.11.252-4.68.364-1.55.112-2.95.224-4.2.336l-.33-2.912Zm7.02 4.704 2.22-.672c.33.803.63 1.68.89 2.632.26.933.44 1.745.53 2.436l-2.35.756c-.07-.709-.23-1.54-.47-2.492-.23-.971-.5-1.857-.82-2.66Zm-5.82-.532 2.58.448c-.13 1.344-.35 2.66-.65 3.948-.28 1.288-.62 2.38-1.03 3.276a5.332 5.332 0 0 0-.7-.364c-.28-.149-.57-.289-.87-.42-.3-.149-.56-.261-.79-.336.41-.84.73-1.848.96-3.024.22-1.176.39-2.352.5-3.528Zm2.86-2.66h2.82v12.516h-2.82v-12.516Zm7.89-1.176 2.58-2.548.14.056v16.128h-2.72v-13.636Zm-156.46 78.612v-9.76h20.24v9.76h-20.24Zm61.1-27.76c0 2.613-.53 4.88-1.6 6.8s-2.48 3.493-4.24 4.72c-1.76 1.227-3.73 2.133-5.92 2.72v.24c4.27.533 7.55 1.92 9.84 4.16s3.44 5.253 3.44 9.04c0 3.307-.77 6.293-2.32 8.96-1.55 2.613-3.95 4.693-7.2 6.24-3.2 1.493-7.36 2.24-12.48 2.24-3.2 0-6.05-.267-8.56-.8a36.474 36.474 0 0 1-7.2-2.32v-10.24a34.208 34.208 0 0 0 7.2 2.8c2.51.64 4.8.96 6.88.96 3.79 0 6.4-.747 7.84-2.24 1.49-1.493 2.24-3.6 2.24-6.32 0-1.6-.35-2.933-1.04-4-.69-1.12-1.92-1.947-3.68-2.48-1.71-.587-4.19-.88-7.44-.88h-3.68V342h3.76c3.04 0 5.39-.32 7.04-.96 1.65-.693 2.8-1.6 3.44-2.72.69-1.173 1.04-2.507 1.04-4 0-2.027-.56-3.6-1.68-4.72-1.12-1.173-2.83-1.76-5.12-1.76-1.65 0-3.2.24-4.64.72-1.44.427-2.72.96-3.84 1.6-1.07.64-1.95 1.253-2.64 1.84l-5.6-8.32a31.573 31.573 0 0 1 4.72-2.88c1.76-.853 3.73-1.52 5.92-2 2.24-.48 4.77-.72 7.6-.72 5.55 0 9.92 1.2 13.12 3.6 3.2 2.347 4.8 5.68 4.8 10Zm45.44 44.32h-38.24v-8.4l13.28-14.48c2.72-2.987 4.85-5.467 6.4-7.44 1.6-2.027 2.72-3.84 3.36-5.44a13.571 13.571 0 0 0 1.04-5.28c0-2.293-.56-4-1.68-5.12-1.07-1.12-2.46-1.68-4.16-1.68-1.87 0-3.74.507-5.6 1.52-1.82 1.013-3.82 2.453-6 4.32l-7.04-7.76c1.6-1.44 3.28-2.773 5.04-4 1.76-1.227 3.84-2.213 6.24-2.96 2.4-.8 5.28-1.2 8.64-1.2 3.57 0 6.66.693 9.28 2.08 2.61 1.333 4.61 3.173 6 5.52 1.44 2.293 2.16 4.907 2.16 7.84 0 2.4-.35 4.587-1.04 6.56-.7 1.973-1.71 3.92-3.04 5.84-1.28 1.92-2.83 3.92-4.64 6-1.82 2.027-3.84 4.32-6.08 6.88l-5.76 6.48-.08.56h21.92V376Zm17.59-57.92c4.27 0 7.57 1.573 9.92 4.72 2.35 3.093 3.52 7.467 3.52 13.12s-1.12 10.08-3.36 13.28c-2.19 3.147-5.55 4.72-10.08 4.72-2.72 0-5.07-.72-7.04-2.16-1.92-1.44-3.41-3.493-4.48-6.16-1.07-2.72-1.6-5.947-1.6-9.68 0-5.653 1.07-10.027 3.2-13.12 2.19-3.147 5.49-4.72 9.92-4.72Zm.16 8.16c-1.12 0-1.92.8-2.4 2.4-.48 1.6-.72 4.053-.72 7.36 0 3.253.24 5.707.72 7.36.48 1.653 1.25 2.48 2.32 2.48 1.17 0 2-.827 2.48-2.48s.72-4.107.72-7.36c0-3.307-.24-5.76-.72-7.36-.48-1.6-1.28-2.4-2.4-2.4Zm39.28-7.36L1465.92 376h-9.84l29.76-57.12h9.84Zm-.16 22c2.83 0 5.23.72 7.2 2.16 1.97 1.387 3.49 3.413 4.56 6.08 1.07 2.613 1.6 5.813 1.6 9.6 0 5.653-1.12 10.08-3.36 13.28-2.19 3.147-5.52 4.72-10 4.72-2.72 0-5.07-.72-7.04-2.16-1.97-1.44-3.49-3.493-4.56-6.16-1.07-2.72-1.6-5.947-1.6-9.68 0-5.653 1.09-10.027 3.28-13.12 2.24-3.147 5.55-4.72 9.92-4.72Zm.08 8.16c-1.12 0-1.92.8-2.4 2.4-.48 1.6-.72 4.053-.72 7.36 0 3.253.24 5.707.72 7.36.48 1.653 1.28 2.48 2.4 2.48 1.12 0 1.92-.8 2.4-2.4.53-1.653.8-4.133.8-7.44 0-3.307-.27-5.76-.8-7.36-.53-1.6-1.33-2.4-2.4-2.4Z"/>
    <path fill="#FCD34D" d="m1334.05 401.744 1.82.48a30.467 30.467 0 0 1-1.58 3.432 26.306 26.306 0 0 1-1.95 3.096c-.7.944-1.43 1.776-2.18 2.496-.11-.096-.27-.216-.46-.36-.17-.16-.37-.312-.57-.456-.2-.144-.37-.256-.53-.336a16.31 16.31 0 0 0 2.16-2.304c.69-.88 1.31-1.832 1.87-2.856.56-1.04 1.03-2.104 1.42-3.192Zm-.36 3h15.48v1.728h-16.37l.89-1.728Zm-1.18 5.424h16.1v1.704h-14.3v5.664h-1.8v-7.368Zm-3.96 6.48h21.74v1.728h-21.74v-1.728Zm11.14-10.992h1.84v18.264h-1.84v-18.264Zm20.06 10.896h7.27v1.392h-7.27v-1.392Zm-.1-3.624h8.19v8.76h-8.19v-1.416h6.51v-5.928h-6.51v-1.416Zm-.76 0h1.63v9.984h-1.63v-9.984Zm-4.44-6.648h6.67v1.32h-6.67v-1.32Zm11.06 0h6.82v1.32h-6.82v-1.32Zm6.05-3.408h1.82v18.672c0 .56-.08 1-.24 1.32-.14.32-.41.56-.81.72-.39.16-.92.256-1.59.288-.65.032-1.48.048-2.47.048a6.885 6.885 0 0 0-.14-.6 9.014 9.014 0 0 0-.24-.672 5.25 5.25 0 0 0-.24-.576c.48.016.94.024 1.39.024h1.97c.2-.016.35-.064.43-.144.08-.08.12-.224.12-.432v-18.648Zm-16.97 0h7.68v8.232h-7.68v-1.368h6v-5.472h-6v-1.392Zm17.88 0v1.392h-6.31v5.496h6.31v1.392h-8.02v-8.28h8.02Zm-18.91 0h1.8v21.072h-1.8v-21.072Zm25.1 19.128 7.03-15.216h-9.24v-1.92h11.5v1.632L1380.99 422h-2.33Zm22.95 0h-11.33v-1.752l4.49-4.536c.87-.864 1.59-1.632 2.19-2.304.59-.672 1.04-1.328 1.34-1.968.3-.656.46-1.368.46-2.136 0-.944-.28-1.656-.84-2.136-.56-.496-1.29-.744-2.19-.744-.83 0-1.57.144-2.21.432-.62.288-1.26.688-1.92 1.2l-1.12-1.416c.44-.384.93-.728 1.46-1.032a8.048 8.048 0 0 1 1.75-.72 7.663 7.663 0 0 1 2.04-.264c1.07 0 1.99.184 2.76.552a4.1 4.1 0 0 1 1.78 1.584c.43.672.65 1.48.65 2.424 0 .672-.11 1.312-.32 1.92-.2.592-.5 1.176-.88 1.752-.39.576-.85 1.16-1.4 1.752-.54.592-1.14 1.208-1.8 1.848l-3.57 3.528v.096h8.66V422Zm13.81-8.592c0 1.392-.1 2.632-.31 3.72s-.55 2.016-1.01 2.784a4.598 4.598 0 0 1-1.78 1.728c-.72.4-1.59.6-2.61.6-1.28 0-2.35-.352-3.19-1.056-.84-.704-1.46-1.712-1.88-3.024-.4-1.328-.6-2.912-.6-4.752 0-1.856.19-3.44.56-4.752.38-1.312.99-2.312 1.82-3 .83-.704 1.93-1.056 3.29-1.056 1.28 0 2.34.352 3.19 1.056.85.688 1.48 1.688 1.9 3 .41 1.312.62 2.896.62 4.752Zm-9.26 0c0 1.568.11 2.872.33 3.912.24 1.04.62 1.824 1.13 2.352.53.512 1.22.768 2.09.768.86 0 1.55-.256 2.06-.768.53-.512.91-1.288 1.15-2.328.24-1.056.36-2.368.36-3.936s-.12-2.864-.36-3.888c-.24-1.04-.62-1.816-1.15-2.328-.51-.528-1.2-.792-2.06-.792-.87 0-1.56.264-2.09.792-.51.512-.89 1.288-1.13 2.328-.22 1.024-.33 2.32-.33 3.888Zm20.55-8.712h12.02v1.608h-12.02v-1.608Zm-1.01 4.656h14.04v1.632h-14.04v-1.632Zm.12 4.344h13.68v1.608h-13.68v-1.608Zm5.93-11.88h1.77v8.544h-1.77v-8.544Zm3.16 8.904h1.78v11.064c0 .512-.07.904-.22 1.176-.14.288-.4.496-.76.624-.39.144-.89.232-1.52.264-.62.032-1.42.048-2.4.048a3.77 3.77 0 0 0-.24-.864c-.11-.32-.23-.6-.36-.84.74.016 1.41.024 2.02.024.61.016 1.01.016 1.2 0 .19 0 .32-.032.38-.096.08-.064.12-.184.12-.36v-11.04Zm-7.63 6.264 1.44-.84a21.042 21.042 0 0 1 2.35 2.808c.36.48.62.92.8 1.32l-1.54.936c-.18-.4-.43-.84-.77-1.32a17.41 17.41 0 0 0-1.08-1.488c-.4-.512-.8-.984-1.2-1.416Zm-7.99-13.584h6v15.792h-6v-1.632h4.3v-12.504h-4.3V403.4Zm.07 6.984h5.02v1.632h-5.02v-1.632Zm-.93-6.984h1.68v17.76h-1.68V403.4Zm30.52 13.152h7.28v1.392h-7.28v-1.392Zm-.09-3.624h8.18v8.76h-8.18v-1.416h6.5v-5.928h-6.5v-1.416Zm-.77 0h1.63v9.984h-1.63v-9.984Zm-4.44-6.648h6.67v1.32h-6.67v-1.32Zm11.06 0h6.82v1.32h-6.82v-1.32Zm6.05-3.408h1.83v18.672c0 .56-.08 1-.24 1.32-.15.32-.42.56-.82.72-.38.16-.91.256-1.58.288-.66.032-1.48.048-2.48.048a6.885 6.885 0 0 0-.14-.6 4.512 4.512 0 0 0-.24-.672 5.25 5.25 0 0 0-.24-.576c.48.016.94.024 1.39.024h1.97c.21-.016.35-.064.43-.144.08-.08.12-.224.12-.432v-18.648Zm-16.97 0h7.68v8.232h-7.68v-1.368h6v-5.472h-6v-1.392Zm17.88 0v1.392h-6.31v5.496h6.31v1.392h-8.01v-8.28h8.01Zm-18.91 0h1.8v21.072h-1.8v-21.072Zm36.6 1.824h1.75v13.248h-1.75v-13.248Zm5.43-2.4h1.77v19.224c0 .624-.09 1.088-.26 1.392-.16.304-.43.536-.82.696-.4.144-.95.232-1.65.264-.69.048-1.59.072-2.69.072a3.689 3.689 0 0 0-.17-.6 4.982 4.982 0 0 0-.24-.648 3.747 3.747 0 0 0-.26-.576c.86.016 1.63.024 2.3.024h1.37c.22-.016.38-.064.48-.144.11-.096.17-.256.17-.48v-19.224Zm-17.4 14.28h8.97v1.56h-8.97v-1.56Zm0-4.008h8.97v1.56h-8.97v-1.56Zm3.38-10.752h1.8v7.8h-1.8v-7.8Zm4.25 6.648h1.73v13.176c0 .48-.07.856-.2 1.128-.11.272-.33.488-.67.648-.33.144-.78.224-1.34.24-.56.032-1.3.048-2.21.048-.03-.24-.1-.52-.19-.84-.1-.32-.2-.592-.31-.816.6.016 1.16.024 1.68.024h1.05c.16-.016.27-.056.34-.12.08-.064.12-.176.12-.336v-13.152Zm-9-5.16 1.49-.528c.25.464.49.976.72 1.536.24.544.45 1.08.64 1.608.21.528.36 1 .46 1.416l-1.58.624c-.1-.416-.24-.896-.44-1.44-.17-.544-.37-1.096-.6-1.656-.22-.56-.45-1.08-.69-1.56Zm10.01-.744 1.82.48c-.35.848-.73 1.712-1.13 2.592-.4.88-.77 1.632-1.13 2.256l-1.51-.456c.24-.432.48-.928.72-1.488.24-.576.47-1.16.67-1.752.23-.592.41-1.136.56-1.632Zm-9.32 5.904h9.22v1.704h-7.49V423.8h-1.73v-15.336Zm40.32-5.592 1.01-.936c.59.352 1.19.776 1.8 1.272.63.48 1.11.92 1.44 1.32l-1.05 1.032c-.32-.4-.79-.848-1.4-1.344-.6-.512-1.2-.96-1.8-1.344Zm-7.53 9.624h4.75V419h-4.75v-1.416h3.43v-3.696h-3.43v-1.392Zm9.86-3.072 1.61.312c-.74 3.216-1.82 5.992-3.24 8.328a17.921 17.921 0 0 1-5.5 5.688 6.2 6.2 0 0 0-.36-.384c-.14-.16-.29-.312-.45-.456a4.325 4.325 0 0 0-.41-.36 15.435 15.435 0 0 0 5.35-5.304c1.36-2.208 2.36-4.816 3-7.824Zm-13.37-3.744h1.61v6.456c0 .88-.03 1.832-.09 2.856-.07 1.024-.2 2.072-.39 3.144a18.304 18.304 0 0 1-.79 3.096c-.34.992-.78 1.904-1.34 2.736-.1-.096-.24-.208-.41-.336a84.39 84.39 0 0 1-.51-.36 2.289 2.289 0 0 0-.45-.24c.7-1.056 1.22-2.216 1.56-3.48.35-1.28.57-2.56.67-3.84.1-1.296.14-2.488.14-3.576v-6.456Zm.99 0h14.37v1.632h-14.37v-1.632Zm1.63 3.528h5.76v1.392h-5.76v-1.392Zm.14 3.288h1.3v7.944h-1.3v-7.944Zm-8.11-9.144 1.03-1.296c.47.192.95.432 1.44.72.52.272 1 .552 1.44.84.45.288.82.568 1.11.84l-1.08 1.464c-.27-.272-.63-.56-1.08-.864-.43-.304-.9-.608-1.39-.912-.5-.304-.99-.568-1.47-.792Zm-1.13 6.504.99-1.32c.48.176.97.392 1.46.648.51.256.99.52 1.44.792.47.272.84.536 1.13.792l-1.06 1.488a7.316 7.316 0 0 0-1.08-.816 13.2 13.2 0 0 0-1.41-.864c-.5-.288-.99-.528-1.47-.72Zm.36 12.672c.34-.656.71-1.424 1.11-2.304.4-.896.8-1.84 1.2-2.832.4-.992.76-1.96 1.08-2.904l1.44.96c-.29.864-.62 1.776-.99 2.736-.36.944-.74 1.872-1.12 2.784-.37.896-.74 1.728-1.11 2.496l-1.61-.936Zm14.79-20.448h1.68c.03 2.096.1 4.112.21 6.048.13 1.936.29 3.736.48 5.4.21 1.648.45 3.088.72 4.32.29 1.232.6 2.2.92 2.904.33.688.69 1.04 1.08 1.056.22.016.41-.304.57-.96.16-.656.28-1.576.36-2.76.1.112.23.232.39.36.17.112.35.216.52.312.18.096.32.168.41.216-.16 1.296-.36 2.304-.6 3.024-.24.72-.5 1.216-.79 1.488-.27.288-.56.432-.86.432-.72-.032-1.36-.416-1.9-1.152-.53-.72-.98-1.744-1.34-3.072-.37-1.328-.68-2.896-.94-4.704-.24-1.824-.44-3.824-.6-6-.14-2.192-.25-4.496-.31-6.912Z"/>
    <path fill="#1F2937" stroke="#374151" stroke-width="2" d="M935 500H315c-8.284 0-15 6.716-15 15v370c0 8.284 6.716 15 15 15h620c8.284 0 15-6.716 15-15V515c0-8.284-6.716-15-15-15Z"/>
    <path fill="#F3F4F6" d="M576.56 519.544h13.972v3.276H576.56v-3.276Zm.028 6.692h14.084v3.192h-14.084v-3.192Zm-.168 6.608h14.056v3.276H576.42v-3.276Zm-2.184-13.3h3.472v9.268c0 1.213-.075 2.52-.224 3.92a26.908 26.908 0 0 1-.756 4.256 16.906 16.906 0 0 1-1.652 4.088 12.605 12.605 0 0 1-2.884 3.444 6.365 6.365 0 0 0-.728-.84 11.746 11.746 0 0 0-.98-.924 5.533 5.533 0 0 0-.896-.672c1.064-.896 1.904-1.885 2.52-2.968a13.45 13.45 0 0 0 1.4-3.416c.317-1.176.513-2.352.588-3.528.093-1.176.14-2.305.14-3.388v-9.24Zm14.728 0h3.584v20.692c0 1.008-.14 1.783-.42 2.324-.261.541-.719.952-1.372 1.232-.672.299-1.512.476-2.52.532-1.008.075-2.24.112-3.696.112a10.58 10.58 0 0 0-.336-1.148A18.025 18.025 0 0 0 583.7 542a8.432 8.432 0 0 0-.56-1.092 70.25 70.25 0 0 0 1.988.084h2.968c.317 0 .541-.056.672-.168.131-.131.196-.345.196-.644v-20.636Zm19.936-1.232 3.5.644a41.847 41.847 0 0 1-1.344 4.816 32.535 32.535 0 0 1-1.792 4.312c-.653 1.325-1.363 2.483-2.128 3.472a6.007 6.007 0 0 0-.952-.616 14.94 14.94 0 0 0-1.204-.672 11.168 11.168 0 0 0-1.036-.532c.784-.859 1.493-1.895 2.128-3.108a24.406 24.406 0 0 0 1.68-3.948 31.362 31.362 0 0 0 1.148-4.368Zm5.18 7.868h1.764v3.08c0 .616.075 1.335.224 2.156.149.821.411 1.689.784 2.604.392.896.905 1.801 1.54 2.716.653.915 1.475 1.783 2.464 2.604.989.803 2.184 1.503 3.584 2.1-.224.261-.476.579-.756.952-.261.392-.523.765-.784 1.12a64.67 64.67 0 0 0-.644 1.008 12.567 12.567 0 0 1-2.744-1.68 16.101 16.101 0 0 1-2.156-2.044 18.667 18.667 0 0 1-1.652-2.184 16.538 16.538 0 0 1-1.092-2.128 12.453 12.453 0 0 1-.56-1.764c-.131.504-.355 1.092-.672 1.764-.299.653-.7 1.344-1.204 2.072a17.116 17.116 0 0 1-1.82 2.184 16.58 16.58 0 0 1-2.436 2.044 17.41 17.41 0 0 1-3.08 1.736 5.612 5.612 0 0 0-.56-.952 38.703 38.703 0 0 0-.756-1.064 8.813 8.813 0 0 0-.7-.812c1.512-.597 2.809-1.307 3.892-2.128 1.083-.821 1.979-1.699 2.688-2.632.728-.933 1.297-1.867 1.708-2.8.429-.933.728-1.811.896-2.632.168-.84.252-1.577.252-2.212v-3.108h1.82Zm-16.296 11.508a83.91 83.91 0 0 0 1.82-1.82c.709-.728 1.456-1.503 2.24-2.324.784-.84 1.559-1.68 2.324-2.52l1.904 2.884a82.601 82.601 0 0 1-3.08 3.472 191.748 191.748 0 0 1-3.052 3.192l-2.156-2.884Zm.784-15.26 2.38-2.492c.579.373 1.185.793 1.82 1.26.653.448 1.26.915 1.82 1.4.579.467 1.045.905 1.4 1.316l-2.52 2.772c-.317-.411-.756-.868-1.316-1.372a29.408 29.408 0 0 0-1.764-1.512 24.397 24.397 0 0 0-1.82-1.372Zm11.536.616h11.508v3.36h-13.16l1.652-3.36Zm10.388 0h.476l.644-.168 2.492 1.456a27.512 27.512 0 0 1-.952 2.8c-.355.933-.728 1.82-1.12 2.66-.392.84-.784 1.596-1.176 2.268-.224-.131-.513-.28-.868-.448a17.678 17.678 0 0 0-1.036-.532 10.315 10.315 0 0 0-.924-.392c.299-.579.607-1.26.924-2.044a27.58 27.58 0 0 0 .896-2.464c.28-.859.495-1.652.644-2.38v-.756Zm17.752 5.88h12.572v2.8h-12.572v-2.8Zm0 5.516h12.572v2.828h-12.572v-2.828Zm-.364 5.628h14.196v3.024H637.88v-3.024Zm5.46-15.092h3.108v15.988h-3.108v-15.988Zm1.792-6.72 3.556.728a105.092 105.092 0 0 1-1.596 3.696 46.965 46.965 0 0 1-1.54 3.08l-2.856-.728c.317-.616.625-1.316.924-2.1.299-.784.579-1.577.84-2.38.28-.821.504-1.587.672-2.296Zm-6.412-.112 3.22.812a37.815 37.815 0 0 1-1.652 4.536 32.4 32.4 0 0 1-2.128 4.172 22.472 22.472 0 0 1-2.52 3.416 9.882 9.882 0 0 0-.588-.924 41.471 41.471 0 0 0-.812-1.12c-.28-.392-.523-.7-.728-.924 1.157-1.176 2.184-2.641 3.08-4.396a29.113 29.113 0 0 0 2.128-5.572Zm1.372 5.18h11.452v2.94h-11.452v18.228h-3.248v-19.488l1.652-1.68h1.596Zm-14.504 9.212c1.176-.243 2.576-.56 4.2-.952 1.643-.411 3.295-.831 4.956-1.26l.392 2.996c-1.512.429-3.043.868-4.592 1.316l-4.256 1.176-.7-3.276Zm.56-9.016h8.652v3.08h-8.652v-3.08Zm3.276-5.292h3.22v22.512c0 .821-.084 1.475-.252 1.96a2.027 2.027 0 0 1-.924 1.12c-.467.28-1.045.457-1.736.532-.672.093-1.493.14-2.464.14-.037-.448-.149-.989-.336-1.624a11.074 11.074 0 0 0-.616-1.652c.56.019 1.083.037 1.568.056.504 0 .849-.009 1.036-.028.187 0 .317-.037.392-.112.075-.075.112-.215.112-.42v-22.484Zm40.992 0 3.248.616a20.388 20.388 0 0 1-3.304 4.284c-1.325 1.325-2.968 2.52-4.928 3.584a6.333 6.333 0 0 0-.588-.84 6.362 6.362 0 0 0-.756-.84 4.259 4.259 0 0 0-.728-.644c1.773-.821 3.239-1.783 4.396-2.884s2.044-2.193 2.66-3.276Zm.028 2.436h6.384v2.688h-8.288l1.904-2.688Zm5.18 0h.588l.56-.112 2.128.952a15.578 15.578 0 0 1-2.128 3.976 16.153 16.153 0 0 1-2.996 3.08 20.706 20.706 0 0 1-3.696 2.268 27.414 27.414 0 0 1-4.2 1.596 8.874 8.874 0 0 0-.756-1.4c-.336-.541-.663-.961-.98-1.26a24.197 24.197 0 0 0 3.78-1.232 17.83 17.83 0 0 0 3.304-1.876 13.44 13.44 0 0 0 2.66-2.464 11.025 11.025 0 0 0 1.736-3.052v-.476Zm-8.4 4.704 2.1-1.652a18.854 18.854 0 0 1 2.548 1.82c.392.317.719.625.98.924l-2.212 1.82a7.143 7.143 0 0 0-.924-.924c-.373-.355-.784-.7-1.232-1.036a16.965 16.965 0 0 0-1.26-.952Zm4.536 3.752 3.248.588c-.877 1.624-2.016 3.155-3.416 4.592-1.4 1.437-3.145 2.735-5.236 3.892a6.333 6.333 0 0 0-.588-.84 10.555 10.555 0 0 0-.728-.868 3.73 3.73 0 0 0-.756-.644c1.269-.597 2.389-1.26 3.36-1.988.971-.747 1.792-1.521 2.464-2.324.691-.803 1.241-1.605 1.652-2.408Zm.112 2.464h5.992v2.744h-7.896l1.904-2.744Zm4.872 0h.672l.588-.112 2.156.868c-.56 1.829-1.316 3.425-2.268 4.788a15.102 15.102 0 0 1-3.332 3.472 18.795 18.795 0 0 1-4.284 2.408 30.347 30.347 0 0 1-5.012 1.596c-.149-.429-.383-.933-.7-1.512-.317-.56-.635-1.008-.952-1.344a25.27 25.27 0 0 0 4.508-1.204 17.453 17.453 0 0 0 3.808-1.96 12.486 12.486 0 0 0 2.94-2.828 11.91 11.91 0 0 0 1.876-3.696v-.476Zm-8.764 5.18 2.24-1.876c.485.261.989.569 1.512.924.523.336 1.008.691 1.456 1.064.448.355.812.7 1.092 1.036l-2.38 2.016a8.99 8.99 0 0 0-1.036-1.036 17.558 17.558 0 0 0-2.884-2.128Zm-9.8-15.932h3.248v23.66h-3.248v-23.66Zm-4.032 5.264h10.276v3.108h-10.276v-3.108Zm4.2 1.26 1.96.84a41.923 41.923 0 0 1-.952 3.136 51.579 51.579 0 0 1-1.232 3.22 36.525 36.525 0 0 1-1.428 2.968 17.25 17.25 0 0 1-1.568 2.436 11.673 11.673 0 0 0-.728-1.624 19.14 19.14 0 0 0-.84-1.568c.485-.56.961-1.213 1.428-1.96a27.46 27.46 0 0 0 1.372-2.436 31.223 31.223 0 0 0 1.988-5.012Zm4.172-8.848 2.268 2.576c-.952.355-1.997.681-3.136.98a50.21 50.21 0 0 1-3.5.784 95.828 95.828 0 0 1-3.388.532 8.071 8.071 0 0 0-.392-1.288 11.02 11.02 0 0 0-.56-1.288 70.371 70.371 0 0 0 3.136-.588c1.083-.243 2.1-.513 3.052-.812a27.052 27.052 0 0 0 2.52-.896Zm-1.148 11.48c.168.131.42.373.756.728.355.336.728.709 1.12 1.12.411.411.775.793 1.092 1.148.317.336.551.579.7.728l-1.932 2.66a12.021 12.021 0 0 0-.672-1.204 32.17 32.17 0 0 0-.868-1.4 29.224 29.224 0 0 0-.896-1.372 16.1 16.1 0 0 0-.784-1.092l1.484-1.316Z"/>
    <path stroke="#6B7280" stroke-width="2" d="M380 850h500M380 580v270"/>
    <path stroke="#10B981" stroke-width="4" d="m420 820 80-40 80-60 80-60 80-40 80-20"/>
    <path fill="#10B981" d="M420 826a6 6 0 1 0 0-12 6 6 0 0 0 0 12Zm80-40a6 6 0 1 0 0-12 6 6 0 0 0 0 12Zm80-60a6 6 0 1 0 0-12 6 6 0 0 0 0 12Zm80-60a6 6 0 1 0 0-12 6 6 0 0 0 0 12Zm80-40a6 6 0 1 0 0-12 6 6 0 0 0 0 12Zm80-20a6 6 0 1 0 0-12 6 6 0 0 0 0 12Z"/>
    <path fill="#666" d="M411.377 881h-1.72v-10.96l.04-.74c.014-.24.027-.487.04-.74a9.591 9.591 0 0 1-.58.54l-.66.56-1.52 1.24-.92-1.18 3.86-3h1.46V881Zm9.426-15.74h10.42v1.46h-10.42v-1.46Zm0 4.82h10.52v1.42h-10.52v-1.42Zm-.16 4.82h10.58v1.46h-10.58v-1.46Zm-.78-9.64h1.52v6.16c0 .867-.047 1.793-.14 2.78a17.31 17.31 0 0 1-.52 3c-.267 1-.667 1.967-1.2 2.9a9.308 9.308 0 0 1-2.08 2.52 2.344 2.344 0 0 0-.32-.38 6.4 6.4 0 0 0-.42-.42 2.831 2.831 0 0 0-.4-.28c.813-.72 1.453-1.493 1.92-2.32.48-.84.833-1.707 1.06-2.6.24-.893.393-1.78.46-2.66.08-.893.12-1.74.12-2.54v-6.16Zm10.7 0h1.58v15.12c0 .533-.08.94-.24 1.22-.16.28-.427.487-.8.62-.387.133-.927.213-1.62.24-.694.04-1.574.06-2.64.06a2.31 2.31 0 0 0-.16-.52 6.892 6.892 0 0 0-.24-.58 3.962 3.962 0 0 0-.24-.48l1.6.04h1.34c.386-.013.653-.02.8-.02.24-.013.4-.06.48-.14.093-.093.14-.247.14-.46v-15.1ZM494.677 881h-9.44v-1.46l3.74-3.78c.72-.72 1.327-1.36 1.82-1.92.494-.56.867-1.107 1.12-1.64.254-.547.38-1.14.38-1.78 0-.787-.233-1.38-.7-1.78-.466-.413-1.073-.62-1.82-.62-.693 0-1.306.12-1.84.36-.52.24-1.053.573-1.6 1l-.94-1.18a8.02 8.02 0 0 1 1.22-.86c.454-.253.94-.453 1.46-.6.534-.147 1.1-.22 1.7-.22.894 0 1.66.153 2.3.46.64.307 1.134.747 1.48 1.32.36.56.54 1.233.54 2.02 0 .56-.086 1.093-.26 1.6a6.54 6.54 0 0 1-.74 1.46c-.32.48-.706.967-1.16 1.46a39.038 39.038 0 0 1-1.5 1.54l-2.98 2.94v.08h7.22v1.6Zm6.126-15.74h10.42v1.46h-10.42v-1.46Zm0 4.82h10.52v1.42h-10.52v-1.42Zm-.16 4.82h10.58v1.46h-10.58v-1.46Zm-.78-9.64h1.52v6.16c0 .867-.047 1.793-.14 2.78a17.31 17.31 0 0 1-.52 3c-.267 1-.667 1.967-1.2 2.9a9.308 9.308 0 0 1-2.08 2.52 2.344 2.344 0 0 0-.32-.38 6.4 6.4 0 0 0-.42-.42 2.831 2.831 0 0 0-.4-.28c.813-.72 1.453-1.493 1.92-2.32.48-.84.833-1.707 1.06-2.6.24-.893.393-1.78.46-2.66.08-.893.12-1.74.12-2.54v-6.16Zm10.7 0h1.58v15.12c0 .533-.08.94-.24 1.22-.16.28-.427.487-.8.62-.387.133-.927.213-1.62.24-.694.04-1.574.06-2.64.06a2.31 2.31 0 0 0-.16-.52 6.892 6.892 0 0 0-.24-.58 3.962 3.962 0 0 0-.24-.48l1.6.04h1.34c.386-.013.653-.02.8-.02.24-.013.4-.06.48-.14.093-.093.14-.247.14-.46v-15.1Zm63.574 4.8c0 .64-.12 1.193-.36 1.66-.24.467-.586.847-1.04 1.14-.44.293-.96.5-1.56.62v.08c1.147.133 2 .493 2.56 1.08.56.587.84 1.353.84 2.3 0 .827-.193 1.567-.58 2.22-.386.64-.986 1.14-1.8 1.5-.8.36-1.833.54-3.1.54-.746 0-1.44-.06-2.08-.18a6.496 6.496 0 0 1-1.84-.6v-1.64a9.84 9.84 0 0 0 1.94.7c.694.16 1.36.24 2 .24 1.28 0 2.2-.247 2.76-.74.574-.507.86-1.2.86-2.08 0-.6-.16-1.08-.48-1.44-.306-.373-.76-.647-1.36-.82-.6-.173-1.32-.26-2.16-.26h-1.38v-1.5h1.4c.787 0 1.44-.113 1.96-.34.534-.227.934-.54 1.2-.94.28-.413.42-.887.42-1.42 0-.693-.233-1.227-.7-1.6-.466-.387-1.1-.58-1.9-.58-.506 0-.966.053-1.38.16-.413.093-.8.233-1.16.42-.346.173-.7.38-1.06.62l-.88-1.2c.347-.267.74-.513 1.18-.74a7.101 7.101 0 0 1 1.5-.54c.547-.133 1.14-.2 1.78-.2 1.494 0 2.6.333 3.32 1 .734.667 1.1 1.513 1.1 2.54Zm6.666-4.8h10.42v1.46h-10.42v-1.46Zm0 4.82h10.52v1.42h-10.52v-1.42Zm-.16 4.82h10.58v1.46h-10.58v-1.46Zm-.78-9.64h1.52v6.16c0 .867-.047 1.793-.14 2.78a17.31 17.31 0 0 1-.52 3c-.267 1-.667 1.967-1.2 2.9a9.308 9.308 0 0 1-2.08 2.52 2.344 2.344 0 0 0-.32-.38 6.4 6.4 0 0 0-.42-.42 2.831 2.831 0 0 0-.4-.28c.813-.72 1.453-1.493 1.92-2.32.48-.84.833-1.707 1.06-2.6.24-.893.393-1.78.46-2.66.08-.893.12-1.74.12-2.54v-6.16Zm10.7 0h1.58v15.12c0 .533-.08.94-.24 1.22-.16.28-.427.487-.8.62-.387.133-.927.213-1.62.24-.694.04-1.574.06-2.64.06a2.31 2.31 0 0 0-.16-.52 6.892 6.892 0 0 0-.24-.58 3.962 3.962 0 0 0-.24-.48l1.6.04h1.34c.386-.013.653-.02.8-.02.24-.013.4-.06.48-.14.093-.093.14-.247.14-.46v-15.1Zm64.754 12.5h-2.08V881h-1.7v-3.24h-6.84v-1.5l6.72-9.62h1.82v9.54h2.08v1.58Zm-3.78-6.08v-.94l.04-.82c.014-.253.02-.493.02-.72l.04-.68h-.08c-.106.253-.24.527-.4.82a6.62 6.62 0 0 1-.46.74l-4.28 6.1h5.12v-4.5Zm9.266-6.42h10.42v1.46h-10.42v-1.46Zm0 4.82h10.52v1.42h-10.52v-1.42Zm-.16 4.82h10.58v1.46h-10.58v-1.46Zm-.78-9.64h1.52v6.16c0 .867-.047 1.793-.14 2.78a17.31 17.31 0 0 1-.52 3c-.267 1-.667 1.967-1.2 2.9a9.308 9.308 0 0 1-2.08 2.52 2.344 2.344 0 0 0-.32-.38 6.4 6.4 0 0 0-.42-.42 2.831 2.831 0 0 0-.4-.28c.813-.72 1.453-1.493 1.92-2.32.48-.84.833-1.707 1.06-2.6.24-.893.393-1.78.46-2.66.08-.893.12-1.74.12-2.54v-6.16Zm10.7 0h1.58v15.12c0 .533-.08.94-.24 1.22-.16.28-.427.487-.8.62-.387.133-.927.213-1.62.24-.694.04-1.574.06-2.64.06a2.31 2.31 0 0 0-.16-.52 6.892 6.892 0 0 0-.24-.58 3.962 3.962 0 0 0-.24-.48l1.6.04h1.34c.386-.013.653-.02.8-.02.24-.013.4-.06.48-.14.093-.093.14-.247.14-.46v-15.1Zm59.214 6.98c.974 0 1.82.167 2.54.5.72.333 1.274.813 1.66 1.44.4.613.6 1.367.6 2.26 0 .987-.213 1.84-.64 2.56-.426.707-1.04 1.253-1.84 1.64-.786.373-1.74.56-2.86.56a10.42 10.42 0 0 1-2.08-.2c-.64-.133-1.18-.327-1.62-.58v-1.66c.48.293 1.06.527 1.74.7a8.82 8.82 0 0 0 1.98.24c.707 0 1.32-.107 1.84-.32a2.683 2.683 0 0 0 1.24-1.02c.294-.467.44-1.047.44-1.74 0-.933-.286-1.647-.86-2.14-.573-.507-1.48-.76-2.72-.76-.373 0-.8.033-1.28.1s-.866.133-1.16.2l-.88-.56.54-6.74h7.16v1.6h-5.66l-.34 4.14c.227-.04.534-.087.92-.14.387-.053.814-.08 1.28-.08Zm11.026-6.98h10.42v1.46h-10.42v-1.46Zm0 4.82h10.52v1.42h-10.52v-1.42Zm-.16 4.82h10.58v1.46h-10.58v-1.46Zm-.78-9.64h1.52v6.16c0 .867-.047 1.793-.14 2.78a17.31 17.31 0 0 1-.52 3c-.267 1-.667 1.967-1.2 2.9a9.308 9.308 0 0 1-2.08 2.52 2.344 2.344 0 0 0-.32-.38 6.4 6.4 0 0 0-.42-.42 2.831 2.831 0 0 0-.4-.28c.813-.72 1.453-1.493 1.92-2.32.48-.84.833-1.707 1.06-2.6.24-.893.393-1.78.46-2.66.08-.893.12-1.74.12-2.54v-6.16Zm10.7 0h1.58v15.12c0 .533-.08.94-.24 1.22-.16.28-.427.487-.8.62-.387.133-.927.213-1.62.24-.694.04-1.574.06-2.64.06a2.31 2.31 0 0 0-.16-.52 6.892 6.892 0 0 0-.24-.58 3.962 3.962 0 0 0-.24-.48l1.6.04h1.34c.386-.013.653-.02.8-.02.24-.013.4-.06.48-.14.093-.093.14-.247.14-.46v-15.1Zm54.814 9.64c0-.827.054-1.64.16-2.44.12-.8.32-1.553.6-2.26.28-.72.667-1.353 1.16-1.9a4.944 4.944 0 0 1 1.86-1.3c.76-.32 1.68-.48 2.76-.48.28 0 .587.013.92.04.347.027.627.073.84.14v1.5c-.24-.08-.513-.14-.82-.18a6.647 6.647 0 0 0-.9-.06c-.92 0-1.686.153-2.3.46-.613.307-1.1.727-1.46 1.26a5.709 5.709 0 0 0-.76 1.84c-.16.693-.26 1.433-.3 2.22h.12c.2-.32.454-.607.76-.86a3.513 3.513 0 0 1 1.1-.6c.44-.147.947-.22 1.52-.22.827 0 1.547.173 2.16.52a3.47 3.47 0 0 1 1.46 1.48c.347.64.52 1.42.52 2.34 0 .987-.186 1.84-.56 2.56-.373.72-.9 1.273-1.58 1.66-.666.387-1.466.58-2.4.58-.68 0-1.313-.127-1.9-.38a4.352 4.352 0 0 1-1.56-1.16c-.44-.52-.786-1.173-1.04-1.96-.24-.8-.36-1.733-.36-2.8Zm4.84 4.82c.84 0 1.52-.267 2.04-.8.52-.547.78-1.387.78-2.52 0-.907-.233-1.627-.7-2.16-.453-.533-1.14-.8-2.06-.8-.626 0-1.173.133-1.64.4-.466.253-.833.58-1.1.98-.253.4-.38.813-.38 1.24 0 .44.06.873.18 1.3.134.427.327.82.58 1.18.267.36.587.647.96.86.387.213.834.32 1.34.32Zm10.586-14.46h10.42v1.46h-10.42v-1.46Zm0 4.82h10.52v1.42h-10.52v-1.42Zm-.16 4.82h10.58v1.46h-10.58v-1.46Zm-.78-9.64h1.52v6.16c0 .867-.047 1.793-.14 2.78a17.31 17.31 0 0 1-.52 3c-.267 1-.667 1.967-1.2 2.9a9.308 9.308 0 0 1-2.08 2.52 2.344 2.344 0 0 0-.32-.38 6.4 6.4 0 0 0-.42-.42 2.831 2.831 0 0 0-.4-.28c.813-.72 1.453-1.493 1.92-2.32.48-.84.833-1.707 1.06-2.6.24-.893.393-1.78.46-2.66.08-.893.12-1.74.12-2.54v-6.16Zm10.7 0h1.58v15.12c0 .533-.08.94-.24 1.22-.16.28-.427.487-.8.62-.387.133-.927.213-1.62.24-.694.04-1.574.06-2.64.06a2.31 2.31 0 0 0-.16-.52 6.892 6.892 0 0 0-.24-.58 3.962 3.962 0 0 0-.24-.48l1.6.04h1.34c.386-.013.653-.02.8-.02.24-.013.4-.06.48-.14.093-.093.14-.247.14-.46v-15.1Z"/>
    <path fill="#1F2937" stroke="#374151" stroke-width="2" d="M1605 500h-570c-8.28 0-15 6.716-15 15v370c0 8.284 6.72 15 15 15h570c8.28 0 15-6.716 15-15V515c0-8.284-6.72-15-15-15Z"/>
    <path fill="#F3F4F6" d="M1237.54 519.824h8.18v3.136h-4.9v21.56h-3.28v-24.696Zm-14.72 1.092h13.52v2.912h-13.52v-2.912Zm-.62 7.812h14.5v3.052h-14.5v-3.052Zm5.74-10.304h3.28v4.312h-3.28v-4.312Zm-3.53 6.16 2.77-.56c.28.616.53 1.307.73 2.072.21.765.35 1.437.42 2.016l-2.94.672c-.02-.56-.12-1.232-.31-2.016a14.44 14.44 0 0 0-.67-2.184Zm7.53-.672 3.14.672-.9 2.296c-.28.747-.54 1.391-.78 1.932l-2.63-.672c.15-.392.3-.831.45-1.316.15-.504.28-1.008.39-1.512.13-.523.24-.989.33-1.4Zm-6.97 16.324h8.65v2.912h-8.65v-2.912Zm-1.15-6.608h11.62v10.808h-3.27v-7.896h-5.24v8.008h-3.11v-10.92Zm21.03-13.804h.65l.5-.14 2.46 1.54c-.5 1.363-1.05 2.8-1.65 4.312a81.67 81.67 0 0 1-1.68 4.032c.79.84 1.37 1.652 1.77 2.436.41.765.68 1.493.81 2.184.15.691.22 1.344.22 1.96 0 1.045-.12 1.913-.36 2.604-.24.691-.64 1.223-1.18 1.596-.52.373-1.16.607-1.93.7-.32.037-.67.065-1.06.084h-1.15a8.957 8.957 0 0 0-.25-1.652 5.753 5.753 0 0 0-.59-1.652c.32.037.6.065.87.084.26 0 .5-.009.72-.028.19-.019.37-.047.54-.084.18-.037.34-.103.47-.196.24-.149.41-.373.51-.672.11-.317.16-.719.16-1.204 0-.784-.19-1.661-.58-2.632-.38-.989-1.13-2.025-2.27-3.108.28-.672.56-1.419.84-2.24.3-.84.58-1.68.84-2.52.28-.859.53-1.661.75-2.408.25-.747.44-1.363.59-1.848v-1.148Zm8.29 3.696h7v2.38h-7v-2.38Zm12.94 0h7.05v2.38h-7.05v-2.38Zm5.71-4.2h3.41v21.112c0 .971-.12 1.717-.36 2.24-.24.541-.66.943-1.26 1.204-.62.28-1.4.448-2.35.504-.95.075-2.11.112-3.47.112a7.03 7.03 0 0 0-.26-1.12c-.13-.411-.28-.831-.44-1.26a5.494 5.494 0 0 0-.51-1.064c.6.037 1.21.065 1.82.084h2.63c.3 0 .51-.056.62-.168.11-.112.17-.299.17-.56V519.32Zm-18.4 0h8.82v10.892h-8.82v-2.716h5.69v-5.46h-5.69v-2.716Zm20.22 0v2.716h-6.27v5.544h6.27v2.688h-9.47V519.32h9.47Zm-22.12 0h3.33v25.2h-3.33v-25.2Zm41.8 2.296h3.25v15.848h-3.25v-15.848Zm6.61-2.828h3.33v21.644c0 .989-.12 1.745-.36 2.268-.23.523-.63.924-1.21 1.204-.57.261-1.33.429-2.26.504-.94.093-2.05.14-3.34.14-.03-.336-.12-.719-.25-1.148-.13-.411-.28-.831-.45-1.26-.15-.411-.3-.765-.47-1.064.91.019 1.78.037 2.6.056h1.65c.27 0 .45-.047.56-.14.13-.112.2-.299.2-.56v-21.644Zm-16.55 12.796h6.44v2.94h-6.44v-2.94Zm4.96 0h3.11l-.03.252v.98c-.1 2.259-.2 4.107-.31 5.544-.11 1.419-.25 2.511-.42 3.276-.15.747-.35 1.288-.62 1.624-.28.355-.58.607-.92.756a4.22 4.22 0 0 1-1.18.308c-.37.056-.86.093-1.48.112-.62.019-1.25.009-1.9-.028-.02-.448-.12-.952-.28-1.512a6.29 6.29 0 0 0-.62-1.4c.58.056 1.12.093 1.62.112.53.019.91.028 1.15.028.21 0 .38-.019.51-.056.15-.056.29-.159.42-.308.16-.187.3-.597.42-1.232.11-.653.21-1.615.3-2.884.1-1.288.17-2.977.23-5.068v-.504Zm-5.66-9.1v3.836h5.27v-3.836h-5.27Zm-3.05-2.968h11.56v9.772h-11.56v-9.772Zm2.86 8.876h3.27a69.635 69.635 0 0 1-.36 4.48 28.714 28.714 0 0 1-.84 4.368c-.38 1.4-.92 2.725-1.63 3.976a12.065 12.065 0 0 1-2.74 3.304c-.24-.411-.58-.849-1.01-1.316-.43-.467-.85-.84-1.26-1.12a9.154 9.154 0 0 0 2.38-2.8 14.255 14.255 0 0 0 1.32-3.416c.3-1.213.5-2.455.61-3.724.12-1.269.2-2.52.26-3.752ZM1318.97 542l-1.15-4.76h-6.47l-1.17 4.76h-4.93l6.38-20.076h5.83l6.41 20.076h-4.9Zm-3.45-12.964c-.11-.392-.22-.803-.33-1.232-.11-.429-.23-.877-.34-1.344-.09-.467-.18-.943-.28-1.428-.07.485-.17.971-.28 1.456-.11.467-.22.915-.33 1.344-.1.429-.2.831-.31 1.204l-1.29 4.648h4.48l-1.32-4.648ZM1333.89 542h-9.15v-2.408l2.32-1.12v-12.936l-2.32-1.12v-2.408h9.15v2.408l-2.29 1.12v12.936l2.29 1.12V542Zm11.84-8.848h14.7v11.2h-3.22v-8.148h-8.4v8.288h-3.08v-11.34Zm12.46-14.952 2.57 2.632c-1.36.523-2.87.98-4.53 1.372-1.66.373-3.37.681-5.13.924-1.73.243-3.43.439-5.09.588-.06-.392-.19-.868-.39-1.428-.19-.579-.38-1.055-.56-1.428 1.19-.131 2.39-.28 3.61-.448 1.23-.168 2.42-.364 3.58-.588 1.16-.224 2.24-.467 3.25-.728 1.01-.28 1.9-.579 2.69-.896Zm-6.72 3.164h3.19v13.552h-3.19v-13.552Zm-7.48 5.012h17.84v3.192h-17.84v-3.192Zm3.95 13.916h10.61v3.052h-10.61v-3.052ZM1337.08 521l1.9-2.436c.52.261 1.11.56 1.76.896.66.336 1.29.672 1.91 1.008.63.336 1.15.635 1.54.896l-1.99 2.716c-.37-.28-.86-.597-1.46-.952a106.2 106.2 0 0 0-1.87-1.092c-.66-.392-1.25-.737-1.79-1.036Zm-1.35 7.756 1.82-2.492c.52.224 1.12.504 1.79.84.68.336 1.33.672 1.96 1.008.64.317 1.15.607 1.54.868l-1.87 2.8c-.38-.28-.87-.597-1.49-.952-.59-.355-1.23-.719-1.9-1.092-.67-.373-1.29-.7-1.85-.98Zm.42 13.16c.51-.709 1.06-1.54 1.65-2.492.62-.971 1.25-1.997 1.88-3.08a87.987 87.987 0 0 0 1.79-3.276l2.47 2.24c-.49.971-1.01 1.969-1.57 2.996a74.68 74.68 0 0 1-1.68 3.024c-.56.989-1.13 1.941-1.71 2.856l-2.83-2.268Zm32.51-21.84h17.16v3.22h-17.16v-3.22Zm0 6.468h17.22v3.136h-17.22v-3.136Zm-.06 6.608h17.39v3.164h-17.39v-3.164Zm-1.87-13.076h3.3v10.08c0 1.101-.04 2.305-.14 3.612a28.591 28.591 0 0 1-.56 3.948 17.251 17.251 0 0 1-1.2 3.752 11.58 11.58 0 0 1-2.07 3.192 4.732 4.732 0 0 0-.76-.756c-.34-.28-.68-.551-1.04-.812a9.567 9.567 0 0 0-.86-.616c.76-.84 1.37-1.764 1.82-2.772.44-1.027.77-2.081.98-3.164.22-1.101.36-2.193.42-3.276.07-1.101.11-2.147.11-3.136v-10.052Zm17.92 0h3.36v20.468c0 .896-.11 1.587-.34 2.072-.22.504-.62.887-1.2 1.148-.56.261-1.28.429-2.16.504-.88.075-1.96.103-3.25.084-.05-.448-.19-.989-.42-1.624-.22-.635-.44-1.167-.67-1.596l1.63.056h2.35c.26 0 .44-.047.53-.14.11-.093.17-.271.17-.532v-20.44Zm-9.3 1.288h3.39v22.792h-3.39v-22.792Zm27.58-3.136h3.47v3.92h-3.47v-3.92Zm0 16.38h3.47v9.912h-3.47v-9.912Zm-10.81 1.792h25.32v3.108h-25.32V536.4Zm.93-15.456h23.52v3.052h-23.52v-3.052Zm20.69 3.388 3 1.428c-.71.653-1.45 1.288-2.22 1.904-.76.597-1.46 1.12-2.1 1.568l-2.46-1.316c.43-.317.87-.681 1.32-1.092.46-.411.91-.831 1.34-1.26a15.2 15.2 0 0 0 1.12-1.232Zm-11.06-1.204 2.83 1.064c-.56.728-1.14 1.456-1.74 2.184a28.05 28.05 0 0 1-1.59 1.848l-2.1-.924a29.896 29.896 0 0 0 1.84-2.8c.3-.504.55-.961.76-1.372Zm4.2 2.044 2.6 1.204c-.76.896-1.6 1.829-2.52 2.8-.91.952-1.83 1.867-2.74 2.744-.91.859-1.78 1.615-2.6 2.268l-1.96-1.092c.82-.691 1.67-1.484 2.54-2.38.9-.915 1.76-1.857 2.58-2.828.82-.971 1.52-1.876 2.1-2.716Zm-8.2 2.436 1.56-1.904c.55.317 1.12.681 1.74 1.092.62.411 1.2.821 1.76 1.232.56.392 1.02.756 1.38 1.092l-1.66 2.184c-.33-.355-.77-.747-1.31-1.176-.54-.448-1.12-.887-1.74-1.316-.61-.448-1.19-.849-1.73-1.204Zm-.26 4.48c.94-.037 2-.075 3.2-.112 1.19-.056 2.46-.112 3.8-.168 1.35-.075 2.7-.14 4.06-.196l-.02 2.38c-1.87.149-3.73.299-5.58.448-1.84.149-3.51.271-4.98.364l-.48-2.716Zm7.7-1.876 2.38-1.008c.41.523.82 1.092 1.21 1.708.41.597.78 1.195 1.12 1.792.33.597.58 1.139.73 1.624l-2.52 1.148c-.15-.485-.39-1.027-.7-1.624a22.07 22.07 0 0 0-1.04-1.876c-.37-.653-.77-1.241-1.18-1.764Zm-14.3 2.38c.89-.28 1.97-.663 3.22-1.148 1.27-.485 2.55-.971 3.86-1.456l.59 2.464c-1.01.504-2.06 1.008-3.14 1.512-1.06.504-2.04.952-2.94 1.344l-1.59-2.716Zm.84-6.188 2.24-1.792c.48.261.99.569 1.54.924.56.336 1.08.681 1.56 1.036.51.355.92.681 1.24.98l-2.36 1.988a9.937 9.937 0 0 0-1.14-1.008c-.47-.373-.97-.747-1.52-1.12-.54-.373-1.06-.709-1.56-1.008Zm16.68 5.208 2.3-1.848c.63.317 1.33.691 2.07 1.12.75.429 1.46.868 2.13 1.316.67.429 1.23.821 1.68 1.176l-2.44 2.044c-.39-.373-.91-.784-1.56-1.232-.66-.448-1.35-.905-2.08-1.372-.72-.467-1.42-.868-2.1-1.204Z"/>
    <path fill="#10B981" d="M1200 750h-80v100h80V750Zm-50.7-17.816c0 1.056-.08 2.08-.24 3.072-.16.992-.43 1.912-.81 2.76a7.18 7.18 0 0 1-1.51 2.232c-.63.624-1.42 1.112-2.38 1.464-.94.352-2.07.528-3.38.528-.32 0-.7-.016-1.13-.048a6.429 6.429 0 0 1-1.08-.12v-2.904c.3.064.61.12.93.168.32.048.65.072.99.072.97 0 1.78-.128 2.42-.384.66-.256 1.17-.624 1.54-1.104.38-.48.65-1.048.81-1.704.16-.656.26-1.376.29-2.16h-.12c-.21.368-.45.704-.72 1.008a2.79 2.79 0 0 1-1.05.72c-.44.176-1 .264-1.71.264-.89 0-1.67-.208-2.33-.624-.65-.432-1.16-1.048-1.53-1.848-.35-.816-.53-1.8-.53-2.952 0-1.248.22-2.32.67-3.216.45-.896 1.08-1.584 1.9-2.064.83-.48 1.82-.72 2.97-.72.85 0 1.64.152 2.36.456.72.304 1.35.768 1.89 1.392.56.624.99 1.416 1.3 2.376.3.944.45 2.056.45 3.336Zm-5.9-4.656c-.54 0-1 .248-1.37.744-.35.496-.53 1.264-.53 2.304 0 .848.16 1.512.46 1.992.3.464.75.696 1.34.696.44 0 .81-.12 1.13-.36.32-.24.57-.536.75-.888.17-.368.26-.744.26-1.128 0-.448-.05-.872-.14-1.272-.08-.4-.2-.752-.36-1.056-.16-.32-.38-.568-.65-.744a1.51 1.51 0 0 0-.89-.288ZM1162.33 742h-11.47v-2.52l3.99-4.344c.81-.896 1.45-1.64 1.92-2.232.48-.608.81-1.152 1-1.632.21-.496.32-1.024.32-1.584 0-.688-.17-1.2-.51-1.536-.32-.336-.73-.504-1.25-.504-.56 0-1.12.152-1.68.456-.54.304-1.14.736-1.8 1.296l-2.11-2.328c.48-.432.99-.832 1.51-1.2.53-.368 1.16-.664 1.88-.888.72-.24 1.58-.36 2.59-.36 1.07 0 2 .208 2.78.624.79.4 1.39.952 1.8 1.656.43.688.65 1.472.65 2.352 0 .72-.1 1.376-.31 1.968a7.41 7.41 0 0 1-.91 1.752c-.39.576-.85 1.176-1.4 1.8-.54.608-1.15 1.296-1.82 2.064l-1.73 1.944-.02.168h6.57V742Zm5.28-17.376c1.28 0 2.28.472 2.98 1.416.7.928 1.06 2.24 1.06 3.936 0 1.696-.34 3.024-1.01 3.984-.66.944-1.67 1.416-3.03 1.416-.81 0-1.52-.216-2.11-.648-.57-.432-1.02-1.048-1.34-1.848-.32-.816-.48-1.784-.48-2.904 0-1.696.32-3.008.96-3.936.65-.944 1.65-1.416 2.97-1.416Zm.05 2.448c-.33 0-.57.24-.72.72-.14.48-.21 1.216-.21 2.208 0 .976.07 1.712.21 2.208.15.496.38.744.7.744.35 0 .6-.248.74-.744.15-.496.22-1.232.22-2.208 0-.992-.07-1.728-.22-2.208-.14-.48-.38-.72-.72-.72Zm11.79-2.208L1170.52 742h-2.95l8.92-17.136h2.96Zm-.05 6.6c.85 0 1.57.216 2.16.648.59.416 1.05 1.024 1.37 1.824.32.784.48 1.744.48 2.88 0 1.696-.34 3.024-1.01 3.984-.66.944-1.66 1.416-3 1.416-.82 0-1.52-.216-2.11-.648-.6-.432-1.05-1.048-1.37-1.848-.32-.816-.48-1.784-.48-2.904 0-1.696.33-3.008.98-3.936.67-.944 1.67-1.416 2.98-1.416Zm.02 2.448c-.33 0-.57.24-.72.72-.14.48-.21 1.216-.21 2.208 0 .976.07 1.712.21 2.208.15.496.39.744.72.744.34 0 .58-.24.72-.72.16-.496.24-1.24.24-2.232 0-.992-.08-1.728-.24-2.208-.16-.48-.4-.72-.72-.72Z"/>
    <path fill="#666" d="M1146.22 871.38v2.3h7.74v-2.3h-7.74Zm-1.42-1.18h10.62v4.64h-10.62v-4.64Zm4.24 4.08 1.66.16c-.19.493-.38.987-.58 1.48-.19.493-.36.92-.52 1.28l-1.32-.22c.13-.387.27-.833.42-1.34.16-.52.27-.973.34-1.36Zm-5.64 2.18h13.6v6.14h-1.48v-4.82h-10.68v4.84h-1.44v-6.16Zm.76 4.06h12.02v1.32h-12.02v-1.32Zm-2.32-13.16h16.58v3.96h-1.46v-2.64h-13.74v2.64h-1.38v-3.96Zm13.82-3 1.54.54c-.4.547-.83 1.107-1.28 1.68a17.9 17.9 0 0 1-1.28 1.44l-1.18-.5c.24-.293.49-.62.76-.98.28-.36.55-.733.8-1.12.25-.387.47-.74.64-1.06Zm-12.62.68 1.28-.56c.36.387.72.827 1.08 1.32.36.493.62.927.78 1.3l-1.34.64c-.16-.373-.41-.813-.76-1.32-.35-.52-.69-.98-1.04-1.38Zm4.98-.4 1.3-.48c.32.427.63.907.94 1.44.31.533.53.993.66 1.38l-1.36.54c-.12-.4-.33-.873-.62-1.42a11.11 11.11 0 0 0-.92-1.46Zm13.26 11.9h17.52v1.28h-17.52v-1.28Zm.06-8.78h17.38v1.28h-17.38v-1.28Zm.82 3.44H1178v1.24h-15.84v-1.24Zm1 2.7h13.86v1.16h-13.86v-1.16Zm6.06-2.12h1.5v10.82h-1.5v-10.82Zm-1.84-7.6h1.42v4.2h-1.42v-4.2Zm3.8 0h1.44v4.12h-1.44v-4.12Zm-2.44 12.88 1.2.56c-.61.68-1.37 1.327-2.28 1.94-.91.6-1.87 1.127-2.9 1.58-1.03.467-2.04.84-3.04 1.12-.07-.133-.16-.28-.28-.44-.11-.147-.22-.3-.34-.46a2.263 2.263 0 0 0-.36-.36c.99-.227 1.99-.54 3-.94 1.01-.4 1.96-.86 2.84-1.38.88-.52 1.6-1.06 2.16-1.62Zm2.44-.04c.43.44.94.867 1.54 1.28.61.413 1.28.793 2 1.14.73.347 1.49.653 2.26.92.77.253 1.54.467 2.3.64-.11.107-.23.233-.36.38l-.36.48c-.12.173-.21.327-.28.46-.76-.213-1.53-.48-2.32-.8-.77-.32-1.53-.687-2.26-1.1-.72-.413-1.4-.867-2.04-1.36a12.18 12.18 0 0 1-1.64-1.54l1.16-.5Zm4.64-12.58 1.54.42c-.29.533-.61 1.08-.94 1.64-.33.547-.64 1.02-.92 1.42l-1.22-.42c.19-.28.37-.6.56-.96a15.57 15.57 0 0 0 .98-2.1Zm-2.68 4.22 1.54.4c-.24.44-.49.88-.74 1.32-.25.427-.49.807-.72 1.14l-1.24-.38c.2-.36.41-.773.62-1.24.23-.467.41-.88.54-1.24Zm-10.18-3.82 1.28-.44c.35.44.68.94 1 1.5.33.56.57 1.047.72 1.46l-1.36.52c-.13-.413-.36-.907-.68-1.48-.31-.573-.63-1.093-.96-1.56Zm2.62 4.34 1.42-.26c.23.32.44.687.64 1.1.21.4.36.753.44 1.06l-1.48.3a6.379 6.379 0 0 0-.42-1.06 8.993 8.993 0 0 0-.6-1.14Z"/>
    <path fill="#3B82F6" d="M1320 680h-80v170h80V680Zm-56.43-25.352c.99 0 1.88.152 2.66.456.8.304 1.43.76 1.9 1.368.46.608.69 1.376.69 2.304 0 .688-.12 1.296-.38 1.824-.24.512-.58.96-1.01 1.344-.41.384-.89.72-1.44 1.008.55.32 1.07.696 1.56 1.128.51.416.93.912 1.25 1.488.34.56.5 1.224.5 1.992 0 .944-.22 1.768-.67 2.472-.45.704-1.1 1.248-1.97 1.632-.84.384-1.88.576-3.12.576-1.28 0-2.35-.184-3.21-.552-.85-.368-1.49-.896-1.92-1.584-.42-.688-.63-1.504-.63-2.448 0-.784.13-1.464.39-2.04a4.65 4.65 0 0 1 1.1-1.488c.47-.432.98-.792 1.54-1.08-.47-.32-.9-.68-1.3-1.08a4.98 4.98 0 0 1-.91-1.392c-.22-.528-.34-1.136-.34-1.824 0-.912.24-1.672.7-2.28.48-.608 1.12-1.064 1.92-1.368.82-.304 1.71-.456 2.69-.456Zm-2.21 12.792c0 .624.18 1.136.55 1.536.37.4.9.6 1.59.6.51 0 .92-.088 1.24-.264.34-.176.59-.424.75-.744.16-.32.24-.688.24-1.104 0-.432-.11-.816-.31-1.152a3.847 3.847 0 0 0-.77-.888 7.613 7.613 0 0 0-.91-.696l-.29-.192c-.4.224-.76.48-1.08.768-.31.288-.55.608-.75.96-.17.336-.26.728-.26 1.176Zm2.18-10.152c-.44 0-.83.152-1.15.456-.32.304-.48.736-.48 1.296 0 .384.07.728.22 1.032.16.288.36.544.6.768.25.208.53.408.81.6.28-.176.53-.368.77-.576.26-.208.47-.456.63-.744.16-.304.24-.664.24-1.08 0-.56-.16-.992-.48-1.296-.31-.304-.69-.456-1.16-.456Zm13.59 3.768c.94 0 1.78.2 2.52.6.75.4 1.34.984 1.77 1.752.45.768.67 1.72.67 2.856 0 1.232-.24 2.296-.72 3.192-.48.896-1.2 1.584-2.16 2.064-.96.48-2.16.72-3.6.72-.88 0-1.7-.08-2.47-.24a7.738 7.738 0 0 1-1.99-.696v-3.12c.56.304 1.23.568 2.02.792.8.208 1.53.312 2.2.312.61 0 1.12-.096 1.54-.288.42-.192.73-.488.94-.888.22-.4.33-.912.33-1.536 0-.848-.24-1.488-.72-1.92-.48-.448-1.21-.672-2.21-.672-.41 0-.83.048-1.24.144-.42.08-.78.16-1.08.24l-1.49-.768.62-8.736h8.95v3.072h-5.61l-.27 3.36c.26-.048.52-.096.77-.144.27-.064.68-.096 1.23-.096Zm10.48-6.432c1.28 0 2.28.472 2.98 1.416.7.928 1.06 2.24 1.06 3.936 0 1.696-.34 3.024-1.01 3.984-.66.944-1.67 1.416-3.03 1.416-.81 0-1.52-.216-2.11-.648-.57-.432-1.02-1.048-1.34-1.848-.32-.816-.48-1.784-.48-2.904 0-1.696.32-3.008.96-3.936.65-.944 1.65-1.416 2.97-1.416Zm.05 2.448c-.33 0-.57.24-.72.72-.14.48-.21 1.216-.21 2.208 0 .976.07 1.712.21 2.208.15.496.38.744.7.744.35 0 .6-.248.74-.744.15-.496.22-1.232.22-2.208 0-.992-.07-1.728-.22-2.208-.14-.48-.38-.72-.72-.72Zm11.79-2.208L1290.52 672h-2.95l8.92-17.136h2.96Zm-.05 6.6c.85 0 1.57.216 2.16.648.59.416 1.05 1.024 1.37 1.824.32.784.48 1.744.48 2.88 0 1.696-.34 3.024-1.01 3.984-.66.944-1.66 1.416-3 1.416-.82 0-1.52-.216-2.11-.648-.6-.432-1.05-1.048-1.37-1.848-.32-.816-.48-1.784-.48-2.904 0-1.696.33-3.008.98-3.936.67-.944 1.67-1.416 2.98-1.416Zm.02 2.448c-.33 0-.57.24-.72.72-.14.48-.21 1.216-.21 2.208 0 .976.07 1.712.21 2.208.15.496.39.744.72.744.34 0 .58-.24.72-.72.16-.496.24-1.24.24-2.232 0-.992-.08-1.728-.24-2.208-.16-.48-.4-.72-.72-.72Z"/>
    <path fill="#666" d="M1276.25 868.1c-.76 0-1.44.133-2.06.4-.61.253-1.13.633-1.56 1.14-.42.493-.75 1.1-.98 1.82a8.057 8.057 0 0 0-.34 2.4c0 1.173.18 2.193.54 3.06.38.867.92 1.533 1.64 2 .74.467 1.65.7 2.74.7.63 0 1.22-.053 1.78-.16.56-.107 1.11-.24 1.64-.4v1.56c-.53.2-1.08.347-1.66.44-.56.093-1.23.14-2.02.14-1.45 0-2.66-.3-3.64-.9-.97-.6-1.7-1.453-2.2-2.56-.48-1.107-.72-2.407-.72-3.9 0-1.08.15-2.067.44-2.96.31-.893.75-1.667 1.32-2.32a5.842 5.842 0 0 1 2.16-1.5c.86-.36 1.84-.54 2.94-.54.74 0 1.44.073 2.12.22.68.147 1.29.353 1.82.62l-.72 1.52c-.44-.2-.93-.38-1.48-.54a6.09 6.09 0 0 0-1.76-.24Zm14.62 9.08c0 .853-.21 1.58-.62 2.18-.41.587-1.01 1.04-1.78 1.36-.76.32-1.66.48-2.7.48-.53 0-1.05-.027-1.54-.08-.48-.053-.92-.127-1.32-.22-.4-.107-.75-.233-1.06-.38v-1.72c.48.213 1.07.407 1.78.58.72.173 1.46.26 2.22.26.71 0 1.3-.093 1.78-.28.48-.187.84-.453 1.08-.8.24-.347.36-.753.36-1.22 0-.467-.1-.86-.3-1.18-.2-.32-.55-.613-1.04-.88-.48-.28-1.15-.573-2.02-.88-.61-.227-1.15-.467-1.62-.72a5.095 5.095 0 0 1-1.14-.9 3.403 3.403 0 0 1-.7-1.14c-.15-.427-.22-.92-.22-1.48 0-.76.19-1.407.58-1.94.39-.547.92-.967 1.6-1.26.69-.293 1.49-.44 2.38-.44.79 0 1.51.073 2.16.22.65.147 1.25.34 1.78.58l-.56 1.54c-.49-.213-1.03-.393-1.62-.54a7.182 7.182 0 0 0-1.8-.22c-.6 0-1.1.087-1.5.26-.4.173-.7.42-.9.74-.2.307-.3.667-.3 1.08 0 .48.1.88.3 1.2.2.32.53.607.98.86.45.253 1.07.527 1.84.82.84.307 1.55.64 2.12 1 .59.347 1.03.767 1.32 1.26.31.493.46 1.113.46 1.86Z"/>
    <path fill="#F59E0B" d="M1440 700h-80v150h80V700Zm-60.56-8 5.78-14.088h-7.46v-3.048h11.59v2.28L1383.47 692h-4.03Zm17.18-17.352c.99 0 1.88.152 2.67.456.8.304 1.43.76 1.89 1.368.47.608.7 1.376.7 2.304 0 .688-.13 1.296-.39 1.824-.24.512-.57.96-1 1.344-.42.384-.9.72-1.44 1.008.54.32 1.06.696 1.56 1.128.51.416.92.912 1.24 1.488.34.56.51 1.224.51 1.992 0 .944-.23 1.768-.67 2.472-.45.704-1.11 1.248-1.97 1.632-.85.384-1.89.576-3.12.576-1.28 0-2.35-.184-3.22-.552-.85-.368-1.49-.896-1.92-1.584-.41-.688-.62-1.504-.62-2.448 0-.784.13-1.464.38-2.04.27-.576.64-1.072 1.11-1.488.46-.432.97-.792 1.53-1.08-.46-.32-.89-.68-1.29-1.08-.39-.416-.69-.88-.92-1.392-.22-.528-.33-1.136-.33-1.824 0-.912.23-1.672.69-2.28.48-.608 1.12-1.064 1.92-1.368.82-.304 1.72-.456 2.69-.456Zm-2.21 12.792c0 .624.19 1.136.56 1.536.36.4.89.6 1.58.6.51 0 .93-.088 1.25-.264.33-.176.58-.424.74-.744.16-.32.24-.688.24-1.104 0-.432-.1-.816-.31-1.152a3.623 3.623 0 0 0-.77-.888 6.89 6.89 0 0 0-.91-.696l-.29-.192c-.4.224-.76.48-1.08.768-.3.288-.55.608-.74.96-.18.336-.27.728-.27 1.176Zm2.19-10.152c-.45 0-.83.152-1.15.456-.32.304-.48.736-.48 1.296 0 .384.07.728.21 1.032.16.288.36.544.6.768.26.208.53.408.82.6.27-.176.53-.368.77-.576.25-.208.46-.456.62-.744.16-.304.24-.664.24-1.08 0-.56-.16-.992-.48-1.296-.3-.304-.69-.456-1.15-.456Zm11.01-2.664c1.28 0 2.28.472 2.98 1.416.7.928 1.06 2.24 1.06 3.936 0 1.696-.34 3.024-1.01 3.984-.66.944-1.67 1.416-3.03 1.416-.81 0-1.52-.216-2.11-.648-.57-.432-1.02-1.048-1.34-1.848-.32-.816-.48-1.784-.48-2.904 0-1.696.32-3.008.96-3.936.65-.944 1.65-1.416 2.97-1.416Zm.05 2.448c-.33 0-.57.24-.72.72-.14.48-.21 1.216-.21 2.208 0 .976.07 1.712.21 2.208.15.496.38.744.7.744.35 0 .6-.248.74-.744.15-.496.22-1.232.22-2.208 0-.992-.07-1.728-.22-2.208-.14-.48-.38-.72-.72-.72Zm11.79-2.208L1410.52 692h-2.95l8.92-17.136h2.96Zm-.05 6.6c.85 0 1.57.216 2.16.648.59.416 1.05 1.024 1.37 1.824.32.784.48 1.744.48 2.88 0 1.696-.34 3.024-1.01 3.984-.66.944-1.66 1.416-3 1.416-.82 0-1.52-.216-2.11-.648-.6-.432-1.05-1.048-1.37-1.848-.32-.816-.48-1.784-.48-2.904 0-1.696.33-3.008.98-3.936.67-.944 1.67-1.416 2.98-1.416Zm.02 2.448c-.33 0-.57.24-.72.72-.14.48-.21 1.216-.21 2.208 0 .976.07 1.712.21 2.208.15.496.39.744.72.744.34 0 .58-.24.72-.72.16-.496.24-1.24.24-2.232 0-.992-.08-1.728-.24-2.208-.16-.48-.4-.72-.72-.72Z"/>
    <path fill="#666" d="M1388.58 868.32c-.09.107-.19.213-.28.32-.09.093-.17.193-.22.3-.37.613-.83 1.28-1.36 2a31.08 31.08 0 0 1-3.96 4.46c-.77.733-1.61 1.42-2.5 2.06l-1.24-1.1c.81-.56 1.57-1.167 2.28-1.82.71-.653 1.35-1.313 1.94-1.98.6-.68 1.12-1.327 1.56-1.94.45-.613.81-1.16 1.06-1.64h-11.76c-.25 0-.51.007-.78.02-.27.013-.51.027-.74.04-.21.013-.39.033-.52.06v-1.8c.19.027.39.053.62.08.23.027.46.047.7.06.25.013.49.02.72.02h11.92c.57 0 1.01-.053 1.3-.16l1.26 1.02Zm-9.42 9.5a35.45 35.45 0 0 0-1.08-1.02c-.4-.373-.82-.747-1.26-1.12a29.89 29.89 0 0 0-1.24-1.04c-.39-.32-.72-.573-1-.76l1.3-1.06c.23.173.53.413.9.72.37.293.78.627 1.22 1 .45.373.9.753 1.34 1.14.44.387.84.76 1.2 1.12.43.4.87.84 1.32 1.32.47.48.91.947 1.32 1.4.41.453.76.86 1.04 1.22l-1.46 1.16c-.24-.347-.57-.753-.98-1.22-.4-.48-.83-.967-1.3-1.46-.47-.507-.91-.973-1.32-1.4Zm12.88-5.48c.2.013.45.033.74.06.29.013.61.027.96.04h12.04c.51 0 .94-.013 1.3-.04.36-.027.65-.047.86-.06v1.96l-.9-.06c-.39-.027-.8-.04-1.24-.04h-10.98c-.55 0-1.07.013-1.56.04-.49.013-.9.033-1.22.06v-1.96Zm26.2-6.8c-.08.227-.17.467-.26.72-.08.24-.16.467-.24.68-.09.307-.21.64-.36 1-.13.36-.28.733-.44 1.12-.16.373-.33.747-.52 1.12-.27.507-.59 1.053-.98 1.64s-.8 1.147-1.24 1.68c-.44.52-.87.953-1.3 1.3l-1.58-.94c.36-.267.71-.58 1.06-.94.36-.36.69-.74 1-1.14.32-.413.61-.813.86-1.2s.47-.727.64-1.02c.28-.507.51-1.007.7-1.5.19-.493.33-.927.44-1.3.08-.267.15-.533.2-.8.05-.267.09-.533.1-.8l1.92.38Zm-2.5 3.42h10.68c.25 0 .55-.007.9-.02.36-.013.69-.04.98-.08v1.72c-.32-.027-.66-.04-1.02-.04-.35-.013-.63-.02-.86-.02h-10.88l.2-1.56Zm7.34.86c-.05 1.533-.23 2.913-.52 4.14a13.237 13.237 0 0 1-1.24 3.3c-.52.96-1.14 1.813-1.86 2.56-.72.733-1.53 1.387-2.42 1.96l-1.7-1.16c.28-.107.56-.24.84-.4.29-.173.55-.347.78-.52.52-.387 1.03-.86 1.54-1.42.51-.56.97-1.233 1.4-2.02.43-.8.77-1.727 1.04-2.78.27-1.067.41-2.293.44-3.68l1.7.02Z"/>
    <path fill="#EF4444" d="M1560 720h-80v130h80V720Zm-62.22-15.272c0-.992.07-1.968.2-2.928.14-.96.38-1.864.72-2.712.35-.864.83-1.624 1.44-2.28.62-.672 1.41-1.192 2.37-1.56.98-.384 2.15-.576 3.53-.576.32 0 .7.016 1.13.048.45.016.81.056 1.1.12v2.904c-.3-.08-.63-.136-.98-.168a8.914 8.914 0 0 0-1.2-.072c-.88 0-1.63.128-2.23.384-.61.256-1.1.624-1.47 1.104-.35.48-.61 1.048-.79 1.704-.16.64-.26 1.36-.29 2.16h.12c.21-.384.46-.72.75-1.008.3-.304.67-.544 1.1-.72.43-.176.94-.264 1.51-.264.95 0 1.75.216 2.43.648.68.416 1.21 1.032 1.58 1.848.37.8.55 1.776.55 2.928 0 1.232-.23 2.296-.69 3.192-.45.896-1.09 1.584-1.92 2.064-.84.464-1.83.696-2.98.696-.83 0-1.62-.152-2.35-.456a5.344 5.344 0 0 1-1.9-1.368c-.54-.624-.97-1.408-1.27-2.352-.3-.944-.46-2.056-.46-3.336Zm5.91 4.608c.56 0 1.01-.24 1.37-.72.35-.496.52-1.256.52-2.28 0-.832-.15-1.488-.45-1.968-.31-.48-.77-.72-1.39-.72-.44 0-.81.12-1.13.36-.31.224-.55.52-.72.888-.16.368-.24.744-.24 1.128 0 .4.04.8.12 1.2.08.384.2.736.36 1.056.17.32.39.576.65.768.25.192.56.288.91.288Zm13.44-8.28c.94 0 1.78.2 2.52.6.75.4 1.34.984 1.77 1.752.45.768.67 1.72.67 2.856 0 1.232-.24 2.296-.72 3.192-.48.896-1.2 1.584-2.16 2.064-.96.48-2.16.72-3.6.72-.88 0-1.7-.08-2.47-.24a7.738 7.738 0 0 1-1.99-.696v-3.12c.56.304 1.23.568 2.02.792.8.208 1.53.312 2.2.312.61 0 1.12-.096 1.54-.288.42-.192.73-.488.94-.888.22-.4.33-.912.33-1.536 0-.848-.24-1.488-.72-1.92-.48-.448-1.21-.672-2.21-.672-.41 0-.83.048-1.24.144-.42.08-.78.16-1.08.24l-1.49-.768.62-8.736h8.95v3.072h-5.61l-.27 3.36c.26-.048.52-.096.77-.144.27-.064.68-.096 1.23-.096Zm10.48-6.432c1.28 0 2.28.472 2.98 1.416.7.928 1.06 2.24 1.06 3.936 0 1.696-.34 3.024-1.01 3.984-.66.944-1.67 1.416-3.03 1.416-.81 0-1.52-.216-2.11-.648-.57-.432-1.02-1.048-1.34-1.848-.32-.816-.48-1.784-.48-2.904 0-1.696.32-3.008.96-3.936.65-.944 1.65-1.416 2.97-1.416Zm.05 2.448c-.33 0-.57.24-.72.72-.14.48-.21 1.216-.21 2.208 0 .976.07 1.712.21 2.208.15.496.38.744.7.744.35 0 .6-.248.74-.744.15-.496.22-1.232.22-2.208 0-.992-.07-1.728-.22-2.208-.14-.48-.38-.72-.72-.72Zm11.79-2.208L1530.52 712h-2.95l8.92-17.136h2.96Zm-.05 6.6c.85 0 1.57.216 2.16.648.59.416 1.05 1.024 1.37 1.824.32.784.48 1.744.48 2.88 0 1.696-.34 3.024-1.01 3.984-.66.944-1.66 1.416-3 1.416-.82 0-1.52-.216-2.11-.648-.6-.432-1.05-1.048-1.37-1.848-.32-.816-.48-1.784-.48-2.904 0-1.696.33-3.008.98-3.936.67-.944 1.67-1.416 2.98-1.416Zm.02 2.448c-.33 0-.57.24-.72.72-.14.48-.21 1.216-.21 2.208 0 .976.07 1.712.21 2.208.15.496.39.744.72.744.34 0 .58-.24.72-.72.16-.496.24-1.24.24-2.232 0-.992-.08-1.728-.24-2.208-.16-.48-.4-.72-.72-.72Z"/>
    <path fill="#666" d="M1505.42 880.76H1516v1.18h-10.58v-1.18Zm3.8-12.52h1.46v2.22h-1.46v-2.22Zm-7.58 1.58h16.88v3.76h-1.46V871h-14v2.58h-1.42v-3.76Zm3.7 2.42h10.26v4.02h-10.26v-1.14h8.76v-1.72h-8.76v-1.16Zm.06 5.4h11.48v4.94h-1.5v-3.76h-9.98v-1.18Zm-.86-5.4h1.42v10.38h-1.42v-10.38Zm-1.26-6.5h6.46v1.22h-6.46v-1.22Zm7.78 0h8.08v1.22h-8.08v-1.22Zm-7.4-1.64 1.4.38c-.36.867-.82 1.713-1.38 2.54-.55.827-1.11 1.52-1.68 2.08-.09-.067-.22-.153-.38-.26-.15-.107-.3-.213-.46-.32a2.338 2.338 0 0 0-.4-.24c.59-.52 1.14-1.147 1.66-1.88a11.2 11.2 0 0 0 1.24-2.3Zm7.86 0 1.44.36c-.36.853-.83 1.667-1.42 2.44-.59.773-1.2 1.42-1.84 1.94a4.311 4.311 0 0 0-.38-.24 4.756 4.756 0 0 0-.48-.3 3.595 3.595 0 0 0-.44-.22 9.075 9.075 0 0 0 1.82-1.76 8.9 8.9 0 0 0 1.3-2.22Zm-7.14 2.58 1.3-.34c.24.347.47.74.7 1.18.23.427.39.793.5 1.1l-1.38.4c-.08-.307-.23-.68-.44-1.12-.21-.453-.44-.86-.68-1.22Zm8.5.02 1.3-.4c.32.347.63.74.94 1.18.32.427.56.807.72 1.14l-1.36.46a7.13 7.13 0 0 0-.68-1.16c-.31-.453-.61-.86-.92-1.22Zm16.64 3.5v2.58h7.42v-2.58h-7.42Zm0-3.76v2.54h7.42v-2.54h-7.42Zm-1.38-1.32h10.24v8.96h-10.24v-8.96Zm-.24 11.32h10.76v1.36h-10.76v-1.36Zm-1.54 4.12h12.98v1.38h-12.98v-1.38Zm-5.44-15.02h6.24v1.42h-6.24v-1.42Zm.2 5.8h5.74v1.4h-5.74v-1.4Zm-.42 7.66c.55-.16 1.16-.34 1.84-.54.69-.213 1.42-.447 2.18-.7.77-.267 1.55-.527 2.32-.78l.26 1.46c-1.08.36-2.17.727-3.26 1.1-1.09.36-2.08.687-2.96.98l-.38-1.52Zm2.7-12.9h1.44v12.4l-1.44.28V866.1Zm9.18-.36h1.3v7.7h.12v7.74h-1.54v-7.74h.12v-7.7Z"/>
  </g>
  <defs>
    <clipPath id="a">
      <path fill="#fff" d="M0 0h1920v1080H0z"/>
    </clipPath>
  </defs>
</svg>
