<svg xmlns="http://www.w3.org/2000/svg" width="1920" height="1080" fill="none" viewBox="0 0 1920 1080">
  <g clip-path="url(#a)">
    <path fill="#fff" d="M1920 0H0v1080h1920V0Z"/>
    <path fill="#000" d="M363.28 42.24h28.16v8.88h-28.16v-8.88Zm.72 22.88h26.64v8.8H364v-8.8Zm-2.64 27.76c2.613-.64 5.573-1.36 8.88-2.16 3.36-.853 6.88-1.787 10.56-2.8l11.04-3.04 1.2 8.48c-5.013 1.493-10.107 3.013-15.28 4.56a5187.385 5187.385 0 0 1-13.92 4l-2.48-9.04Zm42.16-31.76v4.96h20.96v-4.96h-20.96Zm0 12.24v4.96h20.96v-4.96h-20.96Zm0-24.48v4.96h20.96v-4.96h-20.96Zm-8.96-7.76h39.36v45.12h-39.36V41.12Zm20.24 41.52h9.12v19.28c0 1.173.08 1.92.24 2.24.213.267.667.4 1.36.4h3.28c.48 0 .827-.213 1.04-.64.267-.427.453-1.307.56-2.64.16-1.387.267-3.387.32-6 .64.48 1.413.96 2.32 1.44.96.427 1.947.827 2.96 1.2 1.067.32 2 .613 2.8.88-.267 3.627-.747 6.453-1.44 8.48-.64 2.027-1.573 3.44-2.8 4.24-1.173.853-2.72 1.28-4.64 1.28h-6.16c-2.453 0-4.32-.347-5.6-1.04-1.28-.693-2.16-1.84-2.64-3.44-.48-1.547-.72-3.653-.72-6.32V82.64Zm-14.24 2.32H410c-.32 3.467-.853 6.667-1.6 9.6a24.482 24.482 0 0 1-3.44 7.92c-1.6 2.4-3.813 4.533-6.64 6.4-2.773 1.867-6.347 3.467-10.72 4.8-.32-.8-.773-1.707-1.36-2.72a45.29 45.29 0 0 0-1.92-2.88 23.253 23.253 0 0 0-2-2.32c3.733-.907 6.773-2.027 9.12-3.36 2.347-1.387 4.133-2.933 5.36-4.64a17.654 17.654 0 0 0 2.64-5.76c.533-2.133.907-4.48 1.12-7.04Zm-27.52-39.2h9.2v46.96l-9.2 1.44v-48.4Zm96.32 14.56h47.12v9.52h-47.12v-9.52Zm25.92 4.56c1.227 5.653 2.88 11.067 4.96 16.24 2.133 5.12 4.72 9.733 7.76 13.84 3.093 4.053 6.667 7.36 10.72 9.92-.747.587-1.573 1.333-2.48 2.24-.853.96-1.68 1.947-2.48 2.96a31.66 31.66 0 0 0-2 2.8c-4.32-3.147-8.053-7.04-11.2-11.68-3.093-4.64-5.733-9.893-7.92-15.76-2.133-5.92-3.92-12.213-5.36-18.88l8-1.68Zm3.6-21.12 7.28-4a91.903 91.903 0 0 1 3.44 4.56c1.173 1.6 2.24 3.2 3.2 4.8 1.013 1.6 1.813 3.013 2.4 4.24l-7.76 4.72c-.533-1.28-1.28-2.747-2.24-4.4a180.296 180.296 0 0 0-3.04-5.04 59.785 59.785 0 0 0-3.28-4.88Zm-13.12-5.6h9.52v20.48c0 4.32-.267 8.853-.8 13.6-.533 4.693-1.52 9.44-2.96 14.24-1.44 4.747-3.6 9.387-6.48 13.92-2.827 4.48-6.533 8.72-11.12 12.72-.907-1.013-2.107-2.08-3.6-3.2a92.18 92.18 0 0 0-4.16-2.96c4.373-3.733 7.867-7.68 10.48-11.84 2.613-4.16 4.56-8.347 5.84-12.56 1.333-4.213 2.213-8.347 2.64-12.4.427-4.053.64-7.893.64-11.52V38.16Zm-27.92-.24h9.52v75.12h-9.52V37.92Zm-15.12 14.64 7.52-4.4a116.432 116.432 0 0 1 3.44 5.04 87.18 87.18 0 0 1 3.36 5.36c1.067 1.707 1.867 3.28 2.4 4.72l-8.08 4.88c-.48-1.387-1.2-2.987-2.16-4.8a86.165 86.165 0 0 0-3.2-5.52c-1.12-1.92-2.213-3.68-3.28-5.28Zm-.48 35.6c2.187-1.6 4.853-3.68 8-6.24 3.2-2.56 6.4-5.2 9.6-7.92l3.76 7.68a645.957 645.957 0 0 1-8.32 7.68 211.066 211.066 0 0 1-8.16 7.04l-4.88-8.24Zm93.36-20.72h43.28v9.28H535.6v-9.28Zm40.08 0h10.08V70c0 .64-.027 1.173-.08 1.6-.213 6.027-.453 11.227-.72 15.6-.267 4.32-.587 7.92-.96 10.8-.32 2.88-.72 5.173-1.2 6.88-.48 1.707-1.067 2.987-1.76 3.84-1.067 1.28-2.187 2.187-3.36 2.72-1.12.533-2.453.907-4 1.12-1.333.213-3.093.32-5.28.32-2.187.053-4.48.027-6.88-.08-.053-1.44-.373-3.093-.96-4.96-.587-1.813-1.307-3.387-2.16-4.72 2.24.16 4.32.267 6.24.32 1.92.053 3.36.08 4.32.08.747 0 1.36-.053 1.84-.16.48-.16.96-.48 1.44-.96.64-.693 1.147-2.213 1.52-4.56.427-2.4.8-5.92 1.12-10.56.32-4.693.587-10.747.8-18.16v-1.68Zm-31.12-28.4 10.4 3.04a90.163 90.163 0 0 1-7.12 13.44c-2.72 4.32-5.68 8.293-8.88 11.92-3.147 3.627-6.427 6.773-9.84 9.44-.587-.693-1.387-1.52-2.4-2.48a81.315 81.315 0 0 0-3.12-2.96c-1.013-.96-1.92-1.733-2.72-2.32 3.307-2.24 6.453-4.907 9.44-8a70.64 70.64 0 0 0 8.24-10.32c2.453-3.787 4.453-7.707 6-11.76Zm30.48-.16c1.28 2.56 2.827 5.173 4.64 7.84a100.69 100.69 0 0 0 5.92 7.84c2.187 2.507 4.4 4.88 6.64 7.12 2.293 2.24 4.533 4.187 6.72 5.84-.853.64-1.813 1.493-2.88 2.56a81.997 81.997 0 0 0-2.96 3.12 42.185 42.185 0 0 0-2.32 2.96 106.04 106.04 0 0 1-6.8-6.96 180.641 180.641 0 0 1-6.8-8.24 150.68 150.68 0 0 1-6.24-9.04 141.98 141.98 0 0 1-5.36-9.28l9.44-3.76Zm-25.2 31.28h10.48c-.373 4.48-.987 8.853-1.84 13.12a45.166 45.166 0 0 1-4.24 12.08c-1.92 3.787-4.72 7.253-8.4 10.4-3.627 3.093-8.427 5.733-14.4 7.92-.373-.907-.907-1.893-1.6-2.96a58.028 58.028 0 0 0-2.24-3.2c-.8-1.013-1.6-1.893-2.4-2.64 5.387-1.707 9.653-3.813 12.8-6.32 3.147-2.56 5.52-5.333 7.12-8.32a32.467 32.467 0 0 0 3.28-9.68c.64-3.413 1.12-6.88 1.44-10.4Zm93.12-5.12h34.8v9.04h-34.8v-9.04Zm-4.8-21.44 11.44 3.2c-.107.747-.8 1.227-2.08 1.44v18.8c0 3.2-.16 6.773-.48 10.72-.267 3.893-.8 7.947-1.6 12.16-.8 4.16-2 8.24-3.6 12.24a42.415 42.415 0 0 1-6.24 10.88c-.427-.693-1.093-1.467-2-2.32a38.83 38.83 0 0 0-2.72-2.32c-.96-.747-1.84-1.28-2.64-1.6a39.485 39.485 0 0 0 5.36-9.44 56.146 56.146 0 0 0 2.96-10.4 89.166 89.166 0 0 0 1.28-10.4c.213-3.467.32-6.667.32-9.6V43.6Zm29.04-4.72 8.08 7.52c-3.093 1.227-6.453 2.4-10.08 3.52a152 152 0 0 1-11.04 2.8 177.09 177.09 0 0 1-10.96 2c-.213-1.12-.64-2.453-1.28-4-.587-1.547-1.2-2.827-1.84-3.84 3.307-.64 6.613-1.36 9.92-2.16a132.232 132.232 0 0 0 9.44-2.8c2.987-1.013 5.573-2.027 7.76-3.04Zm-9.28 28.96h9.52v45.28h-9.52V67.84ZM603.6 54.56h29.84v9.04H603.6v-9.04ZM614.56 38h9.2v75.12h-9.2V38Zm-.4 22.72 5.6 1.92a107.39 107.39 0 0 1-2.32 10 110.61 110.61 0 0 1-3.2 10.08A93.18 93.18 0 0 1 610.4 92c-1.387 2.827-2.853 5.28-4.4 7.36-.427-1.387-1.093-2.933-2-4.64-.907-1.707-1.76-3.147-2.56-4.32 1.44-1.76 2.8-3.813 4.08-6.16a73.705 73.705 0 0 0 3.52-7.44 91.792 91.792 0 0 0 2.96-8.08 74.93 74.93 0 0 0 2.16-8Zm8.88 7.04c.533.533 1.333 1.493 2.4 2.88a199.45 199.45 0 0 1 3.52 4.32 117.069 117.069 0 0 1 3.28 4.32 199.197 199.197 0 0 1 2.16 2.88l-5.44 7.6c-.48-1.227-1.173-2.64-2.08-4.24a166.7 166.7 0 0 0-2.88-4.88c-1.013-1.707-2-3.307-2.96-4.8a259.833 259.833 0 0 0-2.32-3.76l4.32-4.32ZM720 64.72c-2.133 0-3.947-.72-5.44-2.16-1.44-1.44-2.16-3.2-2.16-5.28 0-2.24.72-4.053 2.16-5.44 1.493-1.44 3.307-2.16 5.44-2.16 2.133 0 3.92.72 5.36 2.16 1.493 1.387 2.24 3.2 2.24 5.44 0 2.08-.747 3.84-2.24 5.28-1.44 1.44-3.227 2.16-5.36 2.16Zm0 38.16c-2.133 0-3.947-.72-5.44-2.16-1.44-1.44-2.16-3.2-2.16-5.28 0-2.24.72-4.053 2.16-5.44 1.493-1.44 3.307-2.16 5.44-2.16 2.133 0 3.92.72 5.36 2.16 1.493 1.387 2.24 3.2 2.24 5.44 0 2.08-.747 3.84-2.24 5.28-1.44 1.44-3.227 2.16-5.36 2.16Zm89.2-61.28h20.64v8.72H809.2V41.6Zm0 18.08h20.64v8.48H809.2v-8.48ZM809.12 78h20.8v8.56h-20.8V78Zm16.64-36.4h9.2v60.96c0 2.347-.267 4.187-.8 5.52-.533 1.387-1.493 2.48-2.88 3.28-1.387.747-3.147 1.227-5.28 1.44-2.08.213-4.613.293-7.6.24-.16-1.28-.507-2.827-1.04-4.64-.533-1.76-1.093-3.253-1.68-4.48 1.707.107 3.387.16 5.04.16h3.44c.587 0 .987-.107 1.2-.32.267-.267.4-.693.4-1.28V41.6Zm-20.56 0h9.04v29.44c0 3.147-.107 6.587-.32 10.32a104.87 104.87 0 0 1-1.12 11.36 82.674 82.674 0 0 1-2.32 11.04c-1.013 3.573-2.4 6.773-4.16 9.6-.48-.587-1.2-1.253-2.16-2-.96-.693-1.92-1.36-2.88-2-.96-.64-1.813-1.12-2.56-1.44 2.027-3.467 3.493-7.333 4.4-11.6a81.232 81.232 0 0 0 1.68-12.96c.267-4.427.4-8.533.4-12.32V41.6Zm-41.84 5.84h39.2v8.4h-39.2v-8.4Zm10.4 13.12h19.12v7.28h-19.12v-7.28Zm0 12.4h19.12v7.36h-19.12v-7.36ZM762.4 85.68H802v8.4h-39.6v-8.4Zm7.2-46.72h8.64v49.76h-8.64V38.96Zm18.64 0h8.8v49.76h-8.8V38.96Zm-15.92 55.68 9.12 2.64c-1.493 2.933-3.333 5.84-5.52 8.72-2.187 2.933-4.347 5.387-6.48 7.36-.533-.587-1.28-1.227-2.24-1.92a67.775 67.775 0 0 0-2.88-2.08 29.45 29.45 0 0 0-2.56-1.68c2.133-1.6 4.133-3.573 6-5.92 1.92-2.347 3.44-4.72 4.56-7.12Zm11.92 3.6 7.28-4c1.067 1.12 2.16 2.4 3.28 3.84a74.353 74.353 0 0 1 3.28 4.16c1.067 1.333 1.92 2.56 2.56 3.68l-7.76 4.48c-.533-1.067-1.307-2.32-2.32-3.76-.96-1.387-2-2.827-3.12-4.32a111.653 111.653 0 0 0-3.2-4.08Zm86.48-51.12H914v8.72h-43.28v-8.72Zm-3.76 30.8h50.08v8.64h-50.08v-8.64Zm-.8-15.12h51.6v8.72h-51.6V62.8Zm20.96-24.4h9.52v28.96h-9.52V38.4Zm10.96 31.68h9.6v33.04c0 2.347-.293 4.16-.88 5.44-.587 1.333-1.68 2.373-3.28 3.12-1.6.693-3.547 1.12-5.84 1.28-2.24.16-4.88.24-7.92.24-.16-1.333-.533-2.88-1.12-4.64-.533-1.707-1.12-3.173-1.76-4.4 1.28.053 2.587.107 3.92.16h3.52a48.205 48.205 0 0 1 2.08-.08c.64 0 1.067-.08 1.28-.24.267-.213.4-.587.4-1.12v-32.8ZM871.44 91.2l7.92-4.16a69.464 69.464 0 0 1 3.6 4.48 80.12 80.12 0 0 1 3.36 4.88c1.067 1.547 1.867 2.987 2.4 4.32l-8.4 4.64c-.48-1.28-1.2-2.747-2.16-4.4a78.575 78.575 0 0 0-3.2-5.04 72.457 72.457 0 0 0-3.52-4.72ZM860.8 55.68l8.32 3.52c-1.92 3.307-4.16 6.613-6.72 9.92a125.32 125.32 0 0 1-8.08 9.44c-2.827 2.933-5.6 5.493-8.32 7.68-.213-.747-.587-1.733-1.12-2.96a61.161 61.161 0 0 0-1.76-3.84 64.67 64.67 0 0 0-1.6-3.04c2.347-1.707 4.693-3.653 7.04-5.84a85.712 85.712 0 0 0 6.8-7.12c2.133-2.56 3.947-5.147 5.44-7.76Zm-2-17.52 8.96 3.68c-1.707 2.453-3.707 4.933-6 7.44a89.711 89.711 0 0 1-7.28 6.96c-2.507 2.187-5.013 4.107-7.52 5.76-.32-.747-.773-1.627-1.36-2.64a85.09 85.09 0 0 0-1.68-3.04c-.587-1.013-1.12-1.84-1.6-2.48 2.08-1.28 4.16-2.8 6.24-4.56a65.196 65.196 0 0 0 5.92-5.52c1.813-1.973 3.253-3.84 4.32-5.6Zm-5.52 35.44 8.72-8.88.48.16v48.24h-9.2V73.6Zm133.36-14.24a49.748 49.748 0 0 1-3.76 2.16c-1.28.693-2.667 1.413-4.16 2.16a127.5 127.5 0 0 1-4.56 2.24 288.87 288.87 0 0 0-5.76 2.88 139.57 139.57 0 0 0-6.16 3.28 84.39 84.39 0 0 0-5.84 3.44c-3.307 2.187-6 4.453-8.08 6.8-2.027 2.347-3.04 4.933-3.04 7.76s1.387 5.013 4.16 6.56c2.773 1.493 6.933 2.24 12.48 2.24 2.773 0 5.707-.107 8.8-.32 3.147-.267 6.24-.613 9.28-1.04 3.04-.48 5.733-1.013 8.08-1.6l-.16 11.52c-2.24.373-4.693.72-7.36 1.04-2.613.32-5.467.56-8.56.72-3.04.16-6.293.24-9.76.24-4 0-7.707-.32-11.12-.96-3.36-.587-6.32-1.573-8.88-2.96-2.507-1.387-4.48-3.253-5.92-5.6-1.387-2.347-2.08-5.227-2.08-8.64 0-3.413.747-6.507 2.24-9.28 1.493-2.773 3.52-5.333 6.08-7.68a77.555 77.555 0 0 1 8.56-6.64A83.547 83.547 0 0 1 957.2 64a418.71 418.71 0 0 1 6.24-3.52c2.08-1.12 4-2.133 5.76-3.04 1.813-.96 3.307-1.787 4.48-2.48a131.55 131.55 0 0 0 4.08-2.48 38.335 38.335 0 0 0 3.36-2.4l5.52 9.28ZM946.4 42.24a200.69 200.69 0 0 0 4.16 10.16 248.125 248.125 0 0 0 4.4 9.12 573.113 573.113 0 0 0 4.08 7.6L950 74.48a157.16 157.16 0 0 1-4.48-8.24 272.054 272.054 0 0 1-4.64-9.6 353.336 353.336 0 0 1-4.48-10.32l10-4.08Zm56.88 0h28.16v8.88h-28.16v-8.88Zm.72 22.88h26.64v8.8H1004v-8.8Zm-2.64 27.76c2.61-.64 5.57-1.36 8.88-2.16 3.36-.853 6.88-1.787 10.56-2.8l11.04-3.04 1.2 8.48c-5.01 1.493-10.11 3.013-15.28 4.56a4707.91 4707.91 0 0 1-13.92 4l-2.48-9.04Zm42.16-31.76v4.96h20.96v-4.96h-20.96Zm0 12.24v4.96h20.96v-4.96h-20.96Zm0-24.48v4.96h20.96v-4.96h-20.96Zm-8.96-7.76h39.36v45.12h-39.36V41.12Zm20.24 41.52h9.12v19.28c0 1.173.08 1.92.24 2.24.21.267.67.4 1.36.4h3.28c.48 0 .83-.213 1.04-.64.27-.427.45-1.307.56-2.64.16-1.387.27-3.387.32-6 .64.48 1.41.96 2.32 1.44.96.427 1.95.827 2.96 1.2 1.07.32 2 .613 2.8.88-.27 3.627-.75 6.453-1.44 8.48-.64 2.027-1.57 3.44-2.8 4.24-1.17.853-2.72 1.28-4.64 1.28h-6.16c-2.45 0-4.32-.347-5.6-1.04-1.28-.693-2.16-1.84-2.64-3.44-.48-1.547-.72-3.653-.72-6.32V82.64Zm-14.24 2.32h9.44c-.32 3.467-.85 6.667-1.6 9.6-.69 2.88-1.84 5.52-3.44 7.92-1.6 2.4-3.81 4.533-6.64 6.4-2.77 1.867-6.35 3.467-10.72 4.8-.32-.8-.77-1.707-1.36-2.72-.59-.96-1.23-1.92-1.92-2.88-.69-.907-1.36-1.68-2-2.32 3.73-.907 6.77-2.027 9.12-3.36 2.35-1.387 4.13-2.933 5.36-4.64 1.23-1.76 2.11-3.68 2.64-5.76.53-2.133.91-4.48 1.12-7.04Zm-27.52-39.2h9.2v46.96l-9.2 1.44v-48.4Zm101.92-7.6h9.92v12.72h-9.92V38.16Zm-29.28 6.88h68.56v17.2h-9.92v-8.8h-49.12v8.8h-9.52v-17.2Zm7.2 14.8h54.96v7.76h-54.96v-7.76Zm-7.84 25.28h70.32v8.32h-70.32v-8.32Zm9.12-12.72h52v7.68h-52V72.4Zm30.56 14.4c2.4 5.28 6.21 9.413 11.44 12.4 5.23 2.987 12 4.907 20.32 5.76-.96 1.013-2 2.347-3.12 4-1.07 1.653-1.92 3.12-2.56 4.4-6.08-.96-11.33-2.48-15.76-4.56-4.43-2.027-8.19-4.693-11.28-8-3.04-3.36-5.57-7.413-7.6-12.16l8.56-1.84Zm-10-31.52h9.68v22.24c0 2.773-.29 5.547-.88 8.32-.53 2.773-1.55 5.467-3.04 8.08-1.44 2.56-3.49 5.013-6.16 7.36-2.61 2.347-5.95 4.507-10 6.48-4.05 2.027-8.99 3.84-14.8 5.44-.37-.747-.91-1.6-1.6-2.56-.64-.907-1.36-1.84-2.16-2.8-.75-.96-1.49-1.76-2.24-2.4 5.55-1.28 10.19-2.72 13.92-4.32 3.79-1.6 6.8-3.333 9.04-5.2 2.29-1.867 4.03-3.813 5.2-5.84 1.17-2.08 1.97-4.16 2.4-6.24.43-2.133.64-4.293.64-6.48V55.28Zm92.56-4.08c-.53 4.053-1.23 8.373-2.08 12.96-.85 4.587-2 9.227-3.44 13.92-1.55 5.387-3.36 10.027-5.44 13.92-2.08 3.893-4.37 6.907-6.88 9.04-2.45 2.08-5.15 3.12-8.08 3.12-2.93 0-5.65-.987-8.16-2.96-2.45-2.027-4.43-4.8-5.92-8.32-1.44-3.52-2.16-7.52-2.16-12 0-4.64.93-9.013 2.8-13.12a34.739 34.739 0 0 1 7.76-10.88c3.36-3.2 7.25-5.707 11.68-7.52 4.48-1.813 9.31-2.72 14.48-2.72 4.96 0 9.41.8 13.36 2.4 4 1.6 7.41 3.813 10.24 6.64 2.83 2.827 4.99 6.133 6.48 9.92 1.49 3.787 2.24 7.867 2.24 12.24 0 5.6-1.15 10.613-3.44 15.04s-5.71 8.08-10.24 10.96c-4.48 2.88-10.08 4.853-16.8 5.92l-6-9.52a54.04 54.04 0 0 0 4.08-.56c1.17-.213 2.29-.453 3.36-.72 2.56-.64 4.93-1.547 7.12-2.72 2.24-1.227 4.19-2.72 5.84-4.48 1.65-1.813 2.93-3.92 3.84-6.32.96-2.4 1.44-5.04 1.44-7.92 0-3.147-.48-6.027-1.44-8.64-.96-2.613-2.37-4.88-4.24-6.8-1.87-1.973-4.13-3.467-6.8-4.48-2.67-1.067-5.73-1.6-9.2-1.6-4.27 0-8.03.773-11.28 2.32-3.25 1.493-6 3.44-8.24 5.84s-3.95 4.987-5.12 7.76c-1.12 2.773-1.68 5.413-1.68 7.92 0 2.667.32 4.907.96 6.72.64 1.76 1.41 3.093 2.32 4 .96.853 1.97 1.28 3.04 1.28 1.12 0 2.21-.56 3.28-1.68 1.12-1.173 2.21-2.933 3.28-5.28 1.07-2.347 2.13-5.307 3.2-8.88 1.23-3.84 2.27-7.947 3.12-12.32.85-4.373 1.47-8.64 1.84-12.8l10.88.32Zm93.6-11.12c.69.96 1.44 2.107 2.24 3.44.8 1.333 1.55 2.667 2.24 4 .75 1.333 1.39 2.507 1.92 3.52l-6.48 2.8c-.8-1.653-1.79-3.52-2.96-5.6-1.12-2.133-2.21-3.973-3.28-5.52l6.32-2.64Zm9.44-3.6c.75 1.013 1.52 2.213 2.32 3.6.8 1.333 1.57 2.667 2.32 4 .8 1.28 1.41 2.373 1.84 3.28l-6.32 2.8c-.85-1.707-1.87-3.6-3.04-5.68-1.17-2.08-2.32-3.867-3.44-5.36l6.32-2.64Zm-42.4 13.84a33.99 33.99 0 0 0-.72-3.2c-.27-.96-.56-1.92-.88-2.88l11.28-1.84c.11.8.21 1.787.32 2.96.16 1.173.35 2.24.56 3.2.11.8.35 2.213.72 4.24s.83 4.48 1.36 7.36c.53 2.88 1.12 5.973 1.76 9.28.69 3.307 1.36 6.667 2 10.08.64 3.413 1.25 6.64 1.84 9.68.64 3.04 1.17 5.733 1.6 8.08.48 2.347.83 4.08 1.04 5.2.27 1.173.59 2.453.96 3.84s.75 2.72 1.12 4l-11.52 2.08c-.21-1.493-.4-2.933-.56-4.32a26.508 26.508 0 0 0-.56-3.76c-.16-1.067-.45-2.72-.88-4.96-.37-2.24-.85-4.853-1.44-7.84s-1.2-6.133-1.84-9.44L1272.16 72a945.98 945.98 0 0 0-1.84-9.44c-.53-2.933-1.01-5.467-1.44-7.6-.43-2.187-.75-3.733-.96-4.64Zm-21.84 10.16c1.28-.107 2.53-.187 3.76-.24l3.68-.32c1.17-.16 2.83-.373 4.96-.64 2.13-.32 4.59-.693 7.36-1.12 2.77-.427 5.63-.853 8.56-1.28 2.99-.48 5.87-.933 8.64-1.36 2.77-.48 5.23-.907 7.36-1.28 2.19-.373 3.89-.667 5.12-.88 1.28-.267 2.61-.533 4-.8 1.39-.32 2.56-.64 3.52-.96l1.92 10.56c-.85.053-2 .187-3.44.4-1.44.213-2.75.4-3.92.56-1.44.213-3.33.507-5.68.88-2.29.32-4.85.72-7.68 1.2-2.83.427-5.71.88-8.64 1.36-2.93.48-5.73.933-8.4 1.36-2.67.427-5.01.827-7.04 1.2l-4.56.72c-1.28.267-2.48.533-3.6.8-1.12.213-2.37.507-3.76.88l-2.16-11.04Zm.08 23.52c1.07-.053 2.4-.16 4-.32l4.32-.56c1.44-.213 3.36-.507 5.76-.88s5.09-.8 8.08-1.28c3.04-.48 6.16-.987 9.36-1.52 3.2-.533 6.32-1.04 9.36-1.52 3.04-.533 5.81-1.013 8.32-1.44 2.51-.427 4.53-.773 6.08-1.04 1.55-.32 3.01-.64 4.4-.96 1.44-.32 2.69-.64 3.76-.96l2.16 10.56c-1.07.053-2.37.213-3.92.48-1.49.213-3.01.453-4.56.72-1.71.267-3.84.613-6.4 1.04-2.56.373-5.39.827-8.48 1.36-3.04.48-6.16.987-9.36 1.52-3.2.48-6.27.987-9.2 1.52-2.93.48-5.57.933-7.92 1.36-2.35.373-4.19.693-5.52.96-1.71.32-3.25.613-4.64.88-1.33.213-2.45.453-3.36.72L1246.16 84ZM1352 55.2c.16.907.35 1.893.56 2.96.27 1.013.51 2.053.72 3.12.48 1.547 1.04 3.547 1.68 6a1038.814 1038.814 0 0 1 4.64 17.04c.85 2.987 1.68 5.867 2.48 8.64.8 2.72 1.49 5.147 2.08 7.28.59 2.08 1.04 3.68 1.36 4.8.21.427.43 1.067.64 1.92.21.853.45 1.707.72 2.56.32.853.59 1.547.8 2.08l-10.88 2.72c-.16-1.12-.35-2.293-.56-3.52a24.25 24.25 0 0 0-.88-3.52c-.32-1.173-.77-2.853-1.36-5.04-.59-2.24-1.25-4.773-2-7.6s-1.55-5.76-2.4-8.8c-.8-3.04-1.57-6-2.32-8.88a232.63 232.63 0 0 0-2.16-7.92c-.64-2.4-1.17-4.267-1.6-5.6a18.54 18.54 0 0 0-1.04-3.04 23.2 23.2 0 0 0-1.2-2.64L1352 55.2Zm38.4 12.32c-.8 1.76-1.89 3.76-3.28 6-1.33 2.24-2.8 4.533-4.4 6.88a182.74 182.74 0 0 1-4.8 6.72c-1.6 2.08-3.12 3.893-4.56 5.44l-8.8-4.4c1.39-1.227 2.85-2.72 4.4-4.48 1.55-1.76 2.99-3.52 4.32-5.28 1.39-1.813 2.4-3.36 3.04-4.64-.59.107-1.71.32-3.36.64-1.6.32-3.55.72-5.84 1.2s-4.8 1.013-7.52 1.6a539.21 539.21 0 0 0-8.08 1.68c-2.72.587-5.31 1.147-7.76 1.68-2.45.48-4.61.933-6.48 1.36-1.87.373-3.28.667-4.24.88l-2.48-9.6a70.71 70.71 0 0 0 3.68-.4c1.17-.16 2.4-.347 3.68-.56l3.36-.56c1.65-.267 3.6-.613 5.84-1.04 2.29-.427 4.75-.88 7.36-1.36 2.61-.533 5.25-1.04 7.92-1.52 2.67-.533 5.17-1.013 7.52-1.44 2.35-.48 4.4-.88 6.16-1.2 1.76-.373 3.04-.667 3.84-.88.69-.107 1.41-.267 2.16-.48.75-.267 1.39-.533 1.92-.8l6.4 4.56Zm50-9.04c.37.853.85 2.08 1.44 3.68.64 1.547 1.31 3.227 2 5.04.69 1.76 1.31 3.44 1.84 5.04s.96 2.853 1.28 3.76l-9.6 3.36c-.21-1.013-.59-2.293-1.12-3.84a182.23 182.23 0 0 0-1.76-4.88c-.64-1.76-1.28-3.44-1.92-5.04-.64-1.6-1.2-2.933-1.68-4l9.52-3.12Zm29.52 5.84c-.43 1.28-.8 2.373-1.12 3.28-.27.907-.53 1.76-.8 2.56-1.01 4.053-2.4 8.107-4.16 12.16-1.76 4-4 7.76-6.72 11.28-3.73 4.8-7.97 8.88-12.72 12.24-4.69 3.307-9.39 5.84-14.08 7.6l-8.4-8.56c2.93-.8 6.03-1.973 9.28-3.52 3.25-1.6 6.4-3.52 9.44-5.76 3.04-2.24 5.65-4.72 7.84-7.44 1.81-2.293 3.41-4.907 4.8-7.84 1.44-2.987 2.61-6.16 3.52-9.52.96-3.413 1.6-6.773 1.92-10.08l11.2 3.6Zm-48.08-1.6c.53 1.013 1.12 2.32 1.76 3.92.69 1.6 1.39 3.28 2.08 5.04.69 1.76 1.36 3.467 2 5.12.69 1.653 1.23 3.04 1.6 4.16l-9.76 3.68c-.32-1.067-.8-2.453-1.44-4.16-.59-1.707-1.25-3.493-2-5.36-.75-1.92-1.47-3.68-2.16-5.28-.64-1.6-1.2-2.827-1.68-3.68l9.6-3.44Zm122.48-15.36c0 1.28.45 2.373 1.36 3.28.91.853 1.97 1.28 3.2 1.28 1.28 0 2.37-.427 3.28-1.28.91-.907 1.36-2 1.36-3.28 0-1.28-.45-2.373-1.36-3.28-.91-.907-2-1.36-3.28-1.36-1.23 0-2.29.453-3.2 1.36-.91.907-1.36 2-1.36 3.28Zm-4.96 0c0-1.76.43-3.36 1.28-4.8.91-1.493 2.08-2.667 3.52-3.52a9.086 9.086 0 0 1 4.72-1.28c1.76 0 3.36.427 4.8 1.28a9.296 9.296 0 0 1 3.52 3.52c.85 1.44 1.28 3.04 1.28 4.8 0 1.707-.43 3.28-1.28 4.72-.85 1.44-2.03 2.613-3.52 3.52-1.44.853-3.04 1.28-4.8 1.28-1.71 0-3.28-.427-4.72-1.28a11.127 11.127 0 0 1-3.52-3.52 9.123 9.123 0 0 1-1.28-4.72Zm9.68 6.32c-.37.747-.69 1.653-.96 2.72a64.215 64.215 0 0 1-.8 2.8c-.43 1.973-.99 4.187-1.68 6.64-.69 2.4-1.52 4.907-2.48 7.52-.96 2.613-2.11 5.2-3.44 7.76a49.268 49.268 0 0 1-4.4 7.2c-2.4 3.2-5.2 6.187-8.4 8.96-3.2 2.773-6.77 5.28-10.72 7.52-3.95 2.24-8.29 4.133-13.04 5.68l-8.72-9.6c5.33-1.28 9.92-2.853 13.76-4.72 3.84-1.867 7.17-4 10-6.4 2.88-2.4 5.41-4.96 7.6-7.68a37.764 37.764 0 0 0 4.48-7.28 53.286 53.286 0 0 0 3.12-7.84c.85-2.667 1.44-5.147 1.76-7.44h-37.2c-1.87 0-3.68.027-5.44.08-1.71.053-3.07.133-4.08.24V48.56c.8.107 1.76.213 2.88.32a77.893 77.893 0 0 0 6.64.32h37.04c.8 0 1.76-.027 2.88-.08 1.17-.053 2.29-.24 3.36-.56l7.84 5.12Z"/>
    <path stroke="#333" stroke-width="4" d="M1719 150H199v763h1520V150ZM300 250v550"/>
    <path fill="#000" d="M246.4 263h-6.52v-18.2c.027-.667.04-1.36.04-2.08.027-.72.053-1.36.08-1.92-.213.16-.493.453-.84.88-.32.427-.653.787-1 1.08l-3 2.64-3.28-3.64 8.92-7.32h5.6V263Zm25.758-14.28c0 2.293-.174 4.347-.52 6.16-.32 1.813-.867 3.36-1.64 4.64-.774 1.253-1.76 2.213-2.96 2.88-1.2.667-2.68 1-4.44 1-2.187 0-3.987-.587-5.4-1.76-1.414-1.173-2.454-2.853-3.12-5.04-.667-2.187-1-4.813-1-7.88 0-3.093.306-5.733.92-7.92.613-2.187 1.613-3.867 3-5.04 1.413-1.173 3.28-1.76 5.6-1.76 2.186 0 3.986.587 5.4 1.76 1.413 1.147 2.453 2.827 3.12 5.04.693 2.187 1.04 4.827 1.04 7.92Zm-12.64 0c0 2.16.08 3.973.24 5.44.186 1.44.506 2.533.96 3.28.453.72 1.08 1.08 1.88 1.08.8 0 1.413-.36 1.84-1.08.453-.72.773-1.8.96-3.24.213-1.467.32-3.293.32-5.48 0-2.187-.107-4-.32-5.44-.187-1.467-.507-2.56-.96-3.28-.427-.747-1.04-1.12-1.84-1.12s-1.427.373-1.88 1.12c-.454.72-.774 1.813-.96 3.28-.16 1.44-.24 3.253-.24 5.44Zm34.398 0c0 2.293-.174 4.347-.52 6.16-.32 1.813-.867 3.36-1.64 4.64-.774 1.253-1.76 2.213-2.96 2.88-1.2.667-2.68 1-4.44 1-2.187 0-3.987-.587-5.4-1.76-1.414-1.173-2.454-2.853-3.12-5.04-.667-2.187-1-4.813-1-7.88 0-3.093.306-5.733.92-7.92.613-2.187 1.613-3.867 3-5.04 1.413-1.173 3.28-1.76 5.6-1.76 2.186 0 3.986.587 5.4 1.76 1.413 1.147 2.453 2.827 3.12 5.04.693 2.187 1.04 4.827 1.04 7.92Zm-12.64 0c0 2.16.08 3.973.24 5.44.186 1.44.506 2.533.96 3.28.453.72 1.08 1.08 1.88 1.08.8 0 1.413-.36 1.84-1.08.453-.72.773-1.8.96-3.24.213-1.467.32-3.293.32-5.48 0-2.187-.107-4-.32-5.44-.187-1.467-.507-2.56-.96-3.28-.427-.747-1.04-1.12-1.84-1.12s-1.427.373-1.88 1.12c-.454.72-.774 1.813-.96 3.28-.16 1.44-.24 3.253-.24 5.44Zm21.477-14.68c2.134 0 3.787.787 4.96 2.36 1.174 1.547 1.76 3.733 1.76 6.56 0 2.827-.56 5.04-1.68 6.64-1.093 1.573-2.773 2.36-5.04 2.36-1.36 0-2.533-.36-3.52-1.08-.96-.72-1.706-1.747-2.24-3.08-.533-1.36-.8-2.973-.8-4.84 0-2.827.534-5.013 1.6-6.56 1.094-1.573 2.747-2.36 4.96-2.36Zm.08 4.08c-.56 0-.96.4-1.2 1.2-.24.8-.36 2.027-.36 3.68 0 1.627.12 2.853.36 3.68s.627 1.24 1.16 1.24c.587 0 1-.413 1.24-1.24s.36-2.053.36-3.68c0-1.653-.12-2.88-.36-3.68-.24-.8-.64-1.2-1.2-1.2Zm19.64-3.68L307.593 263h-4.92l14.88-28.56h4.92Zm-.08 11c1.414 0 2.614.36 3.6 1.08.987.693 1.747 1.707 2.28 3.04.534 1.307.8 2.907.8 4.8 0 2.827-.56 5.04-1.68 6.64-1.093 1.573-2.76 2.36-5 2.36-1.36 0-2.533-.36-3.52-1.08-.986-.72-1.746-1.747-2.28-3.08-.533-1.36-.8-2.973-.8-4.84 0-2.827.547-5.013 1.64-6.56 1.12-1.573 2.774-2.36 4.96-2.36Zm.04 4.08c-.56 0-.96.4-1.2 1.2-.24.8-.36 2.027-.36 3.68 0 1.627.12 2.853.36 3.68s.64 1.24 1.2 1.24c.56 0 .96-.4 1.2-1.2.267-.827.4-2.067.4-3.72s-.133-2.88-.4-3.68c-.266-.8-.666-1.2-1.2-1.2ZM241.76 514.76c1.573 0 2.973.333 4.2 1 1.253.667 2.24 1.64 2.96 2.92.747 1.28 1.12 2.867 1.12 4.76 0 2.053-.4 3.827-1.2 5.32-.8 1.493-2 2.64-3.6 3.44-1.6.8-3.6 1.2-6 1.2a20.16 20.16 0 0 1-4.12-.4c-1.253-.267-2.36-.653-3.32-1.16v-5.2c.933.507 2.053.947 3.36 1.32 1.333.347 2.56.52 3.68.52 1.013 0 1.867-.16 2.56-.48a3.238 3.238 0 0 0 1.56-1.48c.373-.667.56-1.52.56-2.56 0-1.413-.4-2.48-1.2-3.2-.8-.747-2.027-1.12-3.68-1.12-.693 0-1.387.08-2.08.24-.693.133-1.293.267-1.8.4l-2.48-1.28 1.04-14.56h14.92v5.12h-9.36l-.44 5.6 1.28-.24c.453-.107 1.133-.16 2.04-.16Zm30.398 3.96c0 2.293-.174 4.347-.52 6.16-.32 1.813-.867 3.36-1.64 4.64-.774 1.253-1.76 2.213-2.96 2.88-1.2.667-2.68 1-4.44 1-2.187 0-3.987-.587-5.4-1.76-1.414-1.173-2.454-2.853-3.12-5.04-.667-2.187-1-4.813-1-7.88 0-3.093.306-5.733.92-7.92.613-2.187 1.613-3.867 3-5.04 1.413-1.173 3.28-1.76 5.6-1.76 2.186 0 3.986.587 5.4 1.76 1.413 1.147 2.453 2.827 3.12 5.04.693 2.187 1.04 4.827 1.04 7.92Zm-12.64 0c0 2.16.08 3.973.24 5.44.186 1.44.506 2.533.96 3.28.453.72 1.08 1.08 1.88 1.08.8 0 1.413-.36 1.84-1.08.453-.72.773-1.8.96-3.24.213-1.467.32-3.293.32-5.48 0-2.187-.107-4-.32-5.44-.187-1.467-.507-2.56-.96-3.28-.427-.747-1.04-1.12-1.84-1.12s-1.427.373-1.88 1.12c-.454.72-.774 1.813-.96 3.28-.16 1.44-.24 3.253-.24 5.44Zm21.478-14.68c2.133 0 3.786.787 4.96 2.36 1.173 1.547 1.76 3.733 1.76 6.56 0 2.827-.56 5.04-1.68 6.64-1.094 1.573-2.774 2.36-5.04 2.36-1.36 0-2.534-.36-3.52-1.08-.96-.72-1.707-1.747-2.24-3.08-.534-1.36-.8-2.973-.8-4.84 0-2.827.533-5.013 1.6-6.56 1.093-1.573 2.746-2.36 4.96-2.36Zm.08 4.08c-.56 0-.96.4-1.2 1.2-.24.8-.36 2.027-.36 3.68 0 1.627.12 2.853.36 3.68s.626 1.24 1.16 1.24c.586 0 1-.413 1.24-1.24s.36-2.053.36-3.68c0-1.653-.12-2.88-.36-3.68-.24-.8-.64-1.2-1.2-1.2Zm19.64-3.68L285.836 533h-4.92l14.88-28.56h4.92Zm-.08 11c1.413 0 2.613.36 3.6 1.08.986.693 1.746 1.707 2.28 3.04.533 1.307.8 2.907.8 4.8 0 2.827-.56 5.04-1.68 6.64-1.094 1.573-2.76 2.36-5 2.36-1.36 0-2.534-.36-3.52-1.08-.987-.72-1.747-1.747-2.28-3.08-.534-1.36-.8-2.973-.8-4.84 0-2.827.546-5.013 1.64-6.56 1.12-1.573 2.773-2.36 4.96-2.36Zm.04 4.08c-.56 0-.96.4-1.2 1.2-.24.8-.36 2.027-.36 3.68 0 1.627.12 2.853.36 3.68s.64 1.24 1.2 1.24c.56 0 .96-.4 1.2-1.2.266-.827.4-2.067.4-3.72s-.134-2.88-.4-3.68c-.267-.8-.667-1.2-1.2-1.2ZM250.4 788.72c0 2.293-.173 4.347-.52 6.16-.32 1.813-.867 3.36-1.64 4.64-.773 1.253-1.76 2.213-2.96 2.88-1.2.667-2.68 1-4.44 1-2.187 0-3.987-.587-5.4-1.76-1.413-1.173-2.453-2.853-3.12-5.04-.667-2.187-1-4.813-1-7.88 0-3.093.307-5.733.92-7.92.613-2.187 1.613-3.867 3-5.04 1.413-1.173 3.28-1.76 5.6-1.76 2.187 0 3.987.587 5.4 1.76 1.413 1.147 2.453 2.827 3.12 5.04.693 2.187 1.04 4.827 1.04 7.92Zm-12.64 0c0 2.16.08 3.973.24 5.44.187 1.44.507 2.533.96 3.28.453.72 1.08 1.08 1.88 1.08.8 0 1.413-.36 1.84-1.08.453-.72.773-1.8.96-3.24.213-1.467.32-3.293.32-5.48 0-2.187-.107-4-.32-5.44-.187-1.467-.507-2.56-.96-3.28-.427-.747-1.04-1.12-1.84-1.12s-1.427.373-1.88 1.12c-.453.72-.773 1.813-.96 3.28-.16 1.44-.24 3.253-.24 5.44Zm21.478-14.68c2.133 0 3.786.787 4.96 2.36 1.173 1.547 1.76 3.733 1.76 6.56 0 2.827-.56 5.04-1.68 6.64-1.094 1.573-2.774 2.36-5.04 2.36-1.36 0-2.534-.36-3.52-1.08-.96-.72-1.707-1.747-2.24-3.08-.534-1.36-.8-2.973-.8-4.84 0-2.827.533-5.013 1.6-6.56 1.093-1.573 2.746-2.36 4.96-2.36Zm.08 4.08c-.56 0-.96.4-1.2 1.2-.24.8-.36 2.027-.36 3.68 0 1.627.12 2.853.36 3.68s.626 1.24 1.16 1.24c.586 0 1-.413 1.24-1.24s.36-2.053.36-3.68c0-1.653-.12-2.88-.36-3.68-.24-.8-.64-1.2-1.2-1.2Zm19.64-3.68L264.078 803h-4.92l14.88-28.56h4.92Zm-.08 11c1.413 0 2.613.36 3.6 1.08.986.693 1.746 1.707 2.28 3.04.533 1.307.8 2.907.8 4.8 0 2.827-.56 5.04-1.68 6.64-1.094 1.573-2.76 2.36-5 2.36-1.36 0-2.534-.36-3.52-1.08-.987-.72-1.747-1.747-2.28-3.08-.534-1.36-.8-2.973-.8-4.84 0-2.827.546-5.013 1.64-6.56 1.12-1.573 2.773-2.36 4.96-2.36Zm.04 4.08c-.56 0-.96.4-1.2 1.2-.24.8-.36 2.027-.36 3.68 0 1.627.12 2.853.36 3.68s.64 1.24 1.2 1.24c.56 0 .96-.4 1.2-1.2.266-.827.4-2.067.4-3.72s-.134-2.88-.4-3.68c-.267-.8-.667-1.2-1.2-1.2Z"/>
    <path stroke="#333" stroke-width="4" d="M300 800h1300"/>
    <path fill="#3B82F6" d="M740 285H460c-5.523 0-10 4.477-10 10v495c0 5.523 4.477 10 10 10h280c5.523 0 10-4.477 10-10V295c0-5.523-4.477-10-10-10Zm-186.652-68.9c0 4.4-.333 8.667-1 12.8-.666 4.133-1.8 7.967-3.4 11.5-1.533 3.533-3.633 6.633-6.3 9.3-2.6 2.6-5.9 4.633-9.9 6.1-3.933 1.467-8.633 2.2-14.1 2.2-1.333 0-2.9-.067-4.7-.2-1.733-.067-3.233-.233-4.5-.5v-12.1c1.267.267 2.567.5 3.9.7 1.334.2 2.7.3 4.1.3 4.067 0 7.434-.533 10.1-1.6 2.734-1.067 4.867-2.6 6.4-4.6 1.6-2 2.734-4.367 3.4-7.1.667-2.733 1.067-5.733 1.2-9h-.5a23.895 23.895 0 0 1-3 4.2c-1.133 1.267-2.6 2.267-4.4 3-1.8.733-4.166 1.1-7.1 1.1-3.733 0-6.966-.867-9.7-2.6-2.733-1.8-4.866-4.367-6.4-7.7-1.466-3.4-2.2-7.5-2.2-12.3 0-5.2.934-9.667 2.8-13.4 1.867-3.733 4.5-6.6 7.9-8.6 3.467-2 7.6-3 12.4-3 3.534 0 6.8.633 9.8 1.9 3 1.267 5.634 3.2 7.9 5.8 2.334 2.6 4.134 5.9 5.4 9.9 1.267 3.933 1.9 8.567 1.9 13.9Zm-24.6-19.4c-2.266 0-4.166 1.033-5.7 3.1-1.466 2.067-2.2 5.267-2.2 9.6 0 3.533.634 6.3 1.9 8.3 1.267 1.933 3.134 2.9 5.6 2.9 1.8 0 3.367-.5 4.7-1.5 1.334-1 2.367-2.233 3.1-3.7.734-1.533 1.1-3.1 1.1-4.7 0-1.867-.2-3.633-.6-5.3-.333-1.667-.833-3.133-1.5-4.4-.666-1.333-1.566-2.367-2.7-3.1-1.133-.8-2.366-1.2-3.7-1.2Zm57.195 14.7c3.933 0 7.433.833 10.5 2.5 3.133 1.667 5.6 4.1 7.4 7.3 1.867 3.2 2.8 7.167 2.8 11.9 0 5.133-1 9.567-3 13.3-2 3.733-5 6.6-9 8.6s-9 3-15 3c-3.667 0-7.1-.333-10.3-1-3.133-.667-5.9-1.633-8.3-2.9v-13c2.333 1.267 5.133 2.367 8.4 3.3 3.333.867 6.4 1.3 9.2 1.3 2.533 0 4.667-.4 6.4-1.2 1.733-.8 3.033-2.033 3.9-3.7.933-1.667 1.4-3.8 1.4-6.4 0-3.533-1-6.2-3-8-2-1.867-5.067-2.8-9.2-2.8-1.733 0-3.467.2-5.2.6a69.705 69.705 0 0 0-4.5 1l-6.2-3.2 2.6-36.4h37.3v12.8h-23.4l-1.1 14 3.2-.6c1.133-.267 2.833-.4 5.1-.4Zm43.695-26.8c5.333 0 9.466 1.967 12.4 5.9 2.933 3.867 4.4 9.333 4.4 16.4 0 7.067-1.4 12.6-4.2 16.6-2.734 3.933-6.934 5.9-12.6 5.9-3.4 0-6.334-.9-8.8-2.7-2.4-1.8-4.267-4.367-5.6-7.7-1.334-3.4-2-7.433-2-12.1 0-7.067 1.333-12.533 4-16.4 2.733-3.933 6.866-5.9 12.4-5.9Zm.2 10.2c-1.4 0-2.4 1-3 3-.6 2-.9 5.067-.9 9.2 0 4.067.3 7.133.9 9.2.6 2.067 1.566 3.1 2.9 3.1 1.466 0 2.5-1.033 3.1-3.1.6-2.067.9-5.133.9-9.2 0-4.133-.3-7.2-.9-9.2-.6-2-1.6-3-3-3Zm49.1-9.2-37.2 71.4h-12.3l37.2-71.4h12.3Zm-.2 27.5c3.533 0 6.533.9 9 2.7 2.466 1.733 4.366 4.267 5.7 7.6 1.333 3.267 2 7.267 2 12 0 7.067-1.4 12.6-4.2 16.6-2.734 3.933-6.9 5.9-12.5 5.9-3.4 0-6.334-.9-8.8-2.7-2.467-1.8-4.367-4.367-5.7-7.7-1.334-3.4-2-7.433-2-12.1 0-7.067 1.366-12.533 4.1-16.4 2.8-3.933 6.933-5.9 12.4-5.9Zm.1 10.2c-1.4 0-2.4 1-3 3-.6 2-.9 5.067-.9 9.2 0 4.067.3 7.133.9 9.2.6 2.067 1.6 3.1 3 3.1s2.4-1 3-3c.666-2.067 1-5.167 1-9.3 0-4.133-.334-7.2-1-9.2-.667-2-1.667-3-3-3Z"/>
    <path fill="#000" d="M555.75 812.75h12.9v5.45h-12.9v-5.45Zm0 11.3h12.9v5.3h-12.9v-5.3Zm-.05 11.45h13v5.35h-13v-5.35Zm10.4-22.75h5.75v38.1c0 1.467-.167 2.617-.5 3.45-.333.867-.933 1.55-1.8 2.05-.867.467-1.967.767-3.3.9-1.3.133-2.883.183-4.75.15-.1-.8-.317-1.767-.65-2.9-.333-1.1-.683-2.033-1.05-2.8 1.067.067 2.117.1 3.15.1h2.15c.367 0 .617-.067.75-.2.167-.167.25-.433.25-.8v-38.05Zm-12.85 0h5.65v18.4c0 1.967-.067 4.117-.2 6.45-.1 2.333-.333 4.7-.7 7.1a51.657 51.657 0 0 1-1.45 6.9c-.633 2.233-1.5 4.233-2.6 6-.3-.367-.75-.783-1.35-1.25-.6-.433-1.2-.85-1.8-1.25-.6-.4-1.133-.7-1.6-.9 1.267-2.167 2.183-4.583 2.75-7.25a50.75 50.75 0 0 0 1.05-8.1c.167-2.767.25-5.333.25-7.7v-18.4Zm-26.15 3.65h24.5v5.25h-24.5v-5.25Zm6.5 8.2h11.95v4.55H533.6v-4.55Zm0 7.75h11.95v4.6H533.6v-4.6Zm-7.1 7.95h24.75v5.25H526.5v-5.25Zm4.5-29.2h5.4v31.1H531v-31.1Zm11.65 0h5.5v31.1h-5.5v-31.1Zm-9.95 34.8 5.7 1.65c-.933 1.833-2.083 3.65-3.45 5.45-1.367 1.833-2.717 3.367-4.05 4.6-.333-.367-.8-.767-1.4-1.2a42.52 42.52 0 0 0-1.8-1.3c-.6-.433-1.133-.783-1.6-1.05 1.333-1 2.583-2.233 3.75-3.7 1.2-1.467 2.15-2.95 2.85-4.45Zm7.45 2.25 4.55-2.5c.667.7 1.35 1.5 2.05 2.4a46.54 46.54 0 0 1 2.05 2.6c.667.833 1.2 1.6 1.6 2.3l-4.85 2.8c-.333-.667-.817-1.45-1.45-2.35-.6-.867-1.25-1.767-1.95-2.7a70.3 70.3 0 0 0-2-2.55Zm54.05-31.95h27.05v5.45H594.2v-5.45Zm-2.35 19.25h31.3v5.4h-31.3v-5.4Zm-.5-9.45h32.25v5.45h-32.25V826Zm13.1-15.25h5.95v18.1h-5.95v-18.1Zm6.85 19.8h6v20.65c0 1.467-.183 2.6-.55 3.4-.367.833-1.05 1.483-2.05 1.95-1 .433-2.217.7-3.65.8-1.4.1-3.05.15-4.95.15-.1-.833-.333-1.8-.7-2.9-.333-1.067-.7-1.983-1.1-2.75l2.45.1h2.2c.633-.033 1.067-.05 1.3-.05.4 0 .667-.05.8-.15.167-.133.25-.367.25-.7v-20.5Zm-16.65 13.2 4.95-2.6a43.5 43.5 0 0 1 2.25 2.8 49.866 49.866 0 0 1 2.1 3.05c.667.967 1.167 1.867 1.5 2.7l-5.25 2.9c-.3-.8-.75-1.717-1.35-2.75a49.339 49.339 0 0 0-2-3.15 45.2 45.2 0 0 0-2.2-2.95Zm-6.65-22.2 5.2 2.2a56.48 56.48 0 0 1-4.2 6.2 78.296 78.296 0 0 1-5.05 5.9c-1.767 1.833-3.5 3.433-5.2 4.8-.133-.467-.367-1.083-.7-1.85-.333-.8-.7-1.6-1.1-2.4-.4-.8-.733-1.433-1-1.9a47.196 47.196 0 0 0 4.4-3.65 53.5 53.5 0 0 0 4.25-4.45c1.333-1.6 2.467-3.217 3.4-4.85Zm-1.25-10.95 5.6 2.3a45.136 45.136 0 0 1-3.75 4.65 56.156 56.156 0 0 1-4.55 4.35 44.083 44.083 0 0 1-4.7 3.6c-.2-.467-.483-1.017-.85-1.65a52.79 52.79 0 0 0-1.05-1.9c-.367-.633-.7-1.15-1-1.55 1.3-.8 2.6-1.75 3.9-2.85a40.748 40.748 0 0 0 3.7-3.45c1.133-1.233 2.033-2.4 2.7-3.5Zm-3.45 22.15 5.45-5.55.3.1v30.15h-5.75v-24.7Zm59.9-17.65h29.7v5.1h-29.7v-5.1Zm1.55 34.9h28.45v5.15h-28.45V850Zm11.6-39.45 5.95.3a99.45 99.45 0 0 1-.45 5.1 177.31 177.31 0 0 1-.65 5.1c-.2 1.633-.4 3.083-.6 4.35h-5.55c.2-1.3.383-2.8.55-4.5.167-1.7.317-3.45.45-5.25.133-1.8.233-3.5.3-5.1Zm-.25 23.35v2.6h8.95v-2.6h-8.95Zm0 6.6v2.6h8.95v-2.6h-8.95Zm0-13.2v2.55h8.95v-2.55h-8.95Zm-5.55-4.3h20.25v24.4h-20.25V823Zm-8.6 2.95h5.55v31.5h-5.55v-31.5Zm-5.1-15.25 5.65 1.8a85.573 85.573 0 0 1-3.8 8.5 87.647 87.647 0 0 1-4.75 8.1c-1.7 2.533-3.467 4.75-5.3 6.65-.167-.5-.45-1.133-.85-1.9-.367-.8-.767-1.6-1.2-2.4-.433-.8-.817-1.45-1.15-1.95 1.5-1.533 2.95-3.3 4.35-5.3 1.433-2 2.75-4.15 3.95-6.45a48.72 48.72 0 0 0 3.1-7.05Zm-4.8 13.85 5.7-5.7v38.55h-5.7v-32.85Z"/>
    <path fill="#fff" d="M506.733 468.92h13.28v4.32h-8.52v21.24h-4.76v-25.56Zm34 34.08-1.64-6.8h-9.24l-1.68 6.8h-7.04l9.12-28.68h8.32l9.16 28.68h-7Zm-4.92-18.52c-.16-.56-.32-1.147-.48-1.76a99.65 99.65 0 0 1-.48-1.92c-.134-.667-.267-1.347-.4-2.04-.107.693-.24 1.387-.4 2.08a99.65 99.65 0 0 1-.48 1.92c-.134.613-.28 1.187-.44 1.72l-1.84 6.64h6.4l-1.88-6.64ZM562.054 503h-13.08v-3.44l3.32-1.6v-18.48l-3.32-1.6v-3.44h13.08v3.44l-3.28 1.6v18.48l3.28 1.6V503Zm19.427-31.32c-.106.507-.226 1.067-.36 1.68a113.85 113.85 0 0 0-.36 1.64c-.106.587-.24 1.253-.4 2-.16.72-.32 1.453-.48 2.2-.133.72-.28 1.427-.44 2.12a142.609 142.609 0 0 1-2.4 8.92 86.76 86.76 0 0 1-1.8 5.24 98.505 98.505 0 0 1-2.12 5.16 34.962 34.962 0 0 1-2.4 4.48l-5.2-2.08a30.299 30.299 0 0 0 2.6-4.2 55.46 55.46 0 0 0 2.24-4.8 67.22 67.22 0 0 0 1.76-4.88 87.197 87.197 0 0 0 1.36-4.52c.4-1.387.707-2.573.92-3.56.374-1.813.667-3.56.88-5.24a29.34 29.34 0 0 0 .24-4.76l5.96.6Zm13.76 4.04c.64.88 1.294 1.96 1.96 3.24a68.819 68.819 0 0 1 2.04 4 83.015 83.015 0 0 1 1.8 4.08c.534 1.307.947 2.44 1.24 3.4l-5.08 2.32c-.24-1.12-.6-2.36-1.08-3.72a46.426 46.426 0 0 0-1.6-4.12 46.217 46.217 0 0 0-1.96-4c-.666-1.253-1.36-2.307-2.08-3.16l4.76-2.04Zm-30 4.16c.72.053 1.427.08 2.12.08l2.16-.08c.667-.027 1.467-.067 2.4-.12.934-.08 1.92-.16 2.96-.24l3.2-.24a71.914 71.914 0 0 1 2.96-.24c.907-.053 1.654-.08 2.24-.08 1.44 0 2.694.24 3.76.72 1.067.453 1.907 1.24 2.52 2.36.64 1.12.96 2.64.96 4.56 0 1.573-.066 3.28-.2 5.12-.133 1.84-.373 3.6-.72 5.28-.32 1.68-.773 3.107-1.36 4.28-.64 1.387-1.52 2.347-2.64 2.88-1.093.533-2.4.8-3.92.8-.746 0-1.56-.067-2.44-.2a35.24 35.24 0 0 1-2.36-.36l-.84-5.28c.507.133 1.067.267 1.68.4.64.133 1.24.24 1.8.32.587.08 1.054.12 1.4.12.667 0 1.254-.12 1.76-.36.507-.267.92-.72 1.24-1.36.374-.773.68-1.773.92-3s.414-2.547.52-3.96c.134-1.44.2-2.813.2-4.12 0-1.067-.16-1.853-.48-2.36-.293-.507-.733-.84-1.32-1-.56-.187-1.253-.28-2.08-.28-.613 0-1.44.053-2.48.16-1.04.08-2.16.187-3.36.32a83.932 83.932 0 0 0-3.28.36 70.7 70.7 0 0 1-2.36.28 67.15 67.15 0 0 1-2.24.36 45.03 45.03 0 0 0-2.24.32l-.48-5.44Zm29.28-9.72c.347.48.707 1.053 1.08 1.72.4.667.787 1.333 1.16 2 .374.667.694 1.253.96 1.76l-3.24 1.4a69.903 69.903 0 0 0-2-3.84 13.625 13.625 0 0 0-1.12-1.72l3.16-1.32Zm4.76-1.8c.347.507.72 1.093 1.12 1.76.4.667.787 1.333 1.16 2 .4.667.707 1.227.92 1.68l-3.16 1.36a84.532 84.532 0 0 0-1.52-2.8c-.586-1.067-1.16-1.973-1.72-2.72l3.2-1.28Zm30.12 2.4c-.026.213-.066.56-.12 1.04l-.08 1.4c-.026.453-.053.787-.08 1a46.47 46.47 0 0 0-.04 2.16v6.28a126.5 126.5 0 0 1 .04 3.12c.027.96.04 1.76.04 2.4l-5-1.68v-4.76c0-1.013-.013-2.013-.04-3 0-.987-.013-1.88-.04-2.68-.026-.8-.053-1.4-.08-1.8a33.479 33.479 0 0 0-.2-2.16c-.08-.64-.146-1.08-.2-1.32h5.8Zm-22.6 4.96c1.174 0 2.507-.013 4-.04 1.494-.027 3.054-.053 4.68-.08l4.8-.08a259.44 259.44 0 0 1 4.44-.04c1.387-.027 2.587-.04 3.6-.04h3.32c1.2-.027 2.387-.04 3.56-.04h5.48l-.04 4.72a178.233 178.233 0 0 0-4.96-.12 298.49 298.49 0 0 0-7.52-.08c-1.813 0-3.653.027-5.52.08-1.866.027-3.72.067-5.56.12-1.84.053-3.613.12-5.32.2-1.706.053-3.32.133-4.84.24l-.12-4.84Zm21.64 11.84c0 2.187-.266 4-.8 5.44-.506 1.44-1.28 2.533-2.32 3.28-1.04.72-2.333 1.08-3.88 1.08-.746 0-1.533-.16-2.36-.48a7.69 7.69 0 0 1-2.24-1.4c-.693-.613-1.253-1.373-1.68-2.28-.4-.907-.6-1.973-.6-3.2 0-1.52.36-2.827 1.08-3.92a7.32 7.32 0 0 1 2.88-2.6c1.227-.64 2.574-.96 4.04-.96 1.76 0 3.227.4 4.4 1.2 1.2.773 2.094 1.827 2.68 3.16.614 1.333.92 2.84.92 4.52 0 1.307-.213 2.667-.64 4.08-.426 1.413-1.133 2.8-2.12 4.16-.96 1.333-2.266 2.547-3.92 3.64-1.626 1.093-3.666 1.987-6.12 2.68l-4.28-4.24c1.707-.347 3.294-.8 4.76-1.36 1.467-.56 2.747-1.267 3.84-2.12a8.766 8.766 0 0 0 2.6-3.16c.64-1.253.96-2.76.96-4.52 0-1.28-.32-2.24-.96-2.88a2.985 2.985 0 0 0-2.24-.96c-.506 0-1 .12-1.48.36s-.866.6-1.16 1.08c-.293.48-.44 1.067-.44 1.76 0 .907.307 1.64.92 2.2.64.533 1.36.8 2.16.8.64 0 1.2-.2 1.68-.6.507-.4.84-1.067 1-2 .16-.933.027-2.187-.4-3.76l3.72 1Zm13.228 4.24c.586-.48 1.133-.96 1.64-1.44a33.22 33.22 0 0 0 1.72-1.68c.453-.507.973-1.107 1.56-1.8.613-.72 1.253-1.493 1.92-2.32l2-2.48c.666-.827 1.32-1.6 1.96-2.32 1.386-1.6 2.746-2.453 4.08-2.56 1.333-.133 2.733.52 4.2 1.96.933.88 1.88 1.893 2.84 3.04.96 1.12 1.906 2.24 2.84 3.36a245.49 245.49 0 0 0 2.6 2.92c.64.693 1.333 1.44 2.08 2.24.746.773 1.533 1.587 2.36 2.44l2.56 2.56c.906.853 1.84 1.707 2.8 2.56l-4.2 4.72c-.96-.907-1.96-1.92-3-3.04a329.086 329.086 0 0 1-3-3.44c-.96-1.173-1.867-2.24-2.72-3.2a766.363 766.363 0 0 1-2.6-3.12 186.157 186.157 0 0 0-2.6-3.16 56.544 56.544 0 0 0-2.2-2.56c-.454-.533-.867-.867-1.24-1-.347-.133-.68-.093-1 .12-.32.187-.68.52-1.08 1-.374.507-.84 1.107-1.4 1.8-.534.693-1.094 1.427-1.68 2.2-.56.773-1.12 1.533-1.68 2.28-.534.72-1.014 1.36-1.44 1.92-.454.667-.907 1.36-1.36 2.08-.427.72-.814 1.347-1.16 1.88l-4.8-4.96Zm27.16-16.36c.373.56.8 1.227 1.28 2 .48.747.946 1.52 1.4 2.32a28.88 28.88 0 0 1 1.12 2.08l-3.6 1.56c-.4-.827-.787-1.6-1.16-2.32a31.805 31.805 0 0 0-1.16-2.12c-.4-.693-.854-1.387-1.36-2.08l3.48-1.44Zm5.36-2.2c.426.533.88 1.187 1.36 1.96.48.747.946 1.507 1.4 2.28.48.747.866 1.413 1.16 2l-3.48 1.68a44.62 44.62 0 0 0-2.48-4.36 24.194 24.194 0 0 0-1.4-1.96l3.44-1.6Zm7.518 2.24c.8-.027 1.56-.053 2.28-.08.72-.053 1.28-.093 1.68-.12.827-.08 1.84-.173 3.04-.28l4.04-.36a512.77 512.77 0 0 1 4.84-.4c1.707-.16 3.48-.32 5.32-.48 1.387-.107 2.774-.2 4.16-.28 1.387-.107 2.694-.187 3.92-.24a97.424 97.424 0 0 1 3.24-.16l.04 5.12c-.72 0-1.546.013-2.48.04-.933.027-1.866.08-2.8.16-.906.053-1.72.16-2.44.32-1.2.32-2.32.867-3.36 1.64a12.798 12.798 0 0 0-2.68 2.68 12.798 12.798 0 0 0-1.8 3.36c-.4 1.173-.6 2.36-.6 3.56 0 1.307.227 2.467.68 3.48a7.778 7.778 0 0 0 1.88 2.56c.827.693 1.787 1.28 2.88 1.76 1.094.453 2.267.8 3.52 1.04 1.28.24 2.6.4 3.96.48l-1.88 5.48a25.258 25.258 0 0 1-4.92-.8 20.841 20.841 0 0 1-4.44-1.76 15.222 15.222 0 0 1-3.6-2.72 12.318 12.318 0 0 1-2.44-3.72c-.586-1.413-.88-2.987-.88-4.72 0-1.947.307-3.72.92-5.32.614-1.6 1.374-3 2.28-4.2.907-1.227 1.814-2.173 2.72-2.84-.746.08-1.653.187-2.72.32-1.04.107-2.173.24-3.4.4-1.2.133-2.426.28-3.68.44-1.253.16-2.466.347-3.64.56a89.217 89.217 0 0 0-3.12.56l-.52-5.48Zm-234.816 53.84h11.12v3.52h-11.12v-3.52Zm0 6.52h11.12v3.4h-11.12v-3.4Zm0 6.72h11.12v3.52h-11.12v-3.52Zm17.36-4.56h15.04v4.04h-15.04V538Zm-15.36-15.28h6.32v3.64h-6.32v-3.64Zm12.32-1.68h14.88V525h-14.88v-3.96Zm.04 24.64h18.84v4.12h-18.84v-4.12Zm7.44-11.28h4.56v22.04h-4.56V534.4Zm-17.44-3.24h3.16v12.72h-3.16v-12.72Zm23.56-10.12h4.24l-.04.6c0 .373-.013.693-.04.96-.053 2.107-.133 3.853-.24 5.24-.107 1.387-.253 2.48-.44 3.28-.187.8-.427 1.373-.72 1.72-.32.4-.68.693-1.08.88-.4.187-.853.333-1.36.44-.453.053-1.04.093-1.76.12-.72 0-1.493-.013-2.32-.04a9.696 9.696 0 0 0-.32-2c-.187-.747-.44-1.373-.76-1.88.64.053 1.213.093 1.72.12.507.027.893.04 1.16.04.24 0 .44-.013.6-.04a.884.884 0 0 0 .48-.36c.16-.187.293-.573.4-1.16.107-.613.2-1.507.28-2.68.08-1.173.147-2.72.2-4.64v-.6Zm-11.4 13.64 3.92.8a33.523 33.523 0 0 1-1.48 5.32c-.613 1.733-1.307 3.187-2.08 4.36-.267-.187-.613-.4-1.04-.64-.427-.24-.867-.467-1.32-.68a28.73 28.73 0 0 0-1.16-.52c.773-1.067 1.427-2.373 1.96-3.92a29.24 29.24 0 0 0 1.2-4.72Zm-15.48-15.72 4.28.96a55.195 55.195 0 0 1-1.8 5.36 39.948 39.948 0 0 1-2.32 4.92c-.827 1.52-1.72 2.853-2.68 4-.24-.24-.573-.533-1-.88a47.05 47.05 0 0 0-1.28-1.08c-.427-.373-.813-.653-1.16-.84 1.36-1.493 2.56-3.333 3.6-5.52a33.085 33.085 0 0 0 2.36-6.92Zm-2.8 10.36h3.84v10.6c0 1.28-.053 2.653-.16 4.12-.08 1.467-.24 2.96-.48 4.48a26.534 26.534 0 0 1-1 4.36 16.06 16.06 0 0 1-1.8 3.8c-.213-.24-.533-.507-.96-.8-.4-.267-.827-.533-1.28-.8-.427-.24-.8-.427-1.12-.56a15.159 15.159 0 0 0 2-4.6c.427-1.707.693-3.427.8-5.16.107-1.76.16-3.387.16-4.88v-10.56Zm11.56 0h3.96v22.64c0 .96-.107 1.747-.32 2.36-.213.613-.627 1.093-1.24 1.44s-1.347.56-2.2.64c-.853.107-1.907.16-3.16.16-.053-.587-.227-1.28-.52-2.08-.267-.8-.547-1.467-.84-2 .8.027 1.547.053 2.24.08h1.44c.24 0 .4-.04.48-.12.107-.107.16-.293.16-.56v-22.56Zm9.36-6.96h4.28c-.16 1.947-.48 3.747-.96 5.4a11.58 11.58 0 0 1-2.28 4.36c-1.067 1.28-2.587 2.36-4.56 3.24-.24-.507-.613-1.093-1.12-1.76-.48-.667-.947-1.173-1.4-1.52 1.6-.667 2.8-1.48 3.6-2.44a8.087 8.087 0 0 0 1.72-3.28c.347-1.227.587-2.56.72-4Zm-12 .36h.92l.6-.16 2.76 1.68a41.062 41.062 0 0 1-1.72 4.08 47.576 47.576 0 0 1-1.96 3.64c-.4-.293-.893-.613-1.48-.96a18.857 18.857 0 0 0-1.48-.84c.32-.64.627-1.347.92-2.12.32-.8.6-1.6.84-2.4a23.18 23.18 0 0 0 .6-2.16v-.76Zm41.76 2.44h21.16v13.72h-4.72v-9.2h-16.44v-4.52Zm-1.96 11.8h26.12v4.48h-26.12v-4.48Zm8.64-17.92h4.8v14c0 2.16-.12 4.333-.36 6.52a26.65 26.65 0 0 1-1.52 6.4c-.747 2.053-1.893 4-3.44 5.84-1.547 1.813-3.627 3.453-6.24 4.92-.293-.347-.68-.733-1.16-1.16a34.488 34.488 0 0 0-1.44-1.28c-.507-.4-.973-.72-1.4-.96 2.453-1.307 4.4-2.733 5.84-4.28 1.44-1.573 2.507-3.227 3.2-4.96a20.415 20.415 0 0 0 1.4-5.44c.213-1.867.32-3.747.32-5.64v-13.96Zm7 20.44c.853 2.907 2.187 5.507 4 7.8 1.84 2.293 4.147 4.027 6.92 5.2-.373.293-.773.68-1.2 1.16-.427.507-.84 1.027-1.24 1.56-.373.533-.68 1.027-.92 1.48-3.093-1.52-5.6-3.653-7.52-6.4-1.92-2.773-3.413-6.013-4.48-9.72l4.44-1.08Zm-24.84-16.76 2.6-3.52c.827.32 1.693.707 2.6 1.16.933.453 1.813.92 2.64 1.4.853.48 1.533.96 2.04 1.44l-2.76 3.92c-.48-.48-1.12-.987-1.92-1.52a33.775 33.775 0 0 0-2.6-1.56 34.013 34.013 0 0 0-2.6-1.32Zm-2.32 10.92 2.56-3.64c.853.293 1.747.653 2.68 1.08.933.427 1.827.88 2.68 1.36.853.48 1.547.947 2.08 1.4l-2.76 4c-.48-.453-1.133-.933-1.96-1.44a31.313 31.313 0 0 0-2.64-1.52 29.104 29.104 0 0 0-2.64-1.24Zm1.12 19.4a132.96 132.96 0 0 0 2.24-3.64 112.759 112.759 0 0 0 2.48-4.48 78.05 78.05 0 0 0 2.36-4.72l3.68 3a211.909 211.909 0 0 1-2.12 4.36 132.18 132.18 0 0 1-2.2 4.36 191.822 191.822 0 0 1-2.24 4.12l-4.2-3Zm52.6-31.76c-.107.827-.213 1.72-.32 2.68-.08.96-.147 1.84-.2 2.64-.027 1.093-.08 2.427-.16 4-.053 1.547-.107 3.173-.16 4.88a310.566 310.566 0 0 1-.12 5.04 268.38 268.38 0 0 0-.04 4.32c0 1.333.24 2.4.72 3.2a4.374 4.374 0 0 0 2 1.68c.827.32 1.76.48 2.8.48 1.653 0 3.16-.213 4.52-.64 1.36-.453 2.6-1.053 3.72-1.8a15.58 15.58 0 0 0 3-2.6 24.636 24.636 0 0 0 2.44-3.12l3.64 4.4c-.64.96-1.48 1.973-2.52 3.04s-2.28 2.067-3.72 3c-1.413.933-3.053 1.693-4.92 2.28-1.867.587-3.933.88-6.2.88-2.187 0-4.093-.347-5.72-1.04-1.6-.667-2.853-1.707-3.76-3.12-.88-1.44-1.32-3.293-1.32-5.56 0-1.093.013-2.333.04-3.72.027-1.413.067-2.88.12-4.4.053-1.52.093-3 .12-4.44.027-1.467.053-2.787.08-3.96.027-1.173.04-2.107.04-2.8 0-.96-.04-1.893-.12-2.8-.08-.933-.213-1.8-.4-2.6l6.44.08Zm26.789 4.2c.8-.027 1.56-.053 2.28-.08.72-.053 1.28-.093 1.68-.12.827-.08 1.84-.173 3.04-.28l4.04-.36c1.52-.133 3.133-.267 4.84-.4 1.707-.16 3.48-.32 5.32-.48 1.387-.107 2.773-.2 4.16-.28 1.387-.107 2.693-.187 3.92-.24a97.164 97.164 0 0 1 3.24-.16l.04 5.12c-.72 0-1.547.013-2.48.04a49.56 49.56 0 0 0-2.8.16c-.907.053-1.72.16-2.44.32-1.2.32-2.32.867-3.36 1.64a12.775 12.775 0 0 0-2.68 2.68 12.798 12.798 0 0 0-1.8 3.36c-.4 1.173-.6 2.36-.6 3.56 0 1.307.227 2.467.68 3.48a7.764 7.764 0 0 0 1.88 2.56c.827.693 1.787 1.28 2.88 1.76 1.093.453 2.267.8 3.52 1.04 1.28.24 2.6.4 3.96.48l-1.88 5.48a25.258 25.258 0 0 1-4.92-.8 20.841 20.841 0 0 1-4.44-1.76 15.222 15.222 0 0 1-3.6-2.72 12.318 12.318 0 0 1-2.44-3.72c-.587-1.413-.88-2.987-.88-4.72 0-1.947.307-3.72.92-5.32s1.373-3 2.28-4.2c.907-1.227 1.813-2.173 2.72-2.84-.747.08-1.653.187-2.72.32-1.04.107-2.173.24-3.4.4-1.2.133-2.427.28-3.68.44a70.04 70.04 0 0 0-3.64.56 88.38 88.38 0 0 0-3.12.56l-.52-5.48Zm65.309-1.32a31.54 31.54 0 0 0-1.88 1.44c-.613.48-1.147.92-1.6 1.32-.667.507-1.467 1.133-2.4 1.88-.907.72-1.867 1.48-2.88 2.28-.987.773-1.947 1.533-2.88 2.28a68.31 68.31 0 0 0-2.4 2c-.693.613-1.16 1.12-1.4 1.52-.24.373-.24.747 0 1.12.267.373.76.88 1.48 1.52.587.507 1.333 1.133 2.24 1.88.933.747 1.933 1.573 3 2.48 1.093.88 2.2 1.8 3.32 2.76a89.233 89.233 0 0 1 3.28 2.8 59.874 59.874 0 0 1 2.84 2.56l-4.68 4.28a113.547 113.547 0 0 0-3.48-3.72 59.243 59.243 0 0 0-2.4-2.24 91.772 91.772 0 0 0-3.16-2.84c-1.12-.987-2.24-1.96-3.36-2.92a245.796 245.796 0 0 0-3.04-2.64c-1.333-1.12-2.2-2.147-2.6-3.08-.373-.933-.32-1.853.16-2.76.507-.933 1.427-1.947 2.76-3.04.8-.613 1.707-1.333 2.72-2.16 1.013-.853 2.053-1.72 3.12-2.6 1.067-.907 2.08-1.773 3.04-2.6.96-.853 1.773-1.6 2.44-2.24a116.22 116.22 0 0 0 1.76-1.8c.587-.613 1.027-1.147 1.32-1.6l4.68 4.12Zm49.64 26.76a12.377 12.377 0 0 1-3.24 2.12c-1.227.56-2.653.84-4.28.84-1.493 0-2.707-.52-3.64-1.56-.907-1.04-1.36-2.533-1.36-4.48 0-1.067.067-2.213.2-3.44.16-1.253.333-2.507.52-3.76.187-1.253.347-2.44.48-3.56.16-1.147.24-2.173.24-3.08 0-.987-.24-1.72-.72-2.2-.48-.507-1.147-.76-2-.76-.933 0-1.973.333-3.12 1-1.147.64-2.32 1.467-3.52 2.48a43.586 43.586 0 0 0-3.44 3.24c-1.067 1.147-2 2.24-2.8 3.28l-.04-6.16c.48-.533 1.107-1.16 1.88-1.88.8-.72 1.693-1.467 2.68-2.24a36.84 36.84 0 0 1 3.16-2.16 19.805 19.805 0 0 1 3.36-1.68c1.147-.427 2.253-.64 3.32-.64 1.44 0 2.613.267 3.52.8.933.507 1.627 1.213 2.08 2.12.453.88.68 1.88.68 3 0 1.04-.067 2.173-.2 3.4a98.32 98.32 0 0 1-.48 3.68 93.37 93.37 0 0 0-.48 3.72 38.93 38.93 0 0 0-.16 3.36c0 .533.133.973.4 1.32.267.32.64.48 1.12.48.747 0 1.573-.24 2.48-.72.907-.507 1.813-1.227 2.72-2.16l.64 5.64Zm-27.64-19.08c-.427.053-.973.12-1.64.2-.667.08-1.387.173-2.16.28-.747.107-1.507.213-2.28.32-.773.107-1.493.2-2.16.28l-.52-5.12c.587.027 1.133.04 1.64.04.533-.027 1.147-.053 1.84-.08.64-.053 1.4-.12 2.28-.2a97.36 97.36 0 0 0 2.72-.36c.933-.133 1.8-.28 2.6-.44.8-.16 1.427-.32 1.88-.48l1.6 2.04c-.24.32-.52.72-.84 1.2-.293.48-.6.973-.92 1.48-.32.48-.6.907-.84 1.28l-2.36 7.52c-.427.613-.96 1.387-1.6 2.32a550.31 550.31 0 0 1-1.96 2.96c-.693 1.04-1.373 2.04-2.04 3s-1.267 1.8-1.8 2.52l-3.16-4.36c.507-.64 1.08-1.373 1.72-2.2.667-.853 1.36-1.747 2.08-2.68.72-.96 1.427-1.907 2.12-2.84a415.26 415.26 0 0 0 1.92-2.68 60.919 60.919 0 0 0 1.52-2.2l.08-1.04.28-.76Zm-.48-7.68v-1.76c0-.613-.053-1.227-.16-1.84l5.84.2c-.16.613-.333 1.507-.52 2.68-.16 1.147-.333 2.467-.52 3.96-.16 1.493-.32 3.067-.48 4.72a307.813 307.813 0 0 0-.36 4.88 93.194 93.194 0 0 0-.12 4.56v3.32l.08 3.44c.027 1.173.08 2.387.16 3.64.027.347.067.827.12 1.44.053.64.107 1.187.16 1.64h-5.52c.053-.48.08-1.013.08-1.6.027-.587.04-1.04.04-1.36.027-1.307.053-2.52.08-3.64.027-1.12.04-2.307.04-3.56.027-1.253.067-2.707.12-4.36.027-.613.067-1.387.12-2.32.053-.96.107-2 .16-3.12l.24-3.48c.08-1.173.147-2.267.2-3.28.08-1.04.133-1.92.16-2.64.053-.747.08-1.253.08-1.52Zm37.92-1.64c.56.08 1.16.133 1.8.16.64.027 1.253.04 1.84.04h1.92c.853-.027 1.813-.053 2.88-.08l3.24-.08c1.067-.027 2.027-.053 2.88-.08.88-.053 1.56-.093 2.04-.12.827-.08 1.48-.147 1.96-.2.48-.08.84-.16 1.08-.24l2.6 3.56c-.453.293-.92.587-1.4.88-.48.293-.947.613-1.4.96-.533.373-1.173.867-1.92 1.48-.747.587-1.547 1.213-2.4 1.88-.827.667-1.64 1.32-2.44 1.96-.773.64-1.48 1.213-2.12 1.72.667-.16 1.307-.267 1.92-.32.613-.08 1.24-.12 1.88-.12 2.267 0 4.293.44 6.08 1.32 1.813.88 3.24 2.08 4.28 3.6 1.067 1.493 1.6 3.213 1.6 5.16 0 2.107-.533 4.013-1.6 5.72-1.067 1.707-2.68 3.067-4.84 4.08-2.133 1.013-4.813 1.52-8.04 1.52-1.84 0-3.507-.267-5-.8-1.467-.533-2.627-1.293-3.48-2.28-.853-.987-1.28-2.147-1.28-3.48 0-1.093.293-2.107.88-3.04.613-.96 1.453-1.733 2.52-2.32 1.093-.587 2.347-.88 3.76-.88 1.84 0 3.387.373 4.64 1.12 1.28.72 2.253 1.693 2.92 2.92.693 1.227 1.053 2.573 1.08 4.04l-4.68.64c-.027-1.467-.4-2.64-1.12-3.52-.693-.907-1.627-1.36-2.8-1.36-.747 0-1.347.2-1.8.6-.453.373-.68.813-.68 1.32 0 .747.373 1.347 1.12 1.8.747.453 1.72.68 2.92.68 2.267 0 4.16-.267 5.68-.8 1.52-.56 2.653-1.347 3.4-2.36.773-1.04 1.16-2.267 1.16-3.68 0-1.2-.373-2.253-1.12-3.16-.72-.907-1.707-1.613-2.96-2.12-1.253-.507-2.667-.76-4.24-.76-1.547 0-2.96.2-4.24.6a14.39 14.39 0 0 0-3.64 1.64 21.737 21.737 0 0 0-3.32 2.56 42.551 42.551 0 0 0-3.2 3.32l-3.64-3.76c.72-.587 1.533-1.24 2.44-1.96.907-.747 1.827-1.52 2.76-2.32.96-.8 1.853-1.547 2.68-2.24.853-.72 1.573-1.32 2.16-1.8.56-.453 1.213-.987 1.96-1.6.747-.613 1.52-1.24 2.32-1.88a268.6 268.6 0 0 1 2.28-1.88c.72-.613 1.32-1.133 1.8-1.56-.4 0-.92.013-1.56.04-.64.027-1.347.053-2.12.08l-2.28.08c-.747.027-1.453.067-2.12.12a79.63 79.63 0 0 0-1.6.08c-.533.027-1.093.067-1.68.12-.587.053-1.12.12-1.6.2l-.16-5.2Zm45.6 34.16h-13.28v-4.32h8.52v-21.24h4.76v25.56Z"/>
    <path fill="#EF4444" d="M1340 470h-280c-5.52 0-10 4.477-10 10v310c0 5.523 4.48 10 10 10h280c5.52 0 10-4.477 10-10V480c0-5.523-4.48-10-10-10Zm-234.65-58.3c0-4.133.27-8.2.8-12.2.6-4 1.6-7.767 3-11.3 1.47-3.6 3.47-6.767 6-9.5 2.6-2.8 5.9-4.967 9.9-6.5 4.07-1.6 8.97-2.4 14.7-2.4 1.33 0 2.9.067 4.7.2 1.87.067 3.4.233 4.6.5v12.1a25.006 25.006 0 0 0-4.1-.7c-1.47-.2-3.13-.3-5-.3-3.67 0-6.77.533-9.3 1.6-2.53 1.067-4.57 2.6-6.1 4.6-1.47 2-2.57 4.367-3.3 7.1-.67 2.667-1.07 5.667-1.2 9h.5c.87-1.6 1.9-3 3.1-4.2 1.27-1.267 2.8-2.267 4.6-3 1.8-.733 3.9-1.1 6.3-1.1 3.93 0 7.3.9 10.1 2.7 2.87 1.733 5.07 4.3 6.6 7.7 1.53 3.333 2.3 7.4 2.3 12.2 0 5.133-.97 9.567-2.9 13.3-1.87 3.733-4.53 6.6-8 8.6-3.47 1.933-7.6 2.9-12.4 2.9-3.47 0-6.73-.633-9.8-1.9-3-1.267-5.63-3.167-7.9-5.7-2.27-2.6-4.03-5.867-5.3-9.8-1.27-3.933-1.9-8.567-1.9-13.9Zm24.6 19.2c2.33 0 4.23-1 5.7-3 1.47-2.067 2.2-5.233 2.2-9.5 0-3.467-.63-6.2-1.9-8.2-1.27-2-3.2-3-5.8-3-1.8 0-3.37.5-4.7 1.5-1.27.933-2.27 2.167-3 3.7-.67 1.533-1 3.1-1 4.7 0 1.667.17 3.333.5 5 .33 1.6.83 3.067 1.5 4.4.73 1.333 1.63 2.4 2.7 3.2 1.07.8 2.33 1.2 3.8 1.2Zm77.59-24.6c0 5.733-.43 10.867-1.3 15.4-.8 4.533-2.16 8.4-4.1 11.6-1.93 3.133-4.4 5.533-7.4 7.2-3 1.667-6.7 2.5-11.1 2.5-5.46 0-9.96-1.467-13.5-4.4-3.53-2.933-6.13-7.133-7.8-12.6-1.66-5.467-2.5-12.033-2.5-19.7 0-7.733.77-14.333 2.3-19.8 1.54-5.467 4.04-9.667 7.5-12.6 3.54-2.933 8.2-4.4 14-4.4 5.47 0 9.97 1.467 13.5 4.4 3.54 2.867 6.14 7.067 7.8 12.6 1.74 5.467 2.6 12.067 2.6 19.8Zm-31.6 0c0 5.4.2 9.933.6 13.6.47 3.6 1.27 6.333 2.4 8.2 1.14 1.8 2.7 2.7 4.7 2.7s3.54-.9 4.6-2.7c1.14-1.8 1.94-4.5 2.4-8.1.54-3.667.8-8.233.8-13.7 0-5.467-.26-10-.8-13.6-.46-3.667-1.26-6.4-2.4-8.2-1.06-1.867-2.6-2.8-4.6-2.8-2 0-3.56.933-4.7 2.8-1.13 1.8-1.93 4.533-2.4 8.2-.4 3.6-.6 8.133-.6 13.6Zm53.7-36.7c5.33 0 9.46 1.967 12.4 5.9 2.93 3.867 4.4 9.333 4.4 16.4 0 7.067-1.4 12.6-4.2 16.6-2.74 3.933-6.94 5.9-12.6 5.9-3.4 0-6.34-.9-8.8-2.7-2.4-1.8-4.27-4.367-5.6-7.7-1.34-3.4-2-7.433-2-12.1 0-7.067 1.33-12.533 4-16.4 2.73-3.933 6.86-5.9 12.4-5.9Zm.2 10.2c-1.4 0-2.4 1-3 3-.6 2-.9 5.067-.9 9.2 0 4.067.3 7.133.9 9.2.6 2.067 1.56 3.1 2.9 3.1 1.46 0 2.5-1.033 3.1-3.1.6-2.067.9-5.133.9-9.2 0-4.133-.3-7.2-.9-9.2-.6-2-1.6-3-3-3Zm49.1-9.2-37.2 71.4h-12.3l37.2-71.4h12.3Zm-.2 27.5c3.53 0 6.53.9 9 2.7 2.46 1.733 4.36 4.267 5.7 7.6 1.33 3.267 2 7.267 2 12 0 7.067-1.4 12.6-4.2 16.6-2.74 3.933-6.9 5.9-12.5 5.9-3.4 0-6.34-.9-8.8-2.7-2.47-1.8-4.37-4.367-5.7-7.7-1.34-3.4-2-7.433-2-12.1 0-7.067 1.36-12.533 4.1-16.4 2.8-3.933 6.93-5.9 12.4-5.9Zm.1 10.2c-1.4 0-2.4 1-3 3-.6 2-.9 5.067-.9 9.2 0 4.067.3 7.133.9 9.2.6 2.067 1.6 3.1 3 3.1s2.4-1 3-3c.66-2.067 1-5.167 1-9.3 0-4.133-.34-7.2-1-9.2-.67-2-1.67-3-3-3Z"/>
    <path fill="#000" d="M1096.85 810.6h6.2v7.95h-6.2v-7.95Zm-18.3 4.3h42.85v10.75h-6.2v-5.5h-30.7v5.5h-5.95V814.9Zm4.5 9.25h34.35V829h-34.35v-4.85Zm-4.9 15.8h43.95v5.2h-43.95v-5.2Zm5.7-7.95h32.5v4.8h-32.5V832Zm19.1 9c1.5 3.3 3.88 5.883 7.15 7.75 3.27 1.867 7.5 3.067 12.7 3.6-.6.633-1.25 1.467-1.95 2.5-.67 1.033-1.2 1.95-1.6 2.75-3.8-.6-7.08-1.55-9.85-2.85-2.77-1.267-5.12-2.933-7.05-5-1.9-2.1-3.48-4.633-4.75-7.6l5.35-1.15Zm-6.25-19.7h6.05v13.9c0 1.733-.18 3.467-.55 5.2-.33 1.733-.97 3.417-1.9 5.05-.9 1.6-2.18 3.133-3.85 4.6-1.63 1.467-3.72 2.817-6.25 4.05-2.53 1.267-5.62 2.4-9.25 3.4-.23-.467-.57-1-1-1.6-.4-.567-.85-1.15-1.35-1.75-.47-.6-.93-1.1-1.4-1.5 3.47-.8 6.37-1.7 8.7-2.7 2.37-1 4.25-2.083 5.65-3.25 1.43-1.167 2.52-2.383 3.25-3.65.73-1.3 1.23-2.6 1.5-3.9.27-1.333.4-2.683.4-4.05v-13.8Zm51.9 9.4h16.45v4.75h-16.45v-4.75Zm-4.55 7.8h25.9v4.85h-25.9v-4.85Zm2.3-24.05h7.95v3.9h-7.95v-3.9Zm-1.05 7.15 1.85-2.55c.83.4 1.68.883 2.55 1.45.87.533 1.53 1.017 2 1.45l-1.9 2.9c-.5-.5-1.18-1.05-2.05-1.65a18.901 18.901 0 0 0-2.45-1.6Zm-3 3.95 2.15-2.3c.77.467 1.57 1.017 2.4 1.65.83.633 1.48 1.2 1.95 1.7l-2.2 2.55c-.47-.5-1.12-1.1-1.95-1.8-.8-.7-1.58-1.3-2.35-1.8Zm19.8 21.55 4.55-2.35c.77.833 1.55 1.767 2.35 2.8s1.55 2.05 2.25 3.05 1.23 1.917 1.6 2.75l-4.85 2.6c-.33-.833-.82-1.767-1.45-2.8-.63-1-1.35-2.033-2.15-3.1a32.54 32.54 0 0 0-2.3-2.95Zm-9.45-32.65h.95l.9-.2 3.2 1.15c-.7 3.5-1.73 6.65-3.1 9.45-1.37 2.767-2.98 5.183-4.85 7.25a26.647 26.647 0 0 1-6.3 5.15c-.33-.6-.82-1.3-1.45-2.1-.6-.8-1.17-1.433-1.7-1.9 2.03-1.033 3.87-2.45 5.5-4.25 1.67-1.8 3.1-3.867 4.3-6.2a28.024 28.024 0 0 0 2.55-7.55v-.8Zm9.45-.4h7.45v4.25h-7.45v-4.25Zm-15.45-3.35 4.6.95c-.97 3.167-2.28 6.1-3.95 8.8-1.63 2.7-3.47 4.95-5.5 6.75-.27-.267-.62-.6-1.05-1-.43-.4-.88-.783-1.35-1.15-.47-.4-.88-.717-1.25-.95 1.97-1.567 3.68-3.517 5.15-5.85a28.982 28.982 0 0 0 3.35-7.55Zm21 3.35h1.1l.95-.25 3.25 1.9a43.706 43.706 0 0 1-2.85 6.7c-1.13 2.233-2.35 4.1-3.65 5.6-.37-.533-.87-1.117-1.5-1.75-.63-.667-1.2-1.183-1.7-1.55.67-.867 1.28-1.85 1.85-2.95a33.26 33.26 0 0 0 1.5-3.45c.43-1.2.78-2.3 1.05-3.3v-.95Zm-13.45 26.75h5.6v11.15c0 1.233-.15 2.217-.45 2.95-.27.733-.83 1.3-1.7 1.7-.83.4-1.82.65-2.95.75-1.1.1-2.42.15-3.95.15-.1-.767-.33-1.633-.7-2.6-.37-.933-.73-1.75-1.1-2.45.93.033 1.83.05 2.7.05h1.75c.3-.033.5-.083.6-.15.13-.1.2-.267.2-.5V840.8Zm-8.8 4.2 5.2 1.35c-.73 1.8-1.67 3.583-2.8 5.35-1.13 1.733-2.25 3.183-3.35 4.35a31.98 31.98 0 0 0-1.4-.95c-.53-.367-1.08-.717-1.65-1.05a18.6 18.6 0 0 0-1.5-.8c1.13-1.067 2.18-2.333 3.15-3.8 1-1.467 1.78-2.95 2.35-4.45Zm14.75-33.6c.7 3.2 1.65 6.183 2.85 8.95 1.2 2.733 2.72 5.15 4.55 7.25 1.87 2.1 4.07 3.75 6.6 4.95-.6.467-1.25 1.15-1.95 2.05-.67.867-1.2 1.65-1.6 2.35a24.012 24.012 0 0 1-7.1-5.8c-1.97-2.4-3.6-5.183-4.9-8.35-1.3-3.2-2.37-6.7-3.2-10.5l4.75-.9Zm-31.7 1.25h10.25v5.4h-5.05v39.45h-5.2v-44.85Zm8.55 0h.9l.75-.15 3.55 2c-.3 1.5-.67 3.117-1.1 4.85-.4 1.7-.82 3.383-1.25 5.05-.4 1.633-.8 3.133-1.2 4.5 1.2 2.033 1.98 3.967 2.35 5.8.37 1.833.55 3.55.55 5.15 0 1.633-.17 3-.5 4.1-.3 1.1-.77 1.917-1.4 2.45-.37.3-.77.533-1.2.7-.4.133-.85.25-1.35.35-.33.033-.72.067-1.15.1h-1.35c0-.7-.08-1.5-.25-2.4-.13-.933-.4-1.75-.8-2.45.3.033.57.05.8.05h.7c.43 0 .78-.15 1.05-.45.2-.233.35-.633.45-1.2.1-.567.15-1.233.15-2 0-1.267-.15-2.733-.45-4.4-.27-1.7-.97-3.483-2.1-5.35.3-1.133.58-2.4.85-3.8.3-1.4.57-2.8.8-4.2.27-1.433.5-2.75.7-3.95.2-1.233.37-2.25.5-3.05v-1.7Zm67.55 6.1c-.33 2.533-.77 5.233-1.3 8.1a78.019 78.019 0 0 1-2.15 8.7c-.97 3.367-2.1 6.267-3.4 8.7-1.3 2.433-2.73 4.317-4.3 5.65-1.53 1.3-3.22 1.95-5.05 1.95-1.83 0-3.53-.617-5.1-1.85-1.53-1.267-2.77-3-3.7-5.2-.9-2.2-1.35-4.7-1.35-7.5 0-2.9.58-5.633 1.75-8.2a21.712 21.712 0 0 1 4.85-6.8c2.1-2 4.53-3.567 7.3-4.7 2.8-1.133 5.82-1.7 9.05-1.7 3.1 0 5.88.5 8.35 1.5 2.5 1 4.63 2.383 6.4 4.15a17.918 17.918 0 0 1 4.05 6.2c.93 2.367 1.4 4.917 1.4 7.65 0 3.5-.72 6.633-2.15 9.4-1.43 2.767-3.57 5.05-6.4 6.85-2.8 1.8-6.3 3.033-10.5 3.7l-3.75-5.95c.97-.1 1.82-.217 2.55-.35.73-.133 1.43-.283 2.1-.45 1.6-.4 3.08-.967 4.45-1.7 1.4-.767 2.62-1.7 3.65-2.8a12.307 12.307 0 0 0 2.4-3.95c.6-1.5.9-3.15.9-4.95 0-1.967-.3-3.767-.9-5.4-.6-1.633-1.48-3.05-2.65-4.25-1.17-1.233-2.58-2.167-4.25-2.8-1.67-.667-3.58-1-5.75-1-2.67 0-5.02.483-7.05 1.45-2.03.933-3.75 2.15-5.15 3.65-1.4 1.5-2.47 3.117-3.2 4.85-.7 1.733-1.05 3.383-1.05 4.95 0 1.667.2 3.067.6 4.2.4 1.1.88 1.933 1.45 2.5.6.533 1.23.8 1.9.8.7 0 1.38-.35 2.05-1.05.7-.733 1.38-1.833 2.05-3.3.67-1.467 1.33-3.317 2-5.55.77-2.4 1.42-4.967 1.95-7.7.53-2.733.92-5.4 1.15-8l6.8.2Zm22.7-1.95h24.5v5.35h-24.5v-5.35Zm9.45-6h5.85v8.25h-5.85v-8.25Zm-4.5 12.45 5.6 1.4c-.83 2.167-1.92 4.283-3.25 6.35-1.33 2.033-2.73 3.733-4.2 5.1-.33-.333-.78-.717-1.35-1.15a22.4 22.4 0 0 0-1.7-1.35c-.57-.433-1.07-.783-1.5-1.05 1.37-1.133 2.6-2.533 3.7-4.2 1.13-1.667 2.03-3.367 2.7-5.1Zm9.35 8.3 5.95 1.25c-1.63 5.467-3.92 10.3-6.85 14.5-2.93 4.167-6.47 7.533-10.6 10.1-.27-.433-.65-.967-1.15-1.6-.47-.6-.97-1.2-1.5-1.8-.53-.6-1-1.067-1.4-1.4 3.9-2.133 7.15-4.983 9.75-8.55 2.63-3.6 4.57-7.767 5.8-12.5Zm.2-6.65 4.65-2.3c.8.9 1.58 1.9 2.35 3 .8 1.1 1.52 2.183 2.15 3.25.63 1.067 1.1 2.05 1.4 2.95l-5 2.65c-.27-.9-.7-1.9-1.3-3-.57-1.1-1.23-2.217-2-3.35a34.525 34.525 0 0 0-2.25-3.2Zm-10.6 12.8 3.45-4.2a139.75 139.75 0 0 1 5.5 4.25 78.487 78.487 0 0 1 5.45 4.75c1.67 1.567 3 3.017 4 4.35l-3.8 4.95c-.93-1.367-2.22-2.883-3.85-4.55a84.68 84.68 0 0 0-5.25-5 91.026 91.026 0 0 0-5.5-4.55Zm20.25-16.15h17.5v5.65h-17.5v-5.65Zm15.25 0h5.6v1.65c0 .4-.02.733-.05 1-.1 5.167-.22 9.55-.35 13.15-.1 3.6-.23 6.567-.4 8.9-.17 2.3-.38 4.1-.65 5.4-.27 1.3-.6 2.233-1 2.8-.57.833-1.17 1.417-1.8 1.75-.6.367-1.32.617-2.15.75-.8.133-1.77.2-2.9.2-1.13.033-2.3.033-3.5 0-.03-.8-.22-1.75-.55-2.85-.3-1.067-.68-1.983-1.15-2.75 1.13.067 2.17.117 3.1.15.93.033 1.65.05 2.15.05.4 0 .73-.05 1-.15.3-.133.57-.367.8-.7.27-.367.5-1.133.7-2.3.2-1.167.37-2.833.5-5s.25-4.95.35-8.35c.13-3.433.23-7.583.3-12.45v-1.25Zm-10.3-10.35h5.75c-.03 4.067-.1 7.967-.2 11.7-.07 3.733-.28 7.283-.65 10.65-.33 3.333-.88 6.483-1.65 9.45-.73 2.933-1.77 5.633-3.1 8.1-1.33 2.433-3.05 4.617-5.15 6.55-.43-.7-1.07-1.5-1.9-2.4-.83-.867-1.62-1.517-2.35-1.95 1.93-1.733 3.48-3.683 4.65-5.85 1.2-2.167 2.12-4.567 2.75-7.2a55.39 55.39 0 0 0 1.3-8.55c.27-3.033.42-6.267.45-9.7.07-3.433.1-7.033.1-10.8Zm21.35 25.65h44.75v5.45h-44.75v-5.45Zm19.25-22h6.35v42.65h-6.35v-42.65Zm-1.65 24.65 4.95 2.15c-1.57 2.067-3.43 4.033-5.6 5.9a46.34 46.34 0 0 1-6.9 5 45.553 45.553 0 0 1-7.5 3.6c-.3-.5-.7-1.067-1.2-1.7a39 39 0 0 0-1.45-1.75c-.5-.6-.98-1.117-1.45-1.55 1.87-.567 3.72-1.25 5.55-2.05 1.83-.8 3.6-1.717 5.3-2.75a42.288 42.288 0 0 0 4.65-3.25c1.43-1.167 2.65-2.367 3.65-3.6Zm9.1-.35c1.03 1.2 2.28 2.383 3.75 3.55a49.025 49.025 0 0 0 4.8 3.25c1.73 1 3.53 1.917 5.4 2.75 1.87.833 3.72 1.517 5.55 2.05-.43.4-.92.9-1.45 1.5-.5.6-.98 1.217-1.45 1.85a16.72 16.72 0 0 0-1.15 1.75 47.22 47.22 0 0 1-5.6-2.65 55.254 55.254 0 0 1-5.45-3.45 48.666 48.666 0 0 1-4.95-4.05 39.355 39.355 0 0 1-4.1-4.45l4.65-2.1Zm-15.55-13.5v3.2h22.4v-3.2h-22.4Zm0-7.8V821h22.4v-3.15h-22.4Zm-6.25-5h35.2v21h-35.2v-21Z"/>
    <path fill="#fff" d="M1085.6 568.92h13.28v4.32h-8.52v21.24h-4.76v-25.56Zm25.04 15.68v14.76h-4.6v-10.32h-4.52v-4.44h9.12Zm0 12.84c.77 1.333 1.87 2.32 3.28 2.96 1.41.613 3.13.96 5.16 1.04 1.2.053 2.64.093 4.32.12a362.45 362.45 0 0 0 10.76-.16c1.79-.08 3.39-.187 4.8-.32-.19.347-.39.813-.6 1.4-.19.56-.37 1.133-.56 1.72a17.79 17.79 0 0 0-.36 1.56c-1.23.08-2.64.133-4.24.16-1.6.027-3.25.04-4.96.04-1.71.027-3.36.027-4.96 0-1.6 0-3.01-.027-4.24-.08-2.4-.107-4.44-.493-6.12-1.16-1.68-.667-3.12-1.773-4.32-3.32-.77.8-1.6 1.587-2.48 2.36-.85.8-1.79 1.627-2.8 2.48l-2.28-4.76a56.71 56.71 0 0 0 2.68-1.88c.96-.693 1.88-1.413 2.76-2.16h4.16Zm-8.96-24.68 3.64-2.72c.77.587 1.57 1.253 2.4 2 .83.747 1.59 1.493 2.28 2.24.69.747 1.25 1.453 1.68 2.12l-3.96 3.04c-.37-.667-.89-1.387-1.56-2.16-.64-.8-1.36-1.587-2.16-2.36-.8-.8-1.57-1.52-2.32-2.16Zm10.6-1h25.76v3.72h-25.76v-3.72Zm6.4 12.24h12.88v2.92h-12.88V584Zm3.84-15h4.64v5h-4.64v-5Zm.84 12.76h3.44v8.12h-3.44v-8.12Zm-10.04-3.44h20.96v3.64h-16.64v17.84h-4.32v-21.48Zm6.36 10.84h3.28V598h-3.28v-8.84Zm1.84 0h9.08v7.56h-9.08v-2.68h5.76v-2.24h-5.76v-2.64Zm11.24-10.84h4.4v17.2c0 .987-.11 1.773-.32 2.36-.21.56-.64 1.013-1.28 1.36-.67.32-1.44.52-2.32.6-.88.08-1.91.12-3.08.12-.08-.587-.25-1.253-.52-2-.24-.747-.49-1.387-.76-1.92.67.027 1.32.04 1.96.04h1.32c.24 0 .4-.04.48-.12.08-.107.12-.267.12-.48v-17.16Zm-3.84-3.88 4.52.96c-.4.773-.77 1.507-1.12 2.2a68.72 68.72 0 0 1-.96 1.84l-3.84-.96c.27-.613.53-1.293.8-2.04.27-.773.47-1.44.6-2Zm-12.04 1.2 3.96-.92c.35.533.65 1.16.92 1.88.29.693.48 1.307.56 1.84l-4.16 1c-.05-.507-.2-1.12-.44-1.84s-.52-1.373-.84-1.96ZM1156 572h19.2v4.56H1156V572Zm17.08 0h5s-.01.16-.04.48v1.08c0 .373-.01.667-.04.88a839.95 839.95 0 0 1-.36 12.72c-.11 3.467-.24 6.32-.4 8.56-.16 2.24-.37 3.987-.64 5.24-.27 1.227-.59 2.12-.96 2.68-.53.8-1.08 1.36-1.64 1.68-.56.32-1.23.573-2 .76-.72.133-1.6.2-2.64.2s-2.09-.027-3.16-.08c-.03-.693-.19-1.52-.48-2.48s-.65-1.773-1.08-2.44c1.07.08 2.03.133 2.88.16h2.04c.37 0 .67-.053.88-.16.24-.107.47-.32.68-.64.29-.373.55-1.133.76-2.28.21-1.147.39-2.8.52-4.96.16-2.16.29-4.893.4-8.2.11-3.307.2-7.32.28-12.04V572Zm-32.24 9.32 17.04-3.28.8 4.36-17.08 3.36-.76-4.44Zm4.48-11.12h4.76v22.12c0 .827.05 1.347.16 1.56.11.213.33.32.68.32h2c.27 0 .47-.133.6-.4.13-.293.23-.813.28-1.56.05-.773.11-1.867.16-3.28.51.427 1.17.827 2 1.2.85.347 1.6.6 2.24.76-.16 1.947-.41 3.493-.76 4.64-.35 1.147-.84 1.973-1.48 2.48-.64.48-1.49.72-2.56.72h-3.36c-1.23 0-2.19-.187-2.88-.56-.69-.4-1.17-1.067-1.44-2-.27-.96-.4-2.253-.4-3.88V570.2Zm16.72 3.96h4.8a207.45 207.45 0 0 1-.24 8.04 60.131 60.131 0 0 1-.76 7.44 33.36 33.36 0 0 1-1.76 6.72 22.348 22.348 0 0 1-3.2 5.8c-1.36 1.76-3.09 3.307-5.2 4.64-.37-.613-.88-1.307-1.52-2.08-.64-.747-1.27-1.333-1.88-1.76 1.95-1.173 3.52-2.52 4.72-4.04 1.2-1.52 2.15-3.2 2.84-5.04.69-1.84 1.19-3.8 1.48-5.88.29-2.107.48-4.32.56-6.64.08-2.32.13-4.72.16-7.2Zm21.28 2.64c.85.107 1.76.187 2.72.24.99.027 1.85.04 2.6.04 1.65 0 3.32-.093 5-.28 1.71-.187 3.35-.427 4.92-.72 1.57-.32 3-.68 4.28-1.08l.16 4.64c-1.15.293-2.52.6-4.12.92a79.17 79.17 0 0 1-5 .76c-1.76.187-3.49.28-5.2.28-.8 0-1.61-.013-2.44-.04-.83-.027-1.68-.067-2.56-.12l-.36-4.64Zm15.56-6c-.16.667-.37 1.533-.64 2.6a82.23 82.23 0 0 1-.92 3.36 79.454 79.454 0 0 1-1.04 3.48c-.59 1.92-1.36 3.96-2.32 6.12-.96 2.16-2 4.267-3.12 6.32s-2.25 3.88-3.4 5.48l-4.84-2.48c.91-1.12 1.8-2.36 2.68-3.72.88-1.36 1.71-2.76 2.48-4.2a75.66 75.66 0 0 0 2.08-4.16c.64-1.36 1.15-2.587 1.52-3.68.51-1.413.95-2.987 1.32-4.72.4-1.76.63-3.413.68-4.96l5.52.56Zm9.36 12.44c-.05.853-.08 1.707-.08 2.56.03.827.05 1.68.08 2.56.03.613.05 1.4.08 2.36.05.933.11 1.933.16 3 .05 1.04.09 2.04.12 3 .05.933.08 1.68.08 2.24 0 1.227-.25 2.347-.76 3.36-.51.987-1.32 1.773-2.44 2.36-1.09.587-2.6.88-4.52.88-1.65 0-3.15-.253-4.48-.76-1.33-.48-2.4-1.2-3.2-2.16-.8-.987-1.2-2.213-1.2-3.68 0-1.307.35-2.48 1.04-3.52.69-1.067 1.69-1.893 3-2.48 1.33-.613 2.93-.92 4.8-.92 2.35 0 4.51.333 6.48 1 1.97.64 3.75 1.467 5.32 2.48 1.57 1.013 2.92 2.027 4.04 3.04l-2.68 4.28c-.72-.64-1.55-1.36-2.48-2.16-.91-.8-1.93-1.547-3.08-2.24a18.007 18.007 0 0 0-3.68-1.72c-1.31-.453-2.72-.68-4.24-.68-1.15 0-2.07.227-2.76.68-.69.453-1.04 1.04-1.04 1.76 0 .747.29 1.347.88 1.8.61.453 1.47.68 2.56.68.91 0 1.63-.147 2.16-.44.53-.32.91-.76 1.12-1.32.21-.587.32-1.24.32-1.96 0-.613-.03-1.48-.08-2.6s-.12-2.36-.2-3.72c-.05-1.36-.11-2.72-.16-4.08-.05-1.36-.11-2.56-.16-3.6h5Zm6.88 2.12c-.77-.64-1.73-1.32-2.88-2.04s-2.33-1.4-3.56-2.04c-1.2-.667-2.25-1.2-3.16-1.6l2.56-3.96c.72.32 1.53.72 2.44 1.2.93.453 1.87.933 2.8 1.44.96.507 1.84 1.013 2.64 1.52.83.48 1.49.907 2 1.28l-2.84 4.2Zm20.56 5h21v16h-4.6v-11.64h-12v11.84h-4.4v-16.2Zm17.8-21.36 3.68 3.76c-1.95.747-4.11 1.4-6.48 1.96-2.37.533-4.81.973-7.32 1.32-2.48.347-4.91.627-7.28.84-.08-.56-.27-1.24-.56-2.04-.27-.827-.53-1.507-.8-2.04 1.71-.187 3.43-.4 5.16-.64 1.76-.24 3.47-.52 5.12-.84 1.65-.32 3.2-.667 4.64-1.04 1.44-.4 2.72-.827 3.84-1.28Zm-9.6 4.52h4.56v19.36h-4.56v-19.36Zm-10.68 7.16h25.48v4.56h-25.48v-4.56Zm5.64 19.88H1254v4.36h-15.16v-4.36ZM1223.32 573l2.72-3.48c.75.373 1.59.8 2.52 1.28.93.48 1.84.96 2.72 1.44.91.48 1.64.907 2.2 1.28l-2.84 3.88c-.53-.4-1.23-.853-2.08-1.36a180.26 180.26 0 0 0-2.68-1.56 82.91 82.91 0 0 0-2.56-1.48Zm-1.92 11.08 2.6-3.56c.75.32 1.6.72 2.56 1.2s1.89.96 2.8 1.44c.91.453 1.64.867 2.2 1.24l-2.68 4c-.53-.4-1.24-.853-2.12-1.36-.85-.507-1.76-1.027-2.72-1.56-.96-.533-1.84-1-2.64-1.4Zm.6 18.8c.72-1.013 1.51-2.2 2.36-3.56.88-1.387 1.77-2.853 2.68-4.4.91-1.573 1.76-3.133 2.56-4.68l3.52 3.2c-.69 1.387-1.44 2.813-2.24 4.28-.77 1.467-1.57 2.907-2.4 4.32a93.99 93.99 0 0 1-2.44 4.08l-4.04-3.24Zm46.44-31.2h24.52v4.6h-24.52v-4.6Zm0 9.24h24.6v4.48h-24.6v-4.48Zm-.08 9.44h24.84v4.52h-24.84v-4.52Zm-2.68-18.68h4.72v14.4c0 1.573-.07 3.293-.2 5.16a41.07 41.07 0 0 1-.8 5.64 24.658 24.658 0 0 1-1.72 5.36 16.363 16.363 0 0 1-2.96 4.56c-.24-.32-.6-.68-1.08-1.08-.48-.4-.97-.787-1.48-1.16-.48-.373-.89-.667-1.24-.88 1.09-1.2 1.96-2.52 2.6-3.96a20.914 20.914 0 0 0 1.4-4.52c.32-1.573.52-3.133.6-4.68.11-1.573.16-3.067.16-4.48v-14.36Zm25.6 0h4.8v29.24c0 1.28-.16 2.267-.48 2.96-.32.72-.89 1.267-1.72 1.64-.8.373-1.83.613-3.08.72-1.25.107-2.8.147-4.64.12-.08-.64-.28-1.413-.6-2.32-.32-.907-.64-1.667-.96-2.28l2.32.08h3.36c.37 0 .63-.067.76-.2.16-.133.24-.387.24-.76v-29.2Zm-13.28 1.84h4.84v32.56H1278v-32.56Zm40.2-1.84c-.11.507-.23 1.067-.36 1.68-.13.587-.25 1.133-.36 1.64a78.27 78.27 0 0 1-.4 2c-.16.72-.32 1.453-.48 2.2-.13.72-.28 1.427-.44 2.12-.27 1.147-.6 2.48-1 4s-.87 3.16-1.4 4.92a82.78 82.78 0 0 1-1.8 5.24c-.67 1.76-1.37 3.48-2.12 5.16a35.988 35.988 0 0 1-2.4 4.48l-5.2-2.08c.93-1.253 1.8-2.653 2.6-4.2a55.759 55.759 0 0 0 2.24-4.8c.67-1.653 1.25-3.28 1.76-4.88a88.19 88.19 0 0 0 1.36-4.52c.4-1.387.71-2.573.92-3.56.37-1.813.67-3.56.88-5.24.21-1.68.29-3.267.24-4.76l5.96.6Zm13.76 4.04c.64.88 1.29 1.96 1.96 3.24a74.233 74.233 0 0 1 2.04 4 77.673 77.673 0 0 1 1.8 4.08c.53 1.307.95 2.44 1.24 3.4l-5.08 2.32c-.24-1.12-.6-2.36-1.08-3.72-.45-1.36-.99-2.733-1.6-4.12a46.509 46.509 0 0 0-1.96-4c-.67-1.253-1.36-2.307-2.08-3.16l4.76-2.04Zm-30 4.16c.72.053 1.43.08 2.12.08l2.16-.08c.67-.027 1.47-.067 2.4-.12.93-.08 1.92-.16 2.96-.24l3.2-.24c1.07-.107 2.05-.187 2.96-.24.91-.053 1.65-.08 2.24-.08 1.44 0 2.69.24 3.76.72 1.07.453 1.91 1.24 2.52 2.36.64 1.12.96 2.64.96 4.56 0 1.573-.07 3.28-.2 5.12-.13 1.84-.37 3.6-.72 5.28-.32 1.68-.77 3.107-1.36 4.28-.64 1.387-1.52 2.347-2.64 2.88-1.09.533-2.4.8-3.92.8-.75 0-1.56-.067-2.44-.2-.88-.107-1.67-.227-2.36-.36l-.84-5.28c.51.133 1.07.267 1.68.4.64.133 1.24.24 1.8.32.59.08 1.05.12 1.4.12.67 0 1.25-.12 1.76-.36.51-.267.92-.72 1.24-1.36.37-.773.68-1.773.92-3s.41-2.547.52-3.96c.13-1.44.2-2.813.2-4.12 0-1.067-.16-1.853-.48-2.36-.29-.507-.73-.84-1.32-1-.56-.187-1.25-.28-2.08-.28-.61 0-1.44.053-2.48.16-1.04.08-2.16.187-3.36.32-1.17.107-2.27.227-3.28.36-1.01.133-1.8.227-2.36.28-.59.107-1.33.227-2.24.36-.88.107-1.63.213-2.24.32l-.48-5.44Zm29.28-9.72c.35.48.71 1.053 1.08 1.72.4.667.79 1.333 1.16 2 .37.667.69 1.253.96 1.76l-3.24 1.4c-.27-.56-.57-1.173-.92-1.84-.35-.667-.71-1.333-1.08-2-.37-.667-.75-1.24-1.12-1.72l3.16-1.32Zm4.76-1.8c.35.507.72 1.093 1.12 1.76.4.667.79 1.333 1.16 2 .4.667.71 1.227.92 1.68l-3.16 1.36c-.43-.827-.93-1.76-1.52-2.8-.59-1.067-1.16-1.973-1.72-2.72l3.2-1.28ZM1151.52 628h5.08v20.96c0 .693.05 1.213.16 1.56.13.32.37.533.72.64.35.107.87.16 1.56.16h6.04c.69 0 1.21-.173 1.56-.52.37-.347.63-1.013.76-2 .16-.987.29-2.427.4-4.32.4.267.88.547 1.44.84.56.267 1.12.507 1.68.72.59.213 1.12.373 1.6.48-.21 2.427-.56 4.333-1.04 5.72-.45 1.387-1.15 2.373-2.08 2.96-.93.587-2.23.88-3.88.88h-7.08c-1.81 0-3.23-.213-4.24-.64-.99-.4-1.68-1.12-2.08-2.16-.4-1.04-.6-2.48-.6-4.32V628Zm.48-5.56 3.08-3.48a83.66 83.66 0 0 1 3.4 2.28c1.2.827 2.35 1.64 3.44 2.44 1.09.8 2.03 1.507 2.8 2.12l-3.2 3.92a85.58 85.58 0 0 0-2.76-2.24 138.35 138.35 0 0 0-3.44-2.6 76.68 76.68 0 0 0-3.32-2.44Zm-6.92 7.4 4.6 1.16c-.27 1.573-.6 3.213-1 4.92-.4 1.707-.85 3.333-1.36 4.88-.51 1.547-1.09 2.893-1.76 4.04l-4.72-1.72c.69-1.173 1.31-2.48 1.84-3.92.56-1.467 1.04-3 1.44-4.6.43-1.6.75-3.187.96-4.76Zm23.6 4.76 4.32-2.04c.85 1.227 1.68 2.56 2.48 4s1.51 2.853 2.12 4.24c.64 1.36 1.13 2.6 1.48 3.72l-4.64 2.36c-.29-1.12-.75-2.387-1.36-3.8a59.804 59.804 0 0 0-2.04-4.36 51.69 51.69 0 0 0-2.36-4.12Zm1.92-13.24 4.84 1.92a79.762 79.762 0 0 1-5.64 9.12 74.153 74.153 0 0 1-7.08 8.56 68.71 68.71 0 0 1-8.6 7.56 63.052 63.052 0 0 1-10 6.12c-.24-.373-.55-.8-.92-1.28a26.81 26.81 0 0 0-1.12-1.36c-.4-.48-.77-.867-1.12-1.16a54.003 54.003 0 0 0 9.6-5.6 65.845 65.845 0 0 0 8.32-7.24c2.53-2.613 4.79-5.333 6.76-8.16 1.97-2.853 3.63-5.68 4.96-8.48Zm11.04 19.36h36.76v3.88h-36.76v-3.88Zm.76-20.28h35v4.16h-35v-4.16Zm12.6 16.4 4.72 1.24a142.5 142.5 0 0 1-2.8 4.36c-.99 1.52-1.97 2.987-2.96 4.4a72.18 72.18 0 0 1-2.68 3.72l-4.6-1.44a93.97 93.97 0 0 0 2.72-3.72 206 206 0 0 0 2.96-4.36 93.846 93.846 0 0 0 2.64-4.2Zm11.6 5.32 4.64 1.16c-1.01 2.373-2.29 4.347-3.84 5.92-1.55 1.573-3.43 2.853-5.64 3.84-2.19.987-4.73 1.747-7.64 2.28-2.91.56-6.21.987-9.92 1.28-.16-.693-.41-1.427-.76-2.2-.32-.773-.67-1.413-1.04-1.92 4.48-.187 8.32-.6 11.52-1.24 3.23-.64 5.88-1.68 7.96-3.12 2.08-1.44 3.65-3.44 4.72-6Zm-17.16 7.28 2.4-3.4c3.09.613 6.19 1.32 9.28 2.12 3.12.773 6.05 1.573 8.8 2.4 2.75.8 5.12 1.56 7.12 2.28l-2.88 3.92c-1.95-.8-4.24-1.64-6.88-2.52-2.61-.853-5.45-1.693-8.52-2.52-3.04-.827-6.15-1.587-9.32-2.28Zm3.52-27.4h4.52v13.68h-4.52v-13.68Zm9.04 0h4.56v13.68H1202v-13.68Zm-13.24 8.6v3.72h22.6v-3.72h-22.6Zm-4.52-3.8h31.88v11.28h-31.88v-11.28Zm50.16 29.84h-13.28v-4.32h8.52v-21.24h4.76v25.56Z"/>
    <path stroke="#FF6B6B" stroke-width="8" d="m750 296 300 175"/>
    <path fill="#FF6B6B" d="M909.509 329.76c0 1.96-.4 3.66-1.2 5.1-.8 1.44-1.86 2.62-3.18 3.54-1.32.92-2.8 1.6-4.44 2.04v.18c3.2.4 5.66 1.44 7.38 3.12 1.72 1.68 2.58 3.94 2.58 6.78 0 2.48-.58 4.72-1.74 6.72-1.16 1.96-2.96 3.52-5.4 4.68-2.4 1.12-5.52 1.68-9.36 1.68-2.4 0-4.54-.2-6.42-.6-1.88-.4-3.68-.98-5.4-1.74v-7.68c1.76.92 3.56 1.62 5.4 2.1 1.88.48 3.6.72 5.16.72 2.84 0 4.8-.56 5.88-1.68 1.12-1.12 1.68-2.7 1.68-4.74 0-1.2-.26-2.2-.78-3-.52-.84-1.44-1.46-2.76-1.86-1.28-.44-3.14-.66-5.58-.66h-2.76v-6.96h2.82c2.28 0 4.04-.24 5.28-.72 1.24-.52 2.1-1.2 2.58-2.04.52-.88.78-1.88.78-3 0-1.52-.42-2.7-1.26-3.54-.84-.88-2.12-1.32-3.84-1.32-1.24 0-2.4.18-3.48.54-1.08.32-2.04.72-2.88 1.2-.8.48-1.46.94-1.98 1.38l-4.2-6.24c1.08-.8 2.26-1.52 3.54-2.16 1.32-.64 2.8-1.14 4.44-1.5 1.68-.36 3.58-.54 5.7-.54 4.16 0 7.44.9 9.84 2.7 2.4 1.76 3.6 4.26 3.6 7.5Zm21.057 5.88c2.36 0 4.46.5 6.3 1.5 1.88 1 3.36 2.46 4.44 4.38 1.12 1.92 1.68 4.3 1.68 7.14 0 3.08-.6 5.74-1.8 7.98-1.2 2.24-3 3.96-5.4 5.16-2.4 1.2-5.4 1.8-9 1.8-2.2 0-4.26-.2-6.18-.6-1.88-.4-3.54-.98-4.98-1.74v-7.8c1.4.76 3.08 1.42 5.04 1.98 2 .52 3.84.78 5.52.78 1.52 0 2.8-.24 3.84-.72a4.855 4.855 0 0 0 2.34-2.22c.56-1 .84-2.28.84-3.84 0-2.12-.6-3.72-1.8-4.8-1.2-1.12-3.04-1.68-5.52-1.68-1.04 0-2.08.12-3.12.36-1.04.2-1.94.4-2.7.6l-3.72-1.92 1.56-21.84h22.38v7.68h-14.04l-.66 8.4 1.92-.36c.68-.16 1.7-.24 3.06-.24Zm26.217-16.08c3.2 0 5.68 1.18 7.44 3.54 1.76 2.32 2.64 5.6 2.64 9.84s-.84 7.56-2.52 9.96c-1.64 2.36-4.16 3.54-7.56 3.54-2.04 0-3.8-.54-5.28-1.62-1.44-1.08-2.56-2.62-3.36-4.62-.8-2.04-1.2-4.46-1.2-7.26 0-4.24.8-7.52 2.4-9.84 1.64-2.36 4.12-3.54 7.44-3.54Zm.12 6.12c-.84 0-1.44.6-1.8 1.8-.36 1.2-.54 3.04-.54 5.52 0 2.44.18 4.28.54 5.52.36 1.24.94 1.86 1.74 1.86.88 0 1.5-.62 1.86-1.86.36-1.24.54-3.08.54-5.52 0-2.48-.18-4.32-.54-5.52-.36-1.2-.96-1.8-1.8-1.8Zm29.46-5.52L964.043 363h-7.38l22.32-42.84h7.38Zm-.12 16.5c2.12 0 3.92.54 5.4 1.62 1.48 1.04 2.62 2.56 3.42 4.56.8 1.96 1.2 4.36 1.2 7.2 0 4.24-.84 7.56-2.52 9.96-1.64 2.36-4.14 3.54-7.5 3.54-2.04 0-3.8-.54-5.28-1.62-1.48-1.08-2.62-2.62-3.42-4.62-.8-2.04-1.2-4.46-1.2-7.26 0-4.24.82-7.52 2.46-9.84 1.68-2.36 4.16-3.54 7.44-3.54Zm.06 6.12c-.84 0-1.44.6-1.8 1.8-.36 1.2-.54 3.04-.54 5.52 0 2.44.18 4.28.54 5.52.36 1.24.96 1.86 1.8 1.86.84 0 1.44-.6 1.8-1.8.4-1.24.6-3.1.6-5.58s-.2-4.32-.6-5.52c-.4-1.2-1-1.8-1.8-1.8Zm-96.863-75.74c.347.48.72 1.053 1.12 1.72.4.667.773 1.333 1.12 2 .373.667.693 1.253.96 1.76l-3.24 1.4c-.4-.827-.893-1.76-1.48-2.8a26.978 26.978 0 0 0-1.64-2.76l3.16-1.32Zm4.72-1.8c.373.507.76 1.107 1.16 1.8.4.667.787 1.333 1.16 2 .4.64.707 1.187.92 1.64l-3.16 1.4c-.427-.853-.933-1.8-1.52-2.84a24.872 24.872 0 0 0-1.72-2.68l3.16-1.32Zm-21.2 6.92a18.323 18.323 0 0 0-.36-1.6c-.133-.48-.28-.96-.44-1.44l5.64-.92c.053.4.107.893.16 1.48.08.587.173 1.12.28 1.6.053.4.173 1.107.36 2.12l.68 3.68c.267 1.44.56 2.987.88 4.64.347 1.653.68 3.333 1 5.04.32 1.707.627 3.32.92 4.84.32 1.52.587 2.867.8 4.04.24 1.173.413 2.04.52 2.6.133.587.293 1.227.48 1.92.187.693.373 1.36.56 2l-5.76 1.04c-.107-.747-.2-1.467-.28-2.16a13.254 13.254 0 0 0-.28-1.88c-.08-.533-.227-1.36-.44-2.48-.187-1.12-.427-2.427-.72-3.92-.293-1.493-.6-3.067-.92-4.72l-.96-5.04c-.32-1.68-.627-3.253-.92-4.72a231.485 231.485 0 0 0-.72-3.8 69.291 69.291 0 0 0-.48-2.32Zm-10.92 5.08c.64-.053 1.267-.093 1.88-.12l1.84-.16c.587-.08 1.413-.187 2.48-.32 1.067-.16 2.293-.347 3.68-.56 1.387-.213 2.813-.427 4.28-.64a625.43 625.43 0 0 1 4.32-.68c1.387-.24 2.613-.453 3.68-.64 1.093-.187 1.947-.333 2.56-.44.64-.133 1.307-.267 2-.4.693-.16 1.28-.32 1.76-.48l.96 5.28c-.427.027-1 .093-1.72.2-.72.107-1.373.2-1.96.28-.72.107-1.667.253-2.84.44-1.147.16-2.427.36-3.84.6-1.413.213-2.853.44-4.32.68-1.467.24-2.867.467-4.2.68-1.333.213-2.507.413-3.52.6l-2.28.36c-.64.133-1.24.267-1.8.4-.56.107-1.187.253-1.88.44l-1.08-5.52Zm.04 11.76c.533-.027 1.2-.08 2-.16l2.16-.28c.72-.107 1.68-.253 2.88-.44s2.547-.4 4.04-.64c1.52-.24 3.08-.493 4.68-.76 1.6-.267 3.16-.52 4.68-.76a772.37 772.37 0 0 1 4.16-.72c1.253-.213 2.267-.387 3.04-.52.773-.16 1.507-.32 2.2-.48.72-.16 1.347-.32 1.88-.48l1.08 5.28a16.95 16.95 0 0 0-1.96.24c-.747.107-1.507.227-2.28.36-.853.133-1.92.307-3.2.52-1.28.187-2.693.413-4.24.68-1.52.24-3.08.493-4.68.76-1.6.24-3.133.493-4.6.76-1.467.24-2.787.467-3.96.68a76.66 76.66 0 0 0-2.76.48c-.853.16-1.627.307-2.32.44-.667.107-1.227.227-1.68.36l-1.12-5.32ZM915 274.6c.08.453.173.947.28 1.48.133.507.253 1.027.36 1.56.24.773.52 1.773.84 3a522.837 522.837 0 0 1 2.32 8.52c.427 1.493.84 2.933 1.24 4.32.4 1.36.747 2.573 1.04 3.64.293 1.04.52 1.84.68 2.4.107.213.213.533.32.96.107.427.227.853.36 1.28.16.427.293.773.4 1.04l-5.44 1.36c-.08-.56-.173-1.147-.28-1.76-.107-.613-.253-1.2-.44-1.76-.16-.587-.387-1.427-.68-2.52-.293-1.12-.627-2.387-1-3.8-.373-1.413-.773-2.88-1.2-4.4-.4-1.52-.787-3-1.16-4.44a107.144 107.144 0 0 0-1.08-3.96 63.66 63.66 0 0 0-.8-2.8 9.281 9.281 0 0 0-.52-1.52c-.187-.48-.387-.92-.6-1.32l5.36-1.28Zm19.2 6.16c-.4.88-.947 1.88-1.64 3a66.554 66.554 0 0 1-2.2 3.44c-.8 1.173-1.6 2.293-2.4 3.36-.8 1.04-1.56 1.947-2.28 2.72l-4.4-2.2a25.21 25.21 0 0 0 2.2-2.24 47.28 47.28 0 0 0 2.16-2.64c.693-.907 1.2-1.68 1.52-2.32-.293.053-.853.16-1.68.32-.8.16-1.773.36-2.92.6s-2.4.507-3.76.8c-1.333.267-2.68.547-4.04.84-1.36.293-2.653.573-3.88.84-1.227.24-2.307.467-3.24.68-.933.187-1.64.333-2.12.44l-1.24-4.8c.64-.053 1.253-.12 1.84-.2.587-.08 1.2-.173 1.84-.28l1.68-.28c.827-.133 1.8-.307 2.92-.52 1.147-.213 2.373-.44 3.68-.68 1.307-.267 2.627-.52 3.96-.76 1.333-.267 2.587-.507 3.76-.72 1.173-.24 2.2-.44 3.08-.6.88-.187 1.52-.333 1.92-.44a8.67 8.67 0 0 0 1.08-.24c.373-.133.693-.267.96-.4l3.2 2.28Zm25-4.52c.187.427.427 1.04.72 1.84.32.773.653 1.613 1 2.52.347.88.653 1.72.92 2.52s.48 1.427.64 1.88l-4.8 1.68c-.107-.507-.293-1.147-.56-1.92a98.662 98.662 0 0 0-.88-2.44c-.32-.88-.64-1.72-.96-2.52-.32-.8-.6-1.467-.84-2l4.76-1.56Zm14.76 2.92c-.213.64-.4 1.187-.56 1.64-.133.453-.267.88-.4 1.28a39.06 39.06 0 0 1-2.08 6.08c-.88 2-2 3.88-3.36 5.64-1.867 2.4-3.987 4.44-6.36 6.12-2.347 1.653-4.693 2.92-7.04 3.8l-4.2-4.28c1.467-.4 3.013-.987 4.64-1.76 1.627-.8 3.2-1.76 4.72-2.88 1.52-1.12 2.827-2.36 3.92-3.72.907-1.147 1.707-2.453 2.4-3.92a27.285 27.285 0 0 0 1.76-4.76c.48-1.707.8-3.387.96-5.04l5.6 1.8Zm-24.04-.8c.267.507.56 1.16.88 1.96.347.8.693 1.64 1.04 2.52.347.88.68 1.733 1 2.56.347.827.613 1.52.8 2.08l-4.88 1.84c-.16-.533-.4-1.227-.72-2.08a58.016 58.016 0 0 0-1-2.68c-.373-.96-.733-1.84-1.08-2.64-.32-.8-.6-1.413-.84-1.84l4.8-1.72Zm61.24-7.68a2.257 2.257 0 0 0 2.28 2.28c.64 0 1.19-.213 1.64-.64.45-.453.68-1 .68-1.64 0-.64-.23-1.187-.68-1.64-.45-.453-1-.68-1.64-.68-.61 0-1.15.227-1.6.68-.45.453-.68 1-.68 1.64Zm-2.48 0c0-.88.21-1.68.64-2.4a5.028 5.028 0 0 1 1.76-1.76 4.55 4.55 0 0 1 2.36-.64c.88 0 1.68.213 2.4.64a4.648 4.648 0 0 1 1.76 1.76c.43.72.64 1.52.64 2.4 0 .853-.21 1.64-.64 2.36a5.052 5.052 0 0 1-1.76 1.76c-.72.427-1.52.64-2.4.64a4.55 4.55 0 0 1-2.36-.64 5.51 5.51 0 0 1-1.76-1.76 4.515 4.515 0 0 1-.64-2.36Zm4.84 3.16c-.19.373-.35.827-.48 1.36-.13.507-.27.973-.4 1.4-.21.987-.49 2.093-.84 3.32-.35 1.2-.76 2.453-1.24 3.76a32.55 32.55 0 0 1-1.72 3.88c-.64 1.28-1.37 2.48-2.2 3.6-1.2 1.6-2.6 3.093-4.2 4.48a33.087 33.087 0 0 1-5.36 3.76c-1.973 1.12-4.147 2.067-6.52 2.84l-4.36-4.8c2.667-.64 4.96-1.427 6.88-2.36 1.92-.933 3.587-2 5-3.2 1.44-1.2 2.71-2.48 3.8-3.84.88-1.12 1.63-2.333 2.24-3.64a26.643 26.643 0 0 0 1.56-3.92c.43-1.333.72-2.573.88-3.72h-18.6c-.933 0-1.84.013-2.72.04-.853.027-1.533.067-2.04.12v-5.64c.4.053.88.107 1.44.16a39.995 39.995 0 0 0 3.32.16h18.52c.4 0 .88-.013 1.44-.04a6.88 6.88 0 0 0 1.68-.28l3.92 2.56Z"/>
    <path fill="#666" d="m616.23 1002-1.656-1.66 11.016-11.156-11.052-11.124 1.656-1.692 11.088 11.124 11.124-11.088 1.656 1.656-11.088 11.124 11.016 11.196-1.656 1.66-11.052-11.164L616.23 1002Zm-.252-10.62c-.576 0-1.044-.156-1.404-.468-.36-.336-.54-.876-.54-1.62 0-.744.18-1.284.54-1.62.36-.336.828-.504 1.404-.504.6 0 1.08.168 1.44.504.36.336.54.876.54 1.62 0 .744-.18 1.284-.54 1.62-.36.312-.84.468-1.44.468Zm11.16 11.16c-.432 0-.792-.1-1.08-.29a1.596 1.596 0 0 1-.648-.72c-.12-.31-.18-.69-.18-1.15 0-.432.06-.804.18-1.116.144-.336.36-.588.648-.756.288-.168.648-.252 1.08-.252.456 0 .828.084 1.116.252.288.168.504.42.648.756.144.312.216.684.216 1.116 0 .46-.072.84-.216 1.15-.144.31-.36.55-.648.72-.288.19-.66.29-1.116.29Zm0-22.356c-.432 0-.792-.084-1.08-.252a1.798 1.798 0 0 1-.648-.756c-.12-.336-.18-.72-.18-1.152 0-.432.06-.804.18-1.116.144-.336.36-.588.648-.756.288-.168.648-.252 1.08-.252.456 0 .828.084 1.116.252.288.168.504.42.648.756.144.312.216.684.216 1.116a2.9 2.9 0 0 1-.216 1.152c-.144.312-.36.564-.648.756-.288.168-.66.252-1.116.252Zm11.448 11.196c-.576 0-1.044-.156-1.404-.468-.36-.336-.54-.876-.54-1.62 0-.744.18-1.284.54-1.62.36-.336.828-.504 1.404-.504.6 0 1.08.168 1.44.504.36.336.54.876.54 1.62 0 .744-.18 1.284-.54 1.62-.36.312-.84.468-1.44.468Zm31.849 10.62h-16.992v-2.628l6.732-6.804a76.708 76.708 0 0 0 3.276-3.456c.888-1.008 1.56-1.992 2.016-2.952.456-.984.684-2.052.684-3.204 0-1.416-.42-2.484-1.26-3.204-.84-.744-1.932-1.116-3.276-1.116-1.248 0-2.352.216-3.312.648-.936.432-1.896 1.032-2.88 1.8l-1.692-2.124a14.42 14.42 0 0 1 2.196-1.548 12.097 12.097 0 0 1 2.628-1.08c.96-.264 1.98-.396 3.06-.396 1.608 0 2.988.276 4.14.828 1.152.552 2.04 1.344 2.664 2.376.648 1.008.972 2.22.972 3.636a8.836 8.836 0 0 1-.468 2.88 11.786 11.786 0 0 1-1.332 2.628 21.712 21.712 0 0 1-2.088 2.628 71.13 71.13 0 0 1-2.7 2.772l-5.364 5.292v.144h12.996v2.88Zm20.709-12.888c0 2.088-.156 3.948-.468 5.58-.312 1.632-.816 3.024-1.512 4.176-.672 1.128-1.56 1.992-2.664 2.592-1.08.6-2.388.9-3.924.9-1.92 0-3.516-.53-4.788-1.58-1.248-1.06-2.184-2.572-2.808-4.54-.6-1.992-.9-4.368-.9-7.128 0-2.784.276-5.16.828-7.128.576-1.968 1.488-3.468 2.736-4.5 1.248-1.056 2.892-1.584 4.932-1.584 1.92 0 3.516.528 4.788 1.584 1.272 1.032 2.22 2.532 2.844 4.5.624 1.968.936 4.344.936 7.128Zm-13.896 0c0 2.352.168 4.308.504 5.868.36 1.56.924 2.736 1.692 3.528.792.768 1.836 1.152 3.132 1.152s2.328-.384 3.096-1.152c.792-.768 1.368-1.932 1.728-3.492.36-1.584.54-3.552.54-5.904s-.18-4.296-.54-5.832c-.36-1.56-.936-2.724-1.728-3.492-.768-.792-1.8-1.188-3.096-1.188s-2.34.396-3.132 1.188c-.768.768-1.332 1.932-1.692 3.492-.336 1.536-.504 3.48-.504 5.832Zm34.39 12.888h-16.992v-2.628l6.732-6.804a76.708 76.708 0 0 0 3.276-3.456c.888-1.008 1.56-1.992 2.016-2.952.456-.984.684-2.052.684-3.204 0-1.416-.42-2.484-1.26-3.204-.84-.744-1.932-1.116-3.276-1.116-1.248 0-2.352.216-3.312.648-.936.432-1.896 1.032-2.88 1.8l-1.692-2.124a14.42 14.42 0 0 1 2.196-1.548 12.097 12.097 0 0 1 2.628-1.08c.96-.264 1.98-.396 3.06-.396 1.608 0 2.988.276 4.14.828 1.152.552 2.04 1.344 2.664 2.376.648 1.008.972 2.22.972 3.636a8.836 8.836 0 0 1-.468 2.88 11.786 11.786 0 0 1-1.332 2.628 21.712 21.712 0 0 1-2.088 2.628 71.13 71.13 0 0 1-2.7 2.772l-5.364 5.292v.144h12.996v2.88Zm21.754-5.832h-3.744V1002h-3.06v-5.832h-12.312v-2.7l12.096-17.316h3.276v17.172h3.744v2.844Zm-6.804-10.944v-1.692c.024-.528.048-1.02.072-1.476.024-.456.036-.888.036-1.296.024-.432.048-.84.072-1.224h-.144c-.192.456-.432.948-.72 1.476a11.95 11.95 0 0 1-.828 1.332l-7.704 10.98h9.216v-8.1Zm17.505-13.608 2.736.72a43.24 43.24 0 0 1-2.376 5.148 39.022 39.022 0 0 1-2.916 4.644 29.974 29.974 0 0 1-3.276 3.744 13.987 13.987 0 0 0-.684-.54 8.334 8.334 0 0 0-.864-.684 5.301 5.301 0 0 0-.792-.504 24.817 24.817 0 0 0 3.24-3.456 31.397 31.397 0 0 0 2.808-4.284 33.857 33.857 0 0 0 2.124-4.788Zm-.54 4.5h23.22v2.592h-24.552l1.332-2.592Zm-1.764 8.136h24.156v2.556h-21.456v8.496h-2.7v-11.052Zm-5.94 9.72h32.616v2.592h-32.616v-2.592Zm16.704-16.488h2.772v27.396h-2.772v-27.396Zm25.668 4.356h25.632v2.232h-25.632v-2.232Zm.504 10.512h20.628v2.232h-20.628v-2.232Zm5.292-13.644h2.592v9.18h8.748v-9.18h2.664v11.34h-14.004v-11.34Zm14.616 13.644h.54l.468-.108 1.692.9a16.513 16.513 0 0 1-3.852 4.86 22.782 22.782 0 0 1-5.4 3.386 36.066 36.066 0 0 1-6.48 2.19c-2.304.58-4.68 1.01-7.128 1.3-.072-.31-.228-.7-.468-1.15a5.253 5.253 0 0 0-.684-1.12c2.28-.24 4.512-.59 6.696-1.04a35.947 35.947 0 0 0 6.12-1.91c1.92-.792 3.612-1.752 5.076-2.88 1.464-1.128 2.604-2.472 3.42-4.032v-.396Zm-13.5 1.872c1.152 1.608 2.7 2.988 4.644 4.14 1.968 1.152 4.224 2.076 6.768 2.776 2.544.69 5.268 1.18 8.172 1.47-.168.19-.36.43-.576.72-.192.29-.384.57-.576.83-.168.29-.312.55-.432.79-2.952-.38-5.724-.99-8.316-1.83-2.592-.82-4.92-1.89-6.984-3.208-2.04-1.344-3.708-2.94-5.004-4.788l2.304-.9Zm2.664-22.464h2.772v4.932h-2.772v-4.932Zm-11.988 3.564h28.26v2.448h-28.26v-2.448Zm-1.332 0h2.592v10.404c0 1.392-.048 2.916-.144 4.572a47.177 47.177 0 0 1-.504 5.076c-.24 1.728-.6 3.408-1.08 5.044a19.38 19.38 0 0 1-1.872 4.5c-.144-.15-.36-.33-.648-.54-.264-.2-.54-.39-.828-.58a2.928 2.928 0 0 0-.756-.36c.744-1.3 1.332-2.69 1.764-4.176a33.22 33.22 0 0 0 .972-4.644c.216-1.584.348-3.132.396-4.644.072-1.536.108-2.952.108-4.248v-10.404ZM835.093 1002l-3.096-7.956h-10.188l-3.06 7.956h-3.276l10.044-25.812h2.916L838.441 1002h-3.348Zm-6.948-18.612c-.072-.192-.192-.54-.36-1.044-.168-.504-.336-1.02-.504-1.548a21.202 21.202 0 0 0-.36-1.26c-.12.48-.252.972-.396 1.476-.12.48-.252.924-.396 1.332-.12.408-.228.756-.324 1.044l-2.916 7.776h8.136l-2.88-7.776ZM849.193 1002h-9.288v-1.87l3.024-.686v-20.556l-3.024-.72v-1.872h9.288v1.872l-3.024.72v20.556l3.024.686v1.87Zm15.583-11.124h17.964v13.784h-2.592v-11.3h-12.852v11.48h-2.52v-13.964Zm16.632-18.972 2.16 2.088c-1.656.576-3.552 1.08-5.688 1.512-2.112.432-4.308.804-6.588 1.116a189.6 189.6 0 0 1-6.624.792 9.878 9.878 0 0 0-.36-1.152 9.922 9.922 0 0 0-.432-1.152c1.536-.168 3.132-.36 4.788-.576 1.656-.216 3.264-.456 4.824-.72a98.02 98.02 0 0 0 4.356-.9c1.368-.312 2.556-.648 3.564-1.008Zm-8.82 3.096h2.556v17.316h-2.556V975Zm-10.404 7.308h22.932v2.592h-22.932v-2.592Zm4.32 18.542h14.832v2.45h-14.832v-2.45Zm-12.564-26.714 1.512-1.908c.744.336 1.536.732 2.376 1.188a77.16 77.16 0 0 1 2.484 1.368c.792.432 1.44.816 1.944 1.152l-1.584 2.232c-.504-.384-1.152-.804-1.944-1.26-.768-.48-1.572-.96-2.412-1.44a42.786 42.786 0 0 0-2.376-1.332Zm-1.764 9.9 1.476-1.98c.72.336 1.5.732 2.34 1.188.84.456 1.644.9 2.412 1.332.792.432 1.44.816 1.944 1.152l-1.512 2.232a30.593 30.593 0 0 0-1.872-1.188c-.768-.456-1.572-.924-2.412-1.404a42.786 42.786 0 0 0-2.376-1.332Zm.828 18.544c.648-.92 1.368-2.01 2.16-3.28a103.161 103.161 0 0 0 2.448-4.104 156.338 156.338 0 0 0 2.268-4.212l1.98 1.764a80.837 80.837 0 0 1-2.088 3.96 160.49 160.49 0 0 1-2.268 4.032c-.768 1.32-1.5 2.54-2.196 3.67l-2.304-1.83Zm40.716-28.3h23.292v2.592H893.72v-2.592Zm0 8.388h23.22v2.556h-23.22v-2.556Zm-.216 8.604h23.508v2.556h-23.508v-2.556Zm-1.332-16.992h2.664v13.068c0 1.368-.06 2.832-.18 4.392a37.157 37.157 0 0 1-.684 4.752 20.25 20.25 0 0 1-1.476 4.568 14.963 14.963 0 0 1-2.592 4 3.34 3.34 0 0 0-.576-.65c-.264-.21-.528-.43-.792-.65-.264-.21-.504-.37-.72-.46 1.008-1.13 1.8-2.36 2.376-3.676a20.564 20.564 0 0 0 1.296-4.068c.288-1.416.468-2.82.54-4.212.096-1.392.144-2.724.144-3.996V974.28Zm23.76 0h2.664v26.93c0 .86-.132 1.52-.396 1.98-.24.45-.66.8-1.26 1.04-.6.22-1.44.35-2.52.4-1.08.05-2.472.06-4.176.03-.072-.33-.204-.76-.396-1.29a8.263 8.263 0 0 0-.54-1.3c.84.03 1.644.04 2.412.04.792.02 1.476.02 2.052 0h1.188c.36-.03.612-.1.756-.22.144-.12.216-.35.216-.68v-26.93Zm-12.456.972h2.736v29.308h-2.736v-29.308Zm37.044-.9a32.924 32.924 0 0 1-2.7 3.636 50.749 50.749 0 0 1-3.564 3.708 59.945 59.945 0 0 1-4.176 3.528 42.047 42.047 0 0 1-4.464 3.06c-.12-.192-.276-.42-.468-.684a17.585 17.585 0 0 0-.612-.792 4.124 4.124 0 0 0-.648-.648 43.482 43.482 0 0 0 6.048-4.212 46.68 46.68 0 0 0 5.292-5.112c1.584-1.8 2.832-3.528 3.744-5.184h2.772a36.273 36.273 0 0 0 3.24 4.176 50.444 50.444 0 0 0 3.924 3.924 55.563 55.563 0 0 0 4.32 3.384 36.431 36.431 0 0 0 4.356 2.592 9.369 9.369 0 0 0-1.008 1.116c-.312.432-.588.84-.828 1.224a50.548 50.548 0 0 1-4.32-2.808 70.852 70.852 0 0 1-4.212-3.42 50.72 50.72 0 0 1-3.78-3.744 34.644 34.644 0 0 1-2.916-3.744Zm.252 15.552h11.916v2.484h-11.916v-2.484Zm-15.408 11.486h30.708v2.45h-30.708v-2.45Zm14.076-19.91h2.844v21.17h-2.844v-21.17Zm-9.504 6.516h2.664v14.584h-2.664v-14.584Zm31.032 5.976h31.536v2.304h-31.536v-2.304Zm.108-15.804h31.284v2.304h-31.284v-2.304Zm1.476 6.192h28.512v2.232h-28.512v-2.232Zm1.8 4.86H989.3v2.088h-24.948v-2.088Zm10.908-3.816h2.7v19.476h-2.7v-19.476Zm-3.312-13.68h2.556v7.56h-2.556v-7.56Zm6.84 0h2.592v7.416h-2.592v-7.416Zm-4.392 23.184 2.16 1.008c-1.104 1.224-2.472 2.388-4.104 3.492a34.475 34.475 0 0 1-5.22 2.842 38.751 38.751 0 0 1-5.472 2.02c-.12-.24-.288-.51-.504-.79-.192-.27-.396-.54-.612-.83a3.977 3.977 0 0 0-.648-.65 37.95 37.95 0 0 0 5.4-1.69 36.262 36.262 0 0 0 5.112-2.486c1.584-.936 2.88-1.908 3.888-2.916Zm4.392-.072c.768.792 1.692 1.56 2.772 2.304a28.74 28.74 0 0 0 3.6 2.052 40.102 40.102 0 0 0 4.068 1.658c1.392.45 2.772.84 4.14 1.15-.192.19-.408.42-.648.68l-.648.87c-.216.31-.384.59-.504.83-1.368-.39-2.76-.87-4.176-1.44a38.938 38.938 0 0 1-4.068-1.98 33.407 33.407 0 0 1-3.672-2.452 21.924 21.924 0 0 1-2.952-2.772l2.088-.9Zm8.352-22.644 2.772.756a99.96 99.96 0 0 1-1.692 2.952c-.6.984-1.152 1.836-1.656 2.556l-2.196-.756a18.36 18.36 0 0 0 1.008-1.728c.36-.648.696-1.308 1.008-1.98.312-.672.564-1.272.756-1.8Zm-4.824 7.596 2.772.72c-.432.792-.876 1.584-1.332 2.376a39.868 39.868 0 0 1-1.296 2.052l-2.232-.684c.36-.648.732-1.392 1.116-2.232.408-.84.732-1.584.972-2.232Zm-18.324-6.876 2.304-.792a21.974 21.974 0 0 1 1.8 2.7c.6 1.008 1.032 1.884 1.296 2.628l-2.448.936c-.24-.744-.648-1.632-1.224-2.664a25.609 25.609 0 0 0-1.728-2.808Zm4.716 7.812 2.556-.468c.408.576.792 1.236 1.152 1.98.384.72.648 1.356.792 1.908l-2.664.54c-.144-.528-.396-1.164-.756-1.908a14.845 14.845 0 0 0-1.08-2.052Zm35.852 5.508c1.76 0 3.28.3 4.58.9 1.29.6 2.29 1.464 2.98 2.592.72 1.104 1.08 2.46 1.08 4.068 0 1.776-.38 3.312-1.15 4.608-.77 1.272-1.87 2.26-3.31 2.95-1.42.67-3.13 1.01-5.15 1.01-1.32 0-2.57-.12-3.742-.36-1.152-.24-2.124-.59-2.916-1.04v-2.992c.864.528 1.908.948 3.128 1.26 1.25.288 2.44.432 3.57.432 1.27 0 2.37-.192 3.31-.576.96-.408 1.7-1.02 2.23-1.836.53-.84.79-1.884.79-3.132 0-1.68-.51-2.964-1.54-3.852-1.04-.912-2.67-1.368-4.9-1.368-.67 0-1.44.06-2.3.18-.87.12-1.564.24-2.092.36l-1.584-1.008.972-12.132h12.884v2.88h-10.18l-.62 7.452c.41-.072.96-.156 1.66-.252s1.46-.144 2.3-.144Zm29.53 2.88c0 2.088-.15 3.948-.46 5.58-.32 1.632-.82 3.024-1.52 4.176-.67 1.128-1.56 1.992-2.66 2.592-1.08.6-2.39.9-3.92.9-1.92 0-3.52-.53-4.79-1.58-1.25-1.06-2.19-2.572-2.81-4.54-.6-1.992-.9-4.368-.9-7.128 0-2.784.28-5.16.83-7.128.57-1.968 1.49-3.468 2.73-4.5 1.25-1.056 2.9-1.584 4.94-1.584 1.92 0 3.51.528 4.78 1.584 1.28 1.032 2.22 2.532 2.85 4.5.62 1.968.93 4.344.93 7.128Zm-13.89 0c0 2.352.17 4.308.5 5.868.36 1.56.93 2.736 1.69 3.528.8.768 1.84 1.152 3.14 1.152 1.29 0 2.32-.384 3.09-1.152.79-.768 1.37-1.932 1.73-3.492.36-1.584.54-3.552.54-5.904s-.18-4.296-.54-5.832c-.36-1.56-.94-2.724-1.73-3.492-.77-.792-1.8-1.188-3.09-1.188-1.3 0-2.34.396-3.14 1.188-.76.768-1.33 1.932-1.69 3.492-.33 1.536-.5 3.48-.5 5.832Zm34.5 0c0 2.088-.16 3.948-.47 5.58-.31 1.632-.82 3.024-1.51 4.176-.68 1.128-1.56 1.992-2.67 2.592-1.08.6-2.39.9-3.92.9-1.92 0-3.52-.53-4.79-1.58-1.25-1.06-2.18-2.572-2.81-4.54-.6-1.992-.9-4.368-.9-7.128 0-2.784.28-5.16.83-7.128.58-1.968 1.49-3.468 2.74-4.5 1.24-1.056 2.89-1.584 4.93-1.584 1.92 0 3.51.528 4.79 1.584 1.27 1.032 2.22 2.532 2.84 4.5.62 1.968.94 4.344.94 7.128Zm-13.9 0c0 2.352.17 4.308.5 5.868.36 1.56.93 2.736 1.7 3.528.79.768 1.83 1.152 3.13 1.152 1.29 0 2.33-.384 3.09-1.152.8-.768 1.37-1.932 1.73-3.492.36-1.584.54-3.552.54-5.904s-.18-4.296-.54-5.832c-.36-1.56-.93-2.724-1.73-3.492-.76-.792-1.8-1.188-3.09-1.188-1.3 0-2.34.396-3.13 1.188-.77.768-1.34 1.932-1.7 3.492-.33 1.536-.5 3.48-.5 5.832Zm30.25 12.098h20.37v2.63h-20.37v-2.63Zm1.44-17.678h18.14v2.592h-18.14v-2.592Zm7.7-11.484h2.77v30.422h-2.77v-30.422Zm-21.74 6.48h11.95v2.484h-11.95v-2.484Zm5.69 10.764 2.7-3.168v18.756h-2.7v-15.588Zm0-17.532h2.7v7.992h-2.7v-7.992Zm2.44 15.048c.32.216.77.576 1.37 1.08.6.504 1.25 1.056 1.95 1.656.69.576 1.33 1.116 1.9 1.62.58.504.99.876 1.23 1.116l-1.66 2.196c-.31-.384-.74-.864-1.29-1.44a95.396 95.396 0 0 0-1.8-1.8c-.63-.624-1.23-1.2-1.8-1.728a27.66 27.66 0 0 0-1.44-1.296l1.54-1.404Zm2.81-8.28h.58l.5-.108 1.51 1.008c-.88 2.208-2.05 4.32-3.49 6.336a38.24 38.24 0 0 1-4.75 5.436c-1.7 1.632-3.41 3.012-5.11 4.14-.1-.264-.23-.552-.4-.864-.17-.312-.35-.612-.54-.9a4.426 4.426 0 0 0-.47-.684c1.64-.96 3.24-2.16 4.83-3.6a34.957 34.957 0 0 0 4.32-4.824c1.32-1.776 2.33-3.576 3.02-5.4v-.54Zm42.27.9h9.75v2.124h-9.75v-2.124Zm-.33 5.544h10.59v2.124h-10.59v-2.124Zm4.03-8.64h2.2v9.9h-2.2v-9.9Zm-6.66-3.06h15.74v2.34h-15.74v-2.34Zm4.29 16.56h8.21v9.324h-8.21v-2.088h6.12v-5.148h-6.12v-2.088Zm-1.12 0h2.05v10.768h-2.05v-10.768Zm11.56-16.56h2.52v28.188c0 .79-.1 1.42-.29 1.87-.19.46-.55.81-1.08 1.05-.48.21-1.18.34-2.09.39-.91.05-2.04.07-3.38.07-.05-.21-.12-.49-.22-.82a8.24 8.24 0 0 0-.29-.98c-.09-.33-.2-.62-.32-.86.98.02 1.9.04 2.74.04h1.69c.29-.03.48-.09.57-.18.1-.1.15-.29.15-.58v-28.188Zm-16.09 0h2.44v12.924c0 1.416-.03 2.94-.1 4.572a55.21 55.21 0 0 1-.47 5.004c-.22 1.68-.55 3.324-1.01 4.928-.46 1.61-1.06 3.08-1.8 4.4-.14-.15-.35-.33-.61-.54-.27-.2-.54-.38-.83-.54-.26-.17-.49-.3-.68-.4.96-1.68 1.64-3.53 2.05-5.544.43-2.016.71-4.056.83-6.12.12-2.088.18-4.008.18-5.76v-12.924Zm-12.03 9.396h9.25v2.124h-9.25v-2.124Zm.25-9.648h8.93v2.16h-8.93v-2.16Zm-.25 14.436h9.25v2.16h-9.25v-2.16Zm-1.47-9.72h11.66v2.268h-11.66v-2.268Zm2.73 14.58h7.96v10.474h-7.96v-2.23h5.73v-6.012h-5.73v-2.232Zm-1.29 0h2.23v12.164h-2.23v-12.164Zm35.13 9.364h32.19v2.44h-32.19v-2.44Zm7.38-9.292h17.39v2.016h-17.39v-2.016Zm0 4.608h17.39v2.052h-17.39v-2.052Zm-1.33-9.468h20.09v15.442h-2.77v-13.174h-14.66v13.324h-2.66v-15.592Zm-5.94-11.196h31.93v2.376h-31.93v-2.376Zm14.51-4.572h2.66v14.616h-2.66V971.76Zm-1.55 5.292 2.2.9c-.8 1.152-1.73 2.28-2.81 3.384-1.08 1.08-2.26 2.1-3.53 3.06a43.051 43.051 0 0 1-3.89 2.556 27.115 27.115 0 0 1-3.96 1.908 9.201 9.201 0 0 0-.79-1.08c-.34-.432-.65-.768-.94-1.008 1.28-.456 2.57-1.02 3.89-1.692a35.193 35.193 0 0 0 3.82-2.34 32.494 32.494 0 0 0 3.38-2.736c1.03-.96 1.91-1.944 2.63-2.952Zm5.72.072c.72.984 1.61 1.944 2.67 2.88 1.05.936 2.19 1.812 3.42 2.628 1.25.816 2.54 1.56 3.89 2.232 1.34.648 2.67 1.176 3.99 1.584-.19.168-.41.384-.65.648-.21.264-.42.528-.61.792s-.36.516-.5.756a31.93 31.93 0 0 1-4.07-1.872 40.054 40.054 0 0 1-3.92-2.484 37.856 37.856 0 0 1-3.53-2.988 21.43 21.43 0 0 1-2.85-3.312l2.16-.864Zm38.52-5.364h2.74v14.112h-2.74V971.76Zm-4.68 28.84h12.86v2.44h-12.86v-2.44Zm-3.67-23.728h19.69v2.448h-19.69v-2.448Zm1.15 7.848h17.72v2.52h-17.72v-2.52Zm1.16 6.408h15.55v13.612h-2.59v-11.164h-10.44v11.264h-2.52v-13.712Zm-10.19-19.368 2.41.936c-.43.864-.91 1.776-1.44 2.736-.53.96-1.04 1.884-1.55 2.772-.5.864-.99 1.632-1.47 2.304l-1.88-.828c.46-.696.93-1.5 1.41-2.412.48-.936.95-1.884 1.4-2.844.46-.984.83-1.872 1.12-2.664Zm4.35 4.104 2.38 1.008c-.84 1.368-1.78 2.808-2.81 4.32-1.01 1.488-2.03 2.94-3.06 4.356-1.03 1.416-2 2.64-2.91 3.672l-1.73-.9c.69-.816 1.41-1.74 2.16-2.772a72.486 72.486 0 0 0 2.19-3.24 71.997 71.997 0 0 0 2.09-3.348 51.61 51.61 0 0 0 1.69-3.096Zm-10 3.492 1.33-1.8c.67.552 1.35 1.164 2.05 1.836.7.672 1.33 1.344 1.91 2.016.57.648 1.02 1.236 1.33 1.764l-1.44 2.088c-.34-.576-.79-1.212-1.37-1.908a28.477 28.477 0 0 0-1.83-2.088 42.94 42.94 0 0 0-1.98-1.908Zm8.85 4.86 2.02-.864c.53.792 1.03 1.632 1.51 2.52.48.888.9 1.752 1.26 2.592.38.84.66 1.596.83 2.268l-2.13 1.008c-.19-.672-.46-1.44-.82-2.304-.36-.864-.77-1.752-1.23-2.664-.45-.912-.93-1.764-1.44-2.556Zm-8.93 3.636c1.61-.048 3.52-.108 5.73-.18 2.23-.096 4.52-.204 6.87-.324l-.03 2.232c-2.23.144-4.43.288-6.59.432-2.16.12-4.08.216-5.76.288l-.22-2.448Zm9.87 5.004 2.01-.684a36.657 36.657 0 0 1 1.48 3.6c.48 1.296.82 2.412 1.01 3.348l-2.23.756c-.17-.96-.47-2.088-.9-3.384-.44-1.32-.89-2.532-1.37-3.636Zm-7.89-.504 2.31.396a45.034 45.034 0 0 1-1.01 5.04c-.43 1.632-.94 3.022-1.51 4.172-.17-.12-.39-.24-.65-.36-.24-.12-.5-.24-.79-.36a5.2 5.2 0 0 0-.72-.32c.62-1.104 1.11-2.412 1.47-3.924.39-1.536.69-3.084.9-4.644Zm4.14-3.456h2.45v16.054h-2.45v-16.054Zm30.82 1.98h31.57v2.484h-31.57v-2.484Zm14.36-16.488h2.85v30.492h-2.85v-30.492Zm-.97 17.532 2.27 1.008c-1.13 1.512-2.5 2.964-4.1 4.356a36.744 36.744 0 0 1-5.19 3.746c-1.82 1.08-3.63 1.97-5.43 2.66-.15-.21-.33-.47-.54-.75-.22-.29-.45-.57-.69-.83-.21-.24-.43-.46-.65-.65 1.35-.43 2.7-.98 4.07-1.656a35.548 35.548 0 0 0 3.96-2.268c1.3-.84 2.47-1.74 3.53-2.7 1.08-.96 2-1.932 2.77-2.916Zm4.61-.108c.79.984 1.74 1.944 2.84 2.88 1.13.936 2.34 1.824 3.64 2.664 1.3.816 2.63 1.56 4 2.232 1.39.672 2.73 1.222 4.03 1.652-.19.17-.41.4-.65.69-.24.26-.47.54-.68.83-.2.28-.36.54-.51.75-1.32-.53-2.67-1.16-4.07-1.91a44.618 44.618 0 0 1-4.03-2.552 41.178 41.178 0 0 1-3.67-2.988 28.853 28.853 0 0 1-3.02-3.276l2.12-.972Zm-11.74-10.08v3.744h19.12v-3.744h-19.12Zm0-5.904v3.672h19.12v-3.672h-19.12Zm-2.77-2.34H1231v14.328h-24.81v-14.328Zm49.75.252c-.02.24-.06.576-.1 1.008-.03.432-.06.876-.11 1.332-.03.456-.04.864-.04 1.224v6.588c0 .984.03 2.136.07 3.456.08 1.296.14 2.628.18 3.996.08 1.368.14 2.664.18 3.888.08 1.2.11 2.184.11 2.952 0 .744-.12 1.452-.36 2.126-.24.65-.62 1.22-1.15 1.73-.5.5-1.18.9-2.02 1.18-.84.29-1.86.44-3.06.44-1.65 0-3.13-.2-4.42-.58-1.3-.38-2.33-.98-3.1-1.8-.74-.84-1.12-1.944-1.12-3.312 0-1.08.33-2.064.98-2.952.64-.888 1.64-1.596 2.98-2.124 1.35-.552 3.05-.828 5.12-.828 1.77 0 3.49.204 5.14.612 1.68.408 3.26.948 4.72 1.62 1.49.672 2.84 1.428 4.07 2.268 1.25.816 2.33 1.632 3.24 2.448l-1.73 2.738c-.89-.91-1.92-1.79-3.1-2.63a23.507 23.507 0 0 0-3.78-2.304 20.436 20.436 0 0 0-4.32-1.62 17.266 17.266 0 0 0-4.6-.612c-1.88 0-3.32.3-4.32.9-1.01.6-1.52 1.392-1.52 2.376s.48 1.752 1.44 2.3c.96.53 2.31.8 4.04.8 1.32 0 2.3-.3 2.95-.9.65-.628.97-1.564.97-2.812 0-.672-.02-1.56-.07-2.664-.05-1.128-.1-2.34-.15-3.636-.04-1.296-.09-2.556-.14-3.78-.05-1.248-.07-2.34-.07-3.276v-4.644c0-.792-.01-1.44-.04-1.944 0-.432-.01-.876-.03-1.332-.03-.48-.06-.912-.11-1.296-.03-.408-.07-.72-.15-.936h3.42Zm-1.83 7.236c.6 0 1.39-.012 2.37-.036a184.551 184.551 0 0 0 6.66-.288c1.16-.096 2.22-.204 3.21-.324l.11 2.7c-.99.096-2.07.18-3.24.252l-3.46.216c-1.15.048-2.23.084-3.24.108-.98.024-1.79.036-2.41.036v-2.664Zm29.86-7.38c-.19.672-.38 1.452-.58 2.34-.16.864-.33 1.776-.5 2.736-.14.936-.28 1.836-.4 2.7-.09.864-.16 1.608-.21 2.232.38-.912.89-1.848 1.51-2.808a13.63 13.63 0 0 1 2.23-2.628c.87-.816 1.8-1.476 2.81-1.98a7.281 7.281 0 0 1 3.24-.756c1.61 0 3.02.504 4.25 1.512 1.25 1.008 2.22 2.436 2.91 4.284.7 1.848 1.05 4.032 1.05 6.552 0 2.496-.37 4.668-1.12 6.516-.74 1.824-1.79 3.372-3.13 4.644-1.34 1.27-2.95 2.3-4.82 3.1-1.85.79-3.89 1.38-6.12 1.76l-1.7-2.59c1.95-.29 3.76-.72 5.44-1.298 1.7-.6 3.19-1.404 4.46-2.412 1.28-1.032 2.26-2.34 2.96-3.924.72-1.584 1.08-3.504 1.08-5.76 0-1.896-.22-3.576-.65-5.04-.43-1.488-1.07-2.652-1.91-3.492-.84-.84-1.9-1.26-3.17-1.26-1.13 0-2.21.36-3.24 1.08-1.03.72-1.98 1.656-2.84 2.808a15.875 15.875 0 0 0-2.05 3.672c-.53 1.296-.86 2.532-.98 3.708-.09.696-.14 1.38-.14 2.052.02.672.1 1.464.22 2.376l-2.78.216c-.09-.672-.19-1.5-.28-2.484-.08-.984-.11-2.064-.11-3.24 0-.84.03-1.776.11-2.808.09-1.056.19-2.112.28-3.168.12-1.08.24-2.112.36-3.096.15-.984.27-1.836.36-2.556.08-.552.14-1.08.18-1.584.05-.528.09-1.032.11-1.512l3.17.108Z"/>
  </g>
  <defs>
    <clipPath id="a">
      <path fill="#fff" d="M0 0h1920v1080H0z"/>
    </clipPath>
  </defs>
</svg>
