<svg xmlns="http://www.w3.org/2000/svg" width="1920" height="1080" fill="none" viewBox="0 0 1920 1080">
  <g clip-path="url(#a)">
    <path fill="#fff" d="M1920 0H0v1080h1920V0Z"/>
    <path fill="#000" d="m503.366 462-7.38-30.6h-41.58l-7.56 30.6h-31.68l41.04-129.06h37.44L534.866 462h-31.5Zm-22.14-83.34c-.72-2.52-1.44-5.16-2.16-7.92-.72-2.76-1.44-5.64-2.16-8.64-.6-3-1.2-6.06-1.8-9.18-.48 3.12-1.08 6.24-1.8 9.36-.72 3-1.44 5.88-2.16 8.64-.6 2.76-1.26 5.34-1.98 7.74l-8.28 29.88h28.8l-8.46-29.88ZM599.313 462h-58.86v-15.48l14.94-7.2v-83.16l-14.94-7.2v-15.48h58.86v15.48l-14.76 7.2v83.16l14.76 7.2V462Zm76.081-56.88h94.5v72h-20.7v-52.38h-54v53.28h-19.8v-72.9Zm80.1-96.12 16.56 16.92c-8.76 3.36-18.48 6.3-29.16 8.82-10.68 2.4-21.66 4.38-32.94 5.94a670.026 670.026 0 0 1-32.76 3.78c-.36-2.52-1.2-5.58-2.52-9.18-1.2-3.72-2.4-6.78-3.6-9.18 7.68-.84 15.42-1.8 23.22-2.88 7.92-1.08 15.6-2.34 23.04-3.78 7.44-1.44 14.4-3 20.88-4.68 6.48-1.8 12.24-3.72 17.28-5.76Zm-43.2 20.34h20.52v87.12h-20.52v-87.12Zm-48.06 32.22h114.66v20.52h-114.66v-20.52Zm25.38 89.46h68.22v19.62h-68.22v-19.62ZM619.774 327l12.24-15.66c3.36 1.68 7.14 3.6 11.34 5.76 4.2 2.16 8.28 4.32 12.24 6.48 4.08 2.16 7.38 4.08 9.9 5.76l-12.78 17.46c-2.4-1.8-5.52-3.84-9.36-6.12-3.84-2.28-7.86-4.62-12.06-7.02-4.2-2.52-8.04-4.74-11.52-6.66Zm-8.64 49.86 11.7-16.02c3.36 1.44 7.2 3.24 11.52 5.4 4.32 2.16 8.52 4.32 12.6 6.48 4.08 2.04 7.38 3.9 9.9 5.58l-12.06 18c-2.4-1.8-5.58-3.84-9.54-6.12-3.84-2.28-7.92-4.62-12.24-7.02-4.32-2.4-8.28-4.5-11.88-6.3Zm2.7 84.6c3.24-4.56 6.78-9.9 10.62-16.02 3.96-6.24 7.98-12.84 12.06-19.8 4.08-7.08 7.92-14.1 11.52-21.06l15.84 14.4c-3.12 6.24-6.48 12.66-10.08 19.26a505.19 505.19 0 0 1-10.8 19.44c-3.6 6.36-7.26 12.48-10.98 18.36l-18.18-14.58Zm208.98-140.4h110.34v20.7h-110.34v-20.7Zm0 41.58h110.7v20.16h-110.7v-20.16Zm-.36 42.48h111.78v20.34h-111.78v-20.34Zm-12.06-84.06h21.24v64.8c0 7.08-.3 14.82-.9 23.22-.6 8.4-1.8 16.86-3.6 25.38-1.68 8.4-4.26 16.44-7.74 24.12-3.36 7.68-7.8 14.52-13.32 20.52-1.08-1.44-2.7-3.06-4.86-4.86-2.16-1.8-4.38-3.54-6.66-5.22-2.16-1.68-4.02-3-5.58-3.96 4.92-5.4 8.82-11.34 11.7-17.82 2.88-6.6 4.98-13.38 6.3-20.34 1.44-7.08 2.34-14.1 2.7-21.06.48-7.08.72-13.8.72-20.16v-64.62Zm115.2 0h21.6v131.58c0 5.76-.72 10.2-2.16 13.32-1.44 3.24-4.02 5.7-7.74 7.38-3.6 1.68-8.22 2.76-13.86 3.24-5.64.48-12.6.66-20.88.54-.36-2.88-1.26-6.36-2.7-10.44-1.44-4.08-2.88-7.5-4.32-10.26l10.44.36h15.12c1.68 0 2.82-.3 3.42-.9.72-.6 1.08-1.74 1.08-3.42v-131.4Zm-59.76 8.28h21.78v146.52h-21.78V329.34Zm138.416-8.64h32.4v16.2h-41.396l8.996-16.2Zm-5.756 48.78v23.4h45.356v-23.4h-45.356Zm-18.72-17.28h84.056v57.96h-84.056V352.2Zm32.216 6.66h18.18v42.66h-18.18v-42.66Zm-14.036 47.7h18.536c-.72 9.6-2.1 18.96-4.14 28.08-2.04 9-5.52 17.34-10.44 25.02-4.796 7.56-11.756 14.04-20.876 19.44-.84-1.68-2.04-3.6-3.6-5.76-1.44-2.16-3-4.26-4.68-6.3-1.56-1.92-3.12-3.48-4.68-4.68 7.92-4.08 13.92-9.06 18-14.94 4.08-6 6.9-12.48 8.46-19.44 1.68-7.08 2.82-14.22 3.42-21.42Zm26.636 0h19.62v42.66c0 2.28.42 4.02 1.26 5.22.84 1.08 2.52 1.8 5.04 2.16 2.52.36 6.3.54 11.34.54h45.54c3.84 0 6.72-.36 8.64-1.08 1.92-.84 3.24-2.46 3.96-4.86.84-2.4 1.44-6.06 1.8-10.98 2.28 1.56 5.22 3 8.82 4.32 3.72 1.32 6.96 2.22 9.72 2.7-.96 7.56-2.52 13.32-4.68 17.28-2.04 4.08-5.16 6.9-9.36 8.46-4.2 1.56-10.08 2.34-17.64 2.34h-47.52c-9.72 0-17.22-.78-22.5-2.34-5.28-1.44-8.94-4.02-10.98-7.74-2.04-3.6-3.06-8.76-3.06-15.48v-43.2Zm-24.3-97.92 19.26 3.24c-2.64 6.48-5.76 12.96-9.36 19.44-3.6 6.36-7.74 12.54-12.416 18.54-4.68 6-10.08 11.7-16.2 17.1-1.44-2.16-3.54-4.5-6.3-7.02-2.76-2.52-5.22-4.44-7.38-5.76 5.4-4.44 10.14-9.24 14.22-14.4 4.2-5.16 7.8-10.44 10.8-15.84 3.12-5.4 5.58-10.5 7.376-15.3Zm29.88 12.06h3.96l2.7-.72 12.78 7.38c-1.8 4.08-3.96 8.52-6.48 13.32-2.4 4.68-4.98 9.24-7.74 13.68-2.64 4.44-5.28 8.4-7.92 11.88-1.92-1.44-4.32-3-7.2-4.68-2.88-1.8-5.4-3.18-7.56-4.14 2.28-3.24 4.56-6.84 6.84-10.8 2.4-3.96 4.5-7.92 6.3-11.88 1.8-3.96 3.24-7.5 4.32-10.62v-3.42Zm31.68 23.76h61.74v20.34h-61.74v-20.34Zm54.18 0h20.16v5.22c0 1.32-.06 2.4-.18 3.24-.36 14.04-.78 26.04-1.26 36-.36 9.96-.84 18.24-1.44 24.84-.48 6.48-1.2 11.64-2.16 15.48-.84 3.72-1.86 6.48-3.06 8.28-1.68 2.4-3.48 4.2-5.4 5.4-1.92 1.08-4.2 1.86-6.84 2.34-2.16.36-4.92.6-8.28.72-3.36.12-6.9.12-10.62 0-.12-3.12-.72-6.54-1.8-10.26-1.08-3.84-2.34-7.14-3.78-9.9 2.88.24 5.52.42 7.92.54 2.4.12 4.26.18 5.58.18 1.2 0 2.22-.18 3.06-.54.84-.36 1.68-1.08 2.52-2.16 1.08-1.44 1.92-4.68 2.52-9.72.72-5.16 1.32-13.02 1.8-23.58.48-10.56.9-24.66 1.26-42.3v-3.78Zm-35.64-32.94h20.34c-.12 16.68-.48 32.1-1.08 46.26-.6 14.16-2.04 27.06-4.32 38.7-2.16 11.64-5.64 22.02-10.44 31.14-4.68 9-11.28 16.8-19.8 23.4-.84-1.68-2.04-3.48-3.6-5.4a57.721 57.721 0 0 0-5.04-5.76c-1.68-1.8-3.3-3.18-4.86-4.14 7.32-5.76 12.96-12.6 16.92-20.52 3.96-7.92 6.72-16.98 8.28-27.18 1.68-10.2 2.7-21.66 3.06-34.38.36-12.72.54-26.76.54-42.12Zm163.44-2.7 23.22 5.4c-2.64 4.92-5.46 9.9-8.46 14.94-3 5.04-6 9.84-9 14.4-2.88 4.44-5.64 8.46-8.28 12.06l-18-5.4c2.52-3.84 5.04-8.16 7.56-12.96 2.64-4.8 5.04-9.66 7.2-14.58 2.28-5.04 4.2-9.66 5.76-13.86Zm-31.86 34.92c7.68-.36 16.56-.78 26.64-1.26 10.2-.48 20.94-1.02 32.22-1.62 11.4-.6 22.74-1.2 34.02-1.8l-.18 18.18c-10.56.96-21.24 1.86-32.04 2.7-10.8.72-21.12 1.44-30.96 2.16-9.84.72-18.84 1.38-27 1.98l-2.7-20.34Zm63.9-14.58 18-8.1c3.6 3.84 7.14 8.04 10.62 12.6 3.48 4.56 6.66 9.12 9.54 13.68 2.88 4.44 5.1 8.52 6.66 12.24l-19.44 9.18c-1.32-3.6-3.3-7.68-5.94-12.24-2.64-4.68-5.7-9.42-9.18-14.22-3.36-4.8-6.78-9.18-10.26-13.14Zm-66.42 124.02c8.04-.36 17.22-.84 27.54-1.44 10.44-.72 21.36-1.44 32.76-2.16 11.52-.84 22.92-1.68 34.2-2.52v19.62c-10.92.96-21.9 1.86-32.94 2.7-10.92.96-21.42 1.8-31.5 2.52-9.96.84-19.08 1.56-27.36 2.16l-2.7-20.88Zm70.74-16.74 17.64-7.38c3.36 4.2 6.6 8.82 9.72 13.86 3.24 4.92 6.12 9.84 8.64 14.76 2.64 4.8 4.56 9.18 5.76 13.14l-18.9 8.28c-1.08-3.84-2.82-8.22-5.22-13.14s-5.16-9.96-8.28-15.12c-3-5.16-6.12-9.96-9.36-14.4Zm-44.28-43.2v16.56h54.9v-16.56h-54.9Zm-19.62-17.82h95.04v52.02h-95.04v-52.02Zm-27.18 18h19.8l-.18 1.44v3.42c0 1.32-.06 2.46-.18 3.42-.6 14.52-1.32 26.46-2.16 35.82-.72 9.24-1.68 16.44-2.88 21.6-1.08 5.04-2.46 8.7-4.14 10.98-2.04 2.4-4.14 4.08-6.3 5.04-2.04.96-4.5 1.68-7.38 2.16-2.52.48-5.76.72-9.72.72-3.84.12-7.92.06-12.24-.18-.24-3.24-.96-6.84-2.16-10.8-1.2-3.96-2.7-7.38-4.5-10.26 3.96.36 7.62.6 10.98.72h7.92c1.44.12 2.64.06 3.6-.18.96-.36 1.86-1.02 2.7-1.98 1.2-1.2 2.22-3.9 3.06-8.1.84-4.2 1.56-10.38 2.16-18.54.6-8.16 1.14-18.9 1.62-32.22v-3.06Zm-32.04-35.46h18.9c-.48 6.84-1.02 14.1-1.62 21.78-.6 7.68-1.26 15.06-1.98 22.14s-1.44 13.38-2.16 18.9l-18.9-2.88c.84-5.28 1.62-11.34 2.34-18.18.84-6.84 1.56-13.92 2.16-21.24.6-7.32 1.02-14.16 1.26-20.52Zm5.58 35.46h34.92v18.54h-37.08l2.16-18.54Zm90.18-35.1h20.7v99.9l-20.7.54V358.32Zm-91.44-.36h27v-19.98h-33.66v-19.26h54.18v58.5h-47.52v-19.26Zm180.18 93.6c10.68-.36 23.04-.72 37.08-1.08 14.16-.48 28.98-1.02 44.46-1.62 15.6-.6 30.96-1.2 46.08-1.8l-.72 19.8c-14.64.84-29.52 1.56-44.64 2.16-15 .72-29.28 1.38-42.84 1.98-13.56.72-25.8 1.32-36.72 1.8l-2.7-21.24Zm-.9-53.46h149.58v20.16h-149.58V398.1Zm32.04-34.74h84.42v19.8h-84.42v-19.8Zm11.88 47.88 24.66 6.66c-2.76 5.64-5.7 11.4-8.82 17.28-3 5.76-6 11.28-9 16.56-2.88 5.28-5.64 9.96-8.28 14.04l-18.9-6.3c2.4-4.44 4.92-9.42 7.56-14.94 2.64-5.64 5.04-11.34 7.2-17.1 2.28-5.88 4.14-11.28 5.58-16.2Zm44.82 18.54 18.9-10.08c5.4 4.68 10.74 9.72 16.02 15.12 5.28 5.4 10.14 10.86 14.58 16.38 4.44 5.4 8.04 10.38 10.8 14.94l-20.16 12.24c-2.4-4.56-5.82-9.72-10.26-15.48-4.32-5.64-9.12-11.4-14.4-17.28-5.16-5.88-10.32-11.16-15.48-15.84Zm-14.76-99.72c-4.8 6.84-10.98 13.86-18.54 21.06-7.56 7.08-15.96 13.8-25.2 20.16a216.56 216.56 0 0 1-28.8 16.74c-.72-1.8-1.86-3.78-3.42-5.94-1.44-2.28-3-4.44-4.68-6.48-1.56-2.16-3.12-4.02-4.68-5.58 10.32-4.56 20.22-10.2 29.7-16.92 9.48-6.84 17.94-14.04 25.38-21.6 7.56-7.68 13.56-15.06 18-22.14h22.68c4.8 6.6 10.14 12.84 16.02 18.72 5.88 5.88 12.12 11.28 18.72 16.2 6.6 4.8 13.38 9.12 20.34 12.96 7.08 3.72 14.22 6.9 21.42 9.54-2.64 2.64-5.16 5.76-7.56 9.36-2.4 3.6-4.56 7.02-6.48 10.26-9-4.2-18.12-9.36-27.36-15.48-9.24-6.12-17.88-12.72-25.92-19.8-7.92-7.08-14.46-14.1-19.62-21.06Z"/>
    <path fill="#333" d="M500.08 606.24h20.64v5.12h-20.64v-5.12Zm0 8.24h20.64v5.12h-20.64v-5.12Zm-.16 8.32h22.16v6.16h-22.16v-6.16Zm7.76-22.32h6.08v26.16h-6.08v-26.16Zm-4.72-3.44h18.08v6h-18.08v29.2h-6.72V602.8l4.8-5.76h1.92Zm7.28-6.56 7.2 1.92a95.526 95.526 0 0 0-2.64 5.2c-.8 1.653-1.573 3.093-2.32 4.32l-5.44-1.84c.587-1.333 1.2-2.907 1.84-4.72.64-1.867 1.093-3.493 1.36-4.88Zm-11.2-.32 6.64 1.68A56.916 56.916 0 0 1 501.6 602c-1.653 3.253-3.467 6.027-5.44 8.32-.373-.427-.88-.933-1.52-1.52-.587-.64-1.2-1.253-1.84-1.84a17.54 17.54 0 0 0-1.76-1.44c1.76-1.973 3.333-4.293 4.72-6.96a44.916 44.916 0 0 0 3.28-8.4Zm-14.8-28.88h36.16v7.92h-36.16v-7.92Zm5.68 11.92h30.48v17.84h-30.48v-6.56h21.92v-4.72h-21.92v-6.56Zm-3.76 0h8V594c0 2.773-.08 5.813-.24 9.12-.16 3.307-.453 6.693-.88 10.16a76.374 76.374 0 0 1-1.76 10.08c-.747 3.253-1.76 6.24-3.04 8.96-.427-.533-1.067-1.147-1.92-1.84a46.434 46.434 0 0 0-2.64-1.84c-.853-.587-1.6-1.013-2.24-1.28 1.44-3.253 2.48-6.827 3.12-10.72a89.107 89.107 0 0 0 1.28-11.76c.213-3.947.32-7.573.32-10.88v-20.8Zm37.04-11.92h33.36v8H523.2v-8Zm9.6 32v4.88h14.24v-4.88H532.8Zm0 11.6v4.96h14.24v-4.96H532.8Zm0-23.28v4.88h14.24v-4.88H532.8Zm-7.84-7.2h30.24v42.64h-30.24V574.4Zm10.4-8.72 10 1.12c-.64 2.4-1.307 4.773-2 7.12a147.038 147.038 0 0 1-1.92 6.08l-7.6-1.36c.373-1.92.693-4.08.96-6.48.32-2.4.507-4.56.56-6.48Zm-3.52 52.08 7.52 4.56c-1.707 1.973-3.84 4-6.4 6.08-2.56 2.08-5.04 3.733-7.44 4.96-.693-.853-1.653-1.84-2.88-2.96a55.312 55.312 0 0 0-3.2-2.72 30.693 30.693 0 0 0 4.64-2.8c1.6-1.12 3.067-2.32 4.4-3.6 1.387-1.28 2.507-2.453 3.36-3.52Zm9.68 4.56 6.72-4.32a96.28 96.28 0 0 1 3.68 3.36 82.443 82.443 0 0 1 3.76 3.68c1.173 1.227 2.133 2.347 2.88 3.36l-7.2 4.88c-.693-1.013-1.6-2.16-2.72-3.44a75.15 75.15 0 0 0-3.52-3.92 115.059 115.059 0 0 0-3.6-3.6Zm48.32-49.28 10.24 2.08c-3.04 4.267-6.693 8.213-10.96 11.84-4.267 3.573-9.493 6.773-15.68 9.6-.373-.747-.933-1.573-1.68-2.48a54.579 54.579 0 0 0-2.32-2.64c-.8-.853-1.573-1.52-2.32-2 5.653-2.133 10.347-4.64 14.08-7.52 3.787-2.933 6.667-5.893 8.64-8.88Zm2.16 5.44h23.92v7.12h-30.4l6.48-7.12Zm21.04 0h1.84l1.68-.48 6.48 3.92c-2.667 4.427-6 8.373-10 11.84-4 3.413-8.507 6.4-13.52 8.96-4.96 2.56-10.24 4.747-15.84 6.56-5.547 1.76-11.2 3.2-16.96 4.32-.427-1.227-1.067-2.667-1.92-4.32-.853-1.707-1.707-3.093-2.56-4.16 5.333-.8 10.587-1.947 15.76-3.44 5.227-1.493 10.107-3.28 14.64-5.36 4.587-2.133 8.64-4.587 12.16-7.36 3.52-2.773 6.267-5.813 8.24-9.12v-1.36Zm-24.8 5.36c3.093 3.467 7.12 6.48 12.08 9.04 5.013 2.56 10.693 4.693 17.04 6.4 6.4 1.653 13.173 2.827 20.32 3.52-.693.747-1.44 1.68-2.24 2.8a51.776 51.776 0 0 0-2.16 3.36c-.693 1.12-1.253 2.133-1.68 3.04-7.36-1.013-14.267-2.56-20.72-4.64-6.4-2.133-12.213-4.827-17.44-8.08-5.227-3.307-9.733-7.227-13.52-11.76l8.32-3.68Zm-10.88 24.24h46.08v24.96h-9.92V616H586.8v17.2h-9.44v-25.12Zm4.72 14.72h36.24v7.92h-36.24v-7.92Zm12.72-64.72h9.92v11.36h-9.92v-11.36Zm-29.28 6.48h68.96v17.76h-9.84v-9.04h-49.68v9.04h-9.44v-17.76Zm113.6 11.28h38.24v9.2h-38.24v-9.2Zm-35.44-5.44h38.08v8.88h-38.08v-8.88Zm55.6-12.4h9.52v63.2c0 2.72-.293 4.827-.88 6.32-.587 1.547-1.653 2.72-3.2 3.52-1.547.853-3.52 1.413-5.92 1.68-2.4.267-5.28.4-8.64.4-.053-.96-.24-2.053-.56-3.28a58.694 58.694 0 0 0-1.12-3.76 42.47 42.47 0 0 0-1.28-3.28c2.24.107 4.32.16 6.24.16h3.92c.693 0 1.173-.107 1.44-.32.32-.267.48-.747.48-1.44V558Zm-20.96 37.12 7.68-3.68a65 65 0 0 1 3.68 5.68 60.007 60.007 0 0 1 3.2 6c.907 1.92 1.573 3.707 2 5.36l-8.32 4.16c-.373-1.547-.987-3.333-1.84-5.36a63.973 63.973 0 0 0-2.88-6.24 61.896 61.896 0 0 0-3.52-5.92Zm-33.12-4.56 6.8-5.52c2.347 2.56 4.773 5.28 7.28 8.16a227.098 227.098 0 0 1 7.28 8.8c2.4 2.987 4.533 5.893 6.4 8.72 1.867 2.773 3.387 5.36 4.56 7.76l-7.6 6.56c-1.067-2.4-2.507-5.04-4.32-7.92a143.289 143.289 0 0 0-6.16-8.96 189.627 189.627 0 0 0-7.04-9.12c-2.4-3.04-4.8-5.867-7.2-8.48Zm12.48-32.48h9.2v17.76h-9.2v-17.76Zm8.72 22.8 9.36 1.28c-1.333 7.733-3.2 14.773-5.6 21.12-2.4 6.293-5.413 11.893-9.04 16.8-3.627 4.853-8.027 9.013-13.2 12.48-.373-.64-.96-1.44-1.76-2.4a57.535 57.535 0 0 0-2.4-2.88c-.853-.907-1.627-1.653-2.32-2.24 4.907-2.827 9.013-6.373 12.32-10.64 3.307-4.32 5.973-9.28 8-14.88 2.08-5.6 3.627-11.813 4.64-18.64Zm87.84 11.04h9.52v27.84c0 1.493.16 2.427.48 2.8.373.373 1.093.56 2.16.56h6.48c.8 0 1.413-.293 1.84-.88.427-.64.72-1.893.88-3.76.213-1.867.373-4.64.48-8.32a20.02 20.02 0 0 0 2.48 1.6c1.013.533 2.053.987 3.12 1.36 1.067.373 2 .693 2.8.96-.267 4.533-.773 8.08-1.52 10.64-.693 2.56-1.76 4.347-3.2 5.36-1.44 1.067-3.44 1.6-6 1.6h-8.88c-2.827 0-5.013-.373-6.56-1.12-1.493-.693-2.56-1.92-3.2-3.68-.587-1.76-.88-4.107-.88-7.04v-27.92Zm-11.36 6.16 8.64 1.84c-.267 3.04-.64 6.187-1.12 9.44a79.192 79.192 0 0 1-1.92 9.28c-.747 2.88-1.733 5.413-2.96 7.6l-8.48-3.84c1.12-2.08 2.053-4.427 2.8-7.04.8-2.613 1.44-5.413 1.92-8.4s.853-5.947 1.12-8.88Zm11.92-15.12 6.48-6.32a142.87 142.87 0 0 1 6.88 3.52c2.453 1.333 4.8 2.72 7.04 4.16s4.08 2.773 5.52 4l-6.88 7.2c-1.28-1.28-3.013-2.667-5.2-4.16a85.035 85.035 0 0 0-6.88-4.48 86.26 86.26 0 0 0-6.96-3.92Zm24.48 16.24 8.56-3.28c1.6 2.72 3.147 5.68 4.64 8.88a95.35 95.35 0 0 1 3.84 9.28c1.12 2.987 1.867 5.707 2.24 8.16l-9.44 3.92c-.267-2.4-.907-5.147-1.92-8.24a89.92 89.92 0 0 0-3.52-9.52 113.572 113.572 0 0 0-4.4-9.2ZM757.52 558h10v14.64h-10V558Zm-24.16 9.44h63.2v9.12h-63.2v-9.12Zm-4.48 0h9.6v20.16c0 3.253-.133 6.853-.4 10.8a142.08 142.08 0 0 1-1.2 12.08 88.78 88.78 0 0 1-2.56 12c-1.067 3.893-2.507 7.413-4.32 10.56-.587-.533-1.413-1.173-2.48-1.92a156.465 156.465 0 0 0-3.12-2.08c-1.067-.64-1.973-1.12-2.72-1.44 1.653-2.88 2.96-6.027 3.92-9.44a68.795 68.795 0 0 0 2.08-10.48c.48-3.573.8-7.067.96-10.48.16-3.467.24-6.667.24-9.6v-20.16Zm86.72 20h43.28v9.28H815.6v-9.28Zm40.08 0h10.08V590c0 .64-.027 1.173-.08 1.6-.213 6.027-.453 11.227-.72 15.6-.267 4.32-.587 7.92-.96 10.8-.32 2.88-.72 5.173-1.2 6.88-.48 1.707-1.067 2.987-1.76 3.84-1.067 1.28-2.187 2.187-3.36 2.72-1.12.533-2.453.907-4 1.12-1.333.213-3.093.32-5.28.32-2.187.053-4.48.027-6.88-.08-.053-1.44-.373-3.093-.96-4.96-.587-1.813-1.307-3.387-2.16-4.72 2.24.16 4.32.267 6.24.32 1.92.053 3.36.08 4.32.08.747 0 1.36-.053 1.84-.16.48-.16.96-.48 1.44-.96.64-.693 1.147-2.213 1.52-4.56.427-2.4.8-5.92 1.12-10.56.32-4.693.587-10.747.8-18.16v-1.68Zm-31.12-28.4 10.4 3.04a90.163 90.163 0 0 1-7.12 13.44c-2.72 4.32-5.68 8.293-8.88 11.92-3.147 3.627-6.427 6.773-9.84 9.44-.587-.693-1.387-1.52-2.4-2.48a81.55 81.55 0 0 0-3.12-2.96c-1.013-.96-1.92-1.733-2.72-2.32 3.307-2.24 6.453-4.907 9.44-8a70.672 70.672 0 0 0 8.24-10.32c2.453-3.787 4.453-7.707 6-11.76Zm30.48-.16c1.28 2.56 2.827 5.173 4.64 7.84a100.633 100.633 0 0 0 5.92 7.84c2.187 2.507 4.4 4.88 6.64 7.12 2.293 2.24 4.533 4.187 6.72 5.84-.853.64-1.813 1.493-2.88 2.56a81.55 81.55 0 0 0-2.96 3.12 42.185 42.185 0 0 0-2.32 2.96 106.04 106.04 0 0 1-6.8-6.96 180.478 180.478 0 0 1-6.8-8.24 150.68 150.68 0 0 1-6.24-9.04 142.059 142.059 0 0 1-5.36-9.28l9.44-3.76Zm-25.2 31.28h10.48c-.373 4.48-.987 8.853-1.84 13.12a45.166 45.166 0 0 1-4.24 12.08c-1.92 3.787-4.72 7.253-8.4 10.4-3.627 3.093-8.427 5.733-14.4 7.92-.373-.907-.907-1.893-1.6-2.96a58.028 58.028 0 0 0-2.24-3.2c-.8-1.013-1.6-1.893-2.4-2.64 5.387-1.707 9.653-3.813 12.8-6.32 3.147-2.56 5.52-5.333 7.12-8.32a32.47 32.47 0 0 0 3.28-9.68c.64-3.413 1.12-6.88 1.44-10.4Zm93.12-5.12h34.8v9.04h-34.8v-9.04Zm-4.8-21.44 11.44 3.2c-.107.747-.8 1.227-2.08 1.44v18.8c0 3.2-.16 6.773-.48 10.72-.267 3.893-.8 7.947-1.6 12.16-.8 4.16-2 8.24-3.6 12.24a42.415 42.415 0 0 1-6.24 10.88c-.427-.693-1.093-1.467-2-2.32a38.83 38.83 0 0 0-2.72-2.32c-.96-.747-1.84-1.28-2.64-1.6a39.485 39.485 0 0 0 5.36-9.44 56.14 56.14 0 0 0 2.96-10.4 89.174 89.174 0 0 0 1.28-10.4c.213-3.467.32-6.667.32-9.6V563.6Zm29.04-4.72 8.08 7.52c-3.093 1.227-6.453 2.4-10.08 3.52-3.627 1.067-7.307 2-11.04 2.8-3.733.8-7.387 1.467-10.96 2-.213-1.12-.64-2.453-1.28-4-.587-1.547-1.2-2.827-1.84-3.84 3.307-.64 6.613-1.36 9.92-2.16a132.232 132.232 0 0 0 9.44-2.8c2.987-1.013 5.573-2.027 7.76-3.04Zm-9.28 28.96h9.52v45.28h-9.52v-45.28Zm-54.32-13.28h29.84v9.04H883.6v-9.04ZM894.56 558h9.2v75.12h-9.2V558Zm-.4 22.72 5.6 1.92a107.39 107.39 0 0 1-2.32 10 110.669 110.669 0 0 1-3.2 10.08 93.15 93.15 0 0 1-3.84 9.28c-1.387 2.827-2.853 5.28-4.4 7.36-.427-1.387-1.093-2.933-2-4.64-.907-1.707-1.76-3.147-2.56-4.32 1.44-1.76 2.8-3.813 4.08-6.16a73.767 73.767 0 0 0 3.52-7.44 91.828 91.828 0 0 0 2.96-8.08 74.91 74.91 0 0 0 2.16-8Zm8.88 7.04c.533.533 1.333 1.493 2.4 2.88a198.002 198.002 0 0 1 3.52 4.32 117.578 117.578 0 0 1 3.28 4.32 195.823 195.823 0 0 1 2.16 2.88l-5.44 7.6c-.48-1.227-1.173-2.64-2.08-4.24s-1.867-3.227-2.88-4.88c-1.013-1.707-2-3.307-2.96-4.8a259.833 259.833 0 0 0-2.32-3.76l4.32-4.32Zm104.24-16.56c-.53 4.053-1.23 8.373-2.08 12.96-.85 4.587-2 9.227-3.44 13.92-1.55 5.387-3.36 10.027-5.44 13.92-2.08 3.893-4.373 6.907-6.88 9.04-2.453 2.08-5.147 3.12-8.08 3.12s-5.653-.987-8.16-2.96c-2.453-2.027-4.427-4.8-5.92-8.32-1.44-3.52-2.16-7.52-2.16-12 0-4.64.933-9.013 2.8-13.12 1.867-4.107 4.453-7.733 7.76-10.88 3.36-3.2 7.253-5.707 11.68-7.52 4.48-1.813 9.307-2.72 14.48-2.72 4.96 0 9.41.8 13.36 2.4 4 1.6 7.41 3.813 10.24 6.64 2.83 2.827 4.99 6.133 6.48 9.92 1.49 3.787 2.24 7.867 2.24 12.24 0 5.6-1.15 10.613-3.44 15.04s-5.71 8.08-10.24 10.96c-4.48 2.88-10.08 4.853-16.8 5.92l-6-9.52c1.547-.16 2.91-.347 4.08-.56 1.17-.213 2.29-.453 3.36-.72 2.56-.64 4.93-1.547 7.12-2.72 2.24-1.227 4.19-2.72 5.84-4.48 1.65-1.813 2.93-3.92 3.84-6.32.96-2.4 1.44-5.04 1.44-7.92 0-3.147-.48-6.027-1.44-8.64-.96-2.613-2.37-4.88-4.24-6.8-1.87-1.973-4.13-3.467-6.8-4.48-2.67-1.067-5.73-1.6-9.2-1.6-4.267 0-8.027.773-11.28 2.32-3.253 1.493-6 3.44-8.24 5.84s-3.947 4.987-5.12 7.76c-1.12 2.773-1.68 5.413-1.68 7.92 0 2.667.32 4.907.96 6.72.64 1.76 1.413 3.093 2.32 4 .96.853 1.973 1.28 3.04 1.28 1.12 0 2.213-.56 3.28-1.68 1.12-1.173 2.213-2.933 3.28-5.28 1.067-2.347 2.133-5.307 3.2-8.88 1.227-3.84 2.267-7.947 3.12-12.32.853-4.373 1.467-8.64 1.84-12.8l10.88.32Zm54 18v29.52h-9.2v-20.64h-9.04v-8.88h18.24Zm0 25.68c1.55 2.667 3.73 4.64 6.56 5.92 2.83 1.227 6.27 1.92 10.32 2.08 2.4.107 5.28.187 8.64.24a740.172 740.172 0 0 0 21.52-.32c3.57-.16 6.77-.373 9.6-.64-.37.693-.77 1.627-1.2 2.8-.37 1.12-.75 2.267-1.12 3.44a35.415 35.415 0 0 0-.72 3.12c-2.45.16-5.28.267-8.48.32-3.2.053-6.51.08-9.92.08-3.41.053-6.72.053-9.92 0-3.2 0-6.03-.053-8.48-.16-4.8-.213-8.88-.987-12.24-2.32-3.36-1.333-6.24-3.547-8.64-6.64-1.55 1.6-3.2 3.173-4.96 4.72-1.71 1.6-3.57 3.253-5.6 4.96l-4.56-9.52c1.71-1.12 3.49-2.373 5.36-3.76a89.975 89.975 0 0 0 5.52-4.32h8.32Zm-17.92-49.36 7.28-5.44a71.528 71.528 0 0 1 4.8 4 74.754 74.754 0 0 1 4.56 4.48c1.39 1.493 2.51 2.907 3.36 4.24l-7.92 6.08c-.75-1.333-1.79-2.773-3.12-4.32a50.232 50.232 0 0 0-4.32-4.72c-1.6-1.6-3.15-3.04-4.64-4.32Zm50.64-6.56 10.56 1.92c-1.33 2.773-2.69 5.52-4.08 8.24-1.39 2.667-2.67 4.933-3.84 6.8l-8-2a58.28 58.28 0 0 0 2-4.72c.69-1.707 1.33-3.44 1.92-5.2a66.036 66.036 0 0 0 1.44-5.04Zm-15.12 10.56h35.52v8.08h-35.52v35.52h-9.28V576.8l7.36-7.28h1.92Zm-3.92 13.2h37.28v7.68h-37.28v-7.68Zm0 12.88h36.96v7.76h-36.96v-7.76Zm-5.36 13.28h46.16v8h-46.16v-8Zm19.76-35.92h9.12v39.52h-9.12v-39.52ZM1076 558.32l9.6 2.72a80.403 80.403 0 0 1-5.6 11.12 90.257 90.257 0 0 1-6.96 10.08c-2.51 3.093-5.09 5.787-7.76 8.08-.48-.64-1.15-1.44-2-2.4-.85-.96-1.73-1.92-2.64-2.88-.91-.96-1.71-1.707-2.4-2.24 3.73-2.88 7.17-6.48 10.32-10.8 3.15-4.32 5.63-8.88 7.44-13.68Zm82.24 1.76h9.68v57.68c0 1.6.08 2.8.24 3.6.21.8.64 1.333 1.28 1.6.69.213 1.68.32 2.96.32h11.68c1.33 0 2.32-.373 2.96-1.12.69-.8 1.17-2.213 1.44-4.24.32-2.08.59-4.987.8-8.72 1.17.853 2.61 1.68 4.32 2.48 1.71.747 3.23 1.28 4.56 1.6-.37 4.587-.99 8.267-1.84 11.04-.85 2.773-2.16 4.773-3.92 6-1.76 1.28-4.24 1.92-7.44 1.92h-13.76c-3.36 0-5.97-.427-7.84-1.28s-3.2-2.347-4-4.48c-.75-2.133-1.12-5.067-1.12-8.8v-57.6Zm29.92 13.44 7.04 8.4c-2.93 2.133-6.13 4.213-9.6 6.24a288.093 288.093 0 0 1-10.64 5.76c-3.57 1.867-7.09 3.6-10.56 5.2-.32-1.12-.88-2.4-1.68-3.84-.8-1.493-1.52-2.747-2.16-3.76 3.31-1.6 6.61-3.413 9.92-5.44 3.36-2.027 6.56-4.133 9.6-6.32 3.04-2.187 5.73-4.267 8.08-6.24Zm-45.44-14.4 9.52 3.12c-2.03 4.747-4.43 9.493-7.2 14.24-2.77 4.693-5.76 9.12-8.96 13.28-3.15 4.107-6.4 7.707-9.76 10.8-.32-.8-.83-1.84-1.52-3.12a65.74 65.74 0 0 0-2.08-3.84c-.75-1.333-1.41-2.4-2-3.2 2.93-2.453 5.76-5.333 8.48-8.64 2.72-3.36 5.25-6.96 7.6-10.8a81.396 81.396 0 0 0 5.92-11.84Zm-8.48 22.56 9.52-9.52.08.16v60.72h-9.6v-51.36Zm132.4-2.32a49.543 49.543 0 0 1-3.76 2.16c-1.28.693-2.67 1.413-4.16 2.16-1.23.64-2.75 1.387-4.56 2.24a285.66 285.66 0 0 0-5.76 2.88 137.9 137.9 0 0 0-6.16 3.28 83.806 83.806 0 0 0-5.84 3.44c-3.31 2.187-6 4.453-8.08 6.8-2.03 2.347-3.04 4.933-3.04 7.76s1.39 5.013 4.16 6.56c2.77 1.493 6.93 2.24 12.48 2.24 2.77 0 5.71-.107 8.8-.32 3.15-.267 6.24-.613 9.28-1.04 3.04-.48 5.73-1.013 8.08-1.6l-.16 11.52c-2.24.373-4.69.72-7.36 1.04-2.61.32-5.47.56-8.56.72-3.04.16-6.29.24-9.76.24-4 0-7.71-.32-11.12-.96-3.36-.587-6.32-1.573-8.88-2.96-2.51-1.387-4.48-3.253-5.92-5.6-1.39-2.347-2.08-5.227-2.08-8.64 0-3.413.75-6.507 2.24-9.28 1.49-2.773 3.52-5.333 6.08-7.68 2.61-2.347 5.47-4.56 8.56-6.64a84.088 84.088 0 0 1 6.08-3.68c2.13-1.227 4.21-2.4 6.24-3.52 2.08-1.12 4-2.133 5.76-3.04 1.81-.96 3.31-1.787 4.48-2.48a124.78 124.78 0 0 0 4.08-2.48 39.39 39.39 0 0 0 3.36-2.4l5.52 9.28Zm-40.24-17.12c1.33 3.52 2.72 6.907 4.16 10.16 1.49 3.253 2.96 6.293 4.4 9.12 1.49 2.827 2.85 5.36 4.08 7.6l-9.04 5.36c-1.44-2.453-2.93-5.2-4.48-8.24-1.55-3.04-3.09-6.24-4.64-9.6a344.704 344.704 0 0 1-4.48-10.32l10-4.08Zm88.56-4.08h9.92v12.72h-9.92v-12.72Zm-29.28 6.88h68.56v17.2h-9.92v-8.8h-49.12v8.8h-9.52v-17.2Zm7.2 14.8h54.96v7.76h-54.96v-7.76Zm-7.84 25.28h70.32v8.32h-70.32v-8.32Zm9.12-12.72h52v7.68h-52v-7.68Zm30.56 14.4c2.4 5.28 6.21 9.413 11.44 12.4 5.23 2.987 12 4.907 20.32 5.76-.96 1.013-2 2.347-3.12 4-1.07 1.653-1.92 3.12-2.56 4.4-6.08-.96-11.33-2.48-15.76-4.56-4.43-2.027-8.19-4.693-11.28-8-3.04-3.36-5.57-7.413-7.6-12.16l8.56-1.84Zm-10-31.52h9.68v22.24c0 2.773-.29 5.547-.88 8.32-.53 2.773-1.55 5.467-3.04 8.08-1.44 2.56-3.49 5.013-6.16 7.36-2.61 2.347-5.95 4.507-10 6.48-4.05 2.027-8.99 3.84-14.8 5.44-.37-.747-.91-1.6-1.6-2.56-.64-.907-1.36-1.84-2.16-2.8-.75-.96-1.49-1.76-2.24-2.4 5.55-1.28 10.19-2.72 13.92-4.32 3.79-1.6 6.8-3.333 9.04-5.2 2.29-1.867 4.03-3.813 5.2-5.84 1.17-2.08 1.97-4.16 2.4-6.24.43-2.133.64-4.293.64-6.48v-22.08Zm59.52-6.16v10.4h9.76v-10.4h-9.76Zm-8.08-8h26.48v26.48h-26.48v-26.48Zm10.32 23.2h8.4v36.8h-8.4v-36.8Zm-10.72 8.96h7.6v30.48h-7.6v-30.48Zm-3.6 27.76 9.2-1.84c3.52-.747 7.2-1.547 11.04-2.4 3.89-.907 7.76-1.813 11.6-2.72l.88 8.32a709.033 709.033 0 0 1-16.16 4c-5.44 1.333-10.35 2.533-14.72 3.6l-1.84-8.96Zm18.16-24h13.36v8.24h-13.36v-8.24Zm14.16-24.96 39.44-3.68.8 8-39.36 3.92-.88-8.24Zm2.32 12.32 35.36-3.44.88 7.76-35.36 3.68-.88-8Zm-2.08 12.88 42-4.16.96 8-42.08 4.4-.88-8.24Zm10.72-39.12h9.68c-.16 6.773-.05 13.36.32 19.76.37 6.4.93 12.373 1.68 17.92.8 5.547 1.76 10.427 2.88 14.64 1.17 4.213 2.48 7.493 3.92 9.84 1.49 2.347 3.09 3.52 4.8 3.52.85 0 1.49-.667 1.92-2 .43-1.333.75-3.76.96-7.28.96 1.12 2.11 2.133 3.44 3.04s2.56 1.6 3.68 2.08c-.48 3.573-1.17 6.347-2.08 8.32-.85 1.973-1.97 3.333-3.36 4.08-1.39.747-3.2 1.12-5.44 1.12-2.93 0-5.55-.987-7.84-2.96-2.24-1.92-4.19-4.613-5.84-8.08-1.6-3.467-2.96-7.573-4.08-12.32s-2.03-9.893-2.72-15.44c-.69-5.6-1.2-11.467-1.52-17.6-.27-6.133-.4-12.347-.4-18.64Zm11.92 5.36 5.2-5.76a48.99 48.99 0 0 1 4 2.08c1.39.747 2.72 1.547 4 2.4 1.28.8 2.32 1.547 3.12 2.24l-5.44 6.4c-.75-.8-1.73-1.627-2.96-2.48a66.38 66.38 0 0 0-4-2.56c-1.39-.853-2.69-1.627-3.92-2.32Zm8.96 39.76 8.08 3.68c-2.83 4-6.21 7.627-10.16 10.88-3.95 3.2-8.27 6-12.96 8.4a94.058 94.058 0 0 1-14.72 6.16c-.59-1.227-1.41-2.587-2.48-4.08-1.07-1.493-2.16-2.773-3.28-3.84 4.8-1.333 9.44-2.987 13.92-4.96 4.53-2.027 8.64-4.373 12.32-7.04 3.73-2.72 6.83-5.787 9.28-9.2Z"/>
    <path stroke="#005BAC" stroke-width="4" d="M300 720h1320"/>
    <path fill="#666" d="M852.128 953h-18.88v-2.92l7.48-7.56a85.42 85.42 0 0 0 3.64-3.84c.987-1.12 1.733-2.213 2.24-3.28.507-1.093.76-2.28.76-3.56 0-1.573-.467-2.76-1.4-3.56-.933-.827-2.147-1.24-3.64-1.24-1.387 0-2.613.24-3.68.72-1.04.48-2.107 1.147-3.2 2l-1.88-2.36c.747-.64 1.56-1.213 2.44-1.72.907-.507 1.88-.907 2.92-1.2 1.067-.293 2.2-.44 3.4-.44 1.787 0 3.32.307 4.6.92 1.28.613 2.267 1.493 2.96 2.64.72 1.12 1.08 2.467 1.08 4.04 0 1.12-.173 2.187-.52 3.2-.347.987-.84 1.96-1.48 2.92s-1.413 1.933-2.32 2.92a79.522 79.522 0 0 1-3 3.08l-5.96 5.88v.16h14.44v3.2Zm23.011-14.32c0 2.32-.174 4.387-.52 6.2-.347 1.813-.907 3.36-1.68 4.64-.747 1.253-1.734 2.213-2.96 2.88-1.2.667-2.654 1-4.36 1-2.134 0-3.907-.587-5.32-1.76-1.387-1.173-2.427-2.853-3.12-5.04-.667-2.213-1-4.853-1-7.92 0-3.093.306-5.733.92-7.92.64-2.187 1.653-3.853 3.04-5 1.386-1.173 3.213-1.76 5.48-1.76 2.133 0 3.906.587 5.32 1.76 1.413 1.147 2.466 2.813 3.16 5 .693 2.187 1.04 4.827 1.04 7.92Zm-15.44 0c0 2.613.186 4.787.56 6.52.4 1.733 1.026 3.04 1.88 3.92.88.853 2.04 1.28 3.48 1.28s2.586-.427 3.44-1.28c.88-.853 1.52-2.147 1.92-3.88.4-1.76.6-3.947.6-6.56 0-2.613-.2-4.773-.6-6.48-.4-1.733-1.04-3.027-1.92-3.88-.854-.88-2-1.32-3.44-1.32s-2.6.44-3.48 1.32c-.854.853-1.48 2.147-1.88 3.88-.374 1.707-.56 3.867-.56 6.48Zm38.21 14.32h-18.88v-2.92l7.48-7.56c1.44-1.44 2.654-2.72 3.64-3.84.987-1.12 1.734-2.213 2.24-3.28.507-1.093.76-2.28.76-3.56 0-1.573-.466-2.76-1.4-3.56-.933-.827-2.146-1.24-3.64-1.24-1.386 0-2.613.24-3.68.72-1.04.48-2.106 1.147-3.2 2l-1.88-2.36c.747-.64 1.56-1.213 2.44-1.72.907-.507 1.88-.907 2.92-1.2 1.067-.293 2.2-.44 3.4-.44 1.787 0 3.32.307 4.6.92 1.28.613 2.267 1.493 2.96 2.64.72 1.12 1.08 2.467 1.08 4.04 0 1.12-.173 2.187-.52 3.2a13.06 13.06 0 0 1-1.48 2.92c-.64.96-1.413 1.933-2.32 2.92a78.076 78.076 0 0 1-3 3.08l-5.96 5.88v.16h14.44v3.2ZM911 935.48c1.947 0 3.64.333 5.08 1s2.547 1.627 3.32 2.88c.8 1.227 1.2 2.733 1.2 4.52 0 1.973-.427 3.68-1.28 5.12-.853 1.413-2.08 2.507-3.68 3.28-1.573.747-3.48 1.12-5.72 1.12-1.467 0-2.853-.133-4.16-.4-1.28-.267-2.36-.653-3.24-1.16v-3.32c.96.587 2.12 1.053 3.48 1.4 1.387.32 2.707.48 3.96.48 1.413 0 2.64-.213 3.68-.64 1.067-.453 1.893-1.133 2.48-2.04.587-.933.88-2.093.88-3.48 0-1.867-.573-3.293-1.72-4.28-1.147-1.013-2.96-1.52-5.44-1.52-.747 0-1.6.067-2.56.2s-1.733.267-2.32.4l-1.76-1.12 1.08-13.48h14.32v3.2h-11.32l-.68 8.28a52.94 52.94 0 0 1 1.84-.28c.773-.107 1.627-.16 2.56-.16Zm22.971-16.24 3.04.8a48.15 48.15 0 0 1-2.64 5.72 43.443 43.443 0 0 1-3.24 5.16c-1.174 1.573-2.387 2.96-3.64 4.16-.187-.16-.44-.36-.76-.6a9.358 9.358 0 0 0-.96-.76 5.897 5.897 0 0 0-.88-.56c1.28-1.12 2.48-2.4 3.6-3.84a35.01 35.01 0 0 0 3.12-4.76 37.657 37.657 0 0 0 2.36-5.32Zm-.6 5h25.8v2.88h-27.28l1.48-2.88Zm-1.96 9.04h26.84v2.84h-23.84v9.44h-3v-12.28Zm-6.6 10.8h36.24v2.88h-36.24v-2.88Zm18.56-18.32h3.08v30.44h-3.08v-30.44Zm21.72 15.04c0-1.653.106-3.28.32-4.88.24-1.6.64-3.107 1.2-4.52a12.218 12.218 0 0 1 2.32-3.8c.986-1.12 2.226-1.987 3.72-2.6 1.52-.64 3.36-.96 5.52-.96.56 0 1.173.027 1.84.08.693.053 1.253.147 1.68.28v3a8.809 8.809 0 0 0-1.64-.36c-.587-.08-1.187-.12-1.8-.12-1.84 0-3.374.307-4.6.92-1.227.613-2.2 1.453-2.92 2.52-.694 1.067-1.2 2.293-1.52 3.68a25.5 25.5 0 0 0-.6 4.44h.24c.4-.64.906-1.213 1.52-1.72.613-.507 1.346-.907 2.2-1.2.88-.293 1.893-.44 3.04-.44 1.653 0 3.093.347 4.32 1.04 1.253.667 2.226 1.653 2.92 2.96.693 1.28 1.04 2.84 1.04 4.68 0 1.973-.374 3.68-1.12 5.12-.747 1.44-1.8 2.547-3.16 3.32-1.334.773-2.934 1.16-4.8 1.16-1.36 0-2.627-.253-3.8-.76-1.174-.507-2.214-1.28-3.12-2.32-.88-1.04-1.574-2.347-2.08-3.92-.48-1.6-.72-3.467-.72-5.6Zm9.68 9.64c1.68 0 3.04-.533 4.08-1.6 1.04-1.093 1.56-2.773 1.56-5.04 0-1.813-.467-3.253-1.4-4.32-.907-1.067-2.28-1.6-4.12-1.6-1.254 0-2.347.267-3.28.8-.934.507-1.667 1.16-2.2 1.96-.507.8-.76 1.627-.76 2.48 0 .88.12 1.747.36 2.6.266.853.653 1.64 1.16 2.36a6.202 6.202 0 0 0 1.92 1.72c.773.427 1.666.64 2.68.64Zm21.17-28.92h20.839v2.92h-20.839v-2.92Zm0 9.64h21.039V934h-21.039v-2.84Zm-.32 9.64h21.159v2.92h-21.159v-2.92Zm-1.56-19.28h3.04v12.32c0 1.733-.093 3.587-.28 5.56a34.464 34.464 0 0 1-1.04 6 24.23 24.23 0 0 1-2.4 5.8c-1.04 1.867-2.426 3.547-4.16 5.04-.133-.213-.346-.467-.64-.76a12.327 12.327 0 0 0-.84-.84 5.526 5.526 0 0 0-.8-.56c1.627-1.44 2.907-2.987 3.84-4.64a20.708 20.708 0 0 0 2.12-5.2c.48-1.787.787-3.56.92-5.32.16-1.787.24-3.48.24-5.08v-12.32Zm21.399 0h3.16v30.24c0 1.067-.16 1.88-.48 2.44-.32.56-.85.973-1.6 1.24-.77.267-1.85.427-3.24.48-1.39.08-3.15.12-5.28.12a4.41 4.41 0 0 0-.32-1.04c-.13-.373-.29-.76-.48-1.16a8.074 8.074 0 0 0-.48-.96c1.12.027 2.19.053 3.2.08h2.68c.77-.027 1.31-.04 1.6-.04.48-.027.8-.12.96-.28.19-.187.28-.493.28-.92v-30.2Zm30.04 9.6c0 1.28-.24 2.387-.72 3.32a5.866 5.866 0 0 1-2.08 2.28c-.88.587-1.92 1-3.12 1.24v.16c2.29.267 4 .987 5.12 2.16s1.68 2.707 1.68 4.6c0 1.653-.39 3.133-1.16 4.44-.77 1.28-1.97 2.28-3.6 3-1.6.72-3.67 1.08-6.2 1.08-1.49 0-2.88-.12-4.16-.36a12.89 12.89 0 0 1-3.68-1.2v-3.28c1.2.587 2.49 1.053 3.88 1.4 1.39.32 2.72.48 4 .48 2.56 0 4.4-.493 5.52-1.48 1.15-1.013 1.72-2.4 1.72-4.16 0-1.2-.32-2.16-.96-2.88-.61-.747-1.52-1.293-2.72-1.64-1.2-.347-2.64-.52-4.32-.52h-2.76v-3h2.8c1.57 0 2.88-.227 3.92-.68 1.07-.453 1.87-1.08 2.4-1.88.56-.827.84-1.773.84-2.84 0-1.387-.47-2.453-1.4-3.2-.93-.773-2.2-1.16-3.8-1.16-1.01 0-1.93.107-2.76.32-.83.187-1.6.467-2.32.84-.69.347-1.4.76-2.12 1.24l-1.76-2.4c.69-.533 1.48-1.027 2.36-1.48.91-.453 1.91-.813 3-1.08 1.09-.267 2.28-.4 3.56-.4 2.99 0 5.2.667 6.64 2 1.47 1.333 2.2 3.027 2.2 5.08Zm10.21-9h26.24v33.44h-3.2v-30.44h-19.96v30.64h-3.08v-33.64Zm2.08 13.84h22.32v2.96h-22.32v-2.96Zm-.08 14.2h22.44v3h-22.44v-3Z"/>
  </g>
  <defs>
    <clipPath id="a">
      <path fill="#fff" d="M0 0h1920v1080H0z"/>
    </clipPath>
  </defs>
</svg>
