<svg xmlns="http://www.w3.org/2000/svg" width="1920" height="1080" fill="none" viewBox="0 0 1920 1080">
  <g clip-path="url(#a)">
    <path fill="#fff" d="M1920 0H0v1080h1920V0Z"/>
    <path fill="#000" d="M731.4 136.45c5.5.7 11.7 1.2 18.6 1.5 6.9.3 14.3.45 22.2.45 5 0 10.1-.1 15.3-.3 5.2-.2 10.25-.45 15.15-.75 4.9-.4 9.25-.75 13.05-1.05v19.95c-3.5.2-7.75.45-12.75.75-4.9.3-10.05.55-15.45.75-5.3.2-10.35.3-15.15.3-7.8 0-15.05-.15-21.75-.45-6.7-.4-13.1-.8-19.2-1.2v-19.95Zm12.6 63.6c-.7 2.6-1.3 5.15-1.8 7.65s-.75 5-.75 7.5c0 4.9 2.4 8.9 7.2 12 4.9 3 12.75 4.5 23.55 4.5 6.8 0 13.35-.25 19.65-.75 6.4-.5 12.4-1.15 18-1.95 5.6-.9 10.6-1.95 15-3.15l.15 21c-4.3 1-9.2 1.9-14.7 2.7-5.4.8-11.25 1.4-17.55 1.8-6.2.5-12.8.75-19.8.75-11.5 0-21.05-1.3-28.65-3.9-7.6-2.5-13.35-6.1-17.25-10.8-3.8-4.8-5.7-10.65-5.7-17.55 0-4.3.35-8.25 1.05-11.85.7-3.7 1.3-6.95 1.8-9.75l19.8 1.8ZM819.6 121c1.3 1.8 2.65 3.95 4.05 6.45 1.5 2.5 2.95 5 4.35 7.5 1.4 2.5 2.6 4.7 3.6 6.6l-12.15 5.25c-1.5-3.1-3.35-6.65-5.55-10.65-2.1-4-4.15-7.45-6.15-10.35l11.85-4.8Zm17.85-6.75c1.3 1.9 2.7 4.1 4.2 6.6s2.95 5 4.35 7.5c1.5 2.4 2.7 4.5 3.6 6.3l-12 5.1c-1.6-3.1-3.5-6.6-5.7-10.5-2.2-4-4.35-7.4-6.45-10.2l12-4.8Zm85.95 85.2h51.15v11.4H923.4v-11.4Zm-19.8-75h89.25v12.75H903.6v-12.75Zm4.2 18.45h80.85v12.15H907.8V142.9Zm-9 18.15h98.85v13.05H898.8v-13.05Zm24.6 57h51.3v11.85h-51.3v-11.85Zm-11.55-38.4h64.05v13.05h-47.4v64.5h-16.65v-77.55Zm57.6 0h17.1v59.85c0 4-.5 7.15-1.5 9.45-.9 2.3-2.7 4.05-5.4 5.25-2.7 1.3-6 2.05-9.9 2.25-3.8.3-8.3.45-13.5.45-.3-2.3-.95-4.95-1.95-7.95-.9-2.9-1.85-5.35-2.85-7.35 3 .1 6 .15 9 .15 3.1 0 5.15-.05 6.15-.15 1.1 0 1.85-.15 2.25-.45.4-.3.6-.9.6-1.8v-59.7Zm-31.2-63.15h17.85v51.9h-17.85v-51.9ZM864 130.45l9.6-13.2c3.2 1.2 6.5 2.65 9.9 4.35 3.5 1.7 6.8 3.45 9.9 5.25 3.2 1.8 5.75 3.6 7.65 5.4l-10.35 14.7c-1.8-1.8-4.2-3.7-7.2-5.7s-6.25-3.95-9.75-5.85c-3.4-1.9-6.65-3.55-9.75-4.95Zm-7.8 40.95 9.6-13.65c3.2 1.1 6.55 2.45 10.05 4.05 3.5 1.6 6.85 3.3 10.05 5.1 3.2 1.8 5.8 3.55 7.8 5.25l-10.35 15c-1.8-1.7-4.25-3.5-7.35-5.4-3.1-2-6.4-3.9-9.9-5.7-3.4-1.8-6.7-3.35-9.9-4.65Zm4.35 72.75c2.5-3.9 5.3-8.45 8.4-13.65 3.1-5.3 6.25-10.9 9.45-16.8 3.2-5.9 6.2-11.8 9-17.7l13.65 11.25c-2.5 5.3-5.15 10.75-7.95 16.35-2.7 5.6-5.5 11.1-8.4 16.5-2.8 5.3-5.6 10.4-8.4 15.3l-15.75-11.25Zm147.9-120.3h56.7v16.05h-56.7v-16.05Zm15.75 31.95h27.3v14.7h-27.3v-14.7Zm41.55-25.05h79.5v15.15h-79.5v-15.15Zm-41.55 55.65h27.3v14.7h-27.3v-14.7Zm-9.3-54h15.45v94.2h-15.45v-94.2Zm81.75-14.25h17.1v45.6h-17.1v-45.6Zm-53.7 14.1h15.75V257.5h-15.75V132.25Zm-37.8 89.55c6.2-.4 13.45-1 21.75-1.8 8.4-.8 16.9-1.6 25.5-2.4l.45 15.75c-7.9 1-15.85 1.95-23.85 2.85-7.9.9-15.2 1.7-21.9 2.4l-1.95-16.8Zm115.5-52.05v16.65h8.7v-16.65h-8.7Zm-19.95 0v16.65h8.55v-16.65h-8.55Zm-19.65 0v16.65h8.1v-16.65h-8.1Zm-14.4-13.5h77.7v43.8h-77.7v-43.8Zm18.15 57.3h15.75v24.15c0 1.8.2 2.95.6 3.45.4.5 1.35.75 2.85.75h8.25c1 0 1.7-.25 2.1-.75.5-.6.9-1.8 1.2-3.6.3-1.9.5-4.75.6-8.55 1 .8 2.3 1.65 3.9 2.55 1.6.8 3.3 1.5 5.1 2.1 1.9.6 3.55 1.1 4.95 1.5-.5 5.6-1.35 9.95-2.55 13.05-1.2 3.2-2.9 5.4-5.1 6.6-2.1 1.2-4.9 1.8-8.4 1.8h-12.6c-4.5 0-8-.6-10.5-1.8-2.4-1.1-4.05-3.05-4.95-5.85-.8-2.7-1.2-6.4-1.2-11.1v-24.3Zm-16.2.6 14.25 4.35c-.6 3.9-1.4 7.9-2.4 12s-2.2 8-3.6 11.7c-1.4 3.6-3.15 6.8-5.25 9.6l-13.8-7.8c2-2.5 3.7-5.35 5.1-8.55 1.4-3.2 2.55-6.65 3.45-10.35 1-3.7 1.75-7.35 2.25-10.95Zm51.45 4.8 13.95-6.3c3.7 4.9 7 10.35 9.9 16.35 2.9 5.9 4.95 11.15 6.15 15.75l-15 7.05c-.6-3.1-1.65-6.55-3.15-10.35-1.5-3.9-3.25-7.8-5.25-11.7-2-3.9-4.2-7.5-6.6-10.8Zm-30.9-12.3 10.95-9.3c2.8 1.5 5.6 3.25 8.4 5.25 2.8 1.9 5.4 3.9 7.8 6 2.5 2 4.5 3.9 6 5.7l-11.4 10.5c-2.3-2.9-5.55-6.05-9.75-9.45-4.1-3.5-8.1-6.4-12-8.7Zm-912.75 66.6-1.2 4.2c-.3 1.3-.6 2.55-.9 3.75-.9 4.7-1.75 10.1-2.55 16.2-.8 6-1.45 12.3-1.95 18.9-.5 6.5-.75 12.9-.75 19.2 0 7.8.4 15 1.2 21.6.8 6.5 1.9 12.55 3.3 18.15 1.5 5.5 3.1 10.75 4.8 15.75l-17.25 5.25c-1.5-4.5-2.95-9.85-4.35-16.05-1.3-6.2-2.4-12.85-3.3-19.95-.9-7.2-1.35-14.45-1.35-21.75 0-5 .15-10 .45-15 .4-5.1.8-10.1 1.2-15 .4-5 .85-9.75 1.35-14.25.6-4.6 1.1-8.75 1.5-12.45.1-1.4.2-2.9.3-4.5.1-1.7.1-3.2 0-4.5l19.5.45Zm-26.7 16.65c9.5 0 18.4-.2 26.7-.6 8.4-.4 16.45-1.1 24.15-2.1 7.8-1 15.55-2.45 23.25-4.35l.15 17.4c-5.2.9-10.95 1.75-17.25 2.55-6.2.7-12.7 1.3-19.5 1.8-6.7.5-13.3.9-19.8 1.2-6.5.2-12.6.3-18.3.3-2.6 0-5.55-.05-8.85-.15l-9.6-.3c-3.1-.2-5.8-.35-8.1-.45l-.45-17.4c1.7.2 4.15.5 7.35.9 3.2.3 6.6.6 10.2.9 3.7.2 7.05.3 10.05.3Zm64.65 21.9c-.3.9-.75 2.15-1.35 3.75-.6 1.6-1.2 3.25-1.8 4.95-.5 1.7-.9 3.05-1.2 4.05-2.9 9-6.45 17.25-10.65 24.75-4.1 7.4-8.55 13.9-13.35 19.5-4.8 5.5-9.55 10-14.25 13.5-4.9 3.7-10.5 6.95-16.8 9.75-6.3 2.7-12.65 4.05-19.05 4.05-3.6 0-6.95-.75-10.05-2.25-3.1-1.5-5.6-3.85-7.5-7.05-1.8-3.3-2.7-7.45-2.7-12.45 0-5.4 1.1-10.7 3.3-15.9 2.2-5.2 5.25-10.15 9.15-14.85 3.9-4.7 8.45-8.85 13.65-12.45 5.2-3.7 10.8-6.6 16.8-8.7 4.9-1.8 10.25-3.25 16.05-4.35 5.9-1.1 11.7-1.65 17.4-1.65 9.3 0 17.6 1.7 24.9 5.1 7.4 3.4 13.2 8.05 17.4 13.95 4.2 5.9 6.3 12.8 6.3 20.7 0 5.3-.85 10.5-2.55 15.6-1.7 5-4.5 9.65-8.4 13.95-3.8 4.3-8.85 8-15.15 11.1-6.3 3.1-14.05 5.35-23.25 6.75l-9.9-15.75c9.6-1.1 17.4-3.25 23.4-6.45 6-3.3 10.35-7.25 13.05-11.85 2.8-4.6 4.2-9.35 4.2-14.25 0-4.4-1.2-8.35-3.6-11.85-2.3-3.5-5.8-6.3-10.5-8.4-4.6-2.2-10.3-3.3-17.1-3.3-6.8 0-12.9.75-18.3 2.25-5.3 1.5-9.75 3.1-13.35 4.8-5 2.4-9.45 5.45-13.35 9.15-3.9 3.6-6.95 7.4-9.15 11.4s-3.3 7.7-3.3 11.1c0 2.4.55 4.25 1.65 5.55 1.1 1.2 2.85 1.8 5.25 1.8 3.6 0 7.75-1.15 12.45-3.45 4.7-2.4 9.35-5.75 13.95-10.05 5.4-5 10.5-11 15.3-18 4.8-7 8.75-15.7 11.85-26.1.3-1 .6-2.3.9-3.9.3-1.6.55-3.2.75-4.8.3-1.7.5-3.05.6-4.05l18.3 4.35Zm91.8-38.25c-.5 1.8-1.05 4.05-1.65 6.75-.6 2.7-1.2 5.55-1.8 8.55-.6 2.9-1.15 5.75-1.65 8.55-.4 2.8-.7 5.25-.9 7.35 1.8-3 3.95-5.9 6.45-8.7 2.5-2.9 5.3-5.5 8.4-7.8 3.2-2.4 6.65-4.3 10.35-5.7 3.8-1.4 7.8-2.1 12-2.1 7 0 13.3 2.15 18.9 6.45 5.6 4.3 10 10.45 13.2 18.45 3.3 8 4.95 17.5 4.95 28.5 0 10.6-1.55 19.9-4.65 27.9-3.1 7.9-7.55 14.65-13.35 20.25s-12.75 10.15-20.85 13.65c-8 3.6-16.95 6.3-26.85 8.1l-11.4-17.4c8.3-1.3 15.9-3.05 22.8-5.25 7-2.3 13-5.4 18-9.3 5.1-3.9 9-8.9 11.7-15 2.8-6.2 4.2-13.8 4.2-22.8 0-7.7-.8-14.2-2.4-19.5-1.6-5.4-3.95-9.5-7.05-12.3-3-2.8-6.6-4.2-10.8-4.2-4.4 0-8.6 1.45-12.6 4.35-4 2.9-7.6 6.7-10.8 11.4-3.1 4.6-5.6 9.6-7.5 15-1.8 5.4-2.8 10.6-3 15.6-.1 2.1-.15 4.4-.15 6.9.1 2.5.4 5.5.9 9l-18.45 1.2c-.4-2.9-.85-6.5-1.35-10.8-.4-4.4-.6-9.15-.6-14.25 0-3.5.1-7.25.3-11.25.3-4 .6-8.05.9-12.15.4-4.2.85-8.4 1.35-12.6.6-4.2 1.15-8.2 1.65-12 .4-2.9.7-5.75.9-8.55.2-2.8.3-5.2.3-7.2l20.55.9Zm164.1 3c-.4 1.9-.85 4-1.35 6.3-.5 2.2-.95 4.25-1.35 6.15-.4 2.2-.9 4.7-1.5 7.5-.6 2.7-1.2 5.45-1.8 8.25-.5 2.7-1.05 5.35-1.65 7.95-1 4.3-2.25 9.3-3.75 15-1.5 5.7-3.25 11.85-5.25 18.45-2 6.5-4.25 13.05-6.75 19.65-2.5 6.6-5.15 13.05-7.95 19.35-2.8 6.2-5.8 11.8-9 16.8l-19.5-7.8c3.5-4.7 6.75-9.95 9.75-15.75 3.1-5.9 5.9-11.9 8.4-18 2.5-6.2 4.7-12.3 6.6-18.3 2-6.1 3.7-11.75 5.1-16.95 1.5-5.2 2.65-9.65 3.45-13.35 1.4-6.8 2.5-13.35 3.3-19.65.8-6.3 1.1-12.25.9-17.85l22.35 2.25Zm51.6 15.15c2.4 3.3 4.85 7.35 7.35 12.15 2.6 4.7 5.15 9.7 7.65 15 2.5 5.3 4.75 10.4 6.75 15.3s3.55 9.15 4.65 12.75l-19.05 8.7c-.9-4.2-2.25-8.85-4.05-13.95-1.7-5.1-3.7-10.25-6-15.45-2.3-5.3-4.75-10.3-7.35-15-2.5-4.7-5.1-8.65-7.8-11.85l17.85-7.65Zm-112.5 15.6c2.7.2 5.35.3 7.95.3l8.1-.3c2.5-.1 5.5-.25 9-.45 3.5-.3 7.2-.6 11.1-.9l12-.9c4-.4 7.7-.7 11.1-.9 3.4-.2 6.2-.3 8.4-.3 5.4 0 10.1.9 14.1 2.7 4 1.7 7.15 4.65 9.45 8.85 2.4 4.2 3.6 9.9 3.6 17.1 0 5.9-.25 12.3-.75 19.2-.5 6.9-1.4 13.5-2.7 19.8-1.2 6.3-2.9 11.65-5.1 16.05-2.4 5.2-5.7 8.8-9.9 10.8-4.1 2-9 3-14.7 3-2.8 0-5.85-.25-9.15-.75-3.3-.4-6.25-.85-8.85-1.35l-3.15-19.8c1.9.5 4 1 6.3 1.5 2.4.5 4.65.9 6.75 1.2 2.2.3 3.95.45 5.25.45 2.5 0 4.7-.45 6.6-1.35 1.9-1 3.45-2.7 4.65-5.1 1.4-2.9 2.55-6.65 3.45-11.25.9-4.6 1.55-9.55 1.95-14.85.5-5.4.75-10.55.75-15.45 0-4-.6-6.95-1.8-8.85-1.1-1.9-2.75-3.15-4.95-3.75-2.1-.7-4.7-1.05-7.8-1.05-2.3 0-5.4.2-9.3.6-3.9.3-8.1.7-12.6 1.2-4.4.4-8.5.85-12.3 1.35-3.8.5-6.75.85-8.85 1.05-2.2.4-5 .85-8.4 1.35-3.3.4-6.1.8-8.4 1.2l-1.8-20.4Zm109.8-36.45c1.3 1.8 2.65 3.95 4.05 6.45 1.5 2.5 2.95 5 4.35 7.5 1.4 2.5 2.6 4.7 3.6 6.6L519 296.65c-1-2.1-2.15-4.4-3.45-6.9-1.3-2.5-2.65-5-4.05-7.5s-2.8-4.65-4.2-6.45l11.85-4.95ZM537 264.1c1.3 1.9 2.7 4.1 4.2 6.6s2.95 5 4.35 7.5c1.5 2.5 2.65 4.6 3.45 6.3l-11.85 5.1c-1.6-3.1-3.5-6.6-5.7-10.5-2.2-4-4.35-7.4-6.45-10.2l12-4.8Zm139.95 42.45a93.32 93.32 0 0 1-7.05 4.05c-2.4 1.3-5 2.65-7.8 4.05-2.3 1.2-5.15 2.6-8.55 4.2-3.3 1.6-6.9 3.4-10.8 5.4-3.8 1.9-7.65 3.95-11.55 6.15-3.9 2.1-7.55 4.25-10.95 6.45-6.2 4.1-11.25 8.35-15.15 12.75-3.8 4.4-5.7 9.25-5.7 14.55 0 5.3 2.6 9.4 7.8 12.3 5.2 2.8 13 4.2 23.4 4.2 5.2 0 10.7-.2 16.5-.6 5.9-.5 11.7-1.15 17.4-1.95 5.7-.9 10.75-1.9 15.15-3l-.3 21.6c-4.2.7-8.8 1.35-13.8 1.95-4.9.6-10.25 1.05-16.05 1.35-5.7.3-11.8.45-18.3.45-7.5 0-14.45-.6-20.85-1.8-6.3-1.1-11.85-2.95-16.65-5.55-4.7-2.6-8.4-6.1-11.1-10.5-2.6-4.4-3.9-9.8-3.9-16.2 0-6.4 1.4-12.2 4.2-17.4 2.8-5.2 6.6-10 11.4-14.4 4.9-4.4 10.25-8.55 16.05-12.45 3.6-2.4 7.4-4.7 11.4-6.9 4-2.3 7.9-4.5 11.7-6.6 3.9-2.1 7.5-4 10.8-5.7 3.4-1.8 6.2-3.35 8.4-4.65 2.9-1.7 5.45-3.25 7.65-4.65 2.2-1.4 4.3-2.9 6.3-4.5l10.35 17.4Zm-75.45-32.1c2.5 6.6 5.1 12.95 7.8 19.05 2.8 6.1 5.55 11.8 8.25 17.1 2.8 5.3 5.35 10.05 7.65 14.25l-16.95 10.05c-2.7-4.6-5.5-9.75-8.4-15.45-2.9-5.7-5.8-11.7-8.7-18-2.9-6.4-5.7-12.85-8.4-19.35l18.75-7.65Zm203.25 70.5c0-3.3-.85-6.3-2.55-9-1.6-2.7-4.05-4.85-7.35-6.45-3.2-1.7-7.2-2.55-12-2.55-5.4 0-10.65.45-15.75 1.35-5 .9-9.5 1.95-13.5 3.15-3.9 1.1-7.15 2.05-9.75 2.85-2.2.6-4.65 1.45-7.35 2.55-2.6 1-5 1.9-7.2 2.7l-5.7-21.45c2.6-.2 5.4-.55 8.4-1.05s5.7-1 8.1-1.5c3.7-.9 7.9-1.85 12.6-2.85 4.8-1.1 10-2.05 15.6-2.85 5.6-.8 11.3-1.2 17.1-1.2 8 0 15 1.5 21 4.5 6.1 2.9 10.85 7.1 14.25 12.6 3.4 5.5 5.1 12.15 5.1 19.95 0 8-1.75 15.25-5.25 21.75s-8.45 12.2-14.85 17.1c-6.4 4.8-13.95 8.8-22.65 12-8.7 3.2-18.25 5.5-28.65 6.9l-10.8-18.6c9.3-1.1 17.7-2.7 25.2-4.8 7.6-2.1 14.05-4.75 19.35-7.95 5.4-3.3 9.5-7.15 12.3-11.55 2.9-4.5 4.35-9.7 4.35-15.6Zm-58.95-72c4.3.9 9.45 1.75 15.45 2.55 6.1.8 12.35 1.5 18.75 2.1 6.5.6 12.65 1.1 18.45 1.5 5.9.3 10.8.5 14.7.6l-3 18.45c-4.4-.3-9.55-.7-15.45-1.2-5.9-.5-12-1.05-18.3-1.65-6.3-.7-12.4-1.4-18.3-2.1-5.8-.8-10.9-1.55-15.3-2.25l3-18Zm135.6 13.5c5.5.7 11.7 1.2 18.6 1.5 6.9.3 14.3.45 22.2.45 5 0 10.1-.1 15.3-.3 5.2-.2 10.25-.45 15.15-.75 4.9-.4 9.25-.75 13.05-1.05v19.95c-3.5.2-7.75.45-12.75.75-4.9.3-10.05.55-15.45.75-5.3.2-10.35.3-15.15.3-7.8 0-15.05-.15-21.75-.45-6.7-.4-13.1-.8-19.2-1.2v-19.95Zm12.6 63.6c-.7 2.6-1.3 5.15-1.8 7.65s-.75 5-.75 7.5c0 4.9 2.4 8.9 7.2 12 4.9 3 12.75 4.5 23.55 4.5 6.8 0 13.35-.25 19.65-.75 6.4-.5 12.4-1.15 18-1.95 5.6-.9 10.6-1.95 15-3.15l.15 21c-4.3 1-9.2 1.9-14.7 2.7-5.4.8-11.25 1.4-17.55 1.8-6.2.5-12.8.75-19.8.75-11.5 0-21.05-1.3-28.65-3.9-7.6-2.5-13.35-6.1-17.25-10.8-3.8-4.8-5.7-10.65-5.7-17.55 0-4.3.35-8.25 1.05-11.85.7-3.7 1.3-6.95 1.8-9.75l19.8 1.8ZM969.6 271c1.3 1.8 2.65 3.95 4.05 6.45 1.5 2.5 2.95 5 4.35 7.5 1.4 2.5 2.6 4.7 3.6 6.6l-12.15 5.25c-1.5-3.1-3.35-6.65-5.55-10.65-2.1-4-4.15-7.45-6.15-10.35l11.85-4.8Zm17.85-6.75c1.3 1.9 2.7 4.1 4.2 6.6s2.95 5 4.35 7.5c1.5 2.4 2.7 4.5 3.6 6.3l-12 5.1c-1.6-3.1-3.5-6.6-5.7-10.5-2.2-4-4.35-7.4-6.45-10.2l12-4.8Zm131.7 5.4c1.3 1.8 2.65 3.95 4.05 6.45 1.5 2.5 2.95 5 4.35 7.5 1.4 2.5 2.55 4.7 3.45 6.6l-12 5.1c-1-2-2.15-4.25-3.45-6.75-1.3-2.5-2.65-5-4.05-7.5s-2.8-4.7-4.2-6.6l11.85-4.8Zm17.85-6.45c1.4 1.9 2.85 4.1 4.35 6.6 1.5 2.5 2.95 5 4.35 7.5 1.5 2.5 2.65 4.6 3.45 6.3l-11.85 5.25c-1.6-3.2-3.5-6.75-5.7-10.65-2.2-4-4.35-7.4-6.45-10.2l11.85-4.8Zm-61.8 25.2c-.6-1.7-1.3-3.8-2.1-6.3s-1.7-5-2.7-7.5l20.25-2.4c.8 3.9 1.7 7.75 2.7 11.55 1 3.8 2.1 7.55 3.3 11.25l3.45 10.35c2.3 6.2 5.05 12.3 8.25 18.3 3.2 5.9 6 10.55 8.4 13.95 1.3 1.9 2.6 3.7 3.9 5.4 1.4 1.6 2.8 3.15 4.2 4.65l-9.3 13.5c-2.1-.5-4.75-.95-7.95-1.35-3.2-.4-6.7-.8-10.5-1.2-3.7-.4-7.45-.8-11.25-1.2-3.7-.4-7.1-.7-10.2-.9l1.35-15.9c2.5.2 5.15.4 7.95.6 2.8.2 5.45.45 7.95.75 2.5.2 4.55.35 6.15.45-1.8-2.9-3.75-6.2-5.85-9.9-2-3.7-3.95-7.55-5.85-11.55-1.8-4.1-3.5-8.2-5.1-12.3-1.6-4.2-3-8-4.2-11.4-1.1-3.4-2.05-6.35-2.85-8.85Zm-54.75 7.05c9.4 1.1 18.15 1.85 26.25 2.25 8.2.4 15.85.5 22.95.3 7.2-.3 13.75-.75 19.65-1.35 4.5-.6 8.95-1.25 13.35-1.95s8.7-1.55 12.9-2.55c4.2-1 8.25-2.1 12.15-3.3l2.4 18.9c-3.3.9-6.9 1.75-10.8 2.55-3.8.8-7.75 1.55-11.85 2.25-4.1.6-8.15 1.15-12.15 1.65-10.1 1.1-21.2 1.75-33.3 1.95-12.1.2-25.85-.3-41.25-1.5l-.3-19.2Zm30.15 51.15c-2.4 3.5-4.25 6.95-5.55 10.35-1.2 3.3-1.8 6.6-1.8 9.9 0 6.2 2.7 10.75 8.1 13.65 5.5 2.8 13.4 4.25 23.7 4.35 8.2 0 15.6-.35 22.2-1.05 6.7-.7 12.7-1.55 18-2.55l-1.05 18.9c-4.3.8-9.85 1.6-16.65 2.4-6.7.8-14.6 1.15-23.7 1.05-10.2 0-19.05-1.3-26.55-3.9-7.5-2.5-13.3-6.25-17.4-11.25-4-5.1-6-11.2-6-18.3 0-4.6.65-9.1 1.95-13.5 1.4-4.5 3.4-9.3 6-14.4l18.75 4.35Zm140.4-59.85c-.4 1.8-.75 3.85-1.05 6.15-.2 2.3-.4 4.55-.6 6.75-.1 2.2-.15 4-.15 5.4-.1 3.3-.15 6.7-.15 10.2.1 3.5.2 7.1.3 10.8.2 3.6.45 7.2.75 10.8.7 7.2 1.7 13.55 3 19.05s3 9.8 5.1 12.9c2.1 3 4.75 4.5 7.95 4.5 1.7 0 3.35-.95 4.95-2.85 1.7-1.9 3.2-4.35 4.5-7.35 1.4-3.1 2.6-6.35 3.6-9.75 1.1-3.4 2.05-6.6 2.85-9.6l15 18.3c-3.3 8.7-6.6 15.65-9.9 20.85-3.2 5.1-6.55 8.8-10.05 11.1-3.5 2.2-7.3 3.3-11.4 3.3-5.4 0-10.55-1.8-15.45-5.4-4.8-3.6-8.9-9.4-12.3-17.4-3.4-8.1-5.8-18.85-7.2-32.25-.5-4.6-.9-9.45-1.2-14.55-.2-5.1-.35-9.95-.45-14.55v-11.4c0-2.1-.1-4.6-.3-7.5-.2-2.9-.5-5.5-.9-7.8l23.1.3Zm75 3.45c2.8 3.4 5.5 7.55 8.1 12.45 2.6 4.9 5 10.15 7.2 15.75s4.15 11.35 5.85 17.25c1.7 5.8 3.05 11.5 4.05 17.1 1.1 5.5 1.8 10.55 2.1 15.15l-19.8 7.65c-.5-6.1-1.4-12.75-2.7-19.95-1.3-7.2-3.05-14.45-5.25-21.75-2.2-7.3-4.85-14.2-7.95-20.7-3-6.5-6.55-12.1-10.65-16.8l19.05-6.15Zm125.55-17.55c-.2 1.5-.4 3.2-.6 5.1-.1 1.8-.2 3.65-.3 5.55-.1 2-.2 4.7-.3 8.1-.1 3.3-.15 6.95-.15 10.95v22.5c0 4.2.1 8.9.3 14.1.2 5.1.45 10.3.75 15.6.4 5.2.7 10.1.9 14.7.3 4.5.45 8.25.45 11.25 0 4.2-1.1 8.05-3.3 11.55-2.2 3.4-5.5 6.1-9.9 8.1-4.3 2-9.75 3-16.35 3-12 0-21.1-2.2-27.3-6.6-6.2-4.4-9.3-10.55-9.3-18.45 0-5.1 1.45-9.55 4.35-13.35 3-3.9 7.25-6.95 12.75-9.15 5.6-2.2 12.25-3.3 19.95-3.3 8.2 0 15.85.9 22.95 2.7 7.2 1.7 13.75 3.95 19.65 6.75 5.9 2.8 11.15 5.75 15.75 8.85 4.6 3.1 8.5 5.9 11.7 8.4l-10.8 16.8c-3.6-3.4-7.65-6.75-12.15-10.05-4.4-3.3-9.25-6.3-14.55-9-5.2-2.7-10.75-4.85-16.65-6.45-5.8-1.7-11.95-2.55-18.45-2.55-5.2 0-9.25.9-12.15 2.7-2.8 1.8-4.2 4-4.2 6.6 0 1.9.6 3.55 1.8 4.95 1.2 1.4 2.95 2.45 5.25 3.15 2.3.7 5.2 1.05 8.7 1.05 2.7 0 5-.3 6.9-.9 2-.6 3.55-1.7 4.65-3.3 1.1-1.6 1.65-3.85 1.65-6.75 0-2.2-.1-5.35-.3-9.45-.1-4.1-.25-8.6-.45-13.5-.2-5-.4-9.9-.6-14.7-.2-4.8-.3-9.05-.3-12.75V313.6c.1-4 .15-7.95.15-11.85V291.1c.1-3.3.15-6 .15-8.1 0-1.4-.1-3.1-.3-5.1-.1-2.1-.3-3.85-.6-5.25h20.25Zm-62.25 14.1c2.7.4 5.7.8 9 1.2 3.3.4 6.65.8 10.05 1.2 3.5.3 6.8.55 9.9.75 3.1.1 5.8.15 8.1.15 10.2 0 20.35-.3 30.45-.9 10.2-.7 20.75-1.95 31.65-3.75l-.15 17.25c-5.1.7-11 1.35-17.7 1.95-6.7.6-13.85 1.1-21.45 1.5-7.5.3-15.05.45-22.65.45-3.1 0-6.95-.1-11.55-.3-4.5-.3-9-.65-13.5-1.05-4.5-.5-8.4-.95-11.7-1.35l-.45-17.1Zm-.75 32.4c2.4.4 5.25.8 8.55 1.2 3.3.4 6.65.7 10.05.9 3.5.2 6.8.4 9.9.6 3.1.1 5.65.15 7.65.15 9.3 0 17.7-.2 25.2-.6 7.6-.4 14.7-.9 21.3-1.5 6.6-.6 12.95-1.3 19.05-2.1l-.15 17.7c-5.2.6-10.25 1.1-15.15 1.5-4.8.4-9.75.75-14.85 1.05-5 .3-10.4.5-16.2.6-5.8.1-12.3.15-19.5.15-2.9 0-6.5-.05-10.8-.15-4.3-.2-8.7-.45-13.2-.75-4.4-.3-8.3-.65-11.7-1.05l-.15-17.7Zm179.1-44.1c-.4 3.1-.8 6.45-1.2 10.05-.3 3.6-.55 6.9-.75 9.9-.1 4.1-.3 9.1-.6 15-.2 5.8-.4 11.9-.6 18.3-.1 6.4-.25 12.7-.45 18.9-.1 6.2-.15 11.6-.15 16.2 0 5 .9 9 2.7 12 1.9 2.9 4.4 5 7.5 6.3 3.1 1.2 6.6 1.8 10.5 1.8 6.2 0 11.85-.8 16.95-2.4 5.1-1.7 9.75-3.95 13.95-6.75 4.2-2.8 7.95-6.05 11.25-9.75 3.4-3.7 6.45-7.6 9.15-11.7l13.65 16.5c-2.4 3.6-5.55 7.4-9.45 11.4-3.9 4-8.55 7.75-13.95 11.25-5.3 3.5-11.45 6.35-18.45 8.55-7 2.2-14.75 3.3-23.25 3.3-8.2 0-15.35-1.3-21.45-3.9-6-2.5-10.7-6.4-14.1-11.7-3.3-5.4-4.95-12.35-4.95-20.85 0-4.1.05-8.75.15-13.95.1-5.3.25-10.8.45-16.5.2-5.7.35-11.25.45-16.65.1-5.5.2-10.45.3-14.85.1-4.4.15-7.9.15-10.5 0-3.6-.15-7.1-.45-10.5-.3-3.5-.8-6.75-1.5-9.75l24.15.3Zm165.45-.75c-.6 2-1.2 4.45-1.8 7.35-.6 2.9-1.05 5.15-1.35 6.75-.7 3.4-1.6 7.55-2.7 12.45-1 4.9-2.15 10.1-3.45 15.6-1.2 5.5-2.45 10.75-3.75 15.75-1.3 5.3-2.9 11.05-4.8 17.25-1.9 6.1-3.95 12.35-6.15 18.75-2.1 6.3-4.25 12.35-6.45 18.15-2.2 5.7-4.35 10.8-6.45 15.3l-20.85-7.05c2.2-3.8 4.55-8.4 7.05-13.8 2.5-5.5 4.9-11.4 7.2-17.7 2.4-6.3 4.6-12.55 6.6-18.75 2-6.2 3.7-11.95 5.1-17.25 1-3.5 1.95-7.1 2.85-10.8.9-3.7 1.7-7.3 2.4-10.8.7-3.5 1.3-6.75 1.8-9.75.6-3.1 1.05-5.8 1.35-8.1.3-2.8.5-5.6.6-8.4.1-2.8.05-5.05-.15-6.75l22.95 1.8Zm-38.25 22.35c6.1 0 12.45-.3 19.05-.9 6.6-.6 13.25-1.45 19.95-2.55 6.7-1.1 13.35-2.4 19.95-3.9v18.75c-6.2 1.4-12.8 2.6-19.8 3.6s-13.9 1.8-20.7 2.4c-6.8.5-13.05.75-18.75.75-3.6 0-6.85-.05-9.75-.15-2.9-.2-5.7-.35-8.4-.45l-.45-18.75c3.9.4 7.25.7 10.05.9 2.8.2 5.75.3 8.85.3Zm47.1 22.95c4.2-.4 8.85-.75 13.95-1.05 5.1-.3 10.05-.45 14.85-.45 4.3 0 8.65.1 13.05.3 4.5.2 8.95.55 13.35 1.05l-.45 18c-3.7-.5-7.8-.9-12.3-1.2-4.4-.4-8.9-.6-13.5-.6-5.1 0-10.05.15-14.85.45-4.7.2-9.4.6-14.1 1.2v-17.7Zm8.1 37.8c-.6 2.1-1.1 4.3-1.5 6.6-.4 2.2-.6 4.15-.6 5.85 0 1.6.35 3.1 1.05 4.5.7 1.4 1.8 2.65 3.3 3.75 1.5 1 3.55 1.8 6.15 2.4 2.7.6 6.05.9 10.05.9 5.1 0 10.2-.25 15.3-.75 5.2-.6 10.5-1.4 15.9-2.4l-.75 19.2c-4.2.5-8.85.95-13.95 1.35-5.1.5-10.65.75-16.65.75-12.6 0-22.25-2.05-28.95-6.15-6.6-4.2-9.9-10.1-9.9-17.7 0-3.4.3-6.85.9-10.35.6-3.5 1.2-6.75 1.8-9.75l17.85 1.8Z"/>
    <path fill="#005BAC" d="m613.568 831-4.3-11.05h-14.15l-4.25 11.05h-4.55l13.95-35.85h4.05l13.9 35.85h-4.65Zm-9.65-25.85c-.1-.267-.266-.75-.5-1.45-.233-.7-.466-1.417-.7-2.15a28.87 28.87 0 0 0-.5-1.75 61.82 61.82 0 0 1-.55 2.05c-.166.667-.35 1.283-.55 1.85-.166.567-.316 1.05-.45 1.45l-4.05 10.8h11.3l-4-10.8ZM633.152 831h-12.9v-2.6l4.2-.95V798.9l-4.2-1v-2.6h12.9v2.6l-4.2 1v28.55l4.2.95v2.6Zm5.993-32.9c.934-.033 1.784-.067 2.55-.1.8-.067 1.434-.117 1.9-.15.8-.1 1.95-.217 3.45-.35 1.534-.167 3.284-.333 5.25-.5 1.967-.2 4.084-.4 6.35-.6 2.267-.2 4.55-.4 6.85-.6 1.834-.167 3.567-.3 5.2-.4 1.634-.133 3.15-.233 4.55-.3 1.4-.1 2.65-.167 3.75-.2v4c-.933 0-2 .017-3.2.05-1.2.033-2.383.1-3.55.2-1.166.1-2.183.283-3.05.55a14.615 14.615 0 0 0-4.8 2.6 17.64 17.64 0 0 0-3.6 3.95c-1 1.5-1.766 3.05-2.3 4.65-.5 1.6-.75 3.15-.75 4.65 0 1.933.334 3.633 1 5.1.667 1.433 1.567 2.65 2.7 3.65 1.167 1 2.484 1.817 3.95 2.45a23.61 23.61 0 0 0 4.65 1.45c1.667.3 3.317.467 4.95.5l-1.45 4.15a27.02 27.02 0 0 1-5.6-.8 24.923 24.923 0 0 1-5.35-1.9 18.548 18.548 0 0 1-4.55-3.25 14.474 14.474 0 0 1-3.15-4.55c-.766-1.733-1.15-3.717-1.15-5.95 0-2.6.45-5 1.35-7.2.934-2.233 2.117-4.183 3.55-5.85 1.434-1.667 2.917-2.95 4.45-3.85-1.066.133-2.4.283-4 .45-1.566.167-3.25.35-5.05.55-1.8.167-3.616.367-5.45.6-1.8.233-3.483.467-5.05.7-1.566.2-2.883.417-3.95.65l-.45-4.35Zm32.65 6.95c.367.533.8 1.217 1.3 2.05.534.8 1.05 1.633 1.55 2.5.5.833.917 1.633 1.25 2.4l-2.55 1.2a42.114 42.114 0 0 0-1.9-3.65 33.162 33.162 0 0 0-2.2-3.4l2.55-1.1Zm5.45-2.1c.4.533.867 1.2 1.4 2 .534.8 1.05 1.633 1.55 2.5.534.833 1 1.633 1.4 2.4l-2.6 1.25a43.317 43.317 0 0 0-2-3.65 36.27 36.27 0 0 0-2.2-3.35l2.45-1.15Zm11.05 6.6h44v3.7h-44v-3.7Zm3.55-12.35h37.05v3.7h-37.05v-3.7Zm16.3-8.15h3.95V835h-3.95v-45.95Zm-.95 22.4 3.2 1.35c-1.166 2-2.55 3.95-4.15 5.85-1.6 1.9-3.316 3.7-5.15 5.4a56.68 56.68 0 0 1-5.65 4.6 49.198 49.198 0 0 1-5.8 3.55c-.233-.3-.516-.65-.85-1.05-.3-.4-.616-.783-.95-1.15-.333-.4-.65-.717-.95-.95a43.32 43.32 0 0 0 5.75-3.2 52.822 52.822 0 0 0 5.65-4.2 49.63 49.63 0 0 0 4.95-4.95c1.534-1.733 2.85-3.483 3.95-5.25Zm5.85 0c1.1 1.767 2.417 3.517 3.95 5.25 1.567 1.7 3.25 3.35 5.05 4.95a49.135 49.135 0 0 0 5.65 4.25c1.967 1.233 3.9 2.267 5.8 3.1l-.95.95c-.333.367-.666.75-1 1.15-.3.4-.566.783-.8 1.15-1.9-1-3.833-2.2-5.8-3.6a57.153 57.153 0 0 1-5.7-4.65c-1.833-1.7-3.55-3.5-5.15-5.4a50.412 50.412 0 0 1-4.15-5.8l3.1-1.35Zm25-.25h44.4v3.6h-44.4v-3.6Zm2.35-16.15h39.95v3.55h-39.95v-3.55Zm17.8-6.05h3.95v45.95h-3.95V789Zm14.8 10.55 3.9 1.2a91.5 91.5 0 0 1-1.85 3.6c-.666 1.2-1.333 2.35-2 3.45-.666 1.1-1.3 2.067-1.9 2.9l-3.2-1.1c.6-.9 1.217-1.933 1.85-3.1.634-1.2 1.234-2.4 1.8-3.6a45.808 45.808 0 0 0 1.4-3.35Zm-28.55 1.45 3.35-1.2a39.34 39.34 0 0 1 1.95 3.15c.634 1.133 1.2 2.25 1.7 3.35.5 1.067.867 2.033 1.1 2.9l-3.55 1.4c-.233-.833-.583-1.8-1.05-2.9-.466-1.133-1-2.283-1.6-3.45a33.25 33.25 0 0 0-1.9-3.25Zm12.75 11.55 3.05 1.3a49.434 49.434 0 0 1-4.15 5.7 58.053 58.053 0 0 1-5.1 5.25 59.11 59.11 0 0 1-5.65 4.55c-1.933 1.367-3.85 2.517-5.75 3.45a6.746 6.746 0 0 0-.8-1.05c-.3-.367-.616-.733-.95-1.1-.333-.367-.65-.683-.95-.95 1.9-.8 3.817-1.817 5.75-3.05a60.706 60.706 0 0 0 5.6-4.15 53.187 53.187 0 0 0 5.05-4.8c1.534-1.7 2.834-3.417 3.9-5.15Zm6 .05c1.1 1.7 2.417 3.4 3.95 5.1a53.07 53.07 0 0 0 5 4.85 54.585 54.585 0 0 0 5.65 4.15 50.151 50.151 0 0 0 5.8 3.15c-.266.233-.583.533-.95.9l-1 1.1c-.3.4-.55.767-.75 1.1-1.9-.933-3.833-2.083-5.8-3.45a65.686 65.686 0 0 1-5.65-4.6 59.455 59.455 0 0 1-5.15-5.3 48.364 48.364 0 0 1-4.1-5.75l3-1.25Zm45-21.15c-.2 1-.466 2.183-.8 3.55-.3 1.333-.8 2.85-1.5 4.55-.6 1.5-1.35 3.05-2.25 4.65-.866 1.6-1.8 3.05-2.8 4.35a9.86 9.86 0 0 1 2.15-1c.8-.3 1.617-.517 2.45-.65.867-.133 1.65-.2 2.35-.2 1.934 0 3.567.55 4.9 1.65 1.334 1.067 2 2.633 2 4.7v5.55l.1 3.15a83.17 83.17 0 0 1 .05 2.7h-3.85c.034-.667.067-1.45.1-2.35.034-.9.05-1.85.05-2.85.034-1 .034-1.95 0-2.85v-2.3c0-1.467-.45-2.533-1.35-3.2-.866-.7-1.966-1.05-3.3-1.05-1.566 0-3.116.35-4.65 1.05a14.022 14.022 0 0 0-3.95 2.6c-.733.7-1.466 1.5-2.2 2.4-.7.867-1.483 1.8-2.35 2.8l-3.4-2.5c2.4-2.333 4.4-4.517 6-6.55 1.6-2.033 2.9-3.917 3.9-5.65 1-1.767 1.784-3.35 2.35-4.75.534-1.4.967-2.8 1.3-4.2.334-1.433.534-2.75.6-3.95l4.1.35Zm-17.1 5.4c1.334.167 2.784.3 4.35.4 1.567.1 2.934.15 4.1.15 2.234 0 4.634-.05 7.2-.15 2.567-.133 5.15-.317 7.75-.55a81.667 81.667 0 0 0 7.5-1l-.05 3.7c-1.733.3-3.583.55-5.55.75-1.966.167-3.966.317-6 .45-2.033.1-4 .183-5.9.25-1.866.033-3.6.05-5.2.05h-2.45c-.9-.033-1.85-.067-2.85-.1-1-.067-1.966-.133-2.9-.2v-3.75Zm38.2 12.1c-.433.1-.916.25-1.45.45-.5.167-1.016.35-1.55.55-.5.2-.983.4-1.45.6a216.52 216.52 0 0 0-6.05 2.45c-2.3.967-4.65 2.083-7.05 3.35-1.666.833-3.133 1.717-4.4 2.65-1.266.9-2.266 1.85-3 2.85-.733.967-1.1 2.033-1.1 3.2 0 .967.217 1.75.65 2.35.467.6 1.117 1.067 1.95 1.4.834.3 1.784.5 2.85.6 1.1.1 2.3.15 3.6.15 1.934 0 4.134-.1 6.6-.3 2.5-.233 4.85-.533 7.05-.9l-.1 4c-1.266.167-2.7.317-4.3.45-1.566.133-3.166.233-4.8.3-1.6.1-3.133.15-4.6.15-2.366 0-4.533-.217-6.5-.65-1.933-.433-3.483-1.2-4.65-2.3-1.166-1.1-1.75-2.667-1.75-4.7 0-1.5.35-2.867 1.05-4.1.7-1.267 1.634-2.417 2.8-3.45a29.232 29.232 0 0 1 3.95-2.85c1.434-.9 2.9-1.717 4.4-2.45 1.6-.867 3.1-1.617 4.5-2.25a257.616 257.616 0 0 1 4.05-1.75 73.604 73.604 0 0 0 3.55-1.6c.734-.333 1.434-.65 2.1-.95.667-.3 1.334-.633 2-1l1.65 3.75Zm17.25-10.35h12.2v2.75h-12.2v-2.75Zm-.5 31.35h15.6v2.9h-15.6v-2.9Zm-2.3-20.2h16.75v2.5h-16.75v-2.5Zm-1.55-5.65h3.25v8.2c0 1.567-.083 3.283-.25 5.15a38.49 38.49 0 0 1-.85 5.7c-.4 1.933-1 3.817-1.8 5.65a21.195 21.195 0 0 1-3.1 5.05c-.2-.233-.466-.5-.8-.8-.3-.3-.616-.6-.95-.9a3.984 3.984 0 0 0-.85-.6c1.567-1.9 2.717-3.983 3.45-6.25a31.09 31.09 0 0 0 1.5-6.8c.267-2.267.4-4.35.4-6.25v-8.15Zm1.8 0h18.05v13.95h-18.1v-2.85h14.7v-8.3h-14.65v-2.8Zm.65 17h18.15v13.45h-3.3V824h-11.55v10.9h-3.3v-13.8Zm21.55-26.1h3.55v27.75h-3.55V795Zm11.2-5.05h3.65v40.1c0 1.267-.166 2.217-.5 2.85-.333.633-.883 1.1-1.65 1.4-.8.3-1.9.5-3.3.6-1.4.1-3.216.133-5.45.1-.033-.333-.133-.733-.3-1.2-.133-.433-.3-.883-.5-1.35a6.688 6.688 0 0 0-.55-1.2c1.734.033 3.267.05 4.6.05 1.367.033 2.284.033 2.75 0 .434-.033.75-.133.95-.3.2-.167.3-.483.3-.95v-40.1Zm-27.3-.5h2.05v.85h1.15v1.05c-1.4 2.033-3.266 4.267-5.6 6.7-2.3 2.433-5.116 4.733-8.45 6.9-.133-.267-.35-.567-.65-.9a11.45 11.45 0 0 0-.85-.95c-.3-.3-.583-.55-.85-.75 2.067-1.233 3.934-2.583 5.6-4.05 1.7-1.467 3.184-2.967 4.45-4.5 1.3-1.533 2.35-2.983 3.15-4.35Zm.7 0h2.7a70.133 70.133 0 0 1 3.95 3.15c1.4 1.133 2.717 2.25 3.95 3.35 1.267 1.1 2.317 2.1 3.15 3l-2.45 2.8c-.8-.867-1.8-1.867-3-3a76.511 76.511 0 0 0-3.75-3.5 48.617 48.617 0 0 0-3.85-3.15h-.7v-2.65Zm46.3 4.7c.567.067 1.167.117 1.8.15.667.033 1.25.05 1.75.05s1.317-.017 2.45-.05c1.167-.033 2.467-.067 3.9-.1 1.467-.067 2.917-.117 4.35-.15 1.467-.067 2.767-.133 3.9-.2 1.167-.067 2.017-.117 2.55-.15.734-.067 1.3-.133 1.7-.2.4-.067.734-.133 1-.2l2.3 2.9c-.433.3-.9.617-1.4.95-.466.333-.933.7-1.4 1.1-.633.467-1.483 1.15-2.55 2.05a238.85 238.85 0 0 0-3.55 2.95 1571.905 1571.905 0 0 1-7.1 5.95c1.167-.4 2.334-.667 3.5-.8 1.2-.167 2.35-.25 3.45-.25 2.767 0 5.217.517 7.35 1.55 2.167 1 3.85 2.383 5.05 4.15 1.234 1.767 1.85 3.783 1.85 6.05 0 2.667-.7 5-2.1 7-1.4 2-3.383 3.533-5.95 4.6-2.566 1.1-5.616 1.65-9.15 1.65-2.266 0-4.216-.3-5.85-.9-1.633-.6-2.9-1.433-3.8-2.5-.866-1.067-1.3-2.3-1.3-3.7 0-1.133.317-2.2.95-3.2.634-1 1.534-1.8 2.7-2.4 1.167-.6 2.517-.9 4.05-.9 2.234 0 4.084.467 5.55 1.4 1.467.9 2.6 2.1 3.4 3.6.8 1.467 1.25 3.05 1.35 4.75l-3.6.6c-.133-2.133-.8-3.883-2-5.25-1.166-1.4-2.75-2.1-4.75-2.1-1.133 0-2.083.317-2.85.95-.766.633-1.15 1.383-1.15 2.25 0 1.2.617 2.15 1.85 2.85 1.234.7 2.834 1.05 4.8 1.05 2.834 0 5.284-.383 7.35-1.15 2.1-.767 3.7-1.883 4.8-3.35 1.134-1.467 1.7-3.233 1.7-5.3 0-1.633-.483-3.1-1.45-4.4-.966-1.3-2.3-2.317-4-3.05-1.666-.767-3.583-1.15-5.75-1.15-2.1 0-3.983.233-5.65.7a19.315 19.315 0 0 0-4.7 1.9c-1.433.833-2.866 1.883-4.3 3.15a98.42 98.42 0 0 0-4.5 4.25l-2.85-2.95a231.42 231.42 0 0 0 3.4-2.8 317.995 317.995 0 0 1 3.8-3.15c1.267-1.067 2.434-2.05 3.5-2.95 1.1-.933 2.017-1.7 2.75-2.3.7-.567 1.567-1.283 2.6-2.15a744.158 744.158 0 0 0 6.5-5.55c1.034-.867 1.867-1.567 2.5-2.1-.533 0-1.316.033-2.35.1a166.56 166.56 0 0 0-3.45.15 142.07 142.07 0 0 0-3.8.15c-1.233.067-2.366.133-3.4.2-1 .033-1.766.067-2.3.1-.533.033-1.083.067-1.65.1-.566.033-1.116.1-1.65.2l-.15-4.15Zm77.25 2c0 .9.317 1.683.95 2.35.634.633 1.417.95 2.35.95.9 0 1.667-.317 2.3-.95.667-.667 1-1.45 1-2.35 0-.933-.333-1.717-1-2.35-.633-.667-1.4-1-2.3-1-.933 0-1.716.333-2.35 1-.633.633-.95 1.417-.95 2.35Zm-2.3 0c0-1.033.25-1.967.75-2.8a5.62 5.62 0 0 1 2-2.05 5.339 5.339 0 0 1 2.85-.8c1 0 1.934.267 2.8.8.867.5 1.55 1.183 2.05 2.05.5.833.75 1.767.75 2.8s-.25 1.967-.75 2.8a6.028 6.028 0 0 1-2.05 2.05c-.866.5-1.8.75-2.8.75a5.604 5.604 0 0 1-2.85-.75 6.189 6.189 0 0 1-2-2.05c-.5-.833-.75-1.767-.75-2.8Zm-25.95 19.8a60.98 60.98 0 0 0 1.55-4.25 65.374 65.374 0 0 0 1.45-4.75 74.28 74.28 0 0 0 1.2-4.9c.334-1.633.567-3.183.7-4.65l4.45.95c-.066.367-.166.767-.3 1.2-.133.4-.25.817-.35 1.25-.1.433-.183.833-.25 1.2a152.947 152.947 0 0 1-1.75 7.05c-.4 1.467-.833 2.95-1.3 4.45a47.909 47.909 0 0 1-1.5 4.1c-.6 1.533-1.3 3.117-2.1 4.75-.766 1.6-1.6 3.167-2.5 4.7a63.662 63.662 0 0 1-2.75 4.3l-4.25-1.8a57.74 57.74 0 0 0 4.35-6.8c1.367-2.467 2.484-4.733 3.35-6.8Zm24.6-1.9c-.5-1.3-1.05-2.667-1.65-4.1-.6-1.433-1.233-2.867-1.9-4.3a120.42 120.42 0 0 0-1.95-4.1c-.6-1.3-1.183-2.4-1.75-3.3l4.05-1.35c.5.867 1.05 1.933 1.65 3.2a168.59 168.59 0 0 1 3.9 8.4 165.407 165.407 0 0 1 1.75 4.2c.5 1.233 1.034 2.617 1.6 4.15.567 1.5 1.117 3.033 1.65 4.6a102.03 102.03 0 0 1 1.55 4.5c.467 1.433.867 2.717 1.2 3.85l-4.45 1.45c-.4-1.7-.916-3.533-1.55-5.5-.6-2-1.25-4-1.95-6a98.364 98.364 0 0 0-2.15-5.7Zm19.6-4.7c.5.033 1.117.083 1.85.15.734.033 1.534.067 2.4.1h30.105c1.26 0 2.35-.033 3.25-.1.9-.067 1.61-.117 2.15-.15v4.9l-2.25-.15c-.97-.067-2-.1-3.1-.1h-27.455c-1.366 0-2.666.033-3.9.1-1.233.033-2.25.083-3.05.15v-4.9Zm61.755 17.25v-29.1c0-.7-.04-1.55-.1-2.55-.07-1-.17-1.883-.3-2.65h4.9c-.07.733-.15 1.6-.25 2.6-.07 1-.1 1.867-.1 2.6v16.6c.03 2 .05 3.883.05 5.65v8.7c.03.7.08 1.417.15 2.15.06.7.11 1.333.15 1.9h-4.85c.13-.8.21-1.75.25-2.85.06-1.1.1-2.117.1-3.05Zm3.3-21.2c1.63.5 3.43 1.1 5.4 1.8 2 .667 4.03 1.383 6.1 2.15 2.06.767 4.01 1.55 5.85 2.35 1.86.767 3.48 1.5 4.85 2.2l-1.7 4.25c-1.44-.8-3.05-1.583-4.85-2.35-1.8-.8-3.65-1.583-5.55-2.35a96.099 96.099 0 0 0-5.45-2.05 79.056 79.056 0 0 0-4.65-1.55v-4.45Zm54.1-8.15c0-.767-.05-1.65-.15-2.65-.07-1.033-.17-1.8-.3-2.3h4.95c-.07.5-.14 1.283-.2 2.35-.07 1.033-.1 1.917-.1 2.65v10.55c0 2.733-.25 5.3-.75 7.7-.5 2.4-1.3 4.65-2.4 6.75-1.07 2.067-2.49 3.983-4.25 5.75-1.77 1.733-3.92 3.35-6.45 4.85l-3.9-2.9c2.36-1.133 4.4-2.433 6.1-3.9 1.7-1.467 3.1-3.117 4.2-4.95 1.13-1.867 1.95-3.9 2.45-6.1.53-2.233.8-4.633.8-7.2v-10.6Zm-19.4 6.5c.53.067 1.21.133 2.05.2.86.033 1.73.05 2.6.05h32.25c.83 0 1.66-.017 2.5-.05l1.85-.15v4.25c-.4-.067-1.04-.1-1.9-.1-.87-.033-1.7-.05-2.5-.05h-32.1c-.94 0-1.84.017-2.7.05-.84.033-1.52.067-2.05.1v-4.3Zm50.25 5.6c.5.033 1.11.083 1.85.15.73.033 1.53.067 2.4.1h30.1c1.26 0 2.35-.033 3.25-.1.9-.067 1.61-.117 2.15-.15v4.9l-2.25-.15c-.97-.067-2-.1-3.1-.1h-27.45c-1.37 0-2.67.033-3.9.1-1.24.033-2.25.083-3.05.15v-4.9Zm85.6-8.2c-.57.367-1.17.717-1.8 1.05-.64.333-1.32.683-2.05 1.05-.84.467-1.87 1-3.1 1.6-1.24.6-2.55 1.267-3.95 2-1.4.733-2.8 1.5-4.2 2.3-1.4.8-2.72 1.6-3.95 2.4-2.34 1.5-4.17 3.083-5.5 4.75-1.3 1.667-1.95 3.45-1.95 5.35 0 2.067.98 3.717 2.95 4.95 2 1.2 4.96 1.8 8.9 1.8 1.83 0 3.73-.067 5.7-.2 1.96-.167 3.85-.383 5.65-.65 1.83-.267 3.38-.55 4.65-.85v4.45c-1.24.233-2.7.433-4.4.6-1.67.2-3.47.35-5.4.45-1.94.133-3.94.2-6 .2-2.37 0-4.54-.2-6.5-.6-1.97-.367-3.69-.95-5.15-1.75-1.44-.8-2.55-1.85-3.35-3.15-.8-1.333-1.2-2.933-1.2-4.8 0-1.833.38-3.517 1.15-5.05.76-1.567 1.86-3.05 3.3-4.45 1.43-1.4 3.13-2.75 5.1-4.05 1.26-.867 2.61-1.7 4.05-2.5 1.46-.833 2.9-1.633 4.3-2.4 1.4-.767 2.7-1.467 3.9-2.1 1.23-.633 2.26-1.167 3.1-1.6.7-.433 1.33-.817 1.9-1.15.56-.367 1.11-.767 1.65-1.2l2.2 3.55Zm-25.3-9.05c.76 2.133 1.58 4.217 2.45 6.25.9 2.033 1.8 3.933 2.7 5.7.93 1.767 1.78 3.333 2.55 4.7l-3.45 2.05c-.84-1.367-1.72-2.983-2.65-4.85-.94-1.867-1.87-3.85-2.8-5.95-.94-2.1-1.85-4.183-2.75-6.25l3.95-1.65Zm51.6-.05c-.14.833-.24 1.683-.3 2.55-.07.833-.12 1.667-.15 2.5-.07 1.4-.14 3.133-.2 5.2-.07 2.067-.14 4.267-.2 6.6-.07 2.3-.12 4.6-.15 6.9-.04 2.3-.05 4.367-.05 6.2 0 1.833.35 3.3 1.05 4.4a5.74 5.74 0 0 0 2.9 2.35c1.23.467 2.65.7 4.25.7 2.26 0 4.31-.283 6.15-.85 1.83-.6 3.46-1.383 4.9-2.35 1.43-1 2.7-2.117 3.8-3.35 1.13-1.233 2.15-2.5 3.05-3.8l2.85 3.4c-.87 1.2-1.94 2.45-3.2 3.75-1.24 1.267-2.7 2.45-4.4 3.55-1.7 1.1-3.67 2-5.9 2.7-2.2.7-4.67 1.05-7.4 1.05-2.37 0-4.47-.367-6.3-1.1-1.84-.733-3.27-1.917-4.3-3.55-1.04-1.633-1.55-3.8-1.55-6.5 0-1.5.01-3.15.05-4.95.03-1.833.08-3.717.15-5.65.06-1.933.11-3.817.15-5.65.03-1.867.06-3.583.1-5.15.03-1.567.05-2.867.05-3.9 0-.933-.04-1.833-.1-2.7a25.58 25.58 0 0 0-.3-2.4l5.05.05Zm35.73 5.75c.97-.033 1.83-.067 2.6-.1.77-.067 1.38-.117 1.85-.15.8-.1 1.95-.217 3.45-.35 1.53-.167 3.28-.333 5.25-.5 1.97-.2 4.08-.4 6.35-.6 2.27-.2 4.55-.4 6.85-.6 1.83-.167 3.57-.3 5.2-.4 1.63-.133 3.15-.233 4.55-.3 1.4-.1 2.65-.167 3.75-.2v4c-.93-.033-2-.033-3.2 0-1.2.033-2.38.117-3.55.25-1.17.1-2.18.283-3.05.55a14.536 14.536 0 0 0-4.8 2.6 17.64 17.64 0 0 0-3.6 3.95c-1 1.467-1.77 3.017-2.3 4.65-.5 1.6-.75 3.133-.75 4.6 0 1.967.33 3.683 1 5.15.67 1.433 1.57 2.65 2.7 3.65 1.17 1 2.48 1.817 3.95 2.45 1.5.633 3.07 1.1 4.7 1.4 1.63.3 3.27.483 4.9.55l-1.45 4.15c-1.83-.067-3.7-.333-5.6-.8a24.847 24.847 0 0 1-5.35-1.9c-1.7-.867-3.22-1.95-4.55-3.25a14.573 14.573 0 0 1-3.15-4.55c-.77-1.733-1.15-3.717-1.15-5.95 0-2.6.45-5 1.35-7.2.93-2.233 2.12-4.183 3.55-5.85 1.43-1.667 2.92-2.95 4.45-3.85-1.07.133-2.38.283-3.95.45-1.57.167-3.27.35-5.1.55-1.8.167-3.6.367-5.4.6-1.8.233-3.5.467-5.1.7-1.57.2-2.88.417-3.95.65l-.45-4.35Z"/>
    <path fill="#666" d="M898.901 952h-14.16v-2.19l5.61-5.67c1.08-1.08 1.99-2.04 2.73-2.88.74-.84 1.3-1.66 1.68-2.46.38-.82.57-1.71.57-2.67 0-1.18-.35-2.07-1.05-2.67-.7-.62-1.61-.93-2.73-.93-1.04 0-1.96.18-2.76.54-.78.36-1.58.86-2.4 1.5l-1.41-1.77c.56-.48 1.17-.91 1.83-1.29.68-.38 1.41-.68 2.19-.9.8-.22 1.65-.33 2.55-.33 1.34 0 2.49.23 3.45.69.96.46 1.7 1.12 2.22 1.98.54.84.81 1.85.81 3.03 0 .84-.13 1.64-.39 2.4-.26.74-.63 1.47-1.11 2.19-.48.72-1.06 1.45-1.74 2.19-.68.74-1.43 1.51-2.25 2.31l-4.47 4.41v.12h10.83v2.4Zm17.258-10.74c0 1.74-.13 3.29-.39 4.65-.26 1.36-.68 2.52-1.26 3.48-.56.94-1.3 1.66-2.22 2.16-.9.5-1.99.75-3.27.75-1.6 0-2.93-.44-3.99-1.32-1.04-.88-1.82-2.14-2.34-3.78-.5-1.66-.75-3.64-.75-5.94 0-2.32.23-4.3.69-5.94.48-1.64 1.24-2.89 2.28-3.75 1.04-.88 2.41-1.32 4.11-1.32 1.6 0 2.93.44 3.99 1.32 1.06.86 1.85 2.11 2.37 3.75.52 1.64.78 3.62.78 5.94Zm-11.58 0c0 1.96.14 3.59.42 4.89.3 1.3.77 2.28 1.41 2.94.66.64 1.53.96 2.61.96 1.08 0 1.94-.32 2.58-.96.66-.64 1.14-1.61 1.44-2.91.3-1.32.45-2.96.45-4.92s-.15-3.58-.45-4.86c-.3-1.3-.78-2.27-1.44-2.91-.64-.66-1.5-.99-2.58-.99s-1.95.33-2.61.99c-.64.64-1.11 1.61-1.41 2.91-.28 1.28-.42 2.9-.42 4.86ZM933.237 952h-14.16v-2.19l5.61-5.67c1.08-1.08 1.99-2.04 2.73-2.88.74-.84 1.3-1.66 1.68-2.46.38-.82.57-1.71.57-2.67 0-1.18-.35-2.07-1.05-2.67-.7-.62-1.61-.93-2.73-.93-1.04 0-1.96.18-2.76.54-.78.36-1.58.86-2.4 1.5l-1.41-1.77c.56-.48 1.17-.91 1.83-1.29.68-.38 1.41-.68 2.19-.9.8-.22 1.65-.33 2.55-.33 1.34 0 2.49.23 3.45.69.96.46 1.7 1.12 2.22 1.98.54.84.81 1.85.81 3.03 0 .84-.13 1.64-.39 2.4-.26.74-.63 1.47-1.11 2.19-.48.72-1.06 1.45-1.74 2.19-.68.74-1.43 1.51-2.25 2.31l-4.47 4.41v.12h10.83v2.4Zm9.818-13.14c1.46 0 2.73.25 3.81.75s1.91 1.22 2.49 2.16c.6.92.9 2.05.9 3.39 0 1.48-.32 2.76-.96 3.84-.64 1.06-1.56 1.88-2.76 2.46-1.18.56-2.61.84-4.29.84-1.1 0-2.14-.1-3.12-.3-.96-.2-1.77-.49-2.43-.87v-2.49c.72.44 1.59.79 2.61 1.05 1.04.24 2.03.36 2.97.36 1.06 0 1.98-.16 2.76-.48.8-.34 1.42-.85 1.86-1.53.44-.7.66-1.57.66-2.61 0-1.4-.43-2.47-1.29-3.21-.86-.76-2.22-1.14-4.08-1.14-.56 0-1.2.05-1.92.15-.72.1-1.3.2-1.74.3l-1.32-.84.81-10.11h10.74v2.4h-8.49l-.51 6.21c.34-.06.8-.13 1.38-.21.58-.08 1.22-.12 1.92-.12Zm11.078 11.52c0-.74.18-1.26.54-1.56.36-.3.79-.45 1.29-.45.52 0 .96.15 1.32.45.38.3.57.82.57 1.56 0 .72-.19 1.24-.57 1.56-.36.32-.8.48-1.32.48-.5 0-.93-.16-1.29-.48-.36-.32-.54-.84-.54-1.56Zm21.557-9.12c0 1.74-.13 3.29-.39 4.65-.26 1.36-.68 2.52-1.26 3.48-.56.94-1.3 1.66-2.22 2.16-.9.5-1.99.75-3.27.75-1.6 0-2.93-.44-3.99-1.32-1.04-.88-1.82-2.14-2.34-3.78-.5-1.66-.75-3.64-.75-5.94 0-2.32.23-4.3.69-5.94.48-1.64 1.24-2.89 2.28-3.75 1.04-.88 2.41-1.32 4.11-1.32 1.6 0 2.93.44 3.99 1.32 1.06.86 1.85 2.11 2.37 3.75.52 1.64.78 3.62.78 5.94Zm-11.58 0c0 1.96.14 3.59.42 4.89.3 1.3.77 2.28 1.41 2.94.66.64 1.53.96 2.61.96 1.08 0 1.94-.32 2.58-.96.66-.64 1.14-1.61 1.44-2.91.3-1.32.45-2.96.45-4.92s-.15-3.58-.45-4.86c-.3-1.3-.78-2.27-1.44-2.91-.64-.66-1.5-.99-2.58-.99s-1.95.33-2.61.99c-.64.64-1.11 1.61-1.41 2.91-.28 1.28-.42 2.9-.42 4.86Zm14.708 1.59c0-1.24.08-2.46.24-3.66.18-1.2.48-2.33.9-3.39.42-1.08 1-2.03 1.74-2.85.74-.84 1.67-1.49 2.79-1.95 1.14-.48 2.52-.72 4.14-.72.42 0 .88.02 1.38.06.52.04.94.11 1.26.21v2.25c-.36-.12-.77-.21-1.23-.27-.44-.06-.89-.09-1.35-.09-1.38 0-2.53.23-3.45.69-.92.46-1.65 1.09-2.19 1.89-.52.8-.9 1.72-1.14 2.76-.24 1.04-.39 2.15-.45 3.33h.18c.3-.48.68-.91 1.14-1.29.46-.38 1.01-.68 1.65-.9.66-.22 1.42-.33 2.28-.33 1.24 0 2.32.26 3.24.78.94.5 1.67 1.24 2.19 2.22.52.96.78 2.13.78 3.51 0 1.48-.28 2.76-.84 3.84-.56 1.08-1.35 1.91-2.37 2.49-1 .58-2.2.87-3.6.87-1.02 0-1.97-.19-2.85-.57-.88-.38-1.66-.96-2.34-1.74-.66-.78-1.18-1.76-1.56-2.94-.36-1.2-.54-2.6-.54-4.2Zm7.26 7.23c1.26 0 2.28-.4 3.06-1.2.78-.82 1.17-2.08 1.17-3.78 0-1.36-.35-2.44-1.05-3.24-.68-.8-1.71-1.2-3.09-1.2-.94 0-1.76.2-2.46.6-.7.38-1.25.87-1.65 1.47-.38.6-.57 1.22-.57 1.86 0 .66.09 1.31.27 1.95.2.64.49 1.23.87 1.77.4.54.88.97 1.44 1.29.58.32 1.25.48 2.01.48Zm10.418.3c0-.74.18-1.26.54-1.56.36-.3.79-.45 1.29-.45.52 0 .96.15 1.32.45.384.3.574.82.574 1.56 0 .72-.19 1.24-.574 1.56-.36.32-.8.48-1.32.48-.5 0-.93-.16-1.29-.48-.36-.32-.54-.84-.54-1.56Zm21.554-9.12c0 1.74-.13 3.29-.39 4.65-.26 1.36-.68 2.52-1.26 3.48-.56.94-1.3 1.66-2.22 2.16-.9.5-1.99.75-3.27.75-1.6 0-2.93-.44-3.99-1.32-1.04-.88-1.82-2.14-2.34-3.78-.5-1.66-.75-3.64-.75-5.94 0-2.32.23-4.3.69-5.94.48-1.64 1.24-2.89 2.28-3.75 1.04-.88 2.41-1.32 4.11-1.32 1.6 0 2.93.44 3.99 1.32 1.06.86 1.85 2.11 2.37 3.75.52 1.64.78 3.62.78 5.94Zm-11.58 0c0 1.96.14 3.59.42 4.89.3 1.3.77 2.28 1.41 2.94.66.64 1.53.96 2.61.96 1.08 0 1.94-.32 2.58-.96.66-.64 1.14-1.61 1.44-2.91.3-1.32.45-2.96.45-4.92s-.15-3.58-.45-4.86c-.3-1.3-.78-2.27-1.44-2.91-.64-.66-1.5-.99-2.58-.99s-1.95.33-2.61.99c-.64.64-1.11 1.61-1.41 2.91-.28 1.28-.42 2.9-.42 4.86Zm27.85-5.67c0 .96-.18 1.79-.54 2.49-.36.7-.88 1.27-1.56 1.71-.66.44-1.44.75-2.34.93v.12c1.72.2 3 .74 3.84 1.62.84.88 1.26 2.03 1.26 3.45 0 1.24-.29 2.35-.87 3.33-.58.96-1.48 1.71-2.7 2.25-1.2.54-2.75.81-4.65.81-1.12 0-2.16-.09-3.12-.27-.96-.16-1.88-.46-2.76-.9v-2.46c.9.44 1.87.79 2.91 1.05 1.04.24 2.04.36 3 .36 1.92 0 3.3-.37 4.14-1.11.86-.76 1.29-1.8 1.29-3.12 0-.9-.24-1.62-.72-2.16-.46-.56-1.14-.97-2.04-1.23-.9-.26-1.98-.39-3.24-.39h-2.07v-2.25h2.1c1.18 0 2.16-.17 2.94-.51.8-.34 1.4-.81 1.8-1.41.42-.62.63-1.33.63-2.13 0-1.04-.35-1.84-1.05-2.4-.7-.58-1.65-.87-2.85-.87-.76 0-1.45.08-2.07.24-.62.14-1.2.35-1.74.63-.52.26-1.05.57-1.59.93l-1.32-1.8c.52-.4 1.11-.77 1.77-1.11.68-.34 1.43-.61 2.25-.81.82-.2 1.71-.3 2.67-.3 2.24 0 3.9.5 4.98 1.5 1.1 1 1.65 2.27 1.65 3.81Z"/>
    <g opacity=".2">
      <path fill="#3B82F6" d="M560 600c33.137 0 60-26.863 60-60s-26.863-60-60-60-60 26.863-60 60 26.863 60 60 60Z"/>
      <path fill="#10B981" d="M760 600c33.137 0 60-26.863 60-60s-26.863-60-60-60-60 26.863-60 60 26.863 60 60 60Z"/>
      <path fill="#F59E0B" d="M960 600c33.137 0 60-26.863 60-60s-26.863-60-60-60-60 26.863-60 60 26.863 60 60 60Z"/>
      <path fill="#EF4444" d="M1160 600c33.14 0 60-26.863 60-60s-26.86-60-60-60-60 26.863-60 60 26.86 60 60 60Z"/>
      <path fill="#8B5CF6" d="M1360 600c33.14 0 60-26.863 60-60s-26.86-60-60-60-60 26.863-60 60 26.86 60 60 60Z"/>
    </g>
  </g>
  <defs>
    <clipPath id="a">
      <path fill="#fff" d="M0 0h1920v1080H0z"/>
    </clipPath>
  </defs>
</svg>
