<svg xmlns="http://www.w3.org/2000/svg" width="1920" height="1080" fill="none" viewBox="0 0 1920 1080">
  <g clip-path="url(#a)">
    <path fill="#fff" d="M1920 0H0v1080h1920V0Z"/>
    <path fill="#000" d="m379.117 127-4.1-17h-23.1l-4.2 17h-17.6l22.8-71.7h20.8l22.9 71.7h-17.5Zm-12.3-46.3c-.4-1.4-.8-2.867-1.2-4.4-.4-1.533-.8-3.133-1.2-4.8a760.77 760.77 0 0 1-1-5.1 71.053 71.053 0 0 1-1 5.2c-.4 1.667-.8 3.267-1.2 4.8a57.333 57.333 0 0 1-1.1 4.3l-4.6 16.6h16l-4.7-16.6Zm65.604 46.3h-32.7v-8.6l8.3-4V68.2l-8.3-4v-8.6h32.7v8.6l-8.2 4v46.2l8.2 4v8.6Zm42.267-31.6h52.5v40h-11.5v-29.1h-30v29.6h-11V95.4Zm44.5-53.4 9.2 9.4c-4.866 1.867-10.266 3.5-16.2 4.9a222.385 222.385 0 0 1-18.3 3.3 372.06 372.06 0 0 1-18.2 2.1c-.2-1.4-.666-3.1-1.4-5.1-.666-2.067-1.333-3.767-2-5.1 4.267-.467 8.567-1 12.9-1.6 4.4-.6 8.667-1.3 12.8-2.1 4.134-.8 8-1.667 11.6-2.6 3.6-1 6.8-2.067 9.6-3.2Zm-24 11.3h11.4v48.4h-11.4V53.3Zm-26.7 17.9h63.7v11.4h-63.7V71.2Zm14.1 49.7h37.9v10.9h-37.9v-10.9Zm-38.8-68.9 6.8-8.7c1.867.933 3.967 2 6.3 3.2 2.334 1.2 4.6 2.4 6.8 3.6 2.267 1.2 4.1 2.267 5.5 3.2l-7.1 9.7c-1.333-1-3.066-2.133-5.2-3.4a459.746 459.746 0 0 0-6.7-3.9 204.493 204.493 0 0 0-6.4-3.7Zm-4.8 27.7 6.5-8.9c1.867.8 4 1.8 6.4 3 2.4 1.2 4.734 2.4 7 3.6 2.267 1.133 4.1 2.167 5.5 3.1l-6.7 10c-1.333-1-3.1-2.133-5.3-3.4a272.72 272.72 0 0 0-6.8-3.9c-2.4-1.333-4.6-2.5-6.6-3.5Zm1.5 47c1.8-2.533 3.767-5.5 5.9-8.9 2.2-3.467 4.434-7.133 6.7-11a292.66 292.66 0 0 0 6.4-11.7l8.8 8a337.945 337.945 0 0 1-5.6 10.7 279.265 279.265 0 0 1-6 10.8c-2 3.533-4.033 6.933-6.1 10.2l-10.1-8.1Zm116.1-78h61.3v11.5h-61.3V48.7Zm0 23.1h61.5V83h-61.5V71.8Zm-.2 23.6h62.1v11.3h-62.1V95.4Zm-6.7-46.7h11.8v36c0 3.933-.166 8.233-.5 12.9-.333 4.667-1 9.367-2 14.1a61.592 61.592 0 0 1-4.3 13.4c-1.866 4.267-4.333 8.067-7.4 11.4-.6-.8-1.5-1.7-2.7-2.7-1.2-1-2.433-1.967-3.7-2.9-1.2-.933-2.233-1.667-3.1-2.2 2.734-3 4.9-6.3 6.5-9.9a52.734 52.734 0 0 0 3.5-11.3c.8-3.933 1.3-7.833 1.5-11.7.267-3.933.4-7.667.4-11.2V48.7Zm64 0h12v73.1c0 3.2-.4 5.667-1.2 7.4-.8 1.8-2.233 3.167-4.3 4.1-2 .933-4.566 1.533-7.7 1.8-3.133.267-7 .367-11.6.3-.2-1.6-.7-3.533-1.5-5.8s-1.6-4.167-2.4-5.7l5.8.2h8.4c.934 0 1.567-.167 1.9-.5.4-.333.6-.967.6-1.9v-73Zm-33.2 4.6h12.1v81.4h-12.1V53.3Zm103.6-6.5c-.333 1.8-.866 4.133-1.6 7-.733 2.867-1.8 6.1-3.2 9.7a113.398 113.398 0 0 1-3.7 7.7c-1.333 2.6-2.7 4.933-4.1 7 .867-.4 1.967-.733 3.3-1 1.334-.333 2.7-.567 4.1-.7 1.467-.2 2.767-.3 3.9-.3 4.2 0 7.667 1.2 10.4 3.6 2.8 2.4 4.2 5.967 4.2 10.7v4.9c.067 1.933.134 3.967.2 6.1l.2 6.1c.067 2 .1 3.8.1 5.4h-12c.134-1.133.2-2.467.2-4 .067-1.6.1-3.267.1-5 .067-1.733.1-3.4.1-5 .067-1.667.1-3.167.1-4.5 0-3.2-.866-5.4-2.6-6.6-1.666-1.267-3.533-1.9-5.6-1.9-2.8 0-5.633.7-8.5 2.1-2.8 1.333-5.166 2.933-7.1 4.8a84.073 84.073 0 0 0-4.5 4.9 256.237 256.237 0 0 0-4.8 6.1l-10.7-8c4.334-4 8.067-7.867 11.2-11.6 3.2-3.733 5.9-7.433 8.1-11.1 2.2-3.667 4-7.333 5.4-11 1-2.667 1.8-5.433 2.4-8.3.667-2.933 1.067-5.667 1.2-8.2l13.2 1.1Zm-37.6 9.2c2.534.4 5.467.7 8.8.9 3.334.2 6.267.3 8.8.3 4.4 0 9.2-.1 14.4-.3 5.267-.2 10.6-.533 16-1 5.4-.533 10.534-1.2 15.4-2l-.1 11.6c-3.533.467-7.366.9-11.5 1.3-4.066.333-8.233.633-12.5.9-4.2.2-8.233.367-12.1.5-3.866.067-7.3.1-10.3.1h-5c-1.933-.067-3.933-.133-6-.2a865.436 865.436 0 0 1-5.9-.4V56Zm79.2 28.4a89.853 89.853 0 0 0-3.8 1.3c-1.4.467-2.833.967-4.3 1.5-1.4.467-2.666.933-3.8 1.4-3.2 1.267-7 2.8-11.4 4.6-4.333 1.8-8.866 3.9-13.6 6.3-3 1.6-5.533 3.167-7.6 4.7-2.066 1.533-3.633 3.1-4.7 4.7a8.735 8.735 0 0 0-1.6 5.1c0 1.4.3 2.567.9 3.5.6.867 1.5 1.567 2.7 2.1 1.2.533 2.7.9 4.5 1.1 1.8.2 3.934.3 6.4.3 4.267 0 8.967-.233 14.1-.7 5.134-.533 9.9-1.233 14.3-2.1l-.4 12.9c-2.133.267-4.833.533-8.1.8-3.266.333-6.666.567-10.2.7-3.466.133-6.8.2-10 .2-5.2 0-9.866-.5-14-1.5-4.133-1-7.4-2.7-9.8-5.1-2.333-2.467-3.5-5.833-3.5-10.1 0-3.467.767-6.6 2.3-9.4 1.6-2.8 3.7-5.333 6.3-7.6 2.6-2.267 5.434-4.3 8.5-6.1 3.134-1.867 6.2-3.567 9.2-5.1 3.067-1.6 5.834-2.967 8.3-4.1a169.251 169.251 0 0 1 6.9-3c2.2-.933 4.3-1.867 6.3-2.8 1.934-.867 3.8-1.7 5.6-2.5 1.8-.867 3.634-1.767 5.5-2.7l5 11.6Zm28-4.7h23.1v10.9h-23.1V79.7Zm18.5 0h11.6v4.4c-.133 7.067-.3 12.867-.5 17.4-.2 4.467-.533 7.967-1 10.5-.4 2.467-.966 4.2-1.7 5.2-1 1.267-2.066 2.167-3.2 2.7-1.066.533-2.333.933-3.8 1.2-1.333.267-3.033.433-5.1.5-2 0-4.2-.033-6.6-.1-.066-1.733-.4-3.667-1-5.8s-1.333-3.933-2.2-5.4c1.8.133 3.467.233 5 .3 1.6.067 2.8.1 3.6.1.667 0 1.234-.067 1.7-.2.534-.2.967-.533 1.3-1 .467-.6.8-1.833 1-3.7.267-1.933.467-4.833.6-8.7.134-3.933.234-9.133.3-15.6v-1.8Zm30-31.4 7.3-7.2a78.516 78.516 0 0 1 5.9 3.3 150.808 150.808 0 0 1 5.9 3.8c1.934 1.267 3.5 2.5 4.7 3.7l-7.7 8c-1.133-1.133-2.6-2.4-4.4-3.8a80.632 80.632 0 0 0-5.8-4.1 91.429 91.429 0 0 0-5.9-3.7Zm11.8 25.8 12.2 2.9c-4.2 13-9.933 24.5-17.2 34.5-7.266 9.933-15.866 17.967-25.8 24.1-.533-.867-1.333-1.933-2.4-3.2-1.066-1.2-2.166-2.433-3.3-3.7a62.902 62.902 0 0 0-3-3c9.6-5.2 17.734-12.2 24.4-21 6.667-8.867 11.7-19.067 15.1-30.6Zm-59.7-17.1h77.2v11.8h-77.2V57Zm-8 0h12.6v29.5c0 3.733-.133 7.833-.4 12.3-.266 4.4-.766 8.933-1.5 13.6a79.117 79.117 0 0 1-3.3 13.3c-1.4 4.267-3.233 8.1-5.5 11.5-.666-.867-1.666-1.833-3-2.9a196.672 196.672 0 0 0-3.9-3.2c-1.266-1-2.366-1.7-3.3-2.1 2.534-4 4.367-8.467 5.5-13.4 1.2-5 1.967-10.033 2.3-15.1.334-5.067.5-9.767.5-14.1V57Zm40.6-14.9h12.6c-.133 8.2.1 16.233.7 24.1.6 7.867 1.467 15.233 2.6 22.1 1.2 6.8 2.6 12.833 4.2 18.1 1.6 5.2 3.367 9.267 5.3 12.2 1.934 2.933 3.9 4.4 5.9 4.4 1.134 0 2-1.367 2.6-4.1.667-2.733 1.134-7.233 1.4-13.5 1.4 1.333 3.034 2.633 4.9 3.9 1.934 1.267 3.7 2.2 5.3 2.8-.6 6.2-1.5 11-2.7 14.4-1.2 3.333-2.8 5.633-4.8 6.9-2 1.267-4.566 1.9-7.7 1.9-3.6 0-6.866-1.233-9.8-3.7-2.866-2.467-5.433-5.9-7.7-10.3-2.2-4.4-4.1-9.567-5.7-15.5-1.6-5.933-2.933-12.367-4-19.3-1-6.933-1.766-14.133-2.3-21.6a430.112 430.112 0 0 1-.8-22.8Zm52.6 10.7h37.8v11.4h-37.8V52.8Zm39.2 10.5h44.9v11.5h-44.9V63.3Zm-26.2-5.8h11.9v50.3h-11.9V57.5Zm65.5 5.8h11.8v3.4c0 .867-.033 1.567-.1 2.1-.266 10.133-.566 18.767-.9 25.9-.333 7.133-.7 13.033-1.1 17.7-.4 4.6-.933 8.233-1.6 10.9-.6 2.667-1.366 4.567-2.3 5.7-1.266 1.867-2.6 3.133-4 3.8-1.333.733-2.933 1.267-4.8 1.6-1.733.2-3.9.333-6.5.4a105.38 105.38 0 0 1-7.9-.1c-.066-1.733-.466-3.733-1.2-6-.666-2.2-1.533-4.133-2.6-5.8 2.667.2 5.134.333 7.4.4h5.1c.934 0 1.7-.1 2.3-.3.6-.267 1.167-.733 1.7-1.4.6-.733 1.134-2.267 1.6-4.6.534-2.4.967-5.8 1.3-10.2.4-4.4.734-9.967 1-16.7.267-6.733.534-14.833.8-24.3v-2.5Zm-79.9 43.1c3.4-.667 7.3-1.533 11.7-2.6 4.4-1.067 9.034-2.233 13.9-3.5l14.6-3.8 1.5 11.4c-6.666 2-13.433 3.967-20.3 5.9-6.8 1.933-12.966 3.633-18.5 5.1l-2.9-12.5Zm54.7-62.8h12.2c-.066 8.333-.2 16.333-.4 24-.2 7.6-.8 14.767-1.8 21.5-.933 6.733-2.466 13-4.6 18.8-2.066 5.8-5 11.067-8.8 15.8-3.733 4.667-8.633 8.8-14.7 12.4-.533-1-1.3-2.133-2.3-3.4-.933-1.2-1.933-2.4-3-3.6-1.066-1.133-2.1-2.033-3.1-2.7 5.534-3.067 9.967-6.667 13.3-10.8 3.4-4.133 6-8.733 7.8-13.8 1.867-5.133 3.167-10.7 3.9-16.7.734-6.067 1.134-12.533 1.2-19.4.134-6.933.234-14.3.3-22.1Zm93.4 12.4c-.4-1.133-.866-2.533-1.4-4.2a74.683 74.683 0 0 0-1.8-5l13.5-1.6c.534 2.6 1.134 5.2 1.8 7.8a137.52 137.52 0 0 0 2.202 7.5c.8 2.4 1.6 4.667 2.4 6.8 1.53 4.133 3.33 8.2 5.4 12.2 2.13 3.933 4 7.033 5.6 9.3a76.24 76.24 0 0 0 2.6 3.6c.93 1.067 1.86 2.1 2.8 3.1l-6.2 9c-1.4-.267-3.17-.533-5.3-.8-2.14-.333-4.47-.633-7-.9-2.468-.267-4.968-.533-7.502-.8a157.54 157.54 0 0 0-6.8-.6l1-10.6c1.667.133 3.434.3 5.3.5 1.867.133 3.6.267 5.2.4 1.667.133 3.032.233 4.102.3a128.48 128.48 0 0 1-3.802-6.6 166.391 166.391 0 0 1-3.9-7.7 144.799 144.799 0 0 1-3.5-8.2c-1.066-2.8-2-5.333-2.8-7.6-.733-2.267-1.366-4.233-1.9-5.9Zm-36.4 4.7c6.2.733 12.034 1.233 17.5 1.5 5.467.267 10.567.333 15.3.2 4.734-.133 9.067-.433 13-.9 3.067-.4 6.032-.833 8.902-1.3 2.93-.467 5.8-1.033 8.6-1.7 2.86-.667 5.56-1.4 8.1-2.2l1.6 12.6c-2.2.6-4.6 1.167-7.2 1.7-2.54.533-5.17 1.033-7.9 1.5-2.74.4-5.44.767-8.102 1.1-6.733.733-14.133 1.167-22.2 1.3-8.066.133-17.2-.2-27.4-1l-.2-12.8Zm20 34.1c-1.533 2.333-2.733 4.633-3.6 6.9-.866 2.2-1.3 4.4-1.3 6.6 0 4.2 1.834 7.267 5.5 9.2 3.667 1.867 8.9 2.8 15.7 2.8 5.467 0 10.4-.233 14.802-.7 4.46-.467 8.46-1.033 12-1.7l-.7 12.6c-2.8.533-6.47 1.067-11 1.6-4.468.533-9.768.8-15.902.8-6.733-.067-12.6-.967-17.6-2.7-5-1.667-8.866-4.167-11.6-7.5-2.733-3.4-4.1-7.467-4.1-12.2 0-3.067.434-6.067 1.3-9 .934-3 2.267-6.2 4-9.6l12.5 2.9Zm142.202-46.3c-.07.533-.14 1.333-.2 2.4-.07 1-.14 2.067-.2 3.2-.07 1.133-.14 2.167-.2 3.1 0 2.2-.04 4.333-.1 6.4 0 2.067-.04 4.033-.1 5.9 0 1.8-.04 3.567-.1 5.3-.07 2.933-.17 6-.3 9.2-.14 3.2-.3 6.167-.5 8.9-.2 2.733-.47 4.967-.8 6.7-.54 2.6-1.47 4.367-2.8 5.3-1.34.867-3.3 1.3-5.9 1.3-1.14 0-2.7-.067-4.7-.2-1.94-.2-3.87-.433-5.8-.7-1.87-.267-3.4-.467-4.6-.6l.3-11.1c1.53.333 3.2.633 5 .9 1.86.267 3.26.4 4.2.4 1 0 1.73-.133 2.2-.4.53-.333.83-.967.9-1.9.2-1.267.33-2.867.4-4.8.13-1.933.23-4.033.3-6.3.13-2.333.23-4.6.3-6.8v-17c0-.867-.07-1.867-.2-3-.07-1.2-.14-2.367-.2-3.5-.07-1.133-.17-2.033-.3-2.7h13.4Zm-39.3 3c-.27 1.667-.44 3.3-.5 4.9-.07 1.533-.1 3.367-.1 5.5 0 1.8-.04 4.2-.1 7.2 0 3-.04 6.267-.1 9.8 0 3.467-.04 6.967-.1 10.5v9.5c0 2.867.03 5.133.1 6.8.06 2.467.23 4.5.5 6.1.33 1.533 1 2.733 2 3.6s2.56 1.467 4.7 1.8c2.2.333 5.16.5 8.9.5 3.26 0 6.73-.1 10.4-.3 3.66-.267 7.2-.6 10.6-1 3.4-.4 6.36-.8 8.9-1.2l-.5 13.6c-2.2.267-4.94.5-8.2.7-3.27.267-6.67.467-10.2.6-3.54.2-6.9.3-10.1.3-6.47 0-11.64-.367-15.5-1.1-3.87-.733-6.8-1.967-8.8-3.7-2-1.733-3.34-4.067-4-7-.67-2.933-1.07-6.567-1.2-10.9 0-1.467-.04-3.433-.1-5.9V75.1c.06-2.933.1-5.5.1-7.7v-4.8c0-2.067-.07-4-.2-5.8-.14-1.8-.34-3.567-.6-5.3h14.1Zm-33.5 22.6c1.46 0 3.3-.067 5.5-.2s4.56-.3 7.1-.5c2-.2 4.96-.467 8.9-.8 3.93-.4 8.4-.833 13.4-1.3 5-.467 10.2-.933 15.6-1.4 5.46-.533 10.7-1 15.7-1.4 5-.4 9.43-.733 13.3-1 1.4-.133 2.96-.233 4.7-.3 1.8-.133 3.43-.267 4.9-.4v12.3c-.54-.067-1.4-.1-2.6-.1-1.2 0-2.47.033-3.8.1-1.27 0-2.34.033-3.2.1-2.6.067-5.77.233-9.5.5-3.74.2-7.74.5-12 .9-4.27.333-8.64.733-13.1 1.2-4.4.4-8.64.833-12.7 1.3-4.07.467-7.74.867-11 1.2-3.27.333-5.87.6-7.8.8a83.17 83.17 0 0 0-3.9.6c-1.54.2-3.07.433-4.6.7-1.47.2-2.64.367-3.5.5l-1.4-12.8Zm118.3-23.3c1.4.2 2.9.333 4.5.4s3.13.1 4.6.1h4.8c2.13-.067 4.53-.133 7.2-.2 2.73-.067 5.43-.133 8.1-.2 2.66-.067 5.06-.133 7.2-.2 2.2-.133 3.9-.233 5.1-.3 2.06-.2 3.7-.367 4.9-.5 1.2-.2 2.1-.4 2.7-.6l6.5 8.9a178.4 178.4 0 0 1-3.5 2.2c-1.2.733-2.37 1.533-3.5 2.4-1.34.933-2.94 2.167-4.8 3.7-1.87 1.467-3.87 3.033-6 4.7-2.07 1.667-4.1 3.3-6.1 4.9-1.94 1.6-3.7 3.033-5.3 4.3 1.66-.4 3.26-.667 4.8-.8 1.53-.2 3.1-.3 4.7-.3 5.66 0 10.73 1.1 15.2 3.3 4.53 2.2 8.1 5.2 10.7 9 2.66 3.733 4 8.033 4 12.9 0 5.267-1.34 10.033-4 14.3-2.67 4.267-6.7 7.667-12.1 10.2-5.34 2.533-12.04 3.8-20.1 3.8-4.6 0-8.77-.667-12.5-2-3.67-1.333-6.57-3.233-8.7-5.7-2.14-2.467-3.2-5.367-3.2-8.7 0-2.733.73-5.267 2.2-7.6 1.53-2.4 3.63-4.333 6.3-5.8 2.73-1.467 5.86-2.2 9.4-2.2 4.6 0 8.46.933 11.6 2.8 3.2 1.8 5.63 4.233 7.3 7.3 1.73 3.067 2.63 6.433 2.7 10.1l-11.7 1.6c-.07-3.667-1-6.6-2.8-8.8-1.74-2.267-4.07-3.4-7-3.4-1.87 0-3.37.5-4.5 1.5-1.14.933-1.7 2.033-1.7 3.3 0 1.867.93 3.367 2.8 4.5 1.86 1.133 4.3 1.7 7.3 1.7 5.66 0 10.4-.667 14.2-2 3.8-1.4 6.63-3.367 8.5-5.9 1.93-2.6 2.9-5.667 2.9-9.2 0-3-.94-5.633-2.8-7.9-1.8-2.267-4.27-4.033-7.4-5.3-3.14-1.267-6.67-1.9-10.6-1.9-3.87 0-7.4.5-10.6 1.5-3.2.933-6.24 2.3-9.1 4.1-2.8 1.733-5.57 3.867-8.3 6.4-2.67 2.467-5.34 5.233-8 8.3l-9.1-9.4c1.8-1.467 3.83-3.1 6.1-4.9 2.26-1.867 4.56-3.8 6.9-5.8 2.4-2 4.63-3.867 6.7-5.6 2.13-1.8 3.93-3.3 5.4-4.5 1.4-1.133 3.03-2.467 4.9-4 1.86-1.533 3.8-3.1 5.8-4.7 2-1.667 3.9-3.233 5.7-4.7 1.8-1.533 3.3-2.833 4.5-3.9-1 0-2.3.033-3.9.1s-3.37.133-5.3.2c-1.87.067-3.77.133-5.7.2-1.87.067-3.64.167-5.3.3-1.6.067-2.94.133-4 .2-1.34.067-2.74.167-4.2.3-1.47.133-2.8.3-4 .5l-.4-13Zm126.7 20.8c0 3.267-.67 6.1-2 8.5-1.34 2.4-3.1 4.367-5.3 5.9-2.2 1.533-4.67 2.667-7.4 3.4v.3c5.33.667 9.43 2.4 12.3 5.2 2.86 2.8 4.3 6.567 4.3 11.3 0 4.133-.97 7.867-2.9 11.2-1.94 3.267-4.94 5.867-9 7.8-4 1.867-9.2 2.8-15.6 2.8-4 0-7.57-.333-10.7-1a45.487 45.487 0 0 1-9-2.9v-12.8c2.93 1.533 5.93 2.7 9 3.5 3.13.8 6 1.2 8.6 1.2 4.73 0 8-.933 9.8-2.8 1.86-1.867 2.8-4.5 2.8-7.9 0-2-.44-3.667-1.3-5-.87-1.4-2.4-2.433-4.6-3.1-2.14-.733-5.24-1.1-9.3-1.1h-4.6V84.5h4.7c3.8 0 6.73-.4 8.8-1.2 2.06-.867 3.5-2 4.3-3.4.86-1.467 1.3-3.133 1.3-5 0-2.533-.7-4.5-2.1-5.9-1.4-1.467-3.54-2.2-6.4-2.2-2.07 0-4 .3-5.8.9-1.8.533-3.4 1.2-4.8 2-1.34.8-2.44 1.567-3.3 2.3l-7-10.4a39.414 39.414 0 0 1 5.9-3.6c2.2-1.067 4.66-1.9 7.4-2.5 2.8-.6 5.96-.9 9.5-.9 6.93 0 12.4 1.5 16.4 4.5 4 2.933 6 7.1 6 12.5Zm11.09.6c1.87-.333 3.94-.8 6.2-1.4 2.27-.6 4.3-1.133 6.1-1.6 1.94-.6 4.54-1.433 7.8-2.5 3.34-1.067 7-2.133 11-3.2 4-1.067 8.07-1.967 12.2-2.7 4.2-.8 8.1-1.2 11.7-1.2 6.07 0 11.54 1.133 16.4 3.4 4.87 2.267 8.74 5.533 11.6 9.8 2.87 4.267 4.3 9.5 4.3 15.7 0 4.533-.83 8.733-2.5 12.6-1.66 3.867-4.13 7.333-7.4 10.4-3.2 3.067-7.1 5.733-11.7 8-4.6 2.267-9.86 4.1-15.8 5.5-5.86 1.333-12.33 2.167-19.4 2.5l-5.8-13.3c6.8-.133 13.1-.733 18.9-1.8 5.87-1.133 11-2.733 15.4-4.8 4.4-2.133 7.84-4.8 10.3-8 2.47-3.2 3.7-6.967 3.7-11.3 0-3.133-.7-5.933-2.1-8.4-1.4-2.533-3.5-4.533-6.3-6-2.73-1.467-6.1-2.2-10.1-2.2-2.93 0-6.16.367-9.7 1.1-3.53.667-7.16 1.567-10.9 2.7a190.501 190.501 0 0 0-10.8 3.7c-3.53 1.267-6.8 2.533-9.8 3.8-3 1.267-5.53 2.333-7.6 3.2l-5.7-14Zm153.7-13.7c-.66 5.067-1.53 10.467-2.6 16.2-1.06 5.733-2.5 11.533-4.3 17.4-1.93 6.733-4.2 12.533-6.8 17.4-2.6 4.867-5.46 8.633-8.6 11.3-3.06 2.6-6.43 3.9-10.1 3.9-3.66 0-7.06-1.233-10.2-3.7-3.06-2.533-5.53-6-7.4-10.4-1.8-4.4-2.7-9.4-2.7-15 0-5.8 1.17-11.267 3.5-16.4 2.34-5.133 5.57-9.667 9.7-13.6 4.2-4 9.07-7.133 14.6-9.4 5.6-2.267 11.64-3.4 18.1-3.4 6.2 0 11.77 1 16.7 3 5 2 9.27 4.767 12.8 8.3 3.54 3.533 6.24 7.667 8.1 12.4 1.87 4.733 2.8 9.833 2.8 15.3 0 7-1.43 13.267-4.3 18.8-2.86 5.533-7.13 10.1-12.8 13.7-5.6 3.6-12.6 6.067-21 7.4l-7.5-11.9c1.94-.2 3.64-.433 5.1-.7 1.47-.267 2.87-.567 4.2-.9 3.2-.8 6.17-1.933 8.9-3.4 2.8-1.533 5.24-3.4 7.3-5.6 2.07-2.267 3.67-4.9 4.8-7.9 1.2-3 1.8-6.3 1.8-9.9 0-3.933-.6-7.533-1.8-10.8-1.2-3.267-2.96-6.1-5.3-8.5-2.33-2.467-5.16-4.333-8.5-5.6-3.33-1.333-7.16-2-11.5-2-5.33 0-10.03.967-14.1 2.9-4.06 1.867-7.5 4.3-10.3 7.3-2.8 3-4.93 6.233-6.4 9.7-1.4 3.467-2.1 6.767-2.1 9.9 0 3.333.4 6.133 1.2 8.4.8 2.2 1.77 3.867 2.9 5 1.2 1.067 2.47 1.6 3.8 1.6 1.4 0 2.77-.7 4.1-2.1 1.4-1.467 2.77-3.667 4.1-6.6 1.34-2.933 2.67-6.633 4-11.1 1.54-4.8 2.84-9.933 3.9-15.4 1.07-5.467 1.84-10.8 2.3-16l13.6.4Zm79.3-9.4h13.1v10.4h-13.1V49.1Zm19.1 13.8h31.5V72h-31.5v-9.1Zm31.3-.7h9v10.6h-9V62.2Zm-28.1 27.7h33.4v9.4h-33.4v-9.4Zm-2.1 14.2h37.3v9.9h-37.3v-9.9Zm11.8-61.5h9.7v79.5h-9.7V42.6Zm-21.4 6.5h1.2l1.5-.5 6.9 1.5c-1.06 3.8-2.3 8.033-3.7 12.7a399.232 399.232 0 0 1-4.3 14.1c-1.46 4.733-2.9 9.2-4.3 13.4l-9.3-1.8c1.14-3.067 2.27-6.367 3.4-9.9 1.14-3.533 2.24-7.033 3.3-10.5 1.14-3.533 2.14-6.867 3-10 .94-3.133 1.7-5.8 2.3-8v-1Zm12.6.9h32v35.2h-31.8v-8.9h23.4V58.7h-23.6V50Zm-15.8 43c1 6.733 2.4 12.167 4.2 16.3 1.8 4.133 3.94 7.3 6.4 9.5 2.54 2.2 5.37 3.7 8.5 4.5 3.14.733 6.57 1.1 10.3 1.1h18.1c2.2-.067 3.87-.133 5-.2-.73 1.267-1.43 2.9-2.1 4.9-.6 2.067-1 3.8-1.2 5.2h-20.3c-4.93 0-9.36-.5-13.3-1.5-3.86-1-7.33-2.867-10.4-5.6-3-2.733-5.6-6.7-7.8-11.9-2.13-5.2-3.9-11.967-5.3-20.3l7.9-2Zm-.9-14.9h9.7v9.6h-12.6l2.9-9.6Zm6.4 0h1.9l1.7-.2 5.7 1.1c-.73 10.267-2.03 19.133-3.9 26.6-1.86 7.4-4.33 13.6-7.4 18.6-3.06 5-6.73 8.967-11 11.9-.53-.6-1.26-1.333-2.2-2.2-.93-.8-1.9-1.633-2.9-2.5-.93-.8-1.76-1.4-2.5-1.8 6.34-3.933 11.14-9.833 14.4-17.7 3.34-7.933 5.4-18.6 6.2-32v-1.8Zm-48 45.3c4.4-.667 9.67-1.533 15.8-2.6 6.14-1.067 12.37-2.167 18.7-3.3l.8 9.8c-5.66 1.133-11.4 2.267-17.2 3.4-5.73 1.133-10.93 2.167-15.6 3.1l-2.5-10.4Zm5.1-56.2h27.4v9.7h-27.4v-9.7Zm-3.5 16.9h32V94h-32v-9.9Zm.7 15.9 6.9-1.7c.8 2.8 1.5 5.833 2.1 9.1.6 3.2 1 5.967 1.2 8.3l-7.4 1.9c-.06-2.4-.4-5.233-1-8.5-.53-3.267-1.13-6.3-1.8-9.1Zm24.4-2.6 7.4 1.7c-.66 2.8-1.36 5.667-2.1 8.6-.73 2.933-1.4 5.467-2 7.6l-6.6-1.6c.47-1.533.9-3.233 1.3-5.1.47-1.933.87-3.9 1.2-5.9.4-2 .67-3.767.8-5.3Zm-13.3-26.3h9.7v52.2l-9.7 1.5V71.1Zm1-29.1h6.2v2.2h3.3v3.1c-1.26 2.533-2.76 5.333-4.5 8.4-1.73 3-3.8 6.1-6.2 9.3-2.4 3.2-5.23 6.333-8.5 9.4-.46-.867-1.13-1.767-2-2.7-.8-1-1.66-1.933-2.6-2.8-.86-.933-1.7-1.633-2.5-2.1 2.74-2.467 5.17-5.1 7.3-7.9a77.63 77.63 0 0 0 5.6-8.6c1.6-2.867 2.9-5.633 3.9-8.3Zm.8 0h7.9a110.76 110.76 0 0 1 5.5 5.7 85.822 85.822 0 0 1 5.3 6.2c1.67 2.067 2.97 3.967 3.9 5.7l-7.4 8.7c-.86-1.733-2.06-3.733-3.6-6a100.976 100.976 0 0 0-4.8-6.8c-1.73-2.267-3.43-4.167-5.1-5.7h-1.7V42Z"/>
    <path fill="red" d="M960 650c55.23 0 100-44.772 100-100s-44.77-100-100-100c-55.228 0-100 44.772-100 100s44.772 100 100 100Z"/>
    <path fill="#fff" d="m919.026 561-1.64-6.8h-9.24l-1.68 6.8h-7.04l9.12-28.68h8.32l9.16 28.68h-7Zm-4.92-18.52c-.16-.56-.32-1.147-.48-1.76a99.65 99.65 0 0 1-.48-1.92c-.134-.667-.267-1.347-.4-2.04-.107.693-.24 1.387-.4 2.08a99.65 99.65 0 0 1-.48 1.92c-.134.613-.28 1.187-.44 1.72l-1.84 6.64h6.4l-1.88-6.64ZM940.347 561h-13.08v-3.44l3.32-1.6v-18.48l-3.32-1.6v-3.44h13.08v3.44l-3.28 1.6v18.48l3.28 1.6V561Zm16.907-12.64h21v16h-4.6v-11.64h-12v11.84h-4.4v-16.2Zm17.8-21.36 3.68 3.76c-1.946.747-4.106 1.4-6.48 1.96a89.194 89.194 0 0 1-7.32 1.32c-2.48.347-4.906.627-7.28.84-.08-.56-.266-1.24-.56-2.04-.266-.827-.533-1.507-.8-2.04 1.707-.187 3.427-.4 5.16-.64 1.76-.24 3.467-.52 5.12-.84 1.654-.32 3.2-.667 4.64-1.04 1.44-.4 2.72-.827 3.84-1.28Zm-9.6 4.52h4.56v19.36h-4.56v-19.36Zm-10.68 7.16h25.48v4.56h-25.48v-4.56Zm5.64 19.88h15.16v4.36h-15.16v-4.36ZM944.894 531l2.72-3.48c.747.373 1.587.8 2.52 1.28.934.48 1.84.96 2.72 1.44.907.48 1.64.907 2.2 1.28l-2.84 3.88a23.69 23.69 0 0 0-2.08-1.36 175.297 175.297 0 0 0-2.68-1.56 81.745 81.745 0 0 0-2.56-1.48Zm-1.92 11.08 2.6-3.56c.747.32 1.6.72 2.56 1.2s1.894.96 2.8 1.44c.907.453 1.64.867 2.2 1.24l-2.68 4c-.533-.4-1.24-.853-2.12-1.36a106.76 106.76 0 0 0-2.72-1.56c-.96-.533-1.84-1-2.64-1.4Zm.6 18.8a74.9 74.9 0 0 0 2.36-3.56c.88-1.387 1.774-2.853 2.68-4.4.907-1.573 1.76-3.133 2.56-4.68l3.52 3.2a134.763 134.763 0 0 1-2.24 4.28 110.879 110.879 0 0 1-2.4 4.32 97.107 97.107 0 0 1-2.44 4.08l-4.04-3.24Zm46.44-31.2h24.516v4.6h-24.516v-4.6Zm0 9.24h24.596v4.48h-24.596v-4.48Zm-.08 9.44h24.836v4.52h-24.836v-4.52Zm-2.68-18.68h4.72v14.4c0 1.573-.066 3.293-.2 5.16a41.536 41.536 0 0 1-.8 5.64 24.604 24.604 0 0 1-1.72 5.36 16.34 16.34 0 0 1-2.96 4.56c-.24-.32-.6-.68-1.08-1.08-.48-.4-.973-.787-1.48-1.16-.48-.373-.893-.667-1.24-.88 1.094-1.2 1.96-2.52 2.6-3.96a21.082 21.082 0 0 0 1.4-4.52c.32-1.573.52-3.133.6-4.68.107-1.573.16-3.067.16-4.48v-14.36Zm25.596 0h4.8v29.24c0 1.28-.16 2.267-.48 2.96-.32.72-.89 1.267-1.72 1.64-.8.373-1.82.613-3.08.72-1.25.107-2.8.147-4.64.12-.08-.64-.28-1.413-.6-2.32-.32-.907-.64-1.667-.96-2.28l2.32.08h3.36c.38 0 .63-.067.76-.2.16-.133.24-.387.24-.76v-29.2Zm-13.276 1.84h4.836v32.56h-4.836v-32.56Z"/>
    <path fill="#EF4444" d="M560 530c99.411 0 180-80.589 180-180s-80.589-180-180-180-180 80.589-180 180 80.589 180 180 180Z"/>
    <path fill="#000" d="M576.563 317h-19.56v-54.6c.08-2 .12-4.08.12-6.24.08-2.16.16-4.08.24-5.76-.64.48-1.48 1.36-2.52 2.64-.96 1.28-1.96 2.36-3 3.24l-9 7.92-9.84-10.92 26.76-21.96h16.8V317Z"/>
    <path fill="#fff" d="M536.377 354.44c3.44 0 5.973.8 7.6 2.4 1.653 1.573 2.48 3.747 2.48 6.52 0 1.253-.173 2.453-.52 3.6a8.24 8.24 0 0 1-1.72 3.04c-.8.88-1.867 1.573-3.2 2.08-1.307.507-2.92.76-4.84.76h-2.24V383h-6.48v-28.56h8.92Zm-.2 4.96h-2.24v8.48h1.64c.853 0 1.613-.147 2.28-.44a3.307 3.307 0 0 0 1.56-1.4c.373-.64.56-1.467.56-2.48 0-1.413-.32-2.453-.96-3.12-.613-.693-1.56-1.04-2.84-1.04Zm20.951 1.76V383h-6.4v-21.84h6.4Zm-3.16-8.56c.933 0 1.733.213 2.4.64.666.4 1 1.16 1 2.28 0 1.093-.334 1.853-1 2.28-.667.427-1.467.64-2.4.64-.96 0-1.774-.213-2.44-.64-.667-.427-1-1.187-1-2.28 0-1.12.333-1.88 1-2.28.666-.427 1.48-.64 2.44-.64Zm20.916 8.16c2.186 0 3.946.64 5.28 1.92 1.36 1.253 2.04 3.28 2.04 6.08V383h-6.4v-12.76c0-1.573-.24-2.747-.72-3.52-.454-.8-1.187-1.2-2.2-1.2-1.547 0-2.587.627-3.12 1.88-.534 1.227-.8 3-.8 5.32V383h-6.4v-21.84h4.84l.88 2.8h.28c.453-.747.986-1.347 1.6-1.8.64-.48 1.36-.827 2.16-1.04.8-.24 1.653-.36 2.56-.36Zm18.001 12.76h-5.24l-.96-19.08h7.16l-.96 19.08Zm-6.2 6.68c0-1.227.346-2.08 1.04-2.56.693-.507 1.533-.76 2.52-.76.96 0 1.773.253 2.44.76.693.48 1.04 1.333 1.04 2.56 0 1.173-.347 2.027-1.04 2.56-.667.507-1.48.76-2.44.76-.987 0-1.827-.253-2.52-.76-.694-.533-1.04-1.387-1.04-2.56Zm-50.605 16-.24.84c-.107.347-.2.693-.28 1.04-.08.347-.147.613-.2.8a162.95 162.95 0 0 1-.88 4.64c-.32 1.68-.787 3.4-1.4 5.16a21.071 21.071 0 0 1-2.48 5.04c-1.653 2.613-3.8 4.907-6.44 6.88-2.613 1.947-5.52 3.48-8.72 4.6l-4.48-4.56a30.775 30.775 0 0 0 5.48-1.96 27.212 27.212 0 0 0 5.24-3.24c1.627-1.307 2.96-2.787 4-4.44a18.805 18.805 0 0 0 1.76-3.6c.48-1.307.88-2.667 1.2-4.08.32-1.44.547-2.88.68-4.32h-19.2v8.08c.027.613.08 1.24.16 1.88h-5.88c.053-.64.093-1.213.12-1.72.053-.507.08-1.027.08-1.56v-8.44c0-.56-.027-1.12-.08-1.68a31.74 31.74 0 0 0-.12-1.68c.64.027 1.387.067 2.24.12.853.027 1.747.04 2.68.04h19.12c.667 0 1.32-.027 1.96-.08.667-.053 1.267-.12 1.8-.2l3.88 2.44Zm7.6 8.28c.48.027 1.093.067 1.84.12.747.027 1.52.053 2.32.08.827.027 1.587.04 2.28.04h21.48c.933 0 1.813-.027 2.64-.08a46.21 46.21 0 0 1 2.04-.16v6.28l-2.04-.12a45.291 45.291 0 0 0-2.64-.08h-21.48a79.8 79.8 0 0 0-3.52.08c-1.2.027-2.173.067-2.92.12v-6.28Zm63.6-11.24c.373.533.787 1.16 1.24 1.88.453.72.88 1.44 1.28 2.16.427.72.8 1.387 1.12 2l-3.48 1.56a26.18 26.18 0 0 0-1.12-2.28 32.926 32.926 0 0 0-1.08-1.92 23.145 23.145 0 0 0-1.32-2l3.36-1.4Zm5.24-2.2c.4.533.827 1.147 1.28 1.84.48.693.933 1.4 1.36 2.12.453.693.827 1.347 1.12 1.96l-3.36 1.64c-.427-.853-.84-1.6-1.24-2.24a25.035 25.035 0 0 0-1.16-1.88 18.68 18.68 0 0 0-1.32-1.88l3.32-1.56Zm-21.2 28.72v-23c0-.72-.04-1.533-.12-2.44a18.612 18.612 0 0 0-.28-2.4h6.24c-.08.693-.16 1.467-.24 2.32a26.98 26.98 0 0 0-.12 2.52v23c0 .347.013.867.04 1.56.053.667.107 1.36.16 2.08.08.72.147 1.36.2 1.92h-6.28a23.36 23.36 0 0 0 .28-2.76c.08-1.093.12-2.027.12-2.8Zm4.32-17.48c1.333.347 2.813.8 4.44 1.36 1.653.533 3.32 1.12 5 1.76 1.68.613 3.267 1.227 4.76 1.84 1.493.587 2.72 1.12 3.68 1.6l-2.24 5.56a50.154 50.154 0 0 0-3.76-1.8c-1.36-.587-2.747-1.16-4.16-1.72a80.124 80.124 0 0 0-4.08-1.6c-1.333-.48-2.547-.893-3.64-1.24v-5.76Z"/>
    <path fill="#000" d="m862.805 401-1.312-5.44h-7.392l-1.344 5.44h-5.632l7.296-22.944h6.656L868.405 401h-5.6Zm-3.936-14.816a62.725 62.725 0 0 1-.384-1.408 82 82 0 0 1-.384-1.536c-.107-.533-.213-1.077-.32-1.632a22.674 22.674 0 0 1-.32 1.664 82 82 0 0 1-.384 1.536c-.107.491-.224.949-.352 1.376l-1.472 5.312h5.12l-1.504-5.312ZM879.862 401h-10.464v-2.752l2.656-1.28v-14.784l-2.656-1.28v-2.752h10.464v2.752l-2.624 1.28v14.784l2.624 1.28V401Zm15.318-22.368c.981.128 2.08.224 3.296.288 1.237.043 2.485.064 3.744.064a96.83 96.83 0 0 0 3.68-.128c1.173-.085 2.186-.171 3.04-.256v4.128c-.982.085-2.059.16-3.232.224a101.39 101.39 0 0 1-7.264 0 108.862 108.862 0 0 1-3.264-.224v-4.096Zm2.56 13.664a17.075 17.075 0 0 0-.288 1.44 7.985 7.985 0 0 0-.096 1.248c0 .341.085.661.256.96.17.277.426.523.768.736.362.192.821.341 1.376.448.576.085 1.269.128 2.08.128 1.429 0 2.773-.064 4.032-.192a53.231 53.231 0 0 0 4-.64l.064 4.32a34.233 34.233 0 0 1-3.552.448c-1.323.107-2.891.16-4.704.16-2.752 0-4.8-.459-6.144-1.376-1.344-.939-2.016-2.229-2.016-3.872 0-.619.042-1.259.128-1.92.106-.683.245-1.429.416-2.24l3.68.352Zm-7.488-15.808a8.716 8.716 0 0 0-.288.896c-.107.384-.214.757-.32 1.12-.086.363-.15.64-.192.832a30.852 30.852 0 0 1-.32 1.76c-.128.704-.267 1.504-.416 2.4-.128.875-.256 1.771-.384 2.688a68.071 68.071 0 0 0-.32 2.656c-.064.853-.096 1.6-.096 2.24v1.024c.021.384.064.736.128 1.056.149-.363.309-.725.48-1.088l.512-1.088c.17-.384.32-.747.448-1.088l1.984 1.568c-.299.875-.608 1.813-.928 2.816a260.148 260.148 0 0 0-.832 2.848c-.235.875-.416 1.6-.544 2.176-.043.235-.086.501-.128.8-.022.299-.032.533-.032.704v.608c.021.256.042.491.064.704l-3.712.256c-.32-1.109-.608-2.581-.864-4.416-.256-1.856-.384-3.872-.384-6.048 0-1.195.053-2.411.16-3.648a77.14 77.14 0 0 1 .384-3.552c.149-1.152.288-2.197.416-3.136.149-.939.277-1.717.384-2.336.042-.448.096-.949.16-1.504.085-.576.138-1.12.16-1.632l4.48.384Zm44.832 16.288h3.488v6.624c0 .427.032.693.096.8.064.107.202.16.416.16h1.28c.17 0 .298-.075.384-.224.106-.171.181-.512.224-1.024a42.26 42.26 0 0 0 .096-2.336c.234.192.533.373.896.544.362.171.736.331 1.12.48.405.149.757.267 1.056.352-.107 1.429-.288 2.539-.544 3.328-.256.811-.619 1.365-1.088 1.664-.448.299-1.035.448-1.76.448h-2.24c-.939 0-1.664-.128-2.176-.384-.491-.256-.822-.693-.992-1.312-.171-.619-.256-1.44-.256-2.464v-6.656Zm-3.84-9.376v2.144h7.04V383.4h-7.04Zm0 4.992v2.144h7.04v-2.144h-7.04Zm0-9.952v2.112h7.04v-2.112h-7.04Zm-3.488-3.04h14.208v18.208h-14.208V375.4Zm2.144 17.312h3.68c-.15 1.664-.438 3.2-.864 4.608a9.553 9.553 0 0 1-2.144 3.744c-1.003 1.109-2.443 2.048-4.32 2.816a8.297 8.297 0 0 0-.544-1.024 9.96 9.96 0 0 0-.8-1.12 6.079 6.079 0 0 0-.8-.832c1.557-.555 2.72-1.237 3.488-2.048.789-.811 1.333-1.728 1.632-2.752.32-1.024.544-2.155.672-3.392Zm-15.456-12.96h9.76v3.456h-9.76v-3.456Zm4.16 10.912 3.744-4.48v17.696h-3.744v-13.216Zm0-16.832h3.744v7.52h-3.744v-7.52Zm3.648 13.056c.256.192.629.512 1.12.96.49.427 1.013.896 1.568 1.408.554.512 1.056.992 1.504 1.44.469.427.81.747 1.024.96l-2.368 3.168a28.886 28.886 0 0 0-1.088-1.44 39.76 39.76 0 0 0-1.344-1.664 63.364 63.364 0 0 0-1.408-1.6 26.787 26.787 0 0 0-1.184-1.28l2.176-1.952Zm.672-7.136h.736l.64-.16 2.112 1.408a30.053 30.053 0 0 1-2.944 5.92 33.355 33.355 0 0 1-3.968 5.152c-1.451 1.515-2.944 2.773-4.48 3.776-.086-.341-.246-.747-.48-1.216a16.97 16.97 0 0 0-.672-1.376 12.36 12.36 0 0 0-.608-1.056c1.365-.789 2.677-1.803 3.936-3.04a24.075 24.075 0 0 0 3.392-4.096c1.002-1.515 1.781-3.061 2.336-4.64v-.672Zm35.808-5.952h3.904v11.136h-3.904V373.8Zm-5.312 12.992v4.128h14.688v-4.128H953.42Zm-3.68-3.552h22.304v11.232H949.74V383.24Zm10.816-6.592h13.6v3.584h-13.6v-3.584Zm-5.504 20.256 3.648-.352c.17.704.32 1.472.448 2.304.128.811.234 1.589.32 2.336.085.747.128 1.408.128 1.984l-3.872.48c0-.555-.032-1.227-.096-2.016a34.104 34.104 0 0 0-.224-2.4 23.769 23.769 0 0 0-.352-2.336Zm6.592.032 3.52-.8c.32.683.64 1.419.96 2.208.341.768.64 1.515.896 2.24.256.725.448 1.376.576 1.952l-3.744.96a19.926 19.926 0 0 0-.512-1.984 27.529 27.529 0 0 0-.768-2.336 28.632 28.632 0 0 0-.928-2.24Zm6.528-.192 3.424-1.248a28.404 28.404 0 0 1 1.6 2.208 45.954 45.954 0 0 1 1.536 2.4c.469.768.832 1.472 1.088 2.112l-3.712 1.44a19.95 19.95 0 0 0-.992-2.144c-.427-.789-.907-1.6-1.44-2.432a41.346 41.346 0 0 0-1.504-2.336Zm-18.368-1.024 3.68.96a23.753 23.753 0 0 1-1.792 3.84c-.747 1.301-1.536 2.379-2.368 3.232l-3.552-1.728c.789-.704 1.546-1.632 2.272-2.784a19.382 19.382 0 0 0 1.76-3.52Zm42.592-20.384a36.299 36.299 0 0 1-.512 2.24 27.582 27.582 0 0 1-1.024 3.104 36.712 36.712 0 0 1-1.184 2.464 21.473 21.473 0 0 1-1.312 2.24 4.772 4.772 0 0 1 1.056-.32 8.853 8.853 0 0 1 1.312-.224 9.348 9.348 0 0 1 1.248-.096c1.344 0 2.453.384 3.328 1.152.896.768 1.344 1.909 1.344 3.424v1.568l.064 1.952c.021.661.042 1.312.064 1.952.021.64.032 1.216.032 1.728h-3.84c.042-.363.064-.789.064-1.28.021-.512.032-1.045.032-1.6.021-.555.032-1.088.032-1.6a36.99 36.99 0 0 0 .032-1.44c0-1.024-.278-1.728-.832-2.112a2.893 2.893 0 0 0-1.792-.608c-.896 0-1.803.224-2.72.672-.896.427-1.654.939-2.272 1.536-.47.469-.95.992-1.44 1.568-.47.576-.982 1.227-1.536 1.952l-3.424-2.56c1.386-1.28 2.581-2.517 3.584-3.712a26.264 26.264 0 0 0 2.592-3.552 22.336 22.336 0 0 0 1.728-3.52c.32-.853.576-1.739.768-2.656.213-.939.341-1.813.384-2.624l4.224.352Zm-12.032 2.944c.81.128 1.749.224 2.816.288 1.066.064 2.005.096 2.816.096 1.408 0 2.944-.032 4.608-.096a106.79 106.79 0 0 0 5.12-.32 77.24 77.24 0 0 0 4.926-.64l-.03 3.712c-1.131.149-2.358.288-3.68.416-1.302.107-2.635.203-4 .288-1.344.064-2.635.117-3.872.16-1.238.021-2.336.032-3.296.032h-1.6c-.619-.021-1.259-.043-1.92-.064-.662-.043-1.291-.085-1.888-.128v-3.744Zm25.346 9.088c-.34.107-.75.245-1.22.416-.45.149-.9.309-1.37.48-.45.149-.86.299-1.22.448-1.02.405-2.24.896-3.648 1.472a63.423 63.423 0 0 0-4.352 2.016c-.96.512-1.771 1.013-2.432 1.504-.662.491-1.163.992-1.504 1.504a2.79 2.79 0 0 0-.512 1.632c0 .448.096.821.288 1.12.192.277.48.501.864.672.384.171.864.288 1.44.352s1.258.096 2.048.096c1.365 0 2.869-.075 4.512-.224a51.2 51.2 0 0 0 4.576-.672l-.13 4.128c-.68.085-1.54.171-2.59.256a51.26 51.26 0 0 1-3.264.224 82.71 82.71 0 0 1-3.2.064c-1.664 0-3.158-.16-4.48-.48-1.323-.32-2.368-.864-3.136-1.632-.747-.789-1.12-1.867-1.12-3.232 0-1.109.245-2.112.736-3.008a9.42 9.42 0 0 1 2.016-2.432 17.957 17.957 0 0 1 2.72-1.952 52.2 52.2 0 0 1 2.944-1.632 59.494 59.494 0 0 1 2.656-1.312 52.709 52.709 0 0 1 2.208-.96 66.89 66.89 0 0 0 2.02-.896c.61-.277 1.21-.544 1.79-.8.57-.277 1.16-.565 1.76-.864l1.6 3.712Zm11.84-2.336h13.98v3.552h-13.98v-3.552Zm1.37-7.168h16.96v3.68h-16.96v-3.68Zm-8.54 14.112h29.02v3.68h-29.02v-3.68Zm19.84-6.944h3.94s-.01.107-.04.32c0 .192-.01.427-.03.704 0 .256-.01.48-.03.672-.26 3.285-.53 5.984-.83 8.096-.28 2.091-.6 3.723-.96 4.896-.34 1.152-.76 1.984-1.25 2.496-.49.555-1 .928-1.54 1.12-.51.192-1.14.341-1.88.448-.6.064-1.4.085-2.4.064-.99 0-2-.021-3.04-.064-.05-.555-.2-1.205-.45-1.952a7.045 7.045 0 0 0-.93-1.888c1.11.085 2.14.149 3.1.192.99.021 1.71.032 2.18.032.36 0 .66-.021.9-.064.25-.064.49-.192.7-.384.38-.32.73-1.013 1.02-2.08.3-1.067.58-2.581.84-4.544.25-1.963.49-4.437.7-7.424v-.64Zm-12.58-11.264 4 .384a116.02 116.02 0 0 1-.73 4.128c-.26 1.408-.52 2.816-.8 4.224-.28 1.408-.56 2.752-.83 4.032-.26 1.28-.51 2.421-.74 3.424l-4.06-.352c.27-1.003.55-2.155.83-3.456.3-1.301.58-2.656.86-4.064.3-1.429.57-2.848.8-4.256.26-1.429.48-2.784.67-4.064Zm33.19 1.28c.89.171 1.92.341 3.07.512 1.15.149 2.34.299 3.55.448 1.24.149 2.41.277 3.52.384 1.13.085 2.1.16 2.91.224l-.51 3.744c-.83-.064-1.81-.149-2.94-.256a525.404 525.404 0 0 1-7.04-.864 59.234 59.234 0 0 1-3.17-.48l.61-3.712Zm14.17 10.176c-.42.299-.81.587-1.15.864-.34.256-.65.512-.93.768-.38.299-.83.683-1.34 1.152-.49.469-1 .949-1.54 1.44-.53.469-1.01.907-1.44 1.312-.4.405-.7.715-.89.928.13-.021.32-.011.57.032.26.043.47.107.64.192.47.149.86.405 1.16.768.29.341.55.811.76 1.408.11.277.21.597.29.96.11.341.22.683.32 1.024.11.341.22.651.32.928.15.491.41.864.77 1.12.36.256.85.384 1.47.384.83 0 1.62-.021 2.37-.064.75-.064 1.45-.139 2.11-.224.66-.085 1.26-.181 1.79-.288l-.25 4.192c-.43.085-1.04.16-1.83.224-.76.085-1.56.149-2.4.192-.81.043-1.49.064-2.04.064-1.52 0-2.71-.203-3.59-.608-.85-.384-1.48-1.099-1.89-2.144-.08-.32-.19-.683-.32-1.088-.12-.405-.24-.8-.35-1.184a9.48 9.48 0 0 0-.25-.992c-.17-.576-.42-.971-.74-1.184-.32-.235-.64-.352-.96-.352-.34 0-.68.117-1.02.352-.35.213-.71.523-1.09.928-.22.213-.48.491-.8.832-.3.341-.65.725-1.06 1.152-.38.427-.79.885-1.21 1.376-.41.491-.84 1.003-1.28 1.536-.45.533-.9 1.088-1.35 1.664l-3.77-2.656c.27-.256.6-.544.99-.864.38-.341.79-.715 1.21-1.12.28-.277.68-.672 1.19-1.184.51-.533 1.1-1.131 1.76-1.792.68-.661 1.38-1.365 2.11-2.112.75-.768 1.49-1.525 2.24-2.272.75-.747 1.44-1.451 2.08-2.112.66-.683 1.24-1.28 1.73-1.792-.45.021-.95.053-1.51.096-.55.021-1.13.053-1.72.096-.6.021-1.19.064-1.76.128-.58.043-1.11.085-1.6.128s-.93.085-1.32.128c-.55.043-1.06.107-1.53.192-.47.064-.88.117-1.22.16l-.38-4.416c.36.021.82.053 1.37.096.56.021 1.12.021 1.7 0 .3 0 .79-.011 1.47-.032.71-.021 1.52-.053 2.43-.096l2.79-.128c.96-.064 1.85-.128 2.69-.192.85-.085 1.53-.16 2.04-.224.3-.043.63-.096 1-.16.38-.064.66-.128.83-.192l2.33 2.656Zm13.92-8.608c.44.064.92.107 1.44.128.51.021 1 .032 1.47.032h1.53c.69-.021 1.45-.043 2.31-.064l2.59-.064c.85-.021 1.62-.043 2.3-.064.71-.043 1.25-.075 1.64-.096.66-.064 1.18-.117 1.56-.16.39-.064.68-.128.87-.192l2.08 2.848c-.37.235-.74.469-1.12.704-.39.235-.76.491-1.12.768-.43.299-.94.693-1.54 1.184l-1.92 1.504c-.66.533-1.31 1.056-1.95 1.568-.62.512-1.18.971-1.7 1.376.54-.128 1.05-.213 1.54-.256.49-.064.99-.096 1.5-.096 1.82 0 3.44.352 4.87 1.056 1.45.704 2.59 1.664 3.42 2.88.85 1.195 1.28 2.571 1.28 4.128 0 1.685-.43 3.211-1.28 4.576-.85 1.365-2.14 2.453-3.87 3.264-1.71.811-3.85 1.216-6.43 1.216-1.47 0-2.81-.213-4-.64-1.18-.427-2.1-1.035-2.79-1.824-.68-.789-1.02-1.717-1.02-2.784 0-.875.23-1.685.7-2.432.49-.768 1.17-1.387 2.02-1.856.87-.469 1.88-.704 3.01-.704 1.47 0 2.71.299 3.71.896 1.02.576 1.8 1.355 2.34 2.336.55.981.84 2.059.86 3.232l-3.74.512c-.03-1.173-.32-2.112-.9-2.816-.56-.725-1.3-1.088-2.24-1.088-.6 0-1.08.16-1.44.48-.36.299-.54.651-.54 1.056 0 .597.29 1.077.89 1.44.6.363 1.38.544 2.34.544 1.81 0 3.33-.213 4.54-.64 1.22-.448 2.12-1.077 2.72-1.888.62-.832.93-1.813.93-2.944 0-.96-.3-1.803-.9-2.528-.57-.725-1.36-1.291-2.36-1.696-1.01-.405-2.14-.608-3.4-.608-1.23 0-2.36.16-3.39.48-1.02.299-1.99.736-2.91 1.312-.9.555-1.78 1.237-2.66 2.048a35.98 35.98 0 0 0-2.56 2.656l-2.91-3.008c.58-.469 1.23-.992 1.95-1.568.73-.597 1.46-1.216 2.21-1.856.77-.64 1.48-1.237 2.15-1.792.68-.576 1.25-1.056 1.72-1.44.45-.363.97-.789 1.57-1.28.6-.491 1.22-.992 1.86-1.504.64-.533 1.25-1.035 1.82-1.504.58-.491 1.06-.907 1.44-1.248-.32 0-.73.011-1.25.032-.51.021-1.07.043-1.69.064l-1.83.064c-.59.021-1.16.053-1.69.096-.51.021-.94.043-1.28.064-.43.021-.88.053-1.35.096-.47.043-.89.096-1.28.16l-.12-4.16Z"/>
    <path fill="#666" d="M134.236 589.064h16.044v2.044h-16.044v-2.044Zm15.316 0h2.184v.644c0 .149-.009.271-.028.364a262.236 262.236 0 0 1-.336 5.572c-.093 1.512-.215 2.772-.364 3.78-.131 1.008-.28 1.801-.448 2.38-.168.579-.383.999-.644 1.26-.28.355-.588.597-.924.728-.336.149-.747.243-1.232.28a19.99 19.99 0 0 1-1.932.028c-.803 0-1.643-.028-2.52-.084a4.185 4.185 0 0 0-.224-1.064 3.533 3.533 0 0 0-.476-1.036c.915.075 1.764.121 2.548.14.784.037 1.344.056 1.68.056.28 0 .513-.028.7-.084a1.11 1.11 0 0 0 .476-.28c.28-.261.504-.821.672-1.68.187-.877.345-2.165.476-3.864.149-1.717.28-3.957.392-6.72v-.42Zm-11.48-10.024 2.24.644a31.856 31.856 0 0 1-2.436 4.508 28.014 28.014 0 0 1-3.024 3.948 25.18 25.18 0 0 1-3.388 3.136 7.137 7.137 0 0 0-.532-.532 23.089 23.089 0 0 0-.7-.616c-.224-.205-.42-.373-.588-.504a19.89 19.89 0 0 0 3.388-2.828 24.717 24.717 0 0 0 2.884-3.612 24.294 24.294 0 0 0 2.156-4.144Zm9.772-.056a24.54 24.54 0 0 0 1.652 2.884 33.923 33.923 0 0 0 2.128 2.828 38.025 38.025 0 0 0 2.352 2.52 23.055 23.055 0 0 0 2.38 1.96c-.187.149-.401.336-.644.56-.224.205-.439.42-.644.644a6.329 6.329 0 0 0-.476.644 25.638 25.638 0 0 1-2.38-2.212 44.903 44.903 0 0 1-2.38-2.772 45.824 45.824 0 0 1-2.184-3.08 42.677 42.677 0 0 1-1.82-3.164l2.016-.812Zm-7.7 10.668h2.268a34.961 34.961 0 0 1-.728 4.48 16.522 16.522 0 0 1-1.54 4.116c-.691 1.288-1.652 2.455-2.884 3.5-1.213 1.045-2.8 1.923-4.76 2.632a8.558 8.558 0 0 0-.364-.644 7.74 7.74 0 0 0-.504-.672 4.647 4.647 0 0 0-.504-.532c1.829-.597 3.304-1.353 4.424-2.268 1.139-.933 2.016-1.969 2.632-3.108a13.811 13.811 0 0 0 1.344-3.612c.28-1.269.485-2.567.616-3.892Zm31.528-1.568h12.264v1.988h-12.264v-1.988Zm-1.092-7.308 2.604.784c-.019.187-.205.308-.56.364v6.748c0 1.101-.047 2.315-.14 3.64a28.547 28.547 0 0 1-.532 4.06 23.225 23.225 0 0 1-1.176 4.06 16.201 16.201 0 0 1-2.072 3.724 2.19 2.19 0 0 0-.448-.532 17.066 17.066 0 0 0-.588-.504 2.562 2.562 0 0 0-.56-.364 14.173 14.173 0 0 0 1.876-3.36 19.489 19.489 0 0 0 1.036-3.668c.224-1.251.373-2.473.448-3.668.075-1.213.112-2.352.112-3.416v-7.868Zm10.304-1.988 1.792 1.624c-.971.411-2.081.793-3.332 1.148a70.677 70.677 0 0 1-3.808.98c-1.307.28-2.585.523-3.836.728a3.532 3.532 0 0 0-.28-.868 5.702 5.702 0 0 0-.42-.84 140.81 140.81 0 0 0 3.612-.784 57.51 57.51 0 0 0 3.472-.952c1.101-.336 2.035-.681 2.8-1.036Zm-3.192 9.94h2.072v15.512h-2.072v-15.512Zm-19.236-4.256h10.192v2.016h-10.192v-2.016Zm4.34-5.992h2.044v25.732h-2.044V578.48Zm-.112 7.252 1.372.448a42.833 42.833 0 0 1-.924 3.5 38.046 38.046 0 0 1-1.232 3.556 30.268 30.268 0 0 1-1.456 3.22c-.504.989-1.027 1.839-1.568 2.548a6.024 6.024 0 0 0-.504-.952 36.97 36.97 0 0 0-.588-.952c.504-.635.999-1.391 1.484-2.268.504-.877.971-1.829 1.4-2.856.448-1.027.84-2.072 1.176-3.136.355-1.064.635-2.1.84-3.108Zm1.96 3.08c.187.187.467.513.84.98.392.467.803.971 1.232 1.512.448.541.859 1.045 1.232 1.512.373.448.635.775.784.98l-1.316 1.68c-.168-.355-.42-.793-.756-1.316a31.83 31.83 0 0 0-1.12-1.624 91.691 91.691 0 0 0-1.12-1.568 40.505 40.505 0 0 0-.84-1.176l1.064-.98Zm36.148-5.936a79.112 79.112 0 0 1-.728 4.564 40.613 40.613 0 0 1-1.092 4.62c-.56 1.923-1.185 3.528-1.876 4.816-.672 1.288-1.4 2.259-2.184 2.912-.784.653-1.605.98-2.464.98-.821 0-1.615-.299-2.38-.896-.765-.597-1.391-1.456-1.876-2.576-.485-1.139-.728-2.473-.728-4.004 0-1.531.308-2.977.924-4.34a11.824 11.824 0 0 1 2.604-3.612 12.619 12.619 0 0 1 3.92-2.52c1.493-.616 3.089-.924 4.788-.924 1.643 0 3.117.271 4.424.812 1.325.541 2.455 1.288 3.388 2.24a9.715 9.715 0 0 1 2.156 3.276c.504 1.232.756 2.557.756 3.976 0 1.96-.42 3.687-1.26 5.18-.821 1.493-2.016 2.707-3.584 3.64-1.549.933-3.435 1.549-5.656 1.848l-1.316-2.072c.448-.056.877-.112 1.288-.168.411-.056.784-.121 1.12-.196a11.202 11.202 0 0 0 2.604-.952 9.32 9.32 0 0 0 2.296-1.68 7.774 7.774 0 0 0 1.596-2.436c.411-.952.616-2.035.616-3.248 0-1.139-.187-2.193-.56-3.164a7.463 7.463 0 0 0-1.652-2.604c-.728-.747-1.615-1.335-2.66-1.764-1.045-.429-2.24-.644-3.584-.644-1.531 0-2.921.28-4.172.84-1.232.56-2.287 1.297-3.164 2.212a9.977 9.977 0 0 0-1.988 2.968c-.467 1.064-.7 2.109-.7 3.136 0 1.176.149 2.147.448 2.912.317.747.691 1.297 1.12 1.652.448.355.887.532 1.316.532.448 0 .905-.215 1.372-.644.467-.448.943-1.157 1.428-2.128.485-.989.961-2.268 1.428-3.836a38.828 38.828 0 0 0 1.036-4.284c.299-1.512.513-2.996.644-4.452l2.352.028Zm13.692.448h25.06v2.016h-25.06v-2.016Zm9.156 6.608h11.172v2.016H223.64v-2.016Zm10.416 0h2.184l-.028.196c0 .131-.009.28-.028.448 0 .149-.009.28-.028.392-.187 2.669-.383 4.844-.588 6.524-.205 1.661-.439 2.94-.7 3.836-.261.896-.579 1.531-.952 1.904a2.623 2.623 0 0 1-1.036.7c-.373.131-.831.215-1.372.252a21.73 21.73 0 0 1-2.016.028 71.17 71.17 0 0 1-2.688-.112c-.019-.299-.103-.644-.252-1.036a4.28 4.28 0 0 0-.504-1.008c1.008.075 1.96.121 2.856.14.896.037 1.521.056 1.876.056.317 0 .579-.019.784-.056.224-.037.411-.131.56-.28.299-.261.56-.812.784-1.652.224-.859.429-2.091.616-3.696.187-1.624.364-3.715.532-6.272v-.364Zm-10.92-5.488h2.352a76.997 76.997 0 0 1-.364 4.536 34.134 34.134 0 0 1-.812 4.508 18.107 18.107 0 0 1-1.596 4.228 14.41 14.41 0 0 1-2.744 3.696c-1.139 1.12-2.557 2.1-4.256 2.94a6.317 6.317 0 0 0-.7-.924 5.377 5.377 0 0 0-.84-.784c1.643-.747 2.996-1.633 4.06-2.66 1.064-1.045 1.913-2.184 2.548-3.416a17.273 17.273 0 0 0 1.428-3.92c.317-1.363.532-2.735.644-4.116.131-1.4.224-2.763.28-4.088Zm2.688-6.048h2.156v5.796h-2.156v-5.796Zm17.948 4.928h21.308v2.044h-19.236v18.872h-2.072v-20.916Zm20.524 0h2.1v18.116c0 .691-.093 1.223-.28 1.596-.187.373-.532.653-1.036.84-.504.168-1.195.271-2.072.308-.877.037-1.96.056-3.248.056a2.928 2.928 0 0 0-.168-.7 38.827 38.827 0 0 0-.252-.784 4.88 4.88 0 0 0-.308-.7c.672.037 1.316.056 1.932.056a22.97 22.97 0 0 0 1.624 0h.98c.299 0 .495-.047.588-.14.093-.112.14-.289.14-.532v-18.116Zm-11.032-4.9 2.604.42a54.216 54.216 0 0 1-1.372 3.08 42.818 42.818 0 0 1-1.4 2.688l-1.988-.504c.261-.523.523-1.12.784-1.792.28-.672.541-1.344.784-2.016.261-.691.457-1.316.588-1.876Zm-3.752 10.668h1.932v11.284h-1.932v-11.284Zm.896 0h10.08v9.268h-10.08v-1.904h8.12v-5.488h-8.12v-1.876Zm23.408-10.612h2.1v25.732h-2.1V578.48Zm-2.576 5.32 1.596.224a36.893 36.893 0 0 1-.28 2.52 25.312 25.312 0 0 1-.476 2.688 19.19 19.19 0 0 1-.644 2.352l-1.652-.56c.261-.635.485-1.363.672-2.184.187-.84.345-1.699.476-2.576a27.8 27.8 0 0 0 .308-2.464Zm4.872-.168 1.484-.644c.429.747.831 1.568 1.204 2.464.392.877.663 1.615.812 2.212l-1.568.812a10.402 10.402 0 0 0-.448-1.456 30.646 30.646 0 0 0-.7-1.736 15.208 15.208 0 0 0-.784-1.652Zm5.74-3.864 2.044.336a40.442 40.442 0 0 1-.924 4.004 35.298 35.298 0 0 1-1.204 3.668 18.936 18.936 0 0 1-1.428 3.024 5.583 5.583 0 0 0-.56-.336 8.103 8.103 0 0 0-.7-.364 57.134 57.134 0 0 0-.616-.28 16.013 16.013 0 0 0 1.456-2.828c.429-1.083.803-2.24 1.12-3.472a38.39 38.39 0 0 0 .812-3.752Zm0 4.648H294.9v2.016h-13.692l.644-2.016Zm4.536-5.824h2.128v23.772h-2.128v-23.772Zm-5.936 13.664h13.832v1.96h-13.832v-1.96Zm-2.1 8.988h17.22v1.988h-17.22v-1.988Zm31.528-21.392c-.112.56-.261 1.223-.448 1.988-.168.747-.448 1.596-.84 2.548-.336.84-.756 1.708-1.26 2.604a18.183 18.183 0 0 1-1.568 2.436 5.497 5.497 0 0 1 1.204-.56 7.105 7.105 0 0 1 1.372-.364 8.684 8.684 0 0 1 1.316-.112c1.083 0 1.997.308 2.744.924.747.597 1.12 1.475 1.12 2.632v3.108l.056 1.764c.019.579.028 1.083.028 1.512h-2.156c.019-.373.037-.812.056-1.316.019-.504.028-1.036.028-1.596.019-.56.019-1.092 0-1.596v-1.288c0-.821-.252-1.419-.756-1.792-.485-.392-1.101-.588-1.848-.588-.877 0-1.745.196-2.604.588a7.852 7.852 0 0 0-2.212 1.456c-.411.392-.821.84-1.232 1.344a60.57 60.57 0 0 1-1.316 1.568l-1.904-1.4c1.344-1.307 2.464-2.529 3.36-3.668.896-1.139 1.624-2.193 2.184-3.164.56-.989.999-1.876 1.316-2.66.299-.784.541-1.568.728-2.352.187-.803.299-1.54.336-2.212l2.296.196Zm-9.576 3.024c.747.093 1.559.168 2.436.224a36.64 36.64 0 0 0 2.296.084c1.251 0 2.595-.028 4.032-.084a115.76 115.76 0 0 0 4.34-.308 45.737 45.737 0 0 0 4.2-.56l-.028 2.072c-.971.168-2.007.308-3.108.42-1.101.093-2.221.177-3.36.252-1.139.056-2.24.103-3.304.14-1.045.019-2.016.028-2.912.028h-1.372c-.504-.019-1.036-.037-1.596-.056-.56-.037-1.101-.075-1.624-.112v-2.1Zm21.392 6.776c-.243.056-.513.14-.812.252-.28.093-.569.196-.868.308-.28.112-.551.224-.812.336-.971.373-2.1.831-3.388 1.372a49.872 49.872 0 0 0-3.948 1.876c-.933.467-1.755.961-2.464 1.484-.709.504-1.269 1.036-1.68 1.596a2.895 2.895 0 0 0-.616 1.792c0 .541.121.98.364 1.316.261.336.625.597 1.092.784.467.168.999.28 1.596.336.616.056 1.288.084 2.016.084 1.083 0 2.315-.056 3.696-.168 1.4-.131 2.716-.299 3.948-.504l-.056 2.24a52.13 52.13 0 0 1-2.408.252c-.877.075-1.773.131-2.688.168-.896.056-1.755.084-2.576.084-1.325 0-2.539-.121-3.64-.364-1.083-.243-1.951-.672-2.604-1.288s-.98-1.493-.98-2.632c0-.84.196-1.605.588-2.296a7.303 7.303 0 0 1 1.568-1.932 16.248 16.248 0 0 1 2.212-1.596 26.73 26.73 0 0 1 2.464-1.372 39.919 39.919 0 0 1 2.52-1.26c.803-.355 1.559-.681 2.268-.98a41.449 41.449 0 0 0 1.988-.896l1.176-.532c.373-.168.747-.355 1.12-.56l.924 2.1Zm6.72-9.464h8.008v16.716h-8.008v-1.96h6.048V582.12h-6.048v-1.932Zm0 7.28h6.916v1.904h-6.916v-1.904Zm11.844-7.784h9.436v1.96h-9.436v-1.96Zm0 6.804h9.436v1.904h-9.436v-1.904Zm-.196 6.86h9.576v1.904h-9.576v-1.904Zm-12.824-13.16h1.988v19.348h-1.988v-19.348Zm21.672-.504h2.072v21.784c0 .653-.093 1.157-.28 1.512-.168.373-.476.644-.924.812-.467.168-1.092.271-1.876.308-.784.056-1.783.084-2.996.084a2.953 2.953 0 0 0-.168-.672 7.616 7.616 0 0 0-.28-.756 4.112 4.112 0 0 0-.308-.644c.616.019 1.195.028 1.736.028.56.019 1.045.019 1.456 0h.868c.261 0 .439-.047.532-.14.112-.112.168-.289.168-.532v-21.784Zm-9.884 0h2.044v9.996c0 1.176-.065 2.427-.196 3.752a21.432 21.432 0 0 1-.784 3.948 14.557 14.557 0 0 1-1.708 3.78c-.765 1.213-1.783 2.305-3.052 3.276a2.974 2.974 0 0 0-.42-.504 17.704 17.704 0 0 0-.588-.56 5.31 5.31 0 0 0-.532-.392c1.195-.896 2.137-1.885 2.828-2.968a14.049 14.049 0 0 0 1.568-3.416c.355-1.176.579-2.352.672-3.528.112-1.176.168-2.315.168-3.416v-9.968Zm28.588 12.348h10.948v1.624h-10.948v-1.624Zm0 4.592h10.948v1.652h-10.948v-1.652Zm.028 4.592h12.236v1.792h-12.236v-1.792Zm-3.22-19.88h15.316v4.816h-1.904v-2.996h-11.564v2.996h-1.848v-4.816Zm7.728 7.336h1.96v13.496h-1.96v-13.496Zm-3.808-1.316h10.696v1.82h-10.696v15.064h-1.988v-15.008l1.82-1.876h.168Zm2.66-8.904 1.988.392c-.784 2.837-1.867 5.395-3.248 7.672-1.363 2.277-2.996 4.163-4.9 5.656a3.963 3.963 0 0 0-.42-.476 5.612 5.612 0 0 0-.56-.588 4.888 4.888 0 0 0-.504-.448c1.848-1.363 3.407-3.089 4.676-5.18 1.288-2.109 2.277-4.452 2.968-7.028Zm2.912 5.572 1.96.476c-.336.728-.681 1.465-1.036 2.212a19.053 19.053 0 0 1-.98 1.876l-1.596-.448c.299-.56.607-1.232.924-2.016.317-.803.56-1.503.728-2.1Zm-19.432-3.668h9.884v1.96h-9.884v-1.96Zm2.828 8.176h6.3v12.264h-6.3v-1.848h4.48v-8.54h-4.48v-1.876Zm.448-7.252 2.016.308a60.623 60.623 0 0 1-1.092 5.712 35.768 35.768 0 0 1-1.596 5.124c-.616 1.587-1.353 2.996-2.212 4.228a8.534 8.534 0 0 0-.336-.588 28.048 28.048 0 0 0-.448-.756 3.81 3.81 0 0 0-.42-.616c.747-1.064 1.381-2.296 1.904-3.696a31.632 31.632 0 0 0 1.344-4.592c.355-1.661.635-3.369.84-5.124Zm-1.316 7.252h1.764v14.476h-1.764v-14.476Zm38.164-9.38h2.128v20.804c0 .523.047.924.14 1.204a.928.928 0 0 0 .532.56c.28.093.681.14 1.204.14h5.488c.523 0 .905-.14 1.148-.42.261-.299.448-.821.56-1.568.131-.747.224-1.792.28-3.136.261.187.579.373.952.56.392.168.737.28 1.036.336-.093 1.531-.261 2.753-.504 3.668-.224.896-.597 1.54-1.12 1.932-.504.392-1.251.588-2.24.588h-5.768c-.971 0-1.736-.112-2.296-.336-.56-.224-.961-.625-1.204-1.204-.224-.56-.336-1.353-.336-2.38v-20.748Zm10.528 4.648 1.512 1.792a32.266 32.266 0 0 1-3.164 2.324 68.498 68.498 0 0 1-3.696 2.184c-1.269.709-2.52 1.381-3.752 2.016a3.532 3.532 0 0 0-.392-.812 15.526 15.526 0 0 0-.476-.84 73.987 73.987 0 0 0 3.64-2.072 56.824 56.824 0 0 0 3.5-2.296c1.101-.803 2.044-1.568 2.828-2.296Zm-15.372-4.9 2.044.7a40.272 40.272 0 0 1-2.492 4.788 42.312 42.312 0 0 1-3.08 4.424 28.68 28.68 0 0 1-3.388 3.612 2.78 2.78 0 0 0-.336-.672 17.268 17.268 0 0 0-.476-.784 6.866 6.866 0 0 0-.448-.672 24.823 24.823 0 0 0 3.136-3.136 31.747 31.747 0 0 0 2.828-3.92 32.736 32.736 0 0 0 2.212-4.34Zm-3.22 7.336 2.072-2.072.028.056v19.964h-2.1v-17.948Z"/>
    <path fill="#3B82F6" d="M1360 530c99.41 0 180-80.589 180-180s-80.59-180-180-180-180 80.589-180 180 80.59 180 180 180Z"/>
    <path fill="#000" d="M1388.68 318h-57.36v-12.6l19.92-21.72c4.08-4.48 7.28-8.2 9.6-11.16 2.4-3.04 4.08-5.76 5.04-8.16 1.04-2.48 1.56-5.12 1.56-7.92 0-3.44-.84-6-2.52-7.68-1.6-1.68-3.68-2.52-6.24-2.52-2.8 0-5.6.76-8.4 2.28-2.72 1.52-5.72 3.68-9 6.48l-10.56-11.64c2.4-2.16 4.92-4.16 7.56-6 2.64-1.84 5.76-3.32 9.36-4.44 3.6-1.2 7.92-1.8 12.96-1.8 5.36 0 10 1.04 13.92 3.12 3.92 2 6.92 4.76 9 8.28 2.16 3.44 3.24 7.36 3.24 11.76 0 3.6-.52 6.88-1.56 9.84s-2.56 5.88-4.56 8.76c-1.92 2.88-4.24 5.88-6.96 9-2.72 3.04-5.76 6.48-9.12 10.32l-8.64 9.72-.12.84h32.88V318Z"/>
    <path fill="#fff" d="m1339.03 383-1.64-6.8h-9.24l-1.68 6.8h-7.04l9.12-28.68h8.32l9.16 28.68h-7Zm-4.92-18.52c-.16-.56-.32-1.147-.48-1.76a99.65 99.65 0 0 1-.48-1.92c-.14-.667-.27-1.347-.4-2.04-.11.693-.24 1.387-.4 2.08a99.65 99.65 0 0 1-.48 1.92c-.14.613-.28 1.187-.44 1.72l-1.84 6.64h6.4l-1.88-6.64Zm26.24 18.52h-13.08v-3.44l3.32-1.6v-18.48l-3.32-1.6v-3.44h13.08v3.44l-3.28 1.6v18.48l3.28 1.6V383Zm24.86-27.4c-.26 2.027-.61 4.187-1.04 6.48a61.61 61.61 0 0 1-1.72 6.96c-.77 2.693-1.68 5.013-2.72 6.96-1.04 1.947-2.18 3.453-3.44 4.52-1.22 1.04-2.57 1.56-4.04 1.56-1.46 0-2.82-.493-4.08-1.48-1.22-1.013-2.21-2.4-2.96-4.16-.72-1.76-1.08-3.76-1.08-6 0-2.32.47-4.507 1.4-6.56a17.531 17.531 0 0 1 3.88-5.44c1.68-1.6 3.63-2.853 5.84-3.76 2.24-.907 4.66-1.36 7.24-1.36 2.48 0 4.71.4 6.68 1.2 2 .8 3.71 1.907 5.12 3.32a14.221 14.221 0 0 1 3.24 4.96c.75 1.893 1.12 3.933 1.12 6.12 0 2.8-.57 5.307-1.72 7.52-1.14 2.213-2.85 4.04-5.12 5.48-2.24 1.44-5.04 2.427-8.4 2.96l-3-4.76c.78-.08 1.46-.173 2.04-.28.59-.107 1.15-.227 1.68-.36 1.28-.32 2.47-.773 3.56-1.36 1.12-.613 2.1-1.36 2.92-2.24a9.645 9.645 0 0 0 1.92-3.16c.48-1.2.72-2.52.72-3.96 0-1.573-.24-3.013-.72-4.32-.48-1.307-1.18-2.44-2.12-3.4-.93-.987-2.06-1.733-3.4-2.24-1.33-.533-2.86-.8-4.6-.8-2.13 0-4.01.387-5.64 1.16-1.62.747-3 1.72-4.12 2.92s-1.97 2.493-2.56 3.88c-.56 1.387-.84 2.707-.84 3.96 0 1.333.16 2.453.48 3.36.32.88.71 1.547 1.16 2 .48.427.99.64 1.52.64.56 0 1.11-.28 1.64-.84.56-.587 1.11-1.467 1.64-2.64.54-1.173 1.07-2.653 1.6-4.44a51.9 51.9 0 0 0 1.56-6.16c.43-2.187.74-4.32.92-6.4l5.44.16Zm-51.65 35.48h24.04v35.12h-4.56v-30.96h-15.08v31.32h-4.4v-35.48Zm5.44 9.04h13.16v3.48H1339v-3.48Zm-3.16 19.92h19.4v4.16h-19.4v-4.16Zm7.72-24h3.72v12.88h-3.72v-12.88Zm-.08 14.36v4.2h4.04v-4.2h-4.04Zm-3.48-3.32h11.16v10.8H1340v-10.8Zm-11.36-17.96 4.36 1.36a63.134 63.134 0 0 1-2.76 6.96 62.583 62.583 0 0 1-3.52 6.6c-1.28 2.053-2.63 3.88-4.04 5.48-.11-.4-.29-.933-.56-1.6a34.781 34.781 0 0 0-1.72-3.64c1.12-1.227 2.19-2.653 3.2-4.28a43.57 43.57 0 0 0 2.84-5.2c.85-1.867 1.59-3.76 2.2-5.68Zm-3.28 11 4.52-4.52.04.04v31h-4.56v-26.52Zm40.6-11.12h4.8v37.56h-4.8V389Zm-3.36 7.72 3.4.48a51.77 51.77 0 0 1-.32 3.76c-.16 1.36-.37 2.693-.64 4-.24 1.307-.52 2.48-.84 3.52l-3.56-1.28c.32-.88.6-1.933.84-3.16.27-1.227.49-2.48.68-3.76.21-1.28.36-2.467.44-3.56Zm7.24.28 3.24-1.36a33.646 33.646 0 0 1 1.6 3.36c.51 1.227.87 2.267 1.08 3.12l-3.48 1.6c-.11-.587-.29-1.253-.56-2-.27-.773-.56-1.573-.88-2.4-.32-.827-.65-1.6-1-2.32Zm7.56-6.16 4.68.72a65.589 65.589 0 0 1-1.08 5.88c-.43 1.92-.93 3.72-1.52 5.4-.56 1.653-1.19 3.107-1.88 4.36-.29-.213-.71-.467-1.24-.76a18.27 18.27 0 0 0-1.64-.8c-.53-.267-1-.48-1.4-.64.72-1.12 1.35-2.44 1.88-3.96.53-1.52.97-3.147 1.32-4.88.37-1.76.67-3.533.88-5.32Zm1.44 6.28h18.48v4.52h-19.88l1.4-4.52Zm5.48-7.88h4.8v34.12h-4.8v-34.12Zm-7.8 19h19.92v4.48h-19.92v-4.48Zm-3 12.48h25.04v4.6h-25.04v-4.6ZM1850 619h-380c-5.52 0-10 4.477-10 10v100c0 5.523 4.48 10 10 10h380c5.52 0 10-4.477 10-10V629c0-5.523-4.48-10-10-10ZM1289.43 40.336h16.06v3.392h-16.06v-3.392Zm3.36-25.856 3.65 1.248a30.228 30.228 0 0 1-3.14 4.352 31.524 31.524 0 0 1-3.81 3.808 35.727 35.727 0 0 1-4.09 3.008c-.2-.256-.47-.565-.84-.928-.34-.363-.69-.725-1.05-1.088-.36-.363-.68-.64-.96-.832a28.819 28.819 0 0 0 3.97-2.56 27.377 27.377 0 0 0 3.52-3.296c1.08-1.195 2-2.432 2.75-3.712Zm11.65 3.392h.8l.64-.192 2.75 1.792a23.509 23.509 0 0 1-4.51 5.248 33.193 33.193 0 0 1-6.02 4.128 48.405 48.405 0 0 1-6.98 3.072 65.773 65.773 0 0 1-7.32 2.048c-.13-.341-.3-.725-.52-1.152-.21-.427-.43-.843-.67-1.248a7.085 7.085 0 0 0-.7-1.024c1.81-.32 3.63-.747 5.44-1.28 1.83-.555 3.6-1.195 5.31-1.92a37.47 37.47 0 0 0 4.83-2.432c1.52-.917 2.86-1.91 4.03-2.976 1.2-1.088 2.17-2.24 2.92-3.456v-.608Zm-13.32 1.824c1.03 1.301 2.29 2.517 3.78 3.648 1.52 1.11 3.2 2.112 5.06 3.008a42.91 42.91 0 0 0 5.98 2.336c2.13.64 4.35 1.141 6.66 1.504-.28.277-.58.64-.9 1.088-.32.427-.62.864-.9 1.312-.27.448-.51.843-.7 1.184a46.142 46.142 0 0 1-6.72-1.824 42.3 42.3 0 0 1-6.05-2.72 33.887 33.887 0 0 1-5.18-3.616 29.572 29.572 0 0 1-4.23-4.416l3.2-1.504Zm-3.68 13.152h19.65v11.936H1303v-8.448h-11.65v8.576h-3.91V32.848Zm5.22-14.976h12.64V21.2h-14.94l2.3-3.328ZM1328.82 42l-1.31-5.44h-7.39l-1.35 5.44h-5.63l7.3-22.944h6.65L1334.42 42h-5.6Zm-3.94-14.816c-.12-.448-.25-.917-.38-1.408-.13-.49-.26-1.003-.38-1.536-.11-.533-.22-1.077-.32-1.632-.09.555-.2 1.11-.32 1.664-.13.533-.26 1.045-.39 1.536-.1.49-.22.95-.35 1.376l-1.47 5.312h5.12l-1.51-5.312Zm21 14.816h-10.47v-2.752l2.66-1.28V23.184l-2.66-1.28v-2.752h10.47v2.752l-2.63 1.28v14.784l2.63 1.28V42Zm19.89-21.92a96.94 96.94 0 0 1-.83 5.184c-.34 1.835-.8 3.69-1.38 5.568-.62 2.155-1.34 4.01-2.17 5.568-.83 1.557-1.75 2.763-2.75 3.616-.99.832-2.06 1.248-3.24 1.248-1.17 0-2.26-.395-3.26-1.184-.98-.81-1.77-1.92-2.37-3.328-.57-1.408-.86-3.008-.86-4.8 0-1.856.37-3.605 1.12-5.248a13.82 13.82 0 0 1 3.1-4.352 14.95 14.95 0 0 1 4.67-3.008c1.8-.725 3.73-1.088 5.8-1.088 1.98 0 3.76.32 5.34.96 1.6.64 2.96 1.525 4.1 2.656a11.571 11.571 0 0 1 2.59 3.968c.59 1.515.89 3.147.89 4.896 0 2.24-.46 4.245-1.37 6.016-.92 1.77-2.29 3.232-4.1 4.384-1.79 1.152-4.03 1.941-6.72 2.368l-2.4-3.808a21.8 21.8 0 0 0 1.63-.224c.47-.085.92-.181 1.35-.288 1.02-.256 1.97-.619 2.85-1.088a9.368 9.368 0 0 0 2.33-1.792 7.967 7.967 0 0 0 1.54-2.528c.38-.96.57-2.016.57-3.168 0-1.259-.19-2.41-.57-3.456-.39-1.045-.95-1.952-1.7-2.72a7.212 7.212 0 0 0-2.72-1.792c-1.07-.427-2.29-.64-3.68-.64-1.71 0-3.21.31-4.51.928-1.3.597-2.4 1.376-3.3 2.336-.89.96-1.58 1.995-2.04 3.104-.45 1.11-.68 2.165-.68 3.168 0 1.067.13 1.963.39 2.688.25.704.56 1.237.93 1.6.38.341.78.512 1.21.512.45 0 .89-.224 1.31-.672.45-.47.89-1.173 1.32-2.112.42-.939.85-2.123 1.28-3.552.49-1.536.9-3.179 1.24-4.928.34-1.75.59-3.456.74-5.12l4.35.128Zm27.23-2.432h15.43v3.488H1393v-3.488Zm-1.88 6.208h18.72v3.584h-18.72v-3.584Zm.67 6.464h17.76v3.52h-17.76v-3.52Zm6.94-15.552h3.81V25.84h-3.81V14.768Zm3.78 12.256h3.81v13.568c0 .96-.12 1.717-.36 2.272-.21.555-.64.992-1.28 1.312-.66.277-1.45.448-2.36.512-.92.085-1.98.128-3.17.128-.09-.555-.24-1.195-.45-1.92-.21-.725-.46-1.355-.74-1.888l2.34.064h1.54c.25-.021.42-.064.51-.128.1-.064.16-.203.16-.416V27.024Zm-9.6 8.544 2.85-1.76c.49.47.98.992 1.47 1.568.49.576.95 1.152 1.37 1.728a8.96 8.96 0 0 1 1.03 1.536l-3.04 1.984c-.22-.47-.53-.992-.93-1.568-.41-.597-.85-1.195-1.34-1.792-.47-.619-.94-1.184-1.41-1.696Zm-13.19-3.712c1.05-.235 2.23-.523 3.56-.864 1.34-.341 2.75-.715 4.22-1.12 1.49-.427 2.98-.853 4.45-1.28l.48 3.392c-2.01.619-4.06 1.248-6.15 1.888-2.07.619-3.94 1.173-5.63 1.664l-.93-3.68Zm5.73-17.024h3.52V44.88h-3.52V14.832Zm-4.22 1.632 3.23.544a107.94 107.94 0 0 1-.54 4.256 51.788 51.788 0 0 1-.77 4c-.3 1.259-.64 2.368-1.03 3.328-.19-.17-.46-.363-.8-.576l-1.02-.64a7.335 7.335 0 0 0-.9-.544c.34-.853.63-1.845.87-2.976a36.7 36.7 0 0 0 .61-3.584c.17-1.28.28-2.55.35-3.808Zm.89 4.384h9.54v3.648h-10.27l.73-3.648Zm33.51-6.048h3.84v30.048h-3.84V14.8Zm-2.69 6.176 2.72.384c-.04.917-.13 1.92-.26 3.008a36.61 36.61 0 0 1-.51 3.2 23.74 23.74 0 0 1-.67 2.816l-2.85-1.024c.26-.704.48-1.547.67-2.528.22-.981.4-1.984.55-3.008.17-1.024.29-1.973.35-2.848Zm5.79.224 2.59-1.088c.45.81.88 1.707 1.28 2.688.41.981.7 1.813.87 2.496l-2.79 1.28a9.98 9.98 0 0 0-.44-1.6c-.22-.619-.45-1.259-.71-1.92-.25-.661-.52-1.28-.8-1.856Zm6.05-4.928 3.74.576c-.21 1.579-.5 3.147-.86 4.704a37.897 37.897 0 0 1-1.22 4.32 21.116 21.116 0 0 1-1.5 3.488c-.24-.17-.57-.373-.99-.608a16.58 16.58 0 0 0-1.31-.64c-.43-.213-.8-.384-1.12-.512.57-.896 1.07-1.952 1.5-3.168.43-1.216.78-2.517 1.06-3.904.29-1.408.53-2.827.7-4.256Zm1.15 5.024h14.79v3.616h-15.91l1.12-3.616Zm4.39-6.304h3.84v27.296h-3.84V14.992Zm-6.24 15.2h15.93v3.584h-15.93v-3.584Zm-2.4 9.984h20.03v3.68h-20.03v-3.68Zm36.73-23.84c-.11.576-.28 1.323-.51 2.24-.24.917-.58 1.952-1.02 3.104-.35.79-.74 1.61-1.19 2.464-.43.832-.86 1.579-1.31 2.24a4.83 4.83 0 0 1 1.06-.32c.42-.107.86-.181 1.31-.224.47-.064.88-.096 1.25-.096 1.34 0 2.45.384 3.32 1.152.9.768 1.35 1.91 1.35 3.424v1.568l.06 1.952c.02.661.04 1.312.07 1.952.02.64.03 1.216.03 1.728h-3.84c.04-.363.06-.79.06-1.28.02-.512.03-1.045.03-1.6.02-.555.04-1.088.04-1.6.02-.533.03-1.013.03-1.44 0-1.024-.28-1.728-.83-2.112a2.928 2.928 0 0 0-1.8-.608c-.89 0-1.8.224-2.72.672-.89.427-1.65.939-2.27 1.536-.47.47-.95.992-1.44 1.568-.47.576-.98 1.227-1.53 1.952l-3.43-2.56a41.514 41.514 0 0 0 3.59-3.712 27.093 27.093 0 0 0 2.59-3.552c.7-1.173 1.28-2.347 1.73-3.52.32-.853.57-1.739.76-2.656.22-.939.34-1.813.39-2.624l4.22.352Zm-12.03 2.944c.81.128 1.75.224 2.82.288 1.06.064 2 .096 2.81.096 1.41 0 2.95-.032 4.61-.096 1.68-.064 3.39-.17 5.12-.32 1.73-.17 3.37-.384 4.93-.64l-.03 3.712c-1.14.15-2.36.288-3.68.416-1.31.107-2.64.203-4 .288-1.35.064-2.64.117-3.88.16-1.23.021-2.33.032-3.29.032h-1.6l-1.92-.064c-.66-.043-1.29-.085-1.89-.128V19.28Zm25.34 9.088c-.34.107-.74.245-1.21.416-.45.15-.91.31-1.38.48-.45.15-.85.299-1.21.448-1.03.405-2.24.896-3.65 1.472a61.89 61.89 0 0 0-4.35 2.016c-.96.512-1.78 1.013-2.44 1.504-.66.49-1.16.992-1.5 1.504a2.8 2.8 0 0 0-.51 1.632c0 .448.09.821.29 1.12.19.277.48.501.86.672.38.17.86.288 1.44.352s1.26.096 2.05.096c1.36 0 2.87-.075 4.51-.224 1.64-.17 3.17-.395 4.58-.672l-.13 4.128c-.69.085-1.55.17-2.59.256-1.05.107-2.14.181-3.27.224-1.11.043-2.17.064-3.2.064-1.66 0-3.16-.16-4.48-.48-1.32-.32-2.37-.864-3.13-1.632-.75-.79-1.12-1.867-1.12-3.232 0-1.11.24-2.112.73-3.008.51-.896 1.19-1.707 2.02-2.432.83-.725 1.74-1.376 2.72-1.952 1-.597 1.98-1.141 2.94-1.632.98-.512 1.87-.95 2.66-1.312.79-.363 1.52-.683 2.21-.96.7-.299 1.37-.597 2.01-.896.62-.277 1.22-.544 1.79-.8.58-.277 1.17-.565 1.76-.864l1.6 3.712Zm19.59-3.232v2.72h9.66v-2.72h-9.66Zm0-5.728v2.688h9.66v-2.688h-9.66Zm-3.49-3.232h16.83V31.12h-16.83V16.176Zm-.19 17.696h17.34v3.456h-17.34v-3.456Zm-2.24 6.496h20.67v3.488h-20.67v-3.488Zm-9.38-23.712h10.63v3.552h-10.63v-3.552Zm.29 9.216h9.79v3.52h-9.79v-3.52Zm-.67 12.16c.94-.256 1.98-.544 3.13-.864 1.18-.341 2.41-.715 3.72-1.12 1.3-.427 2.58-.843 3.84-1.248l.67 3.648c-1.79.597-3.61 1.205-5.44 1.824-1.84.619-3.52 1.173-5.06 1.664l-.86-3.904Zm3.9-19.968h3.68v19.648l-3.68.608V18.064Zm15.07-.512h3.24v12.032h.35V42h-3.94V29.584h.35V17.552Zm16.8 5.504h8.9v2.816h-8.9v-2.816Zm0 5.216h8.9v2.72h-8.9v-2.72Zm0 5.376h8.9v2.816h-8.9v-2.816ZM1525.29 30h12.03v3.232h-12.03V30ZM1513 17.776h5.06v2.912H1513v-2.912Zm9.86-1.344h11.9V19.6h-11.9v-3.168Zm.03 19.712h15.07v3.296h-15.07v-3.296Zm5.95-9.024h3.65v17.632h-3.65V27.12Zm-13.95-2.592h2.53v10.176h-2.53V24.528Zm18.85-8.096h3.39l-.03.48c0 .299-.01.555-.03.768-.05 1.685-.11 3.083-.19 4.192-.09 1.11-.21 1.984-.36 2.624-.15.64-.34 1.099-.57 1.376-.26.32-.55.555-.87.704-.32.15-.68.267-1.08.352-.37.043-.84.075-1.41.096-.58 0-1.2-.01-1.86-.032a8.295 8.295 0 0 0-.25-1.6 5.336 5.336 0 0 0-.61-1.504c.51.043.97.075 1.37.096.41.021.72.032.93.032.19 0 .35-.01.48-.032a.734.734 0 0 0 .39-.288c.12-.15.23-.459.32-.928.08-.49.16-1.205.22-2.144.06-.939.12-2.176.16-3.712v-.48Zm-9.12 10.912 3.14.64c-.28 1.45-.68 2.87-1.19 4.256-.49 1.387-1.04 2.55-1.66 3.488-.22-.15-.49-.32-.83-.512a20.126 20.126 0 0 0-1.99-.96c.62-.853 1.14-1.899 1.57-3.136.43-1.237.75-2.496.96-3.776Zm-12.38-12.576 3.42.768c-.41 1.45-.89 2.88-1.44 4.288a31.679 31.679 0 0 1-1.86 3.936c-.66 1.216-1.37 2.283-2.14 3.2-.19-.192-.46-.427-.8-.704-.34-.299-.68-.587-1.02-.864a5.866 5.866 0 0 0-.93-.672c1.09-1.195 2.05-2.667 2.88-4.416.83-1.77 1.46-3.616 1.89-5.536Zm-2.24 8.288h3.07v8.48c0 1.024-.05 2.123-.13 3.296a34.72 34.72 0 0 1-.38 3.584 22.531 22.531 0 0 1-.8 3.488 13.47 13.47 0 0 1-1.44 3.04 4.765 4.765 0 0 0-.77-.64c-.32-.213-.66-.427-1.03-.64a9.196 9.196 0 0 0-.89-.448 12.23 12.23 0 0 0 1.6-3.68c.34-1.365.55-2.741.64-4.128.08-1.408.13-2.71.13-3.904v-8.448Zm9.24 0h3.17v18.112c0 .768-.08 1.397-.25 1.888-.18.49-.51.875-1 1.152-.49.277-1.07.448-1.76.512-.68.085-1.52.128-2.52.128-.05-.47-.19-1.024-.42-1.664a9.9 9.9 0 0 0-.67-1.6c.64.021 1.23.043 1.79.064h1.15c.19 0 .32-.032.39-.096.08-.085.12-.235.12-.448V23.056Zm7.49-5.568h3.43a22.373 22.373 0 0 1-.77 4.32 9.296 9.296 0 0 1-1.83 3.488c-.85 1.024-2.07 1.888-3.64 2.592-.2-.405-.5-.875-.9-1.408-.38-.533-.76-.939-1.12-1.216 1.28-.533 2.24-1.184 2.88-1.952a6.548 6.548 0 0 0 1.38-2.624c.27-.981.46-2.048.57-3.2Zm-9.6.288h.74l.48-.128 2.21 1.344a36.068 36.068 0 0 1-1.38 3.264 40.236 40.236 0 0 1-1.57 2.912c-.32-.235-.71-.49-1.18-.768-.45-.277-.85-.501-1.19-.672.26-.512.5-1.077.74-1.696.26-.64.48-1.28.67-1.92.21-.661.37-1.237.48-1.728v-.608Z"/>
    <path fill="#666" d="M1498.89 589.54v9.912h-2.05V591.5h-3.55v-1.96h5.6Zm0 9.044c.65 1.027 1.58 1.792 2.8 2.296 1.21.504 2.64.793 4.28.868.79.019 1.74.037 2.86.056h3.53c1.23-.019 2.42-.047 3.58-.084 1.16-.037 2.16-.084 3-.14-.08.149-.16.345-.26.588-.09.243-.17.495-.25.756-.07.261-.13.504-.17.728-.78.019-1.71.037-2.8.056-1.06.037-2.17.056-3.33.056-1.16.019-2.28.019-3.36 0s-2-.037-2.77-.056c-1.85-.075-3.43-.373-4.73-.896a7.859 7.859 0 0 1-3.28-2.436c-.61.597-1.25 1.195-1.9 1.792-.64.616-1.3 1.232-1.99 1.848l-1.09-2.072c.61-.448 1.28-.961 1.99-1.54a33.63 33.63 0 0 0 2.04-1.82h1.85Zm-5.32-18.228 1.59-1.176c.58.429 1.16.915 1.74 1.456.6.541 1.14 1.083 1.62 1.624.51.541.9 1.045 1.18 1.512l-1.71 1.316c-.26-.467-.63-.98-1.12-1.54a19.51 19.51 0 0 0-1.59-1.68c-.56-.56-1.13-1.064-1.71-1.512Zm6.89.476h18.06v1.708h-18.06v-1.708Zm3.94 8.176h10v1.428h-10v-1.428Zm3.87-10.528h2.04v3.388h-2.04v-3.388Zm.31 8.484h1.59v5.908h-1.59v-5.908Zm-7.09-1.568h14.84v1.708h-12.91v12.992h-1.93v-14.7Zm4.17 7.056h1.54v6.16h-1.54v-6.16Zm.82 0h6.72v5.096h-6.72v-1.344h5.15v-2.408h-5.15v-1.344Zm9.07-7.056h1.96v12.432c0 .523-.07.933-.2 1.232-.11.28-.34.504-.7.672-.39.131-.88.215-1.45.252-.58.037-1.29.056-2.13.056-.04-.261-.12-.56-.25-.896a6.995 6.995 0 0 0-.4-.896c.64.019 1.21.028 1.71.028h1.04c.17-.019.28-.056.33-.112.06-.056.09-.168.09-.336v-12.432Zm-2.63-3.192 1.96.504c-.28.579-.58 1.148-.9 1.708-.3.541-.58 1.008-.84 1.4l-1.65-.448c.24-.467.49-.999.75-1.596.28-.597.51-1.12.68-1.568Zm-8.94.588 1.74-.448c.3.429.57.924.81 1.484.26.56.44 1.045.53 1.456l-1.84.504c-.08-.411-.24-.896-.48-1.456-.22-.56-.48-1.073-.76-1.54Zm29.38 1.708h13.49v2.016h-13.49V584.5Zm8.4-5.992h2.18v22.848c0 .747-.1 1.297-.31 1.652-.18.355-.52.616-1.01.784-.44.187-1.09.299-1.93.336-.84.056-1.86.084-3.05.084a8.337 8.337 0 0 0-.31-1.092c-.15-.411-.3-.765-.45-1.064.92.019 1.78.028 2.58.028s1.33-.009 1.6-.028c.26 0 .43-.047.53-.14.11-.093.17-.271.17-.532v-22.876Zm-.23 6.916 1.68 1.036a32.851 32.851 0 0 1-1.9 3.752 37.52 37.52 0 0 1-2.44 3.668 34.65 34.65 0 0 1-2.77 3.276 24.627 24.627 0 0 1-2.88 2.632c-.17-.28-.4-.588-.68-.924a5.583 5.583 0 0 0-.81-.812c.95-.635 1.91-1.428 2.86-2.38s1.86-1.997 2.71-3.136a34.734 34.734 0 0 0 2.38-3.5 27.96 27.96 0 0 0 1.85-3.612Zm-19.85-.952h10.64v2.044h-10.64v-2.044Zm4.68-5.992h2.1v25.732h-2.1V578.48Zm-.09 7.252 1.46.504a36.062 36.062 0 0 1-1.07 3.556 38.272 38.272 0 0 1-1.4 3.528c-.5 1.157-1.04 2.24-1.62 3.248-.56.989-1.14 1.839-1.74 2.548a5.845 5.845 0 0 0-.56-1.036c-.22-.392-.43-.719-.61-.98.56-.635 1.12-1.381 1.68-2.24.56-.877 1.08-1.829 1.57-2.856.48-1.027.92-2.072 1.31-3.136s.72-2.109.98-3.136Zm2.02 1.344c.17.168.42.439.75.812.34.355.7.756 1.1 1.204.39.448.77.905 1.14 1.372.4.448.75.859 1.07 1.232.32.355.55.625.7.812l-1.35 1.792c-.22-.373-.54-.84-.95-1.4-.39-.579-.82-1.176-1.29-1.792-.44-.616-.88-1.185-1.31-1.708-.41-.541-.74-.961-.98-1.26l1.12-1.064Zm26.6 2.464v9.912h-2.05V591.5h-3.55v-1.96h5.6Zm0 9.044c.65 1.027 1.58 1.792 2.8 2.296 1.21.504 2.64.793 4.28.868.79.019 1.74.037 2.86.056h3.53c1.23-.019 2.42-.047 3.58-.084 1.16-.037 2.16-.084 3-.14-.08.149-.16.345-.26.588-.09.243-.17.495-.25.756-.07.261-.13.504-.17.728-.78.019-1.71.037-2.8.056-1.06.037-2.17.056-3.33.056-1.16.019-2.28.019-3.36 0s-2-.037-2.77-.056c-1.85-.075-3.43-.373-4.73-.896a7.859 7.859 0 0 1-3.28-2.436c-.61.597-1.25 1.195-1.9 1.792-.64.616-1.3 1.232-1.99 1.848l-1.09-2.072c.61-.448 1.28-.961 1.99-1.54a33.63 33.63 0 0 0 2.04-1.82h1.85Zm-5.32-18.228 1.59-1.176c.58.429 1.16.915 1.74 1.456.6.541 1.14 1.083 1.62 1.624.51.541.9 1.045 1.18 1.512l-1.71 1.316c-.26-.467-.63-.98-1.12-1.54a19.51 19.51 0 0 0-1.59-1.68c-.56-.56-1.13-1.064-1.71-1.512Zm6.89.476h18.06v1.708h-18.06v-1.708Zm3.94 8.176h10v1.428h-10v-1.428Zm3.87-10.528h2.04v3.388h-2.04v-3.388Zm.31 8.484h1.59v5.908h-1.59v-5.908Zm-7.09-1.568h14.84v1.708h-12.91v12.992h-1.93v-14.7Zm4.17 7.056h1.54v6.16h-1.54v-6.16Zm.82 0h6.72v5.096h-6.72v-1.344h5.15v-2.408h-5.15v-1.344Zm9.07-7.056h1.96v12.432c0 .523-.07.933-.2 1.232-.11.28-.34.504-.7.672-.39.131-.88.215-1.45.252-.58.037-1.29.056-2.13.056-.04-.261-.12-.56-.25-.896a6.995 6.995 0 0 0-.4-.896c.64.019 1.21.028 1.71.028h1.04c.17-.019.28-.056.33-.112.06-.056.09-.168.09-.336v-12.432Zm-2.63-3.192 1.96.504c-.28.579-.58 1.148-.9 1.708-.3.541-.58 1.008-.84 1.4l-1.65-.448c.24-.467.49-.999.75-1.596.28-.597.51-1.12.68-1.568Zm-8.94.588 1.74-.448c.3.429.57.924.81 1.484.26.56.44 1.045.53 1.456l-1.84.504c-.08-.411-.24-.896-.48-1.456-.22-.56-.48-1.073-.76-1.54Zm17.73-2.772h12.09v1.932h-12.09v-1.932Zm14.08 8.008h11.26v2.016h-11.26v-2.016Zm6.08 1.288h2.07v14.924h-2.07v-14.924Zm-6.89-8.064 2.63.672c-.04.205-.22.336-.56.392v6.412c0 1.139-.05 2.371-.17 3.696a25.96 25.96 0 0 1-.67 4.032 19.333 19.333 0 0 1-1.43 4.06 14.197 14.197 0 0 1-2.54 3.668c-.1-.168-.24-.345-.42-.532a4.427 4.427 0 0 0-.59-.532 2.634 2.634 0 0 0-.56-.364c.99-1.045 1.76-2.156 2.32-3.332.58-1.176 1.01-2.38 1.29-3.612.28-1.251.47-2.473.56-3.668.09-1.213.14-2.361.14-3.444v-7.448Zm-12.24 3.64h2.02v7.56c0 .896-.04 1.857-.11 2.884a26.659 26.659 0 0 1-.37 3.136 21.616 21.616 0 0 1-.72 3.08 10.56 10.56 0 0 1-1.32 2.716c-.09-.131-.24-.28-.45-.448-.2-.149-.42-.308-.64-.476a4.277 4.277 0 0 0-.53-.336 11.014 11.014 0 0 0 1.42-3.388c.3-1.232.49-2.464.56-3.696.1-1.251.14-2.417.14-3.5v-7.532Zm21.87-6.076 1.85 1.568c-.91.448-1.95.877-3.11 1.288-1.16.392-2.35.765-3.58 1.12-1.23.336-2.44.635-3.61.896a5.786 5.786 0 0 0-.31-.84c-.15-.336-.3-.616-.45-.84 1.12-.28 2.25-.588 3.39-.924 1.16-.336 2.24-.7 3.25-1.092 1.02-.392 1.88-.784 2.57-1.176Zm-20.69 6.076h9.16v8.736h-9.16v-1.904h7.11v-4.9h-7.11v-1.932Zm39.87-2.016a72.785 72.785 0 0 1-.73 4.564 40.188 40.188 0 0 1-1.09 4.62c-.56 1.923-1.18 3.528-1.87 4.816-.68 1.288-1.4 2.259-2.19 2.912-.78.653-1.6.98-2.46.98-.82 0-1.62-.299-2.38-.896-.77-.597-1.39-1.456-1.88-2.576-.48-1.139-.73-2.473-.73-4.004 0-1.531.31-2.977.93-4.34.63-1.363 1.5-2.567 2.6-3.612a12.654 12.654 0 0 1 3.92-2.52c1.5-.616 3.09-.924 4.79-.924 1.64 0 3.12.271 4.42.812 1.33.541 2.46 1.288 3.39 2.24a9.71 9.71 0 0 1 2.16 3.276c.5 1.232.75 2.557.75 3.976 0 1.96-.42 3.687-1.26 5.18-.82 1.493-2.01 2.707-3.58 3.64-1.55.933-3.43 1.549-5.66 1.848l-1.31-2.072c.45-.056.88-.112 1.29-.168.41-.056.78-.121 1.12-.196.89-.205 1.76-.523 2.6-.952a9.474 9.474 0 0 0 2.3-1.68 7.759 7.759 0 0 0 1.59-2.436c.41-.952.62-2.035.62-3.248 0-1.139-.19-2.193-.56-3.164a7.68 7.68 0 0 0-1.65-2.604c-.73-.747-1.62-1.335-2.66-1.764-1.05-.429-2.24-.644-3.59-.644-1.53 0-2.92.28-4.17.84-1.23.56-2.29 1.297-3.16 2.212-.86.896-1.53 1.885-1.99 2.968-.47 1.064-.7 2.109-.7 3.136 0 1.176.15 2.147.45 2.912.31.747.69 1.297 1.12 1.652.44.355.88.532 1.31.532.45 0 .91-.215 1.37-.644.47-.448.95-1.157 1.43-2.128.49-.989.96-2.268 1.43-3.836.41-1.344.76-2.772 1.04-4.284.29-1.512.51-2.996.64-4.452l2.35.028Zm23.19 10.472h13.97v10.724h-2.02v-8.792h-9.99v8.932h-1.96v-10.864Zm12.93-14.756 1.68 1.624c-1.29.448-2.76.84-4.42 1.176-1.64.336-3.35.625-5.13.868-1.77.243-3.49.448-5.15.616a6.772 6.772 0 0 0-.28-.896 7.805 7.805 0 0 0-.33-.896c1.19-.131 2.43-.28 3.72-.448 1.29-.168 2.54-.355 3.75-.56 1.22-.224 2.34-.457 3.39-.7 1.06-.243 1.99-.504 2.77-.784Zm-6.86 2.408h1.99v13.468h-1.99V581Zm-8.09 5.684h17.84v2.016h-17.84v-2.016Zm3.36 14.42h11.54v1.904h-11.54v-1.904Zm-9.77-20.776 1.17-1.484c.58.261 1.2.569 1.85.924.67.355 1.32.709 1.93 1.064.62.336 1.12.635 1.52.896l-1.24 1.736c-.39-.299-.89-.625-1.51-.98-.6-.373-1.22-.747-1.87-1.12-.66-.392-1.27-.737-1.85-1.036Zm-1.37 7.7 1.14-1.54c.56.261 1.17.569 1.82.924.66.355 1.28.7 1.88 1.036.62.336 1.12.635 1.51.896l-1.17 1.736a25.77 25.77 0 0 0-1.46-.924c-.6-.355-1.22-.719-1.88-1.092-.65-.392-1.27-.737-1.84-1.036Zm.64 14.42c.5-.709 1.06-1.559 1.68-2.548a80.272 80.272 0 0 0 1.9-3.192c.64-1.139 1.23-2.231 1.77-3.276l1.54 1.372c-.49.989-1.03 2.016-1.63 3.08a97.38 97.38 0 0 1-1.76 3.136 144.23 144.23 0 0 1-1.71 2.856l-1.79-1.428Zm31.67-22.008h18.11v2.016h-18.11v-2.016Zm0 6.524h18.06v1.988h-18.06v-1.988Zm-.17 6.692h18.28v1.988h-18.28v-1.988Zm-1.04-13.216h2.08v10.164c0 1.064-.05 2.203-.14 3.416-.1 1.213-.27 2.445-.54 3.696a15.81 15.81 0 0 1-1.14 3.556 11.848 11.848 0 0 1-2.02 3.108 2.348 2.348 0 0 0-.45-.504c-.2-.168-.41-.336-.61-.504a2.91 2.91 0 0 0-.56-.364c.78-.877 1.4-1.829 1.84-2.856.45-1.027.79-2.081 1.01-3.164.23-1.101.37-2.193.42-3.276.08-1.083.11-2.119.11-3.108V580.44Zm18.48 0h2.08v20.944c0 .672-.11 1.185-.31 1.54-.19.355-.52.625-.98.812-.47.168-1.12.271-1.96.308-.84.037-1.92.047-3.25.028a8.72 8.72 0 0 0-.31-1.008 6.443 6.443 0 0 0-.42-1.008c.66.019 1.28.028 1.88.028.61.019 1.15.019 1.59 0h.93c.28-.019.47-.075.59-.168.11-.093.16-.271.16-.532V580.44Zm-9.68.756h2.12v22.792h-2.12v-22.792Z"/>
    <path fill="#10B981" d="M960 1030c99.41 0 180-80.589 180-180s-80.59-180-180-180c-99.411 0-180 80.589-180 180s80.589 180 180 180Z"/>
    <path fill="#000" d="M985.803 751.52c0 3.92-.8 7.32-2.4 10.2-1.6 2.88-3.72 5.24-6.36 7.08-2.64 1.84-5.6 3.2-8.88 4.08v.36c6.4.8 11.32 2.88 14.76 6.24 3.44 3.36 5.16 7.88 5.16 13.56 0 4.96-1.16 9.44-3.48 13.44-2.32 3.92-5.92 7.04-10.8 9.36-4.8 2.24-11.04 3.36-18.72 3.36-4.8 0-9.08-.4-12.84-1.2-3.76-.8-7.36-1.96-10.8-3.48v-15.36c3.52 1.84 7.12 3.24 10.8 4.2 3.76.96 7.2 1.44 10.32 1.44 5.68 0 9.6-1.12 11.76-3.36 2.24-2.24 3.36-5.4 3.36-9.48 0-2.4-.52-4.4-1.56-6-1.04-1.68-2.88-2.92-5.52-3.72-2.56-.88-6.28-1.32-11.16-1.32h-5.52V767h5.64c4.56 0 8.08-.48 10.56-1.44 2.48-1.04 4.2-2.4 5.16-4.08 1.04-1.76 1.56-3.76 1.56-6 0-3.04-.84-5.4-2.52-7.08-1.68-1.76-4.24-2.64-7.68-2.64-2.48 0-4.8.36-6.96 1.08-2.16.64-4.08 1.44-5.76 2.4-1.6.96-2.92 1.88-3.96 2.76l-8.4-12.48c2.16-1.6 4.52-3.04 7.08-4.32 2.64-1.28 5.6-2.28 8.88-3 3.36-.72 7.16-1.08 11.4-1.08 8.32 0 14.88 1.8 19.68 5.4 4.8 3.52 7.2 8.52 7.2 15Z"/>
    <path fill="#fff" d="M881.8 854.04h19.6v4.28h-19.6v-4.28Zm7.56-4.8h4.68v6.6h-4.68v-6.6Zm-3.6 9.96 4.48 1.12a27.723 27.723 0 0 1-2.6 5.08c-1.067 1.627-2.187 2.987-3.36 4.08a11.13 11.13 0 0 0-1.08-.92c-.427-.373-.88-.733-1.36-1.08a14.506 14.506 0 0 0-1.2-.84c1.093-.907 2.08-2.027 2.96-3.36a20.024 20.024 0 0 0 2.16-4.08Zm7.48 6.64 4.76 1c-1.307 4.373-3.133 8.24-5.48 11.6-2.347 3.333-5.173 6.027-8.48 8.08-.213-.347-.52-.773-.92-1.28-.373-.48-.773-.96-1.2-1.44-.427-.48-.8-.853-1.12-1.12a23.475 23.475 0 0 0 7.8-6.84c2.107-2.88 3.653-6.213 4.64-10Zm.16-5.32 3.72-1.84c.64.72 1.267 1.52 1.88 2.4.64.88 1.213 1.747 1.72 2.6.507.853.88 1.64 1.12 2.36l-4 2.12c-.213-.72-.56-1.52-1.04-2.4a26.293 26.293 0 0 0-1.6-2.68 28.813 28.813 0 0 0-1.8-2.56Zm-8.48 10.24 2.76-3.36a111.8 111.8 0 0 1 4.4 3.4 62.63 62.63 0 0 1 4.36 3.8c1.333 1.253 2.4 2.413 3.2 3.48l-3.04 3.96c-.747-1.093-1.773-2.307-3.08-3.64a67.744 67.744 0 0 0-4.2-4 71.901 71.901 0 0 0-4.4-3.64Zm16.2-12.92h14v4.52h-14v-4.52Zm12.2 0h4.48v1.32c0 .32-.013.587-.04.8-.08 4.133-.173 7.64-.28 10.52-.08 2.88-.187 5.253-.32 7.12-.133 1.84-.307 3.28-.52 4.32-.213 1.04-.48 1.787-.8 2.24-.453.667-.933 1.133-1.44 1.4-.48.293-1.053.493-1.72.6-.64.107-1.413.16-2.32.16-.907.027-1.84.027-2.8 0-.027-.64-.173-1.4-.44-2.28-.24-.853-.547-1.587-.92-2.2.907.053 1.733.093 2.48.12.747.027 1.32.04 1.72.04.32 0 .587-.04.8-.12.24-.107.453-.293.64-.56.213-.293.4-.907.56-1.84.16-.933.293-2.267.4-4 .107-1.733.2-3.96.28-6.68.107-2.747.187-6.067.24-9.96v-1Zm-8.24-8.28h4.6c-.027 3.253-.08 6.373-.16 9.36a94.323 94.323 0 0 1-.52 8.52c-.267 2.667-.707 5.187-1.32 7.56-.587 2.347-1.413 4.507-2.48 6.48a20.449 20.449 0 0 1-4.12 5.24c-.347-.56-.853-1.2-1.52-1.92-.667-.693-1.293-1.213-1.88-1.56 1.547-1.387 2.787-2.947 3.72-4.68.96-1.733 1.693-3.653 2.2-5.76.507-2.133.853-4.413 1.04-6.84.213-2.427.333-5.013.36-7.76.053-2.747.08-5.627.08-8.64Zm17.08 20.52h35.8v4.36h-35.8v-4.36Zm15.4-17.6h5.08v34.12h-5.08v-34.12Zm-1.32 19.72 3.96 1.72c-1.253 1.653-2.747 3.227-4.48 4.72a37.385 37.385 0 0 1-5.52 4 36.308 36.308 0 0 1-6 2.88c-.24-.4-.56-.853-.96-1.36a28.99 28.99 0 0 0-1.16-1.4c-.4-.48-.787-.893-1.16-1.24 1.493-.453 2.973-1 4.44-1.64a35.373 35.373 0 0 0 4.24-2.2 33.83 33.83 0 0 0 3.72-2.6c1.147-.933 2.12-1.893 2.92-2.88Zm7.28-.28c.827.96 1.827 1.907 3 2.84a38.511 38.511 0 0 0 3.84 2.6c1.387.8 2.827 1.533 4.32 2.2a34.583 34.583 0 0 0 4.44 1.64c-.347.32-.733.72-1.16 1.2-.4.48-.787.973-1.16 1.48-.373.507-.68.973-.92 1.4a37.777 37.777 0 0 1-4.48-2.12 44.427 44.427 0 0 1-4.36-2.76 39.437 39.437 0 0 1-3.96-3.24 31.208 31.208 0 0 1-3.28-3.56l3.72-1.68Zm-12.44-10.8v2.56H949v-2.56h-17.92Zm0-6.24v2.52H949v-2.52h-17.92Zm-5-4h28.16v16.8h-28.16v-16.8Zm39.64 4.64H978v26.92h-12.28v-4.2h7.96v-18.56h-7.96v-4.16Zm-2.8 0h4.36v29.88h-4.36v-29.88Zm2.64 10.68h10.2v4.16h-10.2v-4.16Zm3.08-17.2 5.2.76a72.192 72.192 0 0 1-1.4 4.04 62.755 62.755 0 0 1-1.32 3.4l-3.84-.88c.187-.693.36-1.467.52-2.32.187-.853.36-1.72.52-2.6.16-.88.267-1.68.32-2.4Zm14.64 6.2H995v4.4h-11.72v-4.4Zm10.04 0h4.44v1.36c0 .347-.013.613-.04.8-.107 4.507-.24 8.333-.4 11.48-.133 3.12-.307 5.707-.52 7.76-.187 2.027-.413 3.613-.68 4.76-.267 1.147-.613 1.987-1.04 2.52-.533.773-1.107 1.307-1.72 1.6-.613.293-1.32.507-2.12.64-.773.107-1.733.147-2.88.12-1.12 0-2.267-.013-3.44-.04-.027-.667-.187-1.453-.48-2.36a10.35 10.35 0 0 0-1.08-2.32c1.28.107 2.467.173 3.56.2 1.12.027 1.933.04 2.44.04.4 0 .72-.04.96-.12.267-.107.52-.293.76-.56.347-.347.627-1.053.84-2.12.24-1.093.44-2.627.6-4.6.16-1.973.307-4.467.44-7.48.133-3.013.253-6.6.36-10.76v-.92Zm-9.92-6.16 4.64 1.08a54.958 54.958 0 0 1-1.88 5.84 52.071 52.071 0 0 1-2.4 5.52c-.853 1.707-1.733 3.2-2.64 4.48-.267-.267-.653-.573-1.16-.92-.48-.373-.973-.733-1.48-1.08a9.559 9.559 0 0 0-1.28-.8c.88-1.147 1.707-2.467 2.48-3.96.8-1.52 1.507-3.147 2.12-4.88.64-1.76 1.173-3.52 1.6-5.28Zm-1.96 17.72 3.76-2.12c.667.907 1.373 1.907 2.12 3 .747 1.093 1.453 2.16 2.12 3.2a40.81 40.81 0 0 1 1.64 2.76l-4.08 2.48c-.373-.827-.88-1.773-1.52-2.84a77.133 77.133 0 0 0-2-3.28 74.856 74.856 0 0 0-2.04-3.2Zm21.88-9.96c.85.107 1.76.187 2.72.24.99.027 1.85.04 2.6.04 1.65 0 3.32-.093 5-.28 1.71-.187 3.35-.427 4.92-.72 1.57-.32 3-.68 4.28-1.08l.16 4.64c-1.15.293-2.52.6-4.12.92a79.17 79.17 0 0 1-5 .76c-1.76.187-3.49.28-5.2.28-.8 0-1.61-.013-2.44-.04-.83-.027-1.68-.067-2.56-.12l-.36-4.64Zm15.56-6c-.16.667-.37 1.533-.64 2.6a82.23 82.23 0 0 1-.92 3.36 79.454 79.454 0 0 1-1.04 3.48c-.59 1.92-1.36 3.96-2.32 6.12-.96 2.16-2 4.267-3.12 6.32s-2.25 3.88-3.4 5.48l-4.84-2.48c.91-1.12 1.8-2.36 2.68-3.72.88-1.36 1.71-2.76 2.48-4.2a75.66 75.66 0 0 0 2.08-4.16c.64-1.36 1.15-2.587 1.52-3.68.51-1.413.95-2.987 1.32-4.72.4-1.76.63-3.413.68-4.96l5.52.56Zm9.36 12.44c-.05.853-.08 1.707-.08 2.56.03.827.05 1.68.08 2.56.03.613.05 1.4.08 2.36.05.933.11 1.933.16 3 .05 1.04.09 2.04.12 3 .05.933.08 1.68.08 2.24 0 1.227-.25 2.347-.76 3.36-.51.987-1.32 1.773-2.44 2.36-1.09.587-2.6.88-4.52.88-1.65 0-3.15-.253-4.48-.76-1.33-.48-2.4-1.2-3.2-2.16-.8-.987-1.2-2.213-1.2-3.68 0-1.307.35-2.48 1.04-3.52.69-1.067 1.69-1.893 3-2.48 1.33-.613 2.93-.92 4.8-.92 2.35 0 4.51.333 6.48 1 1.97.64 3.75 1.467 5.32 2.48 1.57 1.013 2.92 2.027 4.04 3.04l-2.68 4.28c-.72-.64-1.55-1.36-2.48-2.16-.91-.8-1.93-1.547-3.08-2.24a18.007 18.007 0 0 0-3.68-1.72c-1.31-.453-2.72-.68-4.24-.68-1.15 0-2.07.227-2.76.68-.69.453-1.04 1.04-1.04 1.76 0 .747.29 1.347.88 1.8.61.453 1.47.68 2.56.68.91 0 1.63-.147 2.16-.44.53-.32.91-.76 1.12-1.32.21-.587.32-1.24.32-1.96 0-.613-.03-1.48-.08-2.6s-.12-2.36-.2-3.72c-.05-1.36-.11-2.72-.16-4.08-.05-1.36-.11-2.56-.16-3.6h5Zm6.88 2.12c-.77-.64-1.73-1.32-2.88-2.04s-2.33-1.4-3.56-2.04c-1.2-.667-2.25-1.2-3.16-1.6l2.56-3.96c.72.32 1.53.72 2.44 1.2.93.453 1.87.933 2.8 1.44.96.507 1.84 1.013 2.64 1.52.83.48 1.49.907 2 1.28l-2.84 4.2Zm-97.8 23.68h4.8v10.88c0 .747.16 1.213.48 1.4.347.187 1.093.28 2.24.28h7c.667 0 1.16-.107 1.48-.32.347-.213.587-.653.72-1.32.16-.667.28-1.653.36-2.96.507.347 1.2.693 2.08 1.04.88.32 1.64.547 2.28.68-.187 1.893-.507 3.373-.96 4.44-.453 1.04-1.12 1.76-2 2.16-.88.4-2.093.6-3.64.6h-7.76c-1.867 0-3.32-.173-4.36-.52-1.013-.347-1.72-.96-2.12-1.84-.4-.88-.6-2.08-.6-3.6v-10.92Zm15.48 1.72 3.56 3.48a59.424 59.424 0 0 1-4.84 1.68c-1.76.507-3.56.973-5.4 1.4-1.813.427-3.573.8-5.28 1.12-.107-.507-.307-1.107-.6-1.8a31.02 31.02 0 0 0-.8-1.76c1.6-.347 3.213-.733 4.84-1.16a75.149 75.149 0 0 0 4.68-1.44 52.602 52.602 0 0 0 3.84-1.52Zm-15.56 17.48h19.56v18.16h-4.76v-14.24H941.8v14.4h-4.56v-18.32Zm2.4 6.4h14v3.72h-14v-3.72Zm-.16 6.36h14.16v3.84h-14.16V921Zm-18.64-11.56c1.253-.267 2.667-.587 4.24-.96 1.6-.373 3.267-.773 5-1.2 1.76-.453 3.507-.907 5.24-1.36l.6 4.4c-2.4.667-4.827 1.32-7.28 1.96-2.427.64-4.64 1.227-6.64 1.76l-1.16-4.6Zm.64-12.88h13.8V901h-13.8v-4.44Zm5-7.56h4.68v32.4c0 1.173-.12 2.08-.36 2.72-.24.64-.707 1.16-1.4 1.56-.667.347-1.493.573-2.48.68-.987.107-2.187.16-3.6.16-.08-.613-.253-1.347-.52-2.2-.24-.853-.507-1.587-.8-2.2.773.027 1.52.053 2.24.08h1.48c.267-.027.453-.093.56-.2.133-.107.2-.293.2-.56V889Zm51.04 14.88h5.24v17.08c0 1.333-.173 2.373-.52 3.12-.347.747-.987 1.307-1.92 1.68-.933.373-2.067.6-3.4.68a58.22 58.22 0 0 1-4.6.16c-.107-.747-.333-1.613-.68-2.6-.32-.96-.667-1.8-1.04-2.52l2.36.08c.827.027 1.56.04 2.2.04h1.36c.373 0 .627-.053.76-.16.16-.133.24-.333.24-.6v-16.96Zm-9.64 5.04 5.08 1.32a34.076 34.076 0 0 1-2.16 4.72c-.827 1.547-1.707 3-2.64 4.36-.933 1.36-1.88 2.547-2.84 3.56-.32-.267-.76-.587-1.32-.96a35.16 35.16 0 0 0-1.64-1.08 18.857 18.857 0 0 0-1.48-.84c1.44-1.307 2.787-2.96 4.04-4.96 1.253-2 2.24-4.04 2.96-6.12Zm18.96 1.72 4.52-1.84c.88 1.227 1.76 2.56 2.64 4a56.844 56.844 0 0 1 2.4 4.24c.72 1.387 1.267 2.653 1.64 3.8l-5 2.16c-.293-1.093-.773-2.347-1.44-3.76a49.026 49.026 0 0 0-2.24-4.4 67.763 67.763 0 0 0-2.52-4.2ZM965.8 891.6h28.36v4.76H965.8v-4.76Zm-3.64 9.64h35.76V906h-35.76v-4.76ZM1150 1070H770c-5.523 0-10 4.48-10 10v100c0 5.52 4.477 10 10 10h380c5.52 0 10-4.48 10-10v-100c0-5.52-4.48-10-10-10Z"/>
    <path stroke="#333" stroke-dasharray="10 5" stroke-width="3" d="m660 430 220 80m380-80-220 80m-80 160v-40"/>
  </g>
  <defs>
    <clipPath id="a">
      <path fill="#fff" d="M0 0h1920v1080H0z"/>
    </clipPath>
  </defs>
</svg>
